G04 EasyPC Gerber Version 21.0.3 Build 4286 *
G04 #@! TF.Part,Single*
G04 #@! TF.FileFunction,Legend,Bot *
G04 #@! TF.FilePolarity,Positive *
%FSLAX35Y35*%
%MOIN*%
%ADD150C,0.00157*%
%ADD153C,0.00300*%
%ADD11C,0.00394*%
%ADD13C,0.00500*%
%ADD152C,0.00600*%
%ADD12C,0.00787*%
%ADD151C,0.00984*%
X0Y0D02*
D02*
D11*
X126175Y189941D02*
Y174508D01*
X105309*
Y195374*
X120742*
X126175Y189941*
X146864Y238780D02*
Y254114D01*
X126195*
Y233445*
X141530*
X146864Y238780*
D02*
D12*
X107474Y178248D02*
Y176673D01*
X109049*
Y193209D02*
X107474D01*
Y191634*
X122435Y176673D02*
X124010D01*
Y178248*
Y191634D02*
Y193209D01*
X122435*
D02*
D13*
X23719Y173488D02*
Y185331D01*
X29656*
Y173488*
X23719*
X23931Y211969D02*
X26293Y213150D01*
X23931Y214331*
Y211969*
X25514Y58445D02*
X33467D01*
Y69469*
X26608*
X25514Y68374*
Y65437*
X27789*
Y62484*
X25514*
Y58445*
X26474Y44386D02*
X38317D01*
Y38449*
X26474*
Y44386*
X26687Y211969D02*
Y214331D01*
X25900*
X29049Y215118D02*
X21569D01*
Y211181*
X29049*
Y215118*
X31427Y191520D02*
X19585D01*
Y197457*
X31427*
Y191520*
Y198094D02*
X19585D01*
Y204031*
X31427*
Y198094*
X31585Y204669D02*
X19742D01*
Y210606*
X31585*
Y204669*
X34152Y178835D02*
X45994D01*
Y172898*
X34152*
Y178835*
Y184346D02*
X45994D01*
Y178409*
X34152*
Y184346*
X34427Y54079D02*
Y65921D01*
X40364*
Y54079*
X34427*
X34742Y203835D02*
X46585D01*
Y197898*
X34742*
Y203835*
X35530Y212299D02*
X47372D01*
Y206362*
X35530*
Y212299*
X37711Y83071D02*
X52671D01*
Y75984*
X37711*
Y83071*
X39577Y224898D02*
Y213055D01*
X33640*
Y224898*
X39577*
X41451Y258937D02*
X44994Y255394D01*
X41451Y251850*
Y258937*
X42199Y157362D02*
Y157165D01*
X47711*
Y157362*
X42199*
X42459Y136441D02*
Y148283D01*
X48396*
Y136441*
X42459*
X42593Y153425D02*
X44955Y157362D01*
X47317Y153425*
X42593*
X42656Y135724D02*
X54498D01*
Y129787*
X42656*
Y135724*
X44207Y76772D02*
X44404D01*
Y82283*
X44207*
Y76772*
X45191Y258937D02*
Y251850D01*
X46766Y255394D02*
X40467D01*
X47411Y116559D02*
X35569D01*
Y122496*
X47411*
Y116559*
X48144Y77165D02*
X44207Y79528D01*
X48144Y81890*
Y77165*
X48498Y163858D02*
Y148898D01*
X41411*
Y163858*
X48498*
X48892Y148661D02*
X56372D01*
Y152598*
X48892*
Y148661*
X49144Y68606D02*
X37301D01*
Y74543*
X49144*
Y68606*
X50719Y93567D02*
X38876D01*
Y99504*
X50719*
Y93567*
X51254Y151811D02*
Y149449D01*
X52041*
X53396Y123094D02*
X41553D01*
Y129031*
X53396*
Y123094*
X53695Y80394D02*
Y72913D01*
X57632*
Y80394*
X53695*
X54010Y151811D02*
X51648Y150630D01*
X54010Y149449*
Y151811*
X55329Y251358D02*
X36628D01*
Y259429*
X55329*
Y251358*
X55593Y128287D02*
X63545D01*
Y139311*
X56687*
X55593Y138217*
Y135280*
X57868*
Y132327*
X55593*
Y128287*
X55998Y53236D02*
X40998D01*
Y67236*
X55998*
Y53336*
X56844Y75276D02*
X55663Y77638D01*
X54482Y75276*
X56844*
Y78031D02*
X54482D01*
Y77244*
X58026Y188819D02*
X60388D01*
Y189606*
X58026Y191575D02*
X59207Y189213D01*
X60388Y191575*
X58026*
X59089Y109291D02*
X63026Y106929D01*
X59089Y104567*
Y109291*
X61175Y186457D02*
Y193937D01*
X57238*
Y186457*
X61175*
X61246Y274429D02*
Y259429D01*
X47246*
Y274429*
X61146*
X62931Y184472D02*
Y196315D01*
X68868*
Y184472*
X62931*
X63026Y109685D02*
X62829D01*
Y104173*
X63026*
Y109685*
X63522Y274071D02*
X75364D01*
Y268134*
X63522*
Y274071*
X64451Y125945D02*
Y142087D01*
X73648*
Y125945*
X64451*
X65900Y133819D02*
Y133031D01*
X65506*
Y133819*
X65900*
X67451Y96354D02*
Y84512D01*
X61514*
Y96354*
X67451*
X69522Y103386D02*
X54561D01*
Y110472*
X69522*
Y103386*
X70167Y75929D02*
X58325D01*
Y81866*
X70167*
Y75929*
X72593Y133031D02*
Y132638D01*
X65506*
Y133031*
X72593*
Y136969D02*
X69049Y133031D01*
X65506Y136969*
X72593*
X73474Y257583D02*
X61632D01*
Y263520*
X73474*
Y257583*
X73821Y136083D02*
Y151083D01*
X87821*
Y136083*
X73921*
X73947Y66165D02*
X62104D01*
Y72102*
X73947*
Y66165*
X74900Y158165D02*
X86742D01*
Y152228*
X74900*
Y158165*
X76514Y181630D02*
X88356D01*
Y175693*
X76514*
Y181630*
X78829Y49945D02*
X66986D01*
Y55882*
X78829*
Y49945*
X78876Y160693D02*
Y174110D01*
X87569*
Y160693*
X78876*
X83482Y105339D02*
Y117181D01*
X89419*
Y105339*
X83482*
X89813Y134583D02*
Y122740D01*
X83876*
Y134583*
X89813*
X91632Y36512D02*
X103474D01*
Y30575*
X91632*
Y36512*
X91829Y74472D02*
Y86315D01*
X97766*
Y74472*
X91829*
X92026Y73520D02*
X103868D01*
Y67583*
X92026*
Y73520*
X94191Y188874D02*
X106033D01*
Y182937*
X94191*
Y188874*
X95073Y107866D02*
X110073D01*
Y93866*
X95073*
Y107766*
X97616Y223126D02*
X109459D01*
Y217189*
X97616*
Y223126*
X97931Y66827D02*
X109774D01*
Y60890*
X97931*
Y66827*
X98033Y127421D02*
Y142421D01*
X112033*
Y127421*
X98133*
X98632Y180213D02*
Y168370D01*
X92695*
Y180213*
X98632*
X101923Y216142D02*
Y202362D01*
X88144*
Y216142*
X101923*
X103246Y204394D02*
Y216236D01*
X109183*
Y204394*
X103246*
X103656Y38425D02*
Y58701D01*
X118222*
Y40984*
X115663Y38425*
X103656*
X104537Y177063D02*
Y165220D01*
X98600*
Y177063*
X104537*
X104624Y73520D02*
X116467D01*
Y67583*
X104624*
Y73520*
X105569Y262575D02*
X117411D01*
Y256638*
X105569*
Y262575*
X105648Y253913D02*
X117490D01*
Y247976*
X105648*
Y253913*
X106396Y24472D02*
Y36315D01*
X112333*
Y24472*
X106396*
X107931Y238874D02*
X119774D01*
Y232937*
X107931*
Y238874*
X108561Y162071D02*
Y173913D01*
X114498*
Y162071*
X108561*
X110427Y125591D02*
X104128D01*
Y115768*
X109581*
X110427Y116614*
Y119331*
X108852*
Y121969*
X110427*
Y125591*
X112341Y131709D02*
X124183D01*
Y125772*
X112341*
Y131709*
X112372Y109118D02*
X100530D01*
Y115055*
X112372*
Y109118*
X113112Y110098D02*
Y125098D01*
X127112*
Y110098*
X113212*
X115919Y163799D02*
X134620D01*
Y155728*
X115919*
Y163799*
X116829Y34346D02*
X128671D01*
Y28409*
X116829*
Y34346*
X116978Y107181D02*
Y95339D01*
X111041*
Y107181*
X116978*
X117970Y259433D02*
Y271276D01*
X123907*
Y259433*
X117970*
X123356Y79228D02*
Y67386D01*
X117419*
Y79228*
X123356*
X123498Y217559D02*
Y203780D01*
X109719*
Y217559*
X123498*
X123986Y256787D02*
Y244945D01*
X118049*
Y256787*
X123986*
X124112Y67386D02*
Y79228D01*
X130049*
Y67386*
X124112*
X124482Y159764D02*
X130781D01*
X125467Y232205D02*
Y218425D01*
X111687*
Y232205*
X125467*
X125719Y244898D02*
Y233055D01*
X119781*
Y244898*
X125719*
X125994Y196008D02*
X114152D01*
Y201945*
X125994*
Y196008*
X126057Y156220D02*
Y163307D01*
X126396Y202031D02*
Y213874D01*
X132333*
Y202031*
X126396*
X129459Y60496D02*
X117616D01*
Y66433*
X129459*
Y60496*
X129656Y53638D02*
Y41795D01*
X123719*
Y53638*
X129656*
X129797Y156220D02*
X126254Y159764D01*
X129797Y163307*
Y156220*
X130608Y164236D02*
Y176079D01*
X136545*
Y164236*
X130608*
X131431Y141346D02*
X116431D01*
Y155346*
X131431*
Y141446*
X131482Y107579D02*
Y92579D01*
X117482*
Y107579*
X131382*
X131498Y105256D02*
Y120256D01*
X145498*
Y105256*
X131598*
X132569Y270724D02*
Y258882D01*
X126632*
Y270724*
X132569*
X132805Y35102D02*
X120963D01*
Y41039*
X132805*
Y35102*
X132852Y67228D02*
Y79071D01*
X138789*
Y67228*
X132852*
X133522Y85173D02*
X145364D01*
Y79236*
X133522*
Y85173*
X134384Y85295D02*
Y103996D01*
X142455*
Y85295*
X134384*
X134939Y196717D02*
Y208559D01*
X140876*
Y196717*
X134939*
X137297Y159638D02*
X152297D01*
Y145638*
X137297*
Y159538*
X138104Y43780D02*
X141648Y47323D01*
X145191Y43780*
X138104*
Y47520D02*
X145191D01*
X138419Y93858D02*
Y100157D01*
X139104Y270724D02*
Y258882D01*
X133167*
Y270724*
X139104*
X140096Y259039D02*
Y270882D01*
X146033*
Y259039*
X140096*
X141648Y49094D02*
Y42795D01*
X141963Y95433D02*
X134876D01*
X141963Y99173D02*
X138419Y95630D01*
X134876Y99173*
X141963*
X142530Y176815D02*
X130687D01*
Y182752*
X142530*
Y176815*
X145683Y57657D02*
Y38957D01*
X137612*
Y57657*
X145683*
X146144Y96220D02*
Y111220D01*
X160144*
Y96220*
X146244*
X145592Y242276D02*
X144342D01*
X144967D02*
Y246026D01*
X145592D02*
X144342D01*
X138404Y242901D02*
X138717Y242589D01*
X139342Y242276*
X140280*
X140904Y242589*
X141217Y242901*
X141530Y243526*
Y244776*
X141217Y245401*
X140904Y245714*
X140280Y246026*
X139342*
X138717Y245714*
X138404Y245401*
X134030Y242276D02*
X136530D01*
X134342Y244464*
X134030Y245089*
X134342Y245714*
X134967Y246026*
X135904*
X136530Y245714*
X131217Y242589D02*
X130592Y242276D01*
X129967*
X129342Y242589*
X129030Y243214*
Y245089*
X129342Y245714*
X129967Y246026*
X130592*
X131217Y245714*
X131530Y245089*
Y243214*
X131217Y242589*
X129342Y245714*
X146722Y202378D02*
Y190535D01*
X140785*
Y202378*
X146722*
X147002Y178346D02*
X145033D01*
Y180906*
X147002*
X147018Y223252D02*
X135175D01*
Y229189*
X147018*
Y223252*
X147474Y197638D02*
X154955D01*
Y201575*
X147474*
Y197638*
X149167Y180906D02*
X151136D01*
Y178346*
X149167*
X149837Y200787D02*
Y198425D01*
X150624*
X151102Y230055D02*
X145000D01*
Y232811*
X151102*
Y230055*
X151213Y256680D02*
X159587Y248306D01*
X155389Y244108*
X147015Y252481*
X151213Y256680*
X151427Y160496D02*
X139585D01*
Y166433*
X151427*
Y160496*
X151490Y174094D02*
X158970D01*
Y178031*
X151490*
Y174094*
X151868Y222417D02*
X163711D01*
Y216480*
X151868*
Y222417*
X152435Y211496D02*
X159915D01*
Y215433*
X152435*
Y211496*
X152569Y274031D02*
Y262189D01*
X146632*
Y274031*
X152569*
X152593Y200787D02*
X150230Y199606D01*
X152593Y198425*
Y200787*
X153671Y57976D02*
X141829D01*
Y63913*
X153671*
Y57976*
X153852Y177244D02*
Y174882D01*
X154640*
X154703Y186709D02*
X166545D01*
Y180772*
X154703*
Y186709*
X154797Y214646D02*
Y212283D01*
X155585*
X156608Y177244D02*
X154246Y176063D01*
X156608Y174882*
Y177244*
X157553Y214646D02*
X155191Y213465D01*
X157553Y212283*
Y214646*
X158199Y51835D02*
X146356D01*
Y57772*
X158199*
Y51835*
X158270Y48287D02*
Y63287D01*
X172270*
Y48287*
X158370*
X158872Y80433D02*
Y63898D01*
X142337*
Y76102*
X146667Y80433*
X158872*
X159104Y271433D02*
Y259591D01*
X153167*
Y271433*
X159104*
X159703Y259512D02*
Y271354D01*
X165640*
Y259512*
X159703*
X160451Y215646D02*
X172293D01*
Y209709*
X160451*
Y215646*
X160758Y82740D02*
X148915D01*
Y88677*
X160758*
Y82740*
Y172142D02*
Y160299D01*
X154821*
Y172142*
X160758*
X160880Y131583D02*
X145880D01*
Y145583*
X160880*
Y131683*
X161844Y117409D02*
X146844D01*
Y131409*
X161844*
Y117509*
X162913Y233441D02*
X156811D01*
Y236196*
X162913*
Y233441*
X164467Y241598D02*
Y253441D01*
X170404*
Y241598*
X164467*
X165748Y236826D02*
X159645D01*
Y239582*
X165748*
Y236826*
X166348Y103047D02*
Y91205D01*
X160411*
Y103047*
X166348*
X166396Y95575D02*
Y107417D01*
X172333*
Y95575*
X166396*
X167766Y172693D02*
Y160850D01*
X161829*
Y172693*
X167766*
X168797Y91394D02*
X180640D01*
Y85457*
X168797*
Y91394*
X170963Y241598D02*
Y253441D01*
X176900*
Y241598*
X170963*
X173443Y60606D02*
X185285D01*
Y54669*
X173443*
Y60606*
X173671Y266866D02*
Y255024D01*
X167734*
Y266866*
X173671*
X174112Y191098D02*
X185955D01*
Y185161*
X174112*
Y191098*
X174341Y172693D02*
Y160850D01*
X168404*
Y172693*
X174341*
X174742Y73055D02*
Y84898D01*
X180679*
Y73055*
X174742*
X175096Y213874D02*
X186939D01*
Y207937*
X175096*
Y213874*
X176681Y98370D02*
X182784D01*
Y95615*
X176681*
Y98370*
X177154Y69237D02*
X183256D01*
Y66481*
X177154*
Y69237*
X178246Y151638D02*
Y163480D01*
X184183*
Y151638*
X178246*
X179606Y69819D02*
X173504D01*
Y72574*
X179606*
Y69819*
X179891Y113617D02*
Y119719D01*
X182647*
Y113617*
X179891*
X180640Y206984D02*
Y195142D01*
X174703*
Y206984*
X180640*
X181297Y195142D02*
Y206984D01*
X187234*
Y195142*
X181297*
X184577Y176276D02*
Y164433D01*
X178640*
Y176276*
X184577*
X186514Y191098D02*
X198356D01*
Y185161*
X186514*
Y191098*
X187364Y209252D02*
Y225394D01*
X196561*
Y209252*
X187364*
X187498Y195457D02*
Y207299D01*
X193435*
Y195457*
X187498*
X188813Y217126D02*
Y216339D01*
X188419*
Y217126*
X188813*
X189734Y99858D02*
Y88016D01*
X183797*
Y99858*
X189734*
X189781Y88016D02*
Y99858D01*
X195719*
Y88016*
X189781*
X193937Y100291D02*
X187834D01*
Y103047*
X193937*
Y100291*
X194502Y253406D02*
X213203D01*
Y245335*
X194502*
Y253406*
X195506Y216339D02*
Y215945D01*
X188419*
Y216339*
X195506*
Y220276D02*
X191963Y216339D01*
X188419Y220276*
X195506*
X196274Y121189D02*
Y129142D01*
X185250*
Y122283*
X186344Y121189*
X189281*
Y123465*
X192234*
Y121189*
X196274*
X200250Y108602D02*
X218951D01*
Y100531*
X200250*
Y108602*
X200293Y237693D02*
X212136D01*
Y231756*
X200293*
Y237693*
Y244228D02*
X212136D01*
Y238291*
X200293*
Y244228*
X200837Y275764D02*
Y263921D01*
X194900*
Y275764*
X200837*
X201695Y188307D02*
Y204449D01*
X210892*
Y188307*
X201695*
X202317Y131811D02*
Y145591D01*
X216096*
Y131811*
X202317*
X203065Y249370D02*
X209364D01*
X203144Y196181D02*
Y195394D01*
X202750*
Y196181*
X203144*
X204640Y245827D02*
Y252913D01*
X205057Y118409D02*
Y130252D01*
X210994*
Y118409*
X205057*
X205073Y99449D02*
X208616Y95906D01*
X205073Y92362*
Y99449*
X207136Y58913D02*
Y47071D01*
X201199*
Y58913*
X207136*
X207537Y211630D02*
X219380D01*
Y205693*
X207537*
Y211630*
X207770Y59528D02*
X191844D01*
X185919Y65453*
Y87461*
X207770*
Y59528*
X208002Y162858D02*
X196159D01*
Y168795*
X208002*
Y162858*
X208163Y44744D02*
Y63445D01*
X216234*
Y44744*
X208163*
X208380Y245827D02*
X204837Y249370D01*
X208380Y252913*
Y245827*
X208659Y157150D02*
Y168992D01*
X214596*
Y157150*
X208659*
X208813Y99449D02*
Y92362D01*
Y104567D02*
X215112D01*
X209837Y195394D02*
Y195000D01*
X202750*
Y195394*
X209837*
Y199331D02*
X206293Y195394D01*
X202750Y199331*
X209837*
X210388Y95906D02*
X204089D01*
X210388Y101024D02*
Y108110D01*
X212193Y112229D02*
X218296D01*
Y109473*
X212193*
Y112229*
X212199Y53307D02*
Y59606D01*
X212750Y183504D02*
Y169724D01*
X198970*
Y183504*
X212750*
X214128Y101024D02*
X210585Y104567D01*
X214128Y108110*
Y101024*
X215742Y54882D02*
X208656D01*
X215742Y58622D02*
X212199Y55079D01*
X208656Y58622*
X215742*
X217608Y130173D02*
Y118331D01*
X211671*
Y130173*
X217608*
X218616Y228268D02*
Y214488D01*
X204837*
Y228268*
X218616*
X218951Y91870D02*
X200250D01*
Y99941*
X218951*
Y91870*
D02*
D150*
X23218Y195534D02*
X23033Y195719D01*
X22664Y195903*
X22110*
X21741Y195719*
X21557Y195534*
X21372Y195165*
Y194427*
X21557Y194057*
X21741Y193873*
X22110Y193689*
X22664*
X23033Y193873*
X23218Y194057*
X24325Y195903D02*
X25801Y193689D01*
X24325*
X27831Y194796D02*
X28200D01*
X28569Y194611*
X28754Y194242*
X28569Y193873*
X28200Y193689*
X27831*
X27462Y193873*
X27278Y194242*
X27462Y194611*
X27831Y194796*
X27462Y194980*
X27278Y195349*
X27462Y195719*
X27831Y195903*
X28200*
X28569Y195719*
X28754Y195349*
X28569Y194980*
X28200Y194796*
X27418Y182564D02*
X27602Y182748D01*
X27787Y183118*
Y183671*
X27602Y184040*
X27418Y184225*
X27049Y184409*
X26311*
X25941Y184225*
X25757Y184040*
X25572Y183671*
Y183118*
X25757Y182748*
X25941Y182564*
X27787Y181087D02*
Y180349D01*
Y180719D02*
X25572D01*
X25941Y181087*
X27602Y178319D02*
X27787Y177950D01*
Y177581*
X27602Y177212*
X27233Y177028*
X26126*
X25757Y177212*
X25572Y177581*
Y177950*
X25757Y178319*
X26126Y178504*
X27233*
X27602Y178319*
X25757Y177212*
X27787Y174075D02*
Y175551D01*
X26495Y174259*
X26126Y174075*
X25757Y174259*
X25572Y174628*
Y175182*
X25757Y175551*
X27794Y200017D02*
X27979Y199833D01*
X28348Y199648*
X28902*
X29270Y199833*
X29455Y200017*
X29640Y200386*
Y201124*
X29455Y201494*
X29270Y201678*
X28902Y201863*
X28348*
X27979Y201678*
X27794Y201494*
X26687Y199648D02*
X25211Y201863D01*
X26687*
X23734Y199648D02*
X22258Y201863D01*
X23734*
X30467Y206695D02*
Y208910D01*
X29175*
X28806Y208726*
X28621Y208356*
X28806Y207987*
X29175Y207803*
X30467*
X29175D02*
X28621Y206695D01*
X27144D02*
X26406D01*
X26776D02*
Y208910D01*
X27144Y208541*
X24376Y206880D02*
X24007Y206695D01*
X23638*
X23269Y206880*
X23085Y207249*
Y208356*
X23269Y208726*
X23638Y208910*
X24007*
X24376Y208726*
X24561Y208356*
Y207249*
X24376Y206880*
X23269Y208726*
X21608Y207249D02*
X21424Y207618D01*
X21055Y207803*
X20685*
X20317Y207618*
X20132Y207249*
X20317Y206880*
X20685Y206695*
X21055*
X21424Y206880*
X21608Y207249*
Y207803*
X21424Y208356*
X21055Y208726*
X20685Y208910*
X31985Y62916D02*
Y65130D01*
X32907D02*
X31062D01*
X29401Y64023D02*
X29032D01*
X28663Y64208*
X28478Y64577*
X28663Y64946*
X29032Y65130*
X29401*
X29770Y64946*
X29955Y64577*
X29770Y64208*
X29401Y64023*
X29770Y63839*
X29955Y63470*
X29770Y63100*
X29401Y62916*
X29032*
X28663Y63100*
X28478Y63470*
X28663Y63839*
X29032Y64023*
X34093Y40765D02*
X34278Y40581D01*
X34647Y40396*
X35201*
X35570Y40581*
X35754Y40765*
X35939Y41134*
Y41872*
X35754Y42242*
X35570Y42426*
X35201Y42611*
X34647*
X34278Y42426*
X34093Y42242*
X32802Y40581D02*
X32433Y40396D01*
X32063*
X31694Y40581*
X31510Y40950*
Y42057*
X31694Y42426*
X32063Y42611*
X32433*
X32802Y42426*
X32986Y42057*
Y40950*
X32802Y40581*
X31694Y42426*
X28557Y40396D02*
X30033D01*
X28742Y41688*
X28557Y42057*
X28742Y42426*
X29111Y42611*
X29664*
X30033Y42426*
X37630Y222717D02*
X35415D01*
Y221425*
X35599Y221056*
X35969Y220871*
X36337Y221056*
X36522Y221425*
Y222717*
Y221425D02*
X37630Y220871D01*
Y219210D02*
X37445Y218841D01*
X37076Y218472*
X36522Y218287*
X35969*
X35599Y218472*
X35415Y218841*
Y219210*
X35599Y219579*
X35969Y219764*
X36337Y219579*
X36522Y219210*
Y218841*
X36337Y218472*
X35969Y218287*
X37076Y216811D02*
X36707Y216626D01*
X36522Y216257*
Y215888*
X36707Y215519*
X37076Y215335*
X37445Y215519*
X37630Y215888*
Y216257*
X37445Y216626*
X37076Y216811*
X36522*
X35969Y216626*
X35599Y216257*
X35415Y215888*
X38811Y64724D02*
X36596D01*
Y63433*
X36780Y63063*
X37150Y62879*
X37519Y63063*
X37703Y63433*
Y64724*
Y63433D02*
X38811Y62879D01*
Y61402D02*
Y60664D01*
Y61033D02*
X36596D01*
X36965Y61402*
X38811Y57343D02*
Y58819D01*
X37519Y57527*
X37150Y57343*
X36780Y57527*
X36596Y57896*
Y58450*
X36780Y58819*
X38811Y55497D02*
Y54759D01*
Y55128D02*
X36596D01*
X36965Y55497*
X40858Y160236D02*
X38643D01*
Y159129*
X38828Y158760*
X39012Y158575*
X39381Y158391*
X40120*
X40489Y158575*
X40673Y158760*
X40858Y159129*
Y160236*
Y157283D02*
X38643Y155807D01*
Y157283*
X40858Y152854D02*
Y154331D01*
X39566Y153039*
X39197Y152854*
X38828Y153039*
X38643Y153408*
Y153961*
X38828Y154331*
X44086Y107561D02*
X43348D01*
X43717D02*
Y109776D01*
X44086D02*
X43348D01*
X39841Y107931D02*
X40026Y107746D01*
X40395Y107561*
X40949*
X41318Y107746*
X41502Y107931*
X41687Y108300*
Y109038*
X41502Y109407*
X41318Y109592*
X40949Y109776*
X40395*
X40026Y109592*
X39841Y109407*
X37258Y107561D02*
X38734D01*
X37443Y108854*
X37258Y109222*
X37443Y109592*
X37811Y109776*
X38365*
X38734Y109592*
X42952Y200608D02*
X43136Y200423D01*
X43506Y200239*
X44059*
X44428Y200423*
X44613Y200608*
X44797Y200977*
Y201715*
X44613Y202084*
X44428Y202269*
X44059Y202453*
X43506*
X43136Y202269*
X42952Y202084*
X41844Y200239D02*
X40368Y202453D01*
X41844*
X38338Y200239D02*
X37969Y200423D01*
X37600Y200793*
X37415Y201346*
Y201900*
X37600Y202269*
X37969Y202453*
X38338*
X38707Y202269*
X38892Y201900*
X38707Y201531*
X38338Y201346*
X37969*
X37600Y201531*
X37415Y201900*
X43030Y118482D02*
X43215Y118297D01*
X43584Y118113*
X44138*
X44507Y118297*
X44691Y118482*
X44876Y118851*
Y119589*
X44691Y119958*
X44507Y120143*
X44138Y120327*
X43584*
X43215Y120143*
X43030Y119958*
X41370Y119220D02*
X41000D01*
X40631Y119405*
X40447Y119774*
X40631Y120143*
X41000Y120327*
X41370*
X41739Y120143*
X41923Y119774*
X41739Y119405*
X41370Y119220*
X41739Y119035*
X41923Y118667*
X41739Y118297*
X41370Y118113*
X41000*
X40631Y118297*
X40447Y118667*
X40631Y119035*
X41000Y119220*
X37494Y118113D02*
X38970D01*
X37679Y119405*
X37494Y119774*
X37679Y120143*
X38048Y120327*
X38601*
X38970Y120143*
X43148Y210180D02*
X43333Y210364D01*
X43702Y210549*
X44256*
X44625Y210364*
X44809Y210180*
X44994Y209811*
Y209072*
X44809Y208703*
X44625Y208519*
X44256Y208334*
X43702*
X43333Y208519*
X43148Y208703*
X41488Y209441D02*
X41119D01*
X40750Y209257*
X40565Y208888*
X40750Y208519*
X41119Y208334*
X41488*
X41857Y208519*
X42041Y208888*
X41857Y209257*
X41488Y209441*
X41857Y209626*
X42041Y209995*
X41857Y210364*
X41488Y210549*
X41119*
X40750Y210364*
X40565Y209995*
X40750Y209626*
X41119Y209441*
X38535D02*
X38166D01*
X37797Y209257*
X37612Y208888*
X37797Y208519*
X38166Y208334*
X38535*
X38904Y208519*
X39089Y208888*
X38904Y209257*
X38535Y209441*
X38904Y209626*
X39089Y209995*
X38904Y210364*
X38535Y210549*
X38166*
X37797Y210364*
X37612Y209995*
X37797Y209626*
X38166Y209441*
X45191Y174845D02*
Y177059D01*
X43899*
X43530Y176875*
X43345Y176506*
X43530Y176137*
X43899Y175952*
X45191*
X43899D02*
X43345Y174845D01*
X41685D02*
X41315Y175030D01*
X40946Y175399*
X40762Y175952*
Y176506*
X40946Y176875*
X41315Y177059*
X41685*
X42054Y176875*
X42238Y176506*
X42054Y176137*
X41685Y175952*
X41315*
X40946Y176137*
X40762Y176506*
X38916Y174845D02*
X38178D01*
X38547D02*
Y177059D01*
X38916Y176691*
X35779Y175952D02*
X35410D01*
X35041Y176137*
X34856Y176506*
X35041Y176875*
X35410Y177059*
X35779*
X36148Y176875*
X36333Y176506*
X36148Y176137*
X35779Y175952*
X36148Y175768*
X36333Y175399*
X36148Y175030*
X35779Y174845*
X35410*
X35041Y175030*
X34856Y175399*
X35041Y175768*
X35410Y175952*
X45506Y180357D02*
Y182571D01*
X44214*
X43845Y182387*
X43660Y182018*
X43845Y181649*
X44214Y181464*
X45506*
X44214D02*
X43660Y180357D01*
X42000D02*
X41630Y180541D01*
X41261Y180911*
X41077Y181464*
Y182018*
X41261Y182387*
X41630Y182571*
X42000*
X42369Y182387*
X42553Y182018*
X42369Y181649*
X42000Y181464*
X41630*
X41261Y181649*
X41077Y182018*
X38124Y180357D02*
X39600D01*
X38309Y181649*
X38124Y182018*
X38309Y182387*
X38678Y182571*
X39231*
X39600Y182387*
X36463Y180541D02*
X36094Y180357D01*
X35725*
X35356Y180541*
X35171Y180911*
Y182018*
X35356Y182387*
X35725Y182571*
X36094*
X36463Y182387*
X36648Y182018*
Y180911*
X36463Y180541*
X35356Y182387*
X46291Y146063D02*
X44076D01*
Y144771*
X44261Y144402*
X44630Y144217*
X44999Y144402*
X45183Y144771*
Y146063*
Y144771D02*
X46291Y144217D01*
Y143110D02*
X44076Y141634D01*
Y143110*
X46106Y140157D02*
X46291Y139788D01*
Y139235*
X46106Y138866*
X45737Y138681*
X45553*
X45183Y138866*
X44999Y139235*
Y140157*
X44076*
Y138681*
X48104Y70711D02*
Y72926D01*
X46813*
X46443Y72741*
X46259Y72372*
X46443Y72003*
X46813Y71819*
X48104*
X46813D02*
X46259Y70711D01*
X44782D02*
X44044D01*
X44413D02*
Y72926D01*
X44782Y72557*
X40722Y70711D02*
X42199D01*
X40907Y72003*
X40722Y72372*
X40907Y72741*
X41276Y72926*
X41830*
X42199Y72741*
X39061Y70896D02*
X38693Y70711D01*
X38323*
X37954Y70896*
X37770Y71265*
X37954Y71634*
X38323Y71819*
X38693*
X38323D02*
X37954Y72003D01*
X37770Y72372*
X37954Y72741*
X38323Y72926*
X38693*
X39061Y72741*
X48341Y83624D02*
Y85839D01*
X47233*
X46864Y85655*
X46680Y85470*
X46495Y85101*
Y84363*
X46680Y83994*
X46864Y83809*
X47233Y83624*
X48341*
X45388D02*
X43911Y85839D01*
X45388*
X42066Y83624D02*
X41328D01*
X41697D02*
Y85839D01*
X42066Y85470*
X47085Y95490D02*
X47270Y95305D01*
X47639Y95120*
X48193*
X48562Y95305*
X48746Y95490*
X48931Y95859*
Y96597*
X48746Y96966*
X48562Y97151*
X48193Y97335*
X47639*
X47270Y97151*
X47085Y96966*
X45425Y96228D02*
X45056D01*
X44687Y96413*
X44502Y96781*
X44687Y97151*
X45056Y97335*
X45425*
X45794Y97151*
X45978Y96781*
X45794Y96413*
X45425Y96228*
X45794Y96043*
X45978Y95674*
X45794Y95305*
X45425Y95120*
X45056*
X44687Y95305*
X44502Y95674*
X44687Y96043*
X45056Y96228*
X42841Y95305D02*
X42472Y95120D01*
X42103*
X41734Y95305*
X41549Y95674*
X41734Y96043*
X42103Y96228*
X42472*
X42103D02*
X41734Y96413D01*
X41549Y96781*
X41734Y97151*
X42103Y97335*
X42472*
X42841Y97151*
X51175Y147650D02*
X53021D01*
X51175Y145435*
X53021*
X54128D02*
Y147650D01*
X55235*
X55604Y147466*
X55789Y147281*
X55974Y146912*
Y146174*
X55789Y145805*
X55604Y145620*
X55235Y145435*
X54128*
X57081D02*
X58557Y147650D01*
X57081*
X60218Y145620D02*
X60587Y145435D01*
X60956*
X61325Y145620*
X61510Y145989*
Y147096*
X61325Y147466*
X60956Y147650*
X60587*
X60218Y147466*
X60033Y147096*
Y145989*
X60218Y145620*
X61325Y147466*
X51490Y124884D02*
Y127099D01*
X50198*
X49829Y126915*
X49644Y126545*
X49829Y126176*
X50198Y125992*
X51490*
X50198D02*
X49644Y124884D01*
X47984Y125992D02*
X47615D01*
X47246Y126176*
X47061Y126545*
X47246Y126915*
X47615Y127099*
X47984*
X48353Y126915*
X48537Y126545*
X48353Y126176*
X47984Y125992*
X48353Y125807*
X48537Y125438*
X48353Y125069*
X47984Y124884*
X47615*
X47246Y125069*
X47061Y125438*
X47246Y125807*
X47615Y125992*
X45400Y125069D02*
X45031Y124884D01*
X44662*
X44293Y125069*
X44108Y125438*
Y126545*
X44293Y126915*
X44662Y127099*
X45031*
X45400Y126915*
X45585Y126545*
Y125438*
X45400Y125069*
X44293Y126915*
X51805Y72453D02*
X53651D01*
X51805Y70239*
X53651*
X54758D02*
Y72453D01*
X55865*
X56234Y72269*
X56419Y72084*
X56604Y71715*
Y70977*
X56419Y70608*
X56234Y70423*
X55865Y70239*
X54758*
X57711D02*
X59187Y72453D01*
X57711*
X61033Y70239D02*
X61771D01*
X61402D02*
Y72453D01*
X61033Y72084*
X51355Y59215D02*
Y61430D01*
X52278D02*
X50432D01*
X47848Y59215D02*
X49325D01*
X48033Y60507*
X47848Y60876*
X48033Y61245*
X48402Y61430*
X48956*
X49325Y61245*
X45449Y59215D02*
Y61430D01*
X46372Y59953*
X44896*
X54089Y131735D02*
Y133949D01*
X52797*
X52428Y133765*
X52243Y133396*
X52428Y133027*
X52797Y132842*
X54089*
X52797D02*
X52243Y131735D01*
X50767D02*
X50028D01*
X50398D02*
Y133949D01*
X50767Y133580*
X47998Y131919D02*
X47630Y131735D01*
X47260*
X46891Y131919*
X46707Y132289*
Y133396*
X46891Y133765*
X47260Y133949*
X47630*
X47998Y133765*
X48183Y133396*
Y132289*
X47998Y131919*
X46891Y133765*
X44307Y131735D02*
Y133949D01*
X45230Y132473*
X43754*
X54246Y255947D02*
Y258162D01*
X53139*
X52770Y257978*
X52585Y257793*
X52400Y257424*
Y256685*
X52585Y256317*
X52770Y256132*
X53139Y255947*
X54246*
X50740Y257055D02*
X50370D01*
X50002Y257239*
X49817Y257608*
X50002Y257978*
X50370Y258162*
X50740*
X51109Y257978*
X51293Y257608*
X51109Y257239*
X50740Y257055*
X51109Y256870*
X51293Y256501*
X51109Y256132*
X50740Y255947*
X50370*
X50002Y256132*
X49817Y256501*
X50002Y256870*
X50370Y257055*
X48341Y255947D02*
X46864Y258162D01*
X48341*
X57691Y266361D02*
Y268575D01*
X56583*
X56215Y268391*
X56030Y268206*
X55845Y267837*
Y267099*
X56030Y266730*
X56215Y266545*
X56583Y266361*
X57691*
X54185D02*
X53815Y266545D01*
X53446Y266915*
X53262Y267468*
Y268022*
X53446Y268391*
X53815Y268575*
X54185*
X54554Y268391*
X54738Y268022*
X54554Y267653*
X54185Y267468*
X53815*
X53446Y267653*
X53262Y268022*
X51416Y266361D02*
X50678D01*
X51047D02*
Y268575D01*
X51416Y268206*
X61960Y134983D02*
X59746D01*
Y135906D02*
Y134060D01*
X61960Y131476D02*
Y132953D01*
X60668Y131661*
X60299Y131476*
X59930Y131661*
X59746Y132030*
Y132583*
X59930Y132953*
X62907Y70254D02*
Y68039D01*
X64199*
X64569Y68223*
X64753Y68593*
X64569Y68961*
X64199Y69146*
X62907*
X64199D02*
X64753Y70254D01*
X66230D02*
X66968D01*
X66598D02*
Y68039D01*
X66230Y68408*
X68998Y70069D02*
X69367Y70254D01*
X69736*
X70105Y70069*
X70289Y69700*
Y68593*
X70105Y68223*
X69736Y68039*
X69367*
X68998Y68223*
X68813Y68593*
Y69700*
X68998Y70069*
X70105Y68223*
X71766Y70254D02*
X73242Y68039D01*
X71766*
X65307Y93583D02*
X63092D01*
Y92291*
X63276Y91922*
X63646Y91737*
X64015Y91922*
X64199Y92291*
Y93583*
Y92291D02*
X65307Y91737D01*
X64199Y90076D02*
Y89707D01*
X64015Y89338*
X63646Y89154*
X63276Y89338*
X63092Y89707*
Y90076*
X63276Y90445*
X63646Y90630*
X64015Y90445*
X64199Y90076*
X64384Y90445*
X64753Y90630*
X65122Y90445*
X65307Y90076*
Y89707*
X65122Y89338*
X64753Y89154*
X64384Y89338*
X64199Y89707*
X65307Y87308D02*
Y86570D01*
Y86939D02*
X63092D01*
X63461Y87308*
X65582Y109213D02*
X63368D01*
Y108105*
X63552Y107736*
X63737Y107552*
X64106Y107367*
X64844*
X65213Y107552*
X65398Y107736*
X65582Y108105*
Y109213*
Y106260D02*
X63368Y104783D01*
Y106260*
X66527Y195512D02*
X64313D01*
Y194220*
X64497Y193851*
X64866Y193666*
X65235Y193851*
X65420Y194220*
Y195512*
Y194220D02*
X66527Y193666D01*
Y192190D02*
Y191452D01*
Y191821D02*
X64313D01*
X64681Y192190*
X66343Y189422D02*
X66527Y189053D01*
Y188683*
X66343Y188315*
X65973Y188130*
X64866*
X64497Y188315*
X64313Y188683*
Y189053*
X64497Y189422*
X64866Y189606*
X65973*
X66343Y189422*
X64497Y188315*
X66527Y186284D02*
Y185546D01*
Y185915D02*
X64313D01*
X64681Y186284*
X69928Y128583D02*
Y130428D01*
X67713Y128583*
Y130428*
Y131535D02*
X69928D01*
Y132643*
X69743Y133012*
X69559Y133196*
X69189Y133381*
X68451*
X68082Y133196*
X67898Y133012*
X67713Y132643*
Y131535*
Y135411D02*
X69928D01*
X68451Y134488*
Y135965*
X68820Y137994D02*
Y138364D01*
X69005Y138733*
X69374Y138917*
X69743Y138733*
X69928Y138364*
Y137994*
X69743Y137626*
X69374Y137441*
X69005Y137626*
X68820Y137994*
X68636Y137626*
X68267Y137441*
X67898Y137626*
X67713Y137994*
Y138364*
X67898Y138733*
X68267Y138917*
X68636Y138733*
X68820Y138364*
X67317Y77798D02*
Y80012D01*
X66025*
X65656Y79828*
X65471Y79459*
X65656Y79090*
X66025Y78905*
X67317*
X66025D02*
X65471Y77798D01*
X64364D02*
X62888Y80012D01*
X64364*
X61411Y78352D02*
X61227Y78720D01*
X60858Y78905*
X60489*
X60120Y78720*
X59935Y78352*
X60120Y77982*
X60489Y77798*
X60858*
X61227Y77982*
X61411Y78352*
Y78905*
X61227Y79459*
X60858Y79828*
X60489Y80012*
X69251Y259702D02*
X69435Y259518D01*
X69805Y259333*
X70358*
X70727Y259518*
X70912Y259702*
X71096Y260071*
Y260809*
X70912Y261179*
X70727Y261363*
X70358Y261548*
X69805*
X69435Y261363*
X69251Y261179*
X67590Y260441D02*
X67221D01*
X66852Y260625*
X66667Y260994*
X66852Y261363*
X67221Y261548*
X67590*
X67959Y261363*
X68144Y260994*
X67959Y260625*
X67590Y260441*
X67959Y260256*
X68144Y259887*
X67959Y259518*
X67590Y259333*
X67221*
X66852Y259518*
X66667Y259887*
X66852Y260256*
X67221Y260441*
X65191Y259333D02*
X63715Y261548D01*
X65191*
X71534Y270450D02*
X71719Y270266D01*
X72088Y270081*
X72642*
X73011Y270266*
X73195Y270450*
X73380Y270819*
Y271557*
X73195Y271927*
X73011Y272111*
X72642Y272296*
X72088*
X71719Y272111*
X71534Y271927*
X69874Y270081D02*
X69504Y270266D01*
X69135Y270635*
X68951Y271189*
Y271742*
X69135Y272111*
X69504Y272296*
X69874*
X70243Y272111*
X70427Y271742*
X70243Y271373*
X69874Y271189*
X69504*
X69135Y271373*
X68951Y271742*
X66552Y270081D02*
Y272296D01*
X67474Y270819*
X65998*
X77947Y52050D02*
Y54264D01*
X76655*
X76286Y54080*
X76101Y53711*
X76286Y53342*
X76655Y53157*
X77947*
X76655D02*
X76101Y52050D01*
X74441D02*
X74071Y52234D01*
X73702Y52604*
X73518Y53157*
Y53711*
X73702Y54080*
X74071Y54264*
X74441*
X74809Y54080*
X74994Y53711*
X74809Y53342*
X74441Y53157*
X74071*
X73702Y53342*
X73518Y53711*
X71672Y52050D02*
X70934D01*
X71303D02*
Y54264D01*
X71672Y53895*
X68904Y52234D02*
X68535Y52050D01*
X68166*
X67797Y52234*
X67612Y52604*
X67797Y52972*
X68166Y53157*
X68535*
X68166D02*
X67797Y53342D01*
X67612Y53711*
X67797Y54080*
X68166Y54264*
X68535*
X68904Y54080*
X81645Y146400D02*
X79431D01*
Y147323D02*
Y145477D01*
X81645Y142894D02*
Y144370D01*
X80353Y143078*
X79984Y142894*
X79615Y143078*
X79431Y143447*
Y144001*
X79615Y144370*
X81645Y141048D02*
Y140310D01*
Y140679D02*
X79431D01*
X79800Y141048*
X82521Y170157D02*
X84736D01*
Y168312*
Y166835D02*
Y166097D01*
Y166467D02*
X82521D01*
X82890Y166835*
X85742Y154372D02*
Y156587D01*
X84450*
X84081Y156403*
X83896Y156033*
X84081Y155665*
X84450Y155480*
X85742*
X84450D02*
X83896Y154372D01*
X82420D02*
X81682D01*
X82051D02*
Y156587D01*
X82420Y156218*
X79652Y154557D02*
X79283Y154372D01*
X78914*
X78545Y154557*
X78360Y154926*
Y156033*
X78545Y156403*
X78914Y156587*
X79283*
X79652Y156403*
X79837Y156033*
Y154926*
X79652Y154557*
X78545Y156403*
X75407Y154372D02*
X76884D01*
X75592Y155665*
X75407Y156033*
X75592Y156403*
X75961Y156587*
X76515*
X76884Y156403*
X86372Y177640D02*
Y179855D01*
X85080*
X84711Y179670*
X84526Y179301*
X84711Y178932*
X85080Y178748*
X86372*
X85080D02*
X84526Y177640D01*
X82866D02*
X82496Y177825D01*
X82128Y178194*
X81943Y178748*
Y179301*
X82128Y179670*
X82496Y179855*
X82866*
X83235Y179670*
X83419Y179301*
X83235Y178932*
X82866Y178748*
X82496*
X82128Y178932*
X81943Y179301*
X80467Y177640D02*
X78990Y179855D01*
X80467*
X87551Y133780D02*
X85336D01*
Y132488*
X85520Y132119*
X85890Y131934*
X86259Y132119*
X86443Y132488*
Y133780*
Y132488D02*
X87551Y131934D01*
Y130457D02*
Y129719D01*
Y130089D02*
X85336D01*
X85705Y130457*
X87551Y127505D02*
Y126767D01*
Y127136D02*
X85336D01*
X85705Y127505*
X87366Y124737D02*
X87551Y124368D01*
Y123998*
X87366Y123630*
X86997Y123445*
X85890*
X85520Y123630*
X85336Y123998*
Y124368*
X85520Y124737*
X85890Y124921*
X86997*
X87366Y124737*
X85520Y123630*
X87575Y114690D02*
X87760Y114874D01*
X87944Y115244*
Y115797*
X87760Y116166*
X87575Y116351*
X87206Y116535*
X86468*
X86099Y116351*
X85914Y116166*
X85730Y115797*
Y115244*
X85914Y114874*
X86099Y114690*
X87944Y113213D02*
Y112475D01*
Y112844D02*
X85730D01*
X86099Y113213*
X87760Y110445D02*
X87944Y110076D01*
Y109707*
X87760Y109338*
X87391Y109154*
X86283*
X85914Y109338*
X85730Y109707*
Y110076*
X85914Y110445*
X86283Y110630*
X87391*
X87760Y110445*
X85914Y109338*
X87944Y107308D02*
Y106570D01*
Y106939D02*
X85730D01*
X86099Y107308*
X96409Y85512D02*
X94194D01*
Y84220*
X94379Y83851*
X94748Y83666*
X95117Y83851*
X95302Y84220*
Y85512*
Y84220D02*
X96409Y83666D01*
Y82190D02*
Y81452D01*
Y81821D02*
X94194D01*
X94563Y82190*
X96224Y79606D02*
X96409Y79237D01*
Y78683*
X96224Y78315*
X95855Y78130*
X95671*
X95302Y78315*
X95117Y78683*
Y79606*
X94194*
Y78130*
X95855Y76654D02*
X95486Y76469D01*
X95302Y76100*
Y75731*
X95486Y75362*
X95855Y75177*
X96224Y75362*
X96409Y75731*
Y76100*
X96224Y76469*
X95855Y76654*
X95302*
X94748Y76469*
X94379Y76100*
X94194Y75731*
X96803Y213683D02*
X94588D01*
Y214606D02*
Y212761D01*
X96803Y211100D02*
X96618Y210731D01*
X96249Y210362*
X95695Y210177*
X95142*
X94772Y210362*
X94588Y210731*
Y211100*
X94772Y211469*
X95142Y211654*
X95511Y211469*
X95695Y211100*
Y210731*
X95511Y210362*
X95142Y210177*
X96618Y208516D02*
X96803Y208147D01*
Y207778*
X96618Y207409*
X96249Y207224*
X95142*
X94772Y207409*
X94588Y207778*
Y208147*
X94772Y208516*
X95142Y208701*
X96249*
X96618Y208516*
X94772Y207409*
X96618Y205563D02*
X96803Y205194D01*
Y204825*
X96618Y204456*
X96249Y204272*
X95142*
X94772Y204456*
X94588Y204825*
Y205194*
X94772Y205563*
X95142Y205748*
X96249*
X96618Y205563*
X94772Y204456*
X96709Y175595D02*
X96894Y175780D01*
X97078Y176149*
Y176703*
X96894Y177072*
X96709Y177256*
X96340Y177441*
X95602*
X95233Y177256*
X95048Y177072*
X94864Y176703*
Y176149*
X95048Y175780*
X95233Y175595*
X97078Y173935D02*
X96894Y173565D01*
X96524Y173196*
X95971Y173012*
X95417*
X95048Y173196*
X94864Y173565*
Y173935*
X95048Y174304*
X95417Y174488*
X95786Y174304*
X95971Y173935*
Y173565*
X95786Y173196*
X95417Y173012*
X96894Y171351D02*
X97078Y170982D01*
Y170613*
X96894Y170244*
X96524Y170059*
X95417*
X95048Y170244*
X94864Y170613*
Y170982*
X95048Y171351*
X95417Y171535*
X96524*
X96894Y171351*
X95048Y170244*
X100826Y32694D02*
X101010Y32510D01*
X101380Y32325*
X101933*
X102302Y32510*
X102487Y32694*
X102671Y33063*
Y33802*
X102487Y34171*
X102302Y34356*
X101933Y34540*
X101380*
X101010Y34356*
X100826Y34171*
X99349Y32325D02*
X98611D01*
X98980D02*
Y34540D01*
X99349Y34171*
X96766Y32510D02*
X96396Y32325D01*
X95843*
X95474Y32510*
X95289Y32879*
Y33063*
X95474Y33433*
X95843Y33617*
X96766*
Y34540*
X95289*
X92890Y32325D02*
Y34540D01*
X93813Y33063*
X92337*
X101219Y70096D02*
X101404Y69911D01*
X101773Y69727*
X102327*
X102696Y69911*
X102880Y70096*
X103065Y70465*
Y71203*
X102880Y71572*
X102696Y71757*
X102327Y71941*
X101773*
X101404Y71757*
X101219Y71572*
X99743Y69727D02*
X99005D01*
X99374D02*
Y71941D01*
X99743Y71572*
X97159Y69911D02*
X96790Y69727D01*
X96237*
X95868Y69911*
X95683Y70281*
Y70465*
X95868Y70834*
X96237Y71019*
X97159*
Y71941*
X95683*
X93653Y70834D02*
X93284D01*
X92915Y71019*
X92730Y71388*
X92915Y71757*
X93284Y71941*
X93653*
X94022Y71757*
X94207Y71388*
X94022Y71019*
X93653Y70834*
X94022Y70650*
X94207Y70281*
X94022Y69911*
X93653Y69727*
X93284*
X92915Y69911*
X92730Y70281*
X92915Y70650*
X93284Y70834*
X102905Y175276D02*
X100691D01*
Y173984*
X100875Y173615*
X101244Y173430*
X101613Y173615*
X101798Y173984*
Y175276*
Y173984D02*
X102905Y173430D01*
Y171769D02*
X102720Y171400D01*
X102351Y171031*
X101798Y170846*
X101244*
X100875Y171031*
X100691Y171400*
Y171769*
X100875Y172138*
X101244Y172323*
X101613Y172138*
X101798Y171769*
Y171400*
X101613Y171031*
X101244Y170846*
X102905Y168447D02*
X100691D01*
X102167Y169370*
Y167894*
X103385Y185254D02*
X103569Y185069D01*
X103939Y184884*
X104492*
X104861Y185069*
X105046Y185254*
X105230Y185622*
Y186361*
X105046Y186730*
X104861Y186915*
X104492Y187099*
X103939*
X103569Y186915*
X103385Y186730*
X101724Y184884D02*
X101355Y185069D01*
X100986Y185438*
X100801Y185992*
Y186545*
X100986Y186915*
X101355Y187099*
X101724*
X102093Y186915*
X102278Y186545*
X102093Y186176*
X101724Y185992*
X101355*
X100986Y186176*
X100801Y186545*
X97848Y184884D02*
X99325D01*
X98033Y186176*
X97848Y186545*
X98033Y186915*
X98402Y187099*
X98956*
X99325Y186915*
X96187Y185069D02*
X95819Y184884D01*
X95449*
X95080Y185069*
X94896Y185438*
Y186545*
X95080Y186915*
X95449Y187099*
X95819*
X96187Y186915*
X96372Y186545*
Y185438*
X96187Y185069*
X95080Y186915*
X106079Y99943D02*
Y102158D01*
X107002D02*
X105156D01*
X103680Y99943D02*
X102942D01*
X103311D02*
Y102158D01*
X103680Y101789*
X99620Y99943D02*
X101096D01*
X99805Y101235*
X99620Y101604*
X99805Y101974*
X100174Y102158*
X100727*
X101096Y101974*
X106473Y134392D02*
Y136607D01*
X107396D02*
X105550D01*
X104074Y134392D02*
X103335D01*
X103705D02*
Y136607D01*
X104074Y136238*
X107236Y215433D02*
X105021D01*
Y214141*
X105206Y213772*
X105575Y213587*
X105944Y213772*
X106128Y214141*
Y215433*
Y214141D02*
X107236Y213587D01*
Y211927D02*
X107051Y211557D01*
X106682Y211189*
X106128Y211004*
X105575*
X105206Y211189*
X105021Y211557*
Y211927*
X105206Y212296*
X105575Y212480*
X105944Y212296*
X106128Y211927*
Y211557*
X105944Y211189*
X105575Y211004*
X107051Y209343D02*
X107236Y208974D01*
Y208605*
X107051Y208236*
X106682Y208051*
X105575*
X105206Y208236*
X105021Y208605*
Y208974*
X105206Y209343*
X105575Y209528*
X106682*
X107051Y209343*
X105206Y208236*
X107236Y206206D02*
Y205467D01*
Y205837D02*
X105021D01*
X105390Y206206*
X107787Y123644D02*
X105572D01*
Y124567D02*
Y122721D01*
X107787Y121245D02*
Y120507D01*
Y120876D02*
X105572D01*
X105941Y121245*
X107602Y118661D02*
X107787Y118292D01*
Y117739*
X107602Y117370*
X107233Y117185*
X107049*
X106680Y117370*
X106495Y117739*
Y118661*
X105572*
Y117185*
X108419Y219294D02*
Y221508D01*
X107128*
X106758Y221324*
X106574Y220955*
X106758Y220586*
X107128Y220401*
X108419*
X107128D02*
X106574Y219294D01*
X104913D02*
X104544Y219478D01*
X104175Y219848*
X103990Y220401*
Y220955*
X104175Y221324*
X104544Y221508*
X104913*
X105282Y221324*
X105467Y220955*
X105282Y220586*
X104913Y220401*
X104544*
X104175Y220586*
X103990Y220955*
X102144Y219294D02*
X101406D01*
X101776D02*
Y221508D01*
X102144Y221139*
X98638Y219294D02*
Y221508D01*
X99561Y220032*
X98085*
X107125Y63009D02*
X107309Y62825D01*
X107679Y62640*
X108232*
X108601Y62825*
X108786Y63009*
X108970Y63378*
Y64117*
X108786Y64486*
X108601Y64670*
X108232Y64855*
X107679*
X107309Y64670*
X107125Y64486*
X105648Y62640D02*
X104910D01*
X105280D02*
Y64855D01*
X105648Y64486*
X103065Y62825D02*
X102696Y62640D01*
X102142*
X101773Y62825*
X101589Y63194*
Y63378*
X101773Y63748*
X102142Y63932*
X103065*
Y64855*
X101589*
X100112Y63194D02*
X99928Y63563D01*
X99559Y63748*
X99189*
X98820Y63563*
X98636Y63194*
X98820Y62825*
X99189Y62640*
X99559*
X99928Y62825*
X100112Y63194*
Y63748*
X99928Y64301*
X99559Y64670*
X99189Y64855*
X109522Y111262D02*
Y113477D01*
X108230*
X107861Y113293*
X107676Y112923*
X107861Y112554*
X108230Y112370*
X109522*
X108230D02*
X107676Y111262D01*
X106015Y112370D02*
X105646D01*
X105277Y112554*
X105093Y112923*
X105277Y113293*
X105646Y113477*
X106015*
X106384Y113293*
X106569Y112923*
X106384Y112554*
X106015Y112370*
X106384Y112185*
X106569Y111816*
X106384Y111447*
X106015Y111262*
X105646*
X105277Y111447*
X105093Y111816*
X105277Y112185*
X105646Y112370*
X103063D02*
X102693D01*
X102324Y112554*
X102140Y112923*
X102324Y113293*
X102693Y113477*
X103063*
X103431Y113293*
X103616Y112923*
X103431Y112554*
X103063Y112370*
X103431Y112185*
X103616Y111816*
X103431Y111447*
X103063Y111262*
X102693*
X102324Y111447*
X102140Y111816*
X102324Y112185*
X102693Y112370*
X110213Y33863D02*
X110398Y34048D01*
X110582Y34417*
Y34970*
X110398Y35339*
X110213Y35524*
X109844Y35709*
X109106*
X108737Y35524*
X108552Y35339*
X108368Y34970*
Y34417*
X108552Y34048*
X108737Y33863*
X110582Y32387D02*
Y31648D01*
Y32018D02*
X108368D01*
X108737Y32387*
X110398Y29803D02*
X110582Y29434D01*
Y28880*
X110398Y28511*
X110028Y28327*
X109844*
X109475Y28511*
X109290Y28880*
Y29803*
X108368*
Y28327*
X110398Y26666D02*
X110582Y26297D01*
Y25928*
X110398Y25559*
X110028Y25374*
X109659Y25559*
X109475Y25928*
Y26297*
Y25928D02*
X109290Y25559D01*
X108921Y25374*
X108552Y25559*
X108368Y25928*
Y26297*
X108552Y26666*
X112221Y170871D02*
X112406Y171056D01*
X112590Y171425*
Y171978*
X112406Y172347*
X112221Y172532*
X111852Y172717*
X111114*
X110744Y172532*
X110560Y172347*
X110376Y171978*
Y171425*
X110560Y171056*
X110744Y170871*
X112590Y169210D02*
X112406Y168841D01*
X112036Y168472*
X111483Y168287*
X110929*
X110560Y168472*
X110376Y168841*
Y169210*
X110560Y169579*
X110929Y169764*
X111298Y169579*
X111483Y169210*
Y168841*
X111298Y168472*
X110929Y168287*
X112590Y165335D02*
Y166811D01*
X111298Y165519*
X110929Y165335*
X110560Y165519*
X110376Y165888*
Y166442*
X110560Y166811*
X113621Y70096D02*
X113806Y69911D01*
X114175Y69727*
X114728*
X115097Y69911*
X115282Y70096*
X115467Y70465*
Y71203*
X115282Y71572*
X115097Y71757*
X114728Y71941*
X114175*
X113806Y71757*
X113621Y71572*
X112144Y69727D02*
X111406D01*
X111776D02*
Y71941D01*
X112144Y71572*
X109561Y69911D02*
X109192Y69727D01*
X108638*
X108269Y69911*
X108085Y70281*
Y70465*
X108269Y70834*
X108638Y71019*
X109561*
Y71941*
X108085*
X106608Y69727D02*
X105132Y71941D01*
X106608*
X115523Y104094D02*
X113309D01*
Y102803*
X113493Y102433*
X113862Y102249*
X114231Y102433*
X114416Y102803*
Y104094*
Y102803D02*
X115523Y102249D01*
X114416Y100588D02*
Y100219D01*
X114231Y99850*
X113862Y99665*
X113493Y99850*
X113309Y100219*
Y100588*
X113493Y100957*
X113862Y101142*
X114231Y100957*
X114416Y100588*
X114600Y100957*
X114969Y101142*
X115339Y100957*
X115523Y100588*
Y100219*
X115339Y99850*
X114969Y99665*
X114600Y99850*
X114416Y100219*
X115523Y98189D02*
X113309Y96713D01*
Y98189*
X116608Y249530D02*
Y251744D01*
X115317*
X114947Y251560*
X114763Y251191*
X114947Y250822*
X115317Y250637*
X116608*
X115317D02*
X114763Y249530D01*
X113471Y249715D02*
X113102Y249530D01*
X112733*
X112364Y249715*
X112179Y250084*
X112364Y250453*
X112733Y250637*
X113102*
X112733D02*
X112364Y250822D01*
X112179Y251191*
X112364Y251560*
X112733Y251744*
X113102*
X113471Y251560*
X110703Y250084D02*
X110518Y249715D01*
X110149Y249530*
X109780*
X109411Y249715*
X109226Y250084*
Y250453*
X109411Y250822*
X109780Y251006*
X110149*
X110518Y250822*
X110703Y250453*
Y249530D02*
Y251744D01*
X107750Y251006D02*
Y250084D01*
X107565Y249715*
X107196Y249530*
X106827*
X106458Y249715*
X106274Y250084*
Y251006D02*
Y249530D01*
X117002Y258270D02*
Y260485D01*
X115710*
X115341Y260300*
X115156Y259931*
X115341Y259562*
X115710Y259378*
X117002*
X115710D02*
X115156Y258270D01*
X113865Y258455D02*
X113496Y258270D01*
X113126*
X112757Y258455*
X112573Y258824*
X112757Y259193*
X113126Y259378*
X113496*
X113126D02*
X112757Y259562D01*
X112573Y259931*
X112757Y260300*
X113126Y260485*
X113496*
X113865Y260300*
X111096Y258270D02*
Y259746D01*
Y259193D02*
X110912Y259562D01*
X110543Y259746*
X110174*
X109805Y259562*
X106667Y259193D02*
X106852Y259562D01*
X107221Y259746*
X107590*
X107959Y259562*
X108144Y259193*
Y258824*
X107959Y258455*
X107590Y258270*
X107221*
X106852Y258455*
X106667Y258824*
Y258270D02*
Y260485D01*
X117553Y234727D02*
Y236941D01*
X116261*
X115892Y236757*
X115707Y236388*
X115892Y236019*
X116261Y235834*
X117553*
X116261D02*
X115707Y234727D01*
X113124D02*
X114600D01*
X113309Y236019*
X113124Y236388*
X113309Y236757*
X113678Y236941*
X114231*
X114600Y236757*
X111463Y234911D02*
X111094Y234727D01*
X110725*
X110356Y234911*
X110171Y235281*
X110356Y235650*
X110725Y235834*
X111094*
X110725D02*
X110356Y236019D01*
X110171Y236388*
X110356Y236757*
X110725Y236941*
X111094*
X111463Y236757*
X117787Y215298D02*
X115572D01*
Y216220D02*
Y214375D01*
X117787Y212714D02*
X117602Y212345D01*
X117233Y211976*
X116680Y211791*
X116126*
X115757Y211976*
X115572Y212345*
Y212714*
X115757Y213083*
X116126Y213268*
X116495Y213083*
X116680Y212714*
Y212345*
X116495Y211976*
X116126Y211791*
X117787Y209946D02*
Y209207D01*
Y209577D02*
X115572D01*
X115941Y209946*
X117602Y207178D02*
X117787Y206809D01*
Y206439*
X117602Y206070*
X117233Y205886*
X116126*
X115757Y206070*
X115572Y206439*
Y206809*
X115757Y207178*
X116126Y207362*
X117233*
X117602Y207178*
X115757Y206070*
X119598Y229865D02*
X117383D01*
Y230787D02*
Y228942D01*
X119598Y227281D02*
X119413Y226912D01*
X119044Y226543*
X118491Y226358*
X117937*
X117568Y226543*
X117383Y226912*
Y227281*
X117568Y227650*
X117937Y227835*
X118306Y227650*
X118491Y227281*
Y226912*
X118306Y226543*
X117937Y226358*
X119598Y223406D02*
Y224882D01*
X118306Y223590*
X117937Y223406*
X117568Y223590*
X117383Y223959*
Y224513*
X117568Y224882*
X119413Y221744D02*
X119598Y221376D01*
Y221006*
X119413Y220637*
X119044Y220453*
X117937*
X117568Y220637*
X117383Y221006*
Y221376*
X117568Y221744*
X117937Y221929*
X119044*
X119413Y221744*
X117568Y220637*
X120641Y183979D02*
X119903D01*
X120272D02*
Y186193D01*
X120641D02*
X119903D01*
X116396Y184348D02*
X116581Y184163D01*
X116950Y183979*
X117504*
X117873Y184163*
X118057Y184348*
X118242Y184717*
Y185455*
X118057Y185824*
X117873Y186009*
X117504Y186193*
X116950*
X116581Y186009*
X116396Y185824*
X114736Y183979D02*
X114367Y184163D01*
X113998Y184533*
X113813Y185086*
Y185640*
X113998Y186009*
X114367Y186193*
X114736*
X115105Y186009*
X115289Y185640*
X115105Y185271*
X114736Y185086*
X114367*
X113998Y185271*
X113813Y185640*
X110860Y183979D02*
X112337D01*
X111045Y185271*
X110860Y185640*
X111045Y186009*
X111414Y186193*
X111967*
X112337Y186009*
X122595Y145805D02*
X124809D01*
Y144882D02*
Y146728D01*
X122595Y149311D02*
Y147835D01*
X123887Y149126*
X124256Y149311*
X124625Y149126*
X124809Y148757*
Y148204*
X124625Y147835*
X122780Y150972D02*
X122595Y151341D01*
Y151710*
X122780Y152079*
X123149Y152264*
X123518Y152079*
X123702Y151710*
Y151341*
Y151710D02*
X123887Y152079D01*
X124256Y152264*
X124625Y152079*
X124809Y151710*
Y151341*
X124625Y150972*
X121763Y270866D02*
X119549D01*
Y269574*
X119733Y269205*
X120102Y269020*
X120471Y269205*
X120656Y269574*
Y270866*
Y269574D02*
X121763Y269020D01*
X121579Y267729D02*
X121763Y267360D01*
Y266991*
X121579Y266622*
X121209Y266437*
X120841Y266622*
X120656Y266991*
Y267360*
Y266991D02*
X120471Y266622D01*
X120102Y266437*
X119733Y266622*
X119549Y266991*
Y267360*
X119733Y267729*
X120841Y263484D02*
X120471Y263669D01*
X120287Y264038*
Y264407*
X120471Y264776*
X120841Y264961*
X121025*
X121394Y264776*
X121579Y264407*
Y264038*
X121394Y263669*
X121025Y263484*
X120287D02*
X121763D01*
X122132Y263669*
X122317Y264038*
Y264591*
X122132Y264961*
X121763Y262008D02*
X120287D01*
X120841D02*
X120471Y261823D01*
X120287Y261454*
Y261085*
X120471Y260716*
X120841Y260531*
X121763*
X121433Y76580D02*
X121618Y76764D01*
X121803Y77133*
Y77687*
X121618Y78056*
X121433Y78241*
X121065Y78425*
X120326*
X119957Y78241*
X119772Y78056*
X119588Y77687*
Y77133*
X119772Y76764*
X119957Y76580*
X121803Y75103D02*
Y74365D01*
Y74734D02*
X119588D01*
X119957Y75103*
X121618Y72520D02*
X121803Y72150D01*
Y71597*
X121618Y71228*
X121249Y71043*
X121065*
X120695Y71228*
X120511Y71597*
Y72520*
X119588*
Y71043*
X121803Y69198D02*
Y68459D01*
Y68829D02*
X119588D01*
X119957Y69198*
X121670Y253351D02*
X121854Y253536D01*
X122039Y253905*
Y254459*
X121854Y254828*
X121670Y255012*
X121301Y255197*
X120563*
X120193Y255012*
X120009Y254828*
X119824Y254459*
Y253905*
X120009Y253536*
X120193Y253351*
X122039Y250768D02*
Y252244D01*
X120747Y250952*
X120378Y250768*
X120009Y250952*
X119824Y251321*
Y251875*
X120009Y252244*
X121854Y249107D02*
X122039Y248738D01*
Y248369*
X121854Y248000*
X121485Y247815*
X120378*
X120009Y248000*
X119824Y248369*
Y248738*
X120009Y249107*
X120378Y249291*
X121485*
X121854Y249107*
X120009Y248000*
X123537Y127680D02*
Y129894D01*
X122246*
X121876Y129710*
X121692Y129341*
X121876Y128972*
X122246Y128787*
X123537*
X122246D02*
X121692Y127680D01*
X120400Y127864D02*
X120031Y127680D01*
X119662*
X119293Y127864*
X119108Y128233*
X119293Y128602*
X119662Y128787*
X120031*
X119662D02*
X119293Y128972D01*
X119108Y129341*
X119293Y129710*
X119662Y129894*
X120031*
X120400Y129710*
X117447Y127864D02*
X117078Y127680D01*
X116709*
X116340Y127864*
X116156Y128233*
Y129341*
X116340Y129710*
X116709Y129894*
X117078*
X117447Y129710*
X117632Y129341*
Y128233*
X117447Y127864*
X116340Y129710*
X114494Y127864D02*
X114126Y127680D01*
X113756*
X113387Y127864*
X113203Y128233*
Y129341*
X113387Y129710*
X113756Y129894*
X114126*
X114494Y129710*
X114679Y129341*
Y128233*
X114494Y127864*
X113387Y129710*
X123574Y242323D02*
X121360D01*
Y241031*
X121544Y240662*
X121913Y240477*
X122282Y240662*
X122467Y241031*
Y242323*
Y241031D02*
X123574Y240477D01*
Y237894D02*
Y239370D01*
X122282Y238078*
X121913Y237894*
X121544Y238078*
X121360Y238447*
Y239001*
X121544Y239370*
X123574Y234941D02*
Y236417D01*
X122282Y235126*
X121913Y234941*
X121544Y235126*
X121360Y235494*
Y236048*
X121544Y236417*
X124797Y197955D02*
Y200170D01*
X123506*
X123136Y199985*
X122952Y199616*
X123136Y199247*
X123506Y199063*
X124797*
X123506D02*
X122952Y197955D01*
X121291D02*
X120922Y198140D01*
X120553Y198509*
X120368Y199063*
Y199616*
X120553Y199985*
X120922Y200170*
X121291*
X121660Y199985*
X121844Y199616*
X121660Y199247*
X121291Y199063*
X120922*
X120553Y199247*
X120368Y199616*
X118892Y198140D02*
X118522Y197955D01*
X117969*
X117600Y198140*
X117415Y198509*
Y198693*
X117600Y199063*
X117969Y199247*
X118892*
Y200170*
X117415*
X115016Y197955D02*
Y200170D01*
X115939Y198693*
X114463*
X124012Y115199D02*
Y117414D01*
X124935D02*
X123089D01*
X121613Y115199D02*
X120875D01*
X121244D02*
Y117414D01*
X121613Y117045*
X118660Y115199D02*
X117922D01*
X118291D02*
Y117414D01*
X118660Y117045*
X125270Y159210D02*
Y156996D01*
X126377*
X126746Y157180*
X126931Y157365*
X127115Y157734*
Y158472*
X126931Y158841*
X126746Y159026*
X126377Y159210*
X125270*
X129699D02*
X128222D01*
X129514Y157918*
X129699Y157549*
X129514Y157180*
X129145Y156996*
X128592*
X128222Y157180*
X131175Y159026D02*
X131544Y159210D01*
X132098*
X132467Y159026*
X132652Y158656*
Y158472*
X132467Y158103*
X132098Y157918*
X131175*
Y156996*
X132652*
X125134Y98565D02*
Y100780D01*
X126057D02*
X124211D01*
X123104Y99119D02*
X122920Y99488D01*
X122551Y99673*
X122181*
X121813Y99488*
X121628Y99119*
X121813Y98750*
X122181Y98565*
X122551*
X122920Y98750*
X123104Y99119*
Y99673*
X122920Y100226*
X122551Y100596*
X122181Y100780*
X126416Y30923D02*
X126601Y30738D01*
X126970Y30554*
X127524*
X127893Y30738*
X128077Y30923*
X128262Y31292*
Y32030*
X128077Y32399*
X127893Y32584*
X127524Y32768*
X126970*
X126601Y32584*
X126416Y32399*
X124940Y30554D02*
X124202D01*
X124571D02*
Y32768D01*
X124940Y32399*
X122356Y30738D02*
X121987Y30554D01*
X121433*
X121065Y30738*
X120880Y31107*
Y31292*
X121065Y31661*
X121433Y31846*
X122356*
Y32768*
X120880*
X117927Y30554D02*
X119404D01*
X118112Y31846*
X117927Y32215*
X118112Y32584*
X118481Y32768*
X119034*
X119404Y32584*
X127708Y52638D02*
X125494D01*
Y51346*
X125678Y50977*
X126047Y50792*
X126416Y50977*
X126601Y51346*
Y52638*
Y51346D02*
X127708Y50792D01*
Y49316D02*
Y48578D01*
Y48947D02*
X125494D01*
X125863Y49316*
X127524Y46732D02*
X127708Y46363D01*
Y45809*
X127524Y45441*
X127154Y45256*
X126970*
X126601Y45441*
X126416Y45809*
Y46732*
X125494*
Y45256*
X127708Y42303D02*
Y43780D01*
X126416Y42488*
X126047Y42303*
X125678Y42488*
X125494Y42857*
Y43410*
X125678Y43780*
X127905Y76850D02*
X125691D01*
X127905Y75005*
X125691*
X127905Y72975D02*
X125691D01*
Y73898D02*
Y72052D01*
X127536Y69099D02*
X127720Y69284D01*
X127905Y69653*
Y70207*
X127720Y70576*
X127536Y70760*
X127167Y70945*
X126429*
X126059Y70760*
X125875Y70576*
X125691Y70207*
Y69653*
X125875Y69284*
X126059Y69099*
X128656Y62050D02*
Y64264D01*
X127364*
X126994Y64080*
X126810Y63711*
X126994Y63342*
X127364Y63157*
X128656*
X127364D02*
X126810Y62050D01*
X125333D02*
X124595D01*
X124965D02*
Y64264D01*
X125333Y63895*
X122750Y62234D02*
X122381Y62050D01*
X121827*
X121458Y62234*
X121274Y62604*
Y62788*
X121458Y63157*
X121827Y63342*
X122750*
Y64264*
X121274*
X119613Y62234D02*
X119244Y62050D01*
X118874*
X118506Y62234*
X118321Y62604*
X118506Y62972*
X118874Y63157*
X119244*
X118874D02*
X118506Y63342D01*
X118321Y63711*
X118506Y64080*
X118874Y64264*
X119244*
X119613Y64080*
X130189Y213071D02*
X127974D01*
Y211779*
X128158Y211410*
X128528Y211225*
X128896Y211410*
X129081Y211779*
Y213071*
Y211779D02*
X130189Y211225D01*
Y209565D02*
X130004Y209195D01*
X129635Y208826*
X129081Y208642*
X128528*
X128158Y208826*
X127974Y209195*
Y209565*
X128158Y209933*
X128528Y210118*
X128896Y209933*
X129081Y209565*
Y209195*
X128896Y208826*
X128528Y208642*
X130004Y206981D02*
X130189Y206612D01*
Y206243*
X130004Y205874*
X129635Y205689*
X128528*
X128158Y205874*
X127974Y206243*
Y206612*
X128158Y206981*
X128528Y207165*
X129635*
X130004Y206981*
X128158Y205874*
X130004Y204028D02*
X130189Y203659D01*
Y203290*
X130004Y202921*
X129635Y202736*
X128528*
X128158Y202921*
X127974Y203290*
Y203659*
X128158Y204028*
X128528Y204213*
X129635*
X130004Y204028*
X128158Y202921*
X130622Y270000D02*
X128407D01*
Y268708*
X128591Y268339*
X128961Y268154*
X129330Y268339*
X129514Y268708*
Y270000*
Y268708D02*
X130622Y268154D01*
Y266678D02*
Y265940D01*
Y266309D02*
X128407D01*
X128776Y266678*
X130068Y264094D02*
X130437Y263910D01*
X130622Y263541*
Y263172*
X130437Y262803*
X130068Y262618*
X129699*
X129330Y262803*
X129145Y263172*
Y263541*
X129330Y263910*
X129699Y264094*
X130622D02*
X128407D01*
X129145Y261142D02*
X130068D01*
X130437Y260957*
X130622Y260588*
Y260219*
X130437Y259850*
X130068Y259665*
X129145D02*
X130622D01*
X131805Y37050D02*
Y39264D01*
X130513*
X130144Y39080*
X129959Y38711*
X130144Y38342*
X130513Y38157*
X131805*
X130513D02*
X129959Y37050D01*
X128483D02*
X127745D01*
X128114D02*
Y39264D01*
X128483Y38895*
X125900Y37234D02*
X125530Y37050D01*
X124977*
X124608Y37234*
X124423Y37604*
Y37788*
X124608Y38157*
X124977Y38342*
X125900*
Y39264*
X124423*
X122578Y37050D02*
X121839D01*
X122209D02*
Y39264D01*
X122578Y38895*
X134327Y172643D02*
X134512Y172827D01*
X134696Y173196*
Y173750*
X134512Y174119*
X134327Y174304*
X133958Y174488*
X133220*
X132851Y174304*
X132666Y174119*
X132482Y173750*
Y173196*
X132666Y172827*
X132851Y172643*
X134696Y170982D02*
X134512Y170613D01*
X134143Y170244*
X133589Y170059*
X133035*
X132666Y170244*
X132482Y170613*
Y170982*
X132666Y171351*
X133035Y171535*
X133404Y171351*
X133589Y170982*
Y170613*
X133404Y170244*
X133035Y170059*
X134143Y168583D02*
X133774Y168398D01*
X133589Y168029*
Y167660*
X133774Y167291*
X134143Y167106*
X134512Y167291*
X134696Y167660*
Y168029*
X134512Y168398*
X134143Y168583*
X133589*
X133035Y168398*
X132666Y168029*
X132482Y167660*
X137039Y78465D02*
X134824D01*
Y77173*
X135009Y76804*
X135378Y76619*
X135747Y76804*
X135931Y77173*
Y78465*
Y77173D02*
X137039Y76619D01*
Y75143D02*
Y74404D01*
Y74774D02*
X134824D01*
X135193Y75143*
X137039Y72190D02*
Y71452D01*
Y71821D02*
X134824D01*
X135193Y72190*
X136854Y69422D02*
X137039Y69053D01*
Y68683*
X136854Y68315*
X136485Y68130*
X136116Y68315*
X135931Y68683*
Y69053*
Y68683D02*
X135747Y68315D01*
X135378Y68130*
X135009Y68315*
X134824Y68683*
Y69053*
X135009Y69422*
X137157Y270315D02*
X134943D01*
Y269023*
X135127Y268654*
X135496Y268469*
X135865Y268654*
X136050Y269023*
Y270315*
Y269023D02*
X137157Y268469D01*
Y266993D02*
Y266255D01*
Y266624D02*
X134943D01*
X135311Y266993*
X137157Y264409D02*
X135681D01*
X136234D02*
X135865Y264225D01*
X135681Y263856*
Y263487*
X135865Y263118*
X136234Y259980D02*
X135865Y260165D01*
X135681Y260534*
Y260903*
X135865Y261272*
X136234Y261457*
X136603*
X136972Y261272*
X137157Y260903*
Y260534*
X136972Y260165*
X136603Y259980*
X137157D02*
X134943D01*
X138579Y48740D02*
X140794D01*
Y49848*
X140609Y50217*
X140425Y50401*
X140056Y50586*
X139317*
X138948Y50401*
X138764Y50217*
X138579Y49848*
Y48740*
X139687Y52246D02*
Y52616D01*
X139871Y52985*
X140240Y53169*
X140609Y52985*
X140794Y52616*
Y52246*
X140609Y51878*
X140240Y51693*
X139871Y51878*
X139687Y52246*
X139502Y51878*
X139133Y51693*
X138764Y51878*
X138579Y52246*
Y52616*
X138764Y52985*
X139133Y53169*
X139502Y52985*
X139687Y52616*
X138764Y54830D02*
X138579Y55199D01*
Y55569*
X138764Y55937*
X139133Y56122*
X139502Y55937*
X139687Y55569*
Y55199*
Y55569D02*
X139871Y55937D01*
X140240Y56122*
X140609Y55937*
X140794Y55569*
Y55199*
X140609Y54830*
X138732Y206575D02*
X136517D01*
Y205283*
X136702Y204914*
X137071Y204729*
X137440Y204914*
X137624Y205283*
Y206575*
Y205283D02*
X138732Y204729D01*
Y203069D02*
X138547Y202699D01*
X138178Y202330*
X137624Y202146*
X137071*
X136702Y202330*
X136517Y202699*
Y203069*
X136702Y203437*
X137071Y203622*
X137440Y203437*
X137624Y203069*
Y202699*
X137440Y202330*
X137071Y202146*
X138732Y200116D02*
X138547Y199746D01*
X138178Y199378*
X137624Y199193*
X137071*
X136702Y199378*
X136517Y199746*
Y200116*
X136702Y200485*
X137071Y200669*
X137440Y200485*
X137624Y200116*
Y199746*
X137440Y199378*
X137071Y199193*
X138227Y179131D02*
X138412Y178947D01*
X138781Y178762*
X139335*
X139704Y178947*
X139888Y179131*
X140073Y179500*
Y180239*
X139888Y180608*
X139704Y180793*
X139335Y180977*
X138781*
X138412Y180793*
X138227Y180608*
X136567Y178762D02*
X136197Y178947D01*
X135828Y179316*
X135644Y179870*
Y180423*
X135828Y180793*
X136197Y180977*
X136567*
X136935Y180793*
X137120Y180423*
X136935Y180054*
X136567Y179870*
X136197*
X135828Y180054*
X135644Y180423*
X133798Y178762D02*
X133060D01*
X133429D02*
Y180977D01*
X133798Y180608*
X141488Y93858D02*
X139273D01*
Y92751*
X139457Y92382*
X139642Y92197*
X140011Y92013*
X140750*
X141119Y92197*
X141303Y92382*
X141488Y92751*
Y93858*
X140380Y90352D02*
Y89983D01*
X140196Y89614*
X139827Y89429*
X139457Y89614*
X139273Y89983*
Y90352*
X139457Y90721*
X139827Y90906*
X140196Y90721*
X140380Y90352*
X140565Y90721*
X140934Y90906*
X141303Y90721*
X141488Y90352*
Y89983*
X141303Y89614*
X140934Y89429*
X140565Y89614*
X140380Y89983*
X140934Y87953D02*
X140565Y87768D01*
X140380Y87399*
Y87030*
X140565Y86661*
X140934Y86476*
X141303Y86661*
X141488Y87030*
Y87399*
X141303Y87768*
X140934Y87953*
X140380*
X139827Y87768*
X139457Y87399*
X139273Y87030*
X141807Y110750D02*
Y112965D01*
X142730D02*
X140885D01*
X139408Y110750D02*
X138670D01*
X139039D02*
Y112965D01*
X139408Y112596*
X136640Y110935D02*
X136271Y110750D01*
X135902*
X135533Y110935*
X135348Y111304*
Y112411*
X135533Y112781*
X135902Y112965*
X136271*
X136640Y112781*
X136825Y112411*
Y111304*
X136640Y110935*
X135533Y112781*
X144561Y80987D02*
Y83201D01*
X143269*
X142900Y83017*
X142715Y82648*
X142900Y82279*
X143269Y82094*
X144561*
X143269D02*
X142715Y80987D01*
X141239D02*
X140501D01*
X140870D02*
Y83201D01*
X141239Y82832*
X138286Y80987D02*
X137548D01*
X137917D02*
Y83201D01*
X138286Y82832*
X135703Y81541D02*
X135518Y81909D01*
X135149Y82094*
X134780*
X134411Y81909*
X134226Y81541*
X134411Y81171*
X134780Y80987*
X135149*
X135518Y81171*
X135703Y81541*
Y82094*
X135518Y82648*
X135149Y83017*
X134780Y83201*
X142952Y225490D02*
X143136Y225305D01*
X143506Y225120*
X144059*
X144428Y225305*
X144613Y225490*
X144797Y225859*
Y226597*
X144613Y226966*
X144428Y227151*
X144059Y227335*
X143506*
X143136Y227151*
X142952Y226966*
X140368Y225120D02*
X141844D01*
X140553Y226413*
X140368Y226781*
X140553Y227151*
X140922Y227335*
X141475*
X141844Y227151*
X137415Y225120D02*
X138892D01*
X137600Y226413*
X137415Y226781*
X137600Y227151*
X137969Y227335*
X138522*
X138892Y227151*
X144480Y270079D02*
X142265D01*
Y268787*
X142450Y268418*
X142819Y268233*
X143188Y268418*
X143372Y268787*
Y270079*
Y268787D02*
X144480Y268233D01*
Y266757D02*
Y266019D01*
Y266388D02*
X142265D01*
X142634Y266757*
X143557Y262697D02*
X143188Y262881D01*
X143004Y263250*
Y263620*
X143188Y263989*
X143557Y264173*
X143742*
X144111Y263989*
X144295Y263620*
Y263250*
X144111Y262881*
X143742Y262697*
X143004D02*
X144480D01*
X144849Y262881*
X145033Y263250*
Y263804*
X144849Y264173*
X144480Y261220D02*
X143004D01*
X143557D02*
X143188Y261036D01*
X143004Y260667*
Y260298*
X143188Y259929*
X143557Y259744*
X144480*
X145169Y200276D02*
X142954D01*
Y198984*
X143139Y198615*
X143508Y198430*
X143877Y198615*
X144061Y198984*
Y200276*
Y198984D02*
X145169Y198430D01*
Y196769D02*
X144984Y196400D01*
X144615Y196031*
X144061Y195846*
X143508*
X143139Y196031*
X142954Y196400*
Y196769*
X143139Y197138*
X143508Y197323*
X143877Y197138*
X144061Y196769*
Y196400*
X143877Y196031*
X143508Y195846*
X144984Y194370D02*
X145169Y194001D01*
Y193447*
X144984Y193078*
X144615Y192894*
X144431*
X144061Y193078*
X143877Y193447*
Y194370*
X142954*
Y192894*
X147268Y179946D02*
X147194Y180020D01*
X147046Y180093*
X146825*
X146677Y180020*
X146604Y179946*
X146530Y179798*
Y179503*
X146604Y179355*
X146677Y179281*
X146825Y179207*
X147046*
X147194Y179281*
X147268Y179355*
X147711Y179872D02*
X147785Y179724D01*
X147932Y179650*
X148080*
X148228Y179724*
X148301Y179872*
X148228Y180020*
X148080Y180093*
X147932*
X147785Y180020*
X147711Y179872*
Y179650*
X147785Y179429*
X147932Y179281*
X148080Y179207*
X148892Y179872D02*
X148966Y179724D01*
X149113Y179650*
X149261*
X149409Y179724*
X149482Y179872*
X149409Y180020*
X149261Y180093*
X149113*
X148966Y180020*
X148892Y179872*
Y179650*
X148966Y179429*
X149113Y179281*
X149261Y179207*
X147811Y151183D02*
Y153398D01*
X148734D02*
X146889D01*
X145412Y151183D02*
X144674D01*
X145043D02*
Y153398D01*
X145412Y153029*
X141906Y151183D02*
Y153398D01*
X142829Y151922*
X141352*
X149364Y162443D02*
Y164658D01*
X148072*
X147703Y164474*
X147519Y164104*
X147703Y163735*
X148072Y163551*
X149364*
X148072D02*
X147519Y162443D01*
X145858Y163551D02*
X145489D01*
X145120Y163735*
X144935Y164104*
X145120Y164474*
X145489Y164658*
X145858*
X146227Y164474*
X146411Y164104*
X146227Y163735*
X145858Y163551*
X146227Y163366*
X146411Y162997*
X146227Y162628*
X145858Y162443*
X145489*
X145120Y162628*
X144935Y162997*
X145120Y163366*
X145489Y163551*
X143459Y162628D02*
X143089Y162443D01*
X142536*
X142167Y162628*
X141982Y162997*
Y163181*
X142167Y163551*
X142536Y163735*
X143459*
Y164658*
X141982*
X150585Y231048D02*
Y231934D01*
X150068*
X149920Y231860*
X149846Y231713*
X149920Y231565*
X150068Y231491*
X150585*
X150068D02*
X149846Y231048D01*
X148813D02*
X149404D01*
X148887Y231565*
X148813Y231713*
X148887Y231860*
X149034Y231934*
X149256*
X149404Y231860*
X147853Y231048D02*
Y231934D01*
X148222Y231344*
X147632*
X150385Y273228D02*
X148171D01*
Y271937*
X148355Y271567*
X148724Y271383*
X149093Y271567*
X149278Y271937*
Y273228*
Y271937D02*
X150385Y271383D01*
X150201Y270091D02*
X150385Y269722D01*
Y269353*
X150201Y268984*
X149831Y268799*
X148724*
X148355Y268984*
X148171Y269353*
Y269722*
X148355Y270091*
X148724Y270276*
X149831*
X150201Y270091*
X148355Y268984*
X149831Y267323D02*
X150201Y267138D01*
X150385Y266769*
Y266400*
X150201Y266031*
X149831Y265846*
X149463*
X149093Y266031*
X148909Y266400*
Y266769*
X149093Y267138*
X149463Y267323*
X150385D02*
X148171D01*
X148909Y264370D02*
X149831D01*
X150201Y264185*
X150385Y263817*
Y263447*
X150201Y263078*
X149831Y262894*
X148909D02*
X150385D01*
X149448Y60096D02*
X149632Y59911D01*
X150002Y59727*
X150555*
X150924Y59911*
X151109Y60096*
X151293Y60465*
Y61203*
X151109Y61572*
X150924Y61757*
X150555Y61941*
X150002*
X149632Y61757*
X149448Y61572*
X147787Y60834D02*
X147418D01*
X147049Y61019*
X146864Y61388*
X147049Y61757*
X147418Y61941*
X147787*
X148156Y61757*
X148341Y61388*
X148156Y61019*
X147787Y60834*
X148156Y60650*
X148341Y60281*
X148156Y59911*
X147787Y59727*
X147418*
X147049Y59911*
X146864Y60281*
X147049Y60650*
X147418Y60834*
X145388Y59911D02*
X145019Y59727D01*
X144465*
X144096Y59911*
X143911Y60281*
Y60465*
X144096Y60834*
X144465Y61019*
X145388*
Y61941*
X143911*
X154288Y103093D02*
Y105307D01*
X155211D02*
X153365D01*
X152073Y103278D02*
X151704Y103093D01*
X151335*
X150966Y103278*
X150781Y103647*
X150966Y104016*
X151335Y104200*
X151704*
X151335D02*
X150966Y104385D01*
X150781Y104754*
X150966Y105123*
X151335Y105307*
X151704*
X152073Y105123*
X156370Y246139D02*
X157936Y247706D01*
X157022Y248619*
X156631Y248750*
X156239Y248619*
X156109Y248228*
X156239Y247836*
X157153Y246922*
X156239Y247836D02*
X155065Y247444D01*
X153238Y249271D02*
X154282Y248227D01*
X154282Y250054*
X154413Y250446*
X154804Y250576*
X155195Y250446*
X155587Y250054*
X155717Y249663*
X152585Y250707D02*
X152194Y250576D01*
X151802Y250707*
X151541Y250968*
X151411Y251359*
X151542Y251751*
X151802Y252012*
X152194Y252143*
X152585Y252012*
X152846Y251751*
X152977Y251359*
X152846Y250968*
X152194Y250315D02*
X153760Y251881D01*
X151150Y253447D02*
X150498Y252795D01*
X150106Y252664*
X149715Y252794*
X149454Y253056*
X149323Y253447*
X149454Y253839*
X150106Y254491D02*
X149062Y253447D01*
X156763Y271024D02*
X154549D01*
Y269732*
X154733Y269363*
X155102Y269178*
X155471Y269363*
X155656Y269732*
Y271024*
Y269732D02*
X156763Y269178D01*
X156579Y267886D02*
X156763Y267517D01*
Y267148*
X156579Y266779*
X156209Y266594*
X155102*
X154733Y266779*
X154549Y267148*
Y267517*
X154733Y267886*
X155102Y268071*
X156209*
X156579Y267886*
X154733Y266779*
X156763Y265118D02*
X155287D01*
X155841D02*
X155471Y264933D01*
X155287Y264565*
Y264195*
X155471Y263826*
X155841Y260689D02*
X155471Y260874D01*
X155287Y261243*
Y261612*
X155471Y261981*
X155841Y262165*
X156209*
X156579Y261981*
X156763Y261612*
Y261243*
X156579Y260874*
X156209Y260689*
X156763D02*
X154549D01*
X157396Y53585D02*
Y55800D01*
X156104*
X155735Y55615*
X155550Y55246*
X155735Y54877*
X156104Y54693*
X157396*
X156104D02*
X155550Y53585D01*
X154074D02*
X153335D01*
X153705D02*
Y55800D01*
X154074Y55431*
X151121Y53585D02*
X150383D01*
X150752D02*
Y55800D01*
X151121Y55431*
X147615Y53585D02*
Y55800D01*
X148537Y54323*
X147061*
X156552Y137325D02*
Y139540D01*
X157474D02*
X155629D01*
X153045Y137325D02*
X154522D01*
X153230Y138617*
X153045Y138986*
X153230Y139356*
X153599Y139540*
X154152*
X154522Y139356*
X150093Y137325D02*
X151569D01*
X150277Y138617*
X150093Y138986*
X150277Y139356*
X150646Y139540*
X151200*
X151569Y139356*
X156337Y84860D02*
X156522Y84675D01*
X156891Y84491*
X157445*
X157814Y84675*
X157998Y84860*
X158183Y85229*
Y85967*
X157998Y86336*
X157814Y86521*
X157445Y86705*
X156891*
X156522Y86521*
X156337Y86336*
X154677Y85598D02*
X154307D01*
X153939Y85783*
X153754Y86152*
X153939Y86521*
X154307Y86705*
X154677*
X155046Y86521*
X155230Y86152*
X155046Y85783*
X154677Y85598*
X155046Y85413*
X155230Y85044*
X155046Y84675*
X154677Y84491*
X154307*
X153939Y84675*
X153754Y85044*
X153939Y85413*
X154307Y85598*
X152278Y85044D02*
X152093Y85413D01*
X151724Y85598*
X151355*
X150986Y85413*
X150801Y85044*
X150986Y84675*
X151355Y84491*
X151724*
X152093Y84675*
X152278Y85044*
Y85598*
X152093Y86152*
X151724Y86521*
X151355Y86705*
X158343Y122010D02*
Y124225D01*
X159266D02*
X157420D01*
X155944Y122010D02*
X155206D01*
X155575D02*
Y124225D01*
X155944Y123856*
X153176Y122195D02*
X152807Y122010D01*
X152437*
X152069Y122195*
X151884Y122564*
X152069Y122933*
X152437Y123118*
X152807*
X152437D02*
X152069Y123302D01*
X151884Y123671*
X152069Y124041*
X152437Y124225*
X152807*
X153176Y124041*
X159522Y177256D02*
X161367D01*
X159522Y175042*
X161367*
X162474D02*
Y177256D01*
X163582*
X163951Y177072*
X164135Y176887*
X164320Y176518*
Y175780*
X164135Y175411*
X163951Y175226*
X163582Y175042*
X162474*
X165796D02*
X166535D01*
X166165D02*
Y177256D01*
X165796Y176887*
X159327Y168509D02*
X159512Y168693D01*
X159696Y169063*
Y169616*
X159512Y169985*
X159327Y170170*
X158958Y170354*
X158220*
X157851Y170170*
X157666Y169985*
X157482Y169616*
Y169063*
X157666Y168693*
X157851Y168509*
X159143Y167402D02*
X158774Y167217D01*
X158589Y166848*
Y166479*
X158774Y166110*
X159143Y165925*
X159512Y166110*
X159696Y166479*
Y166848*
X159512Y167217*
X159143Y167402*
X158589*
X158035Y167217*
X157666Y166848*
X157482Y166479*
X159512Y164264D02*
X159696Y163895D01*
Y163526*
X159512Y163157*
X159143Y162972*
X158035*
X157666Y163157*
X157482Y163526*
Y163895*
X157666Y164264*
X158035Y164449*
X159143*
X159512Y164264*
X157666Y163157*
X161530Y218546D02*
Y220760D01*
X160238*
X159869Y220576*
X159684Y220207*
X159869Y219838*
X160238Y219653*
X161530*
X160238D02*
X159684Y218546D01*
X158023D02*
X157654Y218730D01*
X157285Y219100*
X157100Y219653*
Y220207*
X157285Y220576*
X157654Y220760*
X158023*
X158392Y220576*
X158577Y220207*
X158392Y219838*
X158023Y219653*
X157654*
X157285Y219838*
X157100Y220207*
X155070Y219653D02*
X154701D01*
X154332Y219838*
X154148Y220207*
X154332Y220576*
X154701Y220760*
X155070*
X155439Y220576*
X155624Y220207*
X155439Y219838*
X155070Y219653*
X155439Y219469*
X155624Y219100*
X155439Y218730*
X155070Y218546*
X154701*
X154332Y218730*
X154148Y219100*
X154332Y219469*
X154701Y219653*
X162396Y234434D02*
Y235320D01*
X161879*
X161731Y235246*
X161657Y235098*
X161731Y234951*
X161879Y234877*
X162396*
X161879D02*
X161657Y234434D01*
X161067D02*
X160772D01*
X160919D02*
Y235320D01*
X161067Y235172*
X159443Y234434D02*
X160033D01*
X159517Y234951*
X159443Y235098*
X159517Y235246*
X159664Y235320*
X159886*
X160033Y235246*
X158778Y234508D02*
X158631Y234434D01*
X158483*
X158335Y234508*
X158262Y234656*
Y235098*
X158335Y235246*
X158483Y235320*
X158631*
X158778Y235246*
X158852Y235098*
Y234656*
X158778Y234508*
X158335Y235246*
X164086Y270945D02*
X161872D01*
Y269653*
X162056Y269284*
X162425Y269099*
X162794Y269284*
X162979Y269653*
Y270945*
Y269653D02*
X164086Y269099D01*
X163902Y267807D02*
X164086Y267439D01*
Y267069*
X163902Y266700*
X163532Y266516*
X162425*
X162056Y266700*
X161872Y267069*
Y267439*
X162056Y267807*
X162425Y267992*
X163532*
X163902Y267807*
X162056Y266700*
X163163Y263563D02*
X162794Y263748D01*
X162610Y264117*
Y264486*
X162794Y264855*
X163163Y265039*
X163348*
X163717Y264855*
X163902Y264486*
Y264117*
X163717Y263748*
X163348Y263563*
X162610D02*
X164086D01*
X164455Y263748*
X164640Y264117*
Y264670*
X164455Y265039*
X164086Y262087D02*
X162610D01*
X163163D02*
X162794Y261902D01*
X162610Y261533*
Y261164*
X162794Y260795*
X163163Y260610*
X164086*
X165073Y182798D02*
Y185012D01*
X163781*
X163412Y184828*
X163227Y184459*
X163412Y184090*
X163781Y183905*
X165073*
X163781D02*
X163227Y182798D01*
X161567D02*
X161197Y182982D01*
X160828Y183352*
X160644Y183905*
Y184459*
X160828Y184828*
X161197Y185012*
X161567*
X161935Y184828*
X162120Y184459*
X161935Y184090*
X161567Y183905*
X161197*
X160828Y184090*
X160644Y184459*
X158983Y182982D02*
X158614Y182798D01*
X158244*
X157876Y182982*
X157691Y183352*
X157876Y183720*
X158244Y183905*
X158614*
X158244D02*
X157876Y184090D01*
X157691Y184459*
X157876Y184828*
X158244Y185012*
X158614*
X158983Y184828*
X165230Y237820D02*
Y238706D01*
X164713*
X164566Y238632*
X164492Y238484*
X164566Y238337*
X164713Y238263*
X165230*
X164713D02*
X164492Y237820D01*
X163902D02*
X163606D01*
X163754D02*
Y238706D01*
X163902Y238558*
X162720Y237820D02*
X162425D01*
X162573D02*
Y238706D01*
X162720Y238558*
X161465Y238263D02*
X161318D01*
X161170Y238337*
X161096Y238484*
X161170Y238632*
X161318Y238706*
X161465*
X161613Y238632*
X161687Y238484*
X161613Y238337*
X161465Y238263*
X161613Y238189*
X161687Y238041*
X161613Y237894*
X161465Y237820*
X161318*
X161170Y237894*
X161096Y238041*
X161170Y238189*
X161318Y238263*
X164696Y102638D02*
X162482D01*
Y101346*
X162666Y100977*
X163035Y100792*
X163404Y100977*
X163589Y101346*
Y102638*
Y101346D02*
X164696Y100792D01*
Y99316D02*
Y98578D01*
Y98947D02*
X162482D01*
X162851Y99316*
X164512Y96548D02*
X164696Y96179D01*
Y95809*
X164512Y95441*
X164143Y95256*
X163035*
X162666Y95441*
X162482Y95809*
Y96179*
X162666Y96548*
X163035Y96732*
X164143*
X164512Y96548*
X162666Y95441*
X163589Y93226D02*
Y92857D01*
X163404Y92488*
X163035Y92303*
X162666Y92488*
X162482Y92857*
Y93226*
X162666Y93595*
X163035Y93780*
X163404Y93595*
X163589Y93226*
X163774Y93595*
X164143Y93780*
X164512Y93595*
X164696Y93226*
Y92857*
X164512Y92488*
X164143Y92303*
X163774Y92488*
X163589Y92857*
X165764Y168863D02*
X165949Y169048D01*
X166133Y169417*
Y169970*
X165949Y170339*
X165764Y170524*
X165395Y170709*
X164657*
X164288Y170524*
X164103Y170339*
X163919Y169970*
Y169417*
X164103Y169048*
X164288Y168863*
X165580Y167756D02*
X165211Y167571D01*
X165026Y167202*
Y166833*
X165211Y166464*
X165580Y166280*
X165949Y166464*
X166133Y166833*
Y167202*
X165949Y167571*
X165580Y167756*
X165026*
X164472Y167571*
X164103Y167202*
X163919Y166833*
X165949Y164803D02*
X166133Y164434D01*
Y163880*
X165949Y163511*
X165580Y163327*
X165395*
X165026Y163511*
X164841Y163880*
Y164803*
X163919*
Y163327*
X169404Y55357D02*
Y57571D01*
X168296*
X167927Y57387*
X167743Y57202*
X167558Y56833*
Y56095*
X167743Y55726*
X167927Y55541*
X168296Y55357*
X169404*
X166451Y55541D02*
X166081Y55357D01*
X165528*
X165159Y55541*
X164974Y55911*
Y56095*
X165159Y56464*
X165528Y56649*
X166451*
Y57571*
X164974*
X163313Y55541D02*
X162944Y55357D01*
X162575*
X162206Y55541*
X162022Y55911*
Y57018*
X162206Y57387*
X162575Y57571*
X162944*
X163313Y57387*
X163498Y57018*
Y55911*
X163313Y55541*
X162206Y57387*
X169047Y251654D02*
X166832D01*
Y250362*
X167017Y249993*
X167386Y249808*
X167755Y249993*
X167939Y250362*
Y251654*
Y250362D02*
X169047Y249808D01*
Y247224D02*
Y248701D01*
X167755Y247409*
X167386Y247224*
X167017Y247409*
X166832Y247778*
Y248331*
X167017Y248701*
X168862Y245563D02*
X169047Y245194D01*
Y244825*
X168862Y244456*
X168493Y244272*
X167386*
X167017Y244456*
X166832Y244825*
Y245194*
X167017Y245563*
X167386Y245748*
X168493*
X168862Y245563*
X167017Y244456*
X170307Y106378D02*
X168092D01*
Y105086*
X168276Y104717*
X168646Y104532*
X169015Y104717*
X169199Y105086*
Y106378*
Y105086D02*
X170307Y104532D01*
Y103056D02*
Y102318D01*
Y102687D02*
X168092D01*
X168461Y103056*
X170307Y100103D02*
Y99365D01*
Y99734D02*
X168092D01*
X168461Y100103*
X170307Y96043D02*
Y97520D01*
X169015Y96228*
X168646Y96043*
X168276Y96228*
X168092Y96597*
Y97150*
X168276Y97520*
X171175Y211105D02*
Y213319D01*
X169883*
X169514Y213135*
X169330Y212766*
X169514Y212397*
X169883Y212212*
X171175*
X169883D02*
X169330Y211105D01*
X167853D02*
X167115D01*
X167484D02*
Y213319D01*
X167853Y212950*
X165085Y211289D02*
X164716Y211105D01*
X164347*
X163978Y211289*
X163793Y211659*
Y212766*
X163978Y213135*
X164347Y213319*
X164716*
X165085Y213135*
X165270Y212766*
Y211659*
X165085Y211289*
X163978Y213135*
X161763Y211105D02*
X161394Y211289D01*
X161025Y211659*
X160841Y212212*
Y212766*
X161025Y213135*
X161394Y213319*
X161763*
X162132Y213135*
X162317Y212766*
X162132Y212397*
X161763Y212212*
X161394*
X161025Y212397*
X160841Y212766*
X171724Y265866D02*
X169509D01*
Y264574*
X169694Y264205*
X170063Y264020*
X170432Y264205*
X170617Y264574*
Y265866*
Y264574D02*
X171724Y264020D01*
Y261437D02*
Y262913D01*
X170432Y261622*
X170063Y261437*
X169694Y261622*
X169509Y261991*
Y262544*
X169694Y262913*
X171724Y259961D02*
X170248D01*
X170801D02*
X170432Y259776D01*
X170248Y259407*
Y259038*
X170432Y258669*
X170801Y255531D02*
X170432Y255716D01*
X170248Y256085*
Y256454*
X170432Y256823*
X170801Y257008*
X171170*
X171539Y256823*
X171724Y256454*
Y256085*
X171539Y255716*
X171170Y255531*
X171724D02*
X169509D01*
X172000Y149845D02*
X171261D01*
X171630D02*
Y152059D01*
X172000D02*
X171261D01*
X167755Y150214D02*
X167939Y150030D01*
X168309Y149845*
X168862*
X169231Y150030*
X169416Y150214*
X169600Y150583*
Y151321*
X169416Y151691*
X169231Y151875*
X168862Y152059*
X168309*
X167939Y151875*
X167755Y151691*
X166648Y150399D02*
X166463Y150768D01*
X166094Y150952*
X165725*
X165356Y150768*
X165171Y150399*
X165356Y150030*
X165725Y149845*
X166094*
X166463Y150030*
X166648Y150399*
Y150952*
X166463Y151506*
X166094Y151875*
X165725Y152059*
X163510Y150030D02*
X163141Y149845D01*
X162772*
X162403Y150030*
X162219Y150399*
Y151506*
X162403Y151875*
X162772Y152059*
X163141*
X163510Y151875*
X163695Y151506*
Y150399*
X163510Y150030*
X162403Y151875*
X172516Y169316D02*
X172701Y169500D01*
X172885Y169870*
Y170423*
X172701Y170792*
X172516Y170977*
X172147Y171161*
X171409*
X171040Y170977*
X170855Y170792*
X170671Y170423*
Y169870*
X170855Y169500*
X171040Y169316*
X172331Y168209D02*
X171963Y168024D01*
X171778Y167655*
Y167286*
X171963Y166917*
X172331Y166732*
X172701Y166917*
X172885Y167286*
Y167655*
X172701Y168024*
X172331Y168209*
X171778*
X171224Y168024*
X170855Y167655*
X170671Y167286*
X172885Y163780D02*
Y165256D01*
X171593Y163964*
X171224Y163780*
X170855Y163964*
X170671Y164333*
Y164887*
X170855Y165256*
X174756Y250669D02*
X172541D01*
Y249378*
X172725Y249008*
X173094Y248824*
X173463Y249008*
X173648Y249378*
Y250669*
Y249378D02*
X174756Y248824D01*
Y246240D02*
Y247717D01*
X173463Y246425*
X173094Y246240*
X172725Y246425*
X172541Y246794*
Y247347*
X172725Y247717*
X174756Y244394D02*
Y243656D01*
Y244026D02*
X172541D01*
X172910Y244394*
X178183Y70694D02*
Y71580D01*
X177666*
X177519Y71506*
X177445Y71358*
X177519Y71211*
X177666Y71137*
X178183*
X177666D02*
X177445Y70694D01*
X177002Y70768D02*
X176854Y70694D01*
X176633*
X176485Y70768*
X176411Y70915*
Y70989*
X176485Y71137*
X176633Y71211*
X177002*
Y71580*
X176411*
X175821Y70768D02*
X175673Y70694D01*
X175452*
X175304Y70768*
X175230Y70915*
Y70989*
X175304Y71137*
X175452Y71211*
X175821*
Y71580*
X175230*
X178852Y87601D02*
Y89815D01*
X177561*
X177191Y89631*
X177007Y89262*
X177191Y88893*
X177561Y88708*
X178852*
X177561D02*
X177007Y87601D01*
X175900Y87785D02*
X175530Y87601D01*
X174977*
X174608Y87785*
X174423Y88155*
Y88339*
X174608Y88708*
X174977Y88893*
X175900*
Y89815*
X174423*
X172393Y88708D02*
X172024D01*
X171655Y88893*
X171470Y89262*
X171655Y89631*
X172024Y89815*
X172393*
X172762Y89631*
X172947Y89262*
X172762Y88893*
X172393Y88708*
X172762Y88524*
X172947Y88155*
X172762Y87785*
X172393Y87601*
X172024*
X171655Y87785*
X171470Y88155*
X171655Y88524*
X172024Y88708*
X178496Y205394D02*
X176281D01*
Y204102*
X176465Y203733*
X176835Y203548*
X177204Y203733*
X177388Y204102*
Y205394*
Y204102D02*
X178496Y203548D01*
Y201518D02*
X176281D01*
X177757Y202441*
Y200965*
X178311Y199304D02*
X178496Y198935D01*
Y198565*
X178311Y198196*
X177942Y198012*
X176835*
X176465Y198196*
X176281Y198565*
Y198935*
X176465Y199304*
X176835Y199488*
X177942*
X178311Y199304*
X176465Y198196*
X178535Y81929D02*
X176320D01*
Y80637*
X176505Y80268*
X176874Y80083*
X177243Y80268*
X177428Y80637*
Y81929*
Y80637D02*
X178535Y80083D01*
X178350Y78976D02*
X178535Y78607D01*
Y78054*
X178350Y77685*
X177981Y77500*
X177797*
X177428Y77685*
X177243Y78054*
Y78976*
X176320*
Y77500*
X178535Y76024D02*
X176320Y74547D01*
Y76024*
X181254Y96678D02*
Y97564D01*
X180737*
X180589Y97490*
X180516Y97343*
X180589Y97195*
X180737Y97121*
X181254*
X180737D02*
X180516Y96678D01*
X180073Y96752D02*
X179925Y96678D01*
X179704*
X179556Y96752*
X179482Y96900*
Y96974*
X179556Y97121*
X179704Y97195*
X180073*
Y97564*
X179482*
X178670Y96678D02*
X178522Y96752D01*
X178375Y96900*
X178301Y97121*
Y97343*
X178375Y97490*
X178522Y97564*
X178670*
X178818Y97490*
X178892Y97343*
X178818Y97195*
X178670Y97121*
X178522*
X178375Y97195*
X178301Y97343*
X181805Y67466D02*
Y68352D01*
X181288*
X181141Y68278*
X181067Y68130*
X181141Y67982*
X181288Y67909*
X181805*
X181288D02*
X181067Y67466D01*
X180624Y67539D02*
X180476Y67466D01*
X180255*
X180107Y67539*
X180033Y67687*
Y67761*
X180107Y67909*
X180255Y67982*
X180624*
Y68352*
X180033*
X179074Y67466D02*
Y68352D01*
X179443Y67761*
X178852*
X181662Y118740D02*
X180776D01*
Y118223*
X180850Y118076*
X180998Y118002*
X181146Y118076*
X181219Y118223*
Y118740*
Y118223D02*
X181662Y118002D01*
Y117337D02*
X181589Y117190D01*
X181441Y117042*
X181219Y116969*
X180998*
X180850Y117042*
X180776Y117190*
Y117337*
X180850Y117485*
X180998Y117559*
X181146Y117485*
X181219Y117337*
Y117190*
X181146Y117042*
X180998Y116969*
X181662Y115787D02*
Y116378D01*
X181146Y115861*
X180998Y115787*
X180850Y115861*
X180776Y116009*
Y116230*
X180850Y116378*
X181662Y115049D02*
Y114754D01*
Y114902D02*
X180776D01*
X180924Y115049*
X182728Y161890D02*
X180513D01*
Y160598*
X180698Y160229*
X181067Y160044*
X181436Y160229*
X181620Y160598*
Y161890*
Y160598D02*
X182728Y160044D01*
X182174Y158937D02*
X181805Y158752D01*
X181620Y158383*
Y158014*
X181805Y157645*
X182174Y157461*
X182543Y157645*
X182728Y158014*
Y158383*
X182543Y158752*
X182174Y158937*
X181620*
X181067Y158752*
X180698Y158383*
X180513Y158014*
X182728Y154508D02*
Y155984D01*
X181436Y154693*
X181067Y154508*
X180698Y154693*
X180513Y155061*
Y155615*
X180698Y155984*
X181456Y56986D02*
X181640Y56801D01*
X182009Y56617*
X182563*
X182932Y56801*
X183117Y56986*
X183301Y57355*
Y58093*
X183117Y58462*
X182932Y58647*
X182563Y58831*
X182009*
X181640Y58647*
X181456Y58462*
X180348Y56801D02*
X179979Y56617D01*
X179426*
X179057Y56801*
X178872Y57170*
Y57355*
X179057Y57724*
X179426Y57909*
X180348*
Y58831*
X178872*
X176473Y56617D02*
Y58831D01*
X177396Y57355*
X175919*
X182457Y172446D02*
X182642Y172630D01*
X182826Y173000*
Y173553*
X182642Y173922*
X182457Y174107*
X182088Y174291*
X181350*
X180981Y174107*
X180796Y173922*
X180612Y173553*
Y173000*
X180796Y172630*
X180981Y172446*
X182272Y171339D02*
X181904Y171154D01*
X181719Y170785*
Y170416*
X181904Y170047*
X182272Y169862*
X182642Y170047*
X182826Y170416*
Y170785*
X182642Y171154*
X182272Y171339*
X181719*
X181165Y171154*
X180796Y170785*
X180612Y170416*
X182826Y167463D02*
X180612D01*
X182088Y168386*
Y166909*
X182322Y187281D02*
X182506Y187096D01*
X182876Y186912*
X183429*
X183798Y187096*
X183983Y187281*
X184167Y187650*
Y188388*
X183983Y188757*
X183798Y188942*
X183429Y189126*
X182876*
X182506Y188942*
X182322Y188757*
X180292Y186912D02*
Y189126D01*
X181215Y187650*
X179738*
X177339Y186912D02*
Y189126D01*
X178262Y187650*
X176785*
X183306Y210450D02*
X183491Y210266D01*
X183860Y210081*
X184413*
X184782Y210266*
X184967Y210450*
X185152Y210819*
Y211557*
X184967Y211927*
X184782Y212111*
X184413Y212296*
X183860*
X183491Y212111*
X183306Y211927*
X181276Y210081D02*
Y212296D01*
X182199Y210819*
X180722*
X179246Y210266D02*
X178877Y210081D01*
X178323*
X177954Y210266*
X177770Y210635*
Y210819*
X177954Y211189*
X178323Y211373*
X179246*
Y212296*
X177770*
X185681Y205787D02*
X183466D01*
Y204496*
X183650Y204126*
X184020Y203942*
X184389Y204126*
X184573Y204496*
Y205787*
Y204496D02*
X185681Y203942D01*
Y201912D02*
X183466D01*
X184943Y202835*
Y201358*
X184573Y199328D02*
Y198959D01*
X184389Y198590*
X184020Y198406*
X183650Y198590*
X183466Y198959*
Y199328*
X183650Y199697*
X184020Y199882*
X184389Y199697*
X184573Y199328*
X184758Y199697*
X185127Y199882*
X185496Y199697*
X185681Y199328*
Y198959*
X185496Y198590*
X185127Y198406*
X184758Y198590*
X184573Y198959*
X187654Y96028D02*
X187839Y96213D01*
X188023Y96582*
Y97136*
X187839Y97505*
X187654Y97689*
X187285Y97874*
X186547*
X186178Y97689*
X185993Y97505*
X185809Y97136*
Y96582*
X185993Y96213*
X186178Y96028*
X187839Y94921D02*
X188023Y94552D01*
Y93998*
X187839Y93630*
X187469Y93445*
X187285*
X186916Y93630*
X186731Y93998*
Y94921*
X185809*
Y93445*
X188023Y91415D02*
X187839Y91046D01*
X187469Y90677*
X186916Y90492*
X186362*
X185993Y90677*
X185809Y91046*
Y91415*
X185993Y91784*
X186362Y91969*
X186731Y91784*
X186916Y91415*
Y91046*
X186731Y90677*
X186362Y90492*
X191488Y205787D02*
X189273D01*
Y204496*
X189457Y204126*
X189827Y203942*
X190196Y204126*
X190380Y204496*
Y205787*
Y204496D02*
X191488Y203942D01*
Y201912D02*
X189273D01*
X190750Y202835*
Y201358*
X191488Y199328D02*
X191303Y198959D01*
X190934Y198590*
X190380Y198406*
X189827*
X189457Y198590*
X189273Y198959*
Y199328*
X189457Y199697*
X189827Y199882*
X190196Y199697*
X190380Y199328*
Y198959*
X190196Y198590*
X189827Y198406*
X192829Y101088D02*
Y101974D01*
X192312*
X192164Y101900*
X192091Y101752*
X192164Y101604*
X192312Y101531*
X192829*
X192312D02*
X192091Y101088D01*
X191426D02*
X191278Y101161D01*
X191131Y101309*
X191057Y101531*
Y101752*
X191131Y101900*
X191278Y101974*
X191426*
X191574Y101900*
X191648Y101752*
X191574Y101604*
X191426Y101531*
X191278*
X191131Y101604*
X191057Y101752*
X190319Y101088D02*
X190024D01*
X190171D02*
Y101974D01*
X190319Y101826*
X189064Y101088D02*
X188916Y101161D01*
X188769Y101309*
X188695Y101531*
Y101752*
X188769Y101900*
X188916Y101974*
X189064*
X189211Y101900*
X189285Y101752*
X189211Y101604*
X189064Y101531*
X188916*
X188769Y101604*
X188695Y101752*
X192300Y124727D02*
Y126941D01*
X193222D02*
X191377D01*
X189347Y124727D02*
Y126941D01*
X190270Y125465*
X188793*
X193929Y97638D02*
X191714D01*
Y96346*
X191898Y95977*
X192268Y95792*
X192637Y95977*
X192821Y96346*
Y97638*
Y96346D02*
X193929Y95792D01*
X193375Y94685D02*
X193006Y94500D01*
X192821Y94131*
Y93762*
X193006Y93393*
X193375Y93209*
X193744Y93393*
X193929Y93762*
Y94131*
X193744Y94500*
X193375Y94685*
X192821*
X192268Y94500*
X191898Y94131*
X191714Y93762*
X193744Y91732D02*
X193929Y91363D01*
Y90809*
X193744Y90441*
X193375Y90256*
X193191*
X192821Y90441*
X192637Y90809*
Y91732*
X191714*
Y90256*
X195781Y187089D02*
Y189304D01*
X194490*
X194120Y189119*
X193936Y188750*
X194120Y188381*
X194490Y188196*
X195781*
X194490D02*
X193936Y187089D01*
X191906D02*
Y189304D01*
X192829Y187827*
X191352*
X189507Y187089D02*
X188769D01*
X189138D02*
Y189304D01*
X189507Y188935*
X198889Y272992D02*
X196675D01*
Y271700*
X196859Y271331*
X197228Y271146*
X197597Y271331*
X197782Y271700*
Y272992*
Y271700D02*
X198889Y271146D01*
Y270039D02*
X196675Y268563D01*
Y270039*
X197782Y266533D02*
Y266164D01*
X197597Y265795*
X197228Y265610*
X196859Y265795*
X196675Y266164*
Y266533*
X196859Y266902*
X197228Y267087*
X197597Y266902*
X197782Y266533*
X197967Y266902*
X198335Y267087*
X198705Y266902*
X198889Y266533*
Y266164*
X198705Y265795*
X198335Y265610*
X197967Y265795*
X197782Y266164*
X197069Y222283D02*
Y220438D01*
X199283Y222283*
Y220438*
Y219331D02*
X197069D01*
Y218223*
X197253Y217854*
X197437Y217670*
X197807Y217485*
X198545*
X198914Y217670*
X199098Y217854*
X199283Y218223*
Y219331*
Y215455D02*
X197069D01*
X198545Y216378*
Y214902*
X199283Y213056D02*
Y212318D01*
Y212687D02*
X197069D01*
X197437Y213056*
X201527Y72483D02*
X200789D01*
X201158D02*
Y74697D01*
X201527D02*
X200789D01*
X197282Y72852D02*
X197467Y72667D01*
X197836Y72483*
X198390*
X198759Y72667*
X198943Y72852*
X199128Y73221*
Y73959*
X198943Y74328*
X198759Y74513*
X198390Y74697*
X197836*
X197467Y74513*
X197282Y74328*
X196175Y72667D02*
X195806Y72483D01*
X195252*
X194883Y72667*
X194699Y73037*
Y73221*
X194883Y73590*
X195252Y73775*
X196175*
Y74697*
X194699*
X193038Y72667D02*
X192669Y72483D01*
X192300*
X191931Y72667*
X191746Y73037*
Y74144*
X191931Y74513*
X192300Y74697*
X192669*
X193038Y74513*
X193222Y74144*
Y73037*
X193038Y72667*
X191931Y74513*
X203065Y249924D02*
Y252138D01*
X201957*
X201589Y251954*
X201404Y251769*
X201219Y251400*
Y250662*
X201404Y250293*
X201589Y250108*
X201957Y249924*
X203065*
X200112D02*
X198636Y252138D01*
X200112*
X196975Y250108D02*
X196606Y249924D01*
X196237*
X195868Y250108*
X195683Y250478*
X195868Y250846*
X196237Y251031*
X196606*
X196237D02*
X195868Y251216D01*
X195683Y251585*
X195868Y251954*
X196237Y252138*
X196606*
X196975Y251954*
X205585Y164569D02*
Y166784D01*
X204293*
X203924Y166600*
X203739Y166230*
X203924Y165861*
X204293Y165677*
X205585*
X204293D02*
X203739Y164569D01*
X201709D02*
Y166784D01*
X202632Y165307*
X201156*
X198203Y164569D02*
X199679D01*
X198387Y165861*
X198203Y166230*
X198387Y166600*
X198756Y166784*
X199310*
X199679Y166600*
X204741Y54847D02*
X204925Y55032D01*
X205110Y55401*
Y55955*
X204925Y56324*
X204741Y56508*
X204372Y56693*
X203633*
X203264Y56508*
X203080Y56324*
X202895Y55955*
Y55401*
X203080Y55032*
X203264Y54847*
X204925Y53740D02*
X205110Y53371D01*
Y52817*
X204925Y52448*
X204556Y52264*
X204372*
X204002Y52448*
X203818Y52817*
Y53740*
X202895*
Y52264*
X205110Y49311D02*
Y50787D01*
X203818Y49496*
X203449Y49311*
X203080Y49496*
X202895Y49865*
Y50418*
X203080Y50787*
X208656Y101538D02*
Y103752D01*
X207548*
X207179Y103568*
X206994Y103383*
X206810Y103014*
Y102276*
X206994Y101907*
X207179Y101722*
X207548Y101538*
X208656*
X204780D02*
Y103752D01*
X205703Y102276*
X204226*
X202565Y101722D02*
X202196Y101538D01*
X201827*
X201458Y101722*
X201274Y102092*
Y103199*
X201458Y103568*
X201827Y103752*
X202196*
X202565Y103568*
X202750Y103199*
Y102092*
X202565Y101722*
X201458Y103568*
X209204Y127874D02*
X206990D01*
Y126582*
X207174Y126213*
X207543Y126028*
X207912Y126213*
X208097Y126582*
Y127874*
Y126582D02*
X209204Y126028D01*
Y123998D02*
X206990D01*
X208466Y124921*
Y123445*
X209020Y121969D02*
X209204Y121599D01*
Y121046*
X209020Y120677*
X208650Y120492*
X208466*
X208097Y120677*
X207912Y121046*
Y121969*
X206990*
Y120492*
X210073Y234097D02*
Y236311D01*
X208781*
X208412Y236127*
X208227Y235758*
X208412Y235389*
X208781Y235204*
X210073*
X208781D02*
X208227Y234097D01*
X207120D02*
X205644Y236311D01*
X207120*
X203244Y234097D02*
Y236311D01*
X204167Y234835*
X202691*
X210073Y240396D02*
Y242611D01*
X208781*
X208412Y242426*
X208227Y242057*
X208412Y241688*
X208781Y241504*
X210073*
X208781D02*
X208227Y240396D01*
X207120D02*
X205644Y242611D01*
X207120*
X204167Y240396D02*
X202691Y242611D01*
X204167*
X209524Y174845D02*
Y177059D01*
X210447D02*
X208601D01*
X206571Y174845D02*
Y177059D01*
X207494Y175583*
X206018*
X204357Y175030D02*
X203988Y174845D01*
X203619*
X203250Y175030*
X203065Y175399*
Y176506*
X203250Y176875*
X203619Y177059*
X203988*
X204357Y176875*
X204541Y176506*
Y175399*
X204357Y175030*
X203250Y176875*
X212711Y111235D02*
Y110349D01*
X213228*
X213375Y110423*
X213449Y110571*
X213375Y110719*
X213228Y110792*
X212711*
X213228D02*
X213449Y111235D01*
X213892Y111014D02*
X213966Y110866D01*
X214113Y110792*
X214261*
X214409Y110866*
X214482Y111014*
X214409Y111161*
X214261Y111235*
X214113*
X213966Y111161*
X213892Y111014*
Y110792*
X213966Y110571*
X214113Y110423*
X214261Y110349*
X215147Y111161D02*
X215294Y111235D01*
X215442*
X215590Y111161*
X215663Y111014*
X215590Y110866*
X215442Y110792*
X215294*
X215442D02*
X215590Y110719D01*
X215663Y110571*
X215590Y110423*
X215442Y110349*
X215294*
X215147Y110423*
X212590Y167480D02*
X210376D01*
Y166189*
X210560Y165819*
X210929Y165635*
X211298Y165819*
X211483Y166189*
Y167480*
Y166189D02*
X212590Y165635D01*
Y163605D02*
X210376D01*
X211852Y164528*
Y163051*
X212406Y161390D02*
X212590Y161021D01*
Y160652*
X212406Y160283*
X212036Y160098*
X211667Y160283*
X211483Y160652*
Y161021*
Y160652D02*
X211298Y160283D01*
X210929Y160098*
X210560Y160283*
X210376Y160652*
Y161021*
X210560Y161390*
X212457Y136459D02*
Y138674D01*
X213380D02*
X211534D01*
X209504Y136459D02*
Y138674D01*
X210427Y137197*
X208951*
X207105Y136459D02*
X206367D01*
X206736D02*
Y138674D01*
X207105Y138305*
X213141Y223408D02*
X210927D01*
Y224331D02*
Y222485D01*
X213141Y221378D02*
X210927Y219902D01*
Y221378*
X212957Y218241D02*
X213141Y217872D01*
Y217502*
X212957Y217133*
X212587Y216949*
X211480*
X211111Y217133*
X210927Y217502*
Y217872*
X211111Y218241*
X211480Y218425*
X212587*
X212957Y218241*
X211111Y217133*
X211478Y201181D02*
Y199335D01*
X213693Y201181*
Y199335*
Y198228D02*
X211478D01*
Y197121*
X211662Y196752*
X211847Y196567*
X212216Y196383*
X212954*
X213323Y196567*
X213508Y196752*
X213693Y197121*
Y198228*
Y194353D02*
X211478D01*
X212954Y195276*
Y193799*
X213508Y192138D02*
X213693Y191769D01*
Y191400*
X213508Y191031*
X213139Y190846*
X212031*
X211662Y191031*
X211478Y191400*
Y191769*
X211662Y192138*
X212031Y192323*
X213139*
X213508Y192138*
X211662Y191031*
X215267Y53307D02*
X213053D01*
Y52200*
X213237Y51831*
X213422Y51646*
X213791Y51461*
X214529*
X214898Y51646*
X215083Y51831*
X215267Y52200*
Y53307*
X215083Y50354D02*
X215267Y49985D01*
Y49431*
X215083Y49063*
X214713Y48878*
X214529*
X214160Y49063*
X213975Y49431*
Y50354*
X213053*
Y48878*
X215267Y45925D02*
Y47402D01*
X213975Y46110*
X213606Y45925*
X213237Y46110*
X213053Y46479*
Y47032*
X213237Y47402*
X215661Y127953D02*
X213446D01*
Y126661*
X213631Y126292*
X214000Y126107*
X214369Y126292*
X214554Y126661*
Y127953*
Y126661D02*
X215661Y126107D01*
Y124077D02*
X213446D01*
X214923Y125000*
Y123524*
X215661Y121124D02*
X213446D01*
X214923Y122047*
Y120571*
X217081Y92916D02*
Y95130D01*
X215973*
X215604Y94946*
X215420Y94761*
X215235Y94392*
Y93654*
X215420Y93285*
X215604Y93100*
X215973Y92916*
X217081*
X213205D02*
Y95130D01*
X214128Y93654*
X212652*
X210806Y92916D02*
X210068D01*
X210437D02*
Y95130D01*
X210806Y94761*
X217238Y207483D02*
Y209697D01*
X215946*
X215577Y209513*
X215393Y209144*
X215577Y208775*
X215946Y208590*
X217238*
X215946D02*
X215393Y207483D01*
X214285D02*
X212809Y209697D01*
X214285*
X210779Y207483D02*
X210410Y207667D01*
X210041Y208037*
X209856Y208590*
Y209144*
X210041Y209513*
X210410Y209697*
X210779*
X211148Y209513*
X211333Y209144*
X211148Y208775*
X210779Y208590*
X210410*
X210041Y208775*
X209856Y209144*
D02*
D151*
X125742Y194941D02*
G75*
G02Y193957J-492D01*
G01*
G75*
G02Y194941J492*
G01*
D02*
D152*
X46096Y115846D02*
X38596D01*
X36096Y113346*
Y100846*
X46096*
Y115846*
X145889Y64925D02*
X143502D01*
Y67311*
X155517Y79327D02*
X157904D01*
Y76941*
Y67311D02*
Y64925D01*
X155517*
X178522Y143567D02*
Y155472D01*
X176616Y157378*
X168346*
Y155571*
X164803*
Y157378*
X154430*
Y143567*
X178522*
D02*
D153*
X113151Y57015D02*
Y55765D01*
Y56390D02*
X109401D01*
Y57015D02*
Y55765D01*
X112526Y49828D02*
X112839Y50140D01*
X113151Y50765*
Y51703*
X112839Y52328*
X112526Y52640*
X111901Y52953*
X110651*
X110026Y52640*
X109713Y52328*
X109401Y51703*
Y50765*
X109713Y50140*
X110026Y49828*
X113151Y47328D02*
Y46078D01*
Y46703D02*
X109401D01*
X110026Y47328*
X112839Y42953D02*
X113151Y42328D01*
Y41390*
X112839Y40765*
X112213Y40453*
X111901*
X111276Y40765*
X110963Y41390*
Y42953*
X109401*
Y40453*
X117063Y38622D02*
Y41122D01*
X115813Y39247D02*
X118313Y40497D01*
Y39247D02*
X115813Y40497D01*
X157802Y76772D02*
X156919Y75888D01*
X157360Y76330D02*
X154709Y78981D01*
X155151Y79423D02*
X154267Y78539D01*
X152278Y72131D02*
X152720D01*
X153383Y72352*
X154046Y73015*
X154267Y73678*
Y74120*
X154046Y74783*
X153162Y75667*
X152499Y75888*
X152057*
X151394Y75667*
X150731Y75004*
X150510Y74341*
Y73899*
X149405Y71026D02*
X148963Y70585D01*
X148300Y70364*
X147637Y70585*
X147417Y71248*
X147637Y71910*
X148080Y72352*
X148742Y72573*
X149405Y72352*
X149626Y71689*
X149405Y71026*
X150068Y71247*
X150731Y71026*
X150952Y70363*
X150731Y69700*
X150289Y69259*
X149626Y69038*
X148963Y69259*
X148743Y69922*
X148963Y70585*
X147417Y66828D02*
X147196Y66165D01*
X146754Y65723*
X146091Y65502*
X145428Y65723*
X144102Y67049*
X143881Y67712*
X144102Y68375*
X144544Y68817*
X145207Y69038*
X145870Y68817*
X147195Y67491*
X147417Y66828*
X143881Y67712*
X0Y0D02*
M02*
