G04 EasyPC Gerber Version 21.0.3 Build 4286 *
G04 #@! TF.Part,Single*
G04 #@! TF.FileFunction,Paste,Top *
G04 #@! TF.FilePolarity,Positive *
%FSLAX35Y35*%
%MOIN*%
G04 #@! TA.AperFunction,SMDPad*
%ADD134R,0.00945X0.02323*%
%ADD184R,0.01071X0.02882*%
%ADD175R,0.01120X0.03320*%
%ADD146R,0.01181X0.02559*%
%ADD148R,0.01260X0.05000*%
%ADD177R,0.01417X0.01614*%
%ADD139R,0.01425X0.01613*%
%ADD143R,0.02205X0.03583*%
%ADD136R,0.02205X0.10079*%
%ADD144R,0.02520X0.03307*%
%ADD183R,0.02561X0.04061*%
%ADD176R,0.02677X0.02874*%
%ADD125R,0.02835X0.03228*%
%ADD142R,0.02835X0.04803*%
%ADD127R,0.03150X0.07087*%
%ADD145R,0.03200X0.04000*%
%ADD129R,0.04409X0.07559*%
%ADD149R,0.04724X0.06299*%
%ADD135R,0.05039X0.07402*%
%ADD131R,0.05040X0.08940*%
%ADD132R,0.09764X0.19213*%
%ADD147R,0.00100X0.00100*%
%ADD180R,0.03200X0.00800*%
%ADD186R,0.02323X0.00945*%
%ADD138R,0.02882X0.01071*%
%ADD185R,0.01299X0.01102*%
%ADD187R,0.01613X0.01425*%
%ADD181R,0.04761X0.01761*%
%ADD178R,0.03299X0.02079*%
%ADD133R,0.03228X0.02835*%
%ADD130R,0.04803X0.02835*%
%ADD182R,0.04087X0.02866*%
%ADD140R,0.04795X0.02866*%
%ADD126R,0.07087X0.03150*%
%ADD128R,0.12598X0.12598*%
G04 #@! TD.AperFunction*
%ADD103C,0.00100*%
G04 #@! TA.AperFunction,SMDPad*
%ADD179R,0.07244X0.04094*%
%ADD141R,0.07559X0.04409*%
%ADD137R,0.08940X0.05040*%
X0Y0D02*
D02*
D103*
X45732Y88957D02*
X42839D01*
X42801Y88960*
X42765Y88971*
X42731Y88989*
X42702Y89013*
X42678Y89043*
X42660Y89076*
X42649Y89112*
X42646Y89150*
Y91520*
X42649Y91557*
X42660Y91594*
X42678Y91627*
X42702Y91656*
X42731Y91680*
X42765Y91698*
X42801Y91709*
X42839Y91713*
X45732*
X45770Y91709*
X45806Y91698*
X45839Y91680*
X45869Y91656*
X45893Y91627*
X45911Y91594*
X45922Y91557*
X45925Y91520*
Y89150*
X45922Y89112*
X45911Y89076*
X45893Y89043*
X45869Y89013*
X45839Y88989*
X45806Y88971*
X45770Y88960*
X45732Y88957*
G36*
X42839*
X42801Y88960*
X42765Y88971*
X42731Y88989*
X42702Y89013*
X42678Y89043*
X42660Y89076*
X42649Y89112*
X42646Y89150*
Y91520*
X42649Y91557*
X42660Y91594*
X42678Y91627*
X42702Y91656*
X42731Y91680*
X42765Y91698*
X42801Y91709*
X42839Y91713*
X45732*
X45770Y91709*
X45806Y91698*
X45839Y91680*
X45869Y91656*
X45893Y91627*
X45911Y91594*
X45922Y91557*
X45925Y91520*
Y89150*
X45922Y89112*
X45911Y89076*
X45893Y89043*
X45869Y89013*
X45839Y88989*
X45806Y88971*
X45770Y88960*
X45732Y88957*
G37*
X49787D02*
X46894D01*
X46856Y88960*
X46820Y88971*
X46787Y88989*
X46757Y89013*
X46733Y89043*
X46715Y89076*
X46704Y89112*
X46701Y89150*
Y91520*
X46704Y91557*
X46715Y91594*
X46733Y91627*
X46757Y91656*
X46787Y91680*
X46820Y91698*
X46856Y91709*
X46894Y91713*
X49787*
X49825Y91709*
X49861Y91698*
X49894Y91680*
X49924Y91656*
X49948Y91627*
X49966Y91594*
X49977Y91557*
X49980Y91520*
Y89150*
X49977Y89112*
X49966Y89076*
X49948Y89043*
X49924Y89013*
X49894Y88989*
X49861Y88971*
X49825Y88960*
X49787Y88957*
G36*
X46894*
X46856Y88960*
X46820Y88971*
X46787Y88989*
X46757Y89013*
X46733Y89043*
X46715Y89076*
X46704Y89112*
X46701Y89150*
Y91520*
X46704Y91557*
X46715Y91594*
X46733Y91627*
X46757Y91656*
X46787Y91680*
X46820Y91698*
X46856Y91709*
X46894Y91713*
X49787*
X49825Y91709*
X49861Y91698*
X49894Y91680*
X49924Y91656*
X49948Y91627*
X49966Y91594*
X49977Y91557*
X49980Y91520*
Y89150*
X49977Y89112*
X49966Y89076*
X49948Y89043*
X49924Y89013*
X49894Y88989*
X49861Y88971*
X49825Y88960*
X49787Y88957*
G37*
X53843D02*
X50949D01*
X50911Y88960*
X50875Y88971*
X50842Y88989*
X50813Y89013*
X50789Y89043*
X50770Y89076*
X50759Y89112*
X50756Y89150*
Y91520*
X50759Y91557*
X50770Y91594*
X50789Y91627*
X50813Y91656*
X50842Y91680*
X50875Y91698*
X50911Y91709*
X50949Y91713*
X53843*
X53880Y91709*
X53917Y91698*
X53950Y91680*
X53979Y91656*
X54003Y91627*
X54021Y91594*
X54032Y91557*
X54035Y91520*
Y89150*
X54032Y89112*
X54021Y89076*
X54003Y89043*
X53979Y89013*
X53950Y88989*
X53917Y88971*
X53880Y88960*
X53843Y88957*
G36*
X50949*
X50911Y88960*
X50875Y88971*
X50842Y88989*
X50813Y89013*
X50789Y89043*
X50770Y89076*
X50759Y89112*
X50756Y89150*
Y91520*
X50759Y91557*
X50770Y91594*
X50789Y91627*
X50813Y91656*
X50842Y91680*
X50875Y91698*
X50911Y91709*
X50949Y91713*
X53843*
X53880Y91709*
X53917Y91698*
X53950Y91680*
X53979Y91656*
X54003Y91627*
X54021Y91594*
X54032Y91557*
X54035Y91520*
Y89150*
X54032Y89112*
X54021Y89076*
X54003Y89043*
X53979Y89013*
X53950Y88989*
X53917Y88971*
X53880Y88960*
X53843Y88957*
G37*
D02*
D125*
X27238Y265197D03*
X33537D03*
X33616Y103543D03*
X35781Y272520D03*
X39915Y103543D03*
X40624Y126614D03*
X42081Y272520D03*
X43774Y79606D03*
X44167Y72992D03*
X45978Y103622D03*
X46923Y126614D03*
X50073Y79606D03*
X50467Y72992D03*
X52278Y103622D03*
X62514Y138976D03*
X62829Y260472D03*
X68813Y138976D03*
X69128Y260472D03*
X72356Y132441D03*
X74876Y138898D03*
X78656Y132441D03*
X81175Y138898D03*
X95742Y88110D03*
X102041D03*
X103380Y72913D03*
X108104Y84488D03*
X109049Y145118D03*
X109679Y72913D03*
X114404Y84488D03*
X115348Y145118D03*
X120467Y87795D03*
X122199Y185118D03*
X126766Y87795D03*
X128498Y185118D03*
X132671Y72598D03*
X137238Y248268D03*
X138970Y72598D03*
X141648Y256693D03*
Y263150D03*
X143144Y241811D03*
X143537Y248268D03*
X147947Y256693D03*
Y263150D03*
X149443Y241811D03*
X166844Y259331D03*
X170152Y48740D03*
X173144Y259331D03*
X174915Y187283D03*
X176451Y48740D03*
X181215Y187283D03*
X183222Y107874D03*
X187317Y187283D03*
X189522Y107874D03*
X191018Y253150D03*
X193616Y187283D03*
X195663Y113071D03*
X195978Y234094D03*
X196923Y209528D03*
X197317Y253150D03*
X201963Y113071D03*
X202278Y234094D03*
X203222Y209528D03*
X207986Y237087D03*
X208104Y230197D03*
X214285Y237087D03*
X214404Y230197D03*
D02*
D126*
X27278Y157146D03*
Y162146D03*
Y167146D03*
Y172146D03*
Y177146D03*
Y182146D03*
Y187146D03*
Y192146D03*
Y197146D03*
Y202146D03*
Y207146D03*
Y212146D03*
Y217146D03*
Y222146D03*
X99325Y157146D03*
Y162146D03*
Y167146D03*
Y172146D03*
Y177146D03*
Y182146D03*
Y187146D03*
Y192146D03*
Y197146D03*
Y202146D03*
Y207146D03*
Y212146D03*
Y217146D03*
Y222146D03*
D02*
D127*
X40801Y150669D03*
X45801D03*
X50801D03*
X55801D03*
X60801D03*
X65801D03*
X70801D03*
X75801D03*
X80801D03*
X85801D03*
D02*
D128*
X60309Y192421D03*
D02*
D129*
X59620Y79075D03*
X124423Y152343D03*
X132888D03*
X204344Y150571D03*
D02*
D130*
X59620Y69035D03*
X124423Y162382D03*
X132888D03*
X204344Y140531D03*
D02*
D131*
X23373Y52047D03*
X36773D03*
X37310Y113071D03*
X50710D03*
X80932Y100315D03*
X94332D03*
X175893Y206181D03*
Y218583D03*
X189293Y206181D03*
Y218583D03*
D02*
D132*
X152179Y155728D03*
X190762D03*
D02*
D133*
X19364Y219764D03*
Y226063D03*
X19443Y206772D03*
Y213071D03*
X75742Y55827D03*
Y62126D03*
X84640Y72598D03*
Y78898D03*
X91096Y72598D03*
Y78898D03*
X97553Y72598D03*
Y78898D03*
X105427Y129764D03*
Y136063D03*
X107396Y182362D03*
Y188661D03*
X108026Y170079D03*
Y176378D03*
X117238Y72126D03*
Y78425D03*
X120309Y97165D03*
Y103465D03*
Y112598D03*
Y118898D03*
X126293Y72205D03*
Y78504D03*
X136293Y78976D03*
Y85276D03*
X136844Y235591D03*
Y241890D03*
X140073Y155689D03*
Y161988D03*
X145191Y76220D03*
Y82520D03*
X151963Y229134D03*
Y235433D03*
X166293Y103071D03*
Y109370D03*
X175427Y238425D03*
Y244724D03*
X189089Y228031D03*
Y234331D03*
X194797Y240315D03*
Y246614D03*
X199128Y50079D03*
Y56378D03*
X208813Y49921D03*
Y56220D03*
X211963Y161811D03*
Y168110D03*
X216451Y49921D03*
Y56220D03*
D02*
D134*
X165112Y87815D03*
Y93917D03*
X167081Y87815D03*
Y93917D03*
X169049Y87815D03*
Y93917D03*
D02*
D135*
X83656Y23602D03*
Y59035D03*
X144285D03*
X147041Y23602D03*
D02*
D136*
X89561Y62972D03*
X93892D03*
X98222D03*
X102553D03*
X106884D03*
X111215D03*
X115545D03*
X119876D03*
X124207D03*
D02*
D137*
X34797Y62355D03*
Y75755D03*
X61490Y109599D03*
Y122999D03*
X70073Y77631D03*
Y91031D03*
X78498Y111253D03*
Y124653D03*
X112829Y198103D03*
Y211503D03*
X163695Y188339D03*
Y201739D03*
X202986Y161174D03*
Y174574D03*
X204167Y183615D03*
Y197015D03*
D02*
D138*
X146073Y93969D03*
Y96094D03*
Y98220D03*
X153553Y93969D03*
Y96094D03*
Y98220D03*
X165018Y116110D03*
Y118236D03*
Y120362D03*
X172498Y116110D03*
Y118236D03*
Y120362D03*
D02*
D139*
X161519Y124759D03*
X163578Y97760D03*
X165072Y124759D03*
X167130Y97760D03*
X169956Y124847D03*
X173508D03*
D02*
D140*
X98144Y276220D03*
Y287244D03*
X119797Y276220D03*
Y287244D03*
X141451Y276220D03*
Y287244D03*
X159049Y109685D03*
Y120709D03*
X166687Y227402D03*
Y238425D03*
D02*
D141*
X78242Y261201D03*
X113636Y259508D03*
X176982Y251555D03*
X189856Y64390D03*
D02*
D142*
X88281Y261201D03*
X103596Y259508D03*
X166943Y251555D03*
X179817Y64390D03*
D02*
D143*
X105683Y120128D03*
X110407D03*
X130309Y118927D03*
X135033D03*
D02*
D144*
X101136Y104872D03*
X114915D03*
X125762Y103671D03*
X139541D03*
D02*
D145*
X108435Y153653D03*
X109537Y251229D03*
X112435Y162353D03*
X113537Y242529D03*
X116435Y153653D03*
X117537Y251229D03*
X199222Y64361D03*
X203222Y73061D03*
X207222Y64361D03*
D02*
D146*
X43616Y85020D03*
Y97028D03*
X45978Y85020D03*
Y97028D03*
X48341Y85020D03*
Y97028D03*
X50703Y85020D03*
Y97028D03*
X53065Y85020D03*
Y97028D03*
D02*
D147*
X48341Y90236D03*
D02*
D148*
X33616Y278268D03*
X36175D03*
X38734D03*
X41293D03*
X43852D03*
D02*
D149*
X34797Y288898D03*
X42671D03*
D02*
D175*
X201589Y244204D03*
Y252804D03*
X204148Y244204D03*
Y252804D03*
X206707Y244204D03*
Y252804D03*
X209266Y244204D03*
Y252804D03*
D02*
D176*
X82100Y271535D03*
X92533D03*
X103754D03*
X114187D03*
X125407Y271457D03*
X135841D03*
X147061Y271535D03*
X157494D03*
D02*
D177*
X85644Y270157D03*
X88990Y270059D03*
X107297Y270157D03*
X110644Y270059D03*
X128951Y270079D03*
X132297Y269980D03*
X150604Y270157D03*
X153951Y270059D03*
D02*
D178*
X63301Y267343D03*
Y271437D03*
X73537Y267343D03*
Y271437D03*
D02*
D179*
X147159Y105197D03*
Y117008D03*
D02*
D180*
X198849Y217520D03*
Y219488D03*
Y221457D03*
Y223425D03*
X209249Y217520D03*
Y219488D03*
Y221457D03*
Y223425D03*
D02*
D181*
X46869Y132234D03*
Y139734D03*
X56269Y132284D03*
Y135984D03*
Y139684D03*
D02*
D182*
X62120Y48740D03*
Y61732D03*
D02*
D183*
X151766Y49626D03*
Y73839D03*
X161766Y49626D03*
Y73839D03*
X173734Y78366D03*
Y102579D03*
X183734Y78366D03*
Y102579D03*
X194207Y81831D03*
Y106043D03*
X204207Y81831D03*
Y106043D03*
D02*
D184*
X91301Y127890D03*
Y135370D03*
X93427Y127890D03*
Y135370D03*
X95553Y127890D03*
Y135370D03*
D02*
D185*
X99994Y129764D03*
Y135472D03*
D02*
D186*
X187100Y118976D03*
Y120945D03*
Y122913D03*
X193203Y118976D03*
Y120945D03*
Y122913D03*
D02*
D187*
X181219Y116801D03*
Y120354D03*
X0Y0D02*
M02*
