G04 EasyPC Gerber Version 21.0.3 Build 4286 *
G04 #@! TF.Part,Single*
G04 #@! TF.FileFunction,Copper,L1,Top *
G04 #@! TF.FilePolarity,Positive *
%FSLAX35Y35*%
%MOIN*%
G04 #@! TA.AperFunction,SMDPad*
%ADD146R,0.01181X0.02559*%
%ADD110R,0.01339X0.03150*%
%ADD100R,0.01400X0.03600*%
%ADD91R,0.01575X0.02953*%
%ADD94R,0.01575X0.05315*%
%ADD102R,0.01772X0.01969*%
%ADD76R,0.01781X0.01969*%
%ADD80R,0.02756X0.04134*%
%ADD72R,0.02756X0.10630*%
%ADD81R,0.03150X0.03937*%
%ADD106R,0.03400X0.01000*%
%ADD112R,0.02559X0.01181*%
%ADD75R,0.03150X0.01339*%
%ADD111R,0.01575X0.01378*%
%ADD113R,0.01969X0.01781*%
%ADD107R,0.05200X0.02200*%
%ADD103R,0.03819X0.02598*%
%ADD109R,0.03200X0.04700*%
%ADD101R,0.03346X0.03543*%
%ADD20R,0.03543X0.03937*%
%ADD79R,0.03543X0.05512*%
%ADD22R,0.03937X0.07874*%
%ADD82R,0.04000X0.04800*%
G04 #@! TA.AperFunction,ComponentPad*
%ADD83R,0.05118X0.11811*%
G04 #@! TA.AperFunction,SMDPad*
%ADD24R,0.05512X0.08661*%
%ADD97R,0.05906X0.07480*%
G04 #@! TA.AperFunction,ComponentPad*
%ADD86R,0.05906X0.09843*%
%ADD73R,0.06000X0.09055*%
G04 #@! TA.AperFunction,SMDPad*
%ADD29R,0.06299X0.08661*%
%ADD26R,0.06300X0.10200*%
G04 #@! TA.AperFunction,ComponentPad*
%ADD85R,0.09843X0.11811*%
G04 #@! TA.AperFunction,SMDPad*
%ADD27R,0.12205X0.21654*%
G04 #@! TA.AperFunction,ComponentPad*
%ADD90R,0.01969X0.01969*%
%ADD96R,0.07480X0.07480*%
G04 #@! TA.AperFunction,SMDPad*
%ADD92R,0.11811X0.03150*%
%ADD28R,0.03937X0.03543*%
%ADD25R,0.05512X0.03543*%
%ADD108R,0.04803X0.03583*%
%ADD77R,0.05512X0.03583*%
%ADD21R,0.07874X0.03937*%
%ADD23R,0.15748X0.15748*%
G04 #@! TD.AperFunction*
%ADD71C,0.00100*%
%ADD18C,0.00394*%
%ADD10C,0.00500*%
%ADD15C,0.00787*%
%ADD13C,0.01000*%
%ADD117C,0.01500*%
%ADD124C,0.01575*%
G04 #@! TA.AperFunction,ComponentPad*
%ADD93C,0.01969*%
%ADD104C,0.02000*%
G04 #@! TA.AperFunction,WasherPad*
%ADD19C,0.02165*%
G04 #@! TD.AperFunction*
%ADD121C,0.02362*%
%ADD17C,0.02500*%
%ADD123C,0.02756*%
G04 #@! TA.AperFunction,ViaPad*
%ADD150C,0.03150*%
G04 #@! TD.AperFunction*
%ADD116C,0.03543*%
G04 #@! TA.AperFunction,ViaPad*
%ADD151C,0.03937*%
%ADD114C,0.04800*%
G04 #@! TD.AperFunction*
%ADD122C,0.05000*%
%ADD118C,0.05118*%
G04 #@! TA.AperFunction,ComponentPad*
%ADD95C,0.05709*%
G04 #@! TD.AperFunction*
%ADD120C,0.05906*%
G04 #@! TA.AperFunction,ComponentPad*
%ADD98C,0.06299*%
%ADD99C,0.07087*%
G04 #@! TD.AperFunction*
%ADD119C,0.07874*%
G04 #@! TA.AperFunction,ViaPad*
%ADD115C,0.11811*%
G04 #@! TA.AperFunction,WasherPad*
%ADD70C,0.12992*%
G04 #@! TA.AperFunction,SMDPad*
%ADD105R,0.08268X0.05118*%
%ADD78R,0.08661X0.05512*%
%ADD74R,0.10200X0.06300*%
G04 #@! TA.AperFunction,ComponentPad*
%ADD87R,0.11811X0.09843*%
%ADD89R,0.15748X0.09843*%
%ADD88R,0.11811X0.11811*%
%ADD84R,0.15748X0.11811*%
X0Y0D02*
D02*
D10*
X32252Y160358D02*
Y154483D01*
X34957Y151778*
G75*
G02X35293Y151312I-1262J-1266*
G01*
Y157389*
X32324Y160358*
X32252*
G36*
Y154483*
X34957Y151778*
G75*
G02X35293Y151312I-1262J-1266*
G01*
Y157389*
X32324Y160358*
X32252*
G37*
Y181652D02*
Y181598D01*
G75*
G02X32342Y181652I1125J-1798*
G01*
X32252*
G36*
Y181598*
G75*
G02X32342Y181652I1125J-1798*
G01*
X32252*
G37*
Y205201D02*
Y203683D01*
X35517*
G75*
G02X35241Y205235I1801J1120*
G01*
G75*
G02X33567Y205201I-877J1930*
G01*
X32252*
G36*
Y203683*
X35517*
G75*
G02X35241Y205235I1801J1120*
G01*
G75*
G02X33567Y205201I-877J1930*
G01*
X32252*
G37*
Y210006D02*
Y209091D01*
X33476*
G75*
G02X35596Y208891I888J-1925*
G01*
G75*
G02X35423Y209764I2114J873*
G01*
Y210607*
X34350Y211681*
G75*
G02X32252Y210006I-2073J445*
G01*
G36*
Y209091*
X33476*
G75*
G02X35596Y208891I888J-1925*
G01*
G75*
G02X35423Y209764I2114J873*
G01*
Y210607*
X34350Y211681*
G75*
G02X32252Y210006I-2073J445*
G01*
G37*
X37316Y206923D02*
X36361Y207879D01*
G75*
G02X36440Y206733I-1997J-714*
G01*
G75*
G02X37316Y206923I878J-1930*
G01*
G36*
X36361Y207879*
G75*
G02X36440Y206733I-1997J-714*
G01*
G75*
G02X37316Y206923I878J-1930*
G01*
G37*
X48868Y130098D02*
Y129620D01*
X49732*
Y126517*
X52707Y129491*
G75*
G02X54057Y130146I1617J-1617*
G01*
X52632*
Y130747*
X51726*
G75*
G02X50637Y131198J1538*
G01*
X50506Y131330*
Y130098*
X48868*
G36*
Y129620*
X49732*
Y126517*
X52707Y129491*
G75*
G02X54057Y130146I1617J-1617*
G01*
X52632*
Y130747*
X51726*
G75*
G02X50637Y131198J1538*
G01*
X50506Y131330*
Y130098*
X48868*
G37*
X56752Y30205D02*
Y44989D01*
G75*
G02X56057Y44841I-694J1546*
G01*
X47711*
G75*
G02X46543Y45307J1695*
G01*
Y30205*
X56752*
G36*
Y44989*
G75*
G02X56057Y44841I-694J1546*
G01*
X47711*
G75*
G02X46543Y45307J1695*
G01*
Y30205*
X56752*
G37*
X66760Y64882D02*
G75*
G02X66108Y63352I-2120J0D01*
G01*
G75*
G02X67885Y62821I343J-2092*
G01*
X68276Y63212*
G75*
G02X69364Y63663I1089J-1086*
G01*
X72736*
Y64799*
X67907*
G75*
G02X66747Y65115J2288*
G01*
G75*
G02X66760Y64882I-2109J-234*
G01*
G36*
G75*
G02X66108Y63352I-2120J0*
G01*
G75*
G02X67885Y62821I343J-2092*
G01*
X68276Y63212*
G75*
G02X69364Y63663I1089J-1086*
G01*
X72736*
Y64799*
X67907*
G75*
G02X66747Y65115J2288*
G01*
G75*
G02X66760Y64882I-2109J-234*
G01*
G37*
X82884Y76089D02*
Y75407D01*
X87646*
Y74386*
X88091*
Y75407*
X94102*
Y72709*
G75*
G02X94301Y71890I-1589J-819*
G01*
G75*
G02Y71889I-635J0*
G01*
G75*
G02Y71887I-641J-1*
G01*
Y70662*
X94547Y70416*
Y75407*
X95858*
Y75669*
G75*
G02X97553Y77364I1695*
G01*
X99244*
Y81188*
X98594Y81838*
G75*
G02X97431Y82400I298J2099*
G01*
G75*
G02X96386Y82851I43J1537*
G01*
X94656Y84581*
G75*
G02X94312Y85104I1086J1089*
G01*
X93257*
X89114Y80961*
G75*
G02X88026Y80510I-1089J1086*
G01*
X87646*
Y76089*
X82884*
G36*
Y75407*
X87646*
Y74386*
X88091*
Y75407*
X94102*
Y72709*
G75*
G02X94301Y71890I-1589J-819*
G01*
G75*
G02Y71889I-635J0*
G01*
G75*
G02Y71887I-641J-1*
G01*
Y70662*
X94547Y70416*
Y75407*
X95858*
Y75669*
G75*
G02X97553Y77364I1695*
G01*
X99244*
Y81188*
X98594Y81838*
G75*
G02X97431Y82400I298J2099*
G01*
G75*
G02X96386Y82851I43J1537*
G01*
X94656Y84581*
G75*
G02X94312Y85104I1086J1089*
G01*
X93257*
X89114Y80961*
G75*
G02X88026Y80510I-1089J1086*
G01*
X87646*
Y76089*
X82884*
G37*
X83741Y107067D02*
Y106453D01*
X84270*
Y107067*
X83741*
G36*
Y106453*
X84270*
Y107067*
X83741*
G37*
X87584Y145695D02*
X83209D01*
G75*
G02X83217Y145512I-2113J-183*
G01*
G75*
G02X78976I-2120*
G01*
G75*
G02X78984Y145695I2120J0*
G01*
X66564*
G75*
G02X65323Y141896I-1294J-1679*
G01*
Y137298*
G75*
G02X65965Y136913I-446J-1471*
G01*
X66004Y136873*
Y141982*
X71622*
Y137275*
G75*
G02X72067Y137465I1050J-1842*
G01*
Y141904*
X77685*
Y135892*
X76358*
G75*
G02X75962Y135211I-1483J407*
G01*
X75165Y134415*
Y129435*
X69547*
Y131209*
G75*
G02X69378Y131355I919J1233*
G01*
X68042Y132691*
G75*
G02X67774Y133052I1086J1089*
G01*
G75*
G02X64104Y134289I-1559J1437*
G01*
X62519*
G75*
G02X61802Y134132I-713J1537*
G01*
X61333*
G75*
G02X60619Y134289J1695*
G01*
X59907*
Y130146*
X54593*
G75*
G02X55942Y126257I-268J-2272*
G01*
X53620Y123934*
Y122547*
G75*
G02X53768Y121535I-3391J-1011*
G01*
Y119209*
X54896*
Y117300*
G75*
G02X57236Y113787I1004J-1867*
G01*
X63761*
G75*
G02X62756Y115591I1115J1803*
G01*
G75*
G02X66996I2120*
G01*
G75*
G02X65991Y113787I-2120*
G01*
X67628*
Y105413*
X67055*
Y105179*
X68165Y104069*
X76746*
Y106453*
X78123*
Y107067*
X72360*
Y115441*
X84270*
Y134488*
G75*
G02X84839Y135863I1945*
G01*
X85136Y136160*
Y142441*
G75*
G02X85706Y143816I1945*
G01*
X87584Y145695*
X78898Y119606D02*
G75*
G02X83138I2120D01*
G01*
G75*
G02X78898I-2120*
G01*
X68504Y123150D02*
G75*
G02X72744I2120D01*
G01*
G75*
G02X70542Y121031I-2120*
G01*
G75*
G02X70697Y120236I-1965J-795*
G01*
G75*
G02X66457I-2120*
G01*
G75*
G02X68659Y122355I2120*
G01*
G75*
G02X68504Y123150I1965J795*
G01*
X84270Y119606D02*
G36*
X83138D01*
G75*
G02X78898I-2120*
G01*
X70601*
G75*
G02X66552I-2024J630*
G01*
X53870*
Y119209*
X54896*
Y117300*
G75*
G02X58020Y115433I1004J-1867*
G01*
G75*
G02X57236Y113787I-2120*
G01*
X63761*
G75*
G02X62756Y115590I1113J1802*
G01*
G75*
G02Y115591I2654J0*
G01*
G75*
G02X66996I2120*
G01*
G75*
G02Y115590I-2654J0*
G01*
G75*
G02X65991Y113787I-2119*
G01*
X67628*
Y105413*
X67055*
Y105179*
X67915Y104319*
X76746*
Y106453*
X78123*
Y107067*
X72360*
Y115441*
X84270*
Y119606*
G37*
X87334Y145445D02*
G36*
X83215D01*
G75*
G02X78978I-2119J67*
G01*
X66836*
G75*
G02X67390Y144016I-1566J-1429*
G01*
G75*
G02X65323Y141896I-2120*
G01*
Y137298*
G75*
G02X65965Y136913I-446J-1471*
G01*
X66004Y136873*
Y141982*
X71622*
Y137275*
G75*
G02X72067Y137465I1045J-1830*
G01*
Y141904*
X77685*
Y135892*
X76358*
G75*
G02X75962Y135211I-1483J407*
G01*
X75165Y134415*
Y129435*
X69547*
Y131209*
G75*
G02X69378Y131355I893J1204*
G01*
X68042Y132691*
G75*
G02X67774Y133052I1079J1083*
G01*
G75*
G02X64104Y134289I-1559J1436*
G01*
X62519*
G75*
G02X61802Y134132I-712J1531*
G01*
X61333*
G75*
G02X60619Y134289I-1J1691*
G01*
X59907*
Y130146*
X54593*
G75*
G02X56612Y127874I-268J-2272*
G01*
G75*
G02X55942Y126257I-2287*
G01*
X53870Y124184*
Y119606*
X66552*
G75*
G02X66457Y120236I2024J630*
G01*
Y120237*
G75*
G02X68659Y122355I2120*
G01*
G75*
G02X68504Y123149I1963J794*
G01*
Y123150*
G75*
G02X72744I2120*
G01*
Y123149*
G75*
G02X70542Y121031I-2120*
G01*
G75*
G02X70697Y120237I-1963J-794*
G01*
Y120236*
G75*
G02X70601Y119606I-2120J0*
G01*
X78898*
G75*
G02X83138I2120*
G01*
X84270*
Y134488*
G75*
G02X84839Y135863I1945J0*
G01*
X85136Y136160*
Y142441*
G75*
G02X85706Y143816I1945J0*
G01*
X87334Y145445*
G37*
X87590Y84452D02*
X86723Y83585D01*
X87389*
X89071Y85267*
G75*
G02X88159Y85947I766J1977*
G01*
Y85827*
G75*
G02X87590Y84452I-1945*
G01*
G36*
X86723Y83585*
X87389*
X89071Y85267*
G75*
G02X88159Y85947I766J1977*
G01*
Y85827*
G75*
G02X87590Y84452I-1945*
G01*
G37*
X87646Y69789D02*
X87627D01*
G75*
G02X87801Y69325I-1885J-969*
G01*
X90829*
G75*
G02X90731Y69789I1685J597*
G01*
X88091*
Y70811*
X87646*
Y69789*
G36*
X87627*
G75*
G02X87801Y69325I-1885J-969*
G01*
X90829*
G75*
G02X90731Y69789I1685J597*
G01*
X88091*
Y70811*
X87646*
Y69789*
G37*
X88159Y133683D02*
Y92254D01*
G75*
G02X88540Y92793I1756J-837*
G01*
X90666Y94919*
G75*
G02X92044Y95488I1375J-1375*
G01*
X114337*
G75*
G02X113691Y95902I619J1677*
G01*
X110384Y99209*
G75*
G02X109860Y100472I1264J1264*
G01*
G75*
G02Y100473I635J0*
G01*
G75*
G02Y100476I641J1*
G01*
Y107559*
G75*
G02X110386Y108825I1787*
G01*
X111514Y109953*
Y110183*
X108656*
G75*
G02X107730Y110600J1234*
G01*
G75*
G02X106372Y110154I-1358J1841*
G01*
X91648*
G75*
G02X89360Y112441J2287*
G01*
Y122283*
G75*
G02X91648Y124571I2287*
G01*
X92208*
G75*
G02X91799Y125278I1219J1178*
G01*
X91720*
Y129831*
G75*
G02X89594Y133489I-939J1901*
G01*
Y137982*
X89606*
Y138740*
G75*
G02X90085Y139921I1695J0*
G01*
X91692Y141574*
G75*
G02X92907Y142089I1216J-1181*
G01*
X95320*
G75*
G02X95118Y142992I1918J904*
G01*
G75*
G02X99358I2120*
G01*
G75*
G02X99156Y142089I-2120J0*
G01*
X100377*
G75*
G02X104440Y143289I2058J510*
G01*
G75*
G02X105270Y143506I830J-1477*
G01*
X106240*
Y147125*
G75*
G02X105056Y147769I368J2088*
G01*
G75*
G02X104496Y148127I529J1444*
G01*
X103554Y149069*
G75*
G02X103102Y150157I1086J1089*
G01*
Y154140*
X94350*
Y155608*
X94312*
G75*
G02X92096Y155437I-1247J1715*
G01*
Y145512*
G75*
G02X91527Y144137I-1945*
G01*
X89026Y141635*
Y135354*
G75*
G02X88456Y133979I-1945*
G01*
X88159Y133683*
X98524Y107878D02*
X103748D01*
Y101866*
X98524*
Y107878*
X109860Y104872D02*
G36*
X103748D01*
Y101866*
X98524*
Y104872*
X88409*
Y92648*
G75*
G02X88540Y92793I1504J-1229*
G01*
X90666Y94919*
G75*
G02X92044Y95488I1375J-1375*
G01*
X114087*
Y95603*
G75*
G02X113691Y95902I869J1562*
G01*
X110384Y99209*
G75*
G02X109860Y100472I1265J1265*
G01*
Y100473*
Y100476*
Y104872*
G37*
X94350Y155358D02*
G36*
X93862D01*
G75*
G02X92268I-797J1964*
G01*
X92096*
Y145512*
G75*
G02X91527Y144137I-1945J0*
G01*
X89026Y141635*
Y135354*
G75*
G02X88456Y133979I-1945J0*
G01*
X88409Y133933*
Y104872*
X98524*
Y107878*
X103748*
Y104872*
X109860*
Y107559*
G75*
G02X110386Y108825I1788*
G01*
X111514Y109953*
Y110183*
X108656*
G75*
G02X107730Y110600I0J1233*
G01*
G75*
G02X106372Y110154I-1358J1841*
G01*
X91648*
G75*
G02X89360Y112441J2287*
G01*
Y122283*
G75*
G02X91648Y124571I2287*
G01*
X92208*
G75*
G02X91799Y125278I1221J1179*
G01*
X91720*
Y129831*
G75*
G02X88661Y131732I-939J1901*
G01*
G75*
G02X89594Y133489I2120*
G01*
Y137982*
X89606*
Y138740*
G75*
G02X90085Y139921I1696*
G01*
X91692Y141574*
G75*
G02X92907Y142089I1216J-1181*
G01*
X95320*
G75*
G02X95118Y142992I1915J903*
G01*
Y142992*
G75*
G02X99358I2120*
G01*
Y142992*
G75*
G02X99156Y142089I-2117*
G01*
X100377*
G75*
G02X100315Y142598I2057J510*
G01*
G75*
G02X104440Y143289I2120*
G01*
G75*
G02X105270Y143506I829J-1471*
G01*
X106240*
Y147125*
G75*
G02X105056Y147769I369J2089*
G01*
G75*
G02X104496Y148127I526J1440*
G01*
X103554Y149069*
G75*
G02X103102Y150157I1085J1088*
G01*
Y150157*
Y154140*
X94350*
Y155358*
G37*
X92096Y159335D02*
Y159209D01*
G75*
G02X92396Y159335I969J-1886*
G01*
X92096*
G36*
Y159209*
G75*
G02X92396Y159335I969J-1886*
G01*
X92096*
G37*
X92996Y138052D02*
Y137982D01*
X95134*
Y133798*
G75*
G02X97331Y133585I923J-1909*
G01*
X99597*
G75*
G02X100799Y133088I3J-1695*
G01*
X101114Y132773*
G75*
G02X101610Y131575I-1198J-1198*
G01*
G75*
G02Y131574I-635J0*
G01*
G75*
G02Y131572I-635J-1*
G01*
Y131490*
X101819*
Y131301*
X102421*
Y132573*
X107421*
Y136299*
G75*
G02X108656Y137533I1234*
G01*
X117611*
G75*
G02X117313Y138661I1990J1128*
G01*
Y142112*
X112539*
Y147172*
G75*
G02X111858Y147095I-576J2040*
G01*
Y142112*
X110622*
G75*
G02X110324Y141713I-1493J802*
G01*
X109226Y140615*
G75*
G02X108026Y140116I-1200J1196*
G01*
X105972*
X105053Y139197*
G75*
G02X103852Y138699I-1200J1196*
G01*
X93624*
X92996Y138052*
G36*
Y137982*
X95134*
Y133798*
G75*
G02X97331Y133585I923J-1909*
G01*
X99597*
G75*
G02X100799Y133088I3J-1695*
G01*
X101114Y132773*
G75*
G02X101610Y131575I-1198J-1198*
G01*
G75*
G02Y131574I-635J0*
G01*
G75*
G02Y131572I-635J-1*
G01*
Y131490*
X101819*
Y131301*
X102421*
Y132573*
X107421*
Y136299*
G75*
G02X108656Y137533I1234*
G01*
X117611*
G75*
G02X117313Y138661I1990J1128*
G01*
Y142112*
X112539*
Y147172*
G75*
G02X111858Y147095I-576J2040*
G01*
Y142112*
X110622*
G75*
G02X110324Y141713I-1493J802*
G01*
X109226Y140615*
G75*
G02X108026Y140116I-1200J1196*
G01*
X105972*
X105053Y139197*
G75*
G02X103852Y138699I-1200J1196*
G01*
X93624*
X92996Y138052*
G37*
X93219Y130513D02*
G75*
G02X93207Y130502I-1195J1225D01*
G01*
X94454*
G75*
G02X94024Y131291I1603J1387*
G01*
X93219Y130513*
G36*
G75*
G02X93207Y130502I-1195J1225*
G01*
X94454*
G75*
G02X94024Y131291I1603J1387*
G01*
X93219Y130513*
G37*
X94350Y159335D02*
X93734D01*
G75*
G02X94350Y159009I-669J-2012*
G01*
Y159335*
G36*
X93734*
G75*
G02X94350Y159009I-669J-2012*
G01*
Y159335*
G37*
X95766Y69789D02*
X95173D01*
G75*
G02X95499Y69325I-1281J-1246*
G01*
X95766*
Y69789*
G36*
X95173*
G75*
G02X95499Y69325I-1281J-1246*
G01*
X95766*
Y69789*
G37*
X98551Y89880D02*
Y86030D01*
G75*
G02X99232I341J-2093*
G01*
Y89880*
X98551*
G36*
Y86030*
G75*
G02X99232I341J-2093*
G01*
Y89880*
X98551*
G37*
X99247Y128037D02*
X97944Y126734D01*
X100661*
G75*
G02X102421Y127789I1833J-1065*
G01*
Y128226*
X101819*
Y128037*
X99247*
G36*
X97944Y126734*
X100661*
G75*
G02X102421Y127789I1833J-1065*
G01*
Y128226*
X101819*
Y128037*
X99247*
G37*
X104299Y172261D02*
Y168393D01*
G75*
G02X104488Y168231I-900J-1248*
G01*
X105020Y167700*
Y171770*
G75*
G02X104419Y172141I487J1458*
G01*
X104299Y172261*
G36*
Y168393*
G75*
G02X104488Y168231I-900J-1248*
G01*
X105020Y167700*
Y171770*
G75*
G02X104419Y172141I487J1458*
G01*
X104299Y172261*
G37*
Y180608D02*
Y177283D01*
G75*
G02X104705Y176991I-683J-1378*
G01*
X105020Y176676*
Y179187*
X105917*
G75*
G02X105859Y179553I1479J420*
G01*
X104390*
Y180609*
G75*
G02X104344Y180608I-49J1537*
G01*
X104299*
G36*
Y177283*
G75*
G02X104705Y176991I-683J-1378*
G01*
X105020Y176676*
Y179187*
X105917*
G75*
G02X105859Y179553I1479J420*
G01*
X104390*
Y180609*
G75*
G02X104344Y180608I-49J1537*
G01*
X104299*
G37*
Y193197D02*
Y183877D01*
G75*
G02X104390Y183890I263J-1515*
G01*
Y185171*
X110402*
Y179553*
X109451*
G75*
G02X109548Y179187I-1425J-576*
G01*
X111031*
Y175574*
X111606Y176149*
Y186142*
G75*
G02X112058Y187230I1538*
G01*
X114078Y189250*
X113151*
X111476Y187576*
G75*
G02X110402Y187124I-1089J1086*
G01*
Y185852*
X104390*
Y191470*
X110402*
Y190850*
X111425Y191873*
G75*
G02X111482Y191927I1088J-1087*
G01*
X107084*
G75*
G02X105882Y192424I-3J1695*
G01*
X105119Y193187*
X104485*
G75*
G02X104299Y193197I-4J1695*
G01*
G36*
Y183877*
G75*
G02X104390Y183890I263J-1515*
G01*
Y185171*
X110402*
Y179553*
X109451*
G75*
G02X109548Y179187I-1425J-576*
G01*
X111031*
Y175574*
X111606Y176149*
Y186142*
G75*
G02X112058Y187230I1538*
G01*
X114078Y189250*
X113151*
X111476Y187576*
G75*
G02X110402Y187124I-1089J1086*
G01*
Y185852*
X104390*
Y191470*
X110402*
Y190850*
X111425Y191873*
G75*
G02X111482Y191927I1088J-1087*
G01*
X107084*
G75*
G02X105882Y192424I-3J1695*
G01*
X105119Y193187*
X104485*
G75*
G02X104299Y193197I-4J1695*
G01*
G37*
Y201297D02*
Y197341D01*
G75*
G02X104322Y197329I-770J-1517*
G01*
G75*
G02X104321Y197402I2286J74*
G01*
G75*
G02X104991Y199019I2287J0*
G01*
X105692Y199720*
G75*
G02X106691Y200305I1618J-1617*
G01*
Y201297*
X104299*
G36*
Y197341*
G75*
G02X104322Y197329I-770J-1517*
G01*
G75*
G02X104321Y197402I2286J74*
G01*
G75*
G02X104991Y199019I2287J0*
G01*
X105692Y199720*
G75*
G02X106691Y200305I1618J-1617*
G01*
Y201297*
X104299*
G37*
Y204827D02*
Y204372D01*
X109844*
G75*
G02X108874Y204827I386J2085*
G01*
X104299*
G36*
Y204372*
X109844*
G75*
G02X108874Y204827I386J2085*
G01*
X104299*
G37*
X105581Y167270D02*
X105450D01*
X105561Y167159*
G75*
G02X105581Y167270I1518J-229*
G01*
G36*
X105450*
X105561Y167159*
G75*
G02X105581Y167270I1518J-229*
G01*
G37*
X106177Y162885D02*
Y157091D01*
X111472*
Y151275*
G75*
G02X113297Y150860I490J-2063*
G01*
Y156142*
G75*
G02X113398Y156812I2287*
G01*
Y157091*
X113503*
G75*
G02X114290Y158028I2081J-949*
G01*
X110309*
G75*
G02X108022Y160315J2287*
G01*
Y162903*
G75*
G02X106177Y162885I-941J1900*
G01*
G36*
Y157091*
X111472*
Y151275*
G75*
G02X113297Y150860I490J-2063*
G01*
Y156142*
G75*
G02X113398Y156812I2287*
G01*
Y157091*
X113503*
G75*
G02X114290Y158028I2081J-949*
G01*
X110309*
G75*
G02X108022Y160315J2287*
G01*
Y162903*
G75*
G02X106177Y162885I-941J1900*
G01*
G37*
X107421Y126955D02*
X104181D01*
G75*
G02X104308Y124571I-1687J-1285*
G01*
X106372*
G75*
G02X107421Y124316I0J-2287*
G01*
Y126955*
G36*
X104181*
G75*
G02X104308Y124571I-1687J-1285*
G01*
X106372*
G75*
G02X107421Y124316I0J-2287*
G01*
Y126955*
G37*
X111467Y76139D02*
Y75919D01*
X111574*
G75*
G02X112851Y77124I1963J-802*
G01*
X111533*
G75*
G02X111467Y76139I-2091J-352*
G01*
G36*
Y75919*
X111574*
G75*
G02X112851Y77124I1963J-802*
G01*
X111533*
G75*
G02X111467Y76139I-2091J-352*
G01*
G37*
X111952Y91598D02*
X110176D01*
X111064Y90711*
X111952Y91598*
G36*
X110176*
X111064Y90711*
X111952Y91598*
G37*
X112488Y69907D02*
X112419D01*
G75*
G02X112670Y69325I-1638J-1049*
G01*
X113758*
Y70433*
G75*
G02X114232Y71646I1787*
G01*
Y73115*
G75*
G02X112488Y73276I-694J2003*
G01*
Y69907*
G36*
X112419*
G75*
G02X112670Y69325I-1638J-1049*
G01*
X113758*
Y70433*
G75*
G02X114232Y71646I1787*
G01*
Y73115*
G75*
G02X112488Y73276I-694J2003*
G01*
Y69907*
G37*
X112791Y81482D02*
Y80199D01*
X113852*
G75*
G02X114232Y80151J-1537*
G01*
Y81234*
X117493*
G75*
G02X117248Y81431I770J1207*
G01*
X117196Y81482*
X112791*
G36*
Y80199*
X113852*
G75*
G02X114232Y80151J-1537*
G01*
Y81234*
X117493*
G75*
G02X117248Y81431I770J1207*
G01*
X117196Y81482*
X112791*
G37*
X113435Y101866D02*
Y101213D01*
X115695Y98953*
X117303*
Y99974*
X123315*
Y95488*
X125252*
X128128Y98365*
Y100665*
X123315*
Y100656*
X117303*
Y101866*
X113435*
G36*
Y101213*
X115695Y98953*
X117303*
Y99974*
X123315*
Y95488*
X125252*
X128128Y98365*
Y100665*
X123315*
Y100656*
X117303*
Y101866*
X113435*
G37*
X114563Y107946D02*
X114494Y107878D01*
X116681*
G75*
G02X118119Y108999I1896J-949*
G01*
X118522Y109402*
Y109789*
X117303*
Y110185*
G75*
G02X117238Y110183I-62J1233*
G01*
X115089*
Y109213*
G75*
G02X114563Y107946I-1787*
G01*
G36*
X114494Y107878*
X116681*
G75*
G02X118119Y108999I1896J-949*
G01*
X118522Y109402*
Y109789*
X117303*
Y110185*
G75*
G02X117238Y110183I-62J1233*
G01*
X115089*
Y109213*
G75*
G02X114563Y107946I-1787*
G01*
G37*
X114869Y89722D02*
X114537Y89391D01*
G75*
G02X115737Y87494I-921J-1910*
G01*
X117213*
Y85910*
G75*
G02X117657Y86389I1758J-1186*
G01*
Y89722*
X114869*
G36*
X114537Y89391*
G75*
G02X115737Y87494I-921J-1910*
G01*
X117213*
Y85910*
G75*
G02X117657Y86389I1758J-1186*
G01*
Y89722*
X114869*
G37*
X118472Y116089D02*
Y115407D01*
X122598*
G75*
G02Y115433I2122J13*
G01*
G75*
G02X122702Y116089I2120*
G01*
X118472*
G36*
Y115407*
X122598*
G75*
G02Y115433I2122J13*
G01*
G75*
G02X122702Y116089I2120*
G01*
X118472*
G37*
X119980Y75616D02*
X115598D01*
G75*
G02X115650Y74935I-2061J-498*
G01*
X119980*
Y75616*
G36*
X115598*
G75*
G02X115650Y74935I-2061J-498*
G01*
X119980*
Y75616*
G37*
X121571Y107395D02*
X121105Y106929D01*
X121571Y106463*
G75*
G02X121736Y106274I-1262J-1266*
G01*
X123150*
Y106677*
X127008*
G75*
G02Y106693I2123J8*
G01*
G75*
G02X127009Y106779I2116J4*
G01*
G75*
G02X125821Y107087I-86J2118*
G01*
G75*
G02X122795Y109789I-1102J1811*
G01*
X122096*
Y108661*
G75*
G02X121571Y107395I-1787*
G01*
G36*
X121105Y106929*
X121571Y106463*
G75*
G02X121736Y106274I-1262J-1266*
G01*
X123150*
Y106677*
X127008*
G75*
G02Y106693I2123J8*
G01*
G75*
G02X127009Y106779I2116J4*
G01*
G75*
G02X125821Y107087I-86J2118*
G01*
G75*
G02X122795Y109789I-1102J1811*
G01*
X122096*
Y108661*
G75*
G02X121571Y107395I-1787*
G01*
G37*
X123276Y89722D02*
Y85732D01*
G75*
G02X123957Y85383I-289J-1402*
G01*
Y89722*
X123276*
G36*
Y85732*
G75*
G02X123957Y85383I-289J-1402*
G01*
Y89722*
X123276*
G37*
X123315Y117110D02*
Y117022D01*
G75*
G02X123422Y117110I1404J-1589*
G01*
X123315*
G36*
Y117022*
G75*
G02X123422Y117110I1404J-1589*
G01*
X123315*
G37*
Y120813D02*
Y120685D01*
X125700*
G75*
G02X126967Y120161I3J-1787*
G01*
X127460Y119669*
G75*
G02X127894Y119522I-459J-2069*
G01*
Y120813*
X126293*
G75*
G02X125467Y121131J1234*
G01*
G75*
G02X124640Y120813I-827J917*
G01*
X123315*
G36*
Y120685*
X125700*
G75*
G02X126967Y120161I3J-1787*
G01*
X127460Y119669*
G75*
G02X127894Y119522I-459J-2069*
G01*
Y120813*
X126293*
G75*
G02X125467Y121131J1234*
G01*
G75*
G02X124640Y120813I-827J917*
G01*
X123315*
G37*
X126839Y115433D02*
G75*
G02X126814Y115109I-2120J0D01*
G01*
G75*
G02X127894Y114877I109J-2117*
G01*
Y115675*
G75*
G02X126838Y115485I-892J1924*
G01*
G75*
G02X126839Y115433I-2118J-58*
G01*
G36*
G75*
G02X126814Y115109I-2120J0*
G01*
G75*
G02X127894Y114877I109J-2117*
G01*
Y115675*
G75*
G02X126838Y115485I-892J1924*
G01*
G75*
G02X126839Y115433I-2118J-58*
G01*
G37*
X127238Y265057D02*
Y257323D01*
X121648*
Y239370*
X108026*
G75*
G02X108335Y238268I-1811J-1102*
G01*
G75*
G02X104094I-2120*
G01*
G75*
G02X104404Y239370I2120*
G01*
X103656*
Y229114*
X43813Y229213*
X22750*
Y252235*
G75*
G02X20856Y254488I394J2253*
G01*
Y260118*
X1726*
Y105039*
X11569*
Y105030*
X12593*
G75*
G02X13843Y103780J-1250*
G01*
Y51205*
G75*
G02X12593Y49955I-1250*
G01*
X11569*
Y47913*
X1537*
Y30205*
X5335*
Y45669*
G75*
G02X6766Y47100I1431*
G01*
X21884*
G75*
G02X23315Y45669J-1431*
G01*
Y30205*
X32500*
Y45748*
G75*
G02X32585Y46233I1431*
G01*
Y58169*
X28659*
Y66543*
X40935*
Y58185*
X40959*
Y50189*
X41180Y49963*
X45978*
G75*
G02X47179Y49464J-1694*
G01*
X48413Y48230*
X55355*
X57061Y49937*
G75*
G02X58262Y50435I1200J-1196*
G01*
X58681*
Y51569*
X65559*
Y47179*
X73222*
G75*
G02X74654Y45748J-1431*
G01*
Y37022*
X97821*
X101066Y40267*
G75*
G02X102357Y40801I1291J-1290*
G01*
X117427*
X130515Y53889*
G75*
G02X131806Y54423I1291J-1290*
G01*
X147427*
X148783Y55778*
G75*
G02X150073Y56313I1291J-1290*
G01*
X161128*
X167473Y62658*
G75*
G02X166129Y63633I474J2067*
G01*
G75*
G02X165989Y63628I-154J2116*
G01*
G75*
G02X161969Y64567I-1901J939*
G01*
G75*
G02X162302Y65709I2120J0*
G01*
G75*
G02X163559Y68904I1786J1142*
G01*
G75*
G02X162006Y70315I1080J2750*
G01*
X161868Y70453*
X159128*
Y72873*
G75*
G02Y74804I2637J966*
G01*
Y74894*
X156504Y72270*
G75*
G02X154932Y71620I-1569J1569*
G01*
X154404*
Y70453*
X149128*
Y77224*
X154404*
Y76444*
X155998Y78039*
G75*
G02X155345Y78463I807J1961*
G01*
X152256*
G75*
G02X151168Y78914J1538*
G01*
X149144Y80937*
G75*
G02X148693Y82026I1086J1089*
G01*
Y84341*
X148197Y84856*
Y79711*
X147465*
G75*
G02X147306Y79030I-2116J133*
G01*
X148197*
Y73411*
X146636*
G75*
G02X146277Y72848I-1445J526*
G01*
X144524Y71096*
Y66696*
G75*
G02X145106Y65236I-1537J-1460*
G01*
G75*
G02X140866I-2120*
G01*
G75*
G02X140867Y65288I2119J-7*
G01*
G75*
G02X138583Y67402I-164J2114*
G01*
G75*
G02X141449Y69386I2120*
G01*
Y71732*
G75*
G02X141900Y72821I1538*
G01*
X142491Y73411*
X142185*
Y79030*
X143391*
G75*
G02X143232Y79711I1958J814*
G01*
X142185*
Y85329*
X142872*
G75*
G02X142097Y88228I1059J1837*
G01*
G75*
G02X142059Y90287I1835J1063*
G01*
G75*
G02X143461Y93501I1793J1131*
G01*
Y94506*
X136136*
G75*
G02X135029Y94955J1589*
G01*
X135015Y94969*
G75*
G02X133584Y98556I98J2118*
G01*
G75*
G02X133086Y98915I662J1444*
G01*
X132720Y99306*
G75*
G02X132018Y99493I188J2112*
G01*
Y97559*
G75*
G02X131448Y96184I-1945*
G01*
X127528Y92264*
X127962Y91830*
G75*
G02X128452Y90801I-1196J-1200*
G01*
X129575*
Y89333*
X131884*
G75*
G02X132972Y88881J-1538*
G01*
X133769Y88085*
X139299*
Y82467*
X133287*
Y84218*
X131247Y86258*
X129575*
Y84789*
X124342*
G75*
G02X124417Y84331I-1356J-459*
G01*
Y75014*
X129299*
Y69396*
X123287*
Y69800*
X122807Y69325*
X126622*
Y64760*
X127974*
X130174Y66960*
G75*
G02X130884Y68291I2104J-267*
G01*
Y69593*
X129862*
Y75604*
X134205*
Y76167*
X133287*
Y81785*
X139299*
Y76167*
X137594*
Y73783*
G75*
G02Y73780I-635J-1*
G01*
G75*
G02X137098Y72581I-1695J-1*
G01*
X135917Y71400*
G75*
G02X135480Y71084I-1199J1198*
G01*
Y69593*
X134459*
Y66929*
G75*
G02X134376Y66393I-1787J0*
G01*
G75*
G02X133362Y64871I-2099J300*
G01*
G75*
G02X135343Y62756I-140J-2115*
G01*
G75*
G02X131102I-2120*
G01*
G75*
G02X131104Y62834I2119J-4*
G01*
X129981Y61711*
G75*
G02X128936Y61199I-1266J1262*
G01*
G75*
G02X128861Y57800I-1304J-1671*
G01*
G75*
G02X129280Y56535I-1702J-1265*
G01*
G75*
G02X125039I-2120*
G01*
G75*
G02X125041Y56620I2120J3*
G01*
X120430*
G75*
G02X120618Y55748I-1932J-872*
G01*
G75*
G02X116378I-2120*
G01*
G75*
G02X116566Y56620I2120J0*
G01*
X107765*
X106287Y55142*
G75*
G02X102047Y55197I-2119J55*
G01*
G75*
G02X104113Y57316I2120*
G01*
X104469Y57672*
Y69325*
X105113*
G75*
G02X104992Y69921I1417J596*
G01*
G75*
G02Y69922I740J0*
G01*
G75*
G02Y69925I868J2*
G01*
Y75008*
G75*
G02X104979Y75029I1311J831*
G01*
G75*
G02X104173Y76693I1314J1664*
G01*
G75*
G02X107833Y78151I2120*
G01*
G75*
G02X107937Y78265I1610J-1377*
G01*
G75*
G02X108356Y79040I1505J-312*
G01*
X109065Y79748*
G75*
G02X109717Y80136I1087J-1087*
G01*
Y87710*
X107546Y89880*
X104850*
Y85104*
X100661*
G75*
G02X100991Y84235I-1769J-1168*
G01*
X102135Y83090*
G75*
G02X102634Y81890I-1196J-1200*
G01*
Y76461*
G75*
G02Y76457I-1031J-2*
G01*
G75*
G02X102199Y75323I-1695J-1*
G01*
X101490Y74535*
G75*
G02X100559Y74007I-1259J1134*
G01*
Y69789*
X99541*
G75*
G02X99848Y69325I-1319J-1207*
G01*
X100638*
Y56620*
X87146*
Y64710*
X85035Y66820*
G75*
G02X83857Y69789I707J1999*
G01*
X81634*
Y70793*
G75*
G02X80981Y71223I723J1806*
G01*
X79564Y72641*
G75*
G02X78994Y74016I1375J1375*
G01*
Y81417*
G75*
G02X79564Y82793I1945*
G01*
X81296Y84525*
G75*
G02X82674Y85094I1375J-1375*
G01*
X82732*
X84270Y86632*
Y94177*
X83984*
Y92913*
G75*
G02X83115Y90816I-2967*
G01*
X81233Y88933*
G75*
G02X79134Y88064I-2098J2098*
G01*
X76211*
Y87506*
G75*
G02X78156Y84409I-1492J-3097*
G01*
G75*
G02X72531Y81758I-3437*
G01*
X64701*
X63413Y80470*
Y73707*
X56795*
X57172Y73330*
G75*
G02X58511Y72002I-1312J-2661*
G01*
X59620*
G75*
G02X60574Y71844J-2966*
G01*
X63413*
Y66612*
G75*
G02X65645Y66749I1226J-1730*
G01*
G75*
G02X65620Y67087I2263J339*
G01*
Y72402*
G75*
G02X67907Y74689I2287*
G01*
X74502*
G75*
G02X76789Y72402J-2287*
G01*
Y67087*
G75*
G02X75278Y64935I-2287*
G01*
X78748*
Y60362*
G75*
G02Y56173I-329J-2094*
G01*
Y53018*
X72736*
Y58636*
X74573*
G75*
G02X74656Y58726I1172J-996*
G01*
X75247Y59317*
X72736*
Y60589*
X70001*
X69587Y60174*
G75*
G02X68498Y59722I-1089J1086*
G01*
X67911*
G75*
G02X65559Y59337I-1460J1537*
G01*
Y58904*
X58681*
Y64561*
X60968*
G75*
G02X61033Y64630I1151J-1020*
G01*
X61742Y65339*
G75*
G02X62722Y65786I1087J-1087*
G01*
G75*
G02X63000Y66226I1917J-903*
G01*
X60574*
G75*
G02X59620Y66069I-954J2809*
G01*
X58906*
G75*
G02Y66063I-3021J-3*
G01*
G75*
G02X52894I-3006*
G01*
G75*
G02Y66083I3000J10*
G01*
G75*
G02Y66102I2984J10*
G01*
Y69663*
X52571Y69986*
X49661*
X50902Y68726*
G75*
G02X52134Y66299I-1774J-2427*
G01*
G75*
G02X46674Y64564I-3006*
G01*
X42053Y69257*
G75*
G02X41527Y69986I2115J2080*
G01*
X41358*
Y70183*
X40785*
G75*
G02X38795Y71006I-3J2809*
G01*
X38234Y71567*
X28659*
Y79941*
X40935*
Y76811*
X41748Y75998*
X46976*
Y73946*
G75*
G02X47134Y72992I-2809J-954*
G01*
Y72554*
X47657Y72022*
Y75998*
X53276*
Y75801*
X53534*
G75*
G02X55524Y74978I3J-2809*
G01*
X55827Y74675*
Y76797*
X52882*
Y76600*
X47264*
Y79415*
X47077Y79602*
G75*
G02X46553Y80866I1264J1264*
G01*
G75*
G02Y80867I635J0*
G01*
G75*
G02Y80869I641J1*
G01*
Y82506*
X46516*
Y87533*
X54890*
Y82506*
X52882*
Y82415*
X55827*
Y84443*
X59441*
X60845Y85848*
G75*
G02X58976Y87953I251J2105*
G01*
G75*
G02X63217I2120*
G01*
G75*
G02X63128Y87346I-2120J0*
G01*
G75*
G02X63541Y87376I409J-2779*
G01*
X63935*
Y95217*
X68959*
G75*
G02X68661Y96299I1823J1083*
G01*
G75*
G02X72902I2120*
G01*
G75*
G02X72604Y95217I-2120*
G01*
X76211*
Y93997*
X77906*
X78051Y94142*
Y94177*
X76746*
Y98184*
G75*
G02X76591Y98329I1834J2130*
G01*
X76469Y98451*
X67005*
G75*
G02X65016Y99274I-3J2809*
G01*
X62260Y102030*
G75*
G02X61437Y104016I1986J1986*
G01*
Y105413*
X55352*
Y113385*
G75*
G02X54896Y113566I548J2048*
G01*
Y108169*
X54930Y108100*
G75*
G02X55244Y106772I-2653J-1328*
G01*
Y103622*
G75*
G02X55087Y102669I-2966*
G01*
Y102142*
X55363Y101866*
G75*
G02X56071Y100157I-1707J-1708*
G01*
Y97126*
G75*
G02X54890Y95050I-2415*
G01*
Y94514*
X41791*
Y99541*
X47978*
G75*
G02X47697Y100394I1150J852*
G01*
G75*
G02Y100397I660J2*
G01*
Y100616*
X43169*
Y101677*
X42724*
Y100537*
X37106*
Y106549*
X42724*
Y105567*
X43169*
Y106628*
X48787*
Y105015*
G75*
G02X49311Y104772I-329J-1393*
G01*
Y106071*
X48880Y106933*
X46522*
Y119209*
X46693*
Y119248*
X30587*
X30156Y118816*
Y113071*
G75*
G02X29485Y111453I-2287J0*
G01*
X28305Y110273*
G75*
G02X26687Y109602I-1619J1617*
G01*
X26492*
Y93352*
X18417*
Y109222*
X13149Y114490*
G75*
G02X12431Y116220I1727J1731*
G01*
Y144735*
X6259Y150907*
G75*
G02X5541Y152638I1727J1731*
G01*
Y215512*
G75*
G02X6267Y217250I2445*
G01*
X10556Y221499*
G75*
G02X12278Y222209I1722J-1735*
G01*
X16358*
Y222573*
X22370*
Y221331*
X23550Y220152*
X32252*
Y219429*
G75*
G02X33737Y218763I-132J-2283*
G01*
X39327Y213173*
G75*
G02X39998Y211555I-1617J-1619*
G01*
Y210711*
X48501Y202209*
X48813*
G75*
G02Y197634J-2287*
G01*
X47553*
G75*
G02X45935Y198305I0J2287*
G01*
X39437Y204802*
G75*
G02X38854Y203343I-2120J1*
G01*
Y203031*
G75*
G02X38403Y201943I-1538*
G01*
X37520Y201060*
G75*
G02X36431Y200608I-1089J1086*
G01*
X34632*
G75*
G02X33435Y196778I-1252J-1711*
G01*
X32717Y196060*
G75*
G02X32252Y195741I-1089J1086*
G01*
Y195209*
G75*
G02X36367Y194488I1994J-721*
G01*
G75*
G02X35560Y192824I-2120*
G01*
G75*
G02X35332Y192533I-1315J799*
G01*
X34154Y191355*
G75*
G02X33065Y190904I-1089J1086*
G01*
X32252*
Y188683*
X45876*
G75*
G02X48729Y186693I732J-1990*
G01*
G75*
G02X44786Y185608I-2120*
G01*
X35898*
G75*
G02X34245Y182622I-1928J-884*
G01*
X33773Y182150*
G75*
G02X33489Y181920I-1200J1195*
G01*
G75*
G02X34917Y178343I-109J-2117*
G01*
Y178228*
G75*
G02X34466Y177140I-1538*
G01*
X33386Y176060*
G75*
G02X32297Y175608I-1089J1086*
G01*
X32252*
Y174142*
G75*
G02X35028Y172126I656J-2016*
G01*
G75*
G02X32252Y170110I-2120*
G01*
Y169521*
G75*
G02Y165282I-53J-2119*
G01*
Y163933*
X33065*
G75*
G02X34331Y163407J-1787*
G01*
X38343Y159396*
G75*
G02X38868Y158130I-1262J-1266*
G01*
Y146705*
X39888Y145646*
X40193*
G75*
G02X43453Y143858I1140J-1787*
G01*
G75*
G02X40193Y142071I-2120*
G01*
X39128*
G75*
G02X38296Y142276J1787*
G01*
G75*
G02X34144Y142220I-2082J401*
G01*
X32433Y143931*
G75*
G02X31907Y145197I1262J1266*
G01*
Y149771*
X27539Y154140*
X22303*
Y209939*
G75*
G02X21610Y210262I605J2206*
G01*
X16437*
Y215880*
X21352*
X20277Y216955*
X16358*
Y217319*
X13284*
X10431Y214493*
Y153650*
X16603Y147479*
G75*
G02X17321Y145748I-1727J-1731*
G01*
Y117233*
X20150Y114404*
X25581*
Y119764*
G75*
G02X26252Y121382I2287J0*
G01*
X28022Y123152*
G75*
G02X29640Y123823I1619J-1617*
G01*
X44114*
Y129620*
X44978*
Y130098*
X43230*
Y134370*
X49717*
Y135354*
G75*
G02X50168Y136443I1538*
G01*
X50207Y136481*
G75*
G02X49703Y137598I1599J1393*
G01*
X43230*
Y141870*
X50506*
Y139549*
G75*
G02X53911Y138122I1299J-1675*
G01*
X59705*
Y141982*
X64670*
G75*
G02X63975Y145695I600J2033*
G01*
X54062*
G75*
G02X51531Y142307I-1391J-1600*
G01*
X47711*
G75*
G02X46444Y142833J1787*
G01*
X44539Y144738*
G75*
G02X44041Y145695I1262J1266*
G01*
X42795*
Y155644*
X84477*
G75*
G02X84715Y155951I1325J-781*
G01*
X85513Y156748*
G75*
G02X88207Y158733I2119J-55*
G01*
Y160315*
G75*
G02X88707Y161617I1945*
G01*
X89569Y162576*
G75*
G02X91018Y163224I1450J-1297*
G01*
X91278*
G75*
G02X94350Y165700I2023J634*
G01*
Y170557*
X60806*
G75*
G02X61169Y169370I-1757J-1187*
G01*
G75*
G02X56929I-2120*
G01*
G75*
G02X57539Y170858I2120*
G01*
Y171257*
G75*
G02Y171259I455J1*
G01*
G75*
G02Y171260I557J0*
G01*
G75*
G02X58005Y172383I1589*
G01*
X58891Y173269*
G75*
G02X60017Y173734I1123J-1123*
G01*
X94350*
Y175201*
X87793*
G75*
G02X86684Y175545I-4J1945*
G01*
X63899*
G75*
G02X60935Y177490I-844J1945*
G01*
G75*
G02X63899Y179435I2120*
G01*
X87461*
G75*
G02X88570Y179091I4J-1945*
G01*
X94350*
Y185608*
X89981*
X88649Y184276*
G75*
G02X84409Y184331I-2119J55*
G01*
G75*
G02X86475Y186450I2120*
G01*
X88256Y188231*
G75*
G02X89344Y188683I1089J-1086*
G01*
X91511*
G75*
G02X91843Y191145I1869J1002*
G01*
Y210709*
G75*
G02X92294Y211797I1538*
G01*
X93728Y213231*
G75*
G02X94350Y213611I1089J-1086*
G01*
Y220152*
X104299*
Y219648*
X123045*
G75*
G02X124134Y219196J-1538*
G01*
X125257Y218073*
X127194*
G75*
G02X127323Y219713I2012J667*
G01*
Y252205*
G75*
G02X128677Y254181I2120*
G01*
X128817Y254313*
Y264650*
X128656*
G75*
G02X127457Y265057J1965*
G01*
X127238*
X128976Y82913D02*
G75*
G02X133217I2120D01*
G01*
G75*
G02X128976I-2120*
G01*
X37559Y83307D02*
G75*
G02X41799I2120D01*
G01*
G75*
G02X37559I-2120*
G01*
X38504Y163228D02*
G75*
G02X42744I2120D01*
G01*
G75*
G02X38504I-2120*
G01*
X18417Y144246D02*
X26492D01*
Y123175*
X18417*
Y144246*
X15841Y205890D02*
G75*
G02X18128Y203602J-2287D01*
G01*
Y192657*
G75*
G02X17421Y191004I-2287J0*
G01*
G75*
G02X18128Y189350I-1580J-1654*
G01*
Y183346*
G75*
G02X17338Y181617I-2287*
G01*
G75*
G02X18069Y179941I-1557J-1676*
G01*
Y173386*
G75*
G02X15781Y171098I-2287*
G01*
X12888*
G75*
G02X10600Y173386J2287*
G01*
Y179941*
G75*
G02X11331Y181617I2288*
G01*
G75*
G02X10541Y183346I1497J1729*
G01*
Y189350*
G75*
G02X11219Y190976I2287*
G01*
G75*
G02X10482Y192657I1551J1682*
G01*
Y203602*
G75*
G02X12770Y205890I2287*
G01*
X15841*
X108268Y225197D02*
G75*
G02X112508I2120D01*
G01*
G75*
G02X108268I-2120*
G01*
X85197Y212480D02*
G75*
G02X89437I2120D01*
G01*
G75*
G02X85197I-2120*
G01*
X148693Y82913D02*
G36*
X148197D01*
Y79711*
X147465*
G75*
G02X147306Y79030I-2109J131*
G01*
X148197*
Y73411*
X146636*
G75*
G02X146277Y72848I-1441J523*
G01*
X144524Y71096*
Y66696*
G75*
G02X145106Y65236I-1539J-1461*
G01*
G75*
G02X140866I-2120*
G01*
G75*
G03X140867Y65288I-113654J1761*
G01*
G75*
G02X138583Y67402I-163J2114*
G01*
Y67402*
G75*
G02X141449Y69386I2120*
G01*
Y71732*
Y71733*
G75*
G02X141900Y72821I1537*
G01*
X142491Y73411*
X142185*
Y79030*
X143391*
G75*
G02X143232Y79711I1951J812*
G01*
X142185*
Y82913*
X139299*
Y82467*
X133287*
Y82913*
X133217*
G75*
G02X128976I-2120*
G01*
X124417*
Y75014*
X129299*
Y69396*
X123287*
Y69800*
X122807Y69325*
X126622*
Y64760*
X127974*
X130174Y66960*
G75*
G02X130884Y68291I2101J-265*
G01*
Y69593*
X129862*
Y75604*
X134205*
Y76167*
X133287*
Y81785*
X139299*
Y76167*
X137594*
Y73783*
Y73780*
Y73780*
G75*
G02X137098Y72581I-1697J1*
G01*
X135917Y71400*
G75*
G02X135480Y71084I-1200J1199*
G01*
Y69593*
X134459*
Y66929*
G75*
G02X134376Y66393I-1803J2*
G01*
G75*
G02X133362Y64871I-2100J301*
G01*
G75*
G02X135343Y62756I-140J-2116*
G01*
G75*
G02X131102I-2120*
G01*
G75*
G02X131104Y62834I1931*
G01*
X129981Y61711*
G75*
G02X128936Y61199I-1266J1261*
G01*
G75*
G02X129752Y59528I-1304J-1671*
G01*
G75*
G02X128861Y57800I-2120*
G01*
G75*
G02X129280Y56535I-1703J-1265*
G01*
G75*
G02X125039I-2120*
G01*
Y56536*
G75*
G02X125041Y56620I2255*
G01*
X120430*
G75*
G02X120618Y55748I-1937J-873*
G01*
G75*
G02X116378I-2120*
G01*
G75*
G02X116566Y56620I2125J-1*
G01*
X107765*
X106287Y55142*
G75*
G02X102047Y55197I-2119J55*
G01*
G75*
G02X104113Y57316I2120*
G01*
X104469Y57672*
Y69325*
X105113*
G75*
G02X104992Y69920I1411J595*
G01*
G75*
G02Y69921I1574J1*
G01*
Y69922*
Y69925*
Y75008*
G75*
G02X104979Y75029I230J157*
G01*
G75*
G02X104173Y76693I1313J1664*
G01*
Y76693*
G75*
G02X107833Y78151I2120*
G01*
G75*
G02X107937Y78265I1789J-1541*
G01*
G75*
G02X108356Y79040I1503J-311*
G01*
X109065Y79748*
G75*
G02X109717Y80136I1084J-1082*
G01*
Y82913*
X102290*
G75*
G02X102634Y81890I-1350J-1023*
G01*
Y81890*
Y76461*
Y76457*
Y76457*
G75*
G02X102199Y75323I-1697J1*
G01*
X101490Y74535*
G75*
G02X100559Y74007I-1261J1136*
G01*
Y69789*
X99541*
G75*
G02X99848Y69325I-1307J-1200*
G01*
X100638*
Y56620*
X87146*
Y64710*
X85035Y66820*
G75*
G02X83622Y68819I707J1999*
G01*
G75*
G02X83857Y69789I2120J0*
G01*
X81634*
Y70793*
G75*
G02X80981Y71223I722J1804*
G01*
X79564Y72641*
G75*
G02X78994Y74016I1376J1376*
G01*
Y81417*
G75*
G02X79564Y82793I1945J0*
G01*
X79685Y82913*
X77813*
G75*
G02X72531Y81758I-3094J1496*
G01*
X64701*
X63413Y80470*
Y73707*
X56795*
X57172Y73330*
G75*
G02X58511Y72002I-1311J-2661*
G01*
X59620*
G75*
G02X60574Y71844I-2J-2977*
G01*
X63413*
Y66612*
G75*
G02X65645Y66749I1226J-1730*
G01*
G75*
G02X65620Y67087I2251J338*
G01*
Y72402*
G75*
G02X67907Y74689I2287*
G01*
X74502*
G75*
G02X76789Y72402J-2287*
G01*
Y67087*
Y67086*
G75*
G02X75278Y64935I-2287*
G01*
X78748*
Y60362*
G75*
G02X80539Y58268I-329J-2094*
G01*
G75*
G02X78748Y56173I-2120*
G01*
Y53018*
X72736*
Y58636*
X74573*
G75*
G02X74656Y58726I1294J-1109*
G01*
X75247Y59317*
X72736*
Y60589*
X70001*
X69587Y60174*
G75*
G02X68498Y59722I-1088J1085*
G01*
X67911*
G75*
G02X65559Y59337I-1459J1537*
G01*
Y58904*
X58681*
Y64561*
X60968*
G75*
G02X61033Y64630I1515J-1363*
G01*
X61742Y65339*
G75*
G02X62722Y65786I1087J-1085*
G01*
G75*
G02X63000Y66226I1926J-908*
G01*
X60574*
G75*
G02X59620Y66069I-956J2820*
G01*
X58906*
Y66063*
G75*
G02X52894I-3006*
G01*
Y66083*
Y66102*
Y69663*
X52571Y69986*
X49661*
X50902Y68726*
G75*
G02X52134Y66299I-1775J-2427*
G01*
G75*
G02X46674Y64564I-3006*
G01*
X42053Y69257*
G75*
G02X41527Y69986I2132J2093*
G01*
X41358*
Y70183*
X40785*
G75*
G02X38795Y71006I-3J2810*
G01*
X38234Y71567*
X28659*
Y79941*
X40935*
Y76811*
X41748Y75998*
X46976*
Y73946*
G75*
G02X47134Y72992I-2820J-956*
G01*
Y72554*
X47657Y72022*
Y75998*
X53276*
Y75801*
X53534*
G75*
G02X55524Y74978I3J-2810*
G01*
X55827Y74675*
Y76797*
X52882*
Y76600*
X47264*
Y79415*
X47077Y79602*
G75*
G02X46553Y80866I1265J1265*
G01*
Y80867*
Y80869*
Y82506*
X46516*
Y82913*
X41762*
G75*
G02X37596I-2083J394*
G01*
X13843*
Y51205*
G75*
G02X12593Y49955I-1250*
G01*
X11569*
Y47913*
X1787*
Y30455*
X5335*
Y45669*
G75*
G02X6766Y47100I1431*
G01*
X21884*
G75*
G02X23315Y45669J-1431*
G01*
Y30455*
X32500*
Y45748*
Y45748*
G75*
G02X32585Y46233I1430*
G01*
Y58169*
X28659*
Y66543*
X40935*
Y58185*
X40959*
Y50189*
X41180Y49963*
X45978*
G75*
G02X47179Y49464I0J-1694*
G01*
X48413Y48230*
X55355*
X57061Y49937*
G75*
G02X58262Y50435I1200J-1195*
G01*
X58681*
Y51569*
X65559*
Y47179*
X73222*
G75*
G02X74654Y45748J-1431*
G01*
Y37022*
X97821*
X101066Y40267*
G75*
G02X102357Y40801I1291J-1291*
G01*
X117427*
X130515Y53889*
G75*
G02X131806Y54423I1291J-1291*
G01*
X147427*
X148783Y55778*
G75*
G02X150073Y56313I1291J-1291*
G01*
X161128*
X167223Y62408*
Y62732*
G75*
G02X166129Y63633I724J1993*
G01*
G75*
G02X165989Y63628I-151J2054*
G01*
G75*
G02X161969Y64567I-1901J939*
G01*
G75*
G02Y64568I2256J1*
G01*
G75*
G02X162302Y65709I2115*
G01*
G75*
G02X161969Y66850I1786J1142*
G01*
G75*
G02X163559Y68904I2120*
G01*
G75*
G02X162006Y70315I1081J2751*
G01*
X161868Y70453*
X159128*
Y72873*
G75*
G02X158957Y73839I2637J966*
G01*
G75*
G02X159128Y74804I2809*
G01*
Y74894*
X156504Y72270*
G75*
G02X154932Y71620I-1568J1568*
G01*
X154404*
Y70453*
X149128*
Y77224*
X154404*
Y76444*
X155998Y78039*
G75*
G02X155345Y78463I811J1968*
G01*
X152256*
G75*
G02X151168Y78914I0J1537*
G01*
X149144Y80937*
G75*
G02X148693Y82026I1085J1088*
G01*
Y82026*
Y82913*
G37*
X55827D02*
G36*
X54890D01*
Y82506*
X52882*
Y82415*
X55827*
Y82913*
G37*
G36*
Y84443*
X59441*
X60845Y85848*
G75*
G02X58976Y87953I251J2105*
G01*
G75*
G02X63217I2120*
G01*
G75*
G02Y87950I-2098J-2*
G01*
G75*
G02X63128Y87346I-2100*
G01*
G75*
G02X63541Y87376I413J-2830*
G01*
X63935*
Y95217*
X68959*
G75*
G02X68661Y96298I1820J1082*
G01*
G75*
G02Y96299I2820J0*
G01*
G75*
G02X72902I2120*
G01*
G75*
G02Y96298I-2820J0*
G01*
G75*
G02X72604Y95217I-2118*
G01*
X76211*
Y93997*
X77906*
X78051Y94142*
Y94177*
X76746*
Y98184*
G75*
G02X76591Y98329I1891J2191*
G01*
X76469Y98451*
X67005*
G75*
G02X65016Y99274I-3J2810*
G01*
X62260Y102030*
G75*
G02X61437Y104016I1986J1986*
G01*
Y105413*
X55352*
Y113385*
G75*
G02X54896Y113566I545J2041*
G01*
Y108169*
X54930Y108100*
G75*
G02X55244Y106772I-2654J-1328*
G01*
Y103622*
G75*
G02X55087Y102669I-2977J2*
G01*
Y102142*
X55363Y101866*
G75*
G02X56071Y100158I-1707J-1708*
G01*
Y100157*
Y97126*
G75*
G02Y97125I-2506J0*
G01*
G75*
G02X54890Y95050I-2414*
G01*
Y94514*
X41791*
Y99541*
X47978*
G75*
G02X47697Y100393I1147J852*
G01*
G75*
G02Y100394I1327J0*
G01*
Y100394*
Y100397*
Y100616*
X43169*
Y101677*
X42724*
Y100537*
X37106*
Y106549*
X42724*
Y105567*
X43169*
Y106628*
X48787*
Y105015*
G75*
G02X49311Y104772I-329J-1393*
G01*
Y106071*
X48880Y106933*
X46522*
Y119209*
X46693*
Y119248*
X30587*
X30156Y118816*
Y113071*
G75*
G02X29485Y111453I-2287*
G01*
X28305Y110273*
G75*
G02X26687Y109602I-1618J1616*
G01*
X26492*
Y93352*
X18417*
Y109222*
X13149Y114490*
G75*
G02X12431Y116220I1726J1730*
G01*
Y116220*
Y133711*
X1787*
Y105039*
X11569*
Y105030*
X12593*
G75*
G02X13843Y103780J-1250*
G01*
Y82913*
X37596*
G75*
G02X37559Y83307I2083J394*
G01*
G75*
G02X41799I2120*
G01*
G75*
G02X41762Y82913I-2120J1*
G01*
X46516*
Y87533*
X54890*
Y82913*
X55827*
G37*
X43230Y133711D02*
G36*
X26492D01*
Y123175*
X18417*
Y133711*
X17321*
Y117233*
X20150Y114404*
X25581*
Y119764*
G75*
G02X26252Y121382I2287*
G01*
X28022Y123152*
G75*
G02X29640Y123823I1618J-1616*
G01*
X44114*
Y129620*
X44978*
Y130098*
X43230*
Y133711*
G37*
X79685Y82913D02*
G36*
X81296Y84525D01*
G75*
G02X82674Y85094I1375J-1375*
G01*
X82732*
X84270Y86632*
Y94177*
X83984*
Y92913*
G75*
G02X83115Y90816I-2969J1*
G01*
X81233Y88933*
G75*
G02X79134Y88064I-2098J2098*
G01*
X76211*
Y87506*
G75*
G02X78156Y84409I-1493J-3097*
G01*
G75*
G02X77813Y82913I-3438J1*
G01*
X79685*
G37*
X109717D02*
G36*
Y87710D01*
X107546Y89880*
X104850*
Y85104*
X100661*
G75*
G02X100991Y84235I-1772J-1169*
G01*
X102135Y83090*
G75*
G02X102290Y82913I-1195J-1200*
G01*
X109717*
G37*
X133287D02*
G36*
Y84218D01*
X131247Y86258*
X129575*
Y84789*
X124342*
G75*
G02X124417Y84332I-1346J-457*
G01*
G75*
G02Y84331I-1381J0*
G01*
Y82913*
X128976*
G75*
G02X133217I2120*
G01*
X133287*
G37*
X142185D02*
G36*
Y85329D01*
X142872*
G75*
G02X141811Y87165I1059J1837*
G01*
G75*
G02X142097Y88228I2120*
G01*
G75*
G02X141811Y89291I1834J1063*
G01*
G75*
G02X142059Y90287I2121*
G01*
G75*
G02X141732Y91417I1793J1131*
G01*
G75*
G02X143461Y93501I2120*
G01*
Y94506*
X136136*
G75*
G02X135029Y94955J1589*
G01*
X135015Y94969*
G75*
G02X132992Y97087I98J2118*
G01*
G75*
G02X133584Y98556I2120*
G01*
G75*
G02X133086Y98915I659J1439*
G01*
X132720Y99306*
G75*
G02X132018Y99493I187J2111*
G01*
Y97559*
G75*
G02X131448Y96184I-1945J0*
G01*
X127528Y92264*
X127962Y91830*
G75*
G02X128452Y90801I-1197J-1201*
G01*
X129575*
Y89333*
X131884*
G75*
G02X132972Y88881I0J-1537*
G01*
X133769Y88085*
X139299*
Y82913*
X142185*
G37*
X148693D02*
G36*
Y84341D01*
X148197Y84856*
Y82913*
X148693*
G37*
X12431Y133711D02*
G36*
Y144735D01*
X6259Y150907*
G75*
G02X5541Y152637I1726J1730*
G01*
Y152638*
Y163228*
X1787*
Y133711*
X12431*
G37*
X91277Y163228D02*
G36*
X42744D01*
G75*
G02X38504I-2120*
G01*
X34510*
X38343Y159396*
G75*
G02X38868Y158130I-1262J-1266*
G01*
Y146705*
X39888Y145646*
X40193*
G75*
G02X43453Y143858I1140J-1787*
G01*
G75*
G02X40193Y142071I-2120*
G01*
X39128*
G75*
G02X38296Y142276I-1J1785*
G01*
G75*
G02X34144Y142220I-2082J402*
G01*
X32433Y143931*
G75*
G02X31907Y145197I1262J1266*
G01*
Y149771*
X27539Y154140*
X22303*
Y163228*
X10431*
Y153650*
X16603Y147479*
G75*
G02X17321Y145748I-1726J-1730*
G01*
Y145748*
Y133711*
X18417*
Y144246*
X26492*
Y133711*
X43230*
Y134370*
X49717*
Y135354*
Y135355*
G75*
G02X50168Y136443I1537*
G01*
X50207Y136481*
G75*
G02X49703Y137598I1600J1393*
G01*
X43230*
Y141870*
X50506*
Y139549*
G75*
G02X53911Y138122I1299J-1675*
G01*
X59705*
Y141982*
X64670*
G75*
G02X63150Y144016I600J2033*
G01*
G75*
G02X63975Y145695I2120*
G01*
X54062*
G75*
G02X54791Y144094I-1391J-1600*
G01*
G75*
G02X51531Y142307I-2120*
G01*
X47711*
G75*
G02X46444Y142833J1788*
G01*
X44539Y144738*
G75*
G02X44041Y145695I1266J1268*
G01*
X42795*
Y155644*
X84477*
G75*
G02X84715Y155951I1337J-791*
G01*
X85513Y156748*
G75*
G02X88207Y158733I2120J-55*
G01*
Y160315*
G75*
G02Y160316I2506J0*
G01*
G75*
G02X88707Y161617I1943*
G01*
X89569Y162576*
G75*
G02X91018Y163224I1449J-1296*
G01*
X91278*
G75*
G02X91277Y163228I2031J612*
G01*
G37*
X5541Y188494D02*
G36*
X1787D01*
Y163228*
X5541*
Y188494*
G37*
X22303D02*
G36*
X18128D01*
Y183346*
G75*
G02X17338Y181617I-2289J1*
G01*
G75*
G02X18069Y179942I-1554J-1675*
G01*
G75*
G02Y179941I-2707J0*
G01*
Y173386*
G75*
G02X15781Y171098I-2287*
G01*
X12888*
G75*
G02X10600Y173386J2287*
G01*
Y179941*
G75*
G02Y179942I2707J1*
G01*
G75*
G02X11331Y181617I2285*
G01*
G75*
G02X10541Y183346I1499J1730*
G01*
Y188494*
X10431*
Y163228*
X22303*
Y188494*
G37*
X88606D02*
G36*
X47727D01*
G75*
G02X48729Y186693I-1119J-1801*
G01*
G75*
G02X44786Y185608I-2120*
G01*
X35898*
G75*
G02X36091Y184724I-1927J-883*
G01*
G75*
G02X34245Y182622I-2120*
G01*
X33773Y182150*
G75*
G02X33489Y181920I-1194J1189*
G01*
G75*
G02X35500Y179803I-109J-2117*
G01*
G75*
G02X34917Y178343I-2120*
G01*
Y178228*
Y178228*
G75*
G02X34466Y177140I-1537*
G01*
X33386Y176060*
G75*
G02X32297Y175608I-1088J1085*
G01*
X32252*
Y174142*
G75*
G02X35028Y172126I656J-2016*
G01*
Y172126*
Y172126*
G75*
G02X32252Y170110I-2120*
G01*
Y169521*
G75*
G02X34319Y167402I-53J-2119*
G01*
G75*
G02X32252Y165282I-2120*
G01*
Y163933*
X33065*
G75*
G02X34331Y163407J-1788*
G01*
X34510Y163228*
X38504*
G75*
G02X42744I2120*
G01*
X91277*
G75*
G02X91181Y163858I2024J630*
G01*
G75*
G02X94350Y165700I2120*
G01*
Y170557*
X60806*
G75*
G02X61169Y169370I-1757J-1187*
G01*
G75*
G02X56929I-2120*
G01*
G75*
G02X57539Y170858I2121J-1*
G01*
Y171257*
Y171259*
Y171260*
Y171260*
G75*
G02X58005Y172383I1587*
G01*
X58891Y173269*
G75*
G02X60017Y173734I1123J-1123*
G01*
X94350*
Y175201*
X87793*
G75*
G02X86684Y175545I-4J1943*
G01*
X63899*
G75*
G02X60935Y177490I-844J1945*
G01*
G75*
G02X63899Y179435I2120J0*
G01*
X87461*
G75*
G02X88570Y179091I4J-1943*
G01*
X94350*
Y185608*
X89981*
X88649Y184276*
G75*
G02X84409Y184331I-2119J55*
G01*
G75*
G02X86475Y186450I2120*
G01*
X88256Y188231*
G75*
G02X88606Y188494I1088J-1086*
G01*
G37*
X5541Y212480D02*
G36*
X1787D01*
Y188494*
X5541*
Y212480*
G37*
X22303Y188494D02*
G36*
Y209939D01*
G75*
G02X21610Y210262I602J2200*
G01*
X16437*
Y212480*
X10431*
Y188494*
X10541*
Y189350*
G75*
G02X11219Y190976I2289J-1*
G01*
G75*
G02X10482Y192657I1552J1683*
G01*
Y203602*
G75*
G02X12770Y205890I2287*
G01*
X15841*
G75*
G02X18128Y203602J-2287*
G01*
Y192657*
G75*
G02X17421Y191004I-2287J0*
G01*
G75*
G02X18128Y189350I-1580J-1654*
G01*
Y188494*
X22303*
G37*
X92977Y212480D02*
G36*
X89437D01*
G75*
G02X85197I-2120*
G01*
X39802*
G75*
G02X39998Y211555I-2091J-926*
G01*
Y210711*
X48501Y202209*
X48813*
G75*
G02X51100Y199921J-2287*
G01*
G75*
G02X48813Y197634I-2287*
G01*
X47553*
G75*
G02X45935Y198305J2287*
G01*
X39437Y204802*
G75*
G02X38854Y203343I-2120J1*
G01*
Y203031*
Y203031*
G75*
G02X38403Y201943I-1537*
G01*
X37520Y201060*
G75*
G02X36431Y200608I-1088J1085*
G01*
X34632*
G75*
G02X35500Y198898I-1253J-1710*
G01*
G75*
G02X33435Y196778I-2120*
G01*
X32717Y196060*
G75*
G02X32252Y195741I-1085J1081*
G01*
Y195209*
G75*
G02X36367Y194488I1994J-721*
G01*
G75*
G02X35560Y192824I-2121J0*
G01*
G75*
G02X35332Y192533I-1336J815*
G01*
X34154Y191355*
G75*
G02X33065Y190904I-1088J1085*
G01*
X32252*
Y188683*
X45876*
G75*
G02X47727Y188494I732J-1990*
G01*
X88606*
G75*
G02X89344Y188683I738J-1348*
G01*
X91511*
G75*
G02X91260Y189685I1869J1002*
G01*
G75*
G02X91843Y191145I2120*
G01*
Y210709*
Y210709*
G75*
G02X92294Y211797I1537*
G01*
X92977Y212480*
G37*
X127323Y225197D02*
G36*
X112508D01*
G75*
G02X108268I-2120*
G01*
X1787*
Y212480*
X5541*
Y215512*
Y215512*
G75*
G02X6267Y217250I2444*
G01*
X10556Y221499*
G75*
G02X12278Y222209I1722J-1735*
G01*
X16358*
Y222573*
X22370*
Y221331*
X23550Y220152*
X32252*
Y219429*
G75*
G02X33737Y218763I-132J-2284*
G01*
X39327Y213173*
G75*
G02X39802Y212480I-1616J-1618*
G01*
X85197*
G75*
G02X89437I2120*
G01*
X92977*
X93728Y213231*
G75*
G02X94350Y213611I1091J-1089*
G01*
Y220152*
X104299*
Y219648*
X123045*
G75*
G02X124134Y219196I0J-1537*
G01*
X125257Y218073*
X127194*
G75*
G02X127087Y218740I2015J667*
G01*
G75*
G02X127323Y219713I2122J0*
G01*
Y225197*
G37*
X16437Y212480D02*
G36*
Y215880D01*
X21352*
X20277Y216955*
X16358*
Y217319*
X13284*
X10431Y214493*
Y212480*
X16437*
G37*
X127885Y264807D02*
G36*
X127238D01*
Y257323*
X121648*
Y239370*
X108026*
G75*
G02X108335Y238268I-1812J-1102*
G01*
G75*
G02X104094I-2120*
G01*
G75*
G02X104404Y239370I2121*
G01*
X103656*
Y229114*
X43813Y229213*
X22750*
Y252235*
G75*
G02X20856Y254488I393J2253*
G01*
Y254488*
Y260118*
X1787*
Y225197*
X108268*
G75*
G02X112508I2120*
G01*
X127323*
Y252205*
Y252205*
G75*
G02X128677Y254181I2120*
G01*
X128817Y254313*
Y264650*
X128656*
G75*
G02X127885Y264807I0J1966*
G01*
G37*
X128374Y104711D02*
Y103703D01*
G75*
G02X128700Y104134I1698J-947*
G01*
X129139Y104573*
G75*
G02X128374Y104711I-11J2120*
G01*
G36*
Y103703*
G75*
G02X128700Y104134I1698J-947*
G01*
X129139Y104573*
G75*
G02X128374Y104711I-11J2120*
G01*
G37*
X131167Y143854D02*
X131013D01*
G75*
G02X131533Y142402I-1767J-1453*
G01*
Y138661*
G75*
G02X131236Y137533I-2287J0*
G01*
X131569*
G75*
G02X132035Y137442I0J-1235*
G01*
G75*
G02X131683Y138661I1935J1220*
G01*
Y142402*
G75*
G02X131981Y143531I2288J0*
G01*
G75*
G02X131167Y143854I690J2926*
G01*
G36*
X131013*
G75*
G02X131533Y142402I-1767J-1453*
G01*
Y138661*
G75*
G02X131236Y137533I-2287J0*
G01*
X131569*
G75*
G02X132035Y137442I0J-1235*
G01*
G75*
G02X131683Y138661I1935J1220*
G01*
Y142402*
G75*
G02X131981Y143531I2288J0*
G01*
G75*
G02X131167Y143854I690J2926*
G01*
G37*
X131563Y218740D02*
G75*
G02X131455Y218073I-2120J0D01*
G01*
X132665*
X133709Y219117*
G75*
G02X134431Y219525I1089J-1086*
G01*
X136930Y222023*
G75*
G02X141169Y221969I2119J-55*
G01*
G75*
G02X139104Y219849I-2120*
G01*
X136201Y216946*
G75*
G02X135478Y216538I-1089J1086*
G01*
X134390Y215450*
G75*
G02X133301Y214998I-1089J1086*
G01*
X124620*
G75*
G02X123531Y215450J1538*
G01*
X122409Y216573*
X104299*
Y208717*
X110152*
G75*
G02X111580Y208092J-1945*
G01*
G75*
G02X112150Y205556I-1350J-1635*
G01*
G75*
G02X113571Y202291I-344J-2092*
G01*
X115431*
G75*
G02X114094Y204261I783J1970*
G01*
G75*
G02X118335I2120*
G01*
G75*
G02X116998Y202291I-2120*
G01*
X118967*
Y196094*
X119424Y196551*
G75*
G02X120624Y197049I1200J-1196*
G01*
X135787*
G75*
G02X138226Y197265I1372J-1616*
G01*
G75*
G02X141449Y198055I1926J-887*
G01*
Y211509*
G75*
G02X140315Y213386I986J1877*
G01*
G75*
G02X143631Y215137I2120*
G01*
G75*
G02X144026Y215813I1482J-412*
G01*
X146646Y218432*
Y220247*
G75*
G02X143839Y223205I-983J1878*
G01*
Y226850*
G75*
G02X144311Y228076I1825*
G01*
Y229276*
G75*
G02X141261Y231126I-931J1905*
G01*
X139606Y232781*
X135932*
G75*
G02X134504Y229392I-1686J-1285*
G01*
G75*
G02X134634Y228661I-1990J-731*
G01*
G75*
G02X134606Y228322I-2121J1*
G01*
G75*
G02X136445Y226220I-281J-2101*
G01*
G75*
G02X132205I-2120*
G01*
G75*
G02X132232Y226560I2121J-1*
G01*
G75*
G02X131563Y226767I281J2102*
G01*
Y218740*
G36*
G75*
G02X131455Y218073I-2120J0*
G01*
X132665*
X133709Y219117*
G75*
G02X134431Y219525I1089J-1086*
G01*
X136930Y222023*
G75*
G02X141169Y221969I2119J-55*
G01*
G75*
G02X139104Y219849I-2120*
G01*
X136201Y216946*
G75*
G02X135478Y216538I-1089J1086*
G01*
X134390Y215450*
G75*
G02X133301Y214998I-1089J1086*
G01*
X124620*
G75*
G02X123531Y215450J1538*
G01*
X122409Y216573*
X104299*
Y208717*
X110152*
G75*
G02X111580Y208092J-1945*
G01*
G75*
G02X112150Y205556I-1350J-1635*
G01*
G75*
G02X113571Y202291I-344J-2092*
G01*
X115431*
G75*
G02X114094Y204261I783J1970*
G01*
G75*
G02X118335I2120*
G01*
G75*
G02X116998Y202291I-2120*
G01*
X118967*
Y196094*
X119424Y196551*
G75*
G02X120624Y197049I1200J-1196*
G01*
X135787*
G75*
G02X138226Y197265I1372J-1616*
G01*
G75*
G02X141449Y198055I1926J-887*
G01*
Y211509*
G75*
G02X140315Y213386I986J1877*
G01*
G75*
G02X143631Y215137I2120*
G01*
G75*
G02X144026Y215813I1482J-412*
G01*
X146646Y218432*
Y220247*
G75*
G02X143839Y223205I-983J1878*
G01*
Y226850*
G75*
G02X144311Y228076I1825*
G01*
Y229276*
G75*
G02X141261Y231126I-931J1905*
G01*
X139606Y232781*
X135932*
G75*
G02X134504Y229392I-1686J-1285*
G01*
G75*
G02X134634Y228661I-1990J-731*
G01*
G75*
G02X134606Y228322I-2121J1*
G01*
G75*
G02X136445Y226220I-281J-2101*
G01*
G75*
G02X132205I-2120*
G01*
G75*
G02X132232Y226560I2121J-1*
G01*
G75*
G02X131563Y226767I281J2102*
G01*
Y218740*
G37*
Y246480D02*
Y230556D01*
G75*
G02X132256Y230766I951J-1895*
G01*
G75*
G02X133839Y233577I1990J730*
G01*
Y238400*
X139850*
Y236851*
G75*
G02X140059Y236676I-880J-1262*
G01*
X143435Y233300*
G75*
G02X144311Y233086I-54J-2120*
G01*
Y235307*
X141854Y237765*
G75*
G02X141336Y238805I1290J1291*
G01*
X140335*
Y239829*
X139850*
Y239081*
X133839*
Y244699*
X134862*
Y244720*
G75*
G02Y244723I946J2*
G01*
G75*
G02Y244724I1230J1*
G01*
G75*
G02X134937Y245262I1982J-1*
G01*
X134429*
Y246480*
X131563*
G36*
Y230556*
G75*
G02X132256Y230766I951J-1895*
G01*
G75*
G02X133839Y233577I1990J730*
G01*
Y238400*
X139850*
Y236851*
G75*
G02X140059Y236676I-880J-1262*
G01*
X143435Y233300*
G75*
G02X144311Y233086I-54J-2120*
G01*
Y235307*
X141854Y237765*
G75*
G02X141336Y238805I1290J1291*
G01*
X140335*
Y239829*
X139850*
Y239081*
X133839*
Y244699*
X134862*
Y244720*
G75*
G02Y244723I946J2*
G01*
G75*
G02Y244724I1230J1*
G01*
G75*
G02X134937Y245262I1982J-1*
G01*
X134429*
Y246480*
X131563*
G37*
X132746Y253465D02*
G75*
G02X132736Y253270I-1965J2D01*
G01*
X146448*
G75*
G02X147649Y252773I3J-1695*
G01*
X148948Y251474*
G75*
G02X149057Y251355I-1198J-1200*
G01*
G75*
G02X149809Y249179I-1307J-1670*
G01*
G75*
G02X152272Y247087I343J-2092*
G01*
G75*
G02X152257Y246833I-2121J-2*
G01*
G75*
G02X154161Y244724I-215J-2109*
G01*
G75*
G02X154161Y244688I-2122J5*
G01*
G75*
G02X156530Y244258I872J-1932*
G01*
G75*
G02X159902Y243744I1496J-1502*
G01*
Y244601*
G75*
G02X160072Y246457I1983J753*
G01*
G75*
G02X159055Y248268I1102J1811*
G01*
G75*
G02Y248274I2128J3*
G01*
G75*
G02X156929Y250394I-6J2120*
G01*
G75*
G02Y250400I2128J3*
G01*
G75*
G02X154803Y252520I-6J2120*
G01*
G75*
G02X159043I2120*
G01*
G75*
G02Y252514I-2128J-3*
G01*
G75*
G02X161169Y250394I6J-2120*
G01*
G75*
G02Y250388I-2128J-3*
G01*
G75*
G02X162986Y247166I6J-2120*
G01*
G75*
G02X163920Y244764I-1103J-1811*
G01*
X165248Y246066*
Y247762*
X164134*
Y255348*
X165478*
G75*
G02X165857Y255970I1465J-467*
G01*
X166212Y256325*
X164035*
Y262337*
X164756*
Y263314*
X162954Y265116*
X151678*
G75*
G02X150703Y264827I-975J1498*
G01*
X144457*
Y260144*
X143185*
Y259699*
X144457*
Y253687*
X138839*
Y255635*
G75*
G02X135039Y256929I-1679J1294*
G01*
G75*
G02X135728Y258493I2120*
G01*
Y259685*
G75*
G02X136149Y260698I1431J0*
G01*
X138839Y263388*
Y264827*
X132746*
Y253465*
G36*
G75*
G02X132736Y253270I-1965J2*
G01*
X146448*
G75*
G02X147649Y252773I3J-1695*
G01*
X148948Y251474*
G75*
G02X149057Y251355I-1198J-1200*
G01*
G75*
G02X149809Y249179I-1307J-1670*
G01*
G75*
G02X152272Y247087I343J-2092*
G01*
G75*
G02X152257Y246833I-2121J-2*
G01*
G75*
G02X154161Y244724I-215J-2109*
G01*
G75*
G02X154161Y244688I-2122J5*
G01*
G75*
G02X156530Y244258I872J-1932*
G01*
G75*
G02X159902Y243744I1496J-1502*
G01*
Y244601*
G75*
G02X160072Y246457I1983J753*
G01*
G75*
G02X159055Y248268I1102J1811*
G01*
G75*
G02Y248274I2128J3*
G01*
G75*
G02X156929Y250394I-6J2120*
G01*
G75*
G02Y250400I2128J3*
G01*
G75*
G02X154803Y252520I-6J2120*
G01*
G75*
G02X159043I2120*
G01*
G75*
G02Y252514I-2128J-3*
G01*
G75*
G02X161169Y250394I6J-2120*
G01*
G75*
G02Y250388I-2128J-3*
G01*
G75*
G02X162986Y247166I6J-2120*
G01*
G75*
G02X163920Y244764I-1103J-1811*
G01*
X165248Y246066*
Y247762*
X164134*
Y255348*
X165478*
G75*
G02X165857Y255970I1465J-467*
G01*
X166212Y256325*
X164035*
Y262337*
X164756*
Y263314*
X162954Y265116*
X151678*
G75*
G02X150703Y264827I-975J1498*
G01*
X144457*
Y260144*
X143185*
Y259699*
X144457*
Y253687*
X138839*
Y255635*
G75*
G02X135039Y256929I-1679J1294*
G01*
G75*
G02X135728Y258493I2120*
G01*
Y259685*
G75*
G02X136149Y260698I1431J0*
G01*
X138839Y263388*
Y264827*
X132746*
Y253465*
G37*
X133970Y136374D02*
G75*
G02X132719Y136746J2287D01*
G01*
G75*
G02X132803Y136299I-1150J-447*
G01*
Y134329*
G75*
G02X133970Y134650I1168J-1967*
G01*
X135978*
Y136374*
X133970*
G36*
G75*
G02X132719Y136746J2287*
G01*
G75*
G02X132803Y136299I-1150J-447*
G01*
Y134329*
G75*
G02X133970Y134650I1168J-1967*
G01*
X135978*
Y136374*
X133970*
G37*
X134866Y127838D02*
G75*
G02X134845Y127770I-2038J583D01*
G01*
X134934*
X134866Y127838*
G36*
G75*
G02X134845Y127770I-2038J583*
G01*
X134934*
X134866Y127838*
G37*
X136929Y105616D02*
X134670D01*
G75*
G02X134776Y105526I-1211J-1519*
G01*
X134794*
G75*
G02X135809Y105106I3J-1431*
G01*
X136754Y104161*
G75*
G02X136929Y103949I-1010J-1013*
G01*
Y105616*
G36*
X134670*
G75*
G02X134776Y105526I-1211J-1519*
G01*
X134794*
G75*
G02X135809Y105106I3J-1431*
G01*
X136754Y104161*
G75*
G02X136929Y103949I-1010J-1013*
G01*
Y105616*
G37*
X138262Y173701D02*
Y158498D01*
X139119*
G75*
G02X141026I954J-2809*
G01*
X143079*
Y158124*
X145039*
Y167593*
X146231*
G75*
G02X146451Y167612I220J-1215*
G01*
X157106*
Y173701*
X138262*
G36*
Y158498*
X139119*
G75*
G02X141026I954J-2809*
G01*
X143079*
Y158124*
X145039*
Y167593*
X146231*
G75*
G02X146451Y167612I220J-1215*
G01*
X157106*
Y173701*
X138262*
G37*
X138591Y259092D02*
Y258493D01*
G75*
G02X138839Y258224I-1430J-1564*
G01*
Y259340*
X138591Y259092*
G36*
Y258493*
G75*
G02X138839Y258224I-1430J-1564*
G01*
Y259340*
X138591Y259092*
G37*
X139085Y194546D02*
G75*
G02X139077Y194530I-1919J926D01*
G01*
X139113*
G75*
G02X139085Y194546I1033J1847*
G01*
G36*
G75*
G02X139077Y194530I-1919J926*
G01*
X139113*
G75*
G02X139085Y194546I1033J1847*
G01*
G37*
X139142Y245039D02*
G75*
G02X139112Y244699I-1982J0D01*
G01*
X139850*
Y243793*
X140335*
Y244817*
X145953*
Y238827*
X146803Y237976*
G75*
G02X147061Y238805I1538J-24*
G01*
X146634*
Y244817*
X149923*
G75*
G02X149937Y244978I2119J-96*
G01*
G75*
G02X148780Y245470I215J2109*
G01*
X146346*
Y245262*
X140728*
Y249880*
X140047*
Y245262*
X139142*
Y245043*
G75*
G02Y245041I-946J-1*
G01*
G75*
G02Y245039I-1230J0*
G01*
G36*
G75*
G02X139112Y244699I-1982J0*
G01*
X139850*
Y243793*
X140335*
Y244817*
X145953*
Y238827*
X146803Y237976*
G75*
G02X147061Y238805I1538J-24*
G01*
X146634*
Y244817*
X149923*
G75*
G02X149937Y244978I2119J-96*
G01*
G75*
G02X148780Y245470I215J2109*
G01*
X146346*
Y245262*
X140728*
Y249880*
X140047*
Y245262*
X139142*
Y245043*
G75*
G02Y245041I-946J-1*
G01*
G75*
G02Y245039I-1230J0*
G01*
G37*
X139642Y260144D02*
X139197Y259699D01*
X140110*
Y260144*
X139642*
G36*
X139197Y259699*
X140110*
Y260144*
X139642*
G37*
X144994Y85331D02*
G75*
G02X144990Y85329I-1102J1833D01*
G01*
X144998*
G75*
G02X144994Y85331I1098J1835*
G01*
G36*
G75*
G02X144990Y85329I-1102J1833*
G01*
X144998*
G75*
G02X144994Y85331I1098J1835*
G01*
G37*
X152252Y240319D02*
Y240259D01*
X152334Y240341*
G75*
G02X152252Y240319I-446J1472*
G01*
G36*
Y240259*
X152334Y240341*
G75*
G02X152252Y240319I-446J1472*
G01*
G37*
X153143Y179000D02*
X150291D01*
G75*
G02X151256Y175354I-454J-2071*
G01*
X157106*
Y177826*
G75*
G02X153656Y179069I-1364J1623*
G01*
G75*
G02X153143Y179000I-513J1875*
G01*
G36*
X150291*
G75*
G02X151256Y175354I-454J-2071*
G01*
X157106*
Y177826*
G75*
G02X153656Y179069I-1364J1623*
G01*
G75*
G02X153143Y179000I-513J1875*
G01*
G37*
X153688Y226325D02*
X149926D01*
G75*
G02X149720Y223658I-1743J-1207*
G01*
Y218087*
G75*
G02X150921Y217891I274J-2102*
G01*
X157039Y224009*
Y225174*
G75*
G02X153688Y226325I-1297J1677*
G01*
G36*
X149926*
G75*
G02X149720Y223658I-1743J-1207*
G01*
Y218087*
G75*
G02X150921Y217891I274J-2102*
G01*
X157039Y224009*
Y225174*
G75*
G02X153688Y226325I-1297J1677*
G01*
G37*
X154969Y110315D02*
Y102503D01*
X155850Y103385*
G75*
G02X155827Y103701I2095J315*
G01*
G75*
G02X156410Y105161I2120*
G01*
G75*
G02X156861Y106207I1537J-43*
G01*
X157511Y106856*
X155256*
Y110315*
X154969*
G36*
Y102503*
X155850Y103385*
G75*
G02X155827Y103701I2095J315*
G01*
G75*
G02X156410Y105161I2120*
G01*
G75*
G02X156861Y106207I1537J-43*
G01*
X157511Y106856*
X155256*
Y110315*
X154969*
G37*
X155883Y239541D02*
X154584Y238242D01*
X154969*
Y232624*
X149878*
Y231943*
X154969*
Y230565*
X155070*
X155177Y230672*
Y237795*
G75*
G02X155598Y238809I1431J0*
G01*
X157493Y240704*
G75*
G02X156530Y241254I532J2052*
G01*
G75*
G02X156335Y241082I-1493J1502*
G01*
Y240630*
G75*
G02X155883Y239541I-1538*
G01*
G36*
X154584Y238242*
X154969*
Y232624*
X149878*
Y231943*
X154969*
Y230565*
X155070*
X155177Y230672*
Y237795*
G75*
G02X155598Y238809I1431J0*
G01*
X157493Y240704*
G75*
G02X156530Y241254I532J2052*
G01*
G75*
G02X156335Y241082I-1493J1502*
G01*
Y240630*
G75*
G02X155883Y239541I-1538*
G01*
G37*
X157096Y182069D02*
X156454Y181446D01*
G75*
G02X157106Y181072I-712J-1997*
G01*
Y182078*
G75*
G02X157096Y182069I-1341J1385*
G01*
G36*
X156454Y181446*
G75*
G02X157106Y181072I-712J-1997*
G01*
Y182078*
G75*
G02X157096Y182069I-1341J1385*
G01*
G37*
X157669Y100856D02*
X157529Y100715D01*
G75*
G02X157669Y100674I-529J-2051*
G01*
Y100856*
G36*
X157529Y100715*
G75*
G02X157669Y100674I-529J-2051*
G01*
Y100856*
G37*
X158039Y237202D02*
Y230915D01*
X160110Y232985*
Y239273*
X158039Y237202*
G36*
Y230915*
X160110Y232985*
Y239273*
X158039Y237202*
G37*
X158098Y117880D02*
X156948D01*
G75*
G02X156961Y115526I-1757J-1187*
G01*
X158706*
X159880Y116699*
G75*
G02X158827Y117150I35J1537*
G01*
X158098Y117880*
G36*
X156948*
G75*
G02X156961Y115526I-1757J-1187*
G01*
X158706*
X159880Y116699*
G75*
G02X158827Y117150I35J1537*
G01*
X158098Y117880*
G37*
X159207Y80825D02*
X158758D01*
G75*
G02X158817Y80670I-1956J-825*
G01*
G75*
G02X159273Y80826I943J-2009*
G01*
G75*
G02X159207Y80825I-70J1539*
G01*
G36*
X158758*
G75*
G02X158817Y80670I-1956J-825*
G01*
G75*
G02X159273Y80826I943J-2009*
G01*
G75*
G02X159207Y80825I-70J1539*
G01*
G37*
X160487Y112814D02*
G75*
G02X160070Y112514I-1124J1124D01*
G01*
X162799*
G75*
G02X164022Y114027I2077J-428*
G01*
X164007Y114042*
G75*
G02X163744Y114404I1010J1013*
G01*
X162406*
Y114474*
X162148*
X160487Y112814*
G36*
G75*
G02X160070Y112514I-1124J1124*
G01*
X162799*
G75*
G02X164022Y114027I2077J-428*
G01*
X164007Y114042*
G75*
G02X163744Y114404I1010J1013*
G01*
X162406*
Y114474*
X162148*
X160487Y112814*
G37*
X162173Y138238D02*
Y136693D01*
G75*
G02X160939Y135459I-1234*
G01*
X155821*
G75*
G02X155781Y135459I5J1230*
G01*
G75*
G02X155742Y135459I-44J1231*
G01*
X150545*
G75*
G02X149316Y136585J1234*
G01*
G75*
G02X146420Y139475I-1054J1840*
G01*
G75*
G02X145904Y139602I31J1233*
G01*
Y138661*
G75*
G02X143616Y136374I-2287*
G01*
X138262*
Y134650*
X143616*
G75*
G02X145904Y132362J-2287*
G01*
Y128819*
G75*
G02X143616Y126531I-2287*
G01*
X142791*
Y116569*
G75*
G02X143039Y115827I-986J-742*
G01*
Y114384*
X144246*
G75*
G02X145119Y114022I1J-1234*
G01*
X146779Y112362*
X151841*
G75*
G02X152259Y113094I1539J-394*
G01*
X153695Y114530*
Y115191*
G75*
G02Y118195I1496J1502*
G01*
Y123937*
X154876Y125118*
X158577*
X160309Y126850*
X168028*
Y126870*
X174361*
G75*
G02X175533Y127313I1302J-1673*
G01*
X175876Y127656*
G75*
G02X177002Y128124I1126J-1121*
G01*
X179494*
X181546Y130176*
G75*
G02X182671Y130644I1126J-1121*
G01*
X190230*
Y140142*
X188779Y141593*
G75*
G02X188056Y142828I1984J1989*
G01*
X187019Y143864*
X183622*
Y143983*
X178119Y144066*
G75*
G02X178014Y143949I-1116J894*
G01*
X177803Y143738*
Y136929*
G75*
G02X176372Y135498I-1431*
G01*
X171908*
G75*
G02X170915I-497J2061*
G01*
X169782*
G75*
G02X168789I-497J2061*
G01*
X167656*
G75*
G02X166663I-497J2061*
G01*
X165506*
G75*
G02X164493Y135919I0J1431*
G01*
X162173Y138238*
G36*
Y136693*
G75*
G02X160939Y135459I-1234*
G01*
X155821*
G75*
G02X155781Y135459I5J1230*
G01*
G75*
G02X155742Y135459I-44J1231*
G01*
X150545*
G75*
G02X149316Y136585J1234*
G01*
G75*
G02X146420Y139475I-1054J1840*
G01*
G75*
G02X145904Y139602I31J1233*
G01*
Y138661*
G75*
G02X143616Y136374I-2287*
G01*
X138262*
Y134650*
X143616*
G75*
G02X145904Y132362J-2287*
G01*
Y128819*
G75*
G02X143616Y126531I-2287*
G01*
X142791*
Y116569*
G75*
G02X143039Y115827I-986J-742*
G01*
Y114384*
X144246*
G75*
G02X145119Y114022I1J-1234*
G01*
X146779Y112362*
X151841*
G75*
G02X152259Y113094I1539J-394*
G01*
X153695Y114530*
Y115191*
G75*
G02Y118195I1496J1502*
G01*
Y123937*
X154876Y125118*
X158577*
X160309Y126850*
X168028*
Y126870*
X174361*
G75*
G02X175533Y127313I1302J-1673*
G01*
X175876Y127656*
G75*
G02X177002Y128124I1126J-1121*
G01*
X179494*
X181546Y130176*
G75*
G02X182671Y130644I1126J-1121*
G01*
X190230*
Y140142*
X188779Y141593*
G75*
G02X188056Y142828I1984J1989*
G01*
X187019Y143864*
X183622*
Y143983*
X178119Y144066*
G75*
G02X178014Y143949I-1116J894*
G01*
X177803Y143738*
Y136929*
G75*
G02X176372Y135498I-1431*
G01*
X171908*
G75*
G02X170915I-497J2061*
G01*
X169782*
G75*
G02X168789I-497J2061*
G01*
X167656*
G75*
G02X166663I-497J2061*
G01*
X165506*
G75*
G02X164493Y135919I0J1431*
G01*
X162173Y138238*
G37*
X162398Y220170D02*
Y217583D01*
G75*
G02X164348Y217672I1061J-1835*
G01*
Y222480*
G75*
G02X164874Y223746I1787*
G01*
X164900Y223772*
Y224573*
X162894*
Y225924*
G75*
G02X162713Y225706I-1717J1242*
G01*
Y221102*
G75*
G02X162398Y220170I-1537*
G01*
G36*
Y217583*
G75*
G02X164348Y217672I1061J-1835*
G01*
Y222480*
G75*
G02X164874Y223746I1787*
G01*
X164900Y223772*
Y224573*
X162894*
Y225924*
G75*
G02X162713Y225706I-1717J1242*
G01*
Y221102*
G75*
G02X162398Y220170I-1537*
G01*
G37*
X162634Y213795D02*
Y210619D01*
G75*
G02X163718Y210858I982J-1879*
G01*
X164348Y211489*
Y213824*
G75*
G02X162634Y213795I-890J1924*
G01*
G36*
Y210619*
G75*
G02X163718Y210858I982J-1879*
G01*
X164348Y211489*
Y213824*
G75*
G02X162634Y213795I-890J1924*
G01*
G37*
X162843Y111487D02*
Y110978D01*
G75*
G02X163115Y110906I-409J-2081*
G01*
G75*
G02X162843Y111487I1762J1181*
G01*
G36*
Y110978*
G75*
G02X163115Y110906I-409J-2081*
G01*
G75*
G02X162843Y111487I1762J1181*
G01*
G37*
Y122205D02*
Y119943D01*
X167630*
Y119778*
X167663*
G75*
G02X168789Y119310J-1589*
G01*
X169146Y118952*
G75*
G02X169614Y117827I-1121J-1126*
G01*
Y116642*
X170809Y115447*
X172669*
G75*
G02X173400Y115270I3J-1589*
G01*
G75*
G02X175500Y113150I-20J-2120*
G01*
G75*
G02X171451Y112270I-2120*
G01*
X171244*
X174288Y109226*
X176409*
X176752Y109569*
Y112283*
G75*
G02X177173Y113297I1431J0*
G01*
X178429Y114553*
X177238*
G75*
G02X176225Y114974I0J1431*
G01*
X174669Y116530*
X169886*
Y120768*
G75*
G02X169652Y120957I778J1200*
G01*
X169308Y121300*
G75*
G02X165512Y122598I-1676J1298*
G01*
G75*
G02X165514Y122693I2120J3*
G01*
X165470Y122736*
X163852*
Y122205*
X162843*
G36*
Y119943*
X167630*
Y119778*
X167663*
G75*
G02X168789Y119310J-1589*
G01*
X169146Y118952*
G75*
G02X169614Y117827I-1121J-1126*
G01*
Y116642*
X170809Y115447*
X172669*
G75*
G02X173400Y115270I3J-1589*
G01*
G75*
G02X175500Y113150I-20J-2120*
G01*
G75*
G02X171451Y112270I-2120*
G01*
X171244*
X174288Y109226*
X176409*
X176752Y109569*
Y112283*
G75*
G02X177173Y113297I1431J0*
G01*
X178429Y114553*
X177238*
G75*
G02X176225Y114974I0J1431*
G01*
X174669Y116530*
X169886*
Y120768*
G75*
G02X169652Y120957I778J1200*
G01*
X169308Y121300*
G75*
G02X165512Y122598I-1676J1298*
G01*
G75*
G02X165514Y122693I2120J3*
G01*
X165470Y122736*
X163852*
Y122205*
X162843*
G37*
X163002Y231083D02*
X161204Y229285D01*
G75*
G02X162894Y228407I-29J-2120*
G01*
Y230230*
X170480*
Y228440*
G75*
G02X173140Y227763I931J-1905*
G01*
Y235616*
X172421*
Y236138*
X170480*
Y235596*
X163500*
Y232283*
G75*
G02X163002Y231083I-1694*
G01*
G36*
X161204Y229285*
G75*
G02X162894Y228407I-29J-2120*
G01*
Y230230*
X170480*
Y228440*
G75*
G02X173140Y227763I931J-1905*
G01*
Y235616*
X172421*
Y236138*
X170480*
Y235596*
X163500*
Y232283*
G75*
G02X163002Y231083I-1694*
G01*
G37*
X163287Y104526D02*
X163093D01*
G75*
G02X162713Y102821I-2076J-431*
G01*
Y102756*
G75*
G02X162214Y101556I-1694*
G01*
X161059Y100400*
Y96457*
G75*
G02X160561Y95256I-1694*
G01*
X159365Y94061*
G75*
G02X160618Y92126I-867J-1935*
G01*
G75*
G02X156378I-2120*
G01*
G75*
G02X156381Y92242I2120J1*
G01*
X153553*
G75*
G02X153296Y92262J1694*
G01*
X150941*
Y98490*
X144825*
X144136Y97801*
X148685*
Y95299*
G75*
G02X149004Y95054I-769J-1331*
G01*
X149663Y94396*
G75*
G02X150114Y93307I-1086J-1089*
G01*
Y92763*
X151812Y91065*
X151920*
G75*
G02X155500Y89528I1460J-1537*
G01*
G75*
G02X151920Y87990I-2120*
G01*
X151175*
G75*
G02X150138Y88393J1537*
G01*
G75*
G02X150017Y88150I-1955J821*
G01*
G75*
G02X150303Y87102I-1834J-1063*
G01*
X151337Y86028*
G75*
G02X151768Y84961I-1107J-1067*
G01*
Y82663*
X152877Y81554*
G75*
G02X156296Y83900I1960J808*
G01*
X158570*
X159686Y85015*
G75*
G02X161148Y86976I2119J-55*
G01*
G75*
G02X163484Y90092I1839J1056*
G01*
Y90132*
X165157*
G75*
G02X165041Y91600I1923J892*
G01*
X163484*
Y92380*
X163324*
G75*
G02X162234Y92830I-4J1537*
G01*
X161899Y93165*
G75*
G02X161449Y94252I1087J1087*
G01*
G75*
G02Y94253I740J0*
G01*
G75*
G02Y94256I868J2*
G01*
Y96023*
G75*
G02X161650Y96783I1538*
G01*
Y99783*
X162108*
G75*
G02X162492Y100420I1470J-452*
G01*
X163079Y101007*
G75*
G02X163287Y101182I1088J-1087*
G01*
Y104526*
G36*
X163093*
G75*
G02X162713Y102821I-2076J-431*
G01*
Y102756*
G75*
G02X162214Y101556I-1694*
G01*
X161059Y100400*
Y96457*
G75*
G02X160561Y95256I-1694*
G01*
X159365Y94061*
G75*
G02X160618Y92126I-867J-1935*
G01*
G75*
G02X156378I-2120*
G01*
G75*
G02X156381Y92242I2120J1*
G01*
X153553*
G75*
G02X153296Y92262J1694*
G01*
X150941*
Y98490*
X144825*
X144136Y97801*
X148685*
Y95299*
G75*
G02X149004Y95054I-769J-1331*
G01*
X149663Y94396*
G75*
G02X150114Y93307I-1086J-1089*
G01*
Y92763*
X151812Y91065*
X151920*
G75*
G02X155500Y89528I1460J-1537*
G01*
G75*
G02X151920Y87990I-2120*
G01*
X151175*
G75*
G02X150138Y88393J1537*
G01*
G75*
G02X150017Y88150I-1955J821*
G01*
G75*
G02X150303Y87102I-1834J-1063*
G01*
X151337Y86028*
G75*
G02X151768Y84961I-1107J-1067*
G01*
Y82663*
X152877Y81554*
G75*
G02X156296Y83900I1960J808*
G01*
X158570*
X159686Y85015*
G75*
G02X161148Y86976I2119J-55*
G01*
G75*
G02X163484Y90092I1839J1056*
G01*
Y90132*
X165157*
G75*
G02X165041Y91600I1923J892*
G01*
X163484*
Y92380*
X163324*
G75*
G02X162234Y92830I-4J1537*
G01*
X161899Y93165*
G75*
G02X161449Y94252I1087J1087*
G01*
G75*
G02Y94253I740J0*
G01*
G75*
G02Y94256I868J2*
G01*
Y96023*
G75*
G02X161650Y96783I1538*
G01*
Y99783*
X162108*
G75*
G02X162492Y100420I1470J-452*
G01*
X163079Y101007*
G75*
G02X163287Y101182I1088J-1087*
G01*
Y104526*
G37*
X164404Y76443D02*
Y75862D01*
G75*
G02X164444Y75822I-1954J-2034*
G01*
X165419Y74848*
X166962Y76391*
G75*
G02X166893Y76443I1540J2125*
G01*
X164404*
G36*
Y75862*
G75*
G02X164444Y75822I-1954J-2034*
G01*
X165419Y74848*
X166962Y76391*
G75*
G02X166893Y76443I1540J2125*
G01*
X164404*
G37*
X165556Y68844D02*
G75*
G02X165069Y68730I-915J2809D01*
G01*
G75*
G02X165948Y67868I-981J-1880*
G01*
G75*
G02X166046Y67867I31J-2126*
G01*
G75*
G02X167075Y68861I1901J-938*
G01*
G75*
G02X166766Y68844I-308J2793*
G01*
X165556*
G36*
G75*
G02X165069Y68730I-915J2809*
G01*
G75*
G02X165948Y67868I-981J-1880*
G01*
G75*
G02X166046Y67867I31J-2126*
G01*
G75*
G02X167075Y68861I1901J-938*
G01*
G75*
G02X166766Y68844I-308J2793*
G01*
X165556*
G37*
X167000Y125512D02*
Y125254D01*
X167538Y124717*
G75*
G02X168028Y124681I93J-2118*
G01*
Y125512*
X167000*
G36*
Y125254*
X167538Y124717*
G75*
G02X168028Y124681I93J-2118*
G01*
Y125512*
X167000*
G37*
X167398Y209482D02*
X166842Y208926D01*
G75*
G02X169673Y206929I711J-1997*
G01*
G75*
G02X167620Y204810I-2120*
G01*
G75*
G02X167238Y204762I-383J1489*
G01*
X161963*
G75*
G02X160874Y205213J1538*
G01*
X160011Y206077*
G75*
G02X159559Y207165I1086J1089*
G01*
Y213512*
G75*
G02X159323Y214331I1301J819*
G01*
Y220787*
G75*
G02X159638Y221720I1537*
G01*
Y221814*
X152612Y214788*
G75*
G02X151411Y214289I-1200J1196*
G01*
X151268*
G75*
G02X147957Y215395I-1274J1695*
G01*
X146650Y214088*
Y208808*
G75*
G02X149752Y206929I982J-1879*
G01*
G75*
G02X146650Y205050I-2120*
G01*
Y193150*
G75*
G02X146198Y192061I-1538*
G01*
X144075Y189938*
G75*
G02X142986Y189486I-1089J1086*
G01*
X122836*
X120846Y187497*
G75*
G02X119758Y187045I-1089J1086*
G01*
X116222*
X114681Y185505*
Y175512*
G75*
G02X114230Y174423I-1538*
G01*
X111949Y172143*
G75*
G02X111031Y171700I-1089J1086*
G01*
Y167878*
X116289*
Y175118*
G75*
G02X118577Y177406I2287*
G01*
X135742*
G75*
G02X138017Y175354J-2287*
G01*
X148417*
G75*
G02X149382Y179000I1419J1575*
G01*
X130051*
G75*
G02X127437Y182112I-844J1945*
G01*
X125689*
Y188124*
X131307*
Y186287*
G75*
G02X131398Y186204I-996J-1172*
G01*
X131757Y185845*
G75*
G02X133443Y186045I1072J-1829*
G01*
G75*
G02X133386Y186535I2062J490*
G01*
G75*
G02X137626I2120*
G01*
G75*
G02X134891Y184506I-2120*
G01*
G75*
G02X134625Y182890I-2063J-491*
G01*
X152356*
X153797Y184288*
Y191181*
G75*
G02X154367Y192556I1945*
G01*
X156335Y194525*
G75*
G02X157713Y195094I1375J-1375*
G01*
X165720*
G75*
G02X168406Y197830I1990J732*
G01*
X170953Y200377*
G75*
G02X171707Y200792I1088J-1086*
G01*
Y212319*
X173605*
Y212445*
X171707*
Y224436*
G75*
G02X170480Y224631I-295J2100*
G01*
Y224573*
X168474*
Y223031*
G75*
G02X167949Y221765I-1787*
G01*
X167923Y221740*
Y210748*
G75*
G02X167398Y209482I-1787*
G01*
X151594Y196299D02*
G75*
G02X155835I2120D01*
G01*
G75*
G02X151594I-2120*
G01*
X165643D02*
G36*
X155835D01*
G75*
G02X151594I-2120*
G01*
X146650*
Y193150*
Y193149*
G75*
G02X146198Y192061I-1537*
G01*
X144075Y189938*
G75*
G02X142986Y189486I-1088J1085*
G01*
X122836*
X120846Y187497*
G75*
G02X119758Y187045I-1088J1085*
G01*
X116222*
X114681Y185505*
Y175512*
Y175511*
G75*
G02X114230Y174423I-1537*
G01*
X111949Y172143*
G75*
G02X111281Y171750I-1088J1085*
G01*
Y168128*
X116289*
Y175118*
G75*
G02X118577Y177406I2287*
G01*
X135742*
G75*
G02X138017Y175354I0J-2288*
G01*
X148417*
G75*
G02X147717Y176929I1419J1575*
G01*
G75*
G02X149382Y179000I2120*
G01*
X130051*
G75*
G02X127087Y180945I-844J1945*
G01*
G75*
G02X127437Y182112I2120*
G01*
X125689*
Y188124*
X131307*
Y186287*
G75*
G02X131398Y186204I-1109J-1294*
G01*
X131757Y185845*
G75*
G02X133443Y186045I1072J-1828*
G01*
G75*
G02X133386Y186535I2088J493*
G01*
G75*
G02X137626I2120*
G01*
Y186535*
G75*
G02X134891Y184506I-2120*
G01*
G75*
G02X134949Y184015I-2061J-490*
G01*
G75*
G02X134625Y182890I-2118J0*
G01*
X152356*
X153797Y184288*
Y191181*
G75*
G02X154367Y192556I1945J0*
G01*
X156335Y194525*
G75*
G02X157713Y195094I1375J-1375*
G01*
X165720*
G75*
G02X165590Y195827I1990J732*
G01*
G75*
G02X165643Y196299I2120J1*
G01*
G37*
X171707Y224381D02*
G36*
X168474D01*
Y223031*
G75*
G02X167949Y221765I-1788*
G01*
X167923Y221740*
Y210748*
G75*
G02X167398Y209482I-1788*
G01*
X166842Y208926*
G75*
G02X169673Y206930I711J-1997*
G01*
Y206929*
Y206929*
G75*
G02X167620Y204810I-2120*
G01*
G75*
G02X167238Y204762I-383J1493*
G01*
X161963*
G75*
G02X160874Y205213I0J1537*
G01*
X160011Y206077*
G75*
G02X159559Y207165I1085J1088*
G01*
Y207165*
Y213512*
G75*
G02X159323Y214331I1302J819*
G01*
Y220787*
G75*
G02Y220789I1650J1*
G01*
G75*
G02X159638Y221720I1534*
G01*
Y221814*
X152612Y214788*
G75*
G02X151411Y214289I-1200J1195*
G01*
X151268*
G75*
G02X147957Y215395I-1274J1694*
G01*
X146650Y214088*
Y208808*
G75*
G02X149752Y206929I982J-1879*
G01*
G75*
G02X146650Y205050I-2120J0*
G01*
Y196299*
X151594*
G75*
G02X155835I2120*
G01*
X165643*
G75*
G02X168406Y197830I2067J-472*
G01*
X170953Y200377*
G75*
G02X171707Y200792I1088J-1086*
G01*
Y212319*
X173355*
Y212445*
X171707*
Y224381*
G37*
X168709Y93446D02*
Y92382D01*
G75*
G02X169004Y90132I-1628J-1358*
G01*
X170677*
Y89629*
X171685Y90637*
Y92749*
X168776Y95659*
Y93917*
G75*
G02X168709Y93446I-1695*
G01*
G36*
Y92382*
G75*
G02X169004Y90132I-1628J-1358*
G01*
X170677*
Y89629*
X171685Y90637*
Y92749*
X168776Y95659*
Y93917*
G75*
G02X168709Y93446I-1695*
G01*
G37*
X169075Y70054D02*
G75*
G02X167807Y69044I-2309J1599D01*
G01*
G75*
G02X169296Y68565I140J-2115*
G01*
G75*
G02X169806Y69558I1800J-297*
G01*
X169868Y69620*
G75*
G02X169075Y70054I598J2034*
G01*
G36*
G75*
G02X167807Y69044I-2309J1599*
G01*
G75*
G02X169296Y68565I140J-2115*
G01*
G75*
G02X169806Y69558I1800J-297*
G01*
X169868Y69620*
G75*
G02X169075Y70054I598J2034*
G01*
G37*
X169299Y106561D02*
X166159D01*
X166840Y105880*
X169299*
Y101317*
G75*
G02X169744Y101007I-643J-1396*
G01*
X170686Y100065*
G75*
G02X171096Y99330I-1087J-1089*
G01*
Y105965*
X176372*
Y104010*
X177354*
X178327Y104983*
Y107096*
X178015Y106785*
G75*
G02X177002Y106364I-1014J1010*
G01*
X173695*
G75*
G02X172681Y106785I0J1431*
G01*
X169299Y110167*
Y106561*
G36*
X166159*
X166840Y105880*
X169299*
Y101317*
G75*
G02X169744Y101007I-643J-1396*
G01*
X170686Y100065*
G75*
G02X171096Y99330I-1087J-1089*
G01*
Y105965*
X176372*
Y104010*
X177354*
X178327Y104983*
Y107096*
X178015Y106785*
G75*
G02X177002Y106364I-1014J1010*
G01*
X173695*
G75*
G02X172681Y106785I0J1431*
G01*
X169299Y110167*
Y106561*
G37*
X170473Y195548D02*
X169967Y195043D01*
G75*
G02X170609Y194762I-446J-1893*
G01*
G75*
G02X170472Y195512I1983J750*
G01*
G75*
G02X170473Y195548I2115J-4*
G01*
G36*
X169967Y195043*
G75*
G02X170609Y194762I-446J-1893*
G01*
G75*
G02X170472Y195512I1983J750*
G01*
G75*
G02X170473Y195548I2115J-4*
G01*
G37*
X170677Y85498D02*
X163856D01*
G75*
G02X161860Y82841I-2051J-537*
G01*
X160295Y81276*
G75*
G02X159591Y80874I-1089J1087*
G01*
G75*
G02X159761Y80880I167J-2214*
G01*
X167413*
G75*
G02X171096Y78772I1085J-2376*
G01*
Y81752*
X176372*
Y76124*
X176831Y76583*
Y81102*
G75*
G02X177365Y82393I1825J0*
G01*
X178625Y83652*
G75*
G02X179916Y84187I1291J-1290*
G01*
X186941*
G75*
G02X186723Y84368I1242J1717*
G01*
X172907*
G75*
G02X171819Y84820J1538*
G01*
X170677Y85962*
Y85498*
G36*
X163856*
G75*
G02X161860Y82841I-2051J-537*
G01*
X160295Y81276*
G75*
G02X159591Y80874I-1089J1087*
G01*
G75*
G02X159761Y80880I167J-2214*
G01*
X167413*
G75*
G02X171096Y78772I1085J-2376*
G01*
Y81752*
X176372*
Y76124*
X176831Y76583*
Y81102*
G75*
G02X177365Y82393I1825J0*
G01*
X178625Y83652*
G75*
G02X179916Y84187I1291J-1290*
G01*
X186941*
G75*
G02X186723Y84368I1242J1717*
G01*
X172907*
G75*
G02X171819Y84820J1538*
G01*
X170677Y85962*
Y85498*
G37*
X171096Y78236D02*
G75*
G02X170701Y77100I-2598J268D01*
G01*
X171096*
Y78236*
G36*
G75*
G02X170701Y77100I-2598J268*
G01*
X171096*
Y78236*
G37*
X172435Y190024D02*
Y189062D01*
G75*
G02X172724Y188268I-945J-794*
G01*
Y177532*
G75*
G02X172882Y176929I-1077J-603*
G01*
Y155857*
X183622Y166597*
Y167593*
X197902*
Y165362*
X209124*
Y164620*
X214744*
Y187683*
X211404Y191024*
X204452*
X202264Y188835*
G75*
G02X201175Y188384I-1089J1086*
G01*
X199962*
X197776Y186198*
G75*
G02X196687Y185746I-1089J1086*
G01*
X196425*
Y184278*
X190807*
Y190024*
X190126*
Y184278*
X184508*
Y185496*
X184024*
Y184278*
X183002*
Y171535*
G75*
G02X182476Y170269I-1787*
G01*
X179348Y167141*
G75*
G02X175157Y167598I-2070J457*
G01*
G75*
G02X176820Y169669I2120*
G01*
X179427Y172276*
Y184278*
X178406*
Y190024*
X172435*
G36*
Y189062*
G75*
G02X172724Y188268I-945J-794*
G01*
Y177532*
G75*
G02X172882Y176929I-1077J-603*
G01*
Y155857*
X183622Y166597*
Y167593*
X197902*
Y165362*
X209124*
Y164620*
X214744*
Y187683*
X211404Y191024*
X204452*
X202264Y188835*
G75*
G02X201175Y188384I-1089J1086*
G01*
X199962*
X197776Y186198*
G75*
G02X196687Y185746I-1089J1086*
G01*
X196425*
Y184278*
X190807*
Y190024*
X190126*
Y184278*
X184508*
Y185496*
X184024*
Y184278*
X183002*
Y171535*
G75*
G02X182476Y170269I-1787*
G01*
X179348Y167141*
G75*
G02X175157Y167598I-2070J457*
G01*
G75*
G02X176820Y169669I2120*
G01*
X179427Y172276*
Y184278*
X178406*
Y190024*
X172435*
G37*
X172596Y72348D02*
X172470D01*
G75*
G02X172500Y72252I-2001J-693*
G01*
X172596Y72348*
G36*
X172470*
G75*
G02X172500Y72252I-2001J-693*
G01*
X172596Y72348*
G37*
X172921Y67512D02*
Y64393D01*
X173811Y65283*
Y66572*
G75*
G02X173238Y67829I1538J1460*
G01*
X172921Y67512*
G36*
Y64393*
X173811Y65283*
Y66572*
G75*
G02X173238Y67829I1538J1460*
G01*
X172921Y67512*
G37*
X173143Y225312D02*
G75*
G02X172507Y224720I-1731J1224D01*
G01*
X173251*
G75*
G02X173143Y225312I2177J706*
G01*
G36*
G75*
G02X172507Y224720I-1731J1224*
G01*
X173251*
G75*
G02X173143Y225312I2177J706*
G01*
G37*
X175435Y122827D02*
X172971D01*
X173508Y122289*
G75*
G02X173689Y122069I-1010J-1013*
G01*
X175110*
Y121793*
X176179*
G75*
G02X177112Y122140I933J-1085*
G01*
X179199*
Y122281*
X180180*
G75*
G02X180301Y124954I1704J1262*
G01*
G75*
G02X180152Y124947I-150J1582*
G01*
X177769*
G75*
G02X175435Y123089I-2105J250*
G01*
Y122827*
G36*
X172971*
X173508Y122289*
G75*
G02X173689Y122069I-1010J-1013*
G01*
X175110*
Y121793*
X176179*
G75*
G02X177112Y122140I933J-1085*
G01*
X179199*
Y122281*
X180180*
G75*
G02X180301Y124954I1704J1262*
G01*
G75*
G02X180152Y124947I-150J1582*
G01*
X177769*
G75*
G02X175435Y123089I-2105J250*
G01*
Y122827*
G37*
X179954Y225615D02*
G75*
G02X178139Y225391I-1141J1787D01*
G01*
G75*
G02X178180Y224961I-2246J-431*
G01*
Y224720*
X180081*
Y212445*
X178180*
Y212319*
X180081*
Y200844*
X182787Y203550*
Y224000*
G75*
G02X179954Y225615I-746J1985*
G01*
G36*
G75*
G02X178139Y225391I-1141J1787*
G01*
G75*
G02X178180Y224961I-2246J-431*
G01*
Y224720*
X180081*
Y212445*
X178180*
Y212319*
X180081*
Y200844*
X182787Y203550*
Y224000*
G75*
G02X179954Y225615I-746J1985*
G01*
G37*
X181189Y110903D02*
Y110880D01*
X186031*
Y105965*
X186372*
Y105540*
G75*
G02X186713Y105726I1182J-1761*
G01*
Y110880*
X187984*
Y110945*
G75*
G02X188042Y111362I1538J0*
G01*
G75*
G02X190097Y113694I2110J213*
G01*
X190559Y114157*
G75*
G02X191648Y114608I1089J-1086*
G01*
X192854*
Y115183*
X188225*
X184708Y111667*
G75*
G02X183695Y111246I-1014J1010*
G01*
X181532*
X181189Y110903*
G36*
Y110880*
X186031*
Y105965*
X186372*
Y105540*
G75*
G02X186713Y105726I1182J-1761*
G01*
Y110880*
X187984*
Y110945*
G75*
G02X188042Y111362I1538J0*
G01*
G75*
G02X190097Y113694I2110J213*
G01*
X190559Y114157*
G75*
G02X191648Y114608I1089J-1086*
G01*
X192854*
Y115183*
X188225*
X184708Y111667*
G75*
G02X183695Y111246I-1014J1010*
G01*
X181532*
X181189Y110903*
G37*
X182343Y30197D02*
Y40794D01*
X179244Y43894*
G75*
G02X178573Y45512I1617J1619*
G01*
Y45734*
X173642*
Y50628*
G75*
G02X172541Y53150I2337J2521*
G01*
G75*
G02X179416I3437*
G01*
G75*
G02X179116Y51746I-3437*
G01*
X179260*
Y51028*
X179325*
G75*
G02X180943Y50357I0J-2287*
G01*
X182477Y48823*
G75*
G02X183148Y47205I-1617J-1619*
G01*
Y46459*
X186916Y42691*
X191871*
X192073Y42918*
G75*
G02X194547Y42248I1071J-949*
G01*
Y44409*
G75*
G02X194968Y45423I1431J0*
G01*
X195650Y46105*
Y47083*
G75*
G02Y47086I660J1*
G01*
G75*
G02Y47087I663J0*
G01*
G75*
G02X196069Y48098I1431J0*
G01*
X196122Y48152*
Y52888*
X201852*
X201880Y52916*
Y58186*
X199834Y60232*
X199222*
G75*
G02X197582Y60925J2287*
G01*
X196185*
Y61423*
X195224*
Y60596*
X184488*
Y61207*
X184404*
G75*
G02X184243Y66820J2809*
G01*
G75*
G02X184488Y66992I1817J-2333*
G01*
Y68183*
X195224*
Y67356*
X196185*
Y67799*
X202260*
Y66099*
G75*
G02X204185Y66179I1041J-1847*
G01*
Y67799*
X205043*
Y78445*
X202409*
Y78110*
G75*
G02X201815Y76679I-2022*
G01*
X200953Y75817*
G75*
G02X199522Y75222I-1431J1428*
G01*
X187789*
G75*
G02X186372Y75802J2022*
G01*
Y74980*
X181096*
Y80537*
X180671*
X180480Y80346*
Y75827*
G75*
G02X179946Y74537I-1825J0*
G01*
X175551Y70142*
G75*
G02X176886Y66572I-203J-2110*
G01*
Y64646*
G75*
G02X176434Y63557I-1538*
G01*
X165626Y52749*
Y49941*
G75*
G02X165174Y48852I-1538*
G01*
X164862Y48540*
G75*
G02X164404Y48224I-1088J1086*
G01*
Y46240*
X159128*
Y52663*
X154404*
Y46240*
X149128*
Y48089*
X146399*
X143846Y45536*
G75*
G02X139606Y45591I-2119J55*
G01*
G75*
G02X141672Y47710I2120*
G01*
X144673Y50712*
G75*
G02X144739Y50774I1089J-1092*
G01*
X132561*
X119473Y37686*
G75*
G02X118183Y37152I-1291J1290*
G01*
X103112*
X99867Y33907*
G75*
G02X98576Y33372I-1291J1290*
G01*
X74654*
Y30205*
X79246*
G75*
G02X79941Y30001J-1287*
G01*
X80624Y30000*
Y15244*
X149711*
Y28819*
G75*
G02X149719Y28961I1287*
G01*
Y30197*
X182343*
X158031Y43976D02*
G75*
G02X162272I2120D01*
G01*
G75*
G02X158031I-2120*
G01*
X141136Y40338D02*
G75*
G02X144010Y37402I1063J-1834D01*
G01*
G75*
G02Y35197I-1811J-1102*
G01*
G75*
G02X142193Y31974I-1811J-1102*
G01*
G75*
G02Y31969I-2128J-3*
G01*
G75*
G02X138970Y30157I-2120*
G01*
G75*
G02X136766I-1102J1811*
G01*
G75*
G02X133829Y33031I-1102J1811*
G01*
G75*
G02X133852Y35197I1834J1063*
G01*
G75*
G02X135652Y38419I1811J1102*
G01*
G75*
G02X138201Y39499I1901J-939*
G01*
G75*
G02X141136Y40338I1872J-995*
G01*
X144070Y32289D02*
G75*
G02X148256Y31811I2065J-478D01*
G01*
G75*
G02X146666Y29758I-2120*
G01*
G75*
G02X142480Y30236I-2065J478*
G01*
G75*
G02X144070Y32289I2120*
G01*
X124055Y19272D02*
G75*
G02X129673I2809D01*
G01*
G75*
G02X124055I-2809*
G01*
X102992Y33228D02*
G75*
G02X107232I2120D01*
G01*
G75*
G02X102992I-2120*
G01*
X92953Y19272D02*
G75*
G02X98571I2809D01*
G01*
G75*
G02X92953I-2809*
G01*
X149711D02*
G36*
X129673D01*
G75*
G02X124055I-2809*
G01*
X98571*
G75*
G02X92953I-2809*
G01*
X80624*
Y15494*
X149711*
Y19272*
G37*
X182343Y31024D02*
G36*
X148104D01*
G75*
G02X146666Y29758I-1969J787*
G01*
G75*
G02X142480Y30236I-2065J478*
G01*
G75*
G02X142632Y31024I2120*
G01*
X141971*
G75*
G02X138970Y30157I-1898J945*
G01*
G75*
G02X136766I-1102J1811*
G01*
G75*
G02X133766Y31024I-1102J1811*
G01*
X74904*
Y30205*
X79246*
G75*
G02X79941Y30001I0J-1286*
G01*
X80624Y30000*
Y19272*
X92953*
G75*
G02X98571I2809*
G01*
X124055*
G75*
G02X129673I2809*
G01*
X149711*
Y28819*
Y28819*
G75*
G02X149719Y28961I1281*
G01*
Y30197*
X182343*
Y31024*
G37*
X133728Y33228D02*
G36*
X107232D01*
G75*
G02X102992I-2120*
G01*
X74904*
Y31024*
X133766*
G75*
G02X133543Y31969I1898J945*
G01*
G75*
G02X133829Y33031I2120*
G01*
G75*
G02X133728Y33228I1833J1063*
G01*
G37*
X182343D02*
G36*
X147713D01*
G75*
G02X148256Y31811I-1577J-1417*
G01*
G75*
G02X148104Y31024I-2120*
G01*
X182343*
Y33228*
G37*
X142632Y31024D02*
G36*
G75*
G02X144070Y32289I1969J-787D01*
G01*
G75*
G02X144559Y33228I2065J-478*
G01*
X144134*
G75*
G02X142193Y31974I-1935J866*
G01*
Y31969*
Y31968*
G75*
G02X141971Y31024I-2120*
G01*
X142632*
G37*
X102992Y33228D02*
G36*
G75*
G02X104431Y35236I2120D01*
G01*
X101196*
X99867Y33907*
G75*
G02X98576Y33372I-1291J1291*
G01*
X74904*
Y33228*
X102992*
G37*
X182343Y35236D02*
G36*
X144033D01*
G75*
G02X144010Y35197I-1835J1056*
G01*
G75*
G02X144319Y34094I-1811J-1102*
G01*
G75*
G02X144134Y33228I-2120*
G01*
X144559*
G75*
G02X147713I1577J-1417*
G01*
X182343*
Y35236*
G37*
X133728Y33228D02*
G36*
G75*
G02X133543Y34094I1934J866D01*
G01*
G75*
G02X133852Y35197I2120J0*
G01*
G75*
G02X133829Y35236I1812J1096*
G01*
X105793*
G75*
G02X107232Y33228I-681J-2008*
G01*
X133728*
G37*
X182343Y35236D02*
G36*
Y40794D01*
X179244Y43894*
G75*
G02X179165Y43976I1616J1618*
G01*
X162272*
G75*
G02X158031I-2120*
G01*
X143100*
G75*
G02X140352I-1374J1615*
G01*
X125763*
X119473Y37686*
G75*
G02X118183Y37152I-1291J1291*
G01*
X103112*
X101196Y35236*
X104431*
G75*
G02X105793I681J-2008*
G01*
X133829*
G75*
G02X133543Y36299I1835J1063*
G01*
G75*
G02X135652Y38419I2120*
G01*
G75*
G02X138201Y39499I1900J-938*
G01*
G75*
G02X141136Y40338I1872J-995*
G01*
G75*
G02X144319Y38504I1063J-1834*
G01*
G75*
G02X144010Y37402I-2120*
G01*
G75*
G02X144319Y36299I-1811J-1102*
G01*
G75*
G02X144033Y35236I-2120J0*
G01*
X182343*
G37*
X194547Y43976D02*
G36*
X185631D01*
X186916Y42691*
X191871*
X192073Y42918*
G75*
G02X194547Y42248I1071J-949*
G01*
Y43976*
G37*
X181096Y80287D02*
G36*
X180480D01*
Y75827*
G75*
G02X179946Y74537I-1824*
G01*
X175551Y70142*
G75*
G02X177469Y68031I-203J-2110*
G01*
G75*
G02X176886Y66572I-2120*
G01*
Y64646*
Y64645*
G75*
G02X176434Y63557I-1537*
G01*
X165626Y52749*
Y49941*
Y49941*
G75*
G02X165174Y48852I-1537*
G01*
X164862Y48540*
G75*
G02X164404Y48224I-1093J1093*
G01*
Y46240*
X159128*
Y52663*
X154404*
Y46240*
X149128*
Y48089*
X146399*
X143846Y45536*
G75*
G02X143100Y43976I-2119J55*
G01*
X158031*
G75*
G02X162272I2120*
G01*
X179165*
G75*
G02X178573Y45512I1694J1535*
G01*
Y45734*
X173642*
Y50628*
G75*
G02X172541Y53149I2335J2520*
G01*
G75*
G02Y53150I3007J0*
G01*
G75*
G02X179416I3437*
G01*
G75*
G02Y53148I-3470J-1*
G01*
G75*
G02X179116Y51746I-3430*
G01*
X179260*
Y51028*
X179325*
G75*
G02X180943Y50357J-2287*
G01*
X182477Y48823*
G75*
G02X183148Y47205I-1616J-1618*
G01*
Y46459*
X185631Y43976*
X194547*
Y44409*
G75*
G02X194968Y45423I1430*
G01*
X195650Y46105*
Y47083*
Y47086*
Y47087*
G75*
G02X196069Y48098I1431J0*
G01*
X196122Y48152*
Y52888*
X201852*
X201880Y52916*
Y58186*
X199834Y60232*
X199222*
G75*
G02X197582Y60925J2288*
G01*
X196185*
Y61423*
X195224*
Y60596*
X184488*
Y61207*
X184404*
G75*
G02X181594Y64016J2809*
G01*
G75*
G02X184243Y66820I2809*
G01*
G75*
G02X184488Y66992I1831J-2353*
G01*
Y68183*
X195224*
Y67356*
X196185*
Y67799*
X202260*
Y66099*
G75*
G02X204185Y66179I1041J-1845*
G01*
Y67799*
X204793*
Y78445*
X202409*
Y78110*
G75*
G02X201815Y76679I-2022*
G01*
X200953Y75817*
G75*
G02X199522Y75222I-1431J1427*
G01*
X187789*
G75*
G02X186372Y75802I-1J2019*
G01*
Y74980*
X181096*
Y80287*
G37*
X140352Y43976D02*
G36*
G75*
G02X139606Y45591I1374J1614D01*
G01*
G75*
G02X141672Y47710I2120*
G01*
X144673Y50712*
G75*
G02X144739Y50774I868J-857*
G01*
X132561*
X125763Y43976*
X140352*
G37*
X182756Y125512D02*
X182671D01*
G75*
G02X182773Y125468I-790J-1967*
G01*
G75*
G02X182756Y125512I1478J593*
G01*
G36*
X182671*
G75*
G02X182773Y125468I-790J-1967*
G01*
G75*
G02X182756Y125512I1478J593*
G01*
G37*
X183329Y127467D02*
X182713Y126850D01*
X182867*
G75*
G02X183123Y127186I1380J-787*
G01*
X183403Y127467*
X183329*
G36*
X182713Y126850*
X182867*
G75*
G02X183123Y127186I1380J-787*
G01*
X183403Y127467*
X183329*
G37*
X184024Y190024D02*
Y189071D01*
X184508*
Y190024*
X184024*
G36*
Y189071*
X184508*
Y190024*
X184024*
G37*
X185677Y117348D02*
Y116683D01*
X186342Y117348*
X185677*
G36*
Y116683*
X186342Y117348*
X185677*
G37*
Y125248D02*
Y122640D01*
X185744Y122573*
X189072*
G75*
G02X189220Y122746I1157J-842*
G01*
X190398Y123924*
G75*
G02X190886Y124244I1014J-1010*
G01*
Y124541*
X192999*
X191763Y125813*
X189665*
X189364Y125512*
X185941*
X185677Y125248*
G36*
Y122640*
X185744Y122573*
X189072*
G75*
G02X189220Y122746I1157J-842*
G01*
X190398Y123924*
G75*
G02X190886Y124244I1014J-1010*
G01*
Y124541*
X192999*
X191763Y125813*
X189665*
X189364Y125512*
X185941*
X185677Y125248*
G37*
X186372Y80537D02*
Y80388D01*
X186667*
G75*
G02X188099Y79794J-2022*
G01*
X188627Y79266*
X191569*
Y79829*
X189998*
G75*
G02X188704Y80363I-4J1824*
G01*
X188530Y80537*
X186372*
G36*
Y80388*
X186667*
G75*
G02X188099Y79794J-2022*
G01*
X188627Y79266*
X191569*
Y79829*
X189998*
G75*
G02X188704Y80363I-4J1824*
G01*
X188530Y80537*
X186372*
G37*
X190886Y118395D02*
X190536Y118045D01*
X190886*
Y118395*
G36*
X190536Y118045*
X190886*
Y118395*
G37*
X191791Y238778D02*
X182109D01*
G75*
G02X178433Y236671I-1879J-982*
G01*
Y235616*
X177715*
Y229215*
G75*
G02X180901Y227771I1098J-1813*
G01*
G75*
G02X183771Y227211I1141J-1787*
G01*
X185283Y228724*
G75*
G02X186083Y229148I1088J-1086*
G01*
Y230841*
X192094*
Y229726*
X194071*
X194359Y230029*
G75*
G02X198571Y229685I2092J-344*
G01*
G75*
G02X196708Y227581I-2120*
G01*
X196024Y226863*
G75*
G02X194796Y226337I-1227J1169*
G01*
X192094*
Y225222*
X186131*
X185862Y224954*
Y202913*
G75*
G02X185411Y201825I-1538*
G01*
X181791Y198206*
G75*
G02X180703Y197754I-1089J1086*
G01*
X172678*
X172556Y197631*
G75*
G02X173985Y193913I37J-2120*
G01*
X175789*
G75*
G02X175512Y194961I1843J1047*
G01*
G75*
G02X179752I2120*
G01*
G75*
G02X179475Y193913I-2120*
G01*
X194622*
X195136Y194428*
Y204627*
G75*
G02X194978Y205394I1787J767*
G01*
Y206522*
X194114*
Y212533*
X195493*
G75*
G02X195837Y213057I1430J-565*
G01*
X195845Y213065*
G75*
G02X196112Y217222I527J2054*
G01*
Y224963*
X198136*
G75*
G02X198849Y225120I713J-1537*
G01*
X201347*
G75*
G02X204791Y223465I1324J-1656*
G01*
G75*
G02X203550Y221535I-2120*
G01*
G75*
G02X201587Y217778I-1036J-1850*
G01*
Y215982*
X200387*
Y215087*
X200402Y215102*
G75*
G02X201490Y215553I1089J-1086*
G01*
X202235*
G75*
G02X204142Y216088I1460J-1537*
G01*
G75*
G02X206162Y218655I2072J447*
G01*
G75*
G02X206512Y218895I1037J-1136*
G01*
Y222994*
X210846*
Y225706*
X210321Y226232*
G75*
G02X210131Y226466I1012J1013*
G01*
G75*
G02X205984Y227087I-2027J620*
G01*
G75*
G02X205987Y227191I2121J-4*
G01*
X205295*
Y232270*
X205087*
Y231089*
X199469*
Y237100*
X200937*
Y240236*
G75*
G02X201389Y241325I1538*
G01*
X201430Y241366*
X200810*
G75*
G02X200607Y241116I-1289J839*
G01*
X199114Y239623*
G75*
G02X198026Y239171I-1089J1086*
G01*
X197803*
Y237506*
X191791*
Y238778*
G36*
X182109*
G75*
G02X178433Y236671I-1879J-982*
G01*
Y235616*
X177715*
Y229215*
G75*
G02X180901Y227771I1098J-1813*
G01*
G75*
G02X183771Y227211I1141J-1787*
G01*
X185283Y228724*
G75*
G02X186083Y229148I1088J-1086*
G01*
Y230841*
X192094*
Y229726*
X194071*
X194359Y230029*
G75*
G02X198571Y229685I2092J-344*
G01*
G75*
G02X196708Y227581I-2120*
G01*
X196024Y226863*
G75*
G02X194796Y226337I-1227J1169*
G01*
X192094*
Y225222*
X186131*
X185862Y224954*
Y202913*
G75*
G02X185411Y201825I-1538*
G01*
X181791Y198206*
G75*
G02X180703Y197754I-1089J1086*
G01*
X172678*
X172556Y197631*
G75*
G02X173985Y193913I37J-2120*
G01*
X175789*
G75*
G02X175512Y194961I1843J1047*
G01*
G75*
G02X179752I2120*
G01*
G75*
G02X179475Y193913I-2120*
G01*
X194622*
X195136Y194428*
Y204627*
G75*
G02X194978Y205394I1787J767*
G01*
Y206522*
X194114*
Y212533*
X195493*
G75*
G02X195837Y213057I1430J-565*
G01*
X195845Y213065*
G75*
G02X196112Y217222I527J2054*
G01*
Y224963*
X198136*
G75*
G02X198849Y225120I713J-1537*
G01*
X201347*
G75*
G02X204791Y223465I1324J-1656*
G01*
G75*
G02X203550Y221535I-2120*
G01*
G75*
G02X201587Y217778I-1036J-1850*
G01*
Y215982*
X200387*
Y215087*
X200402Y215102*
G75*
G02X201490Y215553I1089J-1086*
G01*
X202235*
G75*
G02X204142Y216088I1460J-1537*
G01*
G75*
G02X206162Y218655I2072J447*
G01*
G75*
G02X206512Y218895I1037J-1136*
G01*
Y222994*
X210846*
Y225706*
X210321Y226232*
G75*
G02X210131Y226466I1012J1013*
G01*
G75*
G02X205984Y227087I-2027J620*
G01*
G75*
G02X205987Y227191I2121J-4*
G01*
X205295*
Y232270*
X205087*
Y231089*
X199469*
Y237100*
X200937*
Y240236*
G75*
G02X201389Y241325I1538*
G01*
X201430Y241366*
X200810*
G75*
G02X200607Y241116I-1289J839*
G01*
X199114Y239623*
G75*
G02X198026Y239171I-1089J1086*
G01*
X197803*
Y237506*
X191791*
Y238778*
G37*
X196802Y190593D02*
G75*
G02X196409Y190289I-1376J1375D01*
G01*
X196425*
Y189196*
X198236Y191007*
G75*
G02X198253Y191024I1087J-1096*
G01*
X197233*
X196802Y190593*
G36*
G75*
G02X196409Y190289I-1376J1375*
G01*
X196425*
Y189196*
X198236Y191007*
G75*
G02X198253Y191024I1087J-1096*
G01*
X197233*
X196802Y190593*
G37*
X198856Y192827D02*
G75*
G02X198781Y192677I-1775J794D01*
G01*
X201757*
X201907Y192827*
X198856*
G36*
G75*
G02X198781Y192677I-1775J794*
G01*
X201757*
X201907Y192827*
X198856*
G37*
X199012Y260513D02*
Y256156D01*
X200051*
Y260033*
G75*
G02X199012Y260513I337J2093*
G01*
G36*
Y256156*
X200051*
Y260033*
G75*
G02X199012Y260513I337J2093*
G01*
G37*
X201870Y30197D02*
Y42312D01*
G75*
G02X201819Y42204I-2735J1231*
G01*
Y30197*
X201870*
G36*
Y42312*
G75*
G02X201819Y42204I-2735J1231*
G01*
Y30197*
X201870*
G37*
X202134Y47791D02*
Y47757D01*
G75*
G02X202159Y47791I1166J-831*
G01*
X202134*
G36*
Y47757*
G75*
G02X202159Y47791I1166J-831*
G01*
X202134*
G37*
X203896Y48462D02*
G75*
G02X203787Y48360I-1621J1619D01*
G01*
X205807*
Y50374*
G75*
G02X205784Y50350I-1633J1609*
G01*
X203896Y48462*
G36*
G75*
G02X203787Y48360I-1621J1619*
G01*
X205807*
Y50374*
G75*
G02X205784Y50350I-1633J1609*
G01*
X203896Y48462*
G37*
X204012Y239600D02*
Y237100D01*
X205087*
Y235132*
X205177*
Y240093*
X205759*
X205621Y240230*
G75*
G02X205247Y240835I1086J1089*
G01*
G75*
G02X205233Y240821I-1107J1063*
G01*
X204012Y239600*
G36*
Y237100*
X205087*
Y235132*
X205177*
Y240093*
X205759*
X205621Y240230*
G75*
G02X205247Y240835I1086J1089*
G01*
G75*
G02X205233Y240821I-1107J1063*
G01*
X204012Y239600*
G37*
X205702Y192827D02*
G75*
G02X205687Y192677I-1535J86D01*
G01*
X209750*
X209601Y192827*
X205702*
G36*
G75*
G02X205687Y192677I-1535J86*
G01*
X209750*
X209601Y192827*
X205702*
G37*
X209124Y159002D02*
Y158189D01*
X214744*
Y159002*
X209124*
G36*
Y158189*
X214744*
Y159002*
X209124*
G37*
X209230Y60925D02*
X205611D01*
X205784Y60752*
G75*
G02X206455Y59134I-1617J-1619*
G01*
Y52730*
X210805*
Y58078*
X209754Y59130*
G75*
G02X209230Y60394I1264J1264*
G01*
G75*
G02Y60397I641J2*
G01*
Y60925*
G36*
X205611*
X205784Y60752*
G75*
G02X206455Y59134I-1617J-1619*
G01*
Y52730*
X210805*
Y58078*
X209754Y59130*
G75*
G02X209230Y60394I1264J1264*
G01*
G75*
G02Y60397I641J2*
G01*
Y60925*
G37*
X211002Y249967D02*
X200470D01*
X200529Y249907*
G75*
G02X200962Y249057I-1086J-1089*
G01*
X203160*
G75*
G02X204250Y248607I4J-1537*
G01*
X205235Y247622*
G75*
G02X205600Y247041I-1087J-1088*
G01*
X208443*
Y241757*
X208875Y241325*
G75*
G02X209327Y240236I-1086J-1089*
G01*
Y240093*
X210795*
Y234936*
G75*
G02X211085Y234713I-723J-1235*
G01*
X212344Y233453*
G75*
G02X212544Y233203I-1011J-1012*
G01*
X216016*
Y240859*
X214642Y242233*
G75*
G02X211685Y245211I-1262J1704*
G01*
Y249692*
X211002Y250375*
Y249967*
G36*
X200470*
X200529Y249907*
G75*
G02X200962Y249057I-1086J-1089*
G01*
X203160*
G75*
G02X204250Y248607I4J-1537*
G01*
X205235Y247622*
G75*
G02X205600Y247041I-1087J-1088*
G01*
X208443*
Y241757*
X208875Y241325*
G75*
G02X209327Y240236I-1086J-1089*
G01*
Y240093*
X210795*
Y234936*
G75*
G02X211085Y234713I-723J-1235*
G01*
X212344Y233453*
G75*
G02X212544Y233203I-1011J-1012*
G01*
X216016*
Y240859*
X214642Y242233*
G75*
G02X211685Y245211I-1262J1704*
G01*
Y249692*
X211002Y250375*
Y249967*
G37*
X211986Y219469D02*
Y217248D01*
X212663*
G75*
G02X213081Y218018I1504J-319*
G01*
X213969Y218905*
Y219460*
G75*
G02X211986Y219469I-982J1879*
G01*
G36*
Y217248*
X212663*
G75*
G02X213081Y218018I1504J-319*
G01*
X213969Y218905*
Y219460*
G75*
G02X211986Y219469I-982J1879*
G01*
G37*
X214380Y53411D02*
Y52730D01*
X218404*
Y53411*
X214380*
G36*
Y52730*
X218404*
Y53411*
X214380*
G37*
X215720Y227191D02*
X213397D01*
G75*
G02X213709Y226299I-1119J-892*
G01*
G75*
G02Y226298I-663J0*
G01*
G75*
G02Y226296I-660J-1*
G01*
Y223332*
G75*
G02X213969Y223217I-724J-1993*
G01*
Y224803*
G75*
G02X214420Y225892I1538*
G01*
X215720Y227191*
G36*
X213397*
G75*
G02X213709Y226299I-1119J-892*
G01*
G75*
G02Y226298I-663J0*
G01*
G75*
G02Y226296I-660J-1*
G01*
Y223332*
G75*
G02X213969Y223217I-724J-1993*
G01*
Y224803*
G75*
G02X214420Y225892I1538*
G01*
X215720Y227191*
G37*
X217213Y228752D02*
Y228684D01*
X217328Y228800*
G75*
G02X217213Y228752I-644J1397*
G01*
G36*
Y228684*
X217328Y228800*
G75*
G02X217213Y228752I-644J1397*
G01*
G37*
X219772Y30197D02*
X231797D01*
Y260209*
X220191*
G75*
G02X218904Y261496J1287*
G01*
Y283307*
X167344*
Y274488*
G75*
G02X167238Y273976I-1287*
G01*
Y266850*
X166013*
X167647Y265216*
G75*
G02X168146Y264016I-1196J-1200*
G01*
Y262337*
X169654*
Y260490*
G75*
G02X170335Y260833I1011J-1159*
G01*
Y262337*
X175953*
Y256325*
X171439*
G75*
G02X171080Y255762I-1445J526*
G01*
X170059Y254741*
G75*
G02X169752Y254503I-1089J1087*
G01*
Y247762*
X168638*
Y245354*
G75*
G02X168128Y244143I-1695*
G01*
X165183Y241254*
X170480*
Y240713*
X172421*
Y241234*
X178346*
X178512Y241401*
G75*
G02X179600Y241852I1089J-1086*
G01*
X191791*
Y243124*
X197803*
Y242661*
X197984Y242842*
Y243697*
G75*
G02Y243700I868J2*
G01*
G75*
G02Y243701I740J0*
G01*
G75*
G02X198435Y244788I1537*
G01*
X198938Y245291*
G75*
G02X199852Y245731I1087J-1087*
G01*
Y245982*
X199443*
G75*
G02X197906Y247520J1537*
G01*
Y248182*
X197861Y248226*
X194246*
G75*
G02X192709Y249764J1537*
G01*
Y255077*
X189450*
X184843Y250469*
G75*
G02X183754Y250018I-1089J1086*
G01*
X182350*
Y247762*
X176965*
Y247533*
X178433*
Y241915*
X172421*
Y247533*
X173890*
Y247762*
X171614*
Y255348*
X182350*
Y253093*
X183117*
X187724Y257700*
G75*
G02X188813Y258152I1089J-1086*
G01*
X194246*
G75*
G02X195622Y257300J-1537*
G01*
Y262835*
G75*
G02X196120Y264035I1694*
G01*
X197770Y265685*
G75*
G02X198970Y266183I1200J-1196*
G01*
X202199*
G75*
G02X203399Y265685J-1694*
G01*
X205443Y263641*
G75*
G02X205941Y262441I-1196J-1200*
G01*
Y262142*
G75*
G02X208382Y258884I746J-1985*
G01*
Y255642*
X211002*
Y254372*
X211096*
G75*
G02X212297Y253874J-1694*
G01*
X213732Y252438*
Y257480*
G75*
G02X214184Y258569I1538*
G01*
X215228Y259613*
Y264796*
X211720Y268305*
X209994*
G75*
G02X208906Y268757J1538*
G01*
X208492Y269171*
G75*
G02X202638Y273012I-1667J3841*
G01*
G75*
G02X211012I4187*
G01*
G75*
G02X210681Y271380I-4187*
G01*
X212356*
G75*
G02X213445Y270928J-1538*
G01*
X217852Y266522*
G75*
G02X218303Y265433I-1086J-1089*
G01*
Y258976*
G75*
G02X217852Y257888I-1538*
G01*
X216807Y256844*
Y247251*
X220529Y243530*
G75*
G02X220980Y242441I-1086J-1089*
G01*
Y228740*
G75*
G02X220529Y227652I-1538*
G01*
X217043Y224167*
Y218268*
G75*
G02X216656Y217248I-1537J0*
G01*
X221254*
G75*
G02X223541Y214961J-2287*
G01*
Y204567*
G75*
G02X221254Y202280I-2287*
G01*
X207081*
G75*
G02X204793Y204567J2287*
G01*
Y212202*
G75*
G02X202235Y212478I-1098J1813*
G01*
X202127*
X201689Y212041*
Y210787*
G75*
G02X201237Y209699I-1538*
G01*
X199980Y208442*
G75*
G02X199732Y208240I-1089J1087*
G01*
Y206522*
X198868*
Y206003*
G75*
G02X199026Y205236I-1787J-767*
G01*
Y201201*
X210305*
Y200611*
X210499*
G75*
G02X213043Y199557J-3596*
G01*
X220883Y191717*
G75*
G02X221261Y191272I-2542J-2545*
G01*
G75*
G02X221260Y191339I2115J71*
G01*
G75*
G02X225500I2120*
G01*
G75*
G02X221873Y189847I-2120*
G01*
G75*
G02X221937Y189173I-3532J-674*
G01*
Y184041*
X225191Y180787*
Y156614*
X221937*
Y153819*
G75*
G02X214744I-3596*
G01*
Y156614*
X207941*
Y155939*
X208138*
Y145203*
X200551*
Y155939*
X200748*
Y156614*
X197902*
Y144983*
X199485Y143400*
X206372*
G75*
G02X206779Y143341J-1431*
G01*
X207424*
G75*
G02X211091Y141890I1546J-1451*
G01*
G75*
G02X208138Y139940I-2120*
G01*
Y137722*
X193813*
G75*
G02X193553Y137735I1J2808*
G01*
G75*
G02X193920Y137415I-1197J-1750*
G01*
X195978*
G75*
G02X196992Y136994I0J-1431*
G01*
X216989Y116998*
G75*
G02X217409Y115984I-1010J-1014*
G01*
Y115790*
X219349Y113850*
G75*
G02X220903Y113270I94J-2118*
G01*
X221884*
G75*
G02X222972Y112818J-1538*
G01*
X224859Y110931*
G75*
G02X225311Y109843I-1086J-1089*
G01*
Y97638*
G75*
G02X224859Y96549I-1538*
G01*
X223346Y95036*
G75*
G02X223226Y94928I-1089J1087*
G01*
Y94567*
G75*
G02X222556Y92949I-2287J0*
G01*
X222367Y92760*
G75*
G02X224978Y89724I777J-1973*
G01*
G75*
G02X222281Y86724I-1834J-1063*
G01*
Y85994*
G75*
G02X224784Y82660I941J-1900*
G01*
G75*
G02X225203Y78661I-459J-2070*
G01*
G75*
G02X226642Y76654I-681J-2007*
G01*
G75*
G02X223207Y74991I-2120*
G01*
Y73701*
G75*
G02X220919Y71413I-2287*
G01*
X220543*
G75*
G02X216926I-1809J1106*
G01*
X215869*
G75*
G02X216445Y69961I-1544J-1453*
G01*
G75*
G02X212205I-2120*
G01*
G75*
G02X212781Y71413I2120*
G01*
X212041*
G75*
G02X209754Y73701J2287*
G01*
Y78346*
G75*
G02X210425Y79965I2287J0*
G01*
X211726Y81266*
G75*
G02X209911Y83504I473J2238*
G01*
Y89705*
G75*
G02X210684Y91419I2287*
G01*
G75*
G02X209892Y93150I1495J1731*
G01*
Y99783*
G75*
G02X210862Y101654I2287*
G01*
G75*
G02X209892Y103524I1317J1870*
G01*
Y108583*
G75*
G02X212179Y110870I2287*
G01*
X217506*
G75*
G02X217323Y111732I1937J862*
G01*
G75*
G02X217325Y111826I2120J3*
G01*
X215500Y113652*
G75*
G02X211260Y113701I-2120J49*
G01*
G75*
G02X214356Y115583I2120*
G01*
X195385Y134553*
X193920*
G75*
G02X193026Y133972I-1565J1431*
G01*
Y130644*
X193380*
G75*
G02X194506Y130176J-1589*
G01*
X197020Y127662*
G75*
G02X197078Y127601I-1125J-1124*
G01*
X198574Y125948*
G75*
G02X198984Y124882I-1178J-1066*
G01*
G75*
G02Y124881I-524J0*
G01*
G75*
G02Y124879I-437J-1*
G01*
Y120239*
G75*
G02Y120237I-455J-1*
G01*
G75*
G02Y120236I-557J0*
G01*
G75*
G02X198519Y119113I-1589*
G01*
X197451Y118045*
X201812*
G75*
G02X201811Y118110I2120J71*
G01*
G75*
G02X206051I2120*
G01*
G75*
G02X204531Y116077I-2120*
G01*
X204772*
Y114608*
X204876*
G75*
G02X205965Y114157J-1538*
G01*
X206277Y113844*
G75*
G02X206728Y112756I-1086J-1089*
G01*
Y110082*
G75*
G02Y110080I-868J-1*
G01*
G75*
G02Y110079I-740J0*
G01*
G75*
G02X206584Y109429I-1537J0*
G01*
X206844*
Y102657*
X201569*
Y109429*
X202706*
G75*
G02X203014Y110065I1500J-334*
G01*
X199154*
Y115183*
X198472*
Y110065*
X192854*
Y111533*
X192285*
X192271Y111520*
G75*
G02X192155Y110880I-2120J54*
G01*
X192331*
Y109429*
X196844*
Y102657*
X195744*
Y96575*
G75*
G02X195293Y95486I-1538*
G01*
X192106Y92300*
G75*
G02X191018Y91848I-1089J1086*
G01*
X183974*
G75*
G02X180394Y93386I-1460J1537*
G01*
G75*
G02X183974Y94923I2120*
G01*
X190381*
X192669Y97212*
Y102657*
X191569*
Y104868*
X189372*
G75*
G02X186372Y102019I-1819J-1089*
G01*
Y99193*
X181096*
Y103883*
G75*
G02X180768Y103376I-1338J507*
G01*
X178960Y101569*
G75*
G02X177947Y101148I-1014J1010*
G01*
X176372*
Y99193*
X171122*
G75*
G02X171138Y98976I-1522J-217*
G01*
Y97645*
X174308Y94474*
G75*
G02X174760Y93386I-1086J-1089*
G01*
Y90000*
G75*
G02X174308Y88911I-1538*
G01*
X173192Y87795*
X173544Y87443*
X186723*
G75*
G02X190303Y85906I1460J-1537*
G01*
G75*
G02X189418Y84182I-2120*
G01*
G75*
G02X190576Y83652I-133J-1820*
G01*
X190750Y83478*
X191569*
Y85217*
X196844*
Y79266*
X198366*
Y80866*
G75*
G02X198960Y82298I2022*
G01*
X199744Y83081*
G75*
G02X201175Y83675I1431J-1428*
G01*
X201569*
Y85217*
X206844*
Y83822*
G75*
G02X208078Y83277I-220J-2168*
G01*
X208675Y82743*
G75*
G02X209402Y81118I-1453J-1624*
G01*
Y67799*
X210260*
Y66306*
X211063*
G75*
G02X212441Y65737I2J-1945*
G01*
X214894Y63283*
X215941*
G75*
G02X219201Y61496I1140J-1787*
G01*
G75*
G02X216807Y59394I-2120*
G01*
X214285*
G75*
G02X214367Y59030I-1693J-574*
G01*
X219457*
Y58008*
X220191*
G75*
G02X221978Y56220J-1787*
G01*
Y51613*
G75*
G02X219457Y48483I-1787J-1140*
G01*
Y47825*
G75*
G02X219772Y46929I-1116J-896*
G01*
Y30197*
X211181Y148189D02*
G75*
G02X215421I2120D01*
G01*
G75*
G02X211181I-2120*
G01*
X204354Y101780D02*
G75*
G02X207626Y100000I1152J-1780D01*
G01*
G75*
G02X204354Y98220I-2120*
G01*
G75*
G02X201083Y100000I-1152J1780*
G01*
G75*
G02X204354Y101780I2120*
G01*
X202047Y88740D02*
G75*
G02X206287I2120D01*
G01*
G75*
G02X202047I-2120*
G01*
X196299Y90236D02*
G75*
G02X200539I2120D01*
G01*
G75*
G02X196299I-2120*
G01*
X225262Y88740D02*
G36*
G75*
G02X225264Y88661I-2116J-82D01*
G01*
G75*
G02X222281Y86724I-2120*
G01*
Y85994*
G75*
G02X225343Y84094I941J-1900*
G01*
G75*
G02X224784Y82660I-2120*
G01*
G75*
G02X226444Y80591I-459J-2070*
G01*
G75*
G02X225203Y78661I-2120*
G01*
G75*
G02X226642Y76654I-681J-2007*
G01*
Y76653*
G75*
G02X223207Y74991I-2120*
G01*
Y73701*
G75*
G02X220919Y71413I-2287*
G01*
X220543*
G75*
G02X216926I-1809J1107*
G01*
X215869*
G75*
G02X216445Y69961I-1543J-1452*
G01*
Y69961*
G75*
G02X212205I-2120*
G01*
Y69961*
G75*
G02X212781Y71413I2119*
G01*
X212041*
G75*
G02X209754Y73701J2287*
G01*
Y78346*
G75*
G02X210425Y79965I2287*
G01*
X211726Y81266*
G75*
G02X209911Y83504I472J2238*
G01*
Y88740*
X206287*
G75*
G02X202047I-2120*
G01*
X199922*
G75*
G02X196917I-1502J1496*
G01*
X174137*
X173192Y87795*
X173544Y87443*
X186723*
G75*
G02X190303Y85906I1460J-1537*
G01*
G75*
G02X189418Y84182I-2121J0*
G01*
G75*
G02X190576Y83652I-133J-1819*
G01*
X190750Y83478*
X191569*
Y85217*
X196844*
Y79266*
X198366*
Y80866*
G75*
G02X198960Y82298I2022*
G01*
X199744Y83081*
G75*
G02X201175Y83675I1431J-1427*
G01*
X201569*
Y85217*
X206844*
Y83822*
G75*
G02X208078Y83277I-219J-2165*
G01*
X208675Y82743*
G75*
G02X209402Y81119I-1452J-1624*
G01*
Y81118*
Y67799*
X210260*
Y66306*
X211063*
G75*
G02X212441Y65737I2J-1944*
G01*
X214894Y63283*
X215941*
G75*
G02X219201Y61496I1140J-1787*
G01*
Y61496*
G75*
G02X216807Y59394I-2120*
G01*
X214285*
G75*
G02X214367Y59030I-1673J-569*
G01*
X219457*
Y58008*
X220191*
G75*
G02X221978Y56220J-1787*
G01*
Y51613*
G75*
G02X222311Y50472I-1787J-1140*
G01*
G75*
G02X219457Y48483I-2120*
G01*
Y47825*
G75*
G02X219772Y46929I-1117J-896*
G01*
Y30447*
X231547*
Y88740*
X225262*
G37*
X209902Y100000D02*
G36*
X207626D01*
G75*
G02X204354Y98220I-2120*
G01*
G75*
G02X201083Y100000I-1152J1780*
G01*
X195744*
Y96575*
Y96574*
G75*
G02X195293Y95486I-1537*
G01*
X192106Y92300*
G75*
G02X191018Y91848I-1088J1085*
G01*
X183974*
G75*
G02X180394Y93386I-1460J1537*
G01*
G75*
G02X183974Y94923I2120*
G01*
X190381*
X192669Y97212*
Y100000*
X186372*
Y99193*
X181096*
Y100000*
X176372*
Y99193*
X171122*
G75*
G02X171138Y98976I-1554J-219*
G01*
Y97645*
X174308Y94474*
G75*
G02X174760Y93386I-1085J-1088*
G01*
Y93386*
Y90000*
Y90000*
G75*
G02X174308Y88911I-1537*
G01*
X174137Y88740*
X196917*
G75*
G02X196299Y90236I1502J1496*
G01*
G75*
G02X200539I2120*
G01*
G75*
G02X199922Y88740I-2120J0*
G01*
X202047*
G75*
G02X206287I2120*
G01*
X209911*
Y89705*
G75*
G02X210684Y91419I2287*
G01*
G75*
G02X209892Y93150I1496J1731*
G01*
Y99783*
G75*
G02X209902Y100000I2288J0*
G01*
G37*
X225311D02*
G36*
Y97638D01*
Y97637*
G75*
G02X224859Y96549I-1537*
G01*
X223346Y95036*
G75*
G02X223226Y94928I-1184J1192*
G01*
Y94567*
G75*
G02X222556Y92949I-2287*
G01*
X222367Y92760*
G75*
G02X225264Y90788I777J-1972*
G01*
G75*
G02X224978Y89724I-2120J0*
G01*
G75*
G02X225262Y88740I-1834J-1063*
G01*
X231547*
Y100000*
X225311*
G37*
X209902D02*
G36*
G75*
G02X210862Y101654I2278J-217D01*
G01*
G75*
G02X209892Y103524I1318J1870*
G01*
Y108583*
G75*
G02X212179Y110870I2287*
G01*
X217506*
G75*
G02X217323Y111731I1931J861*
G01*
G75*
G02Y111732I2098J1*
G01*
G75*
G02Y111741I1902J4*
G01*
G75*
G02X217325Y111826I1859J0*
G01*
X215500Y113652*
G75*
G02X211260Y113701I-2120J49*
G01*
G75*
G02X214356Y115583I2120*
G01*
X195385Y134553*
X193920*
G75*
G02X193026Y133972I-1563J1428*
G01*
Y130644*
X193380*
G75*
G02X194506Y130176I0J-1589*
G01*
X197020Y127662*
G75*
G02X197078Y127601I-1109J-1109*
G01*
X198574Y125948*
G75*
G02X198984Y124882I-1180J-1067*
G01*
Y124881*
Y124879*
Y120239*
Y120237*
Y120236*
Y120236*
G75*
G02X198519Y119113I-1587*
G01*
X197451Y118045*
X201812*
G75*
G02X201811Y118110I2633J80*
G01*
G75*
G02X206051I2120*
G01*
G75*
G02X204531Y116077I-2120J0*
G01*
X204772*
Y114608*
X204876*
G75*
G02X205965Y114157I0J-1537*
G01*
X206277Y113844*
G75*
G02X206728Y112756I-1085J-1088*
G01*
Y112756*
Y110082*
Y110080*
Y110079*
G75*
G02X206584Y109429I-1543J2*
G01*
X206844*
Y102657*
X201569*
Y109429*
X202706*
G75*
G02X203014Y110065I1501J-334*
G01*
X199154*
Y115183*
X198472*
Y110065*
X192854*
Y111533*
X192285*
X192271Y111520*
G75*
G02X192155Y110880I-2129J55*
G01*
X192331*
Y109429*
X196844*
Y102657*
X195744*
Y100000*
X201083*
G75*
G02X204354Y101780I2120*
G01*
G75*
G02X207626Y100000I1152J-1780*
G01*
X209902*
G37*
X181096D02*
G36*
Y103883D01*
G75*
G02X180768Y103376I-1331J502*
G01*
X178960Y101569*
G75*
G02X177947Y101148I-1013J1009*
G01*
X176372*
Y100000*
X181096*
G37*
X192669D02*
G36*
Y102657D01*
X191569*
Y104868*
X189372*
G75*
G02X189673Y103780I-1819J-1089*
G01*
G75*
G02X186372Y102019I-2120*
G01*
Y100000*
X192669*
G37*
X225311D02*
G36*
X231547D01*
Y148189*
X215421*
G75*
G02X211181I-2120*
G01*
X208138*
Y145203*
X200551*
Y148189*
X197902*
Y144983*
X199485Y143400*
X206372*
G75*
G02X206779Y143341I-2J-1441*
G01*
X207424*
G75*
G02X211091Y141890I1546J-1451*
G01*
G75*
G02X208138Y139940I-2120*
G01*
Y137722*
X193813*
G75*
G02X193553Y137735I4J2869*
G01*
G75*
G02X193920Y137415I-1219J-1775*
G01*
X195978*
G75*
G02X196992Y136994J-1430*
G01*
X216989Y116998*
G75*
G02X217409Y115984I-1009J-1013*
G01*
Y115790*
X219349Y113850*
G75*
G02X220903Y113270I95J-2116*
G01*
X221884*
G75*
G02X222972Y112818I0J-1537*
G01*
X224859Y110931*
G75*
G02X225311Y109843I-1085J-1088*
G01*
Y109843*
Y100000*
G37*
X231547Y260209D02*
G36*
X220191D01*
G75*
G02X218904Y261496J1287*
G01*
Y283057*
X167344*
Y274488*
Y274488*
G75*
G02X167238Y273976I-1285*
G01*
Y266850*
X166013*
X167647Y265216*
G75*
G02X168146Y264016I-1195J-1200*
G01*
Y264016*
Y262337*
X169654*
Y260490*
G75*
G02X170335Y260833I1012J-1163*
G01*
Y262337*
X175953*
Y256325*
X171439*
G75*
G02X171080Y255762I-1441J523*
G01*
X170059Y254741*
G75*
G02X169752Y254503I-1098J1098*
G01*
Y247762*
X168638*
Y245354*
G75*
G02X168128Y244143I-1696J1*
G01*
X165433Y241499*
Y241254*
X170480*
Y240713*
X172421*
Y241234*
X178346*
X178512Y241401*
G75*
G02X179600Y241852I1088J-1085*
G01*
X191791*
Y243124*
X197803*
Y242661*
X197984Y242842*
Y243697*
Y243700*
Y243701*
Y243701*
G75*
G02X198435Y244788I1536*
G01*
X198938Y245291*
G75*
G02X199852Y245731I1086J-1085*
G01*
Y245982*
X199443*
G75*
G02X197906Y247520J1537*
G01*
Y248182*
X197861Y248226*
X194246*
G75*
G02X192709Y249764J1537*
G01*
Y255077*
X189450*
X184843Y250469*
G75*
G02X183754Y250018I-1088J1085*
G01*
X182350*
Y247762*
X176965*
Y247533*
X178433*
Y241915*
X172421*
Y247533*
X173890*
Y247762*
X171614*
Y255348*
X182350*
Y253093*
X183117*
X187724Y257700*
G75*
G02X188813Y258152I1088J-1085*
G01*
X194246*
G75*
G02X195622Y257300I0J-1537*
G01*
Y262835*
Y262835*
G75*
G02X196120Y264035I1694*
G01*
X197770Y265685*
G75*
G02X198970Y266183I1200J-1195*
G01*
X202199*
G75*
G02X203399Y265685I0J-1694*
G01*
X205443Y263641*
G75*
G02X205941Y262441I-1195J-1200*
G01*
Y262441*
Y262142*
G75*
G02X208807Y260157I746J-1985*
G01*
G75*
G02X208382Y258884I-2120*
G01*
Y255642*
X211002*
Y254372*
X211096*
G75*
G02X212297Y253874I0J-1694*
G01*
X213732Y252438*
Y257480*
Y257481*
G75*
G02X214184Y258569I1537*
G01*
X215228Y259613*
Y264796*
X211720Y268305*
X209994*
G75*
G02X208906Y268757I0J1537*
G01*
X208492Y269171*
G75*
G02X202638Y273012I-1667J3841*
G01*
G75*
G02X211012I4187*
G01*
G75*
G02Y273010I-4101J-1*
G01*
G75*
G02X210681Y271380I-4179*
G01*
X212356*
G75*
G02X213445Y270928I0J-1537*
G01*
X217852Y266522*
G75*
G02X218303Y265433I-1085J-1088*
G01*
Y265433*
Y258976*
Y258976*
G75*
G02X217852Y257888I-1537*
G01*
X216807Y256844*
Y247251*
X220529Y243530*
G75*
G02X220980Y242441I-1085J-1088*
G01*
Y242441*
Y228740*
Y228740*
G75*
G02X220529Y227652I-1537*
G01*
X217043Y224167*
Y218268*
G75*
G02X216656Y217248I-1537*
G01*
X221254*
G75*
G02X223541Y214961J-2287*
G01*
Y204567*
G75*
G02X221254Y202280I-2287*
G01*
X207081*
G75*
G02X204793Y204567J2287*
G01*
Y212202*
G75*
G02X202235Y212478I-1098J1813*
G01*
X202127*
X201689Y212041*
Y210787*
Y210787*
G75*
G02X201237Y209699I-1537*
G01*
X199980Y208442*
G75*
G02X199732Y208240I-1114J1117*
G01*
Y206522*
X198868*
Y206003*
G75*
G02X199026Y205237I-1785J-766*
G01*
Y205236*
Y201201*
X210305*
Y200611*
X210499*
G75*
G02X213043Y199557I0J-3597*
G01*
X220883Y191717*
G75*
G02X221261Y191272I-2547J-2550*
G01*
G75*
G02X221260Y191339I2780J83*
G01*
G75*
G02X225500I2120*
G01*
G75*
G02X221873Y189847I-2120J0*
G01*
G75*
G02X221937Y189173I-3565J-677*
G01*
Y184041*
X225191Y180787*
Y156614*
X221937*
Y153819*
G75*
G02X214744I-3596*
G01*
Y156614*
X207941*
Y155939*
X208138*
Y148189*
X211181*
G75*
G02X215421I2120*
G01*
X231547*
Y260209*
G37*
X200551Y148189D02*
G36*
Y155939D01*
X200748*
Y156614*
X197902*
Y148189*
X200551*
G37*
X221140Y91533D02*
G75*
G02X220509Y91086I-1619J1616D01*
G01*
X221036Y90559*
G75*
G02X221024Y90787I2109J227*
G01*
G75*
G02X221171Y91564I2120J0*
G01*
X221140Y91533*
G36*
G75*
G02X220509Y91086I-1619J1616*
G01*
X221036Y90559*
G75*
G02X221024Y90787I2109J227*
G01*
G75*
G02X221171Y91564I2120J0*
G01*
X221140Y91533*
G37*
X221937Y180892D02*
Y158189D01*
X223537*
Y179291*
X221937Y180892*
G36*
Y158189*
X223537*
Y179291*
X221937Y180892*
G37*
X221983Y82374D02*
G75*
G02X221747Y82034I-1988J1129D01*
G01*
G75*
G02X222457Y81594I-828J-2132*
G01*
G75*
G02X222763Y82025I1868J-1004*
G01*
G75*
G02X221983Y82374I459J2070*
G01*
G36*
G75*
G02X221747Y82034I-1988J1129*
G01*
G75*
G02X222457Y81594I-828J-2132*
G01*
G75*
G02X222763Y82025I1868J-1004*
G01*
G75*
G02X221983Y82374I459J2070*
G01*
G37*
X222236Y101727D02*
G75*
G02X222195Y101695I-1428J1791D01*
G01*
G75*
G02X222236Y101667I-1253J-1906*
G01*
Y101727*
G36*
G75*
G02X222195Y101695I-1428J1791*
G01*
G75*
G02X222236Y101667I-1253J-1906*
G01*
Y101727*
G37*
X223207Y78789D02*
Y78317D01*
G75*
G02X223643Y78583I1315J-1664*
G01*
G75*
G02X223207Y78789I682J2008*
G01*
G36*
Y78317*
G75*
G02X223643Y78583I1315J-1664*
G01*
G75*
G02X223207Y78789I682J2008*
G01*
G37*
D02*
D13*
X8026Y34803D02*
X14344D01*
Y34134*
X8065Y31811D02*
X14344D01*
Y34134*
X11963Y168819D02*
Y153465D01*
X11884Y153386*
X12829Y210000D02*
X14955D01*
X12868Y70551D02*
Y53071D01*
X14955Y214252D02*
Y212126D01*
X15073Y48583D02*
Y55197D01*
X15033*
X15152Y88110D02*
X12947D01*
X17120Y55276D02*
X17199Y55197D01*
X17120Y59606D02*
X17199Y59528D01*
X17120Y63937D02*
X17199Y63858D01*
Y83701D02*
X17278Y83622D01*
X19128Y174331D02*
Y170000D01*
X19049Y169921*
X19128Y182992D02*
X21175D01*
X21333Y183150*
X19128Y185157D02*
Y187323D01*
Y189488D02*
Y191654D01*
Y202717D02*
Y196024D01*
X19404Y155787D02*
Y160512D01*
X19443Y206772D02*
X17711D01*
X16766Y207717*
X16293*
X15427Y208583*
Y209528*
X14955Y210000*
X19443Y206772D02*
Y202717D01*
X19128*
X20565Y95492D02*
X22455D01*
Y98917*
X20565Y125315D02*
X22455D01*
Y128740*
X20565Y135276D02*
X22455D01*
Y138681*
X20585Y115413D02*
X22455D01*
Y118799*
X21293Y170000D02*
X19128D01*
X19049Y169921*
X21333Y185315D02*
Y187480D01*
X21569Y151260D02*
X17632D01*
X19404Y153031*
Y155787*
X23065Y145433D02*
X18734D01*
X23065Y147638D02*
X18734D01*
X23656Y59449D02*
X23734Y59370D01*
X23656Y79370D02*
X23734Y79291D01*
X23656Y83701D02*
X23734Y83622D01*
X26293Y250866D02*
Y251516D01*
X26215Y251594*
Y256594*
X27356Y257736*
X27238Y265197D02*
Y267323D01*
X24089Y270472*
X23301*
X27278Y167146D02*
X27533Y167402D01*
X32199*
X27278Y172146D02*
X32888D01*
X32907Y172126*
X27278Y177146D02*
X32297D01*
X33380Y178228*
Y179803*
X27278Y182146D02*
Y183346D01*
X32573*
X33360Y184134*
X33380*
X33970Y184724*
X27278Y187146D02*
X46156D01*
X46608Y186693*
X27278Y197146D02*
X31628D01*
X33380Y198898*
X27278Y212146D02*
X32258D01*
X32278Y212126*
X27278Y217146D02*
X32120D01*
X28262Y107323D02*
Y108189D01*
X29285Y109213*
X28262Y150787D02*
Y147795D01*
X30545Y145512*
X28321Y37756D02*
X28183D01*
Y34154*
X30073Y37756D02*
Y34154D01*
X28183*
X30545Y145512D02*
Y127953D01*
X31411Y118031D02*
Y96024D01*
X32356Y95079*
X34246Y194488D02*
Y193622D01*
X33065Y192441*
X27573*
X27278Y192146*
X34561Y99685D02*
Y95157D01*
X35663Y169606D02*
X37789D01*
X36333Y87874D02*
X39778D01*
X42632Y85020*
X43616*
X36844Y162756D02*
Y168661D01*
X37789Y169606*
X37002Y92598D02*
Y90157D01*
X38026*
Y87874*
X37317Y204803D02*
Y203031D01*
X36431Y202146*
X27278*
X38026Y87874D02*
Y90630D01*
X33380*
Y87874*
X36333*
X38656Y134961D02*
Y137165D01*
X39915Y196063D02*
X40703D01*
X41805Y197165*
X40624Y126614D02*
X31884D01*
X30545Y127953*
X40801Y150669D02*
Y159921D01*
X61923Y181043*
Y190807*
X60309Y192421*
X43774Y79606D02*
X41175D01*
X40073Y80709*
X28498*
Y50591*
X23373Y52047*
X44010Y197165D02*
Y194252D01*
X49915Y188346*
Y183071*
X49837Y182992*
X44089Y31850D02*
X39482D01*
Y34134*
X44089Y34823D02*
Y34134D01*
X39482*
X48341Y41299D02*
Y41417D01*
Y90236D02*
X38793Y90335D01*
X36333Y87874*
X49364Y207165D02*
X53498D01*
X53656Y207008*
X49522Y53622D02*
X52514D01*
X50545Y196457D02*
X44719D01*
X44010Y197165*
X51648Y53661D02*
X64640D01*
X51648Y55669D02*
X49600Y53622D01*
X49522*
X52041Y167480D02*
X49837Y165276D01*
X53065Y97028D02*
Y97126D01*
X53656*
Y204843D02*
X49482D01*
X49364Y204961*
X54246Y169606D02*
X59207Y174567D01*
X60230*
X54482Y160709D02*
Y162913D01*
X54837Y32402D02*
Y41299D01*
X56269Y132284D02*
X51726D01*
X51254Y132756*
Y135354*
X51805Y135906*
Y137874*
X56269Y135984D02*
X56426Y135827D01*
X61333*
X56293Y164094D02*
Y162047D01*
X56372Y161969*
X58026Y87087D02*
Y88504D01*
X57396*
Y90236*
X58498Y162047D02*
X56451D01*
X56372Y161969*
X59305Y37343D02*
Y35197D01*
X65722*
X59325Y31929D02*
Y35197D01*
X65722*
X59344Y34626D02*
Y35197D01*
X65722*
X60545Y61732D02*
X61096D01*
X62120Y62756*
Y63543*
X62829Y64252*
X64010*
X64640Y64882*
X60545Y61732D02*
X62120D01*
X61333Y135827D02*
X64876D01*
X66215Y134488*
X61333Y135827D02*
X61805D01*
X62435Y136457*
Y138898*
X62514Y138976*
X61490Y122999D02*
Y127165D01*
X62671Y128346*
X67081*
X68183Y127244*
X76057*
X78892Y130079*
Y132205*
X78656Y132441*
X62120Y48740D02*
X58262D01*
X56057Y46535*
X47711*
X45978Y48268*
X40467*
Y48354*
X36773Y52047*
X65427Y157165D02*
Y168346D01*
X66530Y169449*
X65703Y55472D02*
X50545D01*
X69679Y184961D02*
Y180551D01*
X69837Y163071D02*
X65427D01*
X70939Y204961D02*
X71766D01*
Y203622*
X77278*
X71884Y180551D02*
Y184961D01*
Y187008*
X72199Y187323*
X72041Y132283D02*
X72199D01*
X72356Y132441*
X72041Y189685D02*
X74128D01*
X74207Y189764*
X72356Y132441D02*
X70467D01*
X69128Y133780*
Y138661*
X68813Y138976*
X72671Y135433D02*
X74010D01*
X74876Y136299*
Y138898*
X72671Y135433D02*
Y132756D01*
X72356Y132441*
X73144Y165118D02*
X64482D01*
X64325Y164961*
X73222Y207087D02*
X53734D01*
X53656Y207008*
X74089Y182677D02*
X71963D01*
X71884Y182756*
X74089Y184882D02*
Y182677D01*
X74364Y187402D02*
Y189606D01*
X74207Y189764*
X75742Y55827D02*
Y57638D01*
X76372Y58268*
X78419*
X75742Y62126D02*
X69364D01*
X68498Y61260*
X66451*
X76136Y38031D02*
X81018D01*
X87868Y44882*
X76293Y182677D02*
Y184882D01*
X76372Y192362D02*
Y189764D01*
X76687Y174488D02*
X60309D01*
X60230Y174567*
X77278Y203622D02*
Y201457D01*
X68242Y192421*
X60309*
X78262Y72441D02*
X78255D01*
Y75512*
X76136Y77631*
X70073*
X78656Y132441D02*
Y138898D01*
X81175*
X80860Y187402D02*
X74364D01*
X81175Y138898D02*
Y142126D01*
X80230Y143071*
X76057*
X81766Y207165D02*
Y205118D01*
X82947*
Y203071*
X82100Y271535D02*
X78931D01*
X77947Y272520*
X82199Y32520D02*
X75663D01*
X82199Y68661D02*
Y60492D01*
X83656Y59035*
X83026Y189764D02*
X76372D01*
X83656Y23602D02*
X121805D01*
X83656Y59035D02*
X83675Y51555D01*
X81982*
X81254Y52283*
X83852Y31024D02*
Y23799D01*
X83656Y23602*
X84640Y78898D02*
Y81024D01*
X85663Y82047*
X88026*
X92514Y86535*
Y90709*
X93222Y91417*
X101963*
X85112Y203071D02*
Y205118D01*
X83931*
Y207165*
X85348Y192362D02*
X69994D01*
X69915Y192283*
X85742Y270020D02*
X85644Y270157D01*
X85801Y150669D02*
Y154862D01*
X87632Y156693*
X86018Y50315D02*
Y51457D01*
X90073*
X86096Y207244D02*
Y205197D01*
X87278*
Y203150*
X87868Y44882D02*
X89994D01*
X90073Y44961*
X88990Y270059D02*
Y272362D01*
Y272520*
X89561Y62972D02*
Y65669D01*
X88360*
X85742Y68287*
Y68819*
X90073Y49291D02*
X103065D01*
X103104Y49252*
X90230Y128819D02*
X91159Y127890D01*
X91301*
X91096Y78898D02*
Y78031D01*
X88892Y75827*
X87947*
X87868Y75748*
X91301Y135370D02*
X91254D01*
Y138740*
X92907Y140394*
X103852*
X105270Y141811*
X108026*
X109128Y142913*
Y145039*
X109049Y145118*
X91411Y142047D02*
X89994D01*
X89285Y141339*
Y134409*
X88419Y133543*
Y130630*
X90230Y128819*
X92238Y44921D02*
Y51496D01*
X92199Y51535*
X93427Y127890D02*
X93459D01*
Y125748*
X94167Y125039*
X101805*
X102494Y125669*
X93427Y135370D02*
X93380D01*
Y133071*
X92041Y131732*
X90781*
X94332Y100315D02*
X92986D01*
X89049Y104252*
Y127638*
X90230Y128819*
X95553Y135370D02*
X97805D01*
X97947Y135512*
X99955*
X99994Y135472*
X96057Y131890D02*
X99600D01*
X99915Y131575*
Y129843*
X99994Y129764*
X96687Y272520D02*
Y272441D01*
X95821Y271575*
X92573*
X92533Y271535*
X97553Y72598D02*
Y75669D01*
X97474Y75748*
X100230*
X100939Y76457*
Y81890*
X98892Y83937*
X97553Y78898D02*
X91096D01*
X98892Y83937D02*
X97474D01*
X95742Y85669*
Y88110*
X99325Y157146D02*
X93242D01*
X93065Y157323*
X99325Y162146D02*
Y162087D01*
Y167146D02*
X103400D01*
X104640Y165906*
Y150157*
X105585Y149213*
X106608*
X99325Y182146D02*
X104344D01*
X104561Y182362*
X107396*
X99325Y187146D02*
X89344D01*
X86530Y184331*
X99325Y197146D02*
Y195827D01*
X103537*
X104482Y194882*
X105821*
X107081Y193622*
X118892*
X120624Y195354*
X137159*
Y195433*
X99325Y212146D02*
X94817D01*
X93380Y210709*
Y189685*
X99325Y217146D02*
Y218110D01*
X123045*
X124620Y216535*
X133301*
X134797Y218031*
X135112*
X139049Y221969*
X99325Y222146D02*
X103400D01*
X106451Y225197*
Y230079*
X99325Y222146D02*
X90467D01*
Y221929*
X85742*
X79541Y215728*
X77278*
Y203622*
X99994Y129764D02*
X98577D01*
X96624Y127811*
X95553*
Y127890*
X99994Y135472D02*
X102081D01*
X102593Y135984*
X105348*
X105427Y136063*
X99994Y150157D02*
X93931Y144094D01*
X93695*
X100545Y19685D02*
X117888D01*
X121805Y23602*
X101963Y91417D02*
X108183D01*
X111254Y88346*
X102041Y88110D02*
Y89764D01*
X101963*
Y91417*
X103104Y47047D02*
X90152D01*
X90073Y47126*
X103537Y78425D02*
X104167Y79055D01*
X106530*
X108104Y80630*
Y84488*
X103754Y271535D02*
X101057D01*
X100073Y272520*
X105033Y144252D02*
X99994Y149291D01*
Y150157*
X105427Y129764D02*
X99994D01*
X105427Y136063D02*
Y138425D01*
X106687Y139685*
X111333*
X112041Y140394*
X106451Y230079D02*
X108970D01*
X109837Y230945*
X106884Y62972D02*
Y57913D01*
X104167Y55197*
X106884Y62972D02*
Y69567D01*
X106530Y69921*
Y75591*
X106293Y75827*
Y76693*
X107081Y164803D02*
Y166929D01*
X108026Y167874*
Y170079*
X107297Y270157D02*
X107120Y266614D01*
X86530*
X85348Y267795*
Y269626*
X85644Y270157*
X107297D02*
X107120Y266614D01*
X128656*
X108026Y176378D02*
Y178976D01*
X107396Y179606*
Y182362*
X109049Y145118D02*
X108970D01*
Y153039*
X108435Y153574*
Y153653*
X109409Y45404D02*
Y48504D01*
Y51604D02*
Y48632D01*
X108178Y47402*
X103380*
X101648Y49134*
Y62972*
X102553*
X109409Y51604D02*
X112459D01*
X109443Y76772D02*
Y77953D01*
X110152Y78661*
X111254*
X109837Y230945D02*
X111963D01*
X110644Y270059D02*
Y272500D01*
X110624Y272520*
X111254Y78661D02*
Y88346D01*
Y78661D02*
X113852D01*
Y78425*
X117238*
X111805Y203465D02*
X112041D01*
X111411Y202835*
X99325*
Y202146*
X112459Y45404D02*
X109409D01*
X112459Y48504D02*
Y45404D01*
Y51604D02*
Y48504D01*
X112829Y211503D02*
X113151Y211181D01*
X139522*
Y214646*
X142278Y217402*
X142317*
Y218819*
X118341Y48268D02*
X119128D01*
X120230Y49370*
X118341Y272520D02*
Y272362D01*
X117553Y271575*
X114226*
X114187Y271535*
X121805Y23602D02*
X147041D01*
X122120Y48346D02*
X120309D01*
X118341Y50315*
X122238Y19055D02*
X117907D01*
X125270Y81181D02*
Y79764D01*
X126293*
Y78504*
X125407Y271457D02*
X122396D01*
X121333Y272520*
X126293Y78504D02*
X130309D01*
X131333Y77480*
X126766Y87795D02*
Y90630D01*
X125978Y91417*
X114167*
X111333Y88583*
Y88346*
X111254*
X128498Y185118D02*
X130309D01*
X131411Y184016*
X132829*
X128951Y270079D02*
X128695Y268189D01*
X128656*
Y266614*
X130781Y19055D02*
X142494D01*
X147041Y23602*
X132297Y269980D02*
Y271260D01*
X132219*
Y272520*
X132671Y72598D02*
X134719D01*
X135900Y73780*
Y78504*
X136293Y78898*
Y78976*
X132671Y146457D02*
Y152126D01*
X132888Y152343*
X133970Y47126D02*
Y49291D01*
X136136*
X136293Y85276D02*
X134404D01*
X131884Y87795*
X126766*
X136844Y235591D02*
X138970D01*
X143380Y231181*
X137474Y58504D02*
X136136Y57165D01*
X138262Y45591D02*
X136766D01*
X136136Y44961*
X138970Y72598D02*
Y69528D01*
X137553Y68110*
Y58583*
X137474Y58504*
X139994Y272520D02*
Y272441D01*
X139049Y271496*
X135880*
X135841Y271457*
X140073Y161988D02*
Y168661D01*
X142435Y171024*
X145112*
X141254Y128819D02*
Y115118D01*
Y192992D02*
X121175D01*
X118970Y190787*
X112514*
X110388Y188661*
X107396*
X141648Y256693D02*
Y263150D01*
Y266614*
X142317Y218819D02*
Y222559D01*
X142829Y223071*
X142435Y213386D02*
X142986Y212835D01*
Y194961*
Y65236D02*
Y71732D01*
X145191Y73937*
Y76220*
X142986Y194961D02*
Y194724D01*
X141254Y192992*
X143537Y184488D02*
Y186850D01*
X141648Y188740*
X122947*
X122159Y187953*
Y184921*
X115742*
X143537Y248268D02*
Y247165D01*
X150073*
X150152Y247087*
X144285Y59035D02*
X138006D01*
X137474Y58504*
X145348Y79843D02*
X145191Y80000D01*
Y82520*
X145742Y184409D02*
Y188819D01*
X145821Y218819D02*
X142317D01*
X146073Y98220D02*
X148026D01*
X150624Y95622*
Y92756*
X151411Y91969*
X155978*
Y89606*
X156530*
X147061Y271535D02*
X143970D01*
X142986Y272520*
X147750Y249685D02*
Y250276D01*
X146451Y251575*
X130152*
X129522Y252205*
X129443*
X148026Y193307D02*
Y184409D01*
X147947*
X148026Y193307D02*
X147632D01*
X148183Y225118D02*
Y217795D01*
X145112Y214724*
Y193150*
X142986Y191024*
X122199*
X119758Y188583*
X115585*
X113144Y186142*
Y175512*
X110860Y173228*
X105506*
X104797Y173937*
Y174724*
X103616Y175906*
X99325*
Y177146*
X149443Y241811D02*
Y239055D01*
X148341Y237953*
Y225276*
X148183Y225118*
X149443Y241811D02*
X151884D01*
X152041Y241969*
Y244724*
X150230Y193228D02*
Y184409D01*
X150152*
X150604Y270157D02*
X150703Y269469D01*
Y266811*
X163656*
X166451Y264016*
Y259724*
X166844Y259331*
X150604Y270157D02*
X150703Y269744D01*
Y266614*
X150781Y210394D02*
Y209764D01*
X148656*
Y209921*
X151766Y49626D02*
X145762D01*
X141726Y45591*
X151963Y235433D02*
Y237795D01*
X154797Y240630*
Y242520*
X155033Y242756*
X152199Y204016D02*
Y201811D01*
X152435Y188819D02*
X143537D01*
Y188898*
X152435Y193228D02*
X152356D01*
Y184409*
X153380Y89528D02*
X151175D01*
X148577Y92126*
Y93307*
X147915Y93969*
X146073*
X153553Y98220D02*
X154089D01*
Y99449*
X157947Y103307*
Y103701*
X153951Y270059D02*
Y272520D01*
X154404Y201732D02*
Y203937D01*
Y201732D02*
X152278D01*
X152199Y201811*
X156608Y203937D02*
Y201732D01*
X156805Y80000D02*
X152256D01*
X150230Y82026*
Y84961*
X148183Y87087*
X157002Y98661D02*
Y96961D01*
X156136Y96094*
X153553*
X158656Y209685D02*
X154404D01*
Y203937*
X159049Y109685D02*
Y109134D01*
X159285Y108898*
X162435*
X161018Y104094D02*
Y102756D01*
X159364Y101102*
Y96457*
X156844Y93937*
X153553*
Y93969*
X161175Y227165D02*
Y221102D01*
X160860Y220787*
Y214331*
X161096Y214094*
Y207165*
X161963Y206299*
X167238*
X167553Y206614*
Y206929*
X161766Y49626D02*
X163774D01*
X164089Y49941*
Y53386*
X175348Y64646*
Y68031*
X161805Y84961D02*
X159207Y82362D01*
X154837*
X163695Y201739D02*
X169987D01*
X170309Y201417*
X163695Y201739D02*
X154404D01*
Y201732*
X163695Y272283D02*
X162907Y271496D01*
X157533*
X157494Y271535*
X165018Y118236D02*
X159915D01*
X157443Y120709*
X159049*
X165112Y93917D02*
X163321D01*
X162986Y94252*
Y96023*
X163578Y96614*
Y97760*
X166293Y103071D02*
Y104252D01*
X164482Y106063*
X162514*
X162041Y106535*
X159364*
X157947Y105118*
Y103701*
X166943Y251555D02*
Y254882D01*
X167888Y255827*
X168970*
X169994Y256850*
Y258661*
X170663Y259331*
X173144*
X166943Y251555D02*
X166844Y251457D01*
Y245354*
X161805Y240315*
Y232283*
X158734Y229213*
Y223307*
X151411Y215984*
X149994*
X167081Y90945D02*
Y87815D01*
Y93917D02*
Y97711D01*
X167130Y97760*
X167711Y195827D02*
X168577D01*
X172041Y199291*
X180703*
X184325Y202913*
Y225591*
X186372Y227638*
X188695*
X189089Y228031*
X168813Y220315D02*
X169837D01*
Y219921*
X170781*
X169049Y87815D02*
X170919D01*
X170939Y87795*
X171018*
X169049Y93917D02*
X169994D01*
X170860Y93051*
Y92283*
X170152Y48740D02*
Y47677D01*
X165467Y42992*
X170467Y207953D02*
Y205906D01*
X170388Y205827*
X170545Y231969D02*
X168419D01*
X170781Y217717D02*
X169837D01*
Y218268*
X168813*
X171018Y87795D02*
X173222Y90000D01*
Y93386*
X169600Y97008*
Y98976*
X168656Y99921*
X164167*
X163578Y99331*
Y97760*
X172498Y116110D02*
X174278D01*
X175742Y114646*
Y110157*
X173508Y124847D02*
X175313D01*
X175663Y125197*
X174915Y187283D02*
Y174882D01*
X177278Y172520*
X175427Y244724D02*
Y250000D01*
X176982Y251555*
X178911Y39783D02*
X179108D01*
Y36909*
Y32559D02*
Y30394D01*
Y34724D02*
Y32559D01*
Y36909D02*
Y34724D01*
X182593Y52283D02*
X181726D01*
X180703Y53307*
X183734Y102579D02*
X183616D01*
Y107874*
X183222*
X184581Y39862D02*
X184699D01*
Y36752*
Y32402D02*
Y30236D01*
Y34567D02*
Y32402D01*
Y36752D02*
Y34567D01*
X185348Y120945D02*
X183499D01*
X182907Y120354*
X181219*
X187100Y120945D02*
X185348D01*
X187947Y237244D02*
X190152D01*
X188183Y85906D02*
X172907D01*
X171018Y87795*
X189089Y228031D02*
X194797D01*
Y228110*
X196372Y229685*
X196451*
X189089Y234331D02*
X185742D01*
Y233465*
X189293Y218583D02*
X194246D01*
X194719Y218110*
X189522Y107874D02*
Y110945D01*
X190152Y111575*
X190781Y125118D02*
X188183D01*
X187081Y124016*
Y122992*
X187100*
Y122913*
X191018Y253150D02*
Y244646D01*
X190388Y244016*
X193616Y187283D02*
X196687D01*
X199325Y189921*
X201175*
X204167Y192913*
Y197015*
X194207Y106043D02*
Y96575D01*
X191018Y93386*
X182514*
X194797Y240315D02*
X179600D01*
X177711Y238425*
X175427*
X195663Y113071D02*
X191648D01*
X190152Y111575*
X195978Y234094D02*
X189325D01*
X189089Y234331*
X196530Y225827D02*
X198341D01*
X200703Y228189*
X202986*
X196667Y39882D02*
Y38346D01*
X196687*
Y36791*
Y32441D02*
Y30276D01*
Y34606D02*
Y32441D01*
Y36791D02*
Y34606D01*
X196923Y209528D02*
Y211969D01*
X198849Y213894*
Y217520*
X197317Y253150D02*
Y262835D01*
X198970Y264488*
X202199*
X204246Y262441*
Y252902*
X204148Y252804*
X198849Y217520D02*
X199719D01*
X198849Y219488D02*
Y221457D01*
X200742*
X202514Y219685*
X198849Y223425D02*
Y223386D01*
X201333*
X202671Y223465*
X199049Y237402D02*
X190309D01*
X190152Y237244*
X200152Y144252D02*
X207868D01*
X209285Y145669*
X209837*
X201589Y244204D02*
X200025D01*
X199522Y243701*
Y242205*
X198026Y240709*
X195191*
X194797Y240315*
X201589Y252804D02*
Y260925D01*
X200388Y262126*
X202986Y174574D02*
X197113D01*
X196057Y175630*
X202986Y228189D02*
Y227953D01*
X205033Y225906*
X203222Y73061D02*
X197602D01*
X196963Y73701*
X203222Y209528D02*
Y201811D01*
X216057*
Y198858*
X226411*
X203695Y214016D02*
X201490D01*
X200152Y212677*
Y210787*
X198892Y209528*
X196923*
X204148Y244204D02*
Y241909D01*
X202474Y240236*
Y234291*
X202278Y234094*
X204148Y244204D02*
Y246535D01*
X203163Y247520*
X199443*
Y248819*
X198498Y249764*
X194246*
Y256614*
X188813*
X183754Y251555*
X176982*
X204207Y106043D02*
Y109094D01*
X205191Y110079*
Y112756*
X204876Y113071*
X201963*
X206687Y260157D02*
Y258189D01*
X206707*
Y252804*
Y244204D02*
Y241319D01*
X207789Y240236*
Y237283*
X207986Y237087*
X208104Y227087D02*
Y230197D01*
X208813Y56220D02*
Y59449D01*
X208498Y59764*
X209249Y217520D02*
X207199D01*
X206215Y216535*
X209249Y221457D02*
Y219488D01*
Y223425D02*
X207317D01*
X205033Y225709*
Y225906*
X209837Y145669D02*
X219207D01*
X209837D02*
Y148583D01*
X210939Y174016D02*
X210860Y174094D01*
X203466*
X202986Y174574*
X211963Y168110D02*
Y172992D01*
X210939Y174016*
X213281Y34606D02*
Y32441D01*
Y36791D02*
Y34606D01*
X213301Y39862D02*
Y38957D01*
X216372*
X213301Y39862D02*
X213281D01*
Y36791*
X213380Y243937D02*
Y250394D01*
X211096Y252677*
X209393*
X209266Y252804*
X213380Y243937D02*
X215112D01*
X217553Y241496*
Y231063*
X216687Y230197*
X214404*
X213459Y184724D02*
X212041D01*
X211096Y183780*
X204332*
X204167Y183615*
X213459Y184724D02*
Y176535D01*
X210939Y174016*
X213695Y240630D02*
X210467D01*
X209364Y241732*
Y244106*
X209266Y244204*
X214010Y89134D02*
X216923D01*
Y86339*
X214167Y209055D02*
Y216929D01*
X215506Y218268*
Y224803*
X219443Y228740*
Y242441*
X215270Y246614*
Y257480*
X216766Y258976*
Y265433*
X212356Y269843*
X209994*
X206825Y273012*
X214285Y237087D02*
X214246D01*
Y239764*
X213695Y240315*
Y240630*
X216372Y34606D02*
Y32441D01*
Y36772D02*
Y34606D01*
Y38957D02*
Y36772D01*
X216608Y106063D02*
X217711D01*
X218813Y104961*
X221018*
X217081Y134331D02*
X219207D01*
X217081Y142835D02*
X219207D01*
Y145669D02*
Y134331D01*
Y145669D02*
X223144D01*
X228262Y150787*
Y186654*
X228656Y187047*
Y187913*
X219443Y111732D02*
X221884D01*
X223774Y109843*
Y97638*
X222258Y96122*
X217081*
X220073Y61496D02*
Y63937D01*
X218419Y65591*
X213616*
X210152Y69055*
Y71732*
X209443Y72441*
Y90079*
X207081Y92441*
Y92598*
X220073Y61496D02*
X221018D01*
X221963Y60551*
X220742Y34567D02*
X229325D01*
X229404Y34488*
X220742Y38898D02*
X229325D01*
X229404Y38819*
X220742Y43228D02*
X229325D01*
X229404Y43150*
X222907Y52008D02*
X229364D01*
X229404Y52047*
X222907Y56378D02*
Y56850D01*
X224246Y58189*
X227238Y45354D02*
X220821D01*
X220742Y45433*
X227238Y49843D02*
X225073D01*
X228577Y201063D02*
Y200472D01*
X224325Y196220*
X229404Y32283D02*
X220821D01*
X220742Y32362*
X229404Y36654D02*
X220821D01*
X220742Y36732*
X229404Y40984D02*
X220821D01*
X220742Y41063*
D02*
D15*
X6766Y29606D02*
X21884D01*
Y45669*
X6766*
Y29606*
G36*
X21884*
Y45669*
X6766*
Y29606*
G37*
X33931Y29685D02*
Y45748D01*
X45112*
Y29606*
X33931Y29685*
G36*
Y45748*
X45112*
Y29606*
X33931Y29685*
G37*
X50703Y97028D02*
Y98819D01*
X49128Y100394*
Y102953*
X48459Y103622*
X45978*
X58183Y29685D02*
X73222D01*
Y45748*
X58183*
Y29685*
G36*
X73222*
Y45748*
X58183*
Y29685*
G37*
X99325Y172146D02*
X60014D01*
X59128Y171260*
Y169449*
X59049Y169370*
X117238Y72126D02*
X120309D01*
X121411Y73228*
Y81417*
X120388Y82441*
X118262*
X116844Y83858*
Y84488*
X114404*
X119876Y62972D02*
X119915D01*
Y68661*
X123262Y72008*
X126293*
Y72205*
X121018Y87402D02*
X120467D01*
Y87795*
X122986Y84331D02*
X119364D01*
X118970Y84724*
X126293Y72205D02*
X122986D01*
Y84331*
X132907Y101417D02*
X133065Y101260D01*
Y101181*
X134246Y100000*
X135663*
X137474Y98189*
X142278*
X144167Y100079*
X151490*
X153380Y101969*
Y111969*
X155348Y113937*
X159364*
X161490Y116063*
X164970*
X165018Y116110*
X134167Y256614D02*
Y255669D01*
X136293Y253543*
X147947*
Y263150*
X137159Y256929D02*
Y259685D01*
X140624Y263150*
X141648*
X146073Y96094D02*
Y96063D01*
X136136*
X135112Y97087*
X147159Y105197D02*
X146451D01*
X141648Y100394*
X137553*
X135742Y102205*
Y103150*
X134797Y104094*
X133459*
X151963Y229134D02*
X155663D01*
X156608Y230079*
Y237795*
X161333Y242520*
Y244803*
X161884Y245354*
X161519Y124759D02*
X160502D01*
X159443Y123701*
X155742*
X155112Y123071*
Y120945*
X151569Y117402*
X147553*
X147159Y117008*
X162435Y145433D02*
Y140000D01*
X165506Y136929*
X176372*
Y144331*
X177002Y144961*
Y150157*
X178341Y151496*
X180545*
X181726Y150315*
Y147795*
X180781Y146850*
X177159*
Y145512*
X187632Y145354*
Y145276*
X193695Y139213*
X206372*
Y141969*
X198892*
X196451Y144409*
Y166142*
X185191*
X173301Y154252*
Y151811*
X166923Y145433*
X162435*
G36*
Y140000*
X165506Y136929*
X176372*
Y144331*
X177002Y144961*
Y150157*
X178341Y151496*
X180545*
X181726Y150315*
Y147795*
X180781Y146850*
X177159*
Y145512*
X187632Y145354*
Y145276*
X193695Y139213*
X206372*
Y141969*
X198892*
X196451Y144409*
Y166142*
X185191*
X173301Y154252*
Y151811*
X166923Y145433*
X162435*
G37*
X165018Y116110D02*
Y115055D01*
X167396Y112677*
X168813*
X173695Y107795*
X177002*
X178183Y108976*
Y112283*
X180230Y114331*
X182514*
X184246Y116063*
Y118268*
X184955Y118976*
X187100*
X165018Y120362D02*
Y121984D01*
X164640Y122362*
X163774*
X162986Y123150*
Y123293*
X161519Y124759*
X165072D02*
X165471D01*
X167632Y122598*
X165112Y87815D02*
X163203D01*
X162986Y88031*
X167081Y91024D02*
Y90945D01*
Y93917D02*
Y91024D01*
X172498Y116110D02*
X170183D01*
X169758Y116535*
Y119213*
X168577Y120394*
X165049*
X165018Y120362*
X172498Y118236D02*
X174986D01*
X177238Y115984*
X179207*
X179837Y116614*
X181032*
X181219Y116801*
X172498Y120362D02*
Y121276D01*
X171805Y121969*
X170664*
X169956Y122677*
Y124847*
X173380Y113150D02*
X172671Y113858D01*
X170152*
X168026Y115984*
Y117827*
X167663Y118189*
X165018*
Y118236*
X173734Y102579D02*
X177947D01*
X179758Y104390*
Y109213*
X175663Y125197D02*
X177002Y126535D01*
X180152*
X182671Y129055*
X193380*
X195900Y126535*
Y126378*
X197396Y124882*
Y120236*
X196136Y118976*
X193203*
X179758Y109213D02*
Y111496D01*
X180939Y112677*
X183695*
X187632Y116614*
X181219Y120354D02*
X179641D01*
X179285Y120709*
X177112*
X176766Y120362*
X172498*
X183774Y29528D02*
Y43543D01*
X185742Y41260*
X192514*
X193144Y41969*
Y29528*
X183774*
G36*
Y43543*
X185742Y41260*
X192514*
X193144Y41969*
Y29528*
X183774*
G37*
X184246Y126063D02*
Y122047D01*
X185348Y120945*
X187100Y118976D02*
X189443D01*
X190230Y119764*
Y121732*
X191411Y122913*
X193203*
X192356Y135984D02*
X195978D01*
X215978Y115984*
Y115197*
X219443Y111732*
X193203Y120945D02*
X195270D01*
X195742Y121417*
Y124016*
X195112Y124646*
Y124724*
X192435Y127402*
X185585*
X184246Y126063*
X195978Y29843D02*
X200388D01*
Y47480*
X197474*
X197081Y47087*
Y45512*
X195978Y44409*
Y29843*
G36*
X200388*
Y47480*
X197474*
X197081Y47087*
Y45512*
X195978Y44409*
Y29843*
G37*
X203301Y29685D02*
X218341D01*
Y46929*
X203301*
Y29685*
G36*
X218341*
Y46929*
X203301*
Y29685*
G37*
X203931Y118110D02*
Y117638D01*
X202907Y116614*
X187632*
X212986Y221339D02*
X212278Y222047D01*
Y226299*
X211333Y227244*
Y232441*
X210073Y233701*
X202278*
Y234094*
X218734Y72520D02*
Y72992D01*
X218813*
Y75748*
D02*
D17*
X12770Y203602D02*
Y192657D01*
X15841*
Y203602*
X12770*
G36*
Y192657*
X15841*
Y203602*
X12770*
G37*
X12829Y189350D02*
Y183346D01*
X15841*
Y189350*
X12829*
G36*
Y183346*
X15841*
Y189350*
X12829*
G37*
X15781Y179941D02*
Y173386D01*
X12888*
Y179941*
X15781*
G36*
Y173386*
X12888*
Y179941*
X15781*
G37*
X22455Y108839D02*
X22258D01*
X14876Y116220*
Y145748*
X7986Y152638*
Y207441*
X8026Y207480*
Y215512*
X12278Y219764*
X19364*
X22455Y108839D02*
Y111004D01*
X23341Y111890*
X26687*
X27868Y113071*
Y119764*
X29640Y121535*
X50230*
X23144Y260492D02*
Y254488D01*
X27356*
Y260492*
X23144*
G36*
Y254488*
X27356*
Y260492*
X23144*
G37*
X27278Y212146D02*
X22907D01*
X21982Y213071*
X19443*
X27278Y217146D02*
X23321D01*
X20703Y219764*
X19364*
X29207Y34154D02*
X28183D01*
X36352Y62355D02*
X34797D01*
X48813Y199921D02*
X47553D01*
X37711Y209764*
Y211555*
X32120Y217146*
X50230Y121535D02*
X51333D01*
Y124882*
X54325Y127874*
X52671Y260492D02*
Y256850D01*
X56608*
Y260492*
X52671*
G36*
Y256850*
X56608*
Y260492*
X52671*
G37*
X67907Y72402D02*
Y67087D01*
X74502*
Y72402*
X67907*
G36*
Y67087*
X74502*
Y72402*
X67907*
G37*
X91648Y122283D02*
X106372D01*
Y112441*
X91648*
Y122283*
G36*
X106372*
Y112441*
X91648*
Y122283*
G37*
X110309Y160315D02*
X135742D01*
Y175118*
X118577*
Y165591*
X110309*
Y160315*
G36*
X135742*
Y175118*
X118577*
Y165591*
X110309*
Y160315*
G37*
X112829Y198103D02*
X107310D01*
X106608Y197402*
X115585Y156142D02*
Y146142D01*
X135348*
Y156142*
X115585*
G36*
Y146142*
X135348*
Y156142*
X115585*
G37*
X119600Y142402D02*
X129246D01*
Y138661*
X119600*
Y142402*
G36*
X129246*
Y138661*
X119600*
Y142402*
G37*
X133970Y132362D02*
X143616D01*
Y128819*
X137120*
X133970Y131969*
Y132362*
G36*
X143616*
Y128819*
X137120*
X133970Y131969*
Y132362*
G37*
Y142402D02*
X143616D01*
Y138661*
X133970*
Y142402*
G36*
X143616*
Y138661*
X133970*
Y142402*
G37*
X175427Y238425D02*
X166687D01*
X175893Y206181D02*
Y218583D01*
Y224961*
X175427Y225426*
Y238425*
X176451Y48740D02*
Y53150D01*
X175978*
X178911Y39783D02*
Y38957D01*
X169600*
Y53150*
X188439Y35039D02*
Y37933D01*
X180860Y45512*
Y47205*
X179325Y48740*
X176451*
X189293Y206181D02*
Y218583D01*
X199128Y50079D02*
X202278D01*
X204167Y51969*
Y59134*
X200781Y62520*
X199222*
Y64361*
X199128Y56378D02*
X196963D01*
X189581Y48996*
X210841Y35039D02*
X208813D01*
Y49921*
X212179Y99783D02*
X220939D01*
Y94567*
X219522Y93150*
X212179*
Y99783*
G36*
X220939*
Y94567*
X219522Y93150*
X212179*
Y99783*
G37*
Y108583D02*
X220821D01*
Y103524*
X212179*
Y108583*
G36*
X220821*
Y103524*
X212179*
Y108583*
G37*
X212199Y89705D02*
X218656D01*
X219994Y88366*
Y83504*
X212199*
Y89705*
G36*
X218656*
X219994Y88366*
Y83504*
X212199*
Y89705*
G37*
X213596Y79902D02*
X220919D01*
Y73701*
X212041*
Y78346*
X213596Y79902*
G36*
X220919*
Y73701*
X212041*
Y78346*
X213596Y79902*
G37*
X221254Y214961D02*
X209207D01*
X207081Y212835*
Y204567*
X221254*
Y214961*
G36*
X209207*
X207081Y212835*
Y204567*
X221254*
Y214961*
G37*
D02*
D18*
X31963Y253071D02*
X35506Y249528D01*
X93459*
Y252126*
X103144*
Y256378*
X105191*
Y264173*
X83852*
Y257165*
X65270*
Y262283*
X58970*
Y254567*
X40781*
X38183Y257165*
Y274488*
X34325*
Y277559*
X32986*
Y276614*
X31963Y275591*
Y253071*
G36*
X35506Y249528*
X93459*
Y252126*
X103144*
Y256378*
X105191*
Y264173*
X83852*
Y257165*
X65270*
Y262283*
X58970*
Y254567*
X40781*
X38183Y257165*
Y274488*
X34325*
Y277559*
X32986*
Y276614*
X31963Y275591*
Y253071*
G37*
X43065Y277480D02*
Y274488D01*
X39522*
Y257717*
X41490Y255748*
X50309*
Y270630*
X44719Y276220*
Y277480*
X43065*
G36*
Y274488*
X39522*
Y257717*
X41490Y255748*
X50309*
Y270630*
X44719Y276220*
Y277480*
X43065*
G37*
X108656Y136299D02*
Y111417D01*
X117238*
Y122047*
X124640*
Y127480*
X130388*
Y129449*
X131569Y130630*
Y136299*
X108656*
G36*
Y111417*
X117238*
Y122047*
X124640*
Y127480*
X130388*
Y129449*
X131569Y130630*
Y136299*
X108656*
G37*
X129128Y114331D02*
X131018Y112441D01*
Y111969*
X131963Y111024*
X132278*
X133459Y109843*
Y107323*
X133931Y106850*
X143144*
Y101575*
X149679*
X151411Y103307*
Y110394*
X146844*
Y110551*
X144246Y113150*
X141805*
Y115827*
X132593*
Y120787*
X129128*
Y114331*
G36*
X131018Y112441*
Y111969*
X131963Y111024*
X132278*
X133459Y109843*
Y107323*
X133931Y106850*
X143144*
Y101575*
X149679*
X151411Y103307*
Y110394*
X146844*
Y110551*
X144246Y113150*
X141805*
Y115827*
X132593*
Y120787*
X129128*
Y114331*
G37*
X133852Y117008D02*
X139758D01*
Y126535*
X134089*
Y126220*
X126293*
Y122047*
X133852*
Y117008*
G36*
X139758*
Y126535*
X134089*
Y126220*
X126293*
Y122047*
X133852*
Y117008*
G37*
X146451Y166378D02*
Y140709D01*
X149285*
X150545Y139449*
Y136693*
X155742*
Y140236*
X152278*
X151096Y141417*
Y143386*
X152435Y144724*
X154561*
X155821Y143465*
Y136693*
X160939*
Y147165*
X166451*
X171648Y152362*
Y176929*
X171490Y177087*
Y188268*
X168341Y191417*
X158813*
X158341Y190945*
Y166378*
X146451*
G36*
Y140709*
X149285*
X150545Y139449*
Y136693*
X155742*
Y140236*
X152278*
X151096Y141417*
Y143386*
X152435Y144724*
X154561*
X155821Y143465*
Y136693*
X160939*
Y147165*
X166451*
X171648Y152362*
Y176929*
X171490Y177087*
Y188268*
X168341Y191417*
X158813*
X158341Y190945*
Y166378*
X146451*
G37*
D02*
D19*
X4404Y32008D03*
Y34213D03*
Y36378D03*
Y38543D03*
Y40709D03*
Y42874D03*
Y45079D03*
X8026Y34803D03*
X8065Y31811D03*
X11884Y153386D03*
Y155591D03*
Y157795D03*
Y160000D03*
X11963Y162205D03*
Y164409D03*
Y166614D03*
Y168819D03*
X12593Y94724D03*
Y96929D03*
Y99094D03*
Y101260D03*
Y103425D03*
Y105591D03*
Y107795D03*
Y112283D03*
X12632Y90315D03*
Y92520D03*
Y110079D03*
X12829Y210000D03*
X12868Y48661D03*
Y50866D03*
Y53071D03*
Y55276D03*
Y57441D03*
Y59606D03*
Y61772D03*
Y63937D03*
Y66142D03*
Y68346D03*
Y70551D03*
X12947Y88110D03*
X14719Y90157D03*
X14955Y210000D03*
Y212126D03*
Y214252D03*
Y216378D03*
X15033Y50787D03*
Y52992D03*
Y55197D03*
Y57362D03*
Y59528D03*
Y61693D03*
Y63858D03*
Y66063D03*
X15073Y48583D03*
Y68346D03*
X15112Y85827D03*
X15152Y88110D03*
X15860Y180000D03*
Y189252D03*
Y201457D03*
X17199Y50787D03*
Y52992D03*
Y55197D03*
Y57362D03*
Y59528D03*
Y61693D03*
Y63858D03*
Y66063D03*
X17238Y48504D03*
Y87953D03*
X17278Y83622D03*
Y85827D03*
X18734Y145433D03*
Y147638D03*
X19049Y169921D03*
Y172126D03*
X19128Y174331D03*
Y182992D03*
Y185157D03*
Y187323D03*
Y189488D03*
Y191654D03*
Y193819D03*
Y196024D03*
Y198228D03*
Y202717D03*
X19167Y200512D03*
X19404Y48504D03*
Y52913D03*
Y55118D03*
Y57283D03*
Y59449D03*
Y61614D03*
Y63780D03*
Y81535D03*
Y83701D03*
Y85906D03*
X19443Y50709D03*
X20565Y95492D03*
Y125315D03*
Y135276D03*
X20585Y115413D03*
X20703Y105512D03*
X20900Y145433D03*
Y147638D03*
X21215Y172126D03*
X21293Y170000D03*
Y174331D03*
Y176535D03*
X21333Y183150D03*
Y185315D03*
Y187480D03*
Y189646D03*
X21569Y59370D03*
Y61535D03*
Y79291D03*
Y81457D03*
Y83622D03*
Y85827D03*
X23065Y145433D03*
Y147638D03*
X23301Y270472D03*
X23734Y59370D03*
Y77126D03*
Y79291D03*
Y81457D03*
Y83622D03*
X25860Y74882D03*
Y77047D03*
Y79213D03*
Y81378D03*
X26293Y250866D03*
X27396Y73386D03*
X27553Y78110D03*
X27632Y75906D03*
X28262Y107323D03*
Y150787D03*
X28321Y37756D03*
X28419Y127795D03*
Y129961D03*
Y132126D03*
Y134291D03*
Y136457D03*
Y138661D03*
Y143150D03*
X28459Y140945D03*
X29285Y109213D03*
X29600Y126142D03*
X30073Y37756D03*
X30230Y95039D03*
Y97323D03*
Y99488D03*
Y101654D03*
X30467Y91260D03*
Y105118D03*
Y107323D03*
X30545Y127953D03*
Y130118D03*
Y132283D03*
Y134449D03*
Y136614D03*
Y138819D03*
Y143307D03*
Y145512D03*
X30585Y141102D03*
X31411Y93150D03*
Y109173D03*
Y111417D03*
Y113701D03*
Y115866D03*
Y118031D03*
X32120Y217146D03*
X32199Y167402D03*
X32278Y212126D03*
X32356Y95079D03*
Y97323D03*
Y99606D03*
X32514Y88504D03*
Y90630D03*
X32907Y172126D03*
X33222Y155354D03*
Y157559D03*
X33380Y179803D03*
Y198898D03*
X33537Y92835D03*
X33970Y184724D03*
X34246Y194488D03*
X34364Y207165D03*
X34482Y253780D03*
Y255984D03*
X34561Y87874D03*
Y95157D03*
Y97402D03*
Y99685D03*
X34640Y90079D03*
X35191Y85827D03*
X35663Y169606D03*
X36215Y142677D03*
X36451Y96299D03*
Y98583D03*
X36687Y253780D03*
Y255984D03*
X36844Y162756D03*
X36923Y84646D03*
X37317Y204803D03*
X37789Y169606D03*
X38656Y134961D03*
Y137165D03*
Y139291D03*
X38813Y283150D03*
X39679Y83307D03*
Y133228D03*
X39758Y141024D03*
X39915Y196063D03*
X40624Y163228D03*
X40703Y135039D03*
X40860Y137165D03*
Y139291D03*
X40900Y214685D03*
Y216850D03*
Y219016D03*
Y221181D03*
X41333Y143858D03*
X41569Y261260D03*
Y263465D03*
Y265669D03*
X41805Y194961D03*
Y197165D03*
X42593Y267480D03*
X43065Y214685D03*
Y216850D03*
Y219016D03*
Y221181D03*
X43774Y256850D03*
Y259055D03*
Y261496D03*
Y263465D03*
Y265669D03*
X44010Y194961D03*
Y197165D03*
X44069Y37697D03*
X44089Y31850D03*
Y34823D03*
X44797Y267480D03*
X45230Y214764D03*
Y216929D03*
Y219094D03*
Y221260D03*
X45978Y259370D03*
Y261575D03*
Y263780D03*
Y265827D03*
X46608Y186693D03*
X47396Y206142D03*
Y214764D03*
Y216929D03*
Y219094D03*
Y221260D03*
X48026Y260000D03*
X48341Y32402D03*
Y36890D03*
Y39094D03*
Y41299D03*
X48380Y34685D03*
X48813Y199921D03*
X49364Y204961D03*
Y207165D03*
X49522Y53622D03*
X49561Y214685D03*
Y216850D03*
Y219016D03*
Y221181D03*
X49837Y165276D03*
Y176299D03*
Y178583D03*
Y180787D03*
Y182992D03*
X50506Y32402D03*
Y36890D03*
Y39094D03*
Y41299D03*
X50545Y34685D03*
Y55472D03*
Y196457D03*
X51490Y204882D03*
Y207087D03*
X51648Y53661D03*
X51726Y214685D03*
Y216850D03*
Y219016D03*
Y221181D03*
X51805Y137874D03*
X52041Y167480D03*
Y178583D03*
Y180787D03*
Y182992D03*
X52671Y32402D03*
Y36890D03*
Y39094D03*
Y41299D03*
Y144094D03*
X52711Y34685D03*
Y55472D03*
X53656Y204843D03*
Y207008D03*
X53813Y53661D03*
X53892Y214764D03*
Y216929D03*
Y219094D03*
Y221260D03*
X54246Y169606D03*
Y180709D03*
Y182913D03*
X54325Y127874D03*
X54482Y160709D03*
Y162913D03*
X54837Y32402D03*
Y36890D03*
Y39094D03*
Y41299D03*
X54876Y34685D03*
Y55472D03*
X55033Y283150D03*
X55821Y171102D03*
Y204843D03*
Y207008D03*
X55900Y115433D03*
X55978Y53661D03*
X56057Y214764D03*
Y216929D03*
Y219094D03*
Y221260D03*
X56293Y164094D03*
X56372Y161969D03*
X56451Y182913D03*
X57041Y55512D03*
X57238Y271102D03*
X57317Y172677D03*
X57986Y204921D03*
Y207087D03*
X58026Y87087D03*
X58144Y53661D03*
X58222Y214764D03*
Y216929D03*
Y219094D03*
Y221260D03*
X58498Y162047D03*
X58656Y182913D03*
X59049Y169370D03*
X59207Y55472D03*
X59305Y37343D03*
Y39626D03*
X59325Y31929D03*
X59344Y34626D03*
X59443Y143543D03*
X60152Y204921D03*
Y207087D03*
X60230Y174567D03*
X60309Y53661D03*
X60388Y214764D03*
Y216929D03*
Y219094D03*
Y221260D03*
X60742Y101457D03*
X60860Y182835D03*
X61096Y87953D03*
X61372Y55472D03*
X62120Y167165D03*
Y169370D03*
X62317Y204921D03*
Y207087D03*
X62474Y53661D03*
X62514Y99528D03*
X62553Y214843D03*
Y217008D03*
Y219173D03*
Y221339D03*
X63055Y177490D03*
X63065Y174488D03*
Y182835D03*
X63537Y55472D03*
X64325Y164961D03*
Y167165D03*
Y169370D03*
X64482Y204921D03*
Y207087D03*
X64640Y53661D03*
Y64882D03*
X64719Y214843D03*
Y217008D03*
Y219173D03*
Y221339D03*
X64876Y115591D03*
X65270Y144016D03*
X65427Y157165D03*
Y159370D03*
Y163071D03*
X65663Y174567D03*
X65703Y55472D03*
X66215Y134488D03*
X66451Y61260D03*
X66530Y165039D03*
Y167244D03*
Y169449D03*
X66608Y161181D03*
X66648Y205000D03*
Y207165D03*
X66884Y214764D03*
Y216929D03*
Y219094D03*
Y221260D03*
X67632Y159291D03*
Y163071D03*
X67868Y174567D03*
X68577Y120236D03*
X68734Y165039D03*
Y167244D03*
Y169449D03*
X68813Y161181D03*
Y205000D03*
Y207165D03*
X69049Y214764D03*
Y216929D03*
Y219094D03*
Y221260D03*
X69522Y267874D03*
X69679Y180551D03*
Y182756D03*
Y184961D03*
X69837Y163071D03*
X69876Y194803D03*
X69915Y189685D03*
Y192283D03*
X70073Y144882D03*
Y174567D03*
Y187323D03*
X70309Y272520D03*
X70624Y123150D03*
X70781Y96299D03*
X70939Y165039D03*
Y167244D03*
Y169449D03*
Y204961D03*
X70978Y196535D03*
X71018Y207087D03*
X71215Y214843D03*
Y217008D03*
Y219173D03*
Y221339D03*
X71884Y180551D03*
Y182756D03*
Y184961D03*
X72041Y189685D03*
Y192283D03*
Y194803D03*
X72199Y187323D03*
X72278Y174488D03*
X72671Y135433D03*
X72750Y144803D03*
X73144Y165118D03*
Y167323D03*
Y169528D03*
Y196614D03*
X73222Y207087D03*
X73380Y214843D03*
Y217008D03*
Y219173D03*
Y221339D03*
X73852Y143071D03*
X74089Y180472D03*
Y182677D03*
Y184882D03*
X74207Y189764D03*
Y192362D03*
Y194882D03*
X74364Y187402D03*
X74482Y174488D03*
X75309Y196614D03*
X75348Y167323D03*
Y169528D03*
X75545Y214843D03*
Y217008D03*
Y219173D03*
Y221339D03*
X75663Y32520D03*
X76057Y143071D03*
X76136Y38031D03*
X76293Y159921D03*
Y182677D03*
Y184882D03*
X76372Y189764D03*
Y192362D03*
Y194882D03*
X76530Y187402D03*
X76687Y174488D03*
X77474Y196614D03*
X77711Y214843D03*
Y217008D03*
Y219173D03*
Y221339D03*
X77868Y32520D03*
X77947Y68661D03*
Y272520D03*
X78262Y72441D03*
X78419Y58268D03*
X78498Y184882D03*
X78537Y189764D03*
Y192362D03*
Y194882D03*
X78695Y187402D03*
X78970Y70472D03*
X79600Y204961D03*
X79640Y196614D03*
X79876Y214921D03*
Y217087D03*
Y219252D03*
Y221417D03*
X80073Y32520D03*
Y68661D03*
X80703Y184803D03*
Y189764D03*
Y192362D03*
Y194882D03*
X80781Y203071D03*
X80860Y187402D03*
X81018Y119606D03*
X81096Y145512D03*
X81254Y87244D03*
X81766Y204961D03*
Y207165D03*
X81805Y159449D03*
X81884Y196614D03*
X82041Y214921D03*
Y217087D03*
Y219252D03*
Y221417D03*
X82199Y32520D03*
Y68661D03*
Y251575D03*
Y253858D03*
X82278Y48268D03*
X82947Y203071D03*
X83026Y189764D03*
Y192362D03*
Y194882D03*
X83380Y87244D03*
X83852Y31024D03*
X83931Y204961D03*
Y207165D03*
X84010Y159449D03*
X84049Y196614D03*
X84128Y47087D03*
Y49252D03*
X84561Y251654D03*
Y253858D03*
X85112Y203071D03*
X85191Y194882D03*
X85348Y192362D03*
X85663Y250079D03*
X85742Y68819D03*
X86018Y45984D03*
Y48150D03*
Y50315D03*
Y52480D03*
X86096Y205039D03*
Y207244D03*
X86215Y159449D03*
Y196693D03*
X86530Y184331D03*
X86766Y251654D03*
Y253858D03*
X87278Y203150D03*
X87317Y212480D03*
X87356Y194961D03*
X87632Y156693D03*
X87829Y23543D03*
X87868Y44882D03*
Y75748D03*
X87907Y49213D03*
Y51378D03*
X87947Y47008D03*
X88104Y250000D03*
X88262Y205039D03*
X88380Y196693D03*
X88498Y174488D03*
X88970Y251654D03*
Y253858D03*
X88990Y272520D03*
X89049Y53307D03*
Y216772D03*
Y221181D03*
X89128Y218976D03*
X89443Y203150D03*
X89522Y194961D03*
X89679Y179764D03*
Y184016D03*
X89837Y87244D03*
X89994Y23543D03*
X90073Y44961D03*
Y47126D03*
Y49291D03*
Y51457D03*
X90427Y205039D03*
X90545Y196693D03*
X90624Y174488D03*
X90781Y131732D03*
X91096Y251732D03*
X91175Y53386D03*
Y253858D03*
X91254Y216693D03*
Y221102D03*
X91333Y218898D03*
X91411Y142047D03*
X91884Y179764D03*
Y181890D03*
Y184016D03*
X92199Y47126D03*
Y49331D03*
Y51535D03*
X92238Y44921D03*
X93065Y157323D03*
X93301Y53386D03*
Y163858D03*
X93380Y189685D03*
Y216772D03*
Y221181D03*
X93459Y218976D03*
X93695Y144094D03*
X93852Y115827D03*
Y117953D03*
Y120128D03*
Y122283D03*
X94364Y47126D03*
Y49331D03*
Y51535D03*
X94404Y44921D03*
X95348Y145512D03*
X95467Y53465D03*
X96057Y115827D03*
Y117953D03*
Y120128D03*
Y122283D03*
Y131890D03*
X96530Y47126D03*
Y49331D03*
Y51535D03*
X96569Y44921D03*
X96687Y272520D03*
X97002Y146929D03*
X97238Y28031D03*
Y142992D03*
X97632Y53465D03*
X98173Y115827D03*
Y117953D03*
Y120128D03*
Y122283D03*
X98498Y148504D03*
X98695Y47126D03*
Y49331D03*
Y51535D03*
X98734Y44921D03*
X98892Y83937D03*
X99404Y28031D03*
X99797Y53465D03*
X99994Y150157D03*
X100073Y272520D03*
X100309Y115827D03*
Y117953D03*
Y120079D03*
Y122205D03*
X100545Y19685D03*
X100939Y44882D03*
Y47047D03*
Y49252D03*
Y51457D03*
X101569Y28031D03*
X102435Y142598D03*
X102494Y125669D03*
X102711Y19055D03*
X103104Y47047D03*
Y49252D03*
Y51457D03*
X103144Y44882D03*
X103537Y78425D03*
X103616Y263858D02*
Y259528D01*
X103596Y259508*
X103734Y28031D03*
X104167Y55197D03*
X104876Y19055D03*
X105033Y144252D03*
X105112Y33228D03*
X105270Y47087D03*
Y49213D03*
X105900Y28031D03*
X106215Y238268D03*
X106293Y76693D03*
X106608Y149213D03*
Y197402D03*
X107041Y19055D03*
X107081Y164803D03*
X108734Y254803D02*
Y252032D01*
X109537Y251229*
X108734Y254803D03*
X109207Y19055D03*
X109443Y76772D03*
X109837Y230945D03*
X110230Y206457D03*
X110388Y225197D03*
X110624Y272520D03*
X111372Y19055D03*
X111805Y203465D03*
X111963Y149213D03*
Y230945D03*
X112041Y140394D03*
X112632Y27244D03*
X113065Y138504D03*
X113537Y19055D03*
Y75118D03*
X113616Y87480D03*
X113695Y255512D02*
Y259449D01*
X113636Y259508*
X113695Y255512D03*
X114167Y140236D03*
X114797Y27244D03*
X115348Y138425D03*
X115703Y19055D03*
X115742Y184921D03*
X116215Y204261D03*
X116372Y140315D03*
Y246929D03*
X116963Y27244D03*
X117537Y251229D02*
Y254583D01*
X116608Y255512*
X113695*
X117907Y19055D03*
X118341Y46142D03*
Y48268D03*
Y50315D03*
Y272520D03*
X118498Y55748D03*
X118577Y106929D03*
X118970Y84724D03*
X119128Y27244D03*
X120073Y19055D03*
X120230Y47244D03*
Y49370D03*
X121293Y27244D03*
X121333Y272520D03*
X121569Y168268D03*
Y170472D03*
Y172677D03*
X122120Y48346D03*
X122238Y19055D03*
X123459Y27244D03*
X123734Y170472D03*
X123774Y168268D03*
Y172677D03*
Y174882D03*
X124719Y108898D03*
Y111102D03*
Y113268D03*
Y115433D03*
X124797Y262598D02*
Y263543D01*
Y262598D03*
X125270Y81181D03*
X125427Y128425D03*
Y130551D03*
Y132677D03*
Y134803D03*
Y254646D03*
X125624Y27244D03*
X125900Y170472D03*
X125978Y168268D03*
Y172677D03*
Y174882D03*
X126923Y108898D03*
Y111102D03*
Y112992D03*
X127002Y117598D03*
X127159Y56535D03*
X127553Y128504D03*
Y132677D03*
Y134803D03*
X127632Y59528D03*
X127789Y27244D03*
Y122992D03*
Y125276D03*
X129049Y111102D03*
X129128Y106693D03*
Y108898D03*
X129207Y180945D03*
Y218740D03*
X129443Y248110D02*
Y252205D01*
Y248110D02*
Y218740D01*
X129207*
X129443Y252205D03*
X129600Y130551D03*
X129679Y132677D03*
X129955Y27244D03*
X129994Y122992D03*
Y125276D03*
X130781Y19055D03*
X131096Y82913D03*
X131254Y106693D03*
Y108898D03*
X131333Y77480D03*
X132120Y45984D03*
Y48189D03*
X132159Y27244D03*
X132199Y122992D03*
Y125276D03*
X132219Y272520D03*
X132278Y66693D03*
X132514Y228661D03*
X132829Y128425D03*
Y184016D03*
X132907Y101417D03*
X132947Y19055D03*
X133222Y62756D03*
X133970Y42795D03*
Y44961D03*
Y47126D03*
Y49291D03*
Y57165D03*
X134167Y256614D03*
X134246Y231496D03*
X134325Y27244D03*
Y226220D03*
X135112Y19055D03*
Y97087D03*
X135506Y186535D03*
X135663Y31969D03*
Y34094D03*
Y36299D03*
X136136Y42795D03*
Y44961D03*
Y47126D03*
Y49291D03*
Y57165D03*
X136490Y27244D03*
X137159Y195433D03*
Y256929D03*
X137278Y19055D03*
X137396Y211890D03*
Y214016D03*
X137553Y37480D03*
X137868Y31969D03*
Y34094D03*
X138262Y45591D03*
X138695Y27244D03*
X139049Y221969D03*
X139285Y212992D03*
X139364Y36299D03*
X139443Y19055D03*
X139994Y272520D03*
X140073Y31969D03*
Y34094D03*
Y38504D03*
Y145827D03*
Y147913D03*
Y150079D03*
X140152Y196378D03*
X140703Y67402D03*
X141608Y19055D03*
X141726Y45591D03*
X142199Y34094D03*
Y36299D03*
Y38504D03*
X142278Y145827D03*
Y147913D03*
Y150079D03*
X142435Y213386D03*
X142829Y223071D03*
X142986Y65236D03*
Y272520D03*
X143380Y231181D03*
X143537Y184488D03*
Y186693D03*
Y188898D03*
X143852Y91417D03*
X143931Y87165D03*
Y89291D03*
X144404Y145748D03*
Y147874D03*
Y150079D03*
Y152205D03*
Y154331D03*
X144600Y30236D03*
X145112Y171024D03*
X145348Y79843D03*
X145663Y222126D03*
X145742Y184409D03*
Y186614D03*
Y188819D03*
X145821Y218819D03*
X145978Y91417D03*
X146057Y87165D03*
Y89291D03*
X146136Y31811D03*
Y169213D03*
X146215Y172756D03*
X147238Y170945D03*
X147632Y206929D03*
X147750Y249685D03*
X147789Y203780D03*
X147947Y184409D03*
X148026Y186614D03*
Y188898D03*
Y191102D03*
Y193307D03*
X148183Y87087D03*
Y89213D03*
Y225118D03*
X148262Y138425D03*
Y169134D03*
X148341Y172756D03*
X148656Y209921D03*
X149364Y170945D03*
X149443Y211654D03*
X149837Y176929D03*
X149994Y215984D03*
X150073Y204016D03*
X150152Y184409D03*
Y247087D03*
X150230Y186614D03*
Y188819D03*
Y191024D03*
Y193228D03*
X150309Y32126D03*
Y34331D03*
Y36496D03*
Y38661D03*
Y40827D03*
Y42992D03*
Y45197D03*
X150388Y169134D03*
X150467Y172756D03*
X150624Y218898D03*
X150781Y210394D03*
X151175Y199921D03*
X151490Y170945D03*
X152041Y244724D03*
X152199Y201811D03*
Y204016D03*
X152356Y184409D03*
X152435Y169134D03*
Y186614D03*
Y188819D03*
Y191024D03*
Y193228D03*
X152474Y32126D03*
Y34331D03*
Y36496D03*
Y38661D03*
Y40827D03*
Y42992D03*
Y45197D03*
X152593Y172756D03*
X153380Y89528D03*
Y142441D03*
X153616Y170866D03*
X153715Y196299D03*
X153951Y272520D03*
X154404Y201732D03*
Y203937D03*
X154561Y169055D03*
X154640Y32126D03*
Y34331D03*
Y36496D03*
Y38661D03*
Y40827D03*
Y42992D03*
X154719Y172677D03*
X154837Y82362D03*
X155033Y242756D03*
X155191Y116693D03*
X155742Y179449D03*
Y226850D03*
X156530Y89606D03*
X156608Y201732D03*
Y203937D03*
X156805Y32126D03*
Y34331D03*
Y36496D03*
Y38661D03*
Y40827D03*
Y42992D03*
Y80000D03*
X156923Y252520D03*
X157002Y98661D03*
X157947Y103701D03*
X158026Y242756D03*
X158498Y92126D03*
X158656Y209685D03*
X158970Y32126D03*
Y34331D03*
Y36496D03*
Y38661D03*
Y40827D03*
X159049Y250394D03*
X160152Y43976D03*
X161018Y104094D03*
X161136Y32126D03*
Y34331D03*
Y36496D03*
Y38661D03*
Y40827D03*
X161175Y227165D03*
Y248268D03*
X161805Y84961D03*
X161884Y245354D03*
X162435Y108898D03*
X162986Y88031D03*
X163144Y140787D03*
Y142913D03*
Y145039D03*
X163301Y32126D03*
Y34331D03*
Y36496D03*
Y38661D03*
Y40827D03*
Y42992D03*
X163459Y215748D03*
X163616Y208740D03*
X163695Y152441D03*
Y159055D03*
Y272283D03*
X164089Y64567D03*
Y66850D03*
X164561Y233858D03*
X164640Y71654D03*
X164876Y112087D03*
X164955Y160787D03*
X165033Y139685D03*
Y141811D03*
Y143937D03*
X165467Y32126D03*
Y34331D03*
Y36496D03*
Y38661D03*
Y40827D03*
Y42992D03*
X165978Y65748D03*
X166215Y45039D03*
Y47244D03*
Y152441D03*
Y159055D03*
X166766Y71654D03*
X167081Y91024D03*
X167159Y137559D03*
Y139685D03*
Y141811D03*
X167474Y160787D03*
X167553Y206929D03*
X167632Y122598D03*
X167711Y195827D03*
X167947Y64724D03*
Y66929D03*
X168183Y143622D03*
X168419Y231969D03*
X168577Y158976D03*
X168813Y218268D03*
Y220315D03*
X169285Y137559D03*
Y139685D03*
Y141811D03*
X169758Y160787D03*
X170309Y143622D03*
Y201417D03*
X170388Y203622D03*
Y205827D03*
X170467Y71654D03*
Y207953D03*
X170545Y231969D03*
X170781Y217717D03*
Y219921D03*
X170860Y92283D03*
X171411Y137559D03*
Y139685D03*
Y141811D03*
Y226535D03*
X172435Y143622D03*
X172593Y195512D03*
X173222Y138583D03*
Y140709D03*
X173380Y113150D03*
X175348Y68031D03*
X175663Y125197D03*
X175742Y110157D03*
X177278Y167598D03*
Y172520D03*
X177632Y194961D03*
X178262Y118346D03*
X178734Y132126D03*
Y134173D03*
Y136299D03*
Y138346D03*
Y140551D03*
Y142756D03*
X178813Y227402D03*
X178911Y39783D03*
X179108Y30394D03*
Y32559D03*
Y34724D03*
Y36909D03*
X179443Y149193D03*
X180230Y237795D03*
X180703Y53307D03*
X180939Y132126D03*
Y134173D03*
Y136299D02*
Y142756D01*
Y136299D03*
Y138346D03*
Y140551D03*
Y142756D03*
X181333Y233622D03*
X181569Y215906D03*
Y217953D03*
Y220000D03*
X181884Y123543D03*
X182041Y225984D03*
X182356Y231654D03*
X182514Y54488D03*
Y93386D03*
X182593Y52283D03*
X183144Y132126D03*
Y134173D03*
Y136299D03*
Y138346D03*
Y140551D03*
Y142756D03*
X183616Y233543D03*
Y235669D03*
X184581Y39862D03*
X184699Y30236D03*
Y32402D03*
Y34567D03*
Y36752D03*
X185348Y132126D03*
Y134173D03*
Y136299D03*
Y138346D03*
Y142756D03*
X185427Y173504D03*
Y175630D03*
Y177756D03*
Y179882D03*
Y182008D03*
X185742Y231339D03*
Y233465D03*
Y235669D03*
X187396Y195118D03*
Y197323D03*
Y199528D03*
X187553Y103780D03*
Y132126D03*
Y134173D03*
Y136142D03*
Y173504D03*
Y175630D03*
Y177756D03*
Y179882D03*
Y182008D03*
X187947Y237244D03*
X188183Y85906D03*
X189679Y173504D03*
Y175630D03*
Y177756D03*
Y179882D03*
Y182008D03*
X189994Y195118D03*
X190152Y111575D03*
Y237244D03*
X190388Y244016D03*
X190781Y125118D03*
X191805Y173504D03*
Y175630D03*
Y177756D03*
Y179882D03*
Y182008D03*
X192199Y195118D03*
X192356Y135984D03*
X192671Y230787D03*
X193911Y173504D03*
Y175630D03*
Y177756D03*
Y179882D03*
Y182008D03*
X194404Y195118D03*
Y197323D03*
Y199528D03*
Y201654D03*
X194719Y218110D03*
X195348Y130787D03*
Y132913D03*
X196057Y173504D03*
Y175630D03*
Y177756D03*
Y179882D03*
Y182008D03*
X196372Y215118D03*
X196451Y229685D03*
X196530Y225827D03*
X196667Y39882D03*
X196687Y30276D03*
Y32441D03*
Y34606D03*
Y36791D03*
X196963Y73701D03*
X198419Y90236D03*
X199049Y237402D03*
X200152Y144252D03*
X200388Y262126D03*
X200781Y109055D03*
X201175Y88661D03*
X202514Y219685D03*
X202671Y223465D03*
X202986Y228189D03*
X203065Y230394D03*
X203203Y100000D03*
X203301Y64252D03*
X203695Y214016D03*
X203931Y118110D03*
X204167Y88740D03*
X205033Y225906D03*
X205506Y100000D03*
X206215Y216535D03*
X206687Y260157D03*
X207002Y94567D03*
Y96693D03*
X207081Y92598D03*
X208104Y227087D03*
X208498Y59764D03*
X208970Y141890D03*
X209837Y148583D03*
X212986Y221339D03*
X213281Y32441D03*
Y34606D03*
Y36791D03*
X213301Y39862D03*
Y148189D03*
X213380Y113701D03*
Y243937D03*
X213459Y184724D03*
X213695Y240630D03*
X214010Y89134D03*
X214325Y69961D03*
X216372Y32441D03*
Y34606D03*
Y36772D03*
Y38957D03*
X217081Y61496D03*
Y134331D03*
Y142835D03*
X218341Y153819D03*
X218734Y72520D03*
X218813Y118268D03*
X218970Y116220D03*
X219207Y134331D03*
Y136457D03*
Y138583D03*
Y140709D03*
Y142835D03*
X219443Y111732D03*
X220073Y61496D03*
X220152Y59291D03*
X220191Y50472D03*
X220742Y32362D03*
Y34567D03*
Y36732D03*
Y38898D03*
Y41063D03*
Y43228D03*
Y45433D03*
X221018Y104961D03*
X221963Y60551D03*
X222041Y58346D03*
X222907Y32362D03*
Y34567D03*
Y36732D03*
Y38898D03*
Y41063D03*
Y43228D03*
Y45433D03*
Y47638D03*
Y52008D03*
Y54173D03*
Y56378D03*
X223144Y88661D03*
Y90787D03*
X223222Y84094D03*
X223380Y191339D03*
X224089Y62520D03*
X224167Y60315D03*
X224246Y58189D03*
X224325Y80591D03*
Y196220D03*
X224522Y76654D03*
X225073Y32362D03*
Y34567D03*
Y36732D03*
Y38898D03*
Y41063D03*
Y43228D03*
Y45433D03*
Y47638D03*
Y49843D03*
Y52047D03*
X226411Y192244D03*
Y194449D03*
Y198858D03*
X226451Y190039D03*
Y196654D03*
X226530Y187953D03*
X227238Y32283D03*
Y34488D03*
Y36654D03*
Y38819D03*
Y40984D03*
Y43150D03*
Y45354D03*
Y49843D03*
Y52047D03*
X227278Y47638D03*
X228577Y192244D03*
Y194449D03*
Y198858D03*
Y201063D03*
X228616Y190039D03*
Y196654D03*
X228656Y187913D03*
X229404Y32283D03*
Y34488D03*
Y36654D03*
Y38819D03*
Y40984D03*
Y43150D03*
Y45354D03*
Y49843D03*
Y52047D03*
X229443Y47638D03*
D02*
D70*
X175703Y273602D03*
X189581Y48996D03*
D02*
D71*
X8403Y103221D02*
X9389D01*
Y102156*
X8403*
Y103221*
X3840D02*
X7862D01*
Y102156*
X3840*
Y103221*
X6580Y101289D02*
X6787Y101284D01*
X6986Y101272*
X7177Y101255*
X7358Y101225*
X7532Y101191*
X7697Y101145*
X7853Y101094*
X8001Y101035*
X8107Y100984*
X8209Y100933*
X8306Y100874*
X8403Y100811*
X8496Y100743*
X8589Y100675*
X8678Y100599*
X8763Y100519*
X8843Y100434*
X8919Y100350*
X8991Y100265*
X9054Y100176*
X9113Y100083*
X9169Y99990*
X9219Y99897*
X9261Y99800*
X9312Y99669*
X9359Y99529*
X9397Y99390*
X9426Y99242*
X9452Y99089*
X9469Y98933*
X9477Y98772*
X9481Y98603*
X9477Y98451*
X9469Y98307*
X9456Y98163*
X9435Y98019*
X9406Y97884*
X9376Y97753*
X9338Y97626*
X9291Y97499*
X9241Y97381*
X9185Y97262*
X9122Y97148*
X9054Y97038*
X8978Y96932*
X8898Y96831*
X8813Y96734*
X8720Y96641*
X8623Y96552*
X8522Y96467*
X8416Y96391*
X8302Y96319*
X8187Y96252*
X8065Y96193*
X7942Y96137*
X7811Y96087*
X7676Y96044*
X7540Y96006*
X7396Y95977*
X7244Y95951*
X7092Y95930*
X6935Y95917*
X6775Y95909*
X6606Y95905*
X6441Y95909*
X6280Y95917*
X6124Y95930*
X5971Y95951*
X5823Y95977*
X5680Y96006*
X5544Y96044*
X5409Y96087*
X5282Y96137*
X5155Y96188*
X5037Y96252*
X4922Y96315*
X4808Y96387*
X4702Y96463*
X4601Y96548*
X4504Y96636*
X4415Y96730*
X4326Y96827*
X4246Y96928*
X4174Y97030*
X4106Y97140*
X4043Y97254*
X3988Y97368*
X3937Y97491*
X3891Y97613*
X3852Y97740*
X3819Y97871*
X3793Y98007*
X3772Y98146*
X3759Y98290*
X3751Y98438*
X3747Y98590*
X3751Y98743*
X3759Y98891*
X3772Y99034*
X3793Y99178*
X3819Y99313*
X3852Y99444*
X3891Y99576*
X3937Y99698*
X3983Y99821*
X4043Y99939*
X4102Y100054*
X4170Y100159*
X4246Y100265*
X4326Y100367*
X4411Y100464*
X4500Y100557*
X4597Y100646*
X4698Y100730*
X4804Y100806*
X4914Y100878*
X5028Y100942*
X5146Y101001*
X5269Y101056*
X5396Y101107*
X5531Y101149*
X5667Y101187*
X5806Y101217*
X5954Y101242*
X6102Y101263*
X6259Y101276*
X6415Y101284*
X6580Y101289*
X6619Y100134D02*
X6390Y100126D01*
X6174Y100109*
X5976Y100070*
X5789Y100024*
X5616Y99965*
X5459Y99889*
X5316Y99800*
X5189Y99698*
X5075Y99584*
X4978Y99466*
X4893Y99339*
X4825Y99204*
X4770Y99060*
X4732Y98912*
X4711Y98755*
X4702Y98590*
X4711Y98425*
X4732Y98269*
X4770Y98121*
X4821Y97981*
X4889Y97846*
X4973Y97719*
X5070Y97601*
X5185Y97491*
X5311Y97389*
X5455Y97300*
X5616Y97228*
X5789Y97165*
X5976Y97119*
X6178Y97085*
X6398Y97068*
X6631Y97059*
X6864Y97068*
X7079Y97085*
X7278Y97119*
X7464Y97165*
X7637Y97224*
X7790Y97296*
X7930Y97381*
X8056Y97478*
X8166Y97588*
X8259Y97706*
X8344Y97829*
X8407Y97964*
X8458Y98108*
X8496Y98260*
X8517Y98421*
X8526Y98590*
X8517Y98759*
X8496Y98920*
X8458Y99072*
X8407Y99216*
X8340Y99352*
X8259Y99478*
X8162Y99597*
X8052Y99711*
X7925Y99808*
X7781Y99893*
X7625Y99969*
X7456Y100028*
X7270Y100075*
X7067Y100109*
X6851Y100126*
X6619Y100134*
X5320Y95160D02*
X6386D01*
Y93071*
X5320*
Y95160*
X3840Y92450D02*
X9389D01*
Y88639*
X8450*
Y91329*
X7139*
Y89007*
X6200*
Y91329*
X3840*
Y92450*
Y87721D02*
X9389D01*
Y86656*
X3840*
Y87721*
X7862Y86072D02*
Y84939D01*
X5007Y83974*
X7862Y83039*
Y81940*
X3988Y83352*
X3290Y83611*
X3201Y83644*
X3121Y83678*
X3049Y83712*
X2977Y83746*
X2913Y83780*
X2854Y83813*
X2799Y83843*
X2753Y83877*
X2664Y83944*
X2584Y84012*
X2512Y84088*
X2453Y84169*
X2398Y84257*
X2347Y84350*
X2309Y84461*
X2271Y84575*
X2245Y84697*
X2224Y84828*
X2211Y84972*
X2207Y85120*
X2211Y85272*
X2224Y85420*
X2241Y85573*
X2271Y85721*
X3104Y85814*
X3083Y85691*
X3066Y85577*
X3057Y85467*
X3053Y85361*
X3057Y85272*
X3066Y85188*
X3083Y85112*
X3108Y85040*
X3138Y84972*
X3176Y84913*
X3218Y84862*
X3273Y84811*
X3387Y84731*
X3519Y84655*
X3667Y84592*
X3827Y84541*
X7862Y86072*
X3840Y79098D02*
X9389D01*
Y77977*
X7206*
Y75782*
X9389*
Y74661*
X3840*
Y75782*
X6267*
Y77977*
X3840*
Y79098*
Y72724D02*
X9389Y74040D01*
Y72889*
X5578Y72056*
X9389Y71045*
Y69713*
X5515Y68736*
X9389Y67886*
Y66757*
X3840Y68106*
Y69299*
X7989Y70398*
X3840Y71502*
Y72724*
X4830Y62828D02*
X3840D01*
Y66554*
X3979Y66533*
X4115Y66507*
X4250Y66474*
X4385Y66431*
X4517Y66385*
X4648Y66326*
X4774Y66262*
X4901Y66190*
X4965Y66152*
X5032Y66106*
X5100Y66055*
X5172Y66004*
X5244Y65945*
X5320Y65881*
X5400Y65814*
X5485Y65742*
X5565Y65662*
X5654Y65581*
X5743Y65497*
X5836Y65404*
X5929Y65311*
X6026Y65209*
X6128Y65104*
X6229Y64993*
X6309Y64909*
X6390Y64824*
X6466Y64744*
X6538Y64672*
X6606Y64600*
X6669Y64532*
X6733Y64473*
X6792Y64414*
X6847Y64363*
X6898Y64313*
X6948Y64270*
X6991Y64228*
X7033Y64194*
X7071Y64165*
X7105Y64135*
X7139Y64114*
X7219Y64063*
X7299Y64017*
X7384Y63978*
X7464Y63949*
X7544Y63924*
X7625Y63907*
X7709Y63898*
X7790Y63894*
X7874Y63898*
X7955Y63907*
X8031Y63919*
X8103Y63941*
X8166Y63970*
X8230Y64000*
X8285Y64038*
X8335Y64084*
X8378Y64135*
X8416Y64190*
X8450Y64249*
X8479Y64313*
X8500Y64380*
X8513Y64452*
X8522Y64528*
X8526Y64613*
X8522Y64693*
X8513Y64769*
X8496Y64841*
X8475Y64909*
X8445Y64972*
X8411Y65031*
X8374Y65087*
X8323Y65137*
X8272Y65184*
X8209Y65226*
X8137Y65264*
X8056Y65294*
X7972Y65319*
X7874Y65340*
X7769Y65357*
X7659Y65366*
X7765Y66427*
X7976Y66398*
X8175Y66355*
X8352Y66300*
X8522Y66233*
X8670Y66152*
X8805Y66059*
X8923Y65954*
X9025Y65835*
X9118Y65704*
X9194Y65569*
X9261Y65425*
X9312Y65272*
X9355Y65112*
X9384Y64943*
X9406Y64769*
X9409Y64587*
X9401Y64385*
X9380Y64198*
X9346Y64021*
X9300Y63852*
X9236Y63699*
X9160Y63551*
X9071Y63420*
X8965Y63298*
X8851Y63187*
X8733Y63090*
X8606Y63010*
X8471Y62946*
X8331Y62896*
X8183Y62858*
X8027Y62837*
X7866Y62828*
X7680Y62837*
X7502Y62862*
X7325Y62904*
X7151Y62963*
X7067Y62997*
X6982Y63040*
X6893Y63086*
X6804Y63137*
X6716Y63192*
X6627Y63251*
X6538Y63319*
X6445Y63386*
X6377Y63441*
X6306Y63505*
X6229Y63577*
X6144Y63657*
X6052Y63750*
X5954Y63852*
X5849Y63961*
X5739Y64084*
X5624Y64203*
X5527Y64313*
X5434Y64410*
X5354Y64494*
X5282Y64570*
X5219Y64634*
X5168Y64685*
X5126Y64723*
X5049Y64786*
X4973Y64845*
X4901Y64896*
X4830Y64939*
Y62828*
X3840Y61885D02*
X4906D01*
Y60819*
X3840*
Y61885*
Y57233D02*
Y58299D01*
X7845*
X7714Y58446*
X7591Y58603*
X7477Y58764*
X7371Y58933*
X7278Y59111*
X7189Y59288*
X7109Y59479*
X7041Y59673*
X8006*
X8044Y59567*
X8090Y59462*
X8141Y59352*
X8204Y59237*
X8272Y59123*
X8348Y59009*
X8428Y58887*
X8522Y58768*
X8619Y58650*
X8720Y58544*
X8826Y58443*
X8932Y58354*
X9046Y58278*
X9164Y58206*
X9283Y58146*
X9409Y58096*
Y57233*
X3840*
Y55423D02*
X4906D01*
Y54357*
X3840*
Y55423*
Y50770D02*
Y51836D01*
X7845*
X7714Y51984*
X7591Y52141*
X7477Y52302*
X7371Y52471*
X7278Y52648*
X7189Y52826*
X7109Y53017*
X7041Y53211*
X8006*
X8044Y53105*
X8090Y53000*
X8141Y52889*
X8204Y52775*
X8272Y52661*
X8348Y52547*
X8428Y52424*
X8522Y52306*
X8619Y52187*
X8720Y52081*
X8826Y51980*
X8932Y51891*
X9046Y51815*
X9164Y51743*
X9283Y51684*
X9409Y51633*
Y50770*
X3840*
Y50839D02*
X9409D01*
X3840Y50932D02*
X9409D01*
X3840Y51026D02*
X9409D01*
X3840Y51120D02*
X9409D01*
X3840Y51213D02*
X9409D01*
X3840Y51307D02*
X9409D01*
X3840Y51401D02*
X9409D01*
X3840Y51494D02*
X9409D01*
X3840Y51588D02*
X9409D01*
X3840Y51682D02*
X9289D01*
X3840Y51776D02*
X9111D01*
X7816Y51869D02*
X8965D01*
X7733Y51963D02*
X8846D01*
X7657Y52057D02*
X8746D01*
X7584Y52150D02*
X8654D01*
X7518Y52244D02*
X8572D01*
X7454Y52338D02*
X8496D01*
X7396Y52431D02*
X8424D01*
X7343Y52525D02*
X8362D01*
X7293Y52619D02*
X8300D01*
X7246Y52713D02*
X8241D01*
X7199Y52806D02*
X8187D01*
X7158Y52900D02*
X8136D01*
X7119Y52994D02*
X8093D01*
X7084Y53087D02*
X8052D01*
X7052Y53181D02*
X8016D01*
X3840Y54399D02*
X4906D01*
X3840Y54493D02*
X4906D01*
X3840Y54587D02*
X4906D01*
X3840Y54680D02*
X4906D01*
X3840Y54774D02*
X4906D01*
X3840Y54868D02*
X4906D01*
X3840Y54961D02*
X4906D01*
X3840Y55055D02*
X4906D01*
X3840Y55149D02*
X4906D01*
X3840Y55243D02*
X4906D01*
X3840Y55336D02*
X4906D01*
X3840Y57304D02*
X9409D01*
X3840Y57398D02*
X9409D01*
X3840Y57491D02*
X9409D01*
X3840Y57585D02*
X9409D01*
X3840Y57679D02*
X9409D01*
X3840Y57772D02*
X9409D01*
X3840Y57866D02*
X9409D01*
X3840Y57960D02*
X9409D01*
X3840Y58054D02*
X9409D01*
X3840Y58147D02*
X9283D01*
X3840Y58241D02*
X9106D01*
X7813Y58335D02*
X8960D01*
X7730Y58428D02*
X8843D01*
X7654Y58522D02*
X8743D01*
X7582Y58616D02*
X8651D01*
X7515Y58709D02*
X8570D01*
X7452Y58803D02*
X8494D01*
X7394Y58897D02*
X8422D01*
X7341Y58991D02*
X8360D01*
X7292Y59084D02*
X8298D01*
X7244Y59178D02*
X8240D01*
X7198Y59272D02*
X8185D01*
X7157Y59365D02*
X8135D01*
X7117Y59459D02*
X8091D01*
X7083Y59553D02*
X8050D01*
X7051Y59646D02*
X8015D01*
X3840Y60865D02*
X4906D01*
X3840Y60958D02*
X4906D01*
X3840Y61052D02*
X4906D01*
X3840Y61146D02*
X4906D01*
X3840Y61239D02*
X4906D01*
X3840Y61333D02*
X4906D01*
X3840Y61427D02*
X4906D01*
X3840Y61520D02*
X4906D01*
X3840Y61614D02*
X4906D01*
X3840Y61708D02*
X4906D01*
X3840Y61802D02*
X4906D01*
X3840Y62832D02*
X4830D01*
X7773D02*
X7946D01*
X3840Y62926D02*
X4830D01*
X7261D02*
X8415D01*
X3840Y63020D02*
X4830D01*
X7022D02*
X8622D01*
X3840Y63113D02*
X4830D01*
X6846D02*
X8761D01*
X3840Y63207D02*
X4830D01*
X6693D02*
X8872D01*
X3840Y63301D02*
X4830D01*
X6561D02*
X8968D01*
X3840Y63394D02*
X4830D01*
X6435D02*
X9049D01*
X3840Y63488D02*
X4830D01*
X6324D02*
X9117D01*
X3840Y63582D02*
X4830D01*
X6224D02*
X9176D01*
X3840Y63676D02*
X4830D01*
X6126D02*
X9224D01*
X3840Y63769D02*
X4830D01*
X6033D02*
X9265D01*
X3840Y63863D02*
X4830D01*
X5943D02*
X9303D01*
X3840Y63957D02*
X4830D01*
X5854D02*
X7443D01*
X8137D02*
X9328D01*
X3840Y64050D02*
X4830D01*
X5769D02*
X7241D01*
X8298D02*
X9352D01*
X3840Y64144D02*
X4830D01*
X5681D02*
X7094D01*
X8384D02*
X9370D01*
X3840Y64238D02*
X4830D01*
X5593D02*
X6981D01*
X8443D02*
X9384D01*
X3840Y64331D02*
X4830D01*
X5509D02*
X6879D01*
X8485D02*
X9395D01*
X3840Y64425D02*
X4830D01*
X5420D02*
X6781D01*
X8508D02*
X9403D01*
X3840Y64519D02*
X4830D01*
X5331D02*
X6683D01*
X8520D02*
X9407D01*
X3840Y64613D02*
X4830D01*
X5240D02*
X6594D01*
X8526D02*
X9409D01*
X3840Y64706D02*
X4830D01*
X5144D02*
X6504D01*
X8520D02*
X9407D01*
X3840Y64800D02*
X4830D01*
X5031D02*
X6413D01*
X8506D02*
X9402D01*
X3840Y64894D02*
X4830D01*
X4905D02*
X6324D01*
X8480D02*
X9390D01*
X3840Y64987D02*
X6235D01*
X8437D02*
X9376D01*
X3840Y65081D02*
X6148D01*
X8378D02*
X9360D01*
X3840Y65175D02*
X6059D01*
X8282D02*
X9338D01*
X3840Y65269D02*
X5969D01*
X8125D02*
X9313D01*
X3840Y65362D02*
X5877D01*
X7704D02*
X9282D01*
X3840Y65456D02*
X5784D01*
X7668D02*
X9247D01*
X3840Y65550D02*
X5687D01*
X7677D02*
X9203D01*
X3840Y65643D02*
X5586D01*
X7686D02*
X9152D01*
X3840Y65737D02*
X5490D01*
X7696D02*
X9094D01*
X3840Y65831D02*
X5380D01*
X7705D02*
X9028D01*
X3840Y65924D02*
X5269D01*
X7715D02*
X8948D01*
X3840Y66018D02*
X5152D01*
X7724D02*
X8851D01*
X3840Y66112D02*
X5024D01*
X7733D02*
X8728D01*
X3840Y66206D02*
X4874D01*
X7743D02*
X8572D01*
X3840Y66299D02*
X4700D01*
X7752D02*
X8352D01*
X3840Y66393D02*
X4494D01*
X7761D02*
X7998D01*
X3840Y66487D02*
X4198D01*
X9345Y66768D02*
X9389D01*
X8959Y66861D02*
X9389D01*
X8574Y66955D02*
X9389D01*
X8189Y67049D02*
X9389D01*
X7804Y67143D02*
X9389D01*
X7418Y67236D02*
X9389D01*
X7033Y67330D02*
X9389D01*
X6647Y67424D02*
X9389D01*
X6262Y67517D02*
X9389D01*
X5877Y67611D02*
X9389D01*
X5491Y67705D02*
X9389D01*
X5106Y67798D02*
X9389D01*
X4720Y67892D02*
X9362D01*
X4335Y67986D02*
X8935D01*
X3950Y68080D02*
X8507D01*
X3840Y68173D02*
X8080D01*
X3840Y68267D02*
X7654D01*
X3840Y68361D02*
X7226D01*
X3840Y68454D02*
X6799D01*
X3840Y68548D02*
X6372D01*
X3840Y68642D02*
X5945D01*
X3840Y68735D02*
X5515D01*
X3840Y68829D02*
X5883D01*
X3840Y68923D02*
X6254D01*
X3840Y69017D02*
X6626D01*
X3840Y69110D02*
X6997D01*
X3840Y69204D02*
X7369D01*
X3835Y69298D02*
X7740D01*
X4189Y69391D02*
X8112D01*
X4543Y69485D02*
X8483D01*
X4896Y69579D02*
X8855D01*
X5250Y69672D02*
X9226D01*
X5603Y69766D02*
X9389D01*
X5957Y69860D02*
X9389D01*
X6310Y69954D02*
X9389D01*
X6663Y70047D02*
X9389D01*
X7017Y70141D02*
X9389D01*
X7370Y70235D02*
X9389D01*
X7724Y70328D02*
X9389D01*
X7900Y70422D02*
X9389D01*
X7548Y70516D02*
X9389D01*
X7196Y70609D02*
X9389D01*
X6843Y70703D02*
X9389D01*
X6491Y70797D02*
X9389D01*
X6139Y70891D02*
X9389D01*
X5787Y70984D02*
X9389D01*
X5435Y71078D02*
X9265D01*
X5083Y71172D02*
X8912D01*
X4730Y71265D02*
X8559D01*
X4378Y71359D02*
X8206D01*
X4026Y71453D02*
X7853D01*
X3840Y71546D02*
X7500D01*
X3840Y71640D02*
X7146D01*
X3840Y71734D02*
X6793D01*
X3840Y71828D02*
X6440D01*
X3840Y71921D02*
X6087D01*
X3840Y72015D02*
X5734D01*
X3840Y72109D02*
X5817D01*
X3840Y72202D02*
X6246D01*
X3840Y72296D02*
X6675D01*
X3840Y72390D02*
X7103D01*
X3840Y72483D02*
X7532D01*
X3840Y72577D02*
X7961D01*
X3840Y72671D02*
X8389D01*
X4009Y72765D02*
X8818D01*
X4404Y72858D02*
X9246D01*
X4800Y72952D02*
X9389D01*
X5195Y73046D02*
X9389D01*
X5590Y73139D02*
X9389D01*
X5985Y73233D02*
X9389D01*
X6381Y73327D02*
X9389D01*
X6776Y73420D02*
X9389D01*
X7171Y73514D02*
X9389D01*
X7567Y73608D02*
X9389D01*
X7962Y73702D02*
X9389D01*
X8357Y73795D02*
X9389D01*
X8752Y73889D02*
X9389D01*
X9148Y73983D02*
X9389D01*
X3840Y74732D02*
X9389D01*
X3840Y74826D02*
X9389D01*
X3840Y74920D02*
X9389D01*
X3840Y75013D02*
X9389D01*
X3840Y75107D02*
X9389D01*
X3840Y75201D02*
X9389D01*
X3840Y75294D02*
X9389D01*
X3840Y75388D02*
X9389D01*
X3840Y75482D02*
X9389D01*
X3840Y75576D02*
X9389D01*
X3840Y75669D02*
X9389D01*
X3840Y75763D02*
X9389D01*
X6267Y75857D02*
X7206D01*
X6267Y75950D02*
X7206D01*
X6267Y76044D02*
X7206D01*
X6267Y76138D02*
X7206D01*
X6267Y76231D02*
X7206D01*
X6267Y76325D02*
X7206D01*
X6267Y76419D02*
X7206D01*
X6267Y76513D02*
X7206D01*
X6267Y76606D02*
X7206D01*
X6267Y76700D02*
X7206D01*
X6267Y76794D02*
X7206D01*
X6267Y76887D02*
X7206D01*
X6267Y76981D02*
X7206D01*
X6267Y77075D02*
X7206D01*
X6267Y77169D02*
X7206D01*
X6267Y77262D02*
X7206D01*
X6267Y77356D02*
X7206D01*
X6267Y77450D02*
X7206D01*
X6267Y77543D02*
X7206D01*
X6267Y77637D02*
X7206D01*
X6267Y77731D02*
X7206D01*
X6267Y77824D02*
X7206D01*
X6267Y77918D02*
X7206D01*
X3840Y78012D02*
X9389D01*
X3840Y78106D02*
X9389D01*
X3840Y78199D02*
X9389D01*
X3840Y78293D02*
X9389D01*
X3840Y78387D02*
X9389D01*
X3840Y78480D02*
X9389D01*
X3840Y78574D02*
X9389D01*
X3840Y78668D02*
X9389D01*
X3840Y78761D02*
X9389D01*
X3840Y78855D02*
X9389D01*
X3840Y78949D02*
X9389D01*
X3840Y79043D02*
X9389D01*
X7841Y81947D02*
X7862D01*
X7584Y82041D02*
X7862D01*
X7327Y82135D02*
X7862D01*
X7070Y82228D02*
X7862D01*
X6813Y82322D02*
X7862D01*
X6556Y82416D02*
X7862D01*
X6300Y82509D02*
X7862D01*
X6043Y82603D02*
X7862D01*
X5785Y82697D02*
X7862D01*
X5529Y82791D02*
X7862D01*
X5272Y82884D02*
X7862D01*
X5015Y82978D02*
X7862D01*
X4757Y83072D02*
X7763D01*
X4501Y83165D02*
X7477D01*
X4244Y83259D02*
X7191D01*
X3987Y83353D02*
X6905D01*
X3733Y83446D02*
X6619D01*
X3480Y83540D02*
X6332D01*
X3228Y83634D02*
X6046D01*
X3015Y83728D02*
X5760D01*
X2840Y83821D02*
X5474D01*
X2703Y83915D02*
X5187D01*
X2588Y84009D02*
X5109D01*
X2502Y84102D02*
X5387D01*
X2436Y84196D02*
X5664D01*
X2380Y84290D02*
X5942D01*
X2335Y84383D02*
X6219D01*
X2303Y84477D02*
X6496D01*
X2272Y84571D02*
X3733D01*
X3906D02*
X6774D01*
X2252Y84665D02*
X3502D01*
X4153D02*
X7051D01*
X2235Y84758D02*
X3349D01*
X4400D02*
X7328D01*
X2222Y84852D02*
X3229D01*
X4647D02*
X7606D01*
X2214Y84946D02*
X3155D01*
X4894D02*
X7862D01*
X2209Y85039D02*
X3108D01*
X5141D02*
X7862D01*
X2207Y85133D02*
X3078D01*
X5388D02*
X7862D01*
X2210Y85227D02*
X3062D01*
X5635D02*
X7862D01*
X2215Y85320D02*
X3055D01*
X5882D02*
X7862D01*
X2224Y85414D02*
X3055D01*
X6129D02*
X7862D01*
X2234Y85508D02*
X3061D01*
X6376D02*
X7862D01*
X2247Y85602D02*
X3069D01*
X6623D02*
X7862D01*
X2266Y85695D02*
X3083D01*
X6870D02*
X7862D01*
X2881Y85789D02*
X3100D01*
X7117D02*
X7862D01*
X7364Y85883D02*
X7862D01*
X7611Y85976D02*
X7862D01*
X3840Y86726D02*
X9389D01*
X3840Y86820D02*
X9389D01*
X3840Y86913D02*
X9389D01*
X3840Y87007D02*
X9389D01*
X3840Y87101D02*
X9389D01*
X3840Y87194D02*
X9389D01*
X3840Y87288D02*
X9389D01*
X3840Y87382D02*
X9389D01*
X3840Y87476D02*
X9389D01*
X3840Y87569D02*
X9389D01*
X3840Y87663D02*
X9389D01*
X8450Y88694D02*
X9389D01*
X8450Y88787D02*
X9389D01*
X8450Y88881D02*
X9389D01*
X8450Y88975D02*
X9389D01*
X6200Y89069D02*
X7139D01*
X8450D02*
X9389D01*
X6200Y89162D02*
X7139D01*
X8450D02*
X9389D01*
X6200Y89256D02*
X7139D01*
X8450D02*
X9389D01*
X6200Y89350D02*
X7139D01*
X8450D02*
X9389D01*
X6200Y89443D02*
X7139D01*
X8450D02*
X9389D01*
X6200Y89537D02*
X7139D01*
X8450D02*
X9389D01*
X6200Y89631D02*
X7139D01*
X8450D02*
X9389D01*
X6200Y89724D02*
X7139D01*
X8450D02*
X9389D01*
X6200Y89818D02*
X7139D01*
X8450D02*
X9389D01*
X6200Y89912D02*
X7139D01*
X8450D02*
X9389D01*
X6200Y90006D02*
X7139D01*
X8450D02*
X9389D01*
X6200Y90099D02*
X7139D01*
X8450D02*
X9389D01*
X6200Y90193D02*
X7139D01*
X8450D02*
X9389D01*
X6200Y90287D02*
X7139D01*
X8450D02*
X9389D01*
X6200Y90380D02*
X7139D01*
X8450D02*
X9389D01*
X6200Y90474D02*
X7139D01*
X8450D02*
X9389D01*
X6200Y90568D02*
X7139D01*
X8450D02*
X9389D01*
X6200Y90661D02*
X7139D01*
X8450D02*
X9389D01*
X6200Y90755D02*
X7139D01*
X8450D02*
X9389D01*
X6200Y90849D02*
X7139D01*
X8450D02*
X9389D01*
X6200Y90943D02*
X7139D01*
X8450D02*
X9389D01*
X6200Y91036D02*
X7139D01*
X8450D02*
X9389D01*
X6200Y91130D02*
X7139D01*
X8450D02*
X9389D01*
X6200Y91224D02*
X7139D01*
X8450D02*
X9389D01*
X6200Y91317D02*
X7139D01*
X8450D02*
X9389D01*
X3840Y91411D02*
X9389D01*
X3840Y91505D02*
X9389D01*
X3840Y91598D02*
X9389D01*
X3840Y91692D02*
X9389D01*
X3840Y91786D02*
X9389D01*
X3840Y91880D02*
X9389D01*
X3840Y91973D02*
X9389D01*
X3840Y92067D02*
X9389D01*
X3840Y92161D02*
X9389D01*
X3840Y92254D02*
X9389D01*
X3840Y92348D02*
X9389D01*
X3840Y92442D02*
X9389D01*
X5320Y93098D02*
X6386D01*
X5320Y93191D02*
X6386D01*
X5320Y93285D02*
X6386D01*
X5320Y93379D02*
X6386D01*
X5320Y93472D02*
X6386D01*
X5320Y93566D02*
X6386D01*
X5320Y93660D02*
X6386D01*
X5320Y93754D02*
X6386D01*
X5320Y93847D02*
X6386D01*
X5320Y93941D02*
X6386D01*
X5320Y94035D02*
X6386D01*
X5320Y94128D02*
X6386D01*
X5320Y94222D02*
X6386D01*
X5320Y94316D02*
X6386D01*
X5320Y94409D02*
X6386D01*
X5320Y94503D02*
X6386D01*
X5320Y94597D02*
X6386D01*
X5320Y94691D02*
X6386D01*
X5320Y94784D02*
X6386D01*
X5320Y94878D02*
X6386D01*
X5320Y94972D02*
X6386D01*
X5320Y95065D02*
X6386D01*
X6448Y95909D02*
X6775D01*
X5699Y96002D02*
X7521D01*
X5385Y96096D02*
X7835D01*
X5152Y96190D02*
X8058D01*
X4979Y96283D02*
X8241D01*
X4824Y96377D02*
X8394D01*
X4693Y96471D02*
X8526D01*
X4583Y96565D02*
X8637D01*
X4483Y96658D02*
X8738D01*
X4394Y96752D02*
X8829D01*
X4311Y96846D02*
X8909D01*
X4238Y96939D02*
X8983D01*
X4172Y97033D02*
X9051D01*
X4114Y97127D02*
X5943D01*
X7311D02*
X9109D01*
X4061Y97220D02*
X5638D01*
X7626D02*
X9162D01*
X4014Y97314D02*
X5433D01*
X7820D02*
X9209D01*
X3971Y97408D02*
X5288D01*
X7965D02*
X9252D01*
X3933Y97502D02*
X5173D01*
X8080D02*
X9292D01*
X3897Y97595D02*
X5076D01*
X8172D02*
X9326D01*
X3868Y97689D02*
X4998D01*
X8246D02*
X9357D01*
X3841Y97783D02*
X4931D01*
X8312D02*
X9382D01*
X3818Y97876D02*
X4873D01*
X8366D02*
X9404D01*
X3800Y97970D02*
X4826D01*
X8409D02*
X9424D01*
X3785Y98064D02*
X4791D01*
X8442D02*
X9442D01*
X3771Y98157D02*
X4761D01*
X8470D02*
X9456D01*
X3763Y98251D02*
X4737D01*
X8494D02*
X9464D01*
X3756Y98345D02*
X4722D01*
X8507D02*
X9471D01*
X3751Y98439D02*
X4710D01*
X8518D02*
X9476D01*
X3748Y98532D02*
X4706D01*
X8523D02*
X9480D01*
X3748Y98626D02*
X4704D01*
X8524D02*
X9481D01*
X3750Y98720D02*
X4709D01*
X8519D02*
X9478D01*
X3755Y98813D02*
X4719D01*
X8510D02*
X9475D01*
X3761Y98907D02*
X4731D01*
X8498D02*
X9470D01*
X3769Y99001D02*
X4755D01*
X8476D02*
X9461D01*
X3781Y99094D02*
X4783D01*
X8450D02*
X9451D01*
X3795Y99188D02*
X4819D01*
X8417D02*
X9435D01*
X3813Y99282D02*
X4864D01*
X8374D02*
X9419D01*
X3835Y99376D02*
X4917D01*
X8324D02*
X9400D01*
X3859Y99469D02*
X4980D01*
X8265D02*
X9375D01*
X3887Y99563D02*
X5057D01*
X8190D02*
X9348D01*
X3921Y99657D02*
X5147D01*
X8104D02*
X9316D01*
X3957Y99750D02*
X5254D01*
X8001D02*
X9281D01*
X3995Y99844D02*
X5387D01*
X7865D02*
X9242D01*
X4042Y99938D02*
X5560D01*
X7689D02*
X9197D01*
X4091Y100031D02*
X5819D01*
X7443D02*
X9144D01*
X4148Y100125D02*
X6390D01*
X6862D02*
X9087D01*
X4213Y100219D02*
X9024D01*
X4283Y100313D02*
X8950D01*
X4361Y100406D02*
X8868D01*
X4445Y100500D02*
X8781D01*
X4540Y100594D02*
X8684D01*
X4647Y100687D02*
X8572D01*
X4769Y100781D02*
X8444D01*
X4908Y100875D02*
X8306D01*
X5082Y100969D02*
X8138D01*
X5285Y101062D02*
X7933D01*
X5557Y101156D02*
X7658D01*
X6007Y101250D02*
X7208D01*
X3840Y102187D02*
X7862D01*
X8403D02*
X9389D01*
X3840Y102280D02*
X7862D01*
X8403D02*
X9389D01*
X3840Y102374D02*
X7862D01*
X8403D02*
X9389D01*
X3840Y102468D02*
X7862D01*
X8403D02*
X9389D01*
X3840Y102561D02*
X7862D01*
X8403D02*
X9389D01*
X3840Y102655D02*
X7862D01*
X8403D02*
X9389D01*
X3840Y102749D02*
X7862D01*
X8403D02*
X9389D01*
X3840Y102843D02*
X7862D01*
X8403D02*
X9389D01*
X3840Y102936D02*
X7862D01*
X8403D02*
X9389D01*
X3840Y103030D02*
X7862D01*
X8403D02*
X9389D01*
X3840Y103124D02*
X7862D01*
X8403D02*
X9389D01*
X3840Y103217D02*
X7862D01*
X8403D02*
X9389D01*
D02*
D20*
X27238Y265197D03*
X33537D03*
X33616Y103543D03*
X35781Y272520D03*
X39915Y103543D03*
X40624Y126614D03*
X42081Y272520D03*
X43774Y79606D03*
X44167Y72992D03*
X45978Y103622D03*
X46923Y126614D03*
X50073Y79606D03*
X50467Y72992D03*
X52278Y103622D03*
X62514Y138976D03*
X62829Y260472D03*
X68813Y138976D03*
X69128Y260472D03*
X72356Y132441D03*
X74876Y138898D03*
X78656Y132441D03*
X81175Y138898D03*
X95742Y88110D03*
X102041D03*
X103380Y72913D03*
X108104Y84488D03*
X109049Y145118D03*
X109679Y72913D03*
X114404Y84488D03*
X115348Y145118D03*
X120467Y87795D03*
X122199Y185118D03*
X126766Y87795D03*
X128498Y185118D03*
X132671Y72598D03*
X137238Y248268D03*
X138970Y72598D03*
X141648Y256693D03*
Y263150D03*
X143144Y241811D03*
X143537Y248268D03*
X147947Y256693D03*
Y263150D03*
X149443Y241811D03*
X166844Y259331D03*
X170152Y48740D03*
X173144Y259331D03*
X174915Y187283D03*
X176451Y48740D03*
X181215Y187283D03*
X183222Y107874D03*
X187317Y187283D03*
X189522Y107874D03*
X191018Y253150D03*
X193616Y187283D03*
X195663Y113071D03*
X195978Y234094D03*
X196923Y209528D03*
X197317Y253150D03*
X201963Y113071D03*
X202278Y234094D03*
X203222Y209528D03*
X207986Y237087D03*
X208104Y230197D03*
X214285Y237087D03*
X214404Y230197D03*
D02*
D21*
X27278Y157146D03*
Y162146D03*
Y167146D03*
Y172146D03*
Y177146D03*
Y182146D03*
Y187146D03*
Y192146D03*
Y197146D03*
Y202146D03*
Y207146D03*
Y212146D03*
Y217146D03*
Y222146D03*
X99325Y157146D03*
Y162146D03*
Y167146D03*
Y172146D03*
Y177146D03*
Y182146D03*
Y187146D03*
Y192146D03*
Y197146D03*
Y202146D03*
Y207146D03*
Y212146D03*
Y217146D03*
Y222146D03*
D02*
D22*
X40801Y150669D03*
X45801D03*
X50801D03*
X55801D03*
X60801D03*
X65801D03*
X70801D03*
X75801D03*
X80801D03*
X85801D03*
D02*
D23*
X60309Y192421D03*
D02*
D24*
X59620Y79075D03*
X124423Y152343D03*
X132888D03*
X204344Y150571D03*
D02*
D25*
X59620Y69035D03*
X124423Y162382D03*
X132888D03*
X204344Y140531D03*
D02*
D26*
X23373Y52047D03*
X36773D03*
X37310Y113071D03*
X50710D03*
X80932Y100315D03*
X94332D03*
X175893Y206181D03*
Y218583D03*
X189293Y206181D03*
Y218583D03*
D02*
D27*
X152179Y155728D03*
X190762D03*
D02*
D28*
X19364Y219764D03*
Y226063D03*
X19443Y206772D03*
Y213071D03*
X75742Y55827D03*
Y62126D03*
X84640Y72598D03*
Y78898D03*
X91096Y72598D03*
Y78898D03*
X97553Y72598D03*
Y78898D03*
X105427Y129764D03*
Y136063D03*
X107396Y182362D03*
Y188661D03*
X108026Y170079D03*
Y176378D03*
X117238Y72126D03*
Y78425D03*
X120309Y97165D03*
Y103465D03*
Y112598D03*
Y118898D03*
X126293Y72205D03*
Y78504D03*
X136293Y78976D03*
Y85276D03*
X136844Y235591D03*
Y241890D03*
X140073Y155689D03*
Y161988D03*
X145191Y76220D03*
Y82520D03*
X151963Y229134D03*
Y235433D03*
X166293Y103071D03*
Y109370D03*
X175427Y238425D03*
Y244724D03*
X189089Y228031D03*
Y234331D03*
X194797Y240315D03*
Y246614D03*
X199128Y50079D03*
Y56378D03*
X208813Y49921D03*
Y56220D03*
X211963Y161811D03*
Y168110D03*
X216451Y49921D03*
Y56220D03*
D02*
D29*
X83656Y23602D03*
Y59035D03*
X144285D03*
X147041Y23602D03*
D02*
D72*
X89561Y62972D03*
X93892D03*
X98222D03*
X102553D03*
X106884D03*
X111215D03*
X115545D03*
X119876D03*
X124207D03*
D02*
D73*
X22455Y98917D03*
Y108839D03*
Y118799D03*
Y128740D03*
Y138681D03*
D02*
D74*
X34797Y62355D03*
Y75755D03*
X61490Y109599D03*
Y122999D03*
X70073Y77631D03*
Y91031D03*
X78498Y111253D03*
Y124653D03*
X112829Y198103D03*
Y211503D03*
X163695Y188339D03*
Y201739D03*
X202986Y161174D03*
Y174574D03*
X204167Y183615D03*
Y197015D03*
D02*
D75*
X146073Y93969D03*
Y96094D03*
Y98220D03*
X153553Y93969D03*
Y96094D03*
Y98220D03*
X165018Y116110D03*
Y118236D03*
Y120362D03*
X172498Y116110D03*
Y118236D03*
Y120362D03*
D02*
D76*
X161519Y124759D03*
X163578Y97760D03*
X165072Y124759D03*
X167130Y97760D03*
X169956Y124847D03*
X173508D03*
D02*
D77*
X98144Y276220D03*
Y287244D03*
X119797Y276220D03*
Y287244D03*
X141451Y276220D03*
Y287244D03*
X159049Y109685D03*
Y120709D03*
X166687Y227402D03*
Y238425D03*
D02*
D78*
X78242Y261201D03*
X113636Y259508D03*
X176982Y251555D03*
X189856Y64390D03*
D02*
D79*
X88281Y261201D03*
X103596Y259508D03*
X166943Y251555D03*
X179817Y64390D03*
D02*
D80*
X105683Y120128D03*
X110407D03*
X130309Y118927D03*
X135033D03*
D02*
D81*
X101136Y104872D03*
X114915D03*
X125762Y103671D03*
X139541D03*
D02*
D82*
X108435Y153653D03*
X109537Y251229D03*
X112435Y162353D03*
X113537Y242529D03*
X116435Y153653D03*
X117537Y251229D03*
X199222Y64361D03*
X203222Y73061D03*
X207222Y64361D03*
D02*
D83*
X198183Y35039D03*
D02*
D84*
X65722Y35197D03*
X210841Y35039D03*
D02*
D85*
X188439D03*
D02*
D86*
X28183Y34154D03*
D02*
D87*
X39482Y34134D03*
D02*
D88*
X174266Y35118D03*
D02*
D89*
X14344Y34134D03*
D02*
D90*
X127533Y130591D03*
X127553Y140571D03*
X135703Y130492D03*
X135722Y140531D03*
D02*
D91*
X43616Y85020D03*
Y97028D03*
X45978Y85020D03*
Y97028D03*
X48341Y85020D03*
Y97028D03*
X50703Y85020D03*
Y97028D03*
X53065Y85020D03*
Y97028D03*
D02*
D92*
X48341Y90236D03*
D02*
D93*
X12593Y48937D02*
X12868Y48661D01*
X43774Y256850D02*
Y259055D01*
X44285Y90335D03*
X48341D03*
X52396D03*
X56269Y139684D02*
Y142417D01*
X57238Y143386*
X59285*
X59443Y143543*
X183734Y78366D02*
X186667D01*
X187789Y77244*
X199522*
X200388Y78110*
Y80866*
X201175Y81654*
X204030*
X204207Y81831*
X207222Y64361D02*
X207159D01*
Y81118*
X206624Y81654*
X204384*
X204207Y81831*
D02*
D94*
X33616Y278268D03*
X36175D03*
X38734D03*
X41293D03*
X43852D03*
D02*
D95*
X28892D03*
X48577D03*
D02*
D96*
X24955Y288898D03*
X52514D03*
D02*
D97*
X34797D03*
X42671D03*
D02*
D98*
X189108Y273012D03*
X206825D03*
D02*
D99*
X155663Y132126D02*
X164053D01*
X178321*
X185348Y139154*
X184187Y262776D03*
X211746D03*
D02*
D100*
X201589Y244204D03*
Y252804D03*
X204148Y244204D03*
Y252804D03*
X206707Y244204D03*
Y252804D03*
X209266Y244204D03*
Y252804D03*
D02*
D101*
X82100Y271535D03*
X92533D03*
X103754D03*
X114187D03*
X125407Y271457D03*
X135841D03*
X147061Y271535D03*
X157494D03*
D02*
D102*
X85644Y270157D03*
X88990Y270059D03*
X107297Y270157D03*
X110644Y270059D03*
X128951Y270079D03*
X132297Y269980D03*
X150604Y270157D03*
X153951Y270059D03*
D02*
D103*
X63301Y267343D03*
Y271437D03*
X73537Y267343D03*
Y271437D03*
D02*
D104*
X109409Y45404D03*
Y48504D03*
Y51604D03*
X112459Y45404D03*
Y48504D03*
Y51604D03*
D02*
D105*
X147159Y105197D03*
Y117008D03*
D02*
D106*
X198849Y217520D03*
Y219488D03*
Y221457D03*
Y223425D03*
X209249Y217520D03*
Y219488D03*
Y221457D03*
Y223425D03*
D02*
D107*
X46869Y132234D03*
Y139734D03*
X56269Y132284D03*
Y135984D03*
Y139684D03*
D02*
D108*
X62120Y48740D03*
Y61732D03*
D02*
D109*
X151766Y49626D03*
Y73839D03*
X161766Y49626D03*
Y73839D03*
X173734Y78366D03*
Y102579D03*
X183734Y78366D03*
Y102579D03*
X194207Y81831D03*
Y106043D03*
X204207Y81831D03*
Y106043D03*
D02*
D110*
X91301Y127890D03*
Y135370D03*
X93427Y127890D03*
Y135370D03*
X95553Y127890D03*
Y135370D03*
D02*
D111*
X99994Y129764D03*
Y135472D03*
D02*
D112*
X187100Y118976D03*
Y120945D03*
Y122913D03*
X193203Y118976D03*
Y120945D03*
Y122913D03*
D02*
D113*
X181219Y116801D03*
Y120354D03*
D02*
D114*
X19404Y155787D03*
Y160512D03*
X21569Y151260D03*
X37002Y92598D03*
X38026Y87874D03*
X57396Y90236D03*
X58577Y158543D03*
X74719Y84409D03*
X81254Y52283D03*
X106451Y230079D03*
X164974Y149134D03*
Y155787D03*
X169600Y53150D03*
X175978D03*
D02*
D115*
X13813Y245118D03*
X132002Y151181D02*
X152179D01*
D02*
D116*
X23373Y52047D02*
Y51496D01*
X27474*
X29207Y49764*
Y34154*
X34797Y75755D02*
X38019D01*
X40781Y72992*
X44167*
X36773Y48740D02*
Y52047D01*
X36352Y62355*
X39482Y34134D02*
X36352D01*
X36773Y52047*
X49128Y66299D02*
Y66378D01*
X44167Y71339*
Y72992*
X50073Y79606D02*
X59089D01*
X59620Y79075*
X50467Y72992D02*
X53537D01*
X55860Y70669*
X52278Y103622D02*
Y106772D01*
X50624Y110079*
X50710*
Y113071*
X55860Y70669D02*
Y66102D01*
X55900Y66063*
X55860Y70669D02*
X55978Y70551D01*
Y69035*
X59620*
Y79075D02*
Y80650D01*
X63537Y84567*
X74561*
X74719Y84409*
X70073Y91031D02*
X79135D01*
X81018Y92913*
Y100229*
X80932Y100315*
X74719Y84409D02*
Y84882D01*
X73144Y86457*
Y87960*
X70073Y91031*
X80932Y100315D02*
Y108819D01*
X78498Y111253*
X80932Y100315D02*
X78577D01*
X77632Y101260*
X67002*
X64246Y104016*
Y106843*
X61490Y109599*
X86766Y253622D02*
Y253858D01*
X88281Y261201D02*
Y255118D01*
X86766*
Y253858*
X103596Y259508D02*
Y258524D01*
X103616Y258504*
Y254409*
X104876Y253150*
Y246142*
X105742Y245276*
Y244646*
X107632Y242756*
X113311*
X113537Y242529*
X124423Y152343D02*
X126884Y150669D01*
Y152441*
X132888Y152343*
X140073Y152441*
Y155689*
X132888Y162382D02*
X131608Y165236D01*
X123734*
Y170472*
X132888Y162382D02*
X126490Y162480D01*
Y162382*
X124423*
X140073Y155689D02*
Y147913D01*
X161766Y73839D02*
X162455D01*
X164640Y71654*
X166766*
X187671Y64488D02*
X186057D01*
Y64016*
X184404*
X189856Y64390D02*
X199194D01*
X199222Y64361*
X199128Y49370D02*
Y50079D01*
X204344Y140531D02*
X193813D01*
X190762Y143583*
Y155728*
X211963Y161811D02*
X202986D01*
Y161174*
X211963Y161811D02*
X218341D01*
Y153819*
D02*
D117*
X23301Y270472D02*
Y259134D01*
X25506Y256929*
X27278Y157146D02*
Y156929D01*
X33695Y150512*
Y145197*
X36215Y142677*
X27278Y162146D02*
X33065D01*
X37081Y158130*
Y145984*
X39128Y143858*
X41333*
X27278Y207146D02*
X34344D01*
X34364Y207165*
X27278Y222146D02*
Y223976D01*
X25112Y226142*
X16923*
X15663Y227402*
Y243268*
X13813Y245118*
X28262Y150787D02*
Y149843D01*
X26215Y147795*
X23222*
X23065Y147638*
X33616Y103543D02*
Y108787D01*
X37310Y112480*
Y113071*
X38734Y278268D02*
Y281949D01*
X38813Y282028*
Y283150*
X43774Y79606D02*
Y80394D01*
X43616Y80551*
Y85020*
X45801Y150669D02*
Y146004D01*
X47711Y144094*
X52671*
X45978Y85020D02*
Y81575D01*
X44010Y79606*
X43774*
X45978Y103622D02*
X45112D01*
Y103543*
X39915*
X46923Y126614D02*
Y132180D01*
X46869Y132234*
X48341Y85020D02*
Y80866D01*
X49600Y79606*
X50073*
X50703Y85020D02*
Y82283D01*
X50073*
Y79606*
X54620Y257362D02*
X54817Y257559D01*
Y264094*
X67396*
X58183Y274232D02*
X56864D01*
X55821Y275276*
Y282362*
X55033Y283150*
X63301Y267343D02*
X56293Y267382D01*
X53459Y270217*
Y280630*
X51333Y282756*
X42455*
X41293Y281594*
Y278268*
X63301Y271437D02*
X60939Y271476D01*
X58183Y274232*
X67396Y264094D02*
Y262835D01*
X69128Y261102*
Y260472*
X69522Y267874D02*
Y265906D01*
X67396*
Y264094*
X69522Y267874D02*
X73006D01*
X73537Y267343*
Y271437D02*
X70309Y272520D01*
X78242Y261201D02*
Y260630D01*
X69128*
Y260472*
X81096Y145512D02*
Y150374D01*
X80801Y150669*
X85644Y270157D02*
X85545Y270256D01*
X91096Y72598D02*
X84640D01*
X93892Y62972D02*
Y68543D01*
X92514Y69921*
Y71890*
X91805Y72598*
X91096*
X98222Y62972D02*
Y68583D01*
X97553Y69252*
Y72598*
X99325Y162146D02*
Y161280D01*
X99423Y161181*
X91018*
X90152Y160315*
Y145512*
X87081Y142441*
Y135354*
X86215Y134488*
Y85827*
X83537Y83150*
X82671*
X80939Y81417*
Y74016*
X82356Y72598*
X84640*
X99325Y177146D02*
Y177165D01*
X87789*
X87465Y177490*
X63055*
X99325Y207146D02*
Y206772D01*
X110152*
X110230Y206693*
Y206457*
X99325Y222146D02*
X99226Y222047D01*
X27376*
X27278Y222146*
X103537Y78425D02*
X103695D01*
Y73701*
X102553Y72559*
Y62972*
X109679Y72913D02*
Y76535D01*
X109443Y76772*
X111215Y62972D02*
X110781D01*
Y68858*
X109915Y69724*
Y72598*
X109679Y72835*
Y72913*
X113616Y87480D02*
Y86063D01*
X114404*
Y84488*
X115545Y62972D02*
Y70433D01*
X117238Y72126*
X120309Y97165D02*
X114955D01*
X111648Y100472*
Y107559*
X113301Y109213*
Y114567*
X120309Y103465D02*
Y105197D01*
X118577Y106929*
X120309Y112598D02*
Y108661D01*
X118577Y106929*
X120309Y118898D02*
X125703D01*
X127002Y117598*
X120467Y87795D02*
Y84724D01*
X118970*
X124207Y62972D02*
X128715D01*
X132671Y66929*
Y72598*
X124797Y263543D02*
X123931Y264409D01*
X104167*
X103616Y263858*
X129207Y180945D02*
X129285Y180866D01*
X153144*
X155742Y183465*
Y191181*
X157711Y193150*
X169522*
X170703Y191969*
X195427*
X197081Y193622*
Y205236*
X196923Y205394*
Y209528*
X129443Y252205D02*
X129522D01*
X130781Y253465*
Y266614*
X128656*
X133459Y104094D02*
X131411D01*
X130073Y102756*
Y97559*
X126057Y93543*
X92041*
X89915Y91417*
Y87323*
X89837Y87244*
X137238Y248268D02*
X129600D01*
X129443Y248110*
X140073Y155689D02*
X132002Y152539D01*
Y151181*
X141648Y266614D02*
X128656D01*
X150703D02*
X141648D01*
X166293Y109370D02*
X165112D01*
Y112087*
X164876*
X166687Y227402D02*
Y223031D01*
X166136Y222480*
Y210748*
X164128Y208740*
X163616*
X169600Y53150D02*
Y53425D01*
X168813Y54213*
X179817Y64390*
X177278Y167598D02*
X181215Y171535D01*
Y187283*
X187317*
X193616D02*
X193301D01*
Y187323*
X194797Y246614D02*
X191884D01*
X190388Y245118*
Y244016*
X207222Y64361D02*
X211066D01*
X214089Y61339*
X217081*
Y61496*
X208813Y49921D02*
X216451D01*
X208813D02*
X211333D01*
X212593Y51181*
Y58819*
X211018Y60394*
Y64361*
X207222*
X216451Y56220D02*
X220191D01*
Y50472*
D02*
D118*
X147159Y117008D02*
X147002D01*
Y118425*
X147238*
X204167Y197015D02*
X210499D01*
X218341Y189173*
Y153819*
X204344Y150571D02*
Y161174D01*
X202986*
D02*
D119*
X147238Y118425D02*
Y123701D01*
X152179Y155787D02*
X164974D01*
D02*
D120*
X147238Y123701D02*
X155663Y132126D01*
X157474Y155728D02*
X162356Y160610D01*
Y188339*
X185348Y139154D02*
Y140551D01*
X183144*
D02*
D121*
X12593Y105591D02*
Y48937D01*
X151766Y73839D02*
X154935D01*
X159758Y78661*
X168341*
X168498Y78504*
X166766Y71654D02*
Y72835D01*
X168656Y74724*
X173380*
X173852Y75197*
Y78248*
X173734Y78366*
D02*
D122*
X50710Y113071D02*
X50230D01*
Y121535*
X152179Y151181D02*
Y155728D01*
Y155787*
X202986Y161174D02*
Y161496D01*
X203774*
Y161811*
X204344Y150571D02*
Y150000D01*
X204561*
D02*
D123*
X53656Y97126D02*
Y100157D01*
X52278Y101535*
Y103622*
X184404Y64016D03*
D02*
D124*
X65722Y35197D02*
X98577D01*
X102356Y38976*
X118183*
X131805Y52598*
X148183*
X150073Y54488*
X161884*
X171096Y63701*
Y68268*
X178656Y75827*
Y81102*
X179915Y82362*
X189285*
X189994Y81654*
X194030*
X194207Y81831*
X136844Y241890D02*
Y244724D01*
X137159Y245039*
Y248189*
X137238Y248268*
X143144Y241811D02*
X136923D01*
X136844Y241890*
X145663Y222126D02*
Y226850D01*
X146136Y227323*
Y236063*
X143144Y239055*
Y241811*
D02*
D146*
X165112Y87815D03*
Y93917D03*
X167081Y87815D03*
Y93917D03*
X169049Y87815D03*
Y93917D03*
D02*
D150*
X168498Y78504D03*
D02*
D151*
X49128Y66299D03*
X55900Y66063D03*
X132671Y146457D03*
X152179Y155728D02*
X157474D01*
X162356Y188339D02*
X163695D01*
X198183Y35039D02*
X198498D01*
Y42913*
X199128Y43543*
Y49370*
X0Y0D02*
M02*
