G04 EasyPC Gerber Version 21.0.3 Build 4286 *
G04 #@! TF.Part,Single*
G04 #@! TF.FileFunction,Soldermask,Top *
G04 #@! TF.FilePolarity,Negative *
%FSLAX35Y35*%
%MOIN*%
G04 #@! TA.AperFunction,SMDPad*
%ADD125R,0.01181X0.02559*%
%ADD78R,0.01969X0.03346*%
%ADD76R,0.02126X0.03937*%
%ADD129R,0.02187X0.04387*%
%ADD127R,0.02362X0.06102*%
%ADD131R,0.02559X0.02756*%
%ADD107R,0.02569X0.02756*%
%ADD123R,0.03543X0.04921*%
%ADD121R,0.03543X0.11417*%
%ADD124R,0.03937X0.04724*%
%ADD136R,0.03987X0.05487*%
%ADD130R,0.04134X0.04331*%
%ADD19R,0.04331X0.04724*%
%ADD25R,0.04331X0.06299*%
%ADD116R,0.04724X0.08661*%
%ADD73R,0.04787X0.05587*%
G04 #@! TA.AperFunction,ComponentPad*
%ADD82R,0.05906X0.12598*%
G04 #@! TA.AperFunction,SMDPad*
%ADD74R,0.06299X0.09449*%
%ADD128R,0.06693X0.08268*%
G04 #@! TA.AperFunction,ComponentPad*
%ADD85R,0.06693X0.10630*%
%ADD72R,0.06787X0.09843*%
G04 #@! TA.AperFunction,SMDPad*
%ADD120R,0.07087X0.09449*%
%ADD118R,0.07087X0.10987*%
G04 #@! TA.AperFunction,ComponentPad*
%ADD84R,0.10630X0.12598*%
G04 #@! TA.AperFunction,SMDPad*
%ADD119R,0.12992X0.22441*%
G04 #@! TA.AperFunction,ComponentPad*
%ADD89R,0.02756X0.02756*%
%ADD92R,0.08268X0.08268*%
G04 #@! TA.AperFunction,SMDPad*
%ADD134R,0.04187X0.01787*%
%ADD137R,0.03346X0.01969*%
%ADD79R,0.03937X0.02126*%
%ADD28R,0.02362X0.02165*%
%ADD111R,0.02756X0.02569*%
%ADD126R,0.11417X0.02756*%
%ADD135R,0.05987X0.02987*%
%ADD132R,0.04606X0.03386*%
%ADD117R,0.16535X0.16535*%
G04 #@! TD.AperFunction*
%ADD10C,0.00500*%
%ADD114C,0.02500*%
G04 #@! TA.AperFunction,ComponentPad*
%ADD90C,0.02756*%
%ADD101C,0.02787*%
G04 #@! TA.AperFunction,WasherPad*
%ADD17C,0.02953*%
G04 #@! TA.AperFunction,ComponentPad*
%ADD29C,0.04331*%
%ADD91C,0.06496*%
%ADD93C,0.07087*%
%ADD94C,0.07874*%
G04 #@! TA.AperFunction,WasherPad*
%ADD18C,0.13780*%
G04 #@! TA.AperFunction,SMDPad*
%ADD70R,0.04724X0.04331*%
%ADD75R,0.06299X0.04331*%
%ADD26R,0.05591X0.04370*%
%ADD112R,0.06299X0.04370*%
%ADD115R,0.08661X0.04724*%
%ADD133R,0.09055X0.05906*%
%ADD24R,0.09449X0.06299*%
%ADD122R,0.10987X0.07087*%
G04 #@! TA.AperFunction,ComponentPad*
%ADD86R,0.12598X0.10630*%
%ADD88R,0.16535X0.10630*%
%ADD87R,0.12598X0.12598*%
%ADD83R,0.16535X0.12598*%
X0Y0D02*
D02*
D10*
X10545Y48504D02*
X703D01*
Y104724*
X10545*
Y48504*
G36*
X703*
Y104724*
X10545*
Y48504*
G37*
X21766Y261949D02*
Y252992D01*
X28774*
Y261949*
X21766*
G36*
Y252992*
X28774*
Y261949*
X21766*
G37*
X22356Y29213D02*
X6372D01*
Y45197*
X22356*
Y29213*
G36*
X6372*
Y45197*
X22356*
Y29213*
G37*
X31333Y29134D02*
X25427D01*
Y45197*
X31333*
Y29134*
G36*
X25427*
Y45197*
X31333*
Y29134*
G37*
X45506D02*
X33459D01*
Y45276*
X45506*
Y29134*
G36*
X33459*
Y45276*
X45506*
Y29134*
G37*
X51726Y261890D02*
Y255748D01*
X57474*
Y261890*
X51726*
G36*
Y255748*
X57474*
Y261890*
X51726*
G37*
X66549Y72992D02*
X75644D01*
Y66654*
X74955Y65965*
X66549*
Y72992*
G36*
X75644*
Y66654*
X74955Y65965*
X66549*
Y72992*
G37*
X73695Y29291D02*
X57711D01*
Y45984*
X73695*
Y29291*
G36*
X57711*
Y45984*
X73695*
Y29291*
G37*
X117829Y144961D02*
X144404D01*
Y122756*
X117829*
Y144961*
G36*
X144404*
Y122756*
X117829*
Y144961*
G37*
X118675Y172972D02*
Y165984D01*
X136726*
Y174291*
X119994*
X118675Y172972*
G36*
Y165984*
X136726*
Y174291*
X119994*
X118675Y172972*
G37*
X121530Y264646D02*
X137474D01*
Y252677*
X132750*
Y231181*
X140781*
Y237874*
X147789*
Y225039*
X158026*
Y239528*
X153459*
Y246220*
X147789*
Y250945*
X153537*
Y264646*
X163301*
Y246614*
X171175*
Y242441*
X161884*
Y207008*
X156530*
Y195433*
X121530*
Y264646*
G36*
X137474*
Y252677*
X132750*
Y231181*
X140781*
Y237874*
X147789*
Y225039*
X158026*
Y239528*
X153459*
Y246220*
X147789*
Y250945*
X153537*
Y264646*
X163301*
Y246614*
X171175*
Y242441*
X161884*
Y207008*
X156530*
Y195433*
X121530*
Y264646*
G37*
X166057Y31260D02*
X127474D01*
Y52992*
X148262*
X149758Y54488*
Y68583*
X148813*
Y86299*
X140230*
Y91496*
X162593*
Y84331*
X170388*
Y78031*
X148813*
Y69449*
X175033*
Y55591*
X150860*
X147947Y52677*
Y45118*
X152868*
Y44370*
X166057*
Y31260*
G36*
X127474*
Y52992*
X148262*
X149758Y54488*
Y68583*
X148813*
Y86299*
X140230*
Y91496*
X162593*
Y84331*
X170388*
Y78031*
X148813*
Y69449*
X175033*
Y55591*
X150860*
X147947Y52677*
Y45118*
X152868*
Y44370*
X166057*
Y31260*
G37*
X180545Y28976D02*
X168104D01*
Y44803*
X177711*
X180545Y41969*
Y28976*
G36*
X168104*
Y44803*
X177711*
X180545Y41969*
Y28976*
G37*
X193459Y29134D02*
X183380D01*
Y42126*
X193459*
Y29134*
G36*
X183380*
Y42126*
X193459*
Y29134*
G37*
X201175D02*
X195270D01*
Y43701*
X197789Y46220*
X201175*
Y29134*
G36*
X195270*
Y43701*
X197789Y46220*
X201175*
Y29134*
G37*
X218892Y28976D02*
X202750D01*
Y46142*
X218892*
Y28976*
G36*
X202750*
Y46142*
X218892*
Y28976*
G37*
D02*
D17*
X8026Y34803D03*
X8065Y31811D03*
X20565Y95492D03*
Y125315D03*
Y135276D03*
X20585Y115413D03*
X20703Y105512D03*
X28321Y37756D03*
X30073D03*
X44089Y31850D03*
Y34823D03*
X59305Y37343D03*
X59325Y31929D03*
X59344Y34626D03*
X178911Y39783D03*
X179108Y30394D03*
Y32559D03*
Y34724D03*
Y36909D03*
X184581Y39862D03*
X184699Y30236D03*
Y32402D03*
Y34567D03*
Y36752D03*
X196667Y39882D03*
X196687Y30276D03*
Y32441D03*
Y34606D03*
Y36791D03*
X213281Y32441D03*
Y34606D03*
Y36791D03*
X213301Y39862D03*
X216372Y32441D03*
Y34606D03*
Y36772D03*
Y38957D03*
D02*
D18*
X175703Y273602D03*
X189581Y48996D03*
D02*
D19*
X27238Y265197D03*
X33537D03*
X33616Y103543D03*
X35781Y272520D03*
X39915Y103543D03*
X40624Y126614D03*
X42081Y272520D03*
X43774Y79606D03*
X44167Y72992D03*
X45978Y103622D03*
X46923Y126614D03*
X50073Y79606D03*
X50467Y72992D03*
X52278Y103622D03*
X62514Y138976D03*
X62829Y260472D03*
X68813Y138976D03*
X69128Y260472D03*
X72356Y132441D03*
X74876Y138898D03*
X78656Y132441D03*
X81175Y138898D03*
X95742Y88110D03*
X102041D03*
X103380Y72913D03*
X108104Y84488D03*
X109049Y145118D03*
X109679Y72913D03*
X114404Y84488D03*
X115348Y145118D03*
X120467Y87795D03*
X122199Y185118D03*
X126766Y87795D03*
X128498Y185118D03*
X132671Y72598D03*
X137238Y248268D03*
X138970Y72598D03*
X141648Y256693D03*
Y263150D03*
X143144Y241811D03*
X143537Y248268D03*
X147947Y256693D03*
Y263150D03*
X149443Y241811D03*
X166844Y259331D03*
X170152Y48740D03*
X173144Y259331D03*
X174915Y187283D03*
X176451Y48740D03*
X181215Y187283D03*
X183222Y107874D03*
X187317Y187283D03*
X189522Y107874D03*
X191018Y253150D03*
X193616Y187283D03*
X195663Y113071D03*
X195978Y234094D03*
X196923Y209528D03*
X197317Y253150D03*
X201963Y113071D03*
X202278Y234094D03*
X203222Y209528D03*
X207986Y237087D03*
X208104Y230197D03*
X214285Y237087D03*
X214404Y230197D03*
D02*
D70*
X19364Y219764D03*
Y226063D03*
X19443Y206772D03*
Y213071D03*
X75742Y55827D03*
Y62126D03*
X84640Y72598D03*
Y78898D03*
X91096Y72598D03*
Y78898D03*
X97553Y72598D03*
Y78898D03*
X105427Y129764D03*
Y136063D03*
X107396Y182362D03*
Y188661D03*
X108026Y170079D03*
Y176378D03*
X117238Y72126D03*
Y78425D03*
X120309Y97165D03*
Y103465D03*
Y112598D03*
Y118898D03*
X126293Y72205D03*
Y78504D03*
X136293Y78976D03*
Y85276D03*
X136844Y235591D03*
Y241890D03*
X140073Y155689D03*
Y161988D03*
X145191Y76220D03*
Y82520D03*
X151963Y229134D03*
Y235433D03*
X166293Y103071D03*
Y109370D03*
X175427Y238425D03*
Y244724D03*
X189089Y228031D03*
Y234331D03*
X194797Y240315D03*
Y246614D03*
X199128Y50079D03*
Y56378D03*
X208813Y49921D03*
Y56220D03*
X211963Y161811D03*
Y168110D03*
X216451Y49921D03*
Y56220D03*
D02*
D24*
X78242Y261201D03*
X113636Y259508D03*
X176982Y251555D03*
X189856Y64390D03*
D02*
D25*
X88281Y261201D03*
X103596Y259508D03*
X166943Y251555D03*
X179817Y64390D03*
D02*
D26*
X62120Y48740D03*
Y61732D03*
D02*
D28*
X99994Y129764D03*
Y135472D03*
D02*
D29*
X95762Y19272D03*
X126864D03*
D02*
D72*
X22455Y98917D03*
Y108839D03*
Y118799D03*
Y128740D03*
Y138681D03*
D02*
D73*
X108435Y153653D03*
X109537Y251229D03*
X112435Y162353D03*
X113537Y242529D03*
X116435Y153653D03*
X117537Y251229D03*
X199222Y64361D03*
X203222Y73061D03*
X207222Y64361D03*
D02*
D74*
X59620Y79075D03*
X124423Y152343D03*
X132888D03*
X204344Y150571D03*
D02*
D75*
X59620Y69035D03*
X124423Y162382D03*
X132888D03*
X204344Y140531D03*
D02*
D76*
X91301Y127890D03*
Y135370D03*
X93427Y127890D03*
Y135370D03*
X95553Y127890D03*
Y135370D03*
D02*
D78*
X165112Y87815D03*
Y93917D03*
X167081Y87815D03*
Y93917D03*
X169049Y87815D03*
Y93917D03*
D02*
D79*
X146073Y93969D03*
Y96094D03*
Y98220D03*
X153553Y93969D03*
Y96094D03*
Y98220D03*
X165018Y116110D03*
Y118236D03*
Y120362D03*
X172498Y116110D03*
Y118236D03*
Y120362D03*
D02*
D82*
X198183Y35039D03*
D02*
D83*
X65722Y35197D03*
X210841Y35039D03*
D02*
D84*
X188439D03*
D02*
D85*
X28183Y34154D03*
D02*
D86*
X39482Y34134D03*
D02*
D87*
X174266Y35118D03*
D02*
D88*
X14344Y34134D03*
D02*
D89*
X127533Y130591D03*
X127553Y140571D03*
X135703Y130492D03*
X135722Y140531D03*
D02*
D90*
X44285Y90335D03*
X48341D03*
X52396D03*
D02*
D91*
X28892Y278268D03*
X48577D03*
D02*
D92*
X24955Y288898D03*
X52514D03*
D02*
D93*
X189108Y273012D03*
X206825D03*
D02*
D94*
X184187Y262776D03*
X211746D03*
D02*
D101*
X109409Y45404D03*
Y48504D03*
Y51604D03*
X112459Y45404D03*
Y48504D03*
Y51604D03*
D02*
D107*
X161519Y124759D03*
X163578Y97760D03*
X165072Y124759D03*
X167130Y97760D03*
X169956Y124847D03*
X173508D03*
D02*
D111*
X181219Y116801D03*
Y120354D03*
D02*
D112*
X98144Y276220D03*
Y287244D03*
X119797Y276220D03*
Y287244D03*
X141451Y276220D03*
Y287244D03*
X159049Y109685D03*
Y120709D03*
X166687Y227402D03*
Y238425D03*
D02*
D114*
X208341Y213701D02*
X225978D01*
Y204567*
X207159*
Y212520*
X208341Y213701*
G36*
X225978*
Y204567*
X207159*
Y212520*
X208341Y213701*
G37*
X212179Y79902D02*
X220939D01*
Y73701*
X212179*
Y79902*
G36*
X220939*
Y73701*
X212179*
Y79902*
G37*
Y99783D02*
X220939D01*
Y93150*
X212179*
Y99783*
G36*
X220939*
Y93150*
X212179*
Y99783*
G37*
Y108563D02*
X220821D01*
Y103504*
X212179*
Y108563*
G36*
X220821*
Y103504*
X212179*
Y108563*
G37*
X212199Y89705D02*
X220959D01*
Y83504*
X212199*
Y89705*
G36*
X220959*
Y83504*
X212199*
Y89705*
G37*
D02*
D115*
X27278Y157146D03*
Y162146D03*
Y167146D03*
Y172146D03*
Y177146D03*
Y182146D03*
Y187146D03*
Y192146D03*
Y197146D03*
Y202146D03*
Y207146D03*
Y212146D03*
Y217146D03*
Y222146D03*
X99325Y157146D03*
Y162146D03*
Y167146D03*
Y172146D03*
Y177146D03*
Y182146D03*
Y187146D03*
Y192146D03*
Y197146D03*
Y202146D03*
Y207146D03*
Y212146D03*
Y217146D03*
Y222146D03*
D02*
D116*
X40801Y150669D03*
X45801D03*
X50801D03*
X55801D03*
X60801D03*
X65801D03*
X70801D03*
X75801D03*
X80801D03*
X85801D03*
D02*
D117*
X60309Y192421D03*
D02*
D118*
X23373Y52047D03*
X36773D03*
X37310Y113071D03*
X50710D03*
X80932Y100315D03*
X94332D03*
X175893Y206181D03*
Y218583D03*
X189293Y206181D03*
Y218583D03*
D02*
D119*
X152179Y155728D03*
X190762D03*
D02*
D120*
X83656Y23602D03*
Y59035D03*
X144285D03*
X147041Y23602D03*
D02*
D121*
X89561Y62972D03*
X93892D03*
X98222D03*
X102553D03*
X106884D03*
X111215D03*
X115545D03*
X119876D03*
X124207D03*
D02*
D122*
X34797Y62355D03*
Y75755D03*
X61490Y109599D03*
Y122999D03*
X70073Y77631D03*
Y91031D03*
X78498Y111253D03*
Y124653D03*
X112829Y198103D03*
Y211503D03*
X163695Y188339D03*
Y201739D03*
X202986Y161174D03*
Y174574D03*
X204167Y183615D03*
Y197015D03*
D02*
D123*
X105683Y120128D03*
X110407D03*
X130309Y118927D03*
X135033D03*
D02*
D124*
X101136Y104872D03*
X114915D03*
X125762Y103671D03*
X139541D03*
D02*
D125*
X43616Y85020D03*
Y97028D03*
X45978Y85020D03*
Y97028D03*
X48341Y85020D03*
Y97028D03*
X50703Y85020D03*
Y97028D03*
X53065Y85020D03*
Y97028D03*
D02*
D126*
X48341Y90236D03*
D02*
D127*
X33616Y278268D03*
X36175D03*
X38734D03*
X41293D03*
X43852D03*
D02*
D128*
X34797Y288898D03*
X42671D03*
D02*
D129*
X201589Y244204D03*
Y252804D03*
X204148Y244204D03*
Y252804D03*
X206707Y244204D03*
Y252804D03*
X209266Y244204D03*
Y252804D03*
D02*
D130*
X82100Y271535D03*
X92533D03*
X103754D03*
X114187D03*
X125407Y271457D03*
X135841D03*
X147061Y271535D03*
X157494D03*
D02*
D131*
X85644Y270157D03*
X88990Y270059D03*
X107297Y270157D03*
X110644Y270059D03*
X128951Y270079D03*
X132297Y269980D03*
X150604Y270157D03*
X153951Y270059D03*
D02*
D132*
X63301Y267343D03*
Y271437D03*
X73537Y267343D03*
Y271437D03*
D02*
D133*
X147159Y105197D03*
Y117008D03*
D02*
D134*
X198849Y217520D03*
Y219488D03*
Y221457D03*
Y223425D03*
X209249Y217520D03*
Y219488D03*
Y221457D03*
Y223425D03*
D02*
D135*
X46869Y132234D03*
Y139734D03*
X56269Y132284D03*
Y135984D03*
Y139684D03*
D02*
D136*
X151766Y49626D03*
Y73839D03*
X161766Y49626D03*
Y73839D03*
X173734Y78366D03*
Y102579D03*
X183734Y78366D03*
Y102579D03*
X194207Y81831D03*
Y106043D03*
X204207Y81831D03*
Y106043D03*
D02*
D137*
X187100Y118976D03*
Y120945D03*
Y122913D03*
X193203Y118976D03*
Y120945D03*
Y122913D03*
X0Y0D02*
M02*
