G04 EasyPC Gerber Version 21.0.3 Build 4286 *
G04 #@! TF.Part,Single*
G04 #@! TF.FileFunction,Copper,L2,Inr *
G04 #@! TF.FilePolarity,Positive *
%FSLAX35Y35*%
%MOIN*%
G04 #@! TA.AperFunction,ComponentPad*
%ADD83R,0.05118X0.11811*%
%ADD86R,0.05906X0.09843*%
%ADD73R,0.06000X0.09055*%
%ADD85R,0.09843X0.11811*%
%ADD90R,0.01969X0.01969*%
%ADD96R,0.07480X0.07480*%
G04 #@! TD.AperFunction*
%ADD10C,0.00500*%
%ADD15C,0.00787*%
%ADD13C,0.01000*%
%ADD118C,0.01500*%
G04 #@! TA.AperFunction,ComponentPad*
%ADD93C,0.01969*%
%ADD104C,0.02000*%
G04 #@! TA.AperFunction,WasherPad*
%ADD19C,0.02165*%
G04 #@! TD.AperFunction*
%ADD17C,0.02500*%
G04 #@! TA.AperFunction,ViaPad*
%ADD122C,0.02756*%
%ADD119C,0.03150*%
G04 #@! TD.AperFunction*
%ADD120C,0.03543*%
G04 #@! TA.AperFunction,ViaPad*
%ADD121C,0.03937*%
%ADD112C,0.04800*%
G04 #@! TA.AperFunction,ComponentPad*
%ADD95C,0.05709*%
G04 #@! TD.AperFunction*
%ADD114C,0.05906*%
G04 #@! TA.AperFunction,ComponentPad*
%ADD98C,0.06299*%
%ADD99C,0.07087*%
G04 #@! TD.AperFunction*
%ADD116C,0.07874*%
%ADD115C,0.09055*%
%ADD117C,0.11024*%
G04 #@! TA.AperFunction,ViaPad*
%ADD113C,0.11811*%
G04 #@! TA.AperFunction,WasherPad*
%ADD70C,0.12992*%
G04 #@! TA.AperFunction,ComponentPad*
%ADD87R,0.11811X0.09843*%
%ADD89R,0.15748X0.09843*%
%ADD88R,0.11811X0.11811*%
%ADD84R,0.15748X0.11811*%
X0Y0D02*
D02*
D10*
X34445Y147001D02*
Y143844D01*
G75*
G02X38002Y141537I1770J-1167*
G01*
Y132237*
X42065Y128174*
Y140598*
X40875Y141788*
G75*
G02X39213Y143858I457J2070*
G01*
G75*
G02X43403Y144316I2120*
G01*
X44362Y143357*
Y160466*
X42529Y162298*
G75*
G02X42476Y162197I-1902J928*
G01*
Y155669*
G75*
G02X42025Y154581I-1538*
G01*
X34445Y147001*
G36*
Y143844*
G75*
G02X38002Y141537I1770J-1167*
G01*
Y132237*
X42065Y128174*
Y140598*
X40875Y141788*
G75*
G02X39213Y143858I457J2070*
G01*
G75*
G02X43403Y144316I2120*
G01*
X44362Y143357*
Y160466*
X42529Y162298*
G75*
G02X42476Y162197I-1902J928*
G01*
Y155669*
G75*
G02X42025Y154581I-1538*
G01*
X34445Y147001*
G37*
X45640Y122417D02*
Y114835D01*
X66516Y93959*
Y96966*
X54889Y108593*
G75*
G02X54469Y109606I1010J1014*
G01*
Y113869*
G75*
G02X54064Y116494I1431J1564*
G01*
X52199*
G75*
G02X51110Y116946J1538*
G01*
X45640Y122417*
G36*
Y114835*
X66516Y93959*
Y96966*
X54889Y108593*
G75*
G02X54469Y109606I1010J1014*
G01*
Y113869*
G75*
G02X54064Y116494I1431J1564*
G01*
X52199*
G75*
G02X51110Y116946J1538*
G01*
X45640Y122417*
G37*
X57331Y110568D02*
Y110199D01*
X68957Y98572*
G75*
G02X69244Y98163I-1010J-1014*
G01*
Y98655*
X57331Y110568*
G36*
Y110199*
X68957Y98572*
G75*
G02X69244Y98163I-1010J-1014*
G01*
Y98655*
X57331Y110568*
G37*
X66413Y117050D02*
G75*
G02X64293Y113552I-1537J-1460D01*
G01*
X67039Y110806*
Y118776*
G75*
G02X66457Y120194I1538J1460*
G01*
X66413Y120151*
Y117050*
G36*
G75*
G02X64293Y113552I-1537J-1460*
G01*
X67039Y110806*
Y118776*
G75*
G02X66457Y120194I1538J1460*
G01*
X66413Y120151*
Y117050*
G37*
X68647Y122384D02*
X68619Y122356D01*
G75*
G02X68659Y122355I-43J-2133*
G01*
G75*
G02X68647Y122384I1973J806*
G01*
G36*
X68619Y122356*
G75*
G02X68659Y122355I-43J-2133*
G01*
G75*
G02X68647Y122384I1973J806*
G01*
G37*
X69378Y94710D02*
Y94451D01*
X72162Y91667*
X98419*
G75*
G02X99433Y91246I0J-1431*
G01*
X107752Y82927*
X109775*
X98413Y94289*
X77081*
G75*
G02X75992Y94741J1538*
G01*
X72319Y98415*
Y97759*
G75*
G02X69378Y94710I-1537J-1460*
G01*
G36*
Y94451*
X72162Y91667*
X98419*
G75*
G02X99433Y91246I0J-1431*
G01*
X107752Y82927*
X109775*
X98413Y94289*
X77081*
G75*
G02X75992Y94741J1538*
G01*
X72319Y98415*
Y97759*
G75*
G02X69378Y94710I-1537J-1460*
G01*
G37*
X70114Y118776D02*
Y110598D01*
X71449Y109263*
Y120151*
X70569Y121030*
G75*
G02X70542Y121031I48J2135*
G01*
G75*
G02X70114Y118776I-1965J-795*
G01*
G36*
Y110598*
X71449Y109263*
Y120151*
X70569Y121030*
G75*
G02X70542Y121031I48J2135*
G01*
G75*
G02X70114Y118776I-1965J-795*
G01*
G37*
X73339Y122749D02*
X72734Y123353D01*
G75*
G02X72743Y123204I-2110J-203*
G01*
X73339Y122609*
Y122749*
G36*
X72734Y123353*
G75*
G02X72743Y123204I-2110J-203*
G01*
X73339Y122609*
Y122749*
G37*
X74558Y125980D02*
X74456D01*
X75344Y125092*
Y125194*
X74558Y125980*
G36*
X74456*
X75344Y125092*
Y125194*
X74558Y125980*
G37*
X76413Y115779D02*
Y110480D01*
X81733Y105159*
X105968*
X102609Y108518*
G75*
G02X102157Y109606I1086J1089*
G01*
Y114789*
G75*
G02X99241Y113995I-1848J1038*
G01*
G75*
G02X97115Y113989I-1068J1831*
G01*
G75*
G02X94955Y114016I-1058J1837*
G01*
G75*
G02X92018Y116890I-1102J1811*
G01*
G75*
G02X92033Y119041I1835J1063*
G01*
G75*
G02X92027Y121206I1820J1088*
G01*
G75*
G02X94955Y124094I1826J1078*
G01*
G75*
G02X97115Y124121I1102J-1811*
G01*
G75*
G02X99308Y124074I1057J-1837*
G01*
G75*
G02X100938Y124230I1001J-1869*
G01*
G75*
G02X100799Y126943I1556J1440*
G01*
Y141250*
G75*
G02X100317Y142520I1636J1348*
G01*
X99171Y141376*
G75*
G02X98317Y140836I-1619J1617*
G01*
X92793Y135313*
G75*
G02X91175Y134642I-1619J1617*
G01*
X88422*
X87321Y133541*
Y117953*
G75*
G02X86650Y116335I-2287J0*
G01*
X84919Y114604*
G75*
G02X83301Y113933I-1619J1617*
G01*
X79207*
G75*
G02X77589Y114604I0J2287*
G01*
X76413Y115779*
X93937Y131890D02*
G75*
G02X98177I2120D01*
G01*
G75*
G02X93937I-2120*
G01*
X88661Y131732D02*
G75*
G02X92902I2120D01*
G01*
G75*
G02X88661I-2120*
G01*
X100799Y131890D02*
G36*
X98177D01*
G75*
G02X93937I-2120*
G01*
X92896*
G75*
G02X92902Y131732I-2115J-158*
G01*
G75*
G02X88661I-2120*
G01*
G75*
G02X88667Y131890I2120J-1*
G01*
X87321*
Y117953*
G75*
G02X86650Y116335I-2287*
G01*
X84919Y114604*
G75*
G02X83301Y113933I-1618J1616*
G01*
X79207*
G75*
G02X77589Y114604J2287*
G01*
X76663Y115529*
Y110230*
X81483Y105409*
X105718*
X102609Y108518*
G75*
G02X102157Y109606I1085J1088*
G01*
Y109606*
Y114789*
G75*
G02X99241Y113995I-1849J1039*
G01*
G75*
G02X97115Y113989I-1068J1832*
G01*
G75*
G02X94955Y114016I-1058J1837*
G01*
G75*
G02X91732Y115827I-1102J1811*
G01*
G75*
G02X92018Y116890I2120*
G01*
G75*
G02X91732Y117953I1833J1063*
G01*
G75*
G02X92033Y119041I2119*
G01*
G75*
G02X91732Y120128I1819J1088*
G01*
G75*
G02X92027Y121206I2119*
G01*
G75*
G02X91732Y122284I1826J1078*
G01*
G75*
G02X94955Y124094I2120*
G01*
G75*
G02X97115Y124121I1102J-1811*
G01*
G75*
G02X99308Y124074I1057J-1836*
G01*
G75*
G02X100938Y124230I1001J-1868*
G01*
G75*
G02X100374Y125669I1555J1440*
G01*
G75*
G02X100799Y126943I2120*
G01*
Y131890*
G37*
X100341Y142270D02*
G36*
X100067D01*
X99171Y141376*
G75*
G02X98317Y140836I-1616J1612*
G01*
X92793Y135313*
G75*
G02X91175Y134642I-1618J1616*
G01*
X88422*
X87321Y133541*
Y131890*
X88667*
G75*
G02X92896I2114J-157*
G01*
X93937*
G75*
G02X98177I2120*
G01*
X100799*
Y141250*
G75*
G02X100341Y142270I1634J1348*
G01*
G37*
X87537Y214659D02*
X87472Y214595D01*
G75*
G02X89437Y212480I-155J-2115*
G01*
G75*
G02X85202Y212326I-2120*
G01*
X73996Y201119*
G75*
G02X72907Y200667I-1089J1086*
G01*
X50798*
G75*
G02X50933Y199921I-1985J-746*
G01*
G75*
G02X46693I-2120*
G01*
G75*
G02X46828Y200667I2120J0*
G01*
X34547*
G75*
G02X35483Y199166I-1167J-1770*
G01*
X41710Y192939*
G75*
G02X42161Y191850I-1086J-1089*
G01*
Y167015*
X45622Y163554*
Y184816*
G75*
G02X44488Y186693I986J1877*
G01*
G75*
G02X48729I2120*
G01*
G75*
G02X48628Y186046I-2120J1*
G01*
G75*
G02X48697Y185591I-1469J-456*
G01*
Y163157*
X48731Y163123*
X55989Y170380*
G75*
G02X57002Y170801I1014J-1010*
G01*
X57485*
G75*
G02X61169Y169370I1564J-1431*
G01*
G75*
G02X57539Y167883I-2120*
G01*
X50874Y161218*
Y145219*
G75*
G02X54791Y144094I1797J-1124*
G01*
G75*
G02X50874Y142970I-2120*
G01*
Y139779*
G75*
G02X53925Y137874I931J-1905*
G01*
G75*
G02X50874Y135969I-2120*
G01*
Y126262*
X53264Y123872*
X57553*
G75*
G02X58567Y123451I0J-1431*
G01*
X63339Y118680*
Y120787*
G75*
G02X63790Y121876I1538*
G01*
X67895Y125980*
X57498*
G75*
G02X56209Y125587I-1283J1894*
G01*
X54325*
G75*
G02Y130161J2287*
G01*
X55325*
G75*
G02X56613Y130555I1283J-1894*
G01*
X75506*
G75*
G02X77124Y129884I0J-2287*
G01*
X79248Y127760*
G75*
G02X79480Y127489I-1618J-1620*
G01*
Y138583*
G75*
G02X79932Y139671I1538*
G01*
X84677Y144417*
Y155276*
G75*
G02X85129Y156364I1538*
G01*
X85513Y156748*
G75*
G02X87122Y158751I2119J-55*
G01*
X87512Y159141*
Y166378*
G75*
G02X87963Y167467I1538*
G01*
X92630Y172133*
Y178740*
G75*
G02X93081Y179829I1538*
G01*
X96488Y183235*
Y215197*
G75*
G02X96940Y216285I1538*
G01*
X106937Y226283*
G75*
G02X108026Y226734I1089J-1086*
G01*
X108928*
G75*
G02X112508Y225197I1460J-1537*
G01*
G75*
G02X108928Y223659I-2120*
G01*
X108663*
X99563Y214560*
Y183161*
X114677Y198275*
Y202802*
G75*
G02X117264Y206104I1537J1460*
G01*
Y207459*
X114567Y210156*
G75*
G02X112933Y214094I3931J3939*
G01*
Y233285*
X108305Y237914*
G75*
G02X107752Y236808I-2091J354*
G01*
Y235118*
G75*
G02X107300Y234030I-1538*
G01*
X104209Y230938*
Y227717*
G75*
G02X103757Y226628I-1538*
G01*
X102028Y224898*
G75*
G02X100939Y224447I-1089J1086*
G01*
X88741*
X87988Y223694*
Y215748*
G75*
G02X87537Y214659I-1538*
G01*
X91260Y189685D02*
G75*
G02X95500I2120D01*
G01*
G75*
G02X91260I-2120*
G01*
X78976Y145512D02*
G75*
G02X83217I2120D01*
G01*
G75*
G02X78976I-2120*
G01*
X84409Y184331D02*
G75*
G02X88650I2120D01*
G01*
G75*
G02X84409I-2120*
G01*
X60935Y177490D02*
G75*
G02X65175I2120D01*
G01*
G75*
G02X60935I-2120*
G01*
X63150Y144016D02*
G75*
G02X67390I2120D01*
G01*
G75*
G02X63150I-2120*
G01*
X64094Y134488D02*
G75*
G02X68335I2120D01*
G01*
G75*
G02X64094I-2120*
G01*
X70551Y135433D02*
G75*
G02X74791I2120D01*
G01*
G75*
G02X70551I-2120*
G01*
X104488Y197402D02*
G75*
G02X108728I2120D01*
G01*
G75*
G02X104488I-2120*
G01*
X112150Y205556D02*
G75*
G02X113925Y203465I-344J-2092D01*
G01*
G75*
G02X109685I-2120*
G01*
G75*
G02X109886Y204365I2120J0*
G01*
G75*
G02X108110Y206457I344J2092*
G01*
G75*
G02X112350I2120*
G01*
G75*
G02X112150Y205556I-2120J0*
G01*
X79480Y134488D02*
G36*
X74569D01*
G75*
G02X70773I-1898J945*
G01*
X68335*
G75*
G02X64094I-2120*
G01*
X50874*
Y126262*
X53264Y123872*
X57553*
G75*
G02X58567Y123451J-1430*
G01*
X63089Y118930*
X63339*
Y120787*
Y120788*
G75*
G02X63790Y121876I1537*
G01*
X67895Y125980*
X57498*
G75*
G02X56209Y125587I-1284J1897*
G01*
X54325*
G75*
G02X52037Y127874J2287*
G01*
G75*
G02X54325Y130161I2287*
G01*
X55325*
G75*
G02X56613Y130555I1284J-1897*
G01*
X75506*
G75*
G02X77124Y129884J-2287*
G01*
X79248Y127760*
G75*
G02X79480Y127489I-1643J-1641*
G01*
Y134488*
G37*
X84677Y145512D02*
G36*
X83217D01*
G75*
G02X78976I-2120*
G01*
X66772*
G75*
G02X67390Y144016I-1502J-1496*
G01*
G75*
G02X63150I-2120*
G01*
G75*
G02X63767Y145512I2120J0*
G01*
X54248*
G75*
G02X54791Y144094I-1577J-1417*
G01*
G75*
G02X50874Y142970I-2120*
G01*
Y139779*
G75*
G02X53925Y137874I931J-1905*
G01*
G75*
G02X50874Y135969I-2120*
G01*
Y134488*
X64094*
G75*
G02X68335I2120*
G01*
X70773*
G75*
G02X70551Y135433I1898J944*
G01*
G75*
G02X74791I2120*
G01*
G75*
G02X74569Y134488I-2120J0*
G01*
X79480*
Y138583*
Y138583*
G75*
G02X79932Y139671I1537*
G01*
X84677Y144417*
Y145512*
G37*
X51094D02*
G36*
X50874D01*
Y145219*
G75*
G02X51094Y145512I1797J-1123*
G01*
G37*
X92630Y177490D02*
G36*
X65175D01*
G75*
G02X60935I-2120*
G01*
X48697*
Y163157*
X48731Y163123*
X55989Y170380*
G75*
G02X57002Y170801I1013J-1009*
G01*
X57485*
G75*
G02X61169Y169370I1564J-1431*
G01*
Y169370*
G75*
G02X57539Y167883I-2120*
G01*
X50874Y161218*
Y145512*
X51094*
G75*
G02X54248I1577J-1417*
G01*
X63767*
G75*
G02X66772I1502J-1496*
G01*
X78976*
G75*
G02X83217I2120*
G01*
X84677*
Y155276*
Y155276*
G75*
G02X85129Y156364I1537*
G01*
X85513Y156748*
G75*
G02X87122Y158751I2119J-54*
G01*
X87512Y159141*
Y166378*
Y166378*
G75*
G02X87963Y167467I1537*
G01*
X92630Y172133*
Y177490*
G37*
X45622D02*
G36*
X42161D01*
Y167015*
X45622Y163554*
Y177490*
G37*
Y184331D02*
G36*
X42161D01*
Y177490*
X45622*
Y184331*
G37*
X92630Y177490D02*
G36*
Y178740D01*
Y178741*
G75*
G02X93081Y179829I1537*
G01*
X96488Y183235*
Y184331*
X88650*
G75*
G02X84409I-2120*
G01*
X48697*
Y177490*
X60935*
G75*
G02X65175I2120*
G01*
X92630*
G37*
X100733Y184331D02*
G36*
X99563D01*
Y183161*
X100733Y184331*
G37*
X96488Y189685D02*
G36*
X95500D01*
G75*
G02X91260I-2120*
G01*
X42161*
Y184331*
X45622*
Y184816*
G75*
G02X44488Y186693I986J1877*
G01*
G75*
G02X48729I2120*
G01*
G75*
G02X48628Y186046I-2128J2*
G01*
G75*
G02X48697Y185592I-1455J-454*
G01*
G75*
G02Y185591I-1556J-1*
G01*
Y184331*
X84409*
G75*
G02X88650I2120*
G01*
X96488*
Y189685*
G37*
X106087D02*
G36*
X99563D01*
Y184331*
X100733*
X106087Y189685*
G37*
X96488Y197402D02*
G36*
X37247D01*
X41710Y192939*
G75*
G02X42161Y191851I-1085J-1088*
G01*
Y191850*
Y189685*
X91260*
G75*
G02X95500I2120*
G01*
X96488*
Y197402*
G37*
X113804D02*
G36*
X108728D01*
G75*
G02X104488I-2120*
G01*
X99563*
Y189685*
X106087*
X113804Y197402*
G37*
X96488Y204961D02*
G36*
X77838D01*
X73996Y201119*
G75*
G02X72907Y200667I-1088J1085*
G01*
X50798*
G75*
G02X50933Y199921I-1994J-747*
G01*
G75*
G02X46693I-2120*
G01*
G75*
G02X46828Y200667I2130J-1*
G01*
X34797*
Y200474*
G75*
G02X35483Y199166I-1418J-1577*
G01*
X37247Y197402*
X96488*
Y204961*
G37*
X114213D02*
G36*
X113307D01*
G75*
G02X113925Y203465I-1502J-1497*
G01*
G75*
G02X109685I-2120*
G01*
Y203465*
G75*
G02X109886Y204365I2117*
G01*
G75*
G02X108729Y204961I345J2092*
G01*
X99563*
Y197402*
X104488*
G75*
G02X108728I2120*
G01*
X113804*
X114677Y198275*
Y202802*
G75*
G02X114094Y204261I1537J1460*
G01*
G75*
G02X114213Y204961I2120J0*
G01*
G37*
X117014Y207709D02*
G36*
X114567Y210156D01*
G75*
G02X112933Y214094I3930J3938*
G01*
Y233285*
X108555Y237664*
X108246*
G75*
G02X107752Y236808I-2035J605*
G01*
Y235118*
Y235118*
G75*
G02X107300Y234030I-1537*
G01*
X104209Y230938*
Y227717*
Y227716*
G75*
G02X103757Y226628I-1537*
G01*
X102028Y224898*
G75*
G02X100939Y224447I-1088J1085*
G01*
X88741*
X87988Y223694*
Y215748*
Y215748*
G75*
G02X87537Y214659I-1537*
G01*
X87472Y214595*
G75*
G02X89437Y212480I-156J-2115*
G01*
G75*
G02X85202Y212326I-2120J0*
G01*
X77838Y204961*
X96488*
Y215197*
Y215197*
G75*
G02X96940Y216285I1537*
G01*
X106937Y226283*
G75*
G02X108026Y226734I1088J-1085*
G01*
X108928*
G75*
G02X112508Y225197I1460J-1537*
G01*
G75*
G02X108928Y223659I-2120*
G01*
X108663*
X99563Y214560*
Y204961*
X108729*
G75*
G02X108110Y206457I1502J1497*
G01*
G75*
G02X112350I2120*
G01*
Y206456*
G75*
G02X112150Y205556I-2117*
G01*
G75*
G02X113307Y204961I-345J-2092*
G01*
X114213*
G75*
G02X117014Y206225I2001J-699*
G01*
Y207709*
G37*
X95419Y163763D02*
G75*
G02X93008Y161759I-2118J95D01*
G01*
X94151Y160616*
G75*
G02X94602Y159528I-1086J-1089*
G01*
Y158783*
G75*
G02X95185Y157323I-1537J-1460*
G01*
G75*
G02X90945I-2120*
G01*
G75*
G02X91528Y158783I2120*
G01*
Y158891*
X90587Y159832*
Y158504*
G75*
G02X90135Y157415I-1538*
G01*
X89728Y157009*
G75*
G02X89752Y156693I-2095J-315*
G01*
G75*
G02X87752Y154576I-2120*
G01*
Y143780*
G75*
G02X87300Y142691I-1538*
G01*
X82555Y137946*
Y121066*
G75*
G02X82746Y120834I-1537J-1460*
G01*
Y134488*
G75*
G02X83417Y136106I2287J0*
G01*
X85856Y138546*
G75*
G02X87474Y139217I1619J-1617*
G01*
X90228*
X95621Y144609*
G75*
G02X96397Y145119I1618J-1617*
G01*
G75*
G02X96474Y145148I847J-2126*
G01*
X101093Y149767*
Y154331*
G75*
G02X101763Y155949I2287J0*
G01*
X109242Y163428*
G75*
G02X110860Y164098I1619J-1617*
G01*
X125109*
X126919Y165908*
Y166368*
G75*
G02X126377Y166185I-941J1900*
G01*
G75*
G02X117328Y169630I-3548J4287*
G01*
X101286*
X95419Y163763*
X104961Y164803D02*
G75*
G02X109201I2120D01*
G01*
G75*
G02X104961I-2120*
G01*
X125814D02*
G36*
X109201D01*
G75*
G02X104961I-2120*
G01*
X96459*
X95419Y163763*
G75*
G02X93008Y161759I-2118J95*
G01*
X94151Y160616*
G75*
G02X94602Y159528I-1085J-1088*
G01*
Y159528*
Y158783*
G75*
G02X95185Y157323I-1539J-1461*
G01*
G75*
G02X90945I-2120*
G01*
G75*
G02X91528Y158783I2122J-1*
G01*
Y158891*
X90587Y159832*
Y158504*
Y158504*
G75*
G02X90135Y157415I-1537*
G01*
X89728Y157009*
G75*
G02X89752Y156693I-2098J-316*
G01*
G75*
G02X87752Y154576I-2120J0*
G01*
Y143780*
Y143779*
G75*
G02X87300Y142691I-1537*
G01*
X82805Y138196*
Y135005*
G75*
G02X83417Y136106I2228J-517*
G01*
X85856Y138546*
G75*
G02X87474Y139217I1618J-1616*
G01*
X90228*
X95621Y144609*
G75*
G02X96397Y145119I1617J-1616*
G01*
G75*
G02X96474Y145148I854J-2146*
G01*
X101093Y149767*
Y154331*
G75*
G02X101763Y155949I2287*
G01*
X109242Y163428*
G75*
G02X110860Y164098I1618J-1616*
G01*
X125109*
X125814Y164803*
G37*
X96459D02*
G36*
X104961D01*
G75*
G02X109201I2120*
G01*
X125814*
X126669Y165658*
Y166263*
G75*
G02X126377Y166185I-694J2013*
G01*
G75*
G02X117372Y169380I-3548J4287*
G01*
X101036*
X96459Y164803*
G37*
X97826Y88805D02*
X91271D01*
G75*
G02X91957Y87244I-1435J-1561*
G01*
G75*
G02X87717I-2120*
G01*
G75*
G02X88402Y88805I2120*
G01*
X71569*
G75*
G02X70556Y89226I0J1431*
G01*
X68395Y91386*
G75*
G02X68396Y91339I-1788J-54*
G01*
Y82237*
X69790Y80843*
X73376*
G75*
G02X73289Y81283I1342J495*
G01*
G75*
G02X71281Y84409I1430J3126*
G01*
G75*
G02X78156I3437*
G01*
G75*
G02X77740Y82770I-3437J0*
G01*
X97122*
G75*
G02X96772Y83937I1770J1167*
G01*
G75*
G02X101012I2120*
G01*
G75*
G02X100661Y82770I-2120*
G01*
X103862*
X97826Y88805*
G36*
X91271*
G75*
G02X91957Y87244I-1435J-1561*
G01*
G75*
G02X87717I-2120*
G01*
G75*
G02X88402Y88805I2120*
G01*
X71569*
G75*
G02X70556Y89226I0J1431*
G01*
X68395Y91386*
G75*
G02X68396Y91339I-1788J-54*
G01*
Y82237*
X69790Y80843*
X73376*
G75*
G02X73289Y81283I1342J495*
G01*
G75*
G02X71281Y84409I1430J3126*
G01*
G75*
G02X78156I3437*
G01*
G75*
G02X77740Y82770I-3437J0*
G01*
X97122*
G75*
G02X96772Y83937I1770J1167*
G01*
G75*
G02X101012I2120*
G01*
G75*
G02X100661Y82770I-2120*
G01*
X103862*
X97826Y88805*
G37*
X98067Y177316D02*
Y171467D01*
X99279Y172679*
G75*
G02X100545Y173205I1266J-1262*
G01*
X117264*
Y196513*
X98067Y177316*
G36*
Y171467*
X99279Y172679*
G75*
G02X100545Y173205I1266J-1262*
G01*
X117264*
Y196513*
X98067Y177316*
G37*
X101134Y229213D02*
X22750D01*
Y236181*
G75*
G02X22655Y236077I-1182J984*
G01*
X11610Y225033*
Y197881*
X16946Y192545*
G75*
G02X17398Y191457I-1086J-1089*
G01*
Y190712*
G75*
G02X17980Y189252I-1537J-1460*
G01*
G75*
G02X13740I-2120*
G01*
G75*
G02X14323Y190712I2120*
G01*
Y190820*
X8987Y196156*
G75*
G02X8535Y197244I1086J1089*
G01*
Y225669*
G75*
G02X8987Y226758I1538*
G01*
X20031Y237802*
Y248740*
G75*
G02X20483Y249829I1538*
G01*
X22606Y251952*
G75*
G02X22750Y252079I1087J-1087*
G01*
Y260118*
X21322*
G75*
G02X20883Y259226I-1525J197*
G01*
X19311Y257654*
G75*
G02X18222Y257203I-1089J1086*
G01*
X10434*
X7594Y254363*
Y188708*
X14598Y181704*
G75*
G02X17980Y180000I1262J-1704*
G01*
G75*
G02X14400Y178463I-2120*
G01*
X14128*
G75*
G02X13039Y178914J1538*
G01*
X4971Y186982*
G75*
G02X4520Y188071I1086J1089*
G01*
Y255000*
G75*
G02X4971Y256089I1538*
G01*
X8709Y259826*
G75*
G02X9115Y260118I1089J-1086*
G01*
X1687*
Y30205*
X5433*
Y40093*
X23256*
Y30205*
X32539*
Y40093*
X38209*
Y51969*
G75*
G02X38803Y53400I2022*
G01*
X43130Y57727*
G75*
G02X44561Y58321I1431J-1428*
G01*
X45613*
X47224Y59931*
G75*
G02X48656Y60526I1431J-1428*
G01*
X56401*
X59075Y63200*
Y87314*
G75*
G02X61094Y90073I2022J639*
G01*
X43421Y107746*
Y84173*
G75*
G02X42970Y83085I-1538*
G01*
X42106Y82221*
G75*
G02X41144Y81775I-1089J1086*
G01*
G75*
G02X37559Y83307I-1465J1532*
G01*
G75*
G02X40346Y85319I2120*
G01*
Y108182*
X37963Y110565*
G75*
G02X37512Y111654I1086J1089*
G01*
Y124639*
X33003Y129148*
G75*
G02X32551Y130236I1086J1089*
G01*
Y140072*
X31822Y140801*
G75*
G02X31370Y141890I1086J1089*
G01*
Y147638*
G75*
G02X31822Y148726I1538*
G01*
X39402Y156306*
Y161496*
G75*
G02X39694Y165133I1222J1732*
G01*
X39538Y165289*
G75*
G02X39087Y166378I1086J1089*
G01*
Y191214*
X36307Y193993*
G75*
G02X32126Y194488I-2061J495*
G01*
G75*
G02X33751Y196550I2120*
G01*
X33518Y196782*
G75*
G02X31610Y197730I-138J2116*
G01*
Y194812*
G75*
G02X31768Y194134I-1380J-678*
G01*
Y189298*
X34239Y186828*
G75*
G02X36091Y184724I-268J-2103*
G01*
G75*
G02X31850I-2120*
G01*
G75*
G02X31855Y184863I2120J3*
G01*
X29144Y187573*
G75*
G02X28693Y188661I1086J1089*
G01*
Y193613*
G75*
G02X28535Y194291I1380J678*
G01*
Y198937*
G75*
G02X28987Y200026I1538*
G01*
X32252Y203291*
G75*
G02X33341Y203742I1089J-1086*
G01*
X35481*
G75*
G02X35241Y205235I1836J1061*
G01*
G75*
G02X32244Y207165I-877J1930*
G01*
G75*
G02X36484I2120*
G01*
G75*
G02X36440Y206733I-2121*
G01*
G75*
G02X39152Y203742I877J-1930*
G01*
X72271*
X84913Y216385*
Y224331*
G75*
G02X85365Y225419I1538*
G01*
X87016Y227070*
G75*
G02X88104Y227522I1089J-1086*
G01*
X100302*
X101134Y228354*
Y229213*
X30000Y217146D02*
G75*
G02X34240I2120D01*
G01*
G75*
G02X30000I-2120*
G01*
X30157Y212126D02*
G75*
G02X34398I2120D01*
G01*
G75*
G02X30157I-2120*
G01*
X13740Y201457D02*
G75*
G02X17980I2120D01*
G01*
G75*
G02X13740I-2120*
G01*
X18417Y114404D02*
X26492D01*
Y93352*
X18417*
Y114404*
Y144246D02*
X26492D01*
Y123175*
X18417*
Y144246*
X46122Y66299D02*
G75*
G02X52134I3006D01*
G01*
G75*
G02X46122I-3006*
G01*
X52894Y66063D02*
G75*
G02X58906I3006D01*
G01*
G75*
G02X52894I-3006*
G01*
X30079Y167402D02*
G75*
G02X34319I2120D01*
G01*
G75*
G02X30079I-2120*
G01*
X30787Y172126D02*
G75*
G02X35028I2120D01*
G01*
G75*
G02X30787I-2120*
G01*
X31260Y179803D02*
G75*
G02X35500I2120D01*
G01*
G75*
G02X31260I-2120*
G01*
X59075Y66299D02*
G36*
X58896D01*
G75*
G02X58906Y66063I-2997J-238*
G01*
G75*
G02X52894I-3006*
G01*
G75*
G02X52903Y66299I3006J-2*
G01*
X52134*
G75*
G02X46122I-3006*
G01*
X1937*
Y30455*
X5433*
Y40093*
X23256*
Y30455*
X32539*
Y40093*
X38209*
Y51969*
G75*
G02X38803Y53400I2022*
G01*
X43130Y57727*
G75*
G02X44561Y58321I1431J-1427*
G01*
X45613*
X47224Y59931*
G75*
G02X48656Y60526I1431J-1427*
G01*
X56401*
X59075Y63200*
Y66299*
G37*
X40346Y103878D02*
G36*
X26492D01*
Y93352*
X18417*
Y103878*
X1937*
Y66299*
X46122*
G75*
G02X52134I3006*
G01*
X52903*
G75*
G02X58896I2996J-236*
G01*
X59075*
Y87314*
G75*
G02X58976Y87953I2022J639*
G01*
G75*
G02X61094Y90073I2120*
G01*
X47289Y103878*
X43421*
Y84173*
Y84173*
G75*
G02X42970Y83085I-1537*
G01*
X42106Y82221*
G75*
G02X41144Y81775I-1090J1088*
G01*
G75*
G02X37559Y83307I-1465J1532*
G01*
G75*
G02X40346Y85319I2120*
G01*
Y103878*
G37*
X32551Y133711D02*
G36*
X26492D01*
Y123175*
X18417*
Y133711*
X1937*
Y103878*
X18417*
Y114404*
X26492*
Y103878*
X40346*
Y108182*
X37963Y110565*
G75*
G02X37512Y111653I1085J1088*
G01*
Y111654*
Y124639*
X33003Y129148*
G75*
G02X32551Y130236I1085J1088*
G01*
Y130236*
Y133711*
G37*
X47289Y103878D02*
G36*
X43421Y107746D01*
Y103878*
X47289*
G37*
X39087Y167402D02*
G36*
X34319D01*
G75*
G02X30079I-2120*
G01*
X1937*
Y133711*
X18417*
Y144246*
X26492*
Y133711*
X32551*
Y140072*
X31822Y140801*
G75*
G02X31370Y141889I1085J1088*
G01*
Y141890*
Y147638*
Y147638*
G75*
G02X31822Y148726I1537*
G01*
X39402Y156306*
Y161496*
G75*
G02X38504Y163228I1222J1732*
G01*
G75*
G02X39694Y165133I2120*
G01*
X39538Y165289*
G75*
G02X39087Y166378I1085J1088*
G01*
Y166378*
Y167402*
G37*
Y172126D02*
G36*
X35028D01*
G75*
G02X30787I-2120*
G01*
X1937*
Y167402*
X30079*
G75*
G02X34319I2120*
G01*
X39087*
Y172126*
G37*
Y179803D02*
G36*
X35500D01*
G75*
G02X31260I-2120*
G01*
X17971*
G75*
G02X14400Y178463I-2111J197*
G01*
X14128*
G75*
G02X13039Y178914I0J1537*
G01*
X12150Y179803*
X1937*
Y172126*
X30787*
G75*
G02X35028I2120*
G01*
X39087*
Y179803*
G37*
X12150D02*
G36*
X4971Y186982D01*
G75*
G02X4520Y188070I1085J1088*
G01*
Y188071*
Y201457*
X1937*
Y179803*
X12150*
G37*
X30418Y201457D02*
G36*
X17980D01*
G75*
G02X13740I-2120*
G01*
X11610*
Y197881*
X16946Y192545*
G75*
G02X17398Y191457I-1085J-1088*
G01*
Y191457*
Y190712*
G75*
G02X17980Y189252I-1539J-1461*
G01*
G75*
G02X13740I-2120*
G01*
G75*
G02X14323Y190712I2122J-1*
G01*
Y190820*
X8987Y196156*
G75*
G02X8535Y197244I1085J1088*
G01*
Y197244*
Y201457*
X7594*
Y188708*
X14598Y181704*
G75*
G02X17980Y180000I1262J-1704*
G01*
G75*
G02X17971Y179803I-2120J-1*
G01*
X31260*
G75*
G02X35500I2120*
G01*
X39087*
Y191214*
X36307Y193993*
G75*
G02X32126Y194488I-2061J496*
G01*
G75*
G02X33751Y196550I2121J0*
G01*
X33518Y196782*
G75*
G02X31610Y197730I-138J2116*
G01*
Y194812*
G75*
G02X31768Y194135I-1376J-677*
G01*
G75*
G02Y194134I-1650J0*
G01*
Y189298*
X34239Y186828*
G75*
G02X36091Y184724I-269J-2104*
G01*
G75*
G02X31850I-2120*
G01*
G75*
G02X31855Y184863I2415J-7*
G01*
X29144Y187573*
G75*
G02X28693Y188661I1085J1088*
G01*
Y188661*
Y193613*
G75*
G02X28535Y194290I1376J677*
G01*
G75*
G02Y194291I1650J1*
G01*
Y198937*
Y198937*
G75*
G02X28987Y200026I1537*
G01*
X30418Y201457*
G37*
X4520Y212126D02*
G36*
X1937D01*
Y201457*
X4520*
Y212126*
G37*
X8535D02*
G36*
X7594D01*
Y201457*
X8535*
Y212126*
G37*
X80654D02*
G36*
X34398D01*
G75*
G02X30157I-2120*
G01*
X11610*
Y201457*
X13740*
G75*
G02X17980I2120*
G01*
X30418*
X32252Y203291*
G75*
G02X33341Y203742I1088J-1085*
G01*
X35481*
G75*
G02X35197Y204803I1834J1061*
G01*
G75*
G02X35241Y205235I2118J0*
G01*
G75*
G02X32244Y207165I-877J1930*
G01*
G75*
G02X36484I2120*
G01*
G75*
G02Y207163I-1991J-1*
G01*
G75*
G02X36440Y206733I-2099*
G01*
G75*
G02X39437Y204803I877J-1930*
G01*
G75*
G02X39152Y203742I-2120*
G01*
X72271*
X80654Y212126*
G37*
X4520Y217146D02*
G36*
X1937D01*
Y212126*
X4520*
Y217146*
G37*
X8535D02*
G36*
X7594D01*
Y212126*
X8535*
Y217146*
G37*
X84913D02*
G36*
X34240D01*
G75*
G02X30000I-2120*
G01*
X11610*
Y212126*
X30157*
G75*
G02X34398I2120*
G01*
X80654*
X84913Y216385*
Y217146*
G37*
X8752Y259868D02*
G36*
X1937D01*
Y217146*
X4520*
Y255000*
Y255000*
G75*
G02X4971Y256089I1537*
G01*
X8709Y259826*
G75*
G02X8752Y259868I1093J-1090*
G01*
G37*
X22750D02*
G36*
X21269D01*
G75*
G02X20883Y259226I-1469J446*
G01*
X19311Y257654*
G75*
G02X18222Y257203I-1088J1085*
G01*
X10434*
X7594Y254363*
Y217146*
X8535*
Y225669*
Y225670*
G75*
G02X8987Y226758I1537*
G01*
X20031Y237802*
Y248740*
Y248741*
G75*
G02X20483Y249829I1537*
G01*
X22606Y251952*
G75*
G02X22750Y252079I1019J-1010*
G01*
Y259868*
G37*
X100884Y229213D02*
G36*
X22750D01*
Y236181*
G75*
G02X22655Y236077I-1247J1043*
G01*
X11610Y225033*
Y217146*
X30000*
G75*
G02X34240I2120*
G01*
X84913*
Y224331*
Y224331*
G75*
G02X85365Y225419I1537*
G01*
X87016Y227070*
G75*
G02X88104Y227522I1088J-1085*
G01*
X100302*
X100884Y228104*
Y229213*
G37*
X102157Y116915D02*
G75*
G02X102143Y116890I-1857J1045D01*
G01*
G75*
G02X102157Y116865I-1843J-1070*
G01*
Y116915*
G36*
G75*
G02X102143Y116890I-1857J1045*
G01*
G75*
G02X102157Y116865I-1843J-1070*
G01*
Y116915*
G37*
X103656Y242563D02*
Y234733D01*
X104677Y235755*
Y236808*
G75*
G02X105861Y240358I1537J1460*
G01*
X103656Y242563*
G36*
Y234733*
X104677Y235755*
Y236808*
G75*
G02X105861Y240358I1537J1460*
G01*
X103656Y242563*
G37*
X103811Y79907D02*
X93244D01*
X95617Y77535*
X104347*
G75*
G02X105205Y78513I1947J-843*
G01*
X103811Y79907*
G36*
X93244*
X95617Y77535*
X104347*
G75*
G02X105205Y78513I1947J-843*
G01*
X103811Y79907*
G37*
X105891Y260709D02*
X105579D01*
X109513Y256775*
G75*
G02X110804Y255261I-778J-1972*
G01*
X114514Y251551*
X115049*
X113133Y253468*
G75*
G02X111651Y254950I563J2044*
G01*
X105891Y260709*
G36*
X105579*
X109513Y256775*
G75*
G02X110804Y255261I-778J-1972*
G01*
X114514Y251551*
X115049*
X113133Y253468*
G75*
G02X111651Y254950I563J2044*
G01*
X105891Y260709*
G37*
X112630Y77703D02*
X111348D01*
G75*
G02X107904Y75313I-1905J-931*
G01*
G75*
G02X106750Y74622I-1611J1379*
G01*
X106612Y74484*
G75*
G02X105345Y73961I-1264J1264*
G01*
X94879*
G75*
G02X93612Y74484I-3J1787*
G01*
X90828Y77268*
X84782*
X93569Y68480*
X118151*
X113631Y73000*
G75*
G02X113133Y77199I-94J2118*
G01*
X112630Y77703*
G36*
X111348*
G75*
G02X107904Y75313I-1905J-931*
G01*
G75*
G02X106750Y74622I-1611J1379*
G01*
X106612Y74484*
G75*
G02X105345Y73961I-1264J1264*
G01*
X94879*
G75*
G02X93612Y74484I-3J1787*
G01*
X90828Y77268*
X84782*
X93569Y68480*
X118151*
X113631Y73000*
G75*
G02X113133Y77199I-94J2118*
G01*
X112630Y77703*
G37*
X114529Y247976D02*
X113982D01*
X114360Y247598*
G75*
G02X114529Y247976I2011J-670*
G01*
G36*
X113982*
X114360Y247598*
G75*
G02X114529Y247976I2011J-670*
G01*
G37*
X117262Y245005D02*
G75*
G02X117041Y244917I-890J1923D01*
G01*
X117262Y244697*
Y245005*
G36*
G75*
G02X117041Y244917I-890J1923*
G01*
X117262Y244697*
Y245005*
G37*
X118929Y96364D02*
X100686D01*
X112048Y85002*
X115033*
G75*
G02X116122Y84550J-1538*
G01*
X124332Y76341*
X137468*
X137882Y76755*
G75*
G02X138970Y77207I1089J-1086*
G01*
X157153*
X168669Y88724*
G75*
G02X169758Y89175I1089J-1086*
G01*
X177153*
X179299Y91322*
G75*
G02X180388Y91774I1089J-1086*
G01*
X181137*
G75*
G02X181050Y94919I1377J1612*
G01*
X168978*
X167198Y93141*
G75*
G02X169201Y91024I-118J-2117*
G01*
G75*
G02X164964Y90906I-2120*
G01*
X164524Y90466*
Y89491*
G75*
G02X163644Y86016I-1537J-1460*
G01*
G75*
G02X163925Y84961I-1839J-1056*
G01*
G75*
G02X159685I-2120*
G01*
G75*
G02X159690Y85104I2118J2*
G01*
X159378Y84793*
G75*
G02X157947Y84199I-1431J1428*
G01*
X155896*
G75*
G02X156957Y82362I-1059J-1837*
G01*
G75*
G02X156942Y82116I-2119J2*
G01*
G75*
G02X158925Y80000I-137J-2116*
G01*
G75*
G02X154685I-2120*
G01*
G75*
G02X154700Y80246I2119J-2*
G01*
G75*
G02X153778Y84199I137J2116*
G01*
X153272*
X151347Y82273*
G75*
G02X149915Y81679I-1431J1428*
G01*
X146407*
G75*
G02X147469Y79843I-1059J-1837*
G01*
G75*
G02X143228I-2120*
G01*
G75*
G02X144289Y81679I2120*
G01*
X140595*
X140402Y81486*
G75*
G02X138970Y80892I-1431J1428*
G01*
X131735*
G75*
G02X128976Y82913I-639J2022*
G01*
G75*
G02X131735Y84935I2120*
G01*
X138133*
X138326Y85128*
G75*
G02X139758Y85722I1431J-1428*
G01*
X142378*
G75*
G02X142097Y88228I1553J1443*
G01*
G75*
G02X142059Y90287I1835J1063*
G01*
G75*
G02X144915Y93252I1793J1131*
G01*
G75*
G02X148098Y91417I1063J-1834*
G01*
G75*
G02X148097Y91331I-2116J-4*
G01*
G75*
G02X150017Y88150I86J-2119*
G01*
G75*
G02X150303Y87087I-1834J-1063*
G01*
G75*
G02X150298Y86943I-2118J-2*
G01*
X151004Y87648*
G75*
G02X151782Y88134I1431J-1428*
G01*
G75*
G02X151260Y89528I1598J1394*
G01*
G75*
G02X155500I2120*
G01*
G75*
G02X155066Y88242I-2120*
G01*
X157109*
X158326Y89459*
G75*
G02X159758Y90053I1431J-1428*
G01*
X161449*
Y91102*
G75*
G02X161900Y92191I1538*
G01*
X167252Y97543*
G75*
G02X168341Y97994I1089J-1086*
G01*
X186444*
X188614Y100165*
Y101944*
G75*
G02X185989Y102348I-1061J1835*
G01*
X168933*
X161874Y95289*
G75*
G02X160860Y94868I-1014J1010*
G01*
X143422*
X138724Y90171*
G75*
G02X137711Y89750I-1014J1010*
G01*
X126136*
G75*
G02X125122Y90171I0J1431*
G01*
X118929Y96364*
X156378Y92126D02*
G75*
G02X160618I2120D01*
G01*
G75*
G02X156378I-2120*
G01*
X111496Y87480D02*
G75*
G02X115736I2120D01*
G01*
G75*
G02X111496I-2120*
G01*
X116850Y84724D02*
G75*
G02X121091I2120D01*
G01*
G75*
G02X116850I-2120*
G01*
X164670D02*
G36*
X163912D01*
G75*
G02X159698I-2107J236*
G01*
X159307*
G75*
G02X157947Y84199I-1360J1496*
G01*
X155896*
G75*
G02X156957Y82363I-1058J-1836*
G01*
Y82362*
G75*
G02Y82359I-1971J-2*
G01*
G75*
G02X156942Y82116I-2031*
G01*
G75*
G02X158925Y80000I-137J-2115*
G01*
Y80000*
G75*
G02X154685I-2120*
G01*
G75*
G02Y80004I1971J2*
G01*
G75*
G02X154700Y80246I2031*
G01*
G75*
G02X152717Y82362I137J2116*
G01*
G75*
G02X153778Y84199I2120*
G01*
X153272*
X151347Y82273*
G75*
G02X149915Y81679I-1431J1427*
G01*
X146407*
G75*
G02X147469Y79843I-1058J-1836*
G01*
Y79843*
G75*
G02X143228I-2120*
G01*
Y79843*
G75*
G02X144289Y81679I2119*
G01*
X140595*
X140402Y81486*
G75*
G02X138970Y80892I-1431J1427*
G01*
X131735*
G75*
G02X128976Y82913I-639J2021*
G01*
Y82913*
G75*
G02X129994Y84724I2120J0*
G01*
X121091*
G75*
G02X116850I-2120*
G01*
X115915*
G75*
G02X116122Y84550I-881J-1259*
G01*
X124082Y76591*
X137717*
X137882Y76755*
G75*
G02X138970Y77207I1088J-1085*
G01*
X157153*
X164670Y84724*
G37*
X129994D02*
G36*
G75*
G02X131735Y84935I1102J-1811D01*
G01*
X138133*
X138326Y85128*
G75*
G02X139758Y85722I1431J-1427*
G01*
X142378*
G75*
G02X141811Y87165I1554J1443*
G01*
G75*
G02X141835Y87480I2121J-1*
G01*
X115736*
G75*
G02X111496I-2120*
G01*
X109570*
X112048Y85002*
X115033*
G75*
G02X115915Y84724I0J-1537*
G01*
X116850*
G75*
G02X121091I2120*
G01*
X129994*
G37*
X150836Y87480D02*
G36*
X150266D01*
G75*
G02X150303Y87087I-2086J-394*
G01*
Y87086*
G75*
G02X150298Y86943I-2177*
G01*
X150836Y87480*
G37*
X159698Y84724D02*
G36*
G75*
G02X159685Y84961I2107J238D01*
G01*
Y84961*
G75*
G02X159690Y85104I2177*
G01*
X159378Y84793*
G75*
G02X159307Y84724I-1431J1426*
G01*
X159698*
G37*
X167426Y87480D02*
G36*
X165033D01*
G75*
G02X163644Y86016I-2047J551*
G01*
G75*
G02X163925Y84961I-1841J-1056*
G01*
G75*
G02X163912Y84724I-2120J2*
G01*
X164670*
X167426Y87480*
G37*
X141835D02*
G36*
G75*
G02X142097Y88228I2097J-315D01*
G01*
G75*
G02X141811Y89291I1834J1063*
G01*
G75*
G02X142059Y90287I2121*
G01*
G75*
G02X141732Y91417I1793J1131*
G01*
G75*
G02X141854Y92126I2120J0*
G01*
X140679*
X138724Y90171*
G75*
G02X137711Y89750I-1013J1009*
G01*
X126136*
G75*
G02X125122Y90171J1430*
G01*
X123167Y92126*
X104924*
X109570Y87480*
X111496*
G75*
G02X115736I2120*
G01*
X141835*
G37*
X161839Y92126D02*
G36*
X160618D01*
G75*
G02X156378I-2120*
G01*
X147976*
G75*
G02X148098Y91418I-1998J-709*
G01*
Y91417*
G75*
G02X148097Y91331I-2383J0*
G01*
G75*
G02X150303Y89213I86J-2119*
G01*
G75*
G02X150017Y88150I-2120*
G01*
G75*
G02X150266Y87480I-1837J-1064*
G01*
X150836*
X151004Y87648*
G75*
G02X151782Y88134I1430J-1424*
G01*
G75*
G02X151260Y89528I1600J1394*
G01*
G75*
G02X155500I2120*
G01*
Y89527*
G75*
G02X155066Y88242I-2119*
G01*
X157109*
X158326Y89459*
G75*
G02X159758Y90053I1431J-1427*
G01*
X161449*
Y91102*
Y91103*
G75*
G02X161839Y92126I1537*
G01*
G37*
X180809D02*
G36*
X168892D01*
G75*
G02X169201Y91024I-1811J-1102*
G01*
G75*
G02X164964Y90906I-2120*
G01*
X164524Y90466*
Y89491*
G75*
G02X165106Y88031I-1538J-1460*
G01*
G75*
G02X165033Y87480I-2120J1*
G01*
X167426*
X168669Y88724*
G75*
G02X169758Y89175I1088J-1085*
G01*
X177153*
X179299Y91322*
G75*
G02X180388Y91774I1088J-1085*
G01*
X181137*
G75*
G02X180809Y92126I1376J1612*
G01*
G37*
X123167D02*
G36*
X118929Y96364D01*
X100936*
Y96114*
X104924Y92126*
X123167*
G37*
X188364Y101821D02*
G36*
G75*
G02X186261Y102098I-811J1959D01*
G01*
X168683*
X161874Y95289*
G75*
G02X160860Y94868I-1013J1009*
G01*
X143422*
X140679Y92126*
X141854*
G75*
G02X144915Y93252I1998J-709*
G01*
G75*
G02X147976Y92126I1063J-1834*
G01*
X156378*
G75*
G02X160618I2120*
G01*
X161839*
G75*
G02X161900Y92191I1147J-1023*
G01*
X167252Y97543*
G75*
G02X168341Y97994I1088J-1085*
G01*
X186444*
X188364Y99915*
Y101821*
G37*
X180809Y92126D02*
G36*
G75*
G02X180394Y93386I1705J1260D01*
G01*
G75*
G02X181050Y94919I2120*
G01*
X168978*
X167198Y93141*
G75*
G02X168892Y92126I-118J-2117*
G01*
X180809*
G37*
X124063Y226946D02*
Y216400D01*
X126760Y213702*
G75*
G02X127087Y213347I-3932J-3937*
G01*
Y218740*
G75*
G02X130175Y220626I2120*
G01*
Y220834*
X124063Y226946*
G36*
Y216400*
X126760Y213702*
G75*
G02X127087Y213347I-3932J-3937*
G01*
Y218740*
G75*
G02X130175Y220626I2120*
G01*
Y220834*
X124063Y226946*
G37*
X129672Y128432D02*
G75*
G02X129278Y127271I-2119J72D01*
G01*
G75*
G02X131096Y127087I717J-1995*
G01*
G75*
G02X131157Y127122I1095J-1813*
G01*
G75*
G02X130735Y128761I1673J1304*
G01*
G75*
G02X129672Y128432I-1135J1791*
G01*
G36*
G75*
G02X129278Y127271I-2119J72*
G01*
G75*
G02X131096Y127087I717J-1995*
G01*
G75*
G02X131157Y127122I1095J-1813*
G01*
G75*
G02X130735Y128761I1673J1304*
G01*
G75*
G02X129672Y128432I-1135J1791*
G01*
G37*
X129980Y55450D02*
G75*
G02X129717Y55238I-1088J1086D01*
G01*
X141326*
X146465Y60377*
G75*
G02X147553Y60829I1089J-1086*
G01*
X169669*
X167946Y62551*
G75*
G02X167789Y62545I-154J2015*
G01*
X164727*
G75*
G02X162302Y65709I-639J2021*
G01*
G75*
G02X162020Y66387I1787J1143*
G01*
X159114Y63481*
G75*
G02X158026Y63030I-1089J1086*
G01*
X148111*
X143917Y58835*
G75*
G02X142829Y58384I-1089J1086*
G01*
X132915*
X129980Y55450*
G36*
G75*
G02X129717Y55238I-1088J1086*
G01*
X141326*
X146465Y60377*
G75*
G02X147553Y60829I1089J-1086*
G01*
X169669*
X167946Y62551*
G75*
G02X167789Y62545I-154J2015*
G01*
X164727*
G75*
G02X162302Y65709I-639J2021*
G01*
G75*
G02X162020Y66387I1787J1143*
G01*
X159114Y63481*
G75*
G02X158026Y63030I-1089J1086*
G01*
X148111*
X143917Y58835*
G75*
G02X142829Y58384I-1089J1086*
G01*
X132915*
X129980Y55450*
G37*
X131452Y61219D02*
X128911D01*
G75*
G02X129752Y59569I-1279J-1691*
G01*
X131189Y61007*
G75*
G02X131452Y61219I1088J-1086*
G01*
G36*
X128911*
G75*
G02X129752Y59569I-1279J-1691*
G01*
X131189Y61007*
G75*
G02X131452Y61219I1088J-1086*
G01*
G37*
X134142Y67703D02*
G75*
G02X133362Y64871I-1864J-1010D01*
G01*
G75*
G02X134899Y61459I-140J-2115*
G01*
X142192*
X144328Y63595*
G75*
G02X140866Y65236I-1342J1641*
G01*
G75*
G02X140867Y65288I2119J-7*
G01*
G75*
G02X139139Y65970I-164J2114*
G01*
X137632*
G75*
G02X136619Y66391I0J1431*
G01*
X135307Y67703*
X134142*
G36*
G75*
G02X133362Y64871I-1864J-1010*
G01*
G75*
G02X134899Y61459I-140J-2115*
G01*
X142192*
X144328Y63595*
G75*
G02X140866Y65236I-1342J1641*
G01*
G75*
G02X140867Y65288I2119J-7*
G01*
G75*
G02X139139Y65970I-164J2114*
G01*
X137632*
G75*
G02X136619Y66391I0J1431*
G01*
X135307Y67703*
X134142*
G37*
X134949Y128425D02*
G75*
G02X134206Y126813I-2120D01*
G01*
X134554*
X136212Y128470*
X134948*
G75*
G02X134949Y128425I-2121J-41*
G01*
G36*
G75*
G02X134206Y126813I-2120*
G01*
X134554*
X136212Y128470*
X134948*
G75*
G02X134949Y128425I-2121J-41*
G01*
G37*
X137293Y187676D02*
G75*
G02X134891Y184506I-1787J-1140D01*
G01*
G75*
G02X131327Y182519I-2063J-491*
G01*
Y181804*
G75*
G02X131494Y180945I-2120J-859*
G01*
Y164961*
G75*
G02X130823Y163343I-2287J0*
G01*
X127675Y160194*
G75*
G02X126057Y159524I-1619J1617*
G01*
X111808*
X105667Y153383*
Y151113*
G75*
G02X108592Y148465I941J-1900*
G01*
X112477Y144581*
X130322*
G75*
G02X129665Y146457I2349J1876*
G01*
G75*
G02X135677I3006*
G01*
G75*
G02X135020Y144581I-3006J0*
G01*
X138357*
G75*
G02X138227Y146870I1715J1246*
G01*
G75*
G02X138250Y148996I1846J1043*
G01*
G75*
G02X141175Y151890I1823J1083*
G01*
G75*
G02X142283Y152199I1102J-1811*
G01*
G75*
G02Y152205I2128J3*
G01*
G75*
G02X142569Y153268I2120*
G01*
G75*
G02X144072Y156425I1834J1063*
G01*
X138987Y161510*
G75*
G02X138535Y162598I1086J1089*
G01*
Y191489*
X136649Y193375*
G75*
G02X136191Y193547I511J2057*
G01*
Y193260*
X136768Y192683*
G75*
G02X137293Y191417I-1262J-1266*
G01*
Y187676*
X109843Y149213D02*
G75*
G02X114083I2120D01*
G01*
G75*
G02X109843I-2120*
G01*
X130143Y144831D02*
G36*
G75*
G02X129665Y146456I2528J1626D01*
G01*
Y146457*
G75*
G02X131471Y149213I3006*
G01*
X114083*
G75*
G02X109843I-2120*
G01*
X108728*
G75*
G02X108592Y148465I-2120*
G01*
X112227Y144831*
X130143*
G37*
X138138Y149213D02*
G36*
X133871D01*
G75*
G02X135677Y146457I-1200J-2756*
G01*
Y146456*
G75*
G02X135200Y144831I-3006*
G01*
X138201*
G75*
G02X137953Y145827I1873J996*
G01*
G75*
G02X138227Y146870I2121J0*
G01*
G75*
G02X137953Y147913I1845J1043*
G01*
G75*
G02X138250Y148996I2120J0*
G01*
G75*
G02X138138Y149213I1823J1082*
G01*
G37*
X143822Y156675D02*
G36*
X138987Y161510D01*
G75*
G02X138535Y162598I1085J1088*
G01*
Y162598*
Y191489*
X136727Y193297*
X136191*
Y193260*
X136768Y192683*
G75*
G02X137293Y191417I-1262J-1266*
G01*
Y187676*
G75*
G02X137626Y186535I-1787J-1140*
G01*
G75*
G02X134891Y184506I-2120*
G01*
G75*
G02X134949Y184016I-2062J-490*
G01*
G75*
G02X131327Y182519I-2120*
G01*
Y181804*
G75*
G02X131494Y180946I-2115J-858*
G01*
G75*
G02Y180945I-1961J0*
G01*
Y164961*
G75*
G02X130823Y163343I-2287*
G01*
X127675Y160194*
G75*
G02X126057Y159524I-1618J1616*
G01*
X111808*
X105917Y153633*
Y151217*
G75*
G02X108728Y149213I691J-2004*
G01*
X109843*
G75*
G02X114083I2120*
G01*
X131471*
G75*
G02X133871I1200J-2756*
G01*
X138138*
G75*
G02X137953Y150079I1935J867*
G01*
G75*
G02X141175Y151890I2120*
G01*
G75*
G02X142283Y152199I1102J-1811*
G01*
Y152205*
G75*
G02X142569Y153268I2123J-1*
G01*
G75*
G02X142283Y154331I1834J1063*
G01*
G75*
G02X143822Y156370I2120*
G01*
Y156675*
G37*
X138039Y244604D02*
Y239361D01*
X141815Y243136*
G75*
G02X142829Y243557I1014J-1010*
G01*
X150272*
G75*
G02X149921Y244724I1770J1167*
G01*
G75*
G02X149937Y244978I2121J-2*
G01*
G75*
G02X148093Y247593I215J2109*
G01*
G75*
G02X145809Y250537I-343J2093*
G01*
X143973*
X138039Y244604*
G36*
Y239361*
X141815Y243136*
G75*
G02X142829Y243557I1014J-1010*
G01*
X150272*
G75*
G02X149921Y244724I1770J1167*
G01*
G75*
G02X149937Y244978I2121J-2*
G01*
G75*
G02X148093Y247593I215J2109*
G01*
G75*
G02X145809Y250537I-343J2093*
G01*
X143973*
X138039Y244604*
G37*
X139929Y237202D02*
Y229905D01*
X141261Y231236*
G75*
G02X143474Y233299I2119J-55*
G01*
X150870Y240695*
X143422*
X139929Y237202*
G36*
Y229905*
X141261Y231236*
G75*
G02X143474Y233299I2119J-55*
G01*
X150870Y240695*
X143422*
X139929Y237202*
G37*
X145670Y99486D02*
X143915Y97730D01*
X155097*
G75*
G02X155049Y99486I1905J931*
G01*
X145670*
G36*
X143915Y97730*
X155097*
G75*
G02X155049Y99486I1905J931*
G01*
X145670*
G37*
X146238Y146811D02*
G75*
G02X146173Y144581I-1834J-1063D01*
G01*
X149716*
X150872Y145736*
G75*
G02X151887Y146156I1012J-1011*
G01*
X153037*
Y146165*
G75*
G02Y146171I961J4*
G01*
G75*
G02Y146172I1187J1*
G01*
G75*
G02X153414Y147083I1288*
G01*
X146498Y154000*
G75*
G02X146238Y153268I-2094J331*
G01*
G75*
G02Y151142I-1834J-1063*
G01*
G75*
G02X146215Y148976I-1834J-1063*
G01*
G75*
G02X146238Y146811I-1811J-1102*
G01*
G36*
G75*
G02X146173Y144581I-1834J-1063*
G01*
X149716*
X150872Y145736*
G75*
G02X151887Y146156I1012J-1011*
G01*
X153037*
Y146165*
G75*
G02Y146171I961J4*
G01*
G75*
G02Y146172I1187J1*
G01*
G75*
G02X153414Y147083I1288*
G01*
X146498Y154000*
G75*
G02X146238Y153268I-2094J331*
G01*
G75*
G02Y151142I-1834J-1063*
G01*
G75*
G02X146215Y148976I-1834J-1063*
G01*
G75*
G02X146238Y146811I-1811J-1102*
G01*
G37*
X147873Y223021D02*
G75*
G02X147549Y223095I309J2097D01*
G01*
G75*
G02X147783Y222126I-1885J-969*
G01*
G75*
G02X143543I-2120*
G01*
G75*
G02X146297Y224149I2120*
G01*
G75*
G02X146448Y226337I1886J969*
G01*
X143924*
X140780Y223193*
G75*
G02X139513Y219900I-1731J-1224*
G01*
X143521Y215892*
G75*
G02X143972Y214846I-1086J-1088*
G01*
G75*
G02X144555Y213386I-1537J-1461*
G01*
G75*
G02X140315I-2120*
G01*
G75*
G02X140606Y214458I2120*
G01*
X136191Y218873*
Y197319*
G75*
G02X138226Y197265I969J-1886*
G01*
G75*
G02X142272Y196378I1926J-887*
G01*
G75*
G02X140115Y194258I-2120*
G01*
X141159Y193215*
G75*
G02X141610Y192126I-1086J-1089*
G01*
Y163235*
X153037Y151809*
Y163858*
G75*
G02X154325Y165146I1288*
G01*
X167083*
X157704Y174526*
X156766*
Y166693*
X145033*
X142829Y168898*
Y172756*
X145033Y174961*
X149049*
G75*
G02X147717Y176929I787J1969*
G01*
G75*
G02X151848Y177600I2120*
G01*
X154704*
G75*
G02X153622Y179449I1038J1848*
G01*
G75*
G02X157862I2120*
G01*
G75*
G02X156780Y177600I-2120*
G01*
X158341*
G75*
G02X159429Y177149J-1538*
G01*
X175568Y161010*
G75*
G02X176020Y159921I-1086J-1089*
G01*
Y152999*
X178148Y150871*
G75*
G02X181281Y150250I1295J-1678*
G01*
X188577*
G75*
G02X189590Y149829I0J-1431*
G01*
X195650Y143769*
G75*
G02X196071Y142756I-1010J-1014*
G01*
Y137601*
X214075Y119596*
G75*
G02X214496Y118583I-1010J-1014*
G01*
Y115503*
G75*
G02X215500Y113701I-1116J-1802*
G01*
G75*
G02X211260I-2120*
G01*
G75*
G02X211634Y114903I2120*
G01*
Y117990*
X194353Y135271*
G75*
G02X190236Y135984I-1996J713*
G01*
G75*
G02X190661Y137258I2120*
G01*
Y140873*
X187789Y143745*
Y138425*
X189679*
Y130394*
X189049Y129764*
X181932*
X196907Y114789*
G75*
G02X197358Y113701I-1086J-1089*
G01*
Y99377*
X205253Y91482*
G75*
G02X205705Y90394I-1086J-1089*
G01*
Y90200*
G75*
G02X206077Y89661I-1537J-1460*
G01*
X206746Y90330*
G75*
G02X207947Y90829I1200J-1196*
G01*
X212736*
G75*
G02X215933Y88242I1274J-1694*
G01*
X216232*
X217439Y89449*
G75*
G02X218051Y90265I2633J-1339*
G01*
Y90315*
G75*
G02X218645Y91746I2022*
G01*
X219114Y92215*
G75*
G02X220545Y92809I1431J-1428*
G01*
X222505*
G75*
G02X223890Y92772I639J-2022*
G01*
Y178904*
X193859Y208935*
X168239*
G75*
G02X169673Y206929I-686J-2006*
G01*
G75*
G02X165433I-2120*
G01*
G75*
G02X166897Y208945I2120*
G01*
G75*
G02X165880Y209433I184J1685*
G01*
X165591Y209722*
X165495*
G75*
G02X165736Y208740I-1879J-982*
G01*
G75*
G02X161496I-2120*
G01*
G75*
G02X161737Y209722I2120*
G01*
X161728*
G75*
G02X160521Y210226I-1J1695*
G01*
X147873Y223021*
X147874Y215984D02*
G75*
G02X152114I2120D01*
G01*
G75*
G02X147874I-2120*
G01*
X218609Y155922D02*
G75*
G02X220461Y153819I-268J-2103D01*
G01*
G75*
G02X216220I-2120*
G01*
G75*
G02X216225Y153957I2120J3*
G01*
X214839Y155344*
Y149649*
G75*
G02X215421Y148189I-1537J-1460*
G01*
G75*
G02X211181I-2120*
G01*
G75*
G02X211764Y149649I2120*
G01*
Y169442*
X198104Y183102*
Y171496*
X183144*
Y184173*
X197033*
X196523Y184683*
X181963*
G75*
G02X180874Y185135J1538*
G01*
X176546Y189463*
G75*
G02X176094Y190551I1086J1089*
G01*
Y193501*
G75*
G02X177169Y197030I1537J1460*
G01*
X176680Y197518*
X173279*
G75*
G02X174713Y195512I-686J-2006*
G01*
G75*
G02X170472I-2120*
G01*
G75*
G02X171906Y197518I2120*
G01*
X168989*
G75*
G02X169831Y195827I-1279J-1691*
G01*
G75*
G02X165591I-2120*
G01*
G75*
G02X166432Y197518I2120*
G01*
X163308*
X161004Y195213*
G75*
G02X159915Y194762I-1089J1086*
G01*
X155174*
G75*
G02X151594Y196299I-1460J1537*
G01*
G75*
G02X155174Y197837I2120*
G01*
X159279*
X161583Y200141*
G75*
G02X162671Y200593I1089J-1086*
G01*
X177317*
G75*
G02X178406Y200141J-1538*
G01*
X188584Y189963*
X198065*
G75*
G02X199154Y189511J-1538*
G01*
X216356Y172309*
G75*
G02X216807Y171220I-1086J-1089*
G01*
Y157724*
X218609Y155922*
X217323Y111732D02*
G75*
G02X221563I2120D01*
G01*
G75*
G02X217323I-2120*
G01*
X218898Y104961D02*
G75*
G02X223138I2120D01*
G01*
G75*
G02X218898I-2120*
G01*
X206850Y141890D02*
G75*
G02X211091I2120D01*
G01*
G75*
G02X206850I-2120*
G01*
X175157Y167598D02*
G75*
G02X179398I2120D01*
G01*
G75*
G02X175157I-2120*
G01*
X145512Y206929D02*
G75*
G02X149752I2120D01*
G01*
G75*
G02X145512I-2120*
G01*
X204354Y101780D02*
G75*
G02X207626Y100000I1152J-1780D01*
G01*
G75*
G02X204354Y98220I-2120*
G01*
G75*
G02X201083Y100000I-1152J1780*
G01*
G75*
G02X204354Y101780I2120*
G01*
X201811Y118110D02*
G75*
G02X206051I2120D01*
G01*
G75*
G02X201811I-2120*
G01*
X223640Y92849D02*
G36*
Y100000D01*
X207626*
G75*
G02X204354Y98220I-2120*
G01*
G75*
G02X201083Y100000I-1152J1780*
G01*
X197358*
Y99377*
X205253Y91482*
G75*
G02X205705Y90394I-1085J-1088*
G01*
Y90394*
Y90200*
G75*
G02X206077Y89661I-1546J-1466*
G01*
X206746Y90330*
G75*
G02X207947Y90829I1200J-1195*
G01*
X212736*
G75*
G02X216130Y89134I1274J-1694*
G01*
G75*
G02X216030Y88492I-2120*
G01*
X216482*
X217439Y89449*
G75*
G02X218051Y90265I2639J-1343*
G01*
Y90315*
G75*
G02X218645Y91746I2022*
G01*
X219114Y92215*
G75*
G02X220545Y92809I1431J-1427*
G01*
X222505*
G75*
G02X223640Y92849I639J-2024*
G01*
G37*
X197358Y104961D02*
G36*
Y100000D01*
X201083*
G75*
G02X204354Y101780I2120*
G01*
G75*
G02X207626Y100000I1152J-1780*
G01*
X223640*
Y104961*
X223138*
G75*
G02X218898I-2120*
G01*
X197358*
G37*
X214167Y111732D02*
G36*
G75*
G02X212593I-787J1969D01*
G01*
X197358*
Y104961*
X218898*
G75*
G02X223138I2120*
G01*
X223640*
Y111732*
X221563*
G75*
G02X217323I-2120*
G01*
X214167*
G37*
X211513Y118110D02*
G36*
X206051D01*
G75*
G02X201811I-2120*
G01*
X193586*
X196907Y114789*
G75*
G02X197358Y113701I-1085J-1088*
G01*
Y113701*
Y111732*
X212593*
G75*
G02X211260Y113701I787J1969*
G01*
G75*
G02X211634Y114903I2120*
G01*
Y117990*
X211513Y118110*
G37*
X214496D02*
G36*
Y115503D01*
G75*
G02X215500Y113701I-1117J-1803*
G01*
G75*
G02X214167Y111732I-2120*
G01*
X217323*
G75*
G02X221563I2120*
G01*
X223640*
Y118110*
X214496*
G37*
X211513D02*
G36*
X194353Y135271D01*
G75*
G02X190236Y135984I-1996J713*
G01*
G75*
G02X190661Y137258I2120*
G01*
Y140873*
X189644Y141890*
X187789*
Y138425*
X189679*
Y130394*
X189049Y129764*
X181932*
X193586Y118110*
X201811*
G75*
G02X206051I2120*
G01*
X211513*
G37*
X214496D02*
G36*
X223640D01*
Y141890*
X211091*
G75*
G02X206850I-2120*
G01*
X196071*
Y137601*
X214075Y119596*
G75*
G02X214496Y118583I-1009J-1013*
G01*
Y118110*
G37*
X216807Y167598D02*
G36*
Y157724D01*
X218609Y155922*
G75*
G02X220461Y153819I-269J-2104*
G01*
G75*
G02X216220I-2120*
G01*
G75*
G02X216225Y153957I2415J-7*
G01*
X214839Y155344*
Y149649*
G75*
G02X215421Y148189I-1539J-1461*
G01*
G75*
G02X211181I-2120*
G01*
G75*
G02X211764Y149649I2122J-1*
G01*
Y167598*
X179398*
G75*
G02X175157I-2120*
G01*
X168980*
X175568Y161010*
G75*
G02X176020Y159922I-1085J-1088*
G01*
Y159921*
Y152999*
X178148Y150871*
G75*
G02X181281Y150250I1295J-1678*
G01*
X188577*
G75*
G02X189590Y149829J-1430*
G01*
X195650Y143769*
G75*
G02X196071Y142756I-1009J-1013*
G01*
Y141890*
X206850*
G75*
G02X211091I2120*
G01*
X223640*
Y167598*
X216807*
G37*
X164631D02*
G36*
X156766D01*
Y166693*
X145033*
X144128Y167598*
X141610*
Y163235*
X153037Y151809*
Y163858*
G75*
G02X154325Y165146I1288*
G01*
X167083*
X164631Y167598*
G37*
X189644Y141890D02*
G36*
X187789Y143745D01*
Y141890*
X189644*
G37*
X143404Y173331D02*
G36*
X141610D01*
Y167598*
X144128*
X142829Y168898*
Y172756*
X143404Y173331*
G37*
X164631Y167598D02*
G36*
X158899Y173331D01*
X156766*
Y167598*
X164631*
G37*
X211764D02*
G36*
Y169442D01*
X207875Y173331*
X198104*
Y171496*
X183144*
Y173331*
X163247*
X168980Y167598*
X175157*
G75*
G02X179398I2120*
G01*
X211764*
G37*
X216807D02*
G36*
X223640D01*
Y173331*
X215334*
X216356Y172309*
G75*
G02X216807Y171221I-1085J-1088*
G01*
Y171220*
Y167598*
G37*
X215334Y173331D02*
G36*
X223640D01*
Y179154*
X195865Y206929*
X169673*
G75*
G02X165433I-2120*
G01*
X164719*
G75*
G02X162514I-1102J1811*
G01*
X149752*
G75*
G02X145512I-2120*
G01*
X136441*
Y197428*
G75*
G02X138226Y197265I719J-1994*
G01*
G75*
G02X142272Y196378I1926J-887*
G01*
G75*
G02X140115Y194258I-2120*
G01*
X141159Y193215*
G75*
G02X141610Y192126I-1085J-1088*
G01*
Y192126*
Y173331*
X143404*
X145033Y174961*
X149049*
G75*
G02X147717Y176929I788J1969*
G01*
G75*
G02X151848Y177600I2120*
G01*
X154704*
G75*
G02X153622Y179449I1039J1849*
G01*
G75*
G02X157862I2120*
G01*
G75*
G02X156780Y177600I-2121J1*
G01*
X158341*
G75*
G02X159429Y177149I0J-1537*
G01*
X163247Y173331*
X183144*
Y184173*
X197033*
X196523Y184683*
X181963*
G75*
G02X180874Y185135I0J1537*
G01*
X176546Y189463*
G75*
G02X176094Y190551I1085J1088*
G01*
Y190551*
Y193501*
G75*
G02X175512Y194961I1537J1460*
G01*
G75*
G02X177169Y197030I2120*
G01*
X176680Y197518*
X173279*
G75*
G02X174713Y195512I-687J-2006*
G01*
G75*
G02X170472I-2120*
G01*
G75*
G02X171906Y197518I2120J0*
G01*
X168989*
G75*
G02X169831Y195827I-1279J-1691*
G01*
G75*
G02X165591I-2120*
G01*
G75*
G02X166432Y197518I2120*
G01*
X163308*
X161004Y195213*
G75*
G02X159915Y194762I-1088J1085*
G01*
X155174*
G75*
G02X151594Y196299I-1460J1537*
G01*
G75*
G02X155174Y197837I2120*
G01*
X159279*
X161583Y200141*
G75*
G02X162671Y200593I1088J-1085*
G01*
X177317*
G75*
G02X178406Y200141I0J-1537*
G01*
X188584Y189963*
X198065*
G75*
G02X199154Y189511I0J-1537*
G01*
X215334Y173331*
G37*
X158899D02*
G36*
X157704Y174526D01*
X156766*
Y173331*
X158899*
G37*
X207875D02*
G36*
X198104Y183102D01*
Y173331*
X207875*
G37*
X154829Y215984D02*
G36*
X152114D01*
G75*
G02X147874I-2120*
G01*
X143428*
X143521Y215892*
G75*
G02X143972Y214846I-1088J-1089*
G01*
G75*
G02X144555Y213387I-1535J-1460*
G01*
G75*
G02Y213386I-2256J0*
G01*
G75*
G02X140315I-2120*
G01*
Y213386*
G75*
G02X140606Y214458I2119*
G01*
X139080Y215984*
X136441*
Y206929*
X145512*
G75*
G02X149752I2120*
G01*
X162514*
G75*
G02X161496Y208740I1102J1811*
G01*
G75*
G02X161737Y209722I2125J-1*
G01*
X161728*
G75*
G02X160521Y210226I-1J1696*
G01*
X154829Y215984*
G37*
X165433Y206929D02*
G36*
G75*
G02X166897Y208945I2120J0D01*
G01*
G75*
G02X165880Y209433I183J1683*
G01*
X165591Y209722*
X165495*
G75*
G02X165736Y208740I-1883J-983*
G01*
G75*
G02X164719Y206929I-2120*
G01*
X165433*
G37*
X195865D02*
G36*
X193859Y208935D01*
X168239*
G75*
G02X169673Y206929I-687J-2006*
G01*
X195865*
G37*
X139080Y215984D02*
G36*
X136441Y218623D01*
Y215984*
X139080*
G37*
X146297Y226087D02*
G36*
X143674D01*
X140780Y223193*
G75*
G02X141170Y221969I-1730J-1224*
G01*
G75*
G02X139513Y219900I-2120*
G01*
X143428Y215984*
X147874*
G75*
G02X152114I2120*
G01*
X154829*
X147873Y223021*
G75*
G02X147549Y223095I314J2122*
G01*
G75*
G02X147783Y222126I-1888J-969*
G01*
G75*
G02X143543I-2120*
G01*
G75*
G02X146297Y224149I2120*
G01*
G75*
G02X146063Y225118I1884J969*
G01*
G75*
G02X146297Y226087I2119*
G01*
G37*
X148426Y104841D02*
X146147Y102561D01*
X156159*
G75*
G02Y104841I1788J1140*
G01*
X148426*
G36*
X146147Y102561*
X156159*
G75*
G02Y104841I1788J1140*
G01*
X148426*
G37*
X150267Y250537D02*
X149691D01*
G75*
G02X149809Y249179I-1942J-852*
G01*
G75*
G02X152272Y247087I343J-2092*
G01*
G75*
G02X152257Y246833I-2121J-2*
G01*
G75*
G02X154161Y244724I-215J-2109*
G01*
G75*
G02X154161Y244688I-2122J5*
G01*
G75*
G02X156530Y244258I872J-1932*
G01*
G75*
G02X156538Y244267I1444J-1504*
G01*
X150267Y250537*
G36*
X149691*
G75*
G02X149809Y249179I-1942J-852*
G01*
G75*
G02X152272Y247087I343J-2092*
G01*
G75*
G02X152257Y246833I-2121J-2*
G01*
G75*
G02X154161Y244724I-215J-2109*
G01*
G75*
G02X154161Y244688I-2122J5*
G01*
G75*
G02X156530Y244258I872J-1932*
G01*
G75*
G02X156538Y244267I1444J-1504*
G01*
X150267Y250537*
G37*
X151723Y226337D02*
X149918D01*
G75*
G02X150284Y225404I-1735J-1219*
G01*
X162434Y213112*
X166293*
G75*
G02X167494Y212614J-1694*
G01*
X167783Y212325*
X194561*
G75*
G02X194677Y212321I1J-1695*
G01*
Y213844*
G75*
G02X197512Y216906I1695J1274*
G01*
Y217552*
X193846Y221219*
X159837*
G75*
G02X158748Y221670J1538*
G01*
X155687Y224731*
G75*
G02X153806Y227714I55J2119*
G01*
X152925Y226833*
G75*
G02X151723Y226337I-1198J1198*
G01*
X161339Y215748D02*
G75*
G02X165579I2120D01*
G01*
G75*
G02X161339I-2120*
G01*
X194348D02*
G36*
X165579D01*
G75*
G02X161339I-2120*
G01*
X159829*
X162434Y213112*
X166293*
G75*
G02X167494Y212614I0J-1694*
G01*
X167537Y212571*
X194677*
Y213844*
G75*
G02X194252Y215118I1695J1274*
G01*
G75*
G02X194348Y215748I2120J0*
G01*
G37*
X197262Y217802D02*
G36*
X193846Y221219D01*
X159837*
G75*
G02X158748Y221670I0J1537*
G01*
X155687Y224731*
G75*
G02X153622Y226850I55J2119*
G01*
G75*
G02X153713Y227464I2120J1*
G01*
X153556*
X152925Y226833*
G75*
G02X151723Y226337I-1198J1197*
G01*
X150168*
Y225862*
G75*
G02X150284Y225404I-1991J-746*
G01*
X159829Y215748*
X161339*
G75*
G02X165579I2120*
G01*
X194348*
G75*
G02X197262Y217043I2024J-630*
G01*
Y217802*
G37*
X152715Y260709D02*
X110947D01*
X114055Y257601*
G75*
G02X115784Y255872I-360J-2089*
G01*
X117270Y254386*
X117789*
G75*
G02X119056Y253860J-1787*
G01*
X122752Y250164*
G75*
G02X123278Y248898I-1262J-1266*
G01*
Y245780*
X128659Y240398*
G75*
G02X129183Y239134I-1264J-1264*
G01*
G75*
G02Y239133I-635J0*
G01*
G75*
G02Y239131I-641J-1*
G01*
Y230189*
X130415Y228958*
G75*
G02X132256Y230766I2099J-296*
G01*
G75*
G02X132657Y232900I1990J730*
G01*
Y246375*
G75*
G02Y246377I455J1*
G01*
G75*
G02Y246378I557J0*
G01*
G75*
G02X133123Y247501I1589*
G01*
X140524Y254903*
G75*
G02X141650Y255368I1123J-1123*
G01*
X151881*
G75*
G02X153007Y254903I3J-1589*
G01*
X154869Y253042*
G75*
G02X155622Y254193I2054J-522*
G01*
Y257802*
X152715Y260709*
X127323Y252205D02*
G75*
G02X131563I2120D01*
G01*
G75*
G02X127323I-2120*
G01*
X135039Y256929D02*
G75*
G02X139280I2120D01*
G01*
G75*
G02X135039I-2120*
G01*
X137826Y252205D02*
G36*
X131563D01*
G75*
G02X127323I-2120*
G01*
X120711*
X122752Y250164*
G75*
G02X123278Y248898I-1262J-1266*
G01*
Y245780*
X128659Y240398*
G75*
G02X129183Y239134I-1265J-1265*
G01*
Y239133*
Y239131*
Y230189*
X130165Y229208*
X130465*
G75*
G02X132256Y230766I2048J-546*
G01*
G75*
G02X132126Y231496I1989J731*
G01*
G75*
G02X132657Y232900I2120*
G01*
Y246375*
Y246377*
Y246378*
Y246378*
G75*
G02X133123Y247501I1587*
G01*
X137826Y252205*
G37*
X155372Y253965D02*
G36*
Y256929D01*
X139280*
G75*
G02X135039I-2120*
G01*
X115272*
G75*
G02X115784Y255872I-1576J-1417*
G01*
X117270Y254386*
X117789*
G75*
G02X119056Y253860J-1788*
G01*
X120711Y252205*
X127323*
G75*
G02X131563I2120*
G01*
X137826*
X140524Y254903*
G75*
G02X141650Y255368I1123J-1123*
G01*
X151881*
G75*
G02X153007Y254903I3J-1589*
G01*
X154869Y253042*
G75*
G02X155372Y253965I2055J-522*
G01*
G37*
Y258052D02*
G36*
X152965Y260459D01*
X111197*
X114055Y257601*
G75*
G02X115272Y256929I-359J-2089*
G01*
X135039*
G75*
G02X139280I2120*
G01*
X155372*
Y258052*
G37*
X154325Y146172D02*
Y146156D01*
X154342*
X154325Y146172*
G36*
Y146156*
X154342*
X154325Y146172*
G37*
X156201Y141533D02*
X155798Y141936D01*
G75*
G02X155862Y141496I-1474J-440*
G01*
Y140558*
X156291Y140129*
G75*
G02X156201Y140630I1341J501*
G01*
Y141533*
G36*
X155798Y141936*
G75*
G02X155862Y141496I-1474J-440*
G01*
Y140558*
X156291Y140129*
G75*
G02X156201Y140630I1341J501*
G01*
Y141533*
G37*
X158955Y99486D02*
G75*
G02X158907Y97730I-1953J-825D01*
G01*
X160267*
X162030Y99493*
G75*
G02X161884Y99486I-147J1530*
G01*
X158955*
G36*
G75*
G02X158907Y97730I-1953J-825*
G01*
X160267*
X162030Y99493*
G75*
G02X161884Y99486I-147J1530*
G01*
X158955*
G37*
X159163Y227833D02*
X157621D01*
G75*
G02X157861Y226905I-1879J-982*
G01*
X160474Y224293*
X172285*
G75*
G02X172134Y224426I937J1220*
G01*
X172048Y224513*
G75*
G02X169734Y227833I-636J2023*
G01*
X163187*
G75*
G02X163295Y227165I-2012J-668*
G01*
G75*
G02X159055I-2120*
G01*
G75*
G02X159163Y227833I2120J0*
G01*
G36*
X157621*
G75*
G02X157861Y226905I-1879J-982*
G01*
X160474Y224293*
X172285*
G75*
G02X172134Y224426I937J1220*
G01*
X172048Y224513*
G75*
G02X169734Y227833I-636J2023*
G01*
X163187*
G75*
G02X163295Y227165I-2012J-668*
G01*
G75*
G02X159055I-2120*
G01*
G75*
G02X159163Y227833I2120J0*
G01*
G37*
X159522Y69593D02*
X137465D01*
X138225Y68833*
X139139*
G75*
G02X142823Y67402I1564J-1431*
G01*
G75*
G02X142822Y67350I-2119J7*
G01*
G75*
G02X144628Y63894I164J-2114*
G01*
X146386Y65653*
G75*
G02X147474Y66104I1089J-1086*
G01*
X157389*
X161504Y70220*
G75*
G02X162593Y70671I1089J-1086*
G01*
X162761*
G75*
G02X162554Y72032I1879J983*
G01*
X160535Y70013*
G75*
G02X159522Y69593I-1014J1010*
G01*
G36*
X137465*
X138225Y68833*
X139139*
G75*
G02X142823Y67402I1564J-1431*
G01*
G75*
G02X142822Y67350I-2119J7*
G01*
G75*
G02X144628Y63894I164J-2114*
G01*
X146386Y65653*
G75*
G02X147474Y66104I1089J-1086*
G01*
X157389*
X161504Y70220*
G75*
G02X162593Y70671I1089J-1086*
G01*
X162761*
G75*
G02X162554Y72032I1879J983*
G01*
X160535Y70013*
G75*
G02X159522Y69593I-1014J1010*
G01*
G37*
X159866Y246600D02*
X158252D01*
X159036Y245817*
G75*
G02X159457Y244803I-1010J-1014*
G01*
Y244320*
G75*
G02X159967Y241904I-1431J-1564*
G01*
X160819*
X162169Y243254*
G75*
G02X160073Y246457I-285J2101*
G01*
G75*
G02X159866Y246600I1103J1810*
G01*
G36*
X158252*
X159036Y245817*
G75*
G02X159457Y244803I-1010J-1014*
G01*
Y244320*
G75*
G02X159967Y241904I-1431J-1564*
G01*
X160819*
X162169Y243254*
G75*
G02X160073Y246457I-285J2101*
G01*
G75*
G02X159866Y246600I1103J1810*
G01*
G37*
X160891Y260709D02*
X160823D01*
Y251556*
G75*
G02X161170Y250394I-1774J-1162*
G01*
G75*
G02Y250388I-2128J-3*
G01*
G75*
G02X162079Y250185I5J-2120*
G01*
Y259521*
X160891Y260709*
G36*
X160823*
Y251556*
G75*
G02X161170Y250394I-1774J-1162*
G01*
G75*
G02Y250388I-2128J-3*
G01*
G75*
G02X162079Y250185I5J-2120*
G01*
Y259521*
X160891Y260709*
G37*
X161104Y144460D02*
X160385D01*
X161167Y143679*
G75*
G02X161309Y143976I1978J-767*
G01*
G75*
G02X161104Y144460I1834J1063*
G01*
G36*
X160385*
X161167Y143679*
G75*
G02X161309Y143976I1978J-767*
G01*
G75*
G02X161104Y144460I1834J1063*
G01*
G37*
X163527Y104841D02*
X163002D01*
G75*
G02X163112Y104426I-1985J-746*
G01*
X163527Y104841*
G36*
X163002*
G75*
G02X163112Y104426I-1985J-746*
G01*
X163527Y104841*
G37*
X165051Y260709D02*
G75*
G02X165154Y260157I-1435J-552D01*
G01*
Y255275*
G75*
G02X165283Y255423I1139J-867*
G01*
X168666Y258806*
G75*
G02X169679Y259226I1014J-1010*
G01*
X195464*
X198270Y262032*
G75*
G02X198268Y262126I2118J91*
G01*
G75*
G02X202508I2120*
G01*
G75*
G02X200294Y260008I-2120*
G01*
X197070Y256785*
G75*
G02X196057Y256364I-1014J1010*
G01*
X170272*
X167724Y253817*
Y245354*
G75*
G02X167304Y244341I-1431J0*
G01*
X162425Y239462*
G75*
G02X161411Y239041I-1014J1010*
G01*
X153264*
X145498Y231275*
G75*
G02X145500Y231181I-2118J-91*
G01*
G75*
G02X144922Y229726I-2120*
G01*
X151024*
X152024Y230726*
G75*
G02X153226Y231222I1198J-1198*
G01*
X176764*
G75*
G02X177987Y230703I2J-1695*
G01*
X179150Y229494*
G75*
G02X180901Y227771I-337J-2093*
G01*
G75*
G02X183320Y224293I1141J-1787*
G01*
X194482*
G75*
G02X195571Y223842J-1538*
G01*
X200135Y219278*
G75*
G02X200587Y218189I-1086J-1089*
G01*
Y212606*
X218190Y195002*
X221254*
G75*
G02X222343Y194550J-1538*
G01*
X223435Y193458*
G75*
G02X225500Y191339I-55J-2119*
G01*
G75*
G02X221261Y191284I-2120*
G01*
X220617Y191927*
X218495*
X228671Y181752*
G75*
G02X229169Y180551I-1196J-1200*
G01*
Y79570*
G75*
G02Y79568I-455J-1*
G01*
G75*
G02Y79567I-557J0*
G01*
G75*
G02X228665Y78361I-1694*
G01*
X226619Y76342*
G75*
G02X226059Y75194I-2097J312*
G01*
Y71220*
G75*
G02X225607Y70132I-1538*
G01*
X220059Y64583*
G75*
G02X218970Y64132I-1089J1086*
G01*
X208820*
X203562Y58874*
X211931*
X215011Y61954*
G75*
G02X219201Y61496I2070J-458*
G01*
G75*
G02X217539Y59426I-2120*
G01*
X213935Y55823*
G75*
G02X212668Y55299I-1264J1264*
G01*
X178661*
G75*
G02X179416Y53150I-2682J-2150*
G01*
G75*
G02X172541I-3437*
G01*
G75*
G02X173296Y55299I3437*
G01*
X164908*
X161939Y52330*
Y45117*
G75*
G02X162272Y43976I-1787J-1140*
G01*
G75*
G02X158031I-2120*
G01*
G75*
G02X158364Y45117I2120*
G01*
Y53071*
G75*
G02X158890Y54337I1787*
G01*
X162307Y57754*
X148190*
X143051Y52615*
G75*
G02X141963Y52163I-1089J1086*
G01*
X125663*
G75*
G02X124575Y52615J1538*
G01*
X122845Y54344*
G75*
G02X122394Y55433I1086J1089*
G01*
Y57323*
G75*
G02X122845Y58411I1538*
G01*
X125047Y60613*
G75*
G02X126136Y61065I1089J-1086*
G01*
X126172*
G75*
G02X126353Y61219I1460J-1539*
G01*
X121025*
X117437Y57631*
Y57583*
G75*
G02X120618Y55748I1061J-1835*
G01*
G75*
G02X117437Y53913I-2120*
G01*
Y41496*
G75*
G02X116985Y40407I-1538*
G01*
X108720Y32143*
G75*
G02X107632Y31691I-1089J1086*
G01*
X106572*
G75*
G02X102992Y33228I-1460J1537*
G01*
G75*
G02X106572Y34766I2120*
G01*
X106995*
X114362Y42133*
Y58268*
G75*
G02X114814Y59356I1538*
G01*
X119299Y63842*
G75*
G02X120388Y64293I1089J-1086*
G01*
X131763*
G75*
G02X132138Y64578I1460J-1538*
G01*
G75*
G02X131137Y64906I140J2116*
G01*
X92829*
G75*
G02X91563Y65431J1787*
G01*
X87835Y69159*
G75*
G02X87862Y68819I-2092J-341*
G01*
G75*
G02X83622I-2120*
G01*
G75*
G02X86082Y70911I2120*
G01*
X82482Y74512*
X68422*
G75*
G02X67156Y75035I-3J1787*
G01*
X63118Y79072*
Y66358*
G75*
G02X66760Y64882I1522J-1476*
G01*
G75*
G02X66107Y63352I-2120*
G01*
G75*
G02X68571Y61260I343J-2092*
G01*
G75*
G02X64331I-2120*
G01*
G75*
G02X64983Y62790I2120*
G01*
G75*
G02X63118Y63406I-343J2092*
G01*
Y62362*
G75*
G02X62524Y60931I-2022*
G01*
X58670Y57076*
G75*
G02X57238Y56482I-1431J1428*
G01*
X49493*
X47882Y54872*
G75*
G02X46451Y54278I-1431J1428*
G01*
X45398*
X42252Y51131*
Y40093*
X46425*
Y30205*
X56811*
Y42140*
X74634*
Y30205*
X79246*
G75*
G02X79388Y30197J-1287*
G01*
X80624*
Y15433*
X149711*
Y28819*
G75*
G02X149719Y28961I1287*
G01*
Y30197*
X182480*
Y39574*
G75*
G02Y40150I2100J288*
G01*
Y41982*
X194398*
Y30197*
X194569*
G75*
G02X194567Y30276I2119J82*
G01*
G75*
G02X194587Y30564I2120*
G01*
Y32153*
G75*
G02Y32729I2100J288*
G01*
Y34318*
G75*
G02Y34894I2100J288*
G01*
Y36503*
G75*
G02Y37080I2100J288*
G01*
Y39475*
G75*
G02Y40289I2081J407*
G01*
Y41982*
X196379*
G75*
G02X196956I288J-2100*
G01*
X201780*
Y30197*
X201929*
Y41982*
X219752*
Y30197*
X231797*
Y260209*
X220191*
G75*
G02X218904Y261496J1287*
G01*
Y283465*
X167344*
Y274488*
G75*
G02X167238Y273976I-1287*
G01*
Y260709*
X165051*
X202638Y273012D02*
G75*
G02X211012I4187D01*
G01*
G75*
G02X202638I-4187*
G01*
X210866Y221339D02*
G75*
G02X215106I2120D01*
G01*
G75*
G02X210866I-2120*
G01*
X211260Y243937D02*
G75*
G02X215500I2120D01*
G01*
G75*
G02X211260I-2120*
G01*
X178110Y237795D02*
G75*
G02X182350I2120D01*
G01*
G75*
G02X178110I-2120*
G01*
X204694Y260880D02*
G75*
G02X208807Y260157I1993J-722D01*
G01*
G75*
G02X206642Y258038I-2120*
G01*
X198146Y249609*
Y230959*
G75*
G02X198571Y229685I-1695J-1274*
G01*
G75*
G02X194331I-2120*
G01*
G75*
G02X194756Y230959I2120*
G01*
Y250315*
G75*
G02X195258Y251519I1695*
G01*
X204694Y260880*
X205984Y227087D02*
G75*
G02X210224I2120D01*
G01*
G75*
G02X209642Y225627I-2120*
G01*
Y221811*
G75*
G02X209190Y220722I-1538*
G01*
X206980Y218513*
G75*
G02X205767Y214463I-765J-1977*
G01*
G75*
G02X205815Y214016I-2072J-447*
G01*
G75*
G02X201575I-2120*
G01*
G75*
G02X202157Y215476I2120*
G01*
Y217402*
G75*
G02X202169Y217593I1536J1*
G01*
G75*
G02X201635Y221615I344J2092*
G01*
G75*
G02X200551Y223465I1036J1850*
G01*
G75*
G02X204791I2120*
G01*
G75*
G02X203550Y221535I-2120*
G01*
G75*
G02X204512Y220393I-1036J-1850*
G01*
X206567Y222448*
Y225627*
G75*
G02X205984Y227087I1537J1460*
G01*
X218071Y50472D02*
G75*
G02X222311I2120D01*
G01*
G75*
G02X218071I-2120*
G01*
X141136Y40338D02*
G75*
G02X144010Y37402I1063J-1834D01*
G01*
G75*
G02Y35197I-1811J-1102*
G01*
G75*
G02X142193Y31974I-1811J-1102*
G01*
G75*
G02Y31969I-2128J-3*
G01*
G75*
G02X138970Y30157I-2120*
G01*
G75*
G02X136766I-1102J1811*
G01*
G75*
G02X133829Y33031I-1102J1811*
G01*
G75*
G02X133852Y35197I1834J1063*
G01*
G75*
G02X135652Y38419I1811J1102*
G01*
G75*
G02X138201Y39499I1901J-939*
G01*
G75*
G02X141136Y40338I1872J-995*
G01*
X144070Y32289D02*
G75*
G02X148256Y31811I2065J-478D01*
G01*
G75*
G02X146666Y29758I-2120*
G01*
G75*
G02X142480Y30236I-2065J478*
G01*
G75*
G02X144070Y32289I2120*
G01*
X139606Y45591D02*
G75*
G02X143846I2120D01*
G01*
G75*
G02X139606I-2120*
G01*
X124055Y19272D02*
G75*
G02X129673I2809D01*
G01*
G75*
G02X124055I-2809*
G01*
X92953D02*
G75*
G02X98571I2809D01*
G01*
G75*
G02X92953I-2809*
G01*
X102047Y55197D02*
G75*
G02X106287I2120D01*
G01*
G75*
G02X102047I-2120*
G01*
X76299Y58268D02*
G75*
G02X80539I2120D01*
G01*
G75*
G02X76299I-2120*
G01*
X149711Y19272D02*
G36*
X129673D01*
G75*
G02X124055I-2809*
G01*
X98571*
G75*
G02X92953I-2809*
G01*
X80624*
Y15683*
X149711*
Y19272*
G37*
G36*
Y28819*
Y28819*
G75*
G02X149719Y28961I1281*
G01*
Y30197*
X182480*
Y31024*
X148104*
G75*
G02X146666Y29758I-1969J787*
G01*
G75*
G02X142480Y30236I-2065J478*
G01*
G75*
G02X142632Y31024I2120*
G01*
X141971*
G75*
G02X138970Y30157I-1898J945*
G01*
G75*
G02X136766I-1102J1811*
G01*
G75*
G02X133766Y31024I-1102J1811*
G01*
X74634*
Y30205*
X79246*
G75*
G02X79388Y30197I0J-1283*
G01*
X80624*
Y19272*
X92953*
G75*
G02X98571I2809*
G01*
X124055*
G75*
G02X129673I2809*
G01*
X149711*
G37*
X56811Y31024D02*
G36*
X46425D01*
Y30205*
X56811*
Y31024*
G37*
X194587D02*
G36*
X194398D01*
Y30197*
X194569*
G75*
G02X194567Y30276I1969J79*
G01*
G75*
G02X194587Y30564I2203J-6*
G01*
Y31024*
G37*
X201929D02*
G36*
X201780D01*
Y30197*
X201929*
Y31024*
G37*
X231547Y30197D02*
G36*
Y31024D01*
X219752*
Y30197*
X231547*
G37*
X56811Y35236D02*
G36*
X46425D01*
Y31024*
X56811*
Y35236*
G37*
X133829D02*
G36*
X111814D01*
X108720Y32143*
G75*
G02X107632Y31691I-1088J1085*
G01*
X106572*
G75*
G02X102992Y33228I-1460J1537*
G01*
G75*
G02X104431Y35236I2120*
G01*
X74634*
Y31024*
X133766*
G75*
G02X133543Y31969I1898J945*
G01*
G75*
G02X133829Y33031I2120*
G01*
G75*
G02X133543Y34094I1833J1063*
G01*
G75*
G02X133852Y35197I2120J0*
G01*
G75*
G02X133829Y35236I1812J1096*
G01*
G37*
X107466D02*
G36*
X105793D01*
G75*
G02X106572Y34766I-681J-2007*
G01*
X106995*
X107466Y35236*
G37*
X182480D02*
G36*
X144033D01*
G75*
G02X144010Y35197I-1835J1056*
G01*
G75*
G02X144319Y34094I-1811J-1102*
G01*
G75*
G02X142193Y31974I-2120*
G01*
Y31969*
Y31968*
G75*
G02X141971Y31024I-2120*
G01*
X142632*
G75*
G02X144070Y32289I1969J-787*
G01*
G75*
G02X148256Y31811I2065J-478*
G01*
G75*
G02X148104Y31024I-2120*
G01*
X182480*
Y35236*
G37*
X194587D02*
G36*
X194398D01*
Y31024*
X194587*
Y32153*
G75*
G02X194567Y32441I2100J288*
G01*
G75*
G02X194587Y32729I2119*
G01*
Y34318*
G75*
G02X194567Y34606I2100J288*
G01*
G75*
G02X194587Y34894I2119*
G01*
Y35236*
G37*
X201929D02*
G36*
X201780D01*
Y31024*
X201929*
Y35236*
G37*
X219752D02*
G36*
Y31024D01*
X231547*
Y35236*
X219752*
G37*
X114362Y45591D02*
G36*
X42502D01*
Y40093*
X46425*
Y35236*
X56811*
Y42140*
X74634*
Y35236*
X104431*
G75*
G02X105793I681J-2008*
G01*
X107466*
X114362Y42133*
Y45591*
G37*
X219752Y35236D02*
G36*
X231547D01*
Y45591*
X161939*
Y45117*
G75*
G02X162272Y43976I-1793J-1142*
G01*
G75*
G02X158031I-2120*
G01*
G75*
G02X158364Y45117I2125J-2*
G01*
Y45591*
X143846*
G75*
G02X139606I-2120*
G01*
X117437*
Y41496*
Y41496*
G75*
G02X116985Y40407I-1537*
G01*
X111814Y35236*
X133829*
G75*
G02X133543Y36299I1835J1063*
G01*
G75*
G02X135652Y38419I2120*
G01*
G75*
G02X138201Y39499I1900J-938*
G01*
G75*
G02X141136Y40338I1872J-995*
G01*
G75*
G02X144319Y38504I1063J-1834*
G01*
G75*
G02X144010Y37402I-2120*
G01*
G75*
G02X144319Y36299I-1811J-1102*
G01*
G75*
G02X144033Y35236I-2120J0*
G01*
X182480*
Y39574*
G75*
G02X182461Y39862I2100J288*
G01*
G75*
G02X182480Y40150I2119*
G01*
Y41982*
X194398*
Y35236*
X194587*
Y36503*
G75*
G02X194567Y36791I2100J288*
G01*
G75*
G02X194587Y37080I2119*
G01*
Y39475*
G75*
G02X194547Y39882I2081J407*
G01*
G75*
G02X194587Y40289I2120*
G01*
Y41982*
X196379*
G75*
G02X196956I288J-2100*
G01*
X201780*
Y35236*
X201929*
Y41982*
X219752*
Y35236*
G37*
X114362Y50472D02*
G36*
X42502D01*
Y45591*
X114362*
Y50472*
G37*
X158364D02*
G36*
X117437D01*
Y45591*
X139606*
G75*
G02X143846I2120*
G01*
X158364*
Y50472*
G37*
X178134D02*
G36*
G75*
G02X173822I-2156J2677D01*
G01*
X161939*
Y45591*
X231547*
Y50472*
X222311*
G75*
G02X218071I-2120*
G01*
X178134*
G37*
X114362Y55197D02*
G36*
X106287D01*
G75*
G02X102047I-2120*
G01*
X48207*
X47882Y54872*
G75*
G02X46451Y54278I-1431J1427*
G01*
X45398*
X42502Y51381*
Y50472*
X114362*
Y55197*
G37*
X159750D02*
G36*
X145633D01*
X143051Y52615*
G75*
G02X141963Y52163I-1088J1085*
G01*
X125663*
G75*
G02X124575Y52615I0J1537*
G01*
X122845Y54344*
G75*
G02X122412Y55197I1085J1088*
G01*
X120545*
G75*
G02X117437Y53913I-2047J552*
G01*
Y50472*
X158364*
Y53071*
G75*
G02X158890Y54337I1788*
G01*
X159750Y55197*
G37*
X173217D02*
G36*
X164806D01*
X161939Y52330*
Y50472*
X173822*
G75*
G02X172541Y53150I2156J2677*
G01*
G75*
G02Y53151I3222J1*
G01*
G75*
G02X173217Y55197I3433J0*
G01*
G37*
X178740D02*
G36*
G75*
G02X179416Y53151I-2757J-2046D01*
G01*
G75*
G02Y53150I-3222J0*
G01*
G75*
G02X178134Y50472I-3437*
G01*
X218071*
G75*
G02X222311I2120*
G01*
X231547*
Y55197*
X178740*
G37*
X114362D02*
G36*
Y58268D01*
X80539*
G75*
G02X76299I-2120*
G01*
X59861*
X58670Y57076*
G75*
G02X57238Y56482I-1431J1427*
G01*
X49493*
X48207Y55197*
X102047*
G75*
G02X106287I2120*
G01*
X114362*
G37*
X122718Y58268D02*
G36*
X118074D01*
X117437Y57631*
Y57583*
G75*
G02X120618Y55748I1061J-1836*
G01*
G75*
G02X120545Y55197I-2120J0*
G01*
X122412*
G75*
G02X122394Y55433I1519J235*
G01*
Y55433*
Y57323*
Y57323*
G75*
G02X122718Y58268I1537*
G01*
G37*
X159750Y55197D02*
G36*
X162307Y57754D01*
X148190*
X145633Y55197*
X159750*
G37*
X173217D02*
G36*
G75*
G02X173296Y55299I2758J-2050D01*
G01*
X164908*
X164806Y55197*
X173217*
G37*
X216380Y58268D02*
G36*
X213935Y55823D01*
G75*
G02X212668Y55299I-1263J1262*
G01*
X178661*
G75*
G02X178740Y55197I-2679J-2153*
G01*
X231547*
Y58268*
X216380*
G37*
X122718D02*
G36*
G75*
G02X122845Y58411I1213J-945D01*
G01*
X125047Y60613*
G75*
G02X126136Y61065I1088J-1085*
G01*
X126172*
G75*
G02X126353Y61219I1572J-1670*
G01*
X121025*
X118074Y58268*
X122718*
G37*
X114362D02*
G36*
Y58268D01*
G75*
G02X114814Y59356I1537*
G01*
X119299Y63842*
G75*
G02X120388Y64293I1088J-1085*
G01*
X131763*
G75*
G02X132138Y64578I1467J-1546*
G01*
G75*
G02X131137Y64906I139J2113*
G01*
X92829*
G75*
G02X91563Y65431J1788*
G01*
X87835Y69159*
G75*
G02X87862Y68819I-2148J-345*
G01*
G75*
G02X83622I-2120*
G01*
G75*
G02X86082Y70911I2120*
G01*
X82482Y74512*
X68422*
G75*
G02X67156Y75035I-4J1786*
G01*
X63118Y79072*
Y66358*
G75*
G02X66760Y64882I1522J-1476*
G01*
G75*
G02Y64881I-2256J0*
G01*
G75*
G02X66107Y63352I-2119*
G01*
G75*
G02X68571Y61260I344J-2092*
G01*
Y61260*
G75*
G02X64331I-2120*
G01*
G75*
G02Y61261I2256J0*
G01*
G75*
G02X64983Y62790I2119*
G01*
G75*
G02X63118Y63406I-344J2091*
G01*
Y62362*
G75*
G02X62524Y60931I-2022*
G01*
X59861Y58268*
X76299*
G75*
G02X80539I2120*
G01*
X114362*
G37*
X205458Y221339D02*
G36*
X203841D01*
G75*
G02X204512Y220393I-1328J-1655*
G01*
X205458Y221339*
G37*
X216380Y58268D02*
G36*
X231547D01*
Y221339*
X215106*
G75*
G02X210866I-2120*
G01*
X209567*
G75*
G02X209190Y220722I-1463J472*
G01*
X206980Y218513*
G75*
G02X208335Y216535I-765J-1977*
G01*
G75*
G02X205767Y214463I-2120*
G01*
G75*
G02X205815Y214018I-2054J-445*
G01*
G75*
G02Y214016I-2183J-1*
G01*
G75*
G02X201575I-2120*
G01*
G75*
G02X202157Y215476I2122J-1*
G01*
Y217402*
G75*
G02Y217407I1511J3*
G01*
G75*
G02X202169Y217593I1461*
G01*
G75*
G02X200394Y219685I345J2092*
G01*
G75*
G02X201187Y221339I2120*
G01*
X198074*
X200135Y219278*
G75*
G02X200587Y218189I-1085J-1088*
G01*
Y218189*
Y212606*
X218190Y195002*
X221254*
G75*
G02X222343Y194550I0J-1537*
G01*
X223435Y193458*
G75*
G02X225500Y191339I-55J-2120*
G01*
G75*
G02X221261Y191284I-2120*
G01*
X220617Y191927*
X218495*
X228671Y181752*
G75*
G02X229169Y180552I-1195J-1200*
G01*
Y180551*
Y79570*
Y79568*
Y79567*
G75*
G02X228665Y78361I-1695*
G01*
X226619Y76342*
G75*
G02X226059Y75194I-2098J312*
G01*
Y71220*
Y71220*
G75*
G02X225607Y70132I-1537*
G01*
X220059Y64583*
G75*
G02X218970Y64132I-1088J1085*
G01*
X208820*
X203562Y58874*
X211931*
X215011Y61954*
G75*
G02X219201Y61496I2070J-458*
G01*
Y61496*
G75*
G02X217539Y59426I-2120*
G01*
X216380Y58268*
G37*
X209567Y221339D02*
G36*
X210866D01*
G75*
G02X215106I2120*
G01*
X231547*
Y237795*
X198146*
Y230959*
G75*
G02X198571Y229685I-1695J-1274*
G01*
G75*
G02X194331I-2120*
G01*
G75*
G02X194756Y230959I2120*
G01*
Y237795*
X182350*
G75*
G02X178110I-2120*
G01*
X152018*
X145498Y231275*
G75*
G02X145500Y231189I-1857J-85*
G01*
G75*
G02Y231181I-1902J-4*
G01*
G75*
G02Y231180I-1961J0*
G01*
G75*
G02X144922Y229726I-2118*
G01*
X151024*
X152024Y230726*
G75*
G02X153226Y231222I1198J-1197*
G01*
X176764*
G75*
G02X177987Y230703I1J-1696*
G01*
X179150Y229494*
G75*
G02X180901Y227771I-338J-2094*
G01*
G75*
G02X184161Y225984I1141J-1787*
G01*
G75*
G02X183320Y224293I-2120*
G01*
X194482*
G75*
G02X195571Y223842I0J-1537*
G01*
X198074Y221339*
X201187*
G75*
G02X201635Y221615I1327J-1654*
G01*
G75*
G02X200551Y223465I1036J1850*
G01*
G75*
G02X204791I2120*
G01*
G75*
G02X203550Y221535I-2121J0*
G01*
G75*
G02X203841Y221339I-1037J-1850*
G01*
X205458*
X206567Y222448*
Y225627*
G75*
G02X205984Y227087I1539J1461*
G01*
G75*
G02X210224I2120*
G01*
G75*
G02X209642Y225627I-2122J1*
G01*
Y221811*
Y221811*
G75*
G02X209567Y221339I-1537J0*
G01*
G37*
X194756Y243937D02*
G36*
X166900D01*
X162425Y239462*
G75*
G02X161411Y239041I-1013J1009*
G01*
X153264*
X152018Y237795*
X178110*
G75*
G02X182350I2120*
G01*
X194756*
Y243937*
G37*
X198146D02*
G36*
Y237795D01*
X231547*
Y243937*
X215500*
G75*
G02X211260I-2120*
G01*
X198146*
G37*
X231547Y260209D02*
G36*
X220191D01*
G75*
G02X218904Y261496J1287*
G01*
Y273012*
X211012*
G75*
G02X202638I-4187*
G01*
X167238*
Y260709*
X165051*
G75*
G02X165154Y260157I-1443J-553*
G01*
Y255275*
G75*
G02X165283Y255423I1109J-840*
G01*
X168666Y258806*
G75*
G02X169679Y259226I1013J-1009*
G01*
X195464*
X198270Y262032*
G75*
G02X198268Y262118I1857J85*
G01*
G75*
G02Y262126I1902J4*
G01*
G75*
G02X202508I2120*
G01*
G75*
G02X200294Y260008I-2120*
G01*
X197070Y256785*
G75*
G02X196057Y256364I-1013J1009*
G01*
X170272*
X167724Y253817*
Y245354*
G75*
G02X167304Y244341I-1430*
G01*
X166900Y243937*
X194756*
Y250315*
G75*
G02X195258Y251519I1696J0*
G01*
X204694Y260880*
G75*
G02X208807Y260157I1993J-722*
G01*
G75*
G02X206642Y258038I-2120*
G01*
X198146Y249609*
Y243937*
X211260*
G75*
G02X215500I2120*
G01*
X231547*
Y260209*
G37*
X218904Y283215D02*
G36*
X167344D01*
Y274488*
Y274488*
G75*
G02X167238Y273976I-1285*
G01*
Y273012*
X202638*
G75*
G02X211012I4187*
G01*
X218904*
Y283215*
G37*
X165215Y109994D02*
G75*
G02X164196Y110079I-339J2093D01*
G01*
G75*
G02X164517Y109296I-1761J-1181*
G01*
X165215Y109994*
G36*
G75*
G02X164196Y110079I-339J2093*
G01*
G75*
G02X164517Y109296I-1761J-1181*
G01*
X165215Y109994*
G37*
X168222Y135725D02*
G75*
G02X167422Y135455I-1063J1834D01*
G01*
X171970Y130907*
X176451*
Y143622*
X177512Y144683*
X176766*
G75*
G02X175667Y145088J1695*
G01*
G75*
G02X174561Y144460I-1106J660*
G01*
X174382*
G75*
G02X174267Y142554I-1947J-839*
G01*
G75*
G02X175057Y139646I-1044J-1845*
G01*
G75*
G02X173226Y136463I-1834J-1063*
G01*
G75*
G02X170348Y135725I-1815J1096*
G01*
G75*
G02X168222I-1063J1834*
G01*
G36*
G75*
G02X167422Y135455I-1063J1834*
G01*
X171970Y130907*
X176451*
Y143622*
X177512Y144683*
X176766*
G75*
G02X175667Y145088J1695*
G01*
G75*
G02X174561Y144460I-1106J660*
G01*
X174382*
G75*
G02X174267Y142554I-1947J-839*
G01*
G75*
G02X175057Y139646I-1044J-1845*
G01*
G75*
G02X173226Y136463I-1834J-1063*
G01*
G75*
G02X170348Y135725I-1815J1096*
G01*
G75*
G02X168222I-1063J1834*
G01*
G37*
X170064Y66811D02*
G75*
G02X169758Y65827I-2117J118D01*
G01*
G75*
G02X170066Y64779I-1811J-1102*
G01*
X172048Y62797*
X174190*
G75*
G02X173787Y63087I686J1376*
G01*
X170064Y66811*
G36*
G75*
G02X169758Y65827I-2117J118*
G01*
G75*
G02X170066Y64779I-1811J-1102*
G01*
X172048Y62797*
X174190*
G75*
G02X173787Y63087I686J1376*
G01*
X170064Y66811*
G37*
X172199Y70431D02*
G75*
G02X171449Y69775I-1732J1222D01*
G01*
X173229Y67995*
G75*
G02X173228Y68031I2115J41*
G01*
G75*
G02X177469I2120*
G01*
G75*
G02X175312Y65912I-2120*
G01*
X175513Y65711*
X178413*
X180953Y68251*
G75*
G02X182041Y68703I1089J-1086*
G01*
X192546*
G75*
G02X193620Y69136I1070J-1104*
G01*
X195676*
G75*
G02X195410Y69353I933J1416*
G01*
X194331Y70431*
X172199*
G36*
G75*
G02X171449Y69775I-1732J1222*
G01*
X173229Y67995*
G75*
G02X173228Y68031I2115J41*
G01*
G75*
G02X177469I2120*
G01*
G75*
G02X175312Y65912I-2120*
G01*
X175513Y65711*
X178413*
X180953Y68251*
G75*
G02X182041Y68703I1089J-1086*
G01*
X192546*
G75*
G02X193620Y69136I1070J-1104*
G01*
X195676*
G75*
G02X195410Y69353I933J1416*
G01*
X194331Y70431*
X172199*
G37*
X174204Y123659D02*
X169467D01*
G75*
G02X169752Y122598I-1835J-1061*
G01*
G75*
G02X165512I-2120*
G01*
G75*
G02X167370Y124702I2120*
G01*
X153239Y138833*
G75*
G02X152787Y139921I1086J1089*
G01*
Y140406*
G75*
G02X151287Y142104I592J2035*
G01*
G75*
G02X150306Y141719I-977J1045*
G01*
X137744*
Y138510*
X137260*
Y137940*
X139387Y135813*
G75*
G02X139839Y134724I-1086J-1089*
G01*
Y128386*
G75*
G02X139387Y127297I-1538*
G01*
X136280Y124190*
G75*
G02X135191Y123738I-1089J1086*
G01*
X134183*
G75*
G02X131096Y121181I-1985J-746*
G01*
G75*
G02X128892I-1102J1811*
G01*
G75*
G02X126003Y124134I-1102J1811*
G01*
G75*
G02X125978Y126378I1786J1142*
G01*
G75*
G02X123593Y129488I-551J2047*
G01*
G75*
G02Y131614I1834J1063*
G01*
G75*
G02Y133740I1834J1063*
G01*
G75*
G02X126490Y136637I1834J1063*
G01*
G75*
G02X129673Y134803I1063J-1834*
G01*
G75*
G02Y134797I-2128J-3*
G01*
G75*
G02X131472Y131546I6J-2120*
G01*
G75*
G02X131694Y130216I-1873J-995*
G01*
G75*
G02X133681Y130367I1135J-1791*
G01*
Y132514*
X136764*
Y134088*
X134637Y136215*
G75*
G02X134185Y137303I1086J1089*
G01*
Y138510*
X133701*
Y141719*
X129575*
Y138549*
X125531*
Y141719*
X111884*
G75*
G02X110870Y142139I0J1431*
G01*
X105724Y147286*
G75*
G02X105287Y147555I885J1926*
G01*
G75*
G02X104996Y147201I-1907J1266*
G01*
X102513Y144717*
G75*
G02X104189Y141407I-78J-2119*
G01*
Y126943*
G75*
G02X104031Y124209I-1695J-1274*
G01*
Y120794*
X104781Y120045*
G75*
G02X105232Y118957I-1086J-1089*
G01*
Y110243*
X110316Y105159*
X117409*
G75*
G02X116457Y106929I1167J1770*
G01*
G75*
G02X120697I2120*
G01*
G75*
G02X119744Y105159I-2120*
G01*
X122593*
G75*
G02X123680Y104709J-1537*
G01*
X129765Y98624*
X133652*
G75*
G02X135057Y99206I1460J-1538*
G01*
X145835Y109983*
G75*
G02X146923Y110435I1089J-1086*
G01*
X160975*
G75*
G02X163115Y110906I1460J-1537*
G01*
G75*
G02X162756Y112087I1761J1181*
G01*
G75*
G02X166996I2120*
G01*
G75*
G02X166969Y111747I-2120J-1*
G01*
X168378Y113157*
Y113386*
G75*
G02X168830Y114474I1538*
G01*
X171189Y116834*
G75*
G02X172278Y117285I1089J-1086*
G01*
X176426*
G75*
G02X176831Y119911I1835J1061*
G01*
Y123427*
G75*
G02X174204Y123659I-1167J1770*
G01*
X153071Y116693D02*
G75*
G02X157311I2120D01*
G01*
G75*
G02X153071I-2120*
G01*
X146142Y138425D02*
G75*
G02X150382I2120D01*
G01*
G75*
G02X149799Y136965I-2120*
G01*
Y130000*
G75*
G02X149348Y128911I-1538*
G01*
X138461Y118025*
Y105433*
G75*
G02X138009Y104344I-1538*
G01*
X135027Y101363*
G75*
G02X130787Y101417I-2119J55*
G01*
G75*
G02X132853Y103537I2120*
G01*
X135386Y106070*
Y118661*
G75*
G02X135837Y119750I1538*
G01*
X146724Y130637*
Y136965*
G75*
G02X146142Y138425I1537J1460*
G01*
X131168Y111016D02*
G75*
G02X133065Y107795I86J-2119D01*
G01*
G75*
G02X130191Y104859I-1811J-1102*
G01*
G75*
G02X127008Y106693I-1063J1834*
G01*
G75*
G02X127009Y106779I2116J4*
G01*
G75*
G02X125821Y107087I-86J2118*
G01*
G75*
G02X122907Y110000I-1102J1811*
G01*
G75*
G02X122896Y112185I1811J1102*
G01*
G75*
G02Y114350I1823J1083*
G01*
G75*
G02X124883Y117547I1823J1083*
G01*
G75*
G02X124882Y117598I2118J58*
G01*
G75*
G02X129122I2120*
G01*
G75*
G02X126838Y115485I-2120*
G01*
G75*
G02X126839Y115433I-2118J-58*
G01*
G75*
G02X126814Y115109I-2120J0*
G01*
G75*
G02X129031Y113222I109J-2117*
G01*
G75*
G02X131169Y111102I19J-2120*
G01*
G75*
G02X131168Y111016I-2116J-4*
G01*
X171048Y116693D02*
G36*
X157311D01*
G75*
G02X153071I-2120*
G01*
X138461*
Y105433*
Y105433*
G75*
G02X138009Y104344I-1537*
G01*
X135027Y101363*
G75*
G02X130787Y101417I-2119J55*
G01*
G75*
G02X132853Y103537I2120*
G01*
X135386Y106070*
Y116693*
X128919*
G75*
G02X126838Y115485I-1917J906*
G01*
G75*
G02X126839Y115433I-113654J-1761*
G01*
G75*
G02X126814Y115109I-2157J2*
G01*
G75*
G02X129031Y113222I109J-2117*
G01*
G75*
G02X131169Y111102I18J-2120*
G01*
G75*
G02X131168Y111016I-2383J0*
G01*
G75*
G02X133374Y108898I86J-2119*
G01*
G75*
G02X133065Y107795I-2120*
G01*
G75*
G02X133374Y106693I-1811J-1102*
G01*
G75*
G02X130191Y104859I-2120*
G01*
G75*
G02X127008Y106693I-1063J1834*
G01*
Y106693*
G75*
G02X127009Y106779I2383J0*
G01*
G75*
G02X125821Y107087I-86J2117*
G01*
G75*
G02X122598Y108898I-1102J1811*
G01*
G75*
G02X122907Y110000I2120*
G01*
G75*
G02X122598Y111102I1811J1102*
G01*
G75*
G02X122896Y112185I2120*
G01*
G75*
G02X122598Y113268I1823J1083*
G01*
G75*
G02X122896Y114350I2120*
G01*
G75*
G02X122598Y115433I1822J1082*
G01*
G75*
G02X123013Y116693I2120J0*
G01*
X105232*
Y110243*
X110316Y105159*
X117409*
G75*
G02X116457Y106929I1168J1770*
G01*
G75*
G02X120697I2120*
G01*
Y106929*
G75*
G02X119744Y105159I-2119*
G01*
X122593*
G75*
G02X123680Y104709I0J-1536*
G01*
X129515Y98874*
X133972*
G75*
G02X135057Y99206I1140J-1787*
G01*
X145835Y109983*
G75*
G02X146923Y110435I1088J-1085*
G01*
X160975*
G75*
G02X163115Y110906I1460J-1538*
G01*
G75*
G02X162756Y112086I1758J1180*
G01*
G75*
G02Y112087I2051J0*
G01*
G75*
G02X166996I2120*
G01*
G75*
G02Y112084I-2082J-1*
G01*
G75*
G02X166969Y111747I-2104*
G01*
X168378Y113157*
Y113386*
Y113386*
G75*
G02X168830Y114474I1537*
G01*
X171048Y116693*
G37*
X176581Y123285D02*
G36*
G75*
G02X174204Y123659I-917J1911D01*
G01*
X169467*
G75*
G02X169752Y122598I-1837J-1061*
G01*
G75*
G02X165512I-2120*
G01*
G75*
G02X167370Y124702I2120*
G01*
X153239Y138833*
G75*
G02X152787Y139921I1085J1088*
G01*
Y139921*
Y140406*
G75*
G02X151287Y142104I592J2035*
G01*
G75*
G02X150306Y141719I-977J1044*
G01*
X137744*
Y138510*
X137260*
Y137940*
X139387Y135813*
G75*
G02X139839Y134725I-1085J-1088*
G01*
Y134724*
Y128386*
Y128385*
G75*
G02X139387Y127297I-1537*
G01*
X136280Y124190*
G75*
G02X135191Y123738I-1088J1085*
G01*
X134183*
G75*
G02X134319Y122993I-1984J-746*
G01*
G75*
G02X131096Y121181I-2120*
G01*
G75*
G02X128892I-1102J1811*
G01*
G75*
G02X125669Y122992I-1102J1811*
G01*
G75*
G02X126003Y124134I2120*
G01*
G75*
G02X125669Y125276I1785J1142*
G01*
G75*
G02X125978Y126378I2119J0*
G01*
G75*
G02X123307Y128425I-551J2047*
G01*
G75*
G02X123593Y129488I2120*
G01*
G75*
G02X123307Y130551I1834J1063*
G01*
G75*
G02X123593Y131614I2120*
G01*
G75*
G02X123307Y132677I1834J1063*
G01*
G75*
G02X123593Y133740I2120*
G01*
G75*
G02X123307Y134803I1834J1063*
G01*
G75*
G02X126490Y136637I2120*
G01*
G75*
G02X129673Y134804I1063J-1834*
G01*
Y134803*
Y134797*
G75*
G02X131799Y132678I6J-2120*
G01*
G75*
G02X131472Y131546I-2120J0*
G01*
G75*
G02X131720Y130552I-1872J-995*
G01*
G75*
G02X131694Y130216I-2121*
G01*
G75*
G02X133681Y130367I1135J-1789*
G01*
Y132514*
X136764*
Y134088*
X134637Y136215*
G75*
G02X134185Y137303I1085J1088*
G01*
Y137303*
Y138510*
X133701*
Y141719*
X129575*
Y138549*
X125531*
Y141719*
X111884*
G75*
G02X110870Y142139J1430*
G01*
X105724Y147286*
G75*
G02X105683Y147305I876J1912*
G01*
X105094*
G75*
G02X104996Y147201I-1737J1534*
G01*
X102763Y144967*
Y144693*
G75*
G02X104555Y142598I-328J-2094*
G01*
G75*
G02X104189Y141407I-2120*
G01*
Y126943*
G75*
G02X104614Y125669I-1695J-1274*
G01*
G75*
G02X104031Y124209I-2120*
G01*
Y120794*
X104781Y120045*
G75*
G02X105232Y118957I-1085J-1088*
G01*
Y118957*
Y116693*
X123013*
G75*
G02X124883Y117547I1705J-1260*
G01*
G75*
G02X124882Y117598I113654J1761*
G01*
G75*
G02X129122I2120*
G01*
G75*
G02X128919Y116693I-2120J0*
G01*
X135386*
Y118661*
Y118662*
G75*
G02X135837Y119750I1537*
G01*
X146724Y130637*
Y136965*
G75*
G02X146142Y138425I1539J1461*
G01*
G75*
G02X150382I2120*
G01*
G75*
G02X149799Y136965I-2122J1*
G01*
Y130000*
Y130000*
G75*
G02X149348Y128911I-1537*
G01*
X138461Y118025*
Y116693*
X153071*
G75*
G02X157311I2120*
G01*
X171048*
X171189Y116834*
G75*
G02X172278Y117285I1088J-1085*
G01*
X176426*
G75*
G02X176142Y118346I1836J1061*
G01*
G75*
G02X176581Y119638I2120*
G01*
Y123285*
G37*
X174561Y150109D02*
X173396Y151274D01*
G75*
G02X172945Y152362I1086J1089*
G01*
Y159285*
X168371Y163858*
X154325*
Y150521*
X159098Y145748*
X161146*
G75*
G02X165004Y146057I1998J-709*
G01*
G75*
G02X166136Y145748I30J-2120*
G01*
X174561*
Y150109*
G36*
X173396Y151274*
G75*
G02X172945Y152362I1086J1089*
G01*
Y159285*
X168371Y163858*
X154325*
Y150521*
X159098Y145748*
X161146*
G75*
G02X165004Y146057I1998J-709*
G01*
G75*
G02X166136Y145748I30J-2120*
G01*
X174561*
Y150109*
G37*
X176045Y227833D02*
X173089D01*
G75*
G02X173159Y227736I-1676J-1294*
G01*
G75*
G02X173287Y227621I-961J-1202*
G01*
X173859Y227049*
X176526*
G75*
G02X176724Y227037I2J-1535*
G01*
G75*
G02X176709Y227143I2092J363*
G01*
X176045Y227833*
G36*
X173089*
G75*
G02X173159Y227736I-1676J-1294*
G01*
G75*
G02X173287Y227621I-961J-1202*
G01*
X173859Y227049*
X176526*
G75*
G02X176724Y227037I2J-1535*
G01*
G75*
G02X176709Y227143I2092J363*
G01*
X176045Y227833*
G37*
X179169Y193501D02*
Y191188D01*
X182600Y187758*
X186440*
X179701Y194497*
G75*
G02X179169Y193501I-2069J464*
G01*
G36*
Y191188*
X182600Y187758*
X186440*
X179701Y194497*
G75*
G02X179169Y193501I-2069J464*
G01*
G37*
X179515Y127833D02*
X178437D01*
X179272Y126998*
G75*
G02X179693Y125984I-1010J-1014*
G01*
Y119911*
G75*
G02X180346Y118732I-1431J-1564*
G01*
Y122083*
G75*
G02X181693Y125655I1537J1460*
G01*
X179515Y127833*
G36*
X178437*
X179272Y126998*
G75*
G02X179693Y125984I-1010J-1014*
G01*
Y119911*
G75*
G02X180346Y118732I-1431J-1564*
G01*
Y122083*
G75*
G02X181693Y125655I1537J1460*
G01*
X179515Y127833*
G37*
X180073Y114211D02*
X175216D01*
G75*
G02X174250Y111216I-1836J-1061*
G01*
X168242Y105207*
G75*
G02X168341Y105211I101J-1427*
G01*
X185989*
G75*
G02X188614Y105615I1564J-1431*
G01*
Y110115*
G75*
G02X188031Y111575I1537J1460*
G01*
G75*
G02X192272I2120*
G01*
G75*
G02X191689Y110115I-2120*
G01*
Y99528*
G75*
G02X191237Y98439I-1538*
G01*
X188169Y95371*
G75*
G02X187081Y94919I-1089J1086*
G01*
X183978*
G75*
G02X183891Y91774I-1464J-1533*
G01*
X196959*
G75*
G02X200539Y90236I1460J-1537*
G01*
G75*
G02X196959Y88699I-2120*
G01*
X181025*
X178878Y86552*
G75*
G02X177789Y86100I-1089J1086*
G01*
X170395*
X161080Y76785*
G75*
G02X161096I9J-1441*
G01*
X166276*
G75*
G02X168498Y81313I2222J1719*
G01*
X186862*
X190154Y84604*
X189857*
G75*
G02X186063Y85906I-1674J1301*
G01*
G75*
G02X188547Y87994I2120*
G01*
X202183*
G75*
G02X202431Y89956I1985J746*
G01*
X194735Y97652*
G75*
G02X194283Y98740I1086J1089*
G01*
Y113064*
X183995Y123352*
G75*
G02X183421Y122083I-2111J191*
G01*
Y117559*
G75*
G02X182970Y116470I-1538*
G01*
X181161Y114662*
G75*
G02X180073Y114211I-1089J1086*
G01*
G36*
X175216*
G75*
G02X174250Y111216I-1836J-1061*
G01*
X168242Y105207*
G75*
G02X168341Y105211I101J-1427*
G01*
X185989*
G75*
G02X188614Y105615I1564J-1431*
G01*
Y110115*
G75*
G02X188031Y111575I1537J1460*
G01*
G75*
G02X192272I2120*
G01*
G75*
G02X191689Y110115I-2120*
G01*
Y99528*
G75*
G02X191237Y98439I-1538*
G01*
X188169Y95371*
G75*
G02X187081Y94919I-1089J1086*
G01*
X183978*
G75*
G02X183891Y91774I-1464J-1533*
G01*
X196959*
G75*
G02X200539Y90236I1460J-1537*
G01*
G75*
G02X196959Y88699I-2120*
G01*
X181025*
X178878Y86552*
G75*
G02X177789Y86100I-1089J1086*
G01*
X170395*
X161080Y76785*
G75*
G02X161096I9J-1441*
G01*
X166276*
G75*
G02X168498Y81313I2222J1719*
G01*
X186862*
X190154Y84604*
X189857*
G75*
G02X186063Y85906I-1674J1301*
G01*
G75*
G02X188547Y87994I2120*
G01*
X202183*
G75*
G02X202431Y89956I1985J746*
G01*
X194735Y97652*
G75*
G02X194283Y98740I1086J1089*
G01*
Y113064*
X183995Y123352*
G75*
G02X183421Y122083I-2111J191*
G01*
Y117559*
G75*
G02X182970Y116470I-1538*
G01*
X181161Y114662*
G75*
G02X180073Y114211I-1089J1086*
G01*
G37*
X180138Y63087D02*
G75*
G02X179735Y62797I-1089J1086D01*
G01*
X182318*
G75*
G02X182371Y65321I2086J1219*
G01*
X180138Y63087*
G36*
G75*
G02X179735Y62797I-1089J1086*
G01*
X182318*
G75*
G02X182371Y65321I2086J1219*
G01*
X180138Y63087*
G37*
X193180Y65628D02*
X186202D01*
G75*
G02X186489Y62797I-1798J-1612*
G01*
X198964*
X201447Y65281*
G75*
G02X202195Y66061I1854J-1029*
G01*
X194253*
G75*
G02X193180Y65628I-1070J1104*
G01*
G36*
X186202*
G75*
G02X186489Y62797I-1798J-1612*
G01*
X198964*
X201447Y65281*
G75*
G02X202195Y66061I1854J-1029*
G01*
X194253*
G75*
G02X193180Y65628I-1070J1104*
G01*
G37*
X193913Y80419D02*
X190280Y76785D01*
X191606*
X193469Y78648*
G75*
G02X194482Y79069I1014J-1010*
G01*
X214362*
X217978Y82685*
G75*
G02X217393Y82624I-582J2748*
G01*
X209819*
X208441Y81245*
G75*
G02X206451Y80419I-1990J1983*
G01*
X193913*
G36*
X190280Y76785*
X191606*
X193469Y78648*
G75*
G02X194482Y79069I1014J-1010*
G01*
X214362*
X217978Y82685*
G75*
G02X217393Y82624I-582J2748*
G01*
X209819*
X208441Y81245*
G75*
G02X206451Y80419I-1990J1983*
G01*
X193913*
G37*
X195941Y74553D02*
X195201Y73813D01*
G75*
G02X196232Y73324I-167J-1687*
G01*
X197310Y72246*
X200291*
X197984Y74553*
X195941*
G36*
X195201Y73813*
G75*
G02X196232Y73324I-167J-1687*
G01*
X197310Y72246*
X200291*
X197984Y74553*
X195941*
G37*
X206401Y66061D02*
X204407D01*
G75*
G02X205300Y64960I-1106J-1809*
G01*
X206401Y66061*
G36*
X204407*
G75*
G02X205300Y64960I-1106J-1809*
G01*
X206401Y66061*
G37*
X214955Y76207D02*
X200378D01*
X202634Y73951*
X217170*
G75*
G02X219835Y74332I1564J-1431*
G01*
Y77638*
G75*
G02X220286Y78726I1538*
G01*
X222206Y80645*
G75*
G02X222763Y82025I2120J-55*
G01*
G75*
G02X221833Y82493I459J2070*
G01*
X215968Y76628*
G75*
G02X214955Y76207I-1014J1010*
G01*
G36*
X200378*
X202634Y73951*
X217170*
G75*
G02X219835Y74332I1564J-1431*
G01*
Y77638*
G75*
G02X220286Y78726I1538*
G01*
X222206Y80645*
G75*
G02X222763Y82025I2120J-55*
G01*
G75*
G02X221833Y82493I459J2070*
G01*
X215968Y76628*
G75*
G02X214955Y76207I-1014J1010*
G01*
G37*
X217170Y71089D02*
X216120D01*
G75*
G02X216278Y69136I-1796J-1128*
G01*
X217231*
X218507Y70412*
G75*
G02X217170Y71089I227J2107*
G01*
G36*
X216120*
G75*
G02X216278Y69136I-1796J-1128*
G01*
X217231*
X218507Y70412*
G75*
G02X217170Y71089I227J2107*
G01*
G37*
X222453Y86360D02*
G75*
G02X221505Y85526I-2381J1750D01*
G01*
X221658*
G75*
G02X223890Y86107I1564J-1431*
G01*
Y86677*
G75*
G02X222856Y86561I-746J1985*
G01*
X222698*
G75*
G02X222453Y86360I-1995J2179*
G01*
G36*
G75*
G02X221505Y85526I-2381J1750*
G01*
X221658*
G75*
G02X223890Y86107I1564J-1431*
G01*
Y86677*
G75*
G02X222856Y86561I-746J1985*
G01*
X222698*
G75*
G02X222453Y86360I-1995J2179*
G01*
G37*
X222909Y75277D02*
Y71783D01*
X222984Y71857*
Y75194*
G75*
G02X222909Y75277I1538J1460*
G01*
G36*
Y71783*
X222984Y71857*
Y75194*
G75*
G02X222909Y75277I1538J1460*
G01*
G37*
D02*
D13*
X21569Y151260D02*
Y171890D01*
X19128Y174331*
X26293Y250866D02*
X23695D01*
X21569Y248740*
Y237165*
X10073Y225669*
Y197244*
X15860Y191457*
Y189252*
X27553Y78110D02*
Y79843D01*
X21569Y85827*
X27632Y75906D02*
Y77677D01*
X19404Y85906*
X39679Y83307D02*
X41018D01*
X41884Y84173*
Y108819*
X39049Y111654*
Y125276*
X34089Y130236*
Y140709*
X32907Y141890*
Y147638*
X40939Y155669*
Y162913*
X40624Y163228*
X46608Y186693D02*
Y186142D01*
X47159Y185591*
Y162520*
X47711Y161969*
Y125118*
X52750Y120079*
X57474*
X60230Y117323*
Y112677*
X77081Y95827*
X99049*
X111411Y83465*
X115033*
X123695Y74803*
X138104*
X138970Y75669*
X157789*
X169758Y87638*
X177789*
X180388Y90236*
X198419*
X52671Y41299D02*
Y52638D01*
X51648Y53661*
X59443Y143543D02*
Y157677D01*
X58577Y158543*
X60860Y182835D02*
X49994D01*
X49837Y182992*
X61254Y55591D02*
X61372Y55472D01*
X64876Y115591D02*
Y120787D01*
X69758Y125669*
X72593*
X74876Y123386*
Y109843*
X81096Y103622*
X122593*
X67632Y159291D02*
Y147323D01*
X70073Y144882*
X68577Y120236D02*
Y109961D01*
X78695Y99843*
X120467*
X127396Y92913*
X136923*
X145033Y101024*
X161884*
X173380Y112520*
Y113150*
X69522Y267874D02*
Y268189D01*
X69285Y268425*
X54325*
X52671Y270079*
X28183*
X19797Y261693*
Y260315*
X18222Y258740*
X9797*
X6057Y255000*
Y188071*
X14128Y180000*
X15860*
X70624Y123150D02*
X72986Y120787D01*
Y108504*
X79758Y101732*
X121490*
X128498Y94724*
X136136*
X147789Y106378*
X163774*
X169915Y112520*
Y113386*
X172278Y115748*
X180073*
X181884Y117559*
Y123543*
X70781Y96299D02*
Y99291D01*
X58341Y111732*
Y116457*
X56766Y118031*
X52199*
X45900Y124331*
Y161102*
X40624Y166378*
Y191850*
X33380Y199094*
Y198898*
X81018Y119606D02*
Y138583D01*
X86215Y143780*
Y155276*
X87632Y156693*
X86451Y224331D02*
Y215748D01*
X72907Y202205*
X33341*
X30073Y198937*
Y194291*
X30230Y194134*
Y188661*
X33970Y184921*
Y184724*
X87632Y156693D02*
Y157087D01*
X89049Y158504*
Y166378*
X94167Y171496*
Y178740*
X98026Y182598*
Y215197*
X108026Y225197*
X110388*
X102494Y125669D02*
Y120157D01*
X103695Y118957*
Y109606*
X109679Y103622*
X122593*
X102494Y125669D02*
X102435Y125728D01*
Y142598*
X105112Y33228D02*
X107632D01*
X115900Y41496*
Y58268*
X120388Y62756*
X133222*
X106215Y238268D02*
Y235118D01*
X102671Y231575*
Y227717*
X100939Y225984*
X88104*
X86451Y224331*
X110624Y272520D02*
Y270315D01*
X113222Y267717*
X152671*
X159285Y261102*
Y251496*
X159049Y251260*
Y250394*
X116215Y204261D02*
Y197638D01*
X96530Y177953*
Y170866*
X90939Y165276*
Y161654*
X93065Y159528*
Y157323*
X122120Y48346D02*
X131963D01*
X132120Y48189*
X122593Y103622D02*
X129128Y97087D01*
X135112*
X127159Y56535D02*
X128892D01*
X132278Y59921*
X142829*
X147474Y64567*
X158026*
X162593Y69134*
X169915*
X174876Y64173*
X179049*
X182041Y67165*
X193183*
X193616Y67598*
X217868*
X221372Y71102*
Y77638*
X224325Y80591*
X127632Y59528D02*
X126136D01*
X123931Y57323*
Y55433*
X125663Y53701*
X141963*
X147553Y59291*
X201805*
X208183Y65669*
X218970*
X224522Y71220*
Y76654*
X132907Y101417D02*
X136923Y105433D01*
Y118661*
X148262Y130000*
Y138425*
X135722Y140531D02*
Y137303D01*
X138301Y134724*
Y128386*
X135191Y125276*
X127789*
X137159Y195433D02*
Y195039D01*
X140073Y192126*
Y162598*
X160152Y142520*
Y140551*
X171333Y129370*
X180152*
X195821Y113701*
Y98740*
X204167Y90394*
Y88740*
X143380Y231181D02*
X136608Y224409D01*
Y220630*
X142435Y214803*
Y213386*
X143931Y89213D02*
Y89291D01*
X148183Y225118D02*
Y224961D01*
X161726Y211417*
X166293*
X167081Y210630*
X194561*
X225585Y179606*
Y81890*
X224325Y80630*
Y80591*
X155742Y226850D02*
X159837Y222756D01*
X194482*
X199049Y218189*
Y211969*
X217553Y193465*
X221254*
X223380Y191339*
X156923Y252520D02*
X157002D01*
X157317Y252835*
Y258504*
X150230Y265591*
X109285*
X102356Y272520*
X100073*
X158656Y209685D02*
X151490D01*
X150781Y210394*
X161884Y245354D02*
X162356D01*
X163616Y246614*
Y260157*
X153774Y270000*
X120073*
X118341Y271732*
Y272520*
X162435Y108898D02*
X146923D01*
X135112Y97087*
X167789Y64567D02*
X167947Y64724D01*
X167868Y66850D02*
X167947Y66929D01*
X170467Y71654D02*
X170624D01*
X171096Y72126*
X195033*
X196608Y70551*
X213734*
X214325Y69961*
X171411Y226535D02*
X172199D01*
X173222Y225512*
X176530*
X177238Y224803*
X180860*
X182041Y225984*
X175663Y125197D02*
X169049D01*
X154325Y139921*
Y141496*
X153380Y142441*
X177632Y194961D02*
Y190551D01*
X181963Y186220*
X197159*
X213301Y170079*
Y148189*
X178813Y227402D02*
Y227244D01*
X176766Y229528*
X153222*
X151726Y228031*
X143222*
X139049Y223858*
Y221969*
X179443Y149193D02*
X177652D01*
X174482Y152362*
Y159921*
X158341Y176063*
X150703*
X149837Y176929*
X185742Y235669D02*
X186372D01*
X187947Y237244*
X188183Y85906D02*
Y85984D01*
X188498Y86299*
X205112*
X207947Y89134*
X214010*
X190152Y111575D02*
Y99528D01*
X187081Y96457*
X168341*
X162986Y91102*
Y88031*
X190388Y244016D02*
Y237480D01*
X190152Y237244*
X192356Y135984D02*
Y141575D01*
X187553Y146378*
X176766*
X171884Y151260*
Y151339*
X167474Y155748*
X165762*
X165722Y155787*
X164974*
X196451Y229685D02*
X196530Y229764D01*
Y250315*
X206372Y260157*
X206687*
X196667Y39862D02*
Y39882D01*
X203301Y64252D02*
X202593D01*
X199600Y61260*
X171411*
X167947Y64724*
X208104Y227087D02*
Y221811D01*
X203695Y217402*
Y214016*
X209837Y148583D02*
Y146457D01*
X212278Y144016*
X215900*
X217081Y142835*
X211746Y262776D02*
Y263445D01*
X208104Y267087*
X188498*
X184187Y262776*
X211746D02*
X210545D01*
Y241555*
X211470Y240630*
X213695*
X218341Y153819D02*
Y154016D01*
X215270Y157087*
Y171220*
X198065Y188425*
X187947*
X177317Y199055*
X162671*
X159915Y196299*
X153715*
X224522Y76654D02*
Y76614D01*
X227474Y79567*
Y180551*
X196372Y211654*
Y215118*
D02*
D15*
X55900Y115433D02*
Y109606D01*
X67947Y97559*
Y93858*
X71569Y90236*
X98419*
X107159Y81496*
X113695*
X122199Y72992*
X158734*
X161096Y75354*
X192199*
X194482Y77638*
X214955*
X221411Y84094*
X223222*
X59049Y169370D02*
X57002D01*
X49443Y161811*
Y125669*
X52671Y122441*
X57553*
X62435Y117559*
Y113386*
X78026Y97795*
X119522*
X126136Y91181*
X137711*
X142829Y96299*
X160860*
X168341Y103780*
X187553*
X74719Y84409D02*
Y81339D01*
X104404*
X106608Y79134*
X113222*
X121333Y71024*
X159522*
X162435Y73937*
X193301*
X195348Y75984*
X198577*
X202041Y72520*
X218734*
X132514Y228661D02*
X134876D01*
X136608Y230394*
Y245197*
X143380Y251969*
X150860*
X158026Y244803*
Y242756*
X134246Y231496D02*
Y246378D01*
X141648Y253780*
X151884*
X157474Y248189*
X161175*
Y248268*
X134325Y226220D02*
X135585D01*
X138498Y229134*
Y237795*
X142829Y242126*
X154404*
X155033Y242756*
X140703Y67402D02*
X137632D01*
X135900Y69134*
X119522*
X113537Y75118*
X143380Y231181D02*
X152671Y240472D01*
X161411*
X166293Y245354*
Y254409*
X169679Y257795*
X196057*
X200388Y262126*
X178262Y118346D02*
Y125984D01*
X176530Y127717*
X170545*
X157632Y140630*
Y142126*
X155033Y144724*
X151884*
X150309Y143150*
X111884*
X106608Y148425*
Y149213*
X213380Y113701D02*
X213065D01*
Y118583*
X194640Y137008*
Y142756*
X188577Y148819*
X179817*
X179443Y149193*
D02*
D17*
X54325Y127874D02*
X56215D01*
X56608Y128268*
X75506*
X77632Y126142*
Y117795*
X79207Y116220*
X83301*
X85033Y117953*
Y134488*
X87474Y136929*
X91175*
X97238Y142992*
X129207Y180945D02*
Y164961D01*
X126057Y161811*
X110860*
X103380Y154331*
Y148819*
X97553Y142992*
X97238*
D02*
D19*
X4404Y32008D03*
Y34213D03*
Y36378D03*
Y38543D03*
Y40709D03*
Y42874D03*
Y45079D03*
X8026Y34803D03*
X8065Y31811D03*
X11884Y153386D03*
Y155591D03*
Y157795D03*
Y160000D03*
X11963Y162205D03*
Y164409D03*
Y166614D03*
Y168819D03*
X12593Y94724D03*
Y96929D03*
Y99094D03*
Y101260D03*
Y103425D03*
Y105591D03*
Y107795D03*
Y112283D03*
X12632Y90315D03*
Y92520D03*
Y110079D03*
X12829Y210000D03*
X12868Y48661D03*
Y50866D03*
Y53071D03*
Y55276D03*
Y57441D03*
Y59606D03*
Y61772D03*
Y63937D03*
Y66142D03*
Y68346D03*
Y70551D03*
X12947Y88110D03*
X14719Y90157D03*
X14955Y210000D03*
Y212126D03*
Y214252D03*
Y216378D03*
X15033Y50787D03*
Y52992D03*
Y55197D03*
Y57362D03*
Y59528D03*
Y61693D03*
Y63858D03*
Y66063D03*
X15073Y48583D03*
Y68346D03*
X15112Y85827D03*
X15152Y88110D03*
X15860Y180000D03*
Y189252D03*
Y201457D03*
X17199Y50787D03*
Y52992D03*
Y55197D03*
Y57362D03*
Y59528D03*
Y61693D03*
Y63858D03*
Y66063D03*
X17238Y48504D03*
Y87953D03*
X17278Y83622D03*
Y85827D03*
X18734Y145433D03*
Y147638D03*
X19049Y169921D03*
Y172126D03*
X19128Y174331D03*
Y182992D03*
Y185157D03*
Y187323D03*
Y189488D03*
Y191654D03*
Y193819D03*
Y196024D03*
Y198228D03*
Y202717D03*
X19167Y200512D03*
X19404Y48504D03*
Y52913D03*
Y55118D03*
Y57283D03*
Y59449D03*
Y61614D03*
Y63780D03*
Y81535D03*
Y83701D03*
Y85906D03*
X19443Y50709D03*
X20565Y95492D03*
Y125315D03*
Y135276D03*
X20585Y115413D03*
X20703Y105512D03*
X20900Y145433D03*
Y147638D03*
X21215Y172126D03*
X21293Y170000D03*
Y174331D03*
Y176535D03*
X21333Y183150D03*
Y185315D03*
Y187480D03*
Y189646D03*
X21569Y59370D03*
Y61535D03*
Y79291D03*
Y81457D03*
Y83622D03*
Y85827D03*
X23065Y145433D03*
Y147638D03*
X23301Y270472D03*
X23734Y59370D03*
Y77126D03*
Y79291D03*
Y81457D03*
Y83622D03*
X25860Y74882D03*
Y77047D03*
Y79213D03*
Y81378D03*
X26293Y250866D03*
X27396Y73386D03*
X27553Y78110D03*
X27632Y75906D03*
X28262Y107323D03*
Y150787D03*
X28321Y37756D03*
X28419Y127795D03*
Y129961D03*
Y132126D03*
Y134291D03*
Y136457D03*
Y138661D03*
Y143150D03*
X28459Y140945D03*
X29285Y109213D03*
X29600Y126142D03*
X30073Y37756D03*
X30230Y95039D03*
Y97323D03*
Y99488D03*
Y101654D03*
X30467Y91260D03*
Y105118D03*
Y107323D03*
X30545Y127953D03*
Y130118D03*
Y132283D03*
Y134449D03*
Y136614D03*
Y138819D03*
Y143307D03*
Y145512D03*
X30585Y141102D03*
X31411Y93150D03*
Y109173D03*
Y111417D03*
Y113701D03*
Y115866D03*
Y118031D03*
X32120Y217146D03*
X32199Y167402D03*
X32278Y212126D03*
X32356Y95079D03*
Y97323D03*
Y99606D03*
X32514Y88504D03*
Y90630D03*
X32907Y172126D03*
X33222Y155354D03*
Y157559D03*
X33380Y179803D03*
Y198898D03*
X33537Y92835D03*
X33970Y184724D03*
X34246Y194488D03*
X34364Y207165D03*
X34482Y253780D03*
Y255984D03*
X34561Y87874D03*
Y95157D03*
Y97402D03*
Y99685D03*
X34640Y90079D03*
X35191Y85827D03*
X35663Y169606D03*
X36215Y142677D03*
X36451Y96299D03*
Y98583D03*
X36687Y253780D03*
Y255984D03*
X36844Y162756D03*
X36923Y84646D03*
X37317Y204803D03*
X37789Y169606D03*
X38656Y134961D03*
Y137165D03*
Y139291D03*
X38813Y283150D03*
X39679Y83307D03*
Y133228D03*
X39758Y141024D03*
X39915Y196063D03*
X40624Y163228D03*
X40703Y135039D03*
X40860Y137165D03*
Y139291D03*
X40900Y214685D03*
Y216850D03*
Y219016D03*
Y221181D03*
X41333Y143858D03*
X41569Y261260D03*
Y263465D03*
Y265669D03*
X41805Y194961D03*
Y197165D03*
X42593Y267480D03*
X43065Y214685D03*
Y216850D03*
Y219016D03*
Y221181D03*
X43774Y256850D03*
Y259055D03*
Y261496D03*
Y263465D03*
Y265669D03*
X44010Y194961D03*
Y197165D03*
X44069Y37697D03*
X44089Y31850D03*
Y34823D03*
X44797Y267480D03*
X45230Y214764D03*
Y216929D03*
Y219094D03*
Y221260D03*
X45978Y259370D03*
Y261575D03*
Y263780D03*
Y265827D03*
X46608Y186693D03*
X47396Y206142D03*
Y214764D03*
Y216929D03*
Y219094D03*
Y221260D03*
X48026Y260000D03*
X48341Y32402D03*
Y36890D03*
Y39094D03*
Y41299D03*
X48380Y34685D03*
X48813Y199921D03*
X49364Y204961D03*
Y207165D03*
X49522Y53622D03*
X49561Y214685D03*
Y216850D03*
Y219016D03*
Y221181D03*
X49837Y165276D03*
Y176299D03*
Y178583D03*
Y180787D03*
Y182992D03*
X50506Y32402D03*
Y36890D03*
Y39094D03*
Y41299D03*
X50545Y34685D03*
Y55472D03*
Y196457D03*
X51490Y204882D03*
Y207087D03*
X51648Y53661D03*
X51726Y214685D03*
Y216850D03*
Y219016D03*
Y221181D03*
X51805Y137874D03*
X52041Y167480D03*
Y178583D03*
Y180787D03*
Y182992D03*
X52671Y32402D03*
Y36890D03*
Y39094D03*
Y41299D03*
Y144094D03*
X52711Y34685D03*
Y55472D03*
X53656Y204843D03*
Y207008D03*
X53813Y53661D03*
X53892Y214764D03*
Y216929D03*
Y219094D03*
Y221260D03*
X54246Y169606D03*
Y180709D03*
Y182913D03*
X54325Y127874D03*
X54482Y160709D03*
Y162913D03*
X54837Y32402D03*
Y36890D03*
Y39094D03*
Y41299D03*
X54876Y34685D03*
Y55472D03*
X55033Y283150D03*
X55821Y171102D03*
Y204843D03*
Y207008D03*
X55900Y115433D03*
X55978Y53661D03*
X56057Y214764D03*
Y216929D03*
Y219094D03*
Y221260D03*
X56293Y164094D03*
X56372Y161969D03*
X56451Y182913D03*
X57041Y55512D03*
X57238Y271102D03*
X57317Y172677D03*
X57986Y204921D03*
Y207087D03*
X58026Y87087D03*
X58144Y53661D03*
X58222Y214764D03*
Y216929D03*
Y219094D03*
Y221260D03*
X58498Y162047D03*
X58656Y182913D03*
X59049Y169370D03*
X59207Y55472D03*
X59305Y37343D03*
Y39626D03*
X59325Y31929D03*
X59344Y34626D03*
X59443Y143543D03*
X60152Y204921D03*
Y207087D03*
X60230Y174567D03*
X60309Y53661D03*
X60388Y214764D03*
Y216929D03*
Y219094D03*
Y221260D03*
X60742Y101457D03*
X60860Y182835D03*
X61096Y87953D03*
X61372Y55472D03*
X62120Y167165D03*
Y169370D03*
X62317Y204921D03*
Y207087D03*
X62474Y53661D03*
X62514Y99528D03*
X62553Y214843D03*
Y217008D03*
Y219173D03*
Y221339D03*
X63055Y177490D03*
X63065Y174488D03*
Y182835D03*
X63537Y55472D03*
X64325Y164961D03*
Y167165D03*
Y169370D03*
X64482Y204921D03*
Y207087D03*
X64640Y53661D03*
Y64882D03*
X64719Y214843D03*
Y217008D03*
Y219173D03*
Y221339D03*
X64876Y115591D03*
X65270Y144016D03*
X65427Y157165D03*
Y159370D03*
Y163071D03*
X65663Y174567D03*
X65703Y55472D03*
X66215Y134488D03*
X66451Y61260D03*
X66530Y165039D03*
Y167244D03*
Y169449D03*
X66608Y161181D03*
X66648Y205000D03*
Y207165D03*
X66884Y214764D03*
Y216929D03*
Y219094D03*
Y221260D03*
X67632Y159291D03*
Y163071D03*
X67868Y174567D03*
X68577Y120236D03*
X68734Y165039D03*
Y167244D03*
Y169449D03*
X68813Y161181D03*
Y205000D03*
Y207165D03*
X69049Y214764D03*
Y216929D03*
Y219094D03*
Y221260D03*
X69522Y267874D03*
X69679Y180551D03*
Y182756D03*
Y184961D03*
X69837Y163071D03*
X69876Y194803D03*
X69915Y189685D03*
Y192283D03*
X70073Y144882D03*
Y174567D03*
Y187323D03*
X70309Y272520D03*
X70624Y123150D03*
X70781Y96299D03*
X70939Y165039D03*
Y167244D03*
Y169449D03*
Y204961D03*
X70978Y196535D03*
X71018Y207087D03*
X71215Y214843D03*
Y217008D03*
Y219173D03*
Y221339D03*
X71884Y180551D03*
Y182756D03*
Y184961D03*
X72041Y189685D03*
Y192283D03*
Y194803D03*
X72199Y187323D03*
X72278Y174488D03*
X72671Y135433D03*
X72750Y144803D03*
X73144Y165118D03*
Y167323D03*
Y169528D03*
Y196614D03*
X73222Y207087D03*
X73380Y214843D03*
Y217008D03*
Y219173D03*
Y221339D03*
X73852Y143071D03*
X74089Y180472D03*
Y182677D03*
Y184882D03*
X74207Y189764D03*
Y192362D03*
Y194882D03*
X74364Y187402D03*
X74482Y174488D03*
X75309Y196614D03*
X75348Y167323D03*
Y169528D03*
X75545Y214843D03*
Y217008D03*
Y219173D03*
Y221339D03*
X75663Y32520D03*
X76057Y143071D03*
X76136Y38031D03*
X76293Y159921D03*
Y182677D03*
Y184882D03*
X76372Y189764D03*
Y192362D03*
Y194882D03*
X76530Y187402D03*
X76687Y174488D03*
X77474Y196614D03*
X77711Y214843D03*
Y217008D03*
Y219173D03*
Y221339D03*
X77868Y32520D03*
X77947Y68661D03*
Y272520D03*
X78262Y72441D03*
X78419Y58268D03*
X78498Y184882D03*
X78537Y189764D03*
Y192362D03*
Y194882D03*
X78695Y187402D03*
X78970Y70472D03*
X79600Y204961D03*
X79640Y196614D03*
X79876Y214921D03*
Y217087D03*
Y219252D03*
Y221417D03*
X80073Y32520D03*
Y68661D03*
X80703Y184803D03*
Y189764D03*
Y192362D03*
Y194882D03*
X80781Y203071D03*
X80860Y187402D03*
X81018Y119606D03*
X81096Y145512D03*
X81254Y87244D03*
X81766Y204961D03*
Y207165D03*
X81805Y159449D03*
X81884Y196614D03*
X82041Y214921D03*
Y217087D03*
Y219252D03*
Y221417D03*
X82199Y32520D03*
Y68661D03*
Y251575D03*
Y253858D03*
X82278Y48268D03*
X82947Y203071D03*
X83026Y189764D03*
Y192362D03*
Y194882D03*
X83380Y87244D03*
X83852Y31024D03*
X83931Y204961D03*
Y207165D03*
X84010Y159449D03*
X84049Y196614D03*
X84128Y47087D03*
Y49252D03*
X84561Y251654D03*
Y253858D03*
X85112Y203071D03*
X85191Y194882D03*
X85348Y192362D03*
X85663Y250079D03*
X85742Y68819D03*
X86018Y45984D03*
Y48150D03*
Y50315D03*
Y52480D03*
X86096Y205039D03*
Y207244D03*
X86215Y159449D03*
Y196693D03*
X86530Y184331D03*
X86766Y251654D03*
Y253858D03*
X87278Y203150D03*
X87317Y212480D03*
X87356Y194961D03*
X87632Y156693D03*
X87829Y23543D03*
X87868Y44882D03*
Y75748D03*
X87907Y49213D03*
Y51378D03*
X87947Y47008D03*
X88104Y250000D03*
X88262Y205039D03*
X88380Y196693D03*
X88498Y174488D03*
X88970Y251654D03*
Y253858D03*
X88990Y272520D03*
X89049Y53307D03*
Y216772D03*
Y221181D03*
X89128Y218976D03*
X89443Y203150D03*
X89522Y194961D03*
X89679Y179764D03*
Y184016D03*
X89837Y87244D03*
X89994Y23543D03*
X90073Y44961D03*
Y47126D03*
Y49291D03*
Y51457D03*
X90427Y205039D03*
X90545Y196693D03*
X90624Y174488D03*
X90781Y131732D03*
X91096Y251732D03*
X91175Y53386D03*
Y253858D03*
X91254Y216693D03*
Y221102D03*
X91333Y218898D03*
X91411Y142047D03*
X91884Y179764D03*
Y181890D03*
Y184016D03*
X92199Y47126D03*
Y49331D03*
Y51535D03*
X92238Y44921D03*
X93065Y157323D03*
X93301Y53386D03*
Y163858D03*
X93380Y189685D03*
Y216772D03*
Y221181D03*
X93459Y218976D03*
X93695Y144094D03*
X93852Y115827D03*
Y117953D03*
Y120128D03*
Y122283D03*
X94364Y47126D03*
Y49331D03*
Y51535D03*
X94404Y44921D03*
X95348Y145512D03*
X95467Y53465D03*
X96057Y115827D03*
Y117953D03*
Y120128D03*
Y122283D03*
Y131890D03*
X96530Y47126D03*
Y49331D03*
Y51535D03*
X96569Y44921D03*
X96687Y272520D03*
X97002Y146929D03*
X97238Y28031D03*
Y142992D03*
X97632Y53465D03*
X98173Y115827D03*
Y117953D03*
Y120128D03*
Y122283D03*
X98498Y148504D03*
X98695Y47126D03*
Y49331D03*
Y51535D03*
X98734Y44921D03*
X98892Y83937D03*
X99404Y28031D03*
X99797Y53465D03*
X99994Y150157D03*
X100073Y272520D03*
X100309Y115827D03*
Y117953D03*
Y120079D03*
Y122205D03*
X100545Y19685D03*
X100939Y44882D03*
Y47047D03*
Y49252D03*
Y51457D03*
X101569Y28031D03*
X102435Y142598D03*
X102494Y125669D03*
X102711Y19055D03*
X103104Y47047D03*
Y49252D03*
Y51457D03*
X103144Y44882D03*
X103537Y78425D03*
X103734Y28031D03*
X104167Y55197D03*
X104876Y19055D03*
X105033Y144252D03*
X105112Y33228D03*
X105270Y47087D03*
Y49213D03*
X105900Y28031D03*
X106215Y238268D03*
X106293Y76693D03*
X106608Y149213D03*
Y197402D03*
X107041Y19055D03*
X107081Y164803D03*
X108734Y254803D03*
X109207Y19055D03*
X109443Y76772D03*
X109837Y230945D03*
X110230Y206457D03*
X110388Y225197D03*
X110624Y272520D03*
X111372Y19055D03*
X111805Y203465D03*
X111963Y149213D03*
Y230945D03*
X112041Y140394D03*
X112632Y27244D03*
X113065Y138504D03*
X113537Y19055D03*
Y75118D03*
X113616Y87480D03*
X113695Y255512D03*
X114167Y140236D03*
X114797Y27244D03*
X115348Y138425D03*
X115703Y19055D03*
X115742Y184921D03*
X116215Y204261D03*
X116372Y140315D03*
Y246929D03*
X116963Y27244D03*
X117907Y19055D03*
X118341Y46142D03*
Y48268D03*
Y50315D03*
Y272520D03*
X118498Y55748D03*
X118577Y106929D03*
X118970Y84724D03*
X119128Y27244D03*
X120073Y19055D03*
X120230Y47244D03*
Y49370D03*
X121293Y27244D03*
X121333Y272520D03*
X121569Y168268D03*
Y170472D03*
Y172677D03*
X122120Y48346D03*
X122238Y19055D03*
X123459Y27244D03*
X123734Y170472D03*
X123774Y168268D03*
Y172677D03*
Y174882D03*
X124719Y108898D03*
Y111102D03*
Y113268D03*
Y115433D03*
X124797Y262598D03*
X125270Y81181D03*
X125427Y128425D03*
Y130551D03*
Y132677D03*
Y134803D03*
Y254646D03*
X125624Y27244D03*
X125900Y170472D03*
X125978Y168268D03*
Y172677D03*
Y174882D03*
X126923Y108898D03*
Y111102D03*
Y112992D03*
X127002Y117598D03*
X127159Y56535D03*
X127553Y128504D03*
Y132677D03*
Y134803D03*
X127632Y59528D03*
X127789Y27244D03*
Y122992D03*
Y125276D03*
X129049Y111102D03*
X129128Y106693D03*
Y108898D03*
X129207Y180945D03*
Y218740D02*
Y180945D01*
Y218740D03*
X129443Y252205D03*
X129600Y130551D03*
X129679Y132677D03*
X129955Y27244D03*
X129994Y122992D03*
Y125276D03*
X130781Y19055D03*
X131096Y82913D03*
X131254Y106693D03*
Y108898D03*
X131333Y77480D03*
X132120Y45984D03*
Y48189D03*
X132159Y27244D03*
X132199Y122992D03*
Y125276D03*
X132219Y272520D03*
X132278Y66693D03*
X132514Y228661D03*
X132829Y128425D03*
Y184016D03*
X132907Y101417D03*
X132947Y19055D03*
X133222Y62756D03*
X133970Y42795D03*
Y44961D03*
Y47126D03*
Y49291D03*
Y57165D03*
X134167Y256614D03*
X134246Y231496D03*
X134325Y27244D03*
Y226220D03*
X135112Y19055D03*
Y97087D03*
X135506Y186535D03*
X135663Y31969D03*
Y34094D03*
Y36299D03*
X136136Y42795D03*
Y44961D03*
Y47126D03*
Y49291D03*
Y57165D03*
X136490Y27244D03*
X137159Y195433D03*
Y256929D03*
X137278Y19055D03*
X137396Y211890D03*
Y214016D03*
X137553Y37480D03*
X137868Y31969D03*
Y34094D03*
X138262Y45591D03*
X138695Y27244D03*
X139049Y221969D03*
X139285Y212992D03*
X139364Y36299D03*
X139443Y19055D03*
X139994Y272520D03*
X140073Y31969D03*
Y34094D03*
Y38504D03*
Y145827D03*
Y147913D03*
Y150079D03*
X140152Y196378D03*
X140703Y67402D03*
X141608Y19055D03*
X141726Y45591D03*
X142199Y34094D03*
Y36299D03*
Y38504D03*
X142278Y145827D03*
Y147913D03*
Y150079D03*
X142435Y213386D03*
X142829Y223071D03*
X142986Y65236D03*
Y272520D03*
X143380Y231181D03*
X143537Y184488D03*
Y186693D03*
Y188898D03*
X143852Y91417D03*
X143931Y87165D03*
Y89291D03*
X144404Y145748D03*
Y147874D03*
Y150079D03*
Y152205D03*
Y154331D03*
X144600Y30236D03*
X145112Y171024D03*
X145348Y79843D03*
X145663Y222126D03*
X145742Y184409D03*
Y186614D03*
Y188819D03*
X145821Y218819D03*
X145978Y91417D03*
X146057Y87165D03*
Y89291D03*
X146136Y31811D03*
Y169213D03*
X146215Y172756D03*
X147238Y170945D03*
X147632Y206929D03*
X147750Y249685D03*
X147789Y203780D03*
X147947Y184409D03*
X148026Y186614D03*
Y188898D03*
Y191102D03*
Y193307D03*
X148183Y87087D03*
Y89213D03*
Y225118D03*
X148262Y138425D03*
Y169134D03*
X148341Y172756D03*
X148656Y209921D03*
X149364Y170945D03*
X149443Y211654D03*
X149837Y176929D03*
X149994Y215984D03*
X150073Y204016D03*
X150152Y184409D03*
Y247087D03*
X150230Y186614D03*
Y188819D03*
Y191024D03*
Y193228D03*
X150309Y32126D03*
Y34331D03*
Y36496D03*
Y38661D03*
Y40827D03*
Y42992D03*
Y45197D03*
X150388Y169134D03*
X150467Y172756D03*
X150624Y218898D03*
X150781Y210394D03*
X151175Y199921D03*
X151490Y170945D03*
X152041Y244724D03*
X152199Y201811D03*
Y204016D03*
X152356Y184409D03*
X152435Y169134D03*
Y186614D03*
Y188819D03*
Y191024D03*
Y193228D03*
X152474Y32126D03*
Y34331D03*
Y36496D03*
Y38661D03*
Y40827D03*
Y42992D03*
Y45197D03*
X152593Y172756D03*
X153380Y89528D03*
Y142441D03*
X153616Y170866D03*
X153715Y196299D03*
X153951Y272520D03*
X154404Y201732D03*
Y203937D03*
X154561Y169055D03*
X154640Y32126D03*
Y34331D03*
Y36496D03*
Y38661D03*
Y40827D03*
Y42992D03*
X154719Y172677D03*
X154837Y82362D03*
X155033Y242756D03*
X155191Y116693D03*
X155742Y179449D03*
Y226850D03*
X156530Y89606D03*
X156608Y201732D03*
Y203937D03*
X156805Y32126D03*
Y34331D03*
Y36496D03*
Y38661D03*
Y40827D03*
Y42992D03*
Y80000D03*
X156923Y252520D03*
X157002Y98661D03*
X157947Y103701D03*
X158026Y242756D03*
X158498Y92126D03*
X158656Y209685D03*
X158970Y32126D03*
Y34331D03*
Y36496D03*
Y38661D03*
Y40827D03*
X159049Y250394D03*
X160152Y43976D03*
X161018Y104094D03*
X161136Y32126D03*
Y34331D03*
Y36496D03*
Y38661D03*
Y40827D03*
X161175Y227165D03*
Y248268D03*
X161805Y84961D03*
X161884Y245354D03*
X162435Y108898D03*
X162986Y88031D03*
X163144Y140787D03*
Y142913D03*
Y145039D03*
X163301Y32126D03*
Y34331D03*
Y36496D03*
Y38661D03*
Y40827D03*
Y42992D03*
X163459Y215748D03*
X163616Y208740D03*
X163695Y152441D03*
Y159055D03*
Y272283D03*
X164089Y64567D03*
Y66850D03*
X164561Y233858D03*
X164640Y71654D03*
X164876Y112087D03*
X164955Y160787D03*
X165033Y139685D03*
Y141811D03*
Y143937D03*
X165467Y32126D03*
Y34331D03*
Y36496D03*
Y38661D03*
Y40827D03*
Y42992D03*
X165978Y65748D03*
X166215Y45039D03*
Y47244D03*
Y152441D03*
Y159055D03*
X166766Y71654D03*
X167081Y91024D03*
X167159Y137559D03*
Y139685D03*
Y141811D03*
X167474Y160787D03*
X167553Y206929D03*
X167632Y122598D03*
X167711Y195827D03*
X167947Y64724D03*
Y66929D03*
X168183Y143622D03*
X168419Y231969D03*
X168577Y158976D03*
X168813Y218268D03*
Y220315D03*
X169285Y137559D03*
Y139685D03*
Y141811D03*
X169758Y160787D03*
X170309Y143622D03*
Y201417D03*
X170388Y203622D03*
Y205827D03*
X170467Y71654D03*
Y207953D03*
X170545Y231969D03*
X170781Y217717D03*
Y219921D03*
X170860Y92283D03*
X171411Y137559D03*
Y139685D03*
Y141811D03*
Y226535D03*
X172435Y143622D03*
X172593Y195512D03*
X173222Y138583D03*
Y140709D03*
X173380Y113150D03*
X175348Y68031D03*
X175663Y125197D03*
X175742Y110157D03*
X177278Y167598D03*
Y172520D03*
X177632Y194961D03*
X178262Y118346D03*
X178734Y132126D03*
Y134173D03*
Y136299D03*
Y138346D03*
Y140551D03*
Y142756D03*
X178813Y227402D03*
X178911Y39783D03*
X179108Y30394D03*
Y32559D03*
Y34724D03*
Y36909D03*
X179443Y149193D03*
X180230Y237795D03*
X180703Y53307D03*
X180939Y132126D03*
Y134173D03*
Y136299D03*
Y138346D03*
Y140551D03*
Y142756D03*
X181333Y233622D03*
X181569Y215906D03*
Y217953D03*
Y220000D03*
X181884Y123543D03*
X182041Y225984D03*
X182356Y231654D03*
X182514Y54488D03*
Y93386D03*
X182593Y52283D03*
X183144Y132126D03*
Y134173D03*
Y136299D03*
Y138346D03*
Y140551D03*
Y142756D03*
X183616Y233543D03*
Y235669D03*
X184581Y39862D03*
X184699Y30236D03*
Y32402D03*
Y34567D03*
Y36752D03*
X185348Y132126D03*
Y134173D03*
Y136299D03*
Y138346D03*
Y142756D03*
X185427Y173504D03*
Y175630D03*
Y177756D03*
Y179882D03*
Y182008D03*
X185742Y231339D03*
Y233465D03*
Y235669D03*
X187396Y195118D03*
Y197323D03*
Y199528D03*
X187553Y103780D03*
Y132126D03*
Y134173D03*
Y136142D03*
Y173504D03*
Y175630D03*
Y177756D03*
Y179882D03*
Y182008D03*
X187947Y237244D03*
X188183Y85906D03*
X189679Y173504D03*
Y175630D03*
Y177756D03*
Y179882D03*
Y182008D03*
X189994Y195118D03*
X190152Y111575D03*
Y237244D03*
X190388Y244016D03*
X190781Y125118D03*
X191805Y173504D03*
Y175630D03*
Y177756D03*
Y179882D03*
Y182008D03*
X192199Y195118D03*
X192356Y135984D03*
X192671Y230787D03*
X193911Y173504D03*
Y175630D03*
Y177756D03*
Y179882D03*
Y182008D03*
X194404Y195118D03*
Y197323D03*
Y199528D03*
Y201654D03*
X194719Y218110D03*
X195348Y130787D03*
Y132913D03*
X196057Y173504D03*
Y175630D03*
Y177756D03*
Y179882D03*
Y182008D03*
X196372Y215118D03*
X196451Y229685D03*
X196530Y225827D03*
X196667Y39882D03*
X196687Y30276D03*
Y32441D03*
Y34606D03*
Y36791D03*
X196963Y73701D03*
X198419Y90236D03*
X199049Y237402D03*
X200152Y144252D03*
X200388Y262126D03*
X200781Y109055D03*
X201175Y88661D03*
X202514Y219685D03*
X202671Y223465D03*
X202986Y228189D03*
X203065Y230394D03*
X203203Y100000D03*
X203301Y64252D03*
X203695Y214016D03*
X203931Y118110D03*
X204167Y88740D03*
X205033Y225906D03*
X205506Y100000D03*
X206215Y216535D03*
X206687Y260157D03*
X207002Y94567D03*
Y96693D03*
X207081Y92598D03*
X208104Y227087D03*
X208498Y59764D03*
X208970Y141890D03*
X209837Y148583D03*
X212986Y221339D03*
X213281Y32441D03*
Y34606D03*
Y36791D03*
X213301Y39862D03*
Y148189D03*
X213380Y113701D03*
Y243937D03*
X213459Y184724D03*
X213695Y240630D03*
X214010Y89134D03*
X214325Y69961D03*
X216372Y32441D03*
Y34606D03*
Y36772D03*
Y38957D03*
X217081Y61496D03*
Y134331D03*
Y142835D03*
X218341Y153819D03*
X218734Y72520D03*
X218813Y118268D03*
X218970Y116220D03*
X219207Y134331D03*
Y136457D03*
Y138583D03*
Y140709D03*
Y142835D03*
X219443Y111732D03*
X220073Y61496D03*
X220152Y59291D03*
X220191Y50472D03*
X220742Y32362D03*
Y34567D03*
Y36732D03*
Y38898D03*
Y41063D03*
Y43228D03*
Y45433D03*
X221018Y104961D03*
X221963Y60551D03*
X222041Y58346D03*
X222907Y32362D03*
Y34567D03*
Y36732D03*
Y38898D03*
Y41063D03*
Y43228D03*
Y45433D03*
Y47638D03*
Y52008D03*
Y54173D03*
Y56378D03*
X223144Y88661D03*
Y90787D03*
X223222Y84094D03*
X223380Y191339D03*
X224089Y62520D03*
X224167Y60315D03*
X224246Y58189D03*
X224325Y80591D03*
Y196220D03*
X224522Y76654D03*
X225073Y32362D03*
Y34567D03*
Y36732D03*
Y38898D03*
Y41063D03*
Y43228D03*
Y45433D03*
Y47638D03*
Y49843D03*
Y52047D03*
X226411Y192244D03*
Y194449D03*
Y198858D03*
X226451Y190039D03*
Y196654D03*
X226530Y187953D03*
X227238Y32283D03*
Y34488D03*
Y36654D03*
Y38819D03*
Y40984D03*
Y43150D03*
Y45354D03*
Y49843D03*
Y52047D03*
X227278Y47638D03*
X228577Y192244D03*
Y194449D03*
Y198858D03*
Y201063D03*
X228616Y190039D03*
Y196654D03*
X228656Y187913D03*
X229404Y32283D03*
Y34488D03*
Y36654D03*
Y38819D03*
Y40984D03*
Y43150D03*
Y45354D03*
Y49843D03*
Y52047D03*
X229443Y47638D03*
D02*
D70*
X175703Y273602D03*
X189581Y48996D03*
D02*
D73*
X22455Y98917D03*
Y108839D03*
Y118799D03*
Y128740D03*
Y138681D03*
D02*
D83*
X198183Y35039D03*
D02*
D84*
X65722Y35197D03*
X210841Y35039D03*
D02*
D85*
X188439D03*
D02*
D86*
X28183Y34154D03*
D02*
D87*
X39482Y34134D03*
D02*
D88*
X174266Y35118D03*
D02*
D89*
X14344Y34134D03*
D02*
D90*
X127533Y130591D03*
X127553Y140571D03*
X135703Y130492D03*
X135722Y140531D03*
D02*
D93*
X39482Y34134D02*
X40230Y34882D01*
Y51969*
X44561Y56299*
X46451*
X48656Y58504*
X57238*
X61096Y62362*
Y87953*
X42593Y267480D02*
X44797D01*
X44285Y90335D03*
X48341D03*
X52396D03*
X131096Y82913D02*
X138970D01*
X139758Y83701*
X149915*
X152435Y86220*
X157947*
X159758Y88031*
X162986*
X164089Y64567D02*
X167789D01*
X164089Y66850D02*
X167868D01*
X220073Y88110D02*
Y90315D01*
X220545Y90787*
X223144*
X220703Y88740D02*
X223144D01*
Y88661*
Y90787*
X222907*
D02*
D95*
X28892Y278268D03*
X48577D03*
D02*
D96*
X24955Y288898D03*
X52514D03*
D02*
D98*
X189108Y273012D03*
X206825D03*
D02*
D99*
X184187Y262776D03*
X211746D03*
D02*
D104*
X109409Y45404D03*
Y48504D03*
Y51604D03*
X112459Y45404D03*
Y48504D03*
Y51604D03*
D02*
D112*
X19404Y155787D03*
Y160512D03*
X21569Y151260D03*
X37002Y92598D03*
X38026Y87874D03*
X57396Y90236D03*
X58577Y158543D03*
X74719Y84409D03*
X81254Y52283D03*
X106451Y230079D03*
X164974Y149134D03*
Y155787D03*
X169600Y53150D03*
X175978D03*
D02*
D113*
X13813Y245118D03*
D02*
D114*
X123734Y170472D02*
X122829D01*
D02*
D115*
Y209764D01*
X118498Y214094*
Y235591*
X92671Y261417*
X64246*
D02*
D116*
Y261496D01*
D02*
D117*
X43774D01*
D02*
D118*
X23301Y270472D02*
Y272047D01*
X24955Y273701*
X58498*
X59600Y272598*
X70309Y272520*
X36215Y142677D02*
Y131496D01*
X41490Y126220*
Y112205*
X64010Y89685*
Y80709*
X68419Y76299*
X83222*
X92829Y66693*
X132278*
X38813Y283150D02*
X55033D01*
X69522Y267874D02*
Y267756D01*
X69325Y267559*
X95978*
X108734Y254803*
X93301Y163858D02*
Y164173D01*
X100545Y171417*
X122789*
X123734Y170472*
X106293Y76693D02*
X105348Y75748D01*
X94876*
X91569Y79055*
X69049*
X66608Y81496*
Y91339*
X43852Y114094*
Y141339*
X41333Y143858*
X132829Y184016D02*
Y189961D01*
X131963Y190827*
Y221575*
X124876Y228661*
Y238189*
X119049Y244016*
Y247953*
X117238Y249764*
X113774*
X108734Y254803*
X135506Y186535D02*
Y191417D01*
X134404Y192520*
Y222441*
X127396Y229449*
Y239134*
X121490Y245039*
Y248898*
X117789Y252598*
X116530*
X99207Y269921*
X72022*
X70309Y271634*
Y272520*
X160152Y43976D02*
Y53071D01*
X164167Y57087*
X212671*
X217081Y61496*
D02*
D119*
X168498Y78504D03*
D02*
D120*
X188026D01*
X192750Y83228*
X206451*
X208656Y85433*
X217396*
X220073Y88110*
X220703Y88740*
D02*
D121*
X49128Y66299D03*
X55900Y66063D03*
X132671Y146457D03*
D02*
D122*
X184404Y64016D03*
X0Y0D02*
M02*
