G04 EasyPC Gerber Version 21.0.3 Build 4286 *
G04 #@! TF.Part,Single*
G04 #@! TF.FileFunction,Drillmap *
G04 #@! TF.FilePolarity,Positive *
%FSLAX35Y35*%
%MOIN*%
%ADD10C,0.00500*%
G04 #@! TA.AperFunction,WasherPad*
%ADD107C,0.10000*%
X0Y0D02*
D02*
D10*
X14404Y37945D02*
X15966Y41695D01*
X17529Y37945*
X15029Y39508D02*
X16904D01*
X14404Y40150D02*
X15966Y43900D01*
X17529Y40150*
X15029Y41713D02*
X16904D01*
X14404Y42315D02*
X15966Y46065D01*
X17529Y42315*
X15029Y43878D02*
X16904D01*
X14404Y44481D02*
X15966Y48231D01*
X17529Y44481*
X15029Y46043D02*
X16904D01*
X14404Y46646D02*
X15966Y50396D01*
X17529Y46646*
X15029Y48209D02*
X16904D01*
X14404Y48811D02*
X15966Y52561D01*
X17529Y48811*
X15029Y50374D02*
X16904D01*
X14404Y51016D02*
X15966Y54766D01*
X17529Y51016*
X15029Y52579D02*
X16904D01*
X18026Y40741D02*
X19588Y44491D01*
X21151Y40741*
X18651Y42303D02*
X20526D01*
X18065Y37748D02*
X19628Y41498D01*
X21190Y37748*
X18690Y39311D02*
X20565D01*
X21884Y159323D02*
X23446Y163073D01*
X25009Y159323*
X22509Y160886D02*
X24384D01*
X21884Y161528D02*
X23446Y165278D01*
X25009Y161528*
X22509Y163091D02*
X24384D01*
X21884Y163733D02*
X23446Y167483D01*
X25009Y163733*
X22509Y165295D02*
X24384D01*
X21884Y165937D02*
X23446Y169687D01*
X25009Y165937*
X22509Y167500D02*
X24384D01*
X21963Y168142D02*
X23525Y171892D01*
X25088Y168142*
X22588Y169705D02*
X24463D01*
X21963Y170347D02*
X23525Y174097D01*
X25088Y170347*
X22588Y171909D02*
X24463D01*
X21963Y172552D02*
X23525Y176302D01*
X25088Y172552*
X22588Y174114D02*
X24463D01*
X21963Y174756D02*
X23525Y178506D01*
X25088Y174756*
X22588Y176319D02*
X24463D01*
X22593Y100662D02*
X24155Y104412D01*
X25718Y100662*
X23218Y102224D02*
X25093D01*
X22593Y102867D02*
X24155Y106617D01*
X25718Y102867*
X23218Y104429D02*
X25093D01*
X22593Y105032D02*
X24155Y108782D01*
X25718Y105032*
X23218Y106594D02*
X25093D01*
X22593Y107197D02*
X24155Y110947D01*
X25718Y107197*
X23218Y108760D02*
X25093D01*
X22593Y109363D02*
X24155Y113113D01*
X25718Y109363*
X23218Y110925D02*
X25093D01*
X22593Y111528D02*
X24155Y115278D01*
X25718Y111528*
X23218Y113091D02*
X25093D01*
X22593Y113733D02*
X24155Y117483D01*
X25718Y113733*
X23218Y115295D02*
X25093D01*
X22593Y118221D02*
X24155Y121971D01*
X25718Y118221*
X23218Y119783D02*
X25093D01*
X22632Y96252D02*
X24194Y100002D01*
X25757Y96252*
X23257Y97815D02*
X25132D01*
X22632Y98457D02*
X24194Y102207D01*
X25757Y98457*
X23257Y100020D02*
X25132D01*
X22632Y116016D02*
X24194Y119766D01*
X25757Y116016*
X23257Y117579D02*
X25132D01*
X22829Y215937D02*
X24391Y219687D01*
X25954Y215937*
X23454Y217500D02*
X25329D01*
X22868Y54599D02*
X24431Y58349D01*
X25993Y54599*
X23493Y56161D02*
X25368D01*
X22868Y56804D02*
X24431Y60554D01*
X25993Y56804*
X23493Y58366D02*
X25368D01*
X22868Y59008D02*
X24431Y62758D01*
X25993Y59008*
X23493Y60571D02*
X25368D01*
X22868Y61213D02*
X24431Y64963D01*
X25993Y61213*
X23493Y62776D02*
X25368D01*
X22868Y63378D02*
X24431Y67128D01*
X25993Y63378*
X23493Y64941D02*
X25368D01*
X22868Y65544D02*
X24431Y69294D01*
X25993Y65544*
X23493Y67106D02*
X25368D01*
X22868Y67709D02*
X24431Y71459D01*
X25993Y67709*
X23493Y69272D02*
X25368D01*
X22868Y69874D02*
X24431Y73624D01*
X25993Y69874*
X23493Y71437D02*
X25368D01*
X22868Y72079D02*
X24431Y75829D01*
X25993Y72079*
X23493Y73642D02*
X25368D01*
X22868Y74284D02*
X24431Y78034D01*
X25993Y74284*
X23493Y75846D02*
X25368D01*
X22868Y76489D02*
X24431Y80239D01*
X25993Y76489*
X23493Y78051D02*
X25368D01*
X22947Y94048D02*
X24509Y97798D01*
X26072Y94048*
X23572Y95610D02*
X25447D01*
X23813Y251056D02*
Y254806D01*
Y252931D02*
X24750D01*
X26938Y254806*
X24750Y252931D02*
X26938Y251056D01*
X24719Y96095D02*
X26281Y99845D01*
X27844Y96095*
X25344Y97657D02*
X27219D01*
X24955Y215937D02*
X26517Y219687D01*
X28080Y215937*
X25580Y217500D02*
X27455D01*
X24955Y218063D02*
X26517Y221813D01*
X28080Y218063*
X25580Y219626D02*
X27455D01*
X24955Y220189D02*
X26517Y223939D01*
X28080Y220189*
X25580Y221752D02*
X27455D01*
X24955Y222315D02*
X26517Y226065D01*
X28080Y222315*
X25580Y223878D02*
X27455D01*
X25033Y56725D02*
X26596Y60475D01*
X28159Y56725*
X25659Y58287D02*
X27533D01*
X25033Y58930D02*
X26596Y62680D01*
X28159Y58930*
X25659Y60492D02*
X27533D01*
X25033Y61134D02*
X26596Y64884D01*
X28159Y61134*
X25659Y62697D02*
X27533D01*
X25033Y63300D02*
X26596Y67050D01*
X28159Y63300*
X25659Y64862D02*
X27533D01*
X25033Y65465D02*
X26596Y69215D01*
X28159Y65465*
X25659Y67028D02*
X27533D01*
X25033Y67630D02*
X26596Y71380D01*
X28159Y67630*
X25659Y69193D02*
X27533D01*
X25033Y69796D02*
X26596Y73546D01*
X28159Y69796*
X25659Y71358D02*
X27533D01*
X25033Y72000D02*
X26596Y75750D01*
X28159Y72000*
X25659Y73563D02*
X27533D01*
X25073Y54520D02*
X26635Y58270D01*
X28198Y54520*
X25698Y56083D02*
X27573D01*
X25073Y74284D02*
X26635Y78034D01*
X28198Y74284*
X25698Y75846D02*
X27573D01*
X25112Y91764D02*
X26675Y95514D01*
X28237Y91764*
X25737Y93327D02*
X27612D01*
X25152Y94048D02*
X26714Y97798D01*
X28277Y94048*
X25777Y95610D02*
X27652D01*
X25860Y185937D02*
X27423Y189687D01*
X28985Y185937*
X26485Y187500D02*
X28360D01*
X25860Y195189D02*
X27423Y198939D01*
X28985Y195189*
X26485Y196752D02*
X28360D01*
X25860Y207394D02*
X27423Y211144D01*
X28985Y207394*
X26485Y208957D02*
X28360D01*
X27199Y56725D02*
X28761Y60475D01*
X30324Y56725*
X27824Y58287D02*
X29699D01*
X27199Y58930D02*
X28761Y62680D01*
X30324Y58930*
X27824Y60492D02*
X29699D01*
X27199Y61134D02*
X28761Y64884D01*
X30324Y61134*
X27824Y62697D02*
X29699D01*
X27199Y63300D02*
X28761Y67050D01*
X30324Y63300*
X27824Y64862D02*
X29699D01*
X27199Y65465D02*
X28761Y69215D01*
X30324Y65465*
X27824Y67028D02*
X29699D01*
X27199Y67630D02*
X28761Y71380D01*
X30324Y67630*
X27824Y69193D02*
X29699D01*
X27199Y69796D02*
X28761Y73546D01*
X30324Y69796*
X27824Y71358D02*
X29699D01*
X27199Y72000D02*
X28761Y75750D01*
X30324Y72000*
X27824Y73563D02*
X29699D01*
X27238Y54441D02*
X28801Y58191D01*
X30363Y54441*
X27863Y56004D02*
X29738D01*
X27238Y93890D02*
X28801Y97640D01*
X30363Y93890*
X27863Y95453D02*
X29738D01*
X27278Y89559D02*
X28840Y93309D01*
X30403Y89559*
X27903Y91122D02*
X29778D01*
X27278Y91764D02*
X28840Y95514D01*
X30403Y91764*
X27903Y93327D02*
X29778D01*
X28734Y151370D02*
X30297Y155120D01*
X31859Y151370*
X29359Y152933D02*
X31234D01*
X28734Y153575D02*
X30297Y157325D01*
X31859Y153575*
X29359Y155138D02*
X31234D01*
X29049Y175859D02*
X30612Y179609D01*
X32174Y175859*
X29674Y177421D02*
X31549D01*
X29049Y178063D02*
X30612Y181813D01*
X32174Y178063*
X29674Y179626D02*
X31549D01*
X29128Y180268D02*
X30691Y184018D01*
X32253Y180268*
X29753Y181831D02*
X31628D01*
X29128Y188930D02*
X30691Y192680D01*
X32253Y188930*
X29753Y190492D02*
X31628D01*
X29128Y191095D02*
X30691Y194845D01*
X32253Y191095*
X29753Y192657D02*
X31628D01*
X29128Y193260D02*
X30691Y197010D01*
X32253Y193260*
X29753Y194823D02*
X31628D01*
X29128Y195426D02*
X30691Y199176D01*
X32253Y195426*
X29753Y196988D02*
X31628D01*
X29128Y197591D02*
X30691Y201341D01*
X32253Y197591*
X29753Y199154D02*
X31628D01*
X29128Y199756D02*
X30691Y203506D01*
X32253Y199756*
X29753Y201319D02*
X31628D01*
X29128Y201961D02*
X30691Y205711D01*
X32253Y201961*
X29753Y203524D02*
X31628D01*
X29128Y204166D02*
X30691Y207916D01*
X32253Y204166*
X29753Y205728D02*
X31628D01*
X29128Y208654D02*
X30691Y212404D01*
X32253Y208654*
X29753Y210217D02*
X31628D01*
X29167Y206449D02*
X30730Y210199D01*
X32293Y206449*
X29793Y208012D02*
X31667D01*
X29404Y54441D02*
X30966Y58191D01*
X32529Y54441*
X30029Y56004D02*
X31904D01*
X29404Y58851D02*
X30966Y62601D01*
X32529Y58851*
X30029Y60413D02*
X31904D01*
X29404Y61056D02*
X30966Y64806D01*
X32529Y61056*
X30029Y62618D02*
X31904D01*
X29404Y63221D02*
X30966Y66971D01*
X32529Y63221*
X30029Y64783D02*
X31904D01*
X29404Y65386D02*
X30966Y69136D01*
X32529Y65386*
X30029Y66949D02*
X31904D01*
X29404Y67552D02*
X30966Y71302D01*
X32529Y67552*
X30029Y69114D02*
X31904D01*
X29404Y69717D02*
X30966Y73467D01*
X32529Y69717*
X30029Y71280D02*
X31904D01*
X29404Y87473D02*
X30966Y91223D01*
X32529Y87473*
X30029Y89035D02*
X31904D01*
X29404Y89638D02*
X30966Y93388D01*
X32529Y89638*
X30029Y91201D02*
X31904D01*
X29404Y91843D02*
X30966Y95593D01*
X32529Y91843*
X30029Y93406D02*
X31904D01*
X29404Y162350D02*
X29716Y162037D01*
X30341Y161725*
X30966Y162037*
X31279Y162350*
Y165475*
X31904*
X31279D02*
X30029D01*
X29404Y167074D02*
X29716Y166762D01*
X30341Y166449*
X30966Y166762*
X31279Y167074*
Y170199*
X31904*
X31279D02*
X30029D01*
X29443Y56646D02*
X31006Y60396D01*
X32568Y56646*
X30068Y58209D02*
X31943D01*
X30565Y101430D02*
X32128Y105180D01*
X33690Y101430*
X31190Y102992D02*
X33065D01*
X30565Y131252D02*
X32128Y135002D01*
X33690Y131252*
X31190Y132815D02*
X33065D01*
X30565Y141213D02*
X32128Y144963D01*
X33690Y141213*
X31190Y142776D02*
X33065D01*
X30585Y121351D02*
X32147Y125101D01*
X33710Y121351*
X31210Y122913D02*
X33085D01*
X30703Y111449D02*
X32265Y115199D01*
X33828Y111449*
X31328Y113012D02*
X33203D01*
X30900Y151370D02*
X32462Y155120D01*
X34025Y151370*
X31525Y152933D02*
X33400D01*
X30900Y153575D02*
X32462Y157325D01*
X34025Y153575*
X31525Y155138D02*
X33400D01*
X31215Y178063D02*
X32777Y181813D01*
X34340Y178063*
X31840Y179626D02*
X33715D01*
X31293Y175937D02*
X32856Y179687D01*
X34419Y175937*
X31919Y177500D02*
X33793D01*
X31293Y180268D02*
X32856Y184018D01*
X34419Y180268*
X31919Y181831D02*
X33793D01*
X31293Y182473D02*
X32856Y186223D01*
X34419Y182473*
X31919Y184035D02*
X33793D01*
X31333Y189087D02*
X32895Y192837D01*
X34458Y189087*
X31958Y190650D02*
X33833D01*
X31333Y191252D02*
X32895Y195002D01*
X34458Y191252*
X31958Y192815D02*
X33833D01*
X31333Y193418D02*
X32895Y197168D01*
X34458Y193418*
X31958Y194980D02*
X33833D01*
X31333Y195583D02*
X32895Y199333D01*
X34458Y195583*
X31958Y197146D02*
X33833D01*
X31569Y65307D02*
X33131Y69057D01*
X34694Y65307*
X32194Y66870D02*
X34069D01*
X31569Y67473D02*
X33131Y71223D01*
X34694Y67473*
X32194Y69035D02*
X34069D01*
X31569Y85229D02*
X33131Y88979D01*
X34694Y85229*
X32194Y86791D02*
X34069D01*
X31569Y87394D02*
X33131Y91144D01*
X34694Y87394*
X32194Y88957D02*
X34069D01*
X31569Y89559D02*
X33131Y93309D01*
X34694Y89559*
X32194Y91122D02*
X34069D01*
X31569Y91764D02*
X33131Y95514D01*
X34694Y91764*
X32194Y93327D02*
X34069D01*
X31569Y157822D02*
X31881Y157510D01*
X32506Y157197*
X33131Y157510*
X33444Y157822*
Y160947*
X34069*
X33444D02*
X32194D01*
X33065Y151370D02*
X34628Y155120D01*
X36190Y151370*
X33690Y152933D02*
X35565D01*
X33065Y153575D02*
X34628Y157325D01*
X36190Y153575*
X33690Y155138D02*
X35565D01*
X33301Y276410D02*
X34864Y280160D01*
X36426Y276410*
X33926Y277972D02*
X35801D01*
X33734Y65307D02*
X35297Y69057D01*
X36859Y65307*
X34359Y66870D02*
X36234D01*
X33734Y83063D02*
X35297Y86813D01*
X36859Y83063*
X34359Y84626D02*
X36234D01*
X33734Y85229D02*
X35297Y88979D01*
X36859Y85229*
X34359Y86791D02*
X36234D01*
X33734Y87394D02*
X35297Y91144D01*
X36859Y87394*
X34359Y88957D02*
X36234D01*
X33734Y89559D02*
X35297Y93309D01*
X36859Y89559*
X34359Y91122D02*
X36234D01*
X37142Y296398D02*
X38080D01*
Y296085*
X37767Y295460*
X37455Y295148*
X36830Y294835*
X36205*
X35580Y295148*
X35267Y295460*
X34955Y296085*
Y297335*
X35267Y297960*
X35580Y298273*
X36205Y298585*
X36830*
X37455Y298273*
X37767Y297960*
X38080Y297335*
X35860Y80819D02*
X37423Y84569D01*
X38985Y80819*
X36485Y82382D02*
X38360D01*
X35860Y82985D02*
X37423Y86735D01*
X38985Y82985*
X36485Y84547D02*
X38360D01*
X35860Y85150D02*
X37423Y88900D01*
X38985Y85150*
X36485Y86713D02*
X38360D01*
X35860Y87315D02*
X37423Y91065D01*
X38985Y87315*
X36485Y88878D02*
X38360D01*
X36293Y256804D02*
X37856Y260554D01*
X39419Y256804*
X36919Y258366D02*
X38793D01*
X37396Y79323D02*
X38958Y83073D01*
X40521Y79323*
X38021Y80886D02*
X39896D01*
X37553Y84048D02*
X39116Y87798D01*
X40678Y84048*
X38178Y85610D02*
X40053D01*
X37632Y81843D02*
X39194Y85593D01*
X40757Y81843*
X38257Y83406D02*
X40132D01*
X38262Y113260D02*
X39824Y117010D01*
X41387Y113260*
X38887Y114823D02*
X40762D01*
X38262Y156725D02*
X39824Y160475D01*
X41387Y156725*
X38887Y158287D02*
X40762D01*
X38321Y43693D02*
X39883Y47443D01*
X41446Y43693*
X38946Y45256D02*
X40821D01*
X38419Y133733D02*
X39982Y137483D01*
X41544Y133733*
X39044Y135295D02*
X40919D01*
X38419Y135898D02*
X39982Y139648D01*
X41544Y135898*
X39044Y137461D02*
X40919D01*
X38419Y138063D02*
X39982Y141813D01*
X41544Y138063*
X39044Y139626D02*
X40919D01*
X38419Y140229D02*
X39982Y143979D01*
X41544Y140229*
X39044Y141791D02*
X40919D01*
X38419Y142394D02*
X39982Y146144D01*
X41544Y142394*
X39044Y143957D02*
X40919D01*
X38419Y144599D02*
X39982Y148349D01*
X41544Y144599*
X39044Y146161D02*
X40919D01*
X38419Y149087D02*
X39982Y152837D01*
X41544Y149087*
X39044Y150650D02*
X40919D01*
X38459Y146882D02*
X40021Y150632D01*
X41584Y146882*
X39084Y148445D02*
X40959D01*
X38892Y284205D02*
Y287955D01*
X42017*
X41392Y286080D02*
X38892D01*
X39285Y115150D02*
X40848Y118900D01*
X42411Y115150*
X39911Y116713D02*
X41785D01*
X39600Y132079D02*
X41163Y135829D01*
X42726Y132079*
X40226Y133642D02*
X42100D01*
X40073Y43693D02*
X41635Y47443D01*
X43198Y43693*
X40698Y45256D02*
X42573D01*
X40230Y100977D02*
X41793Y104727D01*
X43356Y100977*
X40856Y102539D02*
X42730D01*
X40230Y103260D02*
X41793Y107010D01*
X43356Y103260*
X40856Y104823D02*
X42730D01*
X40230Y105426D02*
X41793Y109176D01*
X43356Y105426*
X40856Y106988D02*
X42730D01*
X40230Y107591D02*
X41793Y111341D01*
X43356Y107591*
X40856Y109154D02*
X42730D01*
X40467Y97197D02*
X42029Y100947D01*
X43592Y97197*
X41092Y98760D02*
X42967D01*
X40467Y111056D02*
X42029Y114806D01*
X43592Y111056*
X41092Y112618D02*
X42967D01*
X40467Y113260D02*
X42029Y117010D01*
X43592Y113260*
X41092Y114823D02*
X42967D01*
X40545Y133890D02*
X42108Y137640D01*
X43670Y133890*
X41170Y135453D02*
X43045D01*
X40545Y136056D02*
X42108Y139806D01*
X43670Y136056*
X41170Y137618D02*
X43045D01*
X40545Y138221D02*
X42108Y141971D01*
X43670Y138221*
X41170Y139783D02*
X43045D01*
X40545Y140386D02*
X42108Y144136D01*
X43670Y140386*
X41170Y141949D02*
X43045D01*
X40545Y142552D02*
X42108Y146302D01*
X43670Y142552*
X41170Y144114D02*
X43045D01*
X40545Y144756D02*
X42108Y148506D01*
X43670Y144756*
X41170Y146319D02*
X43045D01*
X40545Y149244D02*
X42108Y152994D01*
X43670Y149244*
X41170Y150807D02*
X43045D01*
X40545Y151449D02*
X42108Y155199D01*
X43670Y151449*
X41170Y153012D02*
X43045D01*
X40585Y147040D02*
X42147Y150790D01*
X43710Y147040*
X41210Y148602D02*
X43085D01*
X41411Y99087D02*
X42974Y102837D01*
X44537Y99087*
X42037Y100650D02*
X43911D01*
X41411Y115111D02*
X42974Y118861D01*
X44537Y115111*
X42037Y116673D02*
X43911D01*
X41411Y117355D02*
X42974Y121105D01*
X44537Y117355*
X42037Y118917D02*
X43911D01*
X41411Y119638D02*
X42974Y123388D01*
X44537Y119638*
X42037Y121201D02*
X43911D01*
X41411Y121804D02*
X42974Y125554D01*
X44537Y121804*
X42037Y123366D02*
X43911D01*
X41411Y123969D02*
X42974Y127719D01*
X44537Y123969*
X42037Y125531D02*
X43911D01*
X42120Y223083D02*
X43683Y226833D01*
X45245Y223083*
X42745Y224646D02*
X44620D01*
X42199Y173339D02*
X43761Y177089D01*
X45324Y173339*
X42824Y174902D02*
X44699D01*
X42278Y218063D02*
X43840Y221813D01*
X45403Y218063*
X42903Y219626D02*
X44778D01*
X42356Y101016D02*
X43919Y104766D01*
X45481Y101016*
X42981Y102579D02*
X44856D01*
X42356Y103260D02*
X43919Y107010D01*
X45481Y103260*
X42981Y104823D02*
X44856D01*
X42356Y105544D02*
X43919Y109294D01*
X45481Y105544*
X42981Y107106D02*
X44856D01*
X42514Y94441D02*
X44076Y98191D01*
X45639Y94441*
X43139Y96004D02*
X45014D01*
X42514Y96567D02*
X44076Y100317D01*
X45639Y96567*
X43139Y98130D02*
X45014D01*
X42907Y178063D02*
X44470Y181813D01*
X46033Y178063*
X43533Y179626D02*
X45407D01*
X43222Y161292D02*
X44785Y165042D01*
X46348Y161292*
X43848Y162854D02*
X45722D01*
X43222Y163496D02*
X44785Y167246D01*
X46348Y163496*
X43848Y165059D02*
X45722D01*
X43380Y185741D02*
X44943Y189491D01*
X46505Y185741*
X44005Y187303D02*
X45880D01*
X43380Y204835D02*
X44943Y208585D01*
X46505Y204835*
X44005Y206398D02*
X45880D01*
X43537Y98772D02*
X45100Y102522D01*
X46663Y98772*
X44163Y100335D02*
X46037D01*
X43970Y190662D02*
X45533Y194412D01*
X47096Y190662*
X44596Y192224D02*
X46470D01*
X44246Y200426D02*
X45809Y204176D01*
X47371Y200426*
X44871Y201988D02*
X46746D01*
X44364Y213103D02*
X45927Y216853D01*
X47489Y213103*
X44989Y214665D02*
X46864D01*
X44482Y259717D02*
X46045Y263467D01*
X47607Y259717*
X45107Y261280D02*
X46982D01*
X44482Y261922D02*
X46045Y265672D01*
X47607Y261922*
X45107Y263484D02*
X46982D01*
X44561Y93811D02*
X46124Y97561D01*
X47686Y93811*
X45186Y95374D02*
X47061D01*
X44561Y101095D02*
X46124Y104845D01*
X47686Y101095*
X45186Y102657D02*
X47061D01*
X44561Y103339D02*
X46124Y107089D01*
X47686Y103339*
X45186Y104902D02*
X47061D01*
X44561Y105622D02*
X46124Y109372D01*
X47686Y105622*
X45186Y107185D02*
X47061D01*
X44640Y96016D02*
X46202Y99766D01*
X47765Y96016*
X45265Y97579D02*
X47140D01*
X45191Y91764D02*
X46754Y95514D01*
X48316Y91764*
X45816Y93327D02*
X47691D01*
X45663Y175544D02*
X47226Y179294D01*
X48789Y175544*
X46289Y177106D02*
X48163D01*
X46215Y148615D02*
X47777Y152365D01*
X49340Y148615*
X46840Y150177D02*
X48715D01*
X46451Y102237D02*
X48013Y105987D01*
X49576Y102237*
X47076Y103799D02*
X48951D01*
X46451Y104520D02*
X48013Y108270D01*
X49576Y104520*
X47076Y106083D02*
X48951D01*
X46687Y259717D02*
X48250Y263467D01*
X49812Y259717*
X47312Y261280D02*
X49187D01*
X46687Y261922D02*
X48250Y265672D01*
X49812Y261922*
X47312Y263484D02*
X49187D01*
X46844Y168693D02*
X48407Y172443D01*
X49970Y168693*
X47470Y170256D02*
X49344D01*
X46923Y90583D02*
X48486Y94333D01*
X50048Y90583*
X47548Y92146D02*
X49423D01*
X47002Y99161D02*
X47315Y98848D01*
X47939Y98536*
X48565Y98848*
X48877Y99161*
Y102286*
X49502*
X48877D02*
X47627D01*
X47317Y210741D02*
X48880Y214491D01*
X50442Y210741*
X47942Y212303D02*
X49817D01*
X47789Y175544D02*
X49352Y179294D01*
X50915Y175544*
X48415Y177106D02*
X50289D01*
X48026Y94437D02*
X48338Y94124D01*
X48963Y93811*
X49588Y94124*
X49901Y94437*
Y97561*
X50526*
X49901D02*
X48651D01*
X48656Y140898D02*
X50218Y144648D01*
X51781Y140898*
X49281Y142461D02*
X51156D01*
X48656Y143103D02*
X50218Y146853D01*
X51781Y143103*
X49281Y144665D02*
X51156D01*
X48656Y145229D02*
X50218Y148979D01*
X51781Y145229*
X49281Y146791D02*
X51156D01*
X48813Y289087D02*
X50376Y292837D01*
X51938Y289087*
X49438Y290650D02*
X51313D01*
X49679Y89244D02*
X51242Y92994D01*
X52804Y89244*
X50304Y90807D02*
X52179D01*
X49679Y139166D02*
X51242Y142916D01*
X52804Y139166*
X50304Y140728D02*
X52179D01*
X49758Y146961D02*
X51320Y150711D01*
X52883Y146961*
X50383Y148524D02*
X52258D01*
X49915Y202000D02*
X51478Y205750D01*
X53041Y202000*
X50541Y203563D02*
X52415D01*
X50624Y169166D02*
X52187Y172916D01*
X53749Y169166*
X51249Y170728D02*
X53124D01*
X50703Y140977D02*
X52265Y144727D01*
X53828Y140977*
X51328Y142539D02*
X53203D01*
X50860Y143103D02*
X52423Y146853D01*
X53985Y143103*
X51485Y144665D02*
X53360D01*
X50860Y145229D02*
X52423Y148979D01*
X53985Y145229*
X51485Y146791D02*
X53360D01*
X50900Y220622D02*
X52462Y224372D01*
X54025Y220622*
X51525Y222185D02*
X53400D01*
X50900Y222788D02*
X52462Y226538D01*
X54025Y222788*
X51525Y224350D02*
X53400D01*
X50900Y224953D02*
X52462Y228703D01*
X54025Y224953*
X51525Y226516D02*
X53400D01*
X50900Y227119D02*
X52462Y230869D01*
X54025Y227119*
X51525Y228681D02*
X53400D01*
X51333Y149796D02*
X52895Y153546D01*
X54458Y149796*
X51958Y151358D02*
X53833D01*
X51569Y267197D02*
X53131Y270947D01*
X54694Y267197*
X52194Y268760D02*
X54069D01*
X51569Y269402D02*
X53131Y273152D01*
X54694Y269402*
X52194Y270965D02*
X54069D01*
X51569Y271607D02*
X53131Y275357D01*
X54694Y271607*
X52194Y273169D02*
X54069D01*
X51805Y200898D02*
X53368Y204648D01*
X54930Y200898*
X52430Y202461D02*
X54305D01*
X51805Y203103D02*
X53368Y206853D01*
X54930Y203103*
X52430Y204665D02*
X54305D01*
X52593Y273418D02*
X54155Y277168D01*
X55718Y273418*
X53218Y274980D02*
X55093D01*
X53065Y220622D02*
X54628Y224372D01*
X56190Y220622*
X53690Y222185D02*
X55565D01*
X53065Y222788D02*
X54628Y226538D01*
X56190Y222788*
X53690Y224350D02*
X55565D01*
X53065Y224953D02*
X54628Y228703D01*
X56190Y224953*
X53690Y226516D02*
X55565D01*
X53065Y227119D02*
X54628Y230869D01*
X56190Y227119*
X53690Y228681D02*
X55565D01*
X53774Y262788D02*
X55336Y266538D01*
X56899Y262788*
X54399Y264350D02*
X56274D01*
X53774Y264993D02*
X55336Y268743D01*
X56899Y264993*
X54399Y266555D02*
X56274D01*
X53774Y267433D02*
X55336Y271183D01*
X56899Y267433*
X54399Y268996D02*
X56274D01*
X53774Y269402D02*
X55336Y273152D01*
X56899Y269402*
X54399Y270965D02*
X56274D01*
X53774Y271607D02*
X55336Y275357D01*
X56899Y271607*
X54399Y273169D02*
X56274D01*
X54010Y200898D02*
X55572Y204648D01*
X57135Y200898*
X54635Y202461D02*
X56510D01*
X54010Y203103D02*
X55572Y206853D01*
X57135Y203103*
X54635Y204665D02*
X56510D01*
X54069Y43634D02*
X55631Y47384D01*
X57194Y43634*
X54694Y45197D02*
X56569D01*
X54089Y37788D02*
X55651Y41538D01*
X57214Y37788*
X54714Y39350D02*
X56589D01*
X54089Y40760D02*
X55651Y44510D01*
X57214Y40760*
X54714Y42323D02*
X56589D01*
X54285Y96272D02*
X55848Y100022D01*
X57411Y96272*
X54911Y97835D02*
X56785D01*
X54797Y273418D02*
X56360Y277168D01*
X57922Y273418*
X55422Y274980D02*
X57297D01*
X55230Y220701D02*
X56793Y224451D01*
X58356Y220701*
X55856Y222264D02*
X57730D01*
X55230Y222867D02*
X56793Y226617D01*
X58356Y222867*
X55856Y224429D02*
X57730D01*
X55230Y225032D02*
X56793Y228782D01*
X58356Y225032*
X55856Y226594D02*
X57730D01*
X55230Y227197D02*
X56793Y230947D01*
X58356Y227197*
X55856Y228760D02*
X57730D01*
X55978Y265307D02*
X57541Y269057D01*
X59104Y265307*
X56604Y266870D02*
X58478D01*
X55978Y267512D02*
X57541Y271262D01*
X59104Y267512*
X56604Y269075D02*
X58478D01*
X55978Y269717D02*
X57541Y273467D01*
X59104Y269717*
X56604Y271280D02*
X58478D01*
X55978Y271764D02*
X57541Y275514D01*
X59104Y271764*
X56604Y273327D02*
X58478D01*
X56608Y192630D02*
X58171Y196380D01*
X59733Y192630*
X57233Y194193D02*
X59108D01*
X57396Y212079D02*
X58958Y215829D01*
X60521Y212079*
X58021Y213642D02*
X59896D01*
X57396Y220701D02*
X58958Y224451D01*
X60521Y220701*
X58021Y222264D02*
X59896D01*
X57396Y222867D02*
X58958Y226617D01*
X60521Y222867*
X58021Y224429D02*
X59896D01*
X57396Y225032D02*
X58958Y228782D01*
X60521Y225032*
X58021Y226594D02*
X59896D01*
X57396Y227197D02*
X58958Y230947D01*
X60521Y227197*
X58021Y228760D02*
X59896D01*
X58026Y265937D02*
X59588Y269687D01*
X61151Y265937*
X58651Y267500D02*
X60526D01*
X58341Y38339D02*
X59903Y42089D01*
X61466Y38339*
X58966Y39902D02*
X60841D01*
X58341Y42827D02*
X59903Y46577D01*
X61466Y42827*
X58966Y44390D02*
X60841D01*
X58341Y45032D02*
X59903Y48782D01*
X61466Y45032*
X58966Y46594D02*
X60841D01*
X58341Y47237D02*
X59903Y50987D01*
X61466Y47237*
X58966Y48799D02*
X60841D01*
X58341Y96272D02*
X59903Y100022D01*
X61466Y96272*
X58966Y97835D02*
X60841D01*
X58380Y40622D02*
X59943Y44372D01*
X61505Y40622*
X59005Y42185D02*
X60880D01*
X58577Y284205D02*
Y287955D01*
X61702*
X61077Y286080D02*
X58577D01*
X58813Y205859D02*
X60376Y209609D01*
X61938Y205859*
X59438Y207421D02*
X61313D01*
X59128Y75987D02*
Y73174D01*
X59441Y72549*
X60065Y72237*
X61315*
X61941Y72549*
X62253Y73174*
Y75987*
X59364Y210898D02*
X60927Y214648D01*
X62489Y210898*
X59989Y212461D02*
X61864D01*
X59364Y213103D02*
X60927Y216853D01*
X62489Y213103*
X59989Y214665D02*
X61864D01*
X59522Y59559D02*
X61084Y63309D01*
X62647Y59559*
X60147Y61122D02*
X62022D01*
X59561Y220622D02*
X61124Y224372D01*
X62686Y220622*
X60186Y222185D02*
X62061D01*
X59561Y222788D02*
X61124Y226538D01*
X62686Y222788*
X60186Y224350D02*
X62061D01*
X59561Y224953D02*
X61124Y228703D01*
X62686Y224953*
X60186Y226516D02*
X62061D01*
X59561Y227119D02*
X61124Y230869D01*
X62686Y227119*
X60186Y228681D02*
X62061D01*
X59837Y171213D02*
X61399Y174963D01*
X62962Y171213*
X60462Y172776D02*
X62337D01*
X59837Y182237D02*
X61399Y185987D01*
X62962Y182237*
X60462Y183799D02*
X62337D01*
X59837Y184520D02*
X61399Y188270D01*
X62962Y184520*
X60462Y186083D02*
X62337D01*
X59837Y186725D02*
X61399Y190475D01*
X62962Y186725*
X60462Y188287D02*
X62337D01*
X59837Y188930D02*
X61399Y192680D01*
X62962Y188930*
X60462Y190492D02*
X62337D01*
X60506Y38339D02*
X62069Y42089D01*
X63631Y38339*
X61131Y39902D02*
X63006D01*
X60506Y42827D02*
X62069Y46577D01*
X63631Y42827*
X61131Y44390D02*
X63006D01*
X60506Y45032D02*
X62069Y48782D01*
X63631Y45032*
X61131Y46594D02*
X63006D01*
X60506Y47237D02*
X62069Y50987D01*
X63631Y47237*
X61131Y48799D02*
X63006D01*
X60545Y40622D02*
X62108Y44372D01*
X63670Y40622*
X61170Y42185D02*
X63045D01*
X60545Y61410D02*
X62108Y65160D01*
X63670Y61410*
X61170Y62972D02*
X63045D01*
X60545Y202394D02*
X62108Y206144D01*
X63670Y202394*
X61170Y203957D02*
X63045D01*
X61490Y210819D02*
X63053Y214569D01*
X64615Y210819*
X62115Y212382D02*
X63990D01*
X61490Y213024D02*
X63053Y216774D01*
X64615Y213024*
X62115Y214587D02*
X63990D01*
X61648Y59599D02*
X63210Y63349D01*
X64773Y59599*
X62273Y61161D02*
X64148D01*
X61726Y220622D02*
X63289Y224372D01*
X64852Y220622*
X62352Y222185D02*
X64226D01*
X61726Y222788D02*
X63289Y226538D01*
X64852Y222788*
X62352Y224350D02*
X64226D01*
X61726Y224953D02*
X63289Y228703D01*
X64852Y224953*
X62352Y226516D02*
X64226D01*
X61726Y227119D02*
X63289Y230869D01*
X64852Y227119*
X62352Y228681D02*
X64226D01*
X61805Y143811D02*
X63368Y147561D01*
X64930Y143811*
X62430Y145374D02*
X64305D01*
X62041Y173418D02*
X63604Y177168D01*
X65167Y173418*
X62667Y174980D02*
X64541D01*
X62041Y184520D02*
X63604Y188270D01*
X65167Y184520*
X62667Y186083D02*
X64541D01*
X62041Y186725D02*
X63604Y190475D01*
X65167Y186725*
X62667Y188287D02*
X64541D01*
X62041Y188930D02*
X63604Y192680D01*
X65167Y188930*
X62667Y190492D02*
X64541D01*
X62396Y96272D02*
X63958Y100022D01*
X65521Y96272*
X63021Y97835D02*
X64896D01*
X64701Y296398D02*
X65639D01*
Y296085*
X65326Y295460*
X65014Y295148*
X64389Y294835*
X63764*
X63139Y295148*
X62826Y295460*
X62514Y296085*
Y297335*
X62826Y297960*
X63139Y298273*
X63764Y298585*
X64389*
X65014Y298273*
X65326Y297960*
X65639Y297335*
X62671Y38339D02*
X64234Y42089D01*
X65796Y38339*
X63296Y39902D02*
X65171D01*
X62671Y42827D02*
X64234Y46577D01*
X65796Y42827*
X63296Y44390D02*
X65171D01*
X62671Y45032D02*
X64234Y48782D01*
X65796Y45032*
X63296Y46594D02*
X65171D01*
X62671Y47237D02*
X64234Y50987D01*
X65796Y47237*
X63296Y48799D02*
X65171D01*
X62671Y150032D02*
X64234Y153782D01*
X65796Y150032*
X63296Y151594D02*
X65171D01*
X62711Y40622D02*
X64273Y44372D01*
X65836Y40622*
X63336Y42185D02*
X65211D01*
X62711Y61410D02*
X64273Y65160D01*
X65836Y61410*
X63336Y62972D02*
X65211D01*
X63656Y210780D02*
X65218Y214530D01*
X66781Y210780*
X64281Y212343D02*
X66156D01*
X63656Y212945D02*
X65218Y216695D01*
X66781Y212945*
X64281Y214508D02*
X66156D01*
X63813Y59599D02*
X65376Y63349D01*
X66938Y59599*
X64438Y61161D02*
X66313D01*
X63892Y220701D02*
X65454Y224451D01*
X67017Y220701*
X64517Y222264D02*
X66392D01*
X63892Y222867D02*
X65454Y226617D01*
X67017Y222867*
X64517Y224429D02*
X66392D01*
X63892Y225032D02*
X65454Y228782D01*
X67017Y225032*
X64517Y226594D02*
X66392D01*
X63892Y227197D02*
X65454Y230947D01*
X67017Y227197*
X64517Y228760D02*
X66392D01*
X64246Y175544D02*
X65809Y179294D01*
X67371Y175544*
X64871Y177106D02*
X66746D01*
X64246Y186646D02*
X65809Y190396D01*
X67371Y186646*
X64871Y188209D02*
X66746D01*
X64246Y188851D02*
X65809Y192601D01*
X67371Y188851*
X64871Y190413D02*
X66746D01*
X64325Y133811D02*
X65887Y137561D01*
X67450Y133811*
X64950Y135374D02*
X66825D01*
X64482Y166646D02*
X66045Y170396D01*
X67607Y166646*
X65107Y168209D02*
X66982D01*
X64482Y168851D02*
X66045Y172601D01*
X67607Y168851*
X65107Y170413D02*
X66982D01*
X64837Y38339D02*
X66399Y42089D01*
X67962Y38339*
X65462Y39902D02*
X67337D01*
X64837Y42827D02*
X66399Y46577D01*
X67962Y42827*
X65462Y44390D02*
X67337D01*
X64837Y45032D02*
X66399Y48782D01*
X67962Y45032*
X65462Y46594D02*
X67337D01*
X64837Y47237D02*
X66399Y50987D01*
X67962Y47237*
X65462Y48799D02*
X67337D01*
X64876Y40622D02*
X66439Y44372D01*
X68001Y40622*
X65501Y42185D02*
X67376D01*
X64876Y61410D02*
X66439Y65160D01*
X68001Y61410*
X65501Y62972D02*
X67376D01*
X65033Y289087D02*
X66596Y292837D01*
X68159Y289087*
X65659Y290650D02*
X67533D01*
X65821Y177040D02*
X67383Y180790D01*
X68946Y177040*
X66446Y178602D02*
X68321D01*
X65821Y210780D02*
X67383Y214530D01*
X68946Y210780*
X66446Y212343D02*
X68321D01*
X65821Y212945D02*
X67383Y216695D01*
X68946Y212945*
X66446Y214508D02*
X68321D01*
X65900Y75750D02*
Y72938D01*
X66212Y72313*
X66837Y72000*
X68087*
X68712Y72313*
X69025Y72938*
Y75750*
X65900Y121370D02*
X67462Y125120D01*
X69025Y121370*
X66525Y122933D02*
X68400D01*
X65978Y59599D02*
X67541Y63349D01*
X69104Y59599*
X66604Y61161D02*
X68478D01*
X66057Y220701D02*
X67620Y224451D01*
X69182Y220701*
X66682Y222264D02*
X68557D01*
X66057Y222867D02*
X67620Y226617D01*
X69182Y222867*
X66682Y224429D02*
X68557D01*
X66057Y225032D02*
X67620Y228782D01*
X69182Y225032*
X66682Y226594D02*
X68557D01*
X66057Y227197D02*
X67620Y230947D01*
X69182Y227197*
X66682Y228760D02*
X68557D01*
X66293Y170032D02*
X67856Y173782D01*
X69419Y170032*
X66919Y171594D02*
X68793D01*
X66372Y167906D02*
X67935Y171656D01*
X69497Y167906*
X66997Y169469D02*
X68872D01*
X66451Y188851D02*
X68013Y192601D01*
X69576Y188851*
X67076Y190413D02*
X68951D01*
X67041Y61449D02*
X68604Y65199D01*
X70167Y61449*
X67667Y63012D02*
X69541D01*
X67238Y277040D02*
X68801Y280790D01*
X70363Y277040*
X67863Y278602D02*
X69738D01*
X67317Y178615D02*
X68880Y182365D01*
X70442Y178615*
X67942Y180177D02*
X69817D01*
X67396Y96799D02*
X67708Y96486D01*
X68333Y96174*
X68958Y96486*
X69271Y96799*
Y99924*
X69896*
X69271D02*
X68021D01*
X67986Y210859D02*
X69549Y214609D01*
X71111Y210859*
X68611Y212421D02*
X70486D01*
X67986Y213024D02*
X69549Y216774D01*
X71111Y213024*
X68611Y214587D02*
X70486D01*
X68026Y93024D02*
X69588Y96774D01*
X71151Y93024*
X68651Y94587D02*
X70526D01*
X68144Y59599D02*
X69706Y63349D01*
X71269Y59599*
X68769Y61161D02*
X70644D01*
X68222Y220701D02*
X69785Y224451D01*
X71348Y220701*
X68848Y222264D02*
X70722D01*
X68222Y222867D02*
X69785Y226617D01*
X71348Y222867*
X68848Y224429D02*
X70722D01*
X68222Y225032D02*
X69785Y228782D01*
X71348Y225032*
X68848Y226594D02*
X70722D01*
X68222Y227197D02*
X69785Y230947D01*
X71348Y227197*
X68848Y228760D02*
X70722D01*
X68498Y167985D02*
X70061Y171735D01*
X71623Y167985*
X69123Y169547D02*
X70998D01*
X68577Y165106D02*
X68889Y164793D01*
X69514Y164481*
X70139Y164793*
X70452Y165106*
Y168231*
X71077*
X70452D02*
X69202D01*
X68656Y188851D02*
X70218Y192601D01*
X71781Y188851*
X69281Y190413D02*
X71156D01*
X69049Y175307D02*
X70612Y179057D01*
X72174Y175307*
X69674Y176870D02*
X71549D01*
X69207Y61410D02*
X70769Y65160D01*
X72332Y61410*
X69832Y62972D02*
X71707D01*
X69305Y43280D02*
X70868Y47030D01*
X72430Y43280*
X69930Y44843D02*
X71805D01*
X69305Y45563D02*
X70868Y49313D01*
X72430Y45563*
X69930Y47126D02*
X71805D01*
X69325Y37867D02*
X70887Y41617D01*
X72450Y37867*
X69950Y39429D02*
X71825D01*
X69344Y40563D02*
X70907Y44313D01*
X72470Y40563*
X69970Y42126D02*
X71844D01*
X69443Y149481D02*
X71006Y153231D01*
X72568Y149481*
X70068Y151043D02*
X71943D01*
X70152Y210859D02*
X71714Y214609D01*
X73277Y210859*
X70777Y212421D02*
X72652D01*
X70152Y213024D02*
X71714Y216774D01*
X73277Y213024*
X70777Y214587D02*
X72652D01*
X70230Y180504D02*
X71793Y184254D01*
X73356Y180504*
X70856Y182067D02*
X72730D01*
X70309Y59599D02*
X71872Y63349D01*
X73434Y59599*
X70934Y61161D02*
X72809D01*
X70388Y220701D02*
X71950Y224451D01*
X73513Y220701*
X71013Y222264D02*
X72888D01*
X70388Y222867D02*
X71950Y226617D01*
X73513Y222867*
X71013Y224429D02*
X72888D01*
X70388Y225032D02*
X71950Y228782D01*
X73513Y225032*
X71013Y226594D02*
X72888D01*
X70388Y227197D02*
X71950Y230947D01*
X73513Y227197*
X71013Y228760D02*
X72888D01*
X70742Y107394D02*
X72305Y111144D01*
X73867Y107394*
X71367Y108957D02*
X73242D01*
X70860Y188772D02*
X72423Y192522D01*
X73985Y188772*
X71485Y190335D02*
X73360D01*
X71096Y93890D02*
X72659Y97640D01*
X74222Y93890*
X71722Y95453D02*
X73596D01*
X71372Y61410D02*
X72935Y65160D01*
X74497Y61410*
X71997Y62972D02*
X73872D01*
X72120Y173103D02*
X73683Y176853D01*
X75245Y173103*
X72745Y174665D02*
X74620D01*
X72120Y175307D02*
X73683Y179057D01*
X75245Y175307*
X72745Y176870D02*
X74620D01*
X72317Y210859D02*
X73880Y214609D01*
X75442Y210859*
X72942Y212421D02*
X74817D01*
X72317Y213024D02*
X73880Y216774D01*
X75442Y213024*
X72942Y214587D02*
X74817D01*
X72474Y59599D02*
X74037Y63349D01*
X75600Y59599*
X73100Y61161D02*
X74974D01*
X72514Y105465D02*
X74076Y109215D01*
X75639Y105465*
X73139Y107028D02*
X75014D01*
X72553Y220780D02*
X74116Y224530D01*
X75678Y220780*
X73178Y222343D02*
X75053D01*
X72553Y222945D02*
X74116Y226695D01*
X75678Y222945*
X73178Y224508D02*
X75053D01*
X72553Y225111D02*
X74116Y228861D01*
X75678Y225111*
X73178Y226673D02*
X75053D01*
X72553Y227276D02*
X74116Y231026D01*
X75678Y227276*
X73178Y228839D02*
X75053D01*
X73055Y183428D02*
X74618Y187178D01*
X76180Y183428*
X73680Y184990D02*
X75555D01*
X73065Y180426D02*
X74628Y184176D01*
X76190Y180426*
X73690Y181988D02*
X75565D01*
X73065Y188772D02*
X74628Y192522D01*
X76190Y188772*
X73690Y190335D02*
X75565D01*
X73537Y61410D02*
X75100Y65160D01*
X76663Y61410*
X74163Y62972D02*
X76037D01*
X74325Y170898D02*
X75887Y174648D01*
X77450Y170898*
X74950Y172461D02*
X76825D01*
X74325Y173103D02*
X75887Y176853D01*
X77450Y173103*
X74950Y174665D02*
X76825D01*
X74325Y175307D02*
X75887Y179057D01*
X77450Y175307*
X74950Y176870D02*
X76825D01*
X74482Y210859D02*
X76045Y214609D01*
X77607Y210859*
X75107Y212421D02*
X76982D01*
X74482Y213024D02*
X76045Y216774D01*
X77607Y213024*
X75107Y214587D02*
X76982D01*
X74640Y59599D02*
X76202Y63349D01*
X77765Y59599*
X75265Y61161D02*
X77140D01*
X74640Y70819D02*
X76202Y74569D01*
X77765Y70819*
X75265Y72382D02*
X77140D01*
X74719Y220780D02*
X76281Y224530D01*
X77844Y220780*
X75344Y222343D02*
X77219D01*
X74719Y222945D02*
X76281Y226695D01*
X77844Y222945*
X75344Y224508D02*
X77219D01*
X74719Y225111D02*
X76281Y228861D01*
X77844Y225111*
X75344Y226673D02*
X77219D01*
X74719Y227276D02*
X76281Y231026D01*
X77844Y227276*
X75344Y228839D02*
X77219D01*
X74876Y121528D02*
X76439Y125278D01*
X78001Y121528*
X75501Y123091D02*
X77376D01*
X75270Y149953D02*
X76832Y153703D01*
X78395Y149953*
X75895Y151516D02*
X77770D01*
X75427Y163103D02*
X76990Y166853D01*
X78552Y163103*
X76052Y164665D02*
X77927D01*
X75427Y165307D02*
X76990Y169057D01*
X78552Y165307*
X76052Y166870D02*
X77927D01*
X75427Y169008D02*
X76990Y172758D01*
X78552Y169008*
X76052Y170571D02*
X77927D01*
X75663Y180504D02*
X77226Y184254D01*
X78789Y180504*
X76289Y182067D02*
X78163D01*
X75703Y61410D02*
X77265Y65160D01*
X78828Y61410*
X76328Y62972D02*
X78203D01*
X76215Y140426D02*
X77777Y144176D01*
X79340Y140426*
X76840Y141988D02*
X78715D01*
X76451Y67197D02*
X78013Y70947D01*
X79576Y67197*
X77076Y68760D02*
X78951D01*
X76530Y170977D02*
X78092Y174727D01*
X79655Y170977*
X77155Y172539D02*
X79030D01*
X76530Y173181D02*
X78092Y176931D01*
X79655Y173181*
X77155Y174744D02*
X79030D01*
X76530Y175386D02*
X78092Y179136D01*
X79655Y175386*
X77155Y176949D02*
X79030D01*
X76608Y167119D02*
X78171Y170869D01*
X79733Y167119*
X77233Y168681D02*
X79108D01*
X76648Y210937D02*
X78210Y214687D01*
X79773Y210937*
X77273Y212500D02*
X79148D01*
X76648Y213103D02*
X78210Y216853D01*
X79773Y213103*
X77273Y214665D02*
X79148D01*
X76884Y220701D02*
X78446Y224451D01*
X80009Y220701*
X77509Y222264D02*
X79384D01*
X76884Y222867D02*
X78446Y226617D01*
X80009Y222867*
X77509Y224429D02*
X79384D01*
X76884Y225032D02*
X78446Y228782D01*
X80009Y225032*
X77509Y226594D02*
X79384D01*
X76884Y227197D02*
X78446Y230947D01*
X80009Y227197*
X77509Y228760D02*
X79384D01*
X77632Y165229D02*
X79194Y168979D01*
X80757Y165229*
X78257Y166791D02*
X80132D01*
X77632Y169008D02*
X79194Y172758D01*
X80757Y169008*
X78257Y170571D02*
X80132D01*
X77868Y180504D02*
X79431Y184254D01*
X80993Y180504*
X78493Y182067D02*
X80368D01*
X78577Y126174D02*
X80139Y129924D01*
X81702Y126174*
X79202Y127736D02*
X81077D01*
X78734Y170977D02*
X80297Y174727D01*
X81859Y170977*
X79359Y172539D02*
X81234D01*
X78734Y173181D02*
X80297Y176931D01*
X81859Y173181*
X79359Y174744D02*
X81234D01*
X78734Y175386D02*
X80297Y179136D01*
X81859Y175386*
X79359Y176949D02*
X81234D01*
X78813Y167119D02*
X80376Y170869D01*
X81938Y167119*
X79438Y168681D02*
X81313D01*
X78813Y210937D02*
X80376Y214687D01*
X81938Y210937*
X79438Y212500D02*
X81313D01*
X78813Y213103D02*
X80376Y216853D01*
X81938Y213103*
X79438Y214665D02*
X81313D01*
X79049Y220701D02*
X80612Y224451D01*
X82174Y220701*
X79674Y222264D02*
X81549D01*
X79049Y222867D02*
X80612Y226617D01*
X82174Y222867*
X79674Y224429D02*
X81549D01*
X79049Y225032D02*
X80612Y228782D01*
X82174Y225032*
X79674Y226594D02*
X81549D01*
X79049Y227197D02*
X80612Y230947D01*
X82174Y227197*
X79674Y228760D02*
X81549D01*
X79522Y273811D02*
X81084Y277561D01*
X82647Y273811*
X80147Y275374D02*
X82022D01*
X79679Y186489D02*
X81242Y190239D01*
X82804Y186489*
X80304Y188051D02*
X82179D01*
X79679Y188693D02*
X81242Y192443D01*
X82804Y188693*
X80304Y190256D02*
X82179D01*
X79679Y190898D02*
X81242Y194648D01*
X82804Y190898*
X80304Y192461D02*
X82179D01*
X79837Y169008D02*
X81399Y172758D01*
X82962Y169008*
X80462Y170571D02*
X82337D01*
X79876Y200741D02*
X81439Y204491D01*
X83001Y200741*
X80501Y202303D02*
X82376D01*
X79915Y195622D02*
X81478Y199372D01*
X83041Y195622*
X80541Y197185D02*
X82415D01*
X79915Y198221D02*
X81478Y201971D01*
X83041Y198221*
X80541Y199783D02*
X82415D01*
X80073Y150819D02*
X81635Y154569D01*
X83198Y150819*
X80698Y152382D02*
X82573D01*
X80073Y180504D02*
X81635Y184254D01*
X83198Y180504*
X80698Y182067D02*
X82573D01*
X80073Y193260D02*
X81635Y197010D01*
X83198Y193260*
X80698Y194823D02*
X82573D01*
X80309Y278457D02*
X81872Y282207D01*
X83434Y278457*
X80934Y280020D02*
X82809D01*
X80624Y129087D02*
X82187Y132837D01*
X83749Y129087*
X81249Y130650D02*
X83124D01*
X80781Y102237D02*
X82344Y105987D01*
X83907Y102237*
X81407Y103799D02*
X83281D01*
X80939Y170977D02*
X82502Y174727D01*
X84064Y170977*
X81564Y172539D02*
X83439D01*
X80939Y173181D02*
X82502Y176931D01*
X84064Y173181*
X81564Y174744D02*
X83439D01*
X80939Y175386D02*
X82502Y179136D01*
X84064Y175386*
X81564Y176949D02*
X83439D01*
X80939Y210898D02*
X82502Y214648D01*
X84064Y210898*
X81564Y212461D02*
X83439D01*
X80978Y202473D02*
X82541Y206223D01*
X84104Y202473*
X81604Y204035D02*
X83478D01*
X81018Y213024D02*
X82580Y216774D01*
X84143Y213024*
X81643Y214587D02*
X83518D01*
X81215Y220780D02*
X82777Y224530D01*
X84340Y220780*
X81840Y222343D02*
X83715D01*
X81215Y222945D02*
X82777Y226695D01*
X84340Y222945*
X81840Y224508D02*
X83715D01*
X81215Y225111D02*
X82777Y228861D01*
X84340Y225111*
X81840Y226673D02*
X83715D01*
X81215Y227276D02*
X82777Y231026D01*
X84340Y227276*
X81840Y228839D02*
X83715D01*
X81884Y186489D02*
X83446Y190239D01*
X85009Y186489*
X82509Y188051D02*
X84384D01*
X81884Y188693D02*
X83446Y192443D01*
X85009Y188693*
X82509Y190256D02*
X84384D01*
X81884Y190898D02*
X83446Y194648D01*
X85009Y190898*
X82509Y192461D02*
X84384D01*
X82041Y195622D02*
X83604Y199372D01*
X85167Y195622*
X82667Y197185D02*
X84541D01*
X82041Y198221D02*
X83604Y201971D01*
X85167Y198221*
X82667Y199783D02*
X84541D01*
X82041Y200741D02*
X83604Y204491D01*
X85167Y200741*
X82667Y202303D02*
X84541D01*
X82199Y193260D02*
X83761Y197010D01*
X85324Y193260*
X82824Y194823D02*
X84699D01*
X82278Y180426D02*
X83840Y184176D01*
X85403Y180426*
X82903Y181988D02*
X84778D01*
X82671Y141370D02*
X84234Y145120D01*
X85796Y141370*
X83296Y142933D02*
X85171D01*
X82750Y150741D02*
X84313Y154491D01*
X85875Y150741*
X83375Y152303D02*
X85250D01*
X83144Y171056D02*
X84706Y174806D01*
X86269Y171056*
X83769Y172618D02*
X85644D01*
X83144Y173260D02*
X84706Y177010D01*
X86269Y173260*
X83769Y174823D02*
X85644D01*
X83144Y175465D02*
X84706Y179215D01*
X86269Y175465*
X83769Y177028D02*
X85644D01*
X83144Y202552D02*
X84706Y206302D01*
X86269Y202552*
X83769Y204114D02*
X85644D01*
X83222Y213024D02*
X84785Y216774D01*
X86348Y213024*
X83848Y214587D02*
X85722D01*
X83380Y220780D02*
X84943Y224530D01*
X86505Y220780*
X84005Y222343D02*
X85880D01*
X83380Y222945D02*
X84943Y226695D01*
X86505Y222945*
X84005Y224508D02*
X85880D01*
X83380Y225111D02*
X84943Y228861D01*
X86505Y225111*
X84005Y226673D02*
X85880D01*
X83380Y227276D02*
X84943Y231026D01*
X86505Y227276*
X84005Y228839D02*
X85880D01*
X83852Y149008D02*
X85415Y152758D01*
X86978Y149008*
X84478Y150571D02*
X86352D01*
X84089Y186410D02*
X85651Y190160D01*
X87214Y186410*
X84714Y187972D02*
X86589D01*
X84089Y188615D02*
X85651Y192365D01*
X87214Y188615*
X84714Y190177D02*
X86589D01*
X84089Y190819D02*
X85651Y194569D01*
X87214Y190819*
X84714Y192382D02*
X86589D01*
X84207Y195701D02*
X85769Y199451D01*
X87332Y195701*
X84832Y197264D02*
X86707D01*
X84207Y198300D02*
X85769Y202050D01*
X87332Y198300*
X84832Y199862D02*
X86707D01*
X84207Y200819D02*
X85769Y204569D01*
X87332Y200819*
X84832Y202382D02*
X86707D01*
X84364Y193339D02*
X85927Y197089D01*
X87489Y193339*
X84989Y194902D02*
X86864D01*
X84482Y180426D02*
X86045Y184176D01*
X87607Y180426*
X85107Y181988D02*
X86982D01*
X84719Y90972D02*
X85031Y90659D01*
X85656Y90347*
X86281Y90659*
X86594Y90972*
Y94097*
X87219*
X86594D02*
X85344D01*
X85309Y202552D02*
X86872Y206302D01*
X88434Y202552*
X85934Y204114D02*
X87809D01*
X85348Y173260D02*
X86911Y177010D01*
X88474Y173260*
X85974Y174823D02*
X87848D01*
X85348Y175465D02*
X86911Y179215D01*
X88474Y175465*
X85974Y177028D02*
X87848D01*
X85545Y220780D02*
X87108Y224530D01*
X88670Y220780*
X86170Y222343D02*
X88045D01*
X85545Y222945D02*
X87108Y226695D01*
X88670Y222945*
X86170Y224508D02*
X88045D01*
X85545Y225111D02*
X87108Y228861D01*
X88670Y225111*
X86170Y226673D02*
X88045D01*
X85545Y227276D02*
X87108Y231026D01*
X88670Y227276*
X86170Y228839D02*
X88045D01*
X85663Y38457D02*
X87226Y42207D01*
X88789Y38457*
X86289Y40020D02*
X88163D01*
X86057Y149008D02*
X87620Y152758D01*
X89182Y149008*
X86682Y150571D02*
X88557D01*
X86136Y43969D02*
X87698Y47719D01*
X89261Y43969*
X86761Y45531D02*
X88636D01*
X86293Y165859D02*
X87856Y169609D01*
X89419Y165859*
X86919Y167421D02*
X88793D01*
X86293Y188615D02*
X87856Y192365D01*
X89419Y188615*
X86919Y190177D02*
X88793D01*
X86293Y190819D02*
X87856Y194569D01*
X89419Y190819*
X86919Y192382D02*
X88793D01*
X86372Y195701D02*
X87935Y199451D01*
X89497Y195701*
X86997Y197264D02*
X88872D01*
X86372Y198300D02*
X87935Y202050D01*
X89497Y198300*
X86997Y199862D02*
X88872D01*
X86372Y200819D02*
X87935Y204569D01*
X89497Y200819*
X86997Y202382D02*
X88872D01*
X86530Y193339D02*
X88092Y197089D01*
X89655Y193339*
X87155Y194902D02*
X89030D01*
X86687Y180426D02*
X88250Y184176D01*
X89812Y180426*
X87312Y181988D02*
X89187D01*
X87474Y202552D02*
X89037Y206302D01*
X90600Y202552*
X88100Y204114D02*
X89974D01*
X87711Y220780D02*
X89273Y224530D01*
X90836Y220780*
X88336Y222343D02*
X90211D01*
X87711Y222945D02*
X89273Y226695D01*
X90836Y222945*
X88336Y224508D02*
X90211D01*
X87711Y225111D02*
X89273Y228861D01*
X90836Y225111*
X88336Y226673D02*
X90211D01*
X87711Y227276D02*
X89273Y231026D01*
X90836Y227276*
X88336Y228839D02*
X90211D01*
X87868Y38457D02*
X89431Y42207D01*
X90993Y38457*
X88493Y40020D02*
X90368D01*
X87947Y74599D02*
X89509Y78349D01*
X91072Y74599*
X88572Y76161D02*
X90447D01*
X87947Y278457D02*
X89509Y282207D01*
X91072Y278457*
X88572Y280020D02*
X90447D01*
X88262Y78378D02*
X89824Y82128D01*
X91387Y78378*
X88887Y79941D02*
X90762D01*
X88419Y64205D02*
X89982Y67955D01*
X91544Y64205*
X89044Y65768D02*
X90919D01*
X88498Y190819D02*
X90061Y194569D01*
X91623Y190819*
X89123Y192382D02*
X90998D01*
X88537Y195701D02*
X90100Y199451D01*
X91663Y195701*
X89163Y197264D02*
X91037D01*
X88537Y198300D02*
X90100Y202050D01*
X91663Y198300*
X89163Y199862D02*
X91037D01*
X88537Y200819D02*
X90100Y204569D01*
X91663Y200819*
X89163Y202382D02*
X91037D01*
X88695Y193339D02*
X90257Y197089D01*
X91820Y193339*
X89320Y194902D02*
X91195D01*
X88970Y76410D02*
X90533Y80160D01*
X92096Y76410*
X89596Y77972D02*
X91470D01*
X89600Y210898D02*
X91163Y214648D01*
X92726Y210898*
X90226Y212461D02*
X92100D01*
X89640Y202552D02*
X91202Y206302D01*
X92765Y202552*
X90265Y204114D02*
X92140D01*
X89876Y220859D02*
X91439Y224609D01*
X93001Y220859*
X90501Y222421D02*
X92376D01*
X89876Y223024D02*
X91439Y226774D01*
X93001Y223024*
X90501Y224587D02*
X92376D01*
X89876Y225189D02*
X91439Y228939D01*
X93001Y225189*
X90501Y226752D02*
X92376D01*
X89876Y227355D02*
X91439Y231105D01*
X93001Y227355*
X90501Y228917D02*
X92376D01*
X90073Y38457D02*
X91635Y42207D01*
X93198Y38457*
X90698Y40020D02*
X92573D01*
X90073Y74599D02*
X91635Y78349D01*
X93198Y74599*
X90698Y76161D02*
X92573D01*
X90703Y190741D02*
X92265Y194491D01*
X93828Y190741*
X91328Y192303D02*
X93203D01*
X90703Y195701D02*
X92265Y199451D01*
X93828Y195701*
X91328Y197264D02*
X93203D01*
X90703Y198300D02*
X92265Y202050D01*
X93828Y198300*
X91328Y199862D02*
X93203D01*
X90703Y200819D02*
X92265Y204569D01*
X93828Y200819*
X91328Y202382D02*
X93203D01*
X90781Y209008D02*
X92344Y212758D01*
X93907Y209008*
X91407Y210571D02*
X93281D01*
X90860Y193339D02*
X92423Y197089D01*
X93985Y193339*
X91485Y194902D02*
X93360D01*
X91018Y125544D02*
X92580Y129294D01*
X94143Y125544*
X91643Y127106D02*
X93518D01*
X91096Y151449D02*
X92659Y155199D01*
X94222Y151449*
X91722Y153012D02*
X93596D01*
X91254Y58846D02*
X91567Y58533D01*
X92191Y58221*
X92817Y58533*
X93129Y58846*
Y61971*
X93754*
X93129D02*
X91879D01*
X91254Y93181D02*
X92817Y96931D01*
X94379Y93181*
X91879Y94744D02*
X93754D01*
X91766Y210898D02*
X93328Y214648D01*
X94891Y210898*
X92391Y212461D02*
X94266D01*
X91766Y213103D02*
X93328Y216853D01*
X94891Y213103*
X92391Y214665D02*
X94266D01*
X91805Y165386D02*
X93368Y169136D01*
X94930Y165386*
X92430Y166949D02*
X94305D01*
X91884Y202552D02*
X93446Y206302D01*
X95009Y202552*
X92509Y204114D02*
X94384D01*
X92041Y220859D02*
X93604Y224609D01*
X95167Y220859*
X92667Y222421D02*
X94541D01*
X92041Y223024D02*
X93604Y226774D01*
X95167Y223024*
X92667Y224587D02*
X94541D01*
X92041Y225189D02*
X93604Y228939D01*
X95167Y225189*
X92667Y226752D02*
X94541D01*
X92041Y227355D02*
X93604Y231105D01*
X95167Y227355*
X92667Y228917D02*
X94541D01*
X92199Y38457D02*
X93761Y42207D01*
X95324Y38457*
X92824Y40020D02*
X94699D01*
X92199Y74599D02*
X93761Y78349D01*
X95324Y74599*
X92824Y76161D02*
X94699D01*
X92199Y257512D02*
X93761Y261262D01*
X95324Y257512*
X92824Y259075D02*
X94699D01*
X92199Y259796D02*
X93761Y263546D01*
X95324Y259796*
X92824Y261358D02*
X94699D01*
X92278Y54205D02*
X93840Y57955D01*
X95403Y54205*
X92903Y55768D02*
X94778D01*
X92947Y209008D02*
X94509Y212758D01*
X96072Y209008*
X93572Y210571D02*
X95447D01*
X93026Y195701D02*
X94588Y199451D01*
X96151Y195701*
X93651Y197264D02*
X95526D01*
X93026Y198300D02*
X94588Y202050D01*
X96151Y198300*
X93651Y199862D02*
X95526D01*
X93026Y200819D02*
X94588Y204569D01*
X96151Y200819*
X93651Y202382D02*
X95526D01*
X93380Y93181D02*
X94943Y96931D01*
X96505Y93181*
X94005Y94744D02*
X95880D01*
X93852Y36961D02*
X95415Y40711D01*
X96978Y36961*
X94478Y38524D02*
X96352D01*
X93931Y210898D02*
X95494Y214648D01*
X97056Y210898*
X94556Y212461D02*
X96431D01*
X93931Y213103D02*
X95494Y216853D01*
X97056Y213103*
X94556Y214665D02*
X96431D01*
X94010Y165386D02*
X95572Y169136D01*
X97135Y165386*
X94635Y166949D02*
X96510D01*
X94049Y202552D02*
X95612Y206302D01*
X97174Y202552*
X94674Y204114D02*
X96549D01*
X94128Y53024D02*
X95691Y56774D01*
X97253Y53024*
X94753Y54587D02*
X96628D01*
X94128Y55189D02*
X95691Y58939D01*
X97253Y55189*
X94753Y56752D02*
X96628D01*
X94561Y257591D02*
X96124Y261341D01*
X97686Y257591*
X95186Y259154D02*
X97061D01*
X94561Y259796D02*
X96124Y263546D01*
X97686Y259796*
X95186Y261358D02*
X97061D01*
X95112Y209008D02*
X96675Y212758D01*
X98237Y209008*
X95737Y210571D02*
X97612D01*
X95191Y200819D02*
X96754Y204569D01*
X98316Y200819*
X95816Y202382D02*
X97691D01*
X95348Y198300D02*
X96911Y202050D01*
X98474Y198300*
X95974Y199862D02*
X97848D01*
X95663Y256016D02*
X97226Y259766D01*
X98789Y256016*
X96289Y257579D02*
X98163D01*
X95742Y74756D02*
X97305Y78506D01*
X98867Y74756*
X96367Y76319D02*
X98242D01*
X96018Y51922D02*
X97580Y55672D01*
X99143Y51922*
X96643Y53484D02*
X98518D01*
X96018Y54087D02*
X97580Y57837D01*
X99143Y54087*
X96643Y55650D02*
X98518D01*
X96018Y56252D02*
X97580Y60002D01*
X99143Y56252*
X96643Y57815D02*
X98518D01*
X96018Y58418D02*
X97580Y62168D01*
X99143Y58418*
X96643Y59980D02*
X98518D01*
X96096Y210977D02*
X97659Y214727D01*
X99222Y210977*
X96722Y212539D02*
X98596D01*
X96096Y213181D02*
X97659Y216931D01*
X99222Y213181*
X96722Y214744D02*
X98596D01*
X96215Y165386D02*
X97777Y169136D01*
X99340Y165386*
X96840Y166949D02*
X98715D01*
X96215Y202630D02*
X97777Y206380D01*
X99340Y202630*
X96840Y204193D02*
X98715D01*
X96530Y190268D02*
X98092Y194018D01*
X99655Y190268*
X97155Y191831D02*
X99030D01*
X96766Y257591D02*
X98328Y261341D01*
X99891Y257591*
X97391Y259154D02*
X99266D01*
X96766Y259796D02*
X98328Y263546D01*
X99891Y259796*
X97391Y261358D02*
X99266D01*
X97278Y209087D02*
X98840Y212837D01*
X100403Y209087*
X97903Y210650D02*
X99778D01*
X97317Y218418D02*
X98880Y222168D01*
X100442Y218418*
X97942Y219980D02*
X99817D01*
X97356Y200898D02*
X98919Y204648D01*
X100481Y200898*
X97981Y202461D02*
X99856D01*
X97632Y162630D02*
X99194Y166380D01*
X100757Y162630*
X98257Y164193D02*
X100132D01*
X97829Y29481D02*
X99391Y33231D01*
X100954Y29481*
X98454Y31043D02*
X100329D01*
X97868Y50819D02*
X99431Y54569D01*
X100993Y50819*
X98493Y52382D02*
X100368D01*
X97868Y81685D02*
X99431Y85435D01*
X100993Y81685*
X98493Y83248D02*
X100368D01*
X97907Y55150D02*
X99470Y58900D01*
X101033Y55150*
X98533Y56713D02*
X100407D01*
X97907Y57315D02*
X99470Y61065D01*
X101033Y57315*
X98533Y58878D02*
X100407D01*
X97947Y52945D02*
X99509Y56695D01*
X101072Y52945*
X98572Y54508D02*
X100447D01*
X98104Y255937D02*
X99667Y259687D01*
X101230Y255937*
X98730Y257500D02*
X100604D01*
X98262Y210977D02*
X99824Y214727D01*
X101387Y210977*
X98887Y212539D02*
X100762D01*
X98380Y202630D02*
X99943Y206380D01*
X101505Y202630*
X99005Y204193D02*
X100880D01*
X98498Y180426D02*
X100061Y184176D01*
X101623Y180426*
X99123Y181988D02*
X100998D01*
X98970Y257591D02*
X100533Y261341D01*
X102096Y257591*
X99596Y259154D02*
X101470D01*
X98970Y259796D02*
X100533Y263546D01*
X102096Y259796*
X99596Y261358D02*
X101470D01*
X98990Y278457D02*
X100553Y282207D01*
X102115Y278457*
X99615Y280020D02*
X101490D01*
X99049Y59244D02*
X100612Y62994D01*
X102174Y59244*
X99674Y60807D02*
X101549D01*
X99049Y222709D02*
X100612Y226459D01*
X102174Y222709*
X99674Y224272D02*
X101549D01*
X99049Y227119D02*
X100612Y230869D01*
X102174Y227119*
X99674Y228681D02*
X101549D01*
X99128Y224914D02*
X100691Y228664D01*
X102253Y224914*
X99753Y226476D02*
X101628D01*
X99443Y209087D02*
X101006Y212837D01*
X102568Y209087*
X100068Y210650D02*
X101943D01*
X99522Y200898D02*
X101084Y204648D01*
X102647Y200898*
X100147Y202461D02*
X102022D01*
X99679Y185701D02*
X101242Y189451D01*
X102804Y185701*
X100304Y187264D02*
X102179D01*
X99679Y189953D02*
X101242Y193703D01*
X102804Y189953*
X100304Y191516D02*
X102179D01*
X99837Y93181D02*
X101399Y96931D01*
X102962Y93181*
X100462Y94744D02*
X102337D01*
X99994Y29481D02*
X101557Y33231D01*
X103119Y29481*
X100619Y31043D02*
X102494D01*
X100073Y50898D02*
X101635Y54648D01*
X103198Y50898*
X100698Y52461D02*
X102573D01*
X100073Y53063D02*
X101635Y56813D01*
X103198Y53063*
X100698Y54626D02*
X102573D01*
X100073Y55229D02*
X101635Y58979D01*
X103198Y55229*
X100698Y56791D02*
X102573D01*
X100073Y57394D02*
X101635Y61144D01*
X103198Y57394*
X100698Y58957D02*
X102573D01*
X100427Y210977D02*
X101990Y214727D01*
X103552Y210977*
X101052Y212539D02*
X102927D01*
X100545Y202630D02*
X102108Y206380D01*
X103670Y202630*
X101170Y204193D02*
X103045D01*
X100624Y180426D02*
X102187Y184176D01*
X103749Y180426*
X101249Y181988D02*
X103124D01*
X100781Y137670D02*
X102344Y141420D01*
X103907Y137670*
X101407Y139232D02*
X103281D01*
X101096Y257670D02*
X102659Y261420D01*
X104222Y257670*
X101722Y259232D02*
X103596D01*
X101175Y59323D02*
X102738Y63073D01*
X104300Y59323*
X101800Y60886D02*
X103675D01*
X101175Y259796D02*
X102738Y263546D01*
X104300Y259796*
X101800Y261358D02*
X103675D01*
X101254Y222630D02*
X102817Y226380D01*
X104379Y222630*
X101879Y224193D02*
X103754D01*
X101254Y227040D02*
X102817Y230790D01*
X104379Y227040*
X101879Y228602D02*
X103754D01*
X101333Y224835D02*
X102895Y228585D01*
X104458Y224835*
X101958Y226398D02*
X103833D01*
X101411Y147985D02*
X102974Y151735D01*
X104537Y147985*
X102037Y149547D02*
X103911D01*
X101884Y185701D02*
X103446Y189451D01*
X105009Y185701*
X102509Y187264D02*
X104384D01*
X101884Y187827D02*
X103446Y191577D01*
X105009Y187827*
X102509Y189390D02*
X104384D01*
X101884Y189953D02*
X103446Y193703D01*
X105009Y189953*
X102509Y191516D02*
X104384D01*
X102199Y53063D02*
X103761Y56813D01*
X105324Y53063*
X102824Y54626D02*
X104699D01*
X102199Y55268D02*
X103761Y59018D01*
X105324Y55268*
X102824Y56831D02*
X104699D01*
X102199Y57473D02*
X103761Y61223D01*
X105324Y57473*
X102824Y59035D02*
X104699D01*
X102238Y50859D02*
X103801Y54609D01*
X105363Y50859*
X102863Y52421D02*
X104738D01*
X103065Y163260D02*
X104628Y167010D01*
X106190Y163260*
X103690Y164823D02*
X105565D01*
X103301Y59323D02*
X104864Y63073D01*
X106426Y59323*
X103926Y60886D02*
X105801D01*
X103301Y169796D02*
X104864Y173546D01*
X106426Y169796*
X103926Y171358D02*
X105801D01*
X103380Y195622D02*
X104943Y199372D01*
X106505Y195622*
X104005Y197185D02*
X105880D01*
X103380Y222709D02*
X104943Y226459D01*
X106505Y222709*
X104005Y224272D02*
X105880D01*
X103380Y227119D02*
X104943Y230869D01*
X106505Y227119*
X104005Y228681D02*
X105880D01*
X103459Y224914D02*
X105021Y228664D01*
X106584Y224914*
X104084Y226476D02*
X105959D01*
X103695Y150032D02*
X105257Y153782D01*
X106820Y150032*
X104320Y151594D02*
X106195D01*
X103852Y121764D02*
X105415Y125514D01*
X106978Y121764*
X104478Y123327D02*
X106352D01*
X103852Y123890D02*
X105415Y127640D01*
X106978Y123890*
X104478Y125453D02*
X106352D01*
X103852Y126065D02*
X105415Y129815D01*
X106978Y126065*
X104478Y127628D02*
X106352D01*
X103852Y128221D02*
X105415Y131971D01*
X106978Y128221*
X104478Y129783D02*
X106352D01*
X104364Y53063D02*
X105927Y56813D01*
X107489Y53063*
X104989Y54626D02*
X106864D01*
X104364Y55268D02*
X105927Y59018D01*
X107489Y55268*
X104989Y56831D02*
X106864D01*
X104364Y57473D02*
X105927Y61223D01*
X107489Y57473*
X104989Y59035D02*
X106864D01*
X104404Y50859D02*
X105966Y54609D01*
X107529Y50859*
X105029Y52421D02*
X106904D01*
X105348Y151449D02*
X106911Y155199D01*
X108474Y151449*
X105974Y153012D02*
X107848D01*
X105467Y59402D02*
X107029Y63152D01*
X108592Y59402*
X106092Y60965D02*
X107967D01*
X108887Y25834D02*
X108574Y25522D01*
X107949Y25209*
X107012*
X106387Y25522*
X106074Y25834*
X105762Y26459*
Y27709*
X106074Y28334*
X106387Y28647*
X107012Y28959*
X107949*
X108574Y28647*
X108887Y28334*
X106057Y121764D02*
X107620Y125514D01*
X109182Y121764*
X106682Y123327D02*
X108557D01*
X106057Y123890D02*
X107620Y127640D01*
X109182Y123890*
X106682Y125453D02*
X108557D01*
X106057Y126065D02*
X107620Y129815D01*
X109182Y126065*
X106682Y127628D02*
X108557D01*
X106057Y128221D02*
X107620Y131971D01*
X109182Y128221*
X106682Y129783D02*
X108557D01*
X106057Y137827D02*
X107620Y141577D01*
X109182Y137827*
X106682Y139390D02*
X108557D01*
X106530Y53063D02*
X108092Y56813D01*
X109655Y53063*
X107155Y54626D02*
X109030D01*
X106530Y55268D02*
X108092Y59018D01*
X109655Y55268*
X107155Y56831D02*
X109030D01*
X106530Y57473D02*
X108092Y61223D01*
X109655Y57473*
X107155Y59035D02*
X109030D01*
X106569Y50859D02*
X108131Y54609D01*
X109694Y50859*
X107194Y52421D02*
X109069D01*
X106687Y278457D02*
X108250Y282207D01*
X109812Y278457*
X107312Y280020D02*
X109187D01*
X107002Y152867D02*
X108565Y156617D01*
X110127Y152867*
X107627Y154429D02*
X109502D01*
X107238Y33969D02*
X108801Y37719D01*
X110363Y33969*
X107863Y35531D02*
X109738D01*
X107238Y148930D02*
X108801Y152680D01*
X110363Y148930*
X107863Y150492D02*
X109738D01*
X107632Y59402D02*
X109194Y63152D01*
X110757Y59402*
X108257Y60965D02*
X110132D01*
X108173Y121764D02*
X109735Y125514D01*
X111298Y121764*
X108798Y123327D02*
X110673D01*
X108173Y123890D02*
X109735Y127640D01*
X111298Y123890*
X108798Y125453D02*
X110673D01*
X108173Y126065D02*
X109735Y129815D01*
X111298Y126065*
X108798Y127628D02*
X110673D01*
X108173Y128221D02*
X109735Y131971D01*
X111298Y128221*
X108798Y129783D02*
X110673D01*
X108498Y154441D02*
X110061Y158191D01*
X111623Y154441*
X109123Y156004D02*
X110998D01*
X108695Y53063D02*
X110257Y56813D01*
X111820Y53063*
X109320Y54626D02*
X111195D01*
X108695Y55268D02*
X110257Y59018D01*
X111820Y55268*
X109320Y56831D02*
X111195D01*
X108695Y57473D02*
X110257Y61223D01*
X111820Y57473*
X109320Y59035D02*
X111195D01*
X108734Y50859D02*
X110297Y54609D01*
X111859Y50859*
X109359Y52421D02*
X111234D01*
X108892Y89874D02*
X110454Y93624D01*
X112017Y89874*
X109517Y91437D02*
X111392D01*
X109404Y33969D02*
X110966Y37719D01*
X112529Y33969*
X110029Y35531D02*
X111904D01*
X109797Y59402D02*
X111360Y63152D01*
X112922Y59402*
X110422Y60965D02*
X112297D01*
X109994Y156095D02*
X111557Y159845D01*
X113119Y156095*
X110619Y157657D02*
X112494D01*
X110073Y278457D02*
X111635Y282207D01*
X113198Y278457*
X110698Y280020D02*
X112573D01*
X110309Y121764D02*
X111872Y125514D01*
X113434Y121764*
X110934Y123327D02*
X112809D01*
X110309Y123890D02*
X111872Y127640D01*
X113434Y123890*
X110934Y125453D02*
X112809D01*
X110309Y126016D02*
X111872Y129766D01*
X113434Y126016*
X110934Y127579D02*
X112809D01*
X110309Y128142D02*
X111872Y131892D01*
X113434Y128142*
X110934Y129705D02*
X112809D01*
X110545Y25622D02*
X112108Y29372D01*
X113670Y25622*
X111170Y27185D02*
X113045D01*
X110939Y50819D02*
X112502Y54569D01*
X114064Y50819*
X111564Y52382D02*
X113439D01*
X110939Y52985D02*
X112502Y56735D01*
X114064Y52985*
X111564Y54547D02*
X113439D01*
X110939Y55189D02*
X112502Y58939D01*
X114064Y55189*
X111564Y56752D02*
X113439D01*
X110939Y57394D02*
X112502Y61144D01*
X114064Y57394*
X111564Y58957D02*
X113439D01*
X111569Y33969D02*
X113131Y37719D01*
X114694Y33969*
X112194Y35531D02*
X114069D01*
X112435Y148536D02*
X113998Y152286D01*
X115560Y148536*
X113060Y150098D02*
X114935D01*
X112494Y131607D02*
X114057Y135357D01*
X115619Y131607*
X113119Y133169D02*
X114994D01*
X112711Y24993D02*
X114273Y28743D01*
X115836Y24993*
X113336Y26555D02*
X115211D01*
X113104Y52985D02*
X114667Y56735D01*
X116230Y52985*
X113730Y54547D02*
X115604D01*
X113104Y55189D02*
X114667Y58939D01*
X116230Y55189*
X113730Y56752D02*
X115604D01*
X113104Y57394D02*
X114667Y61144D01*
X116230Y57394*
X113730Y58957D02*
X115604D01*
X113144Y50819D02*
X114706Y54569D01*
X116269Y50819*
X113769Y52382D02*
X115644D01*
X113537Y84363D02*
X115100Y88113D01*
X116663Y84363*
X114163Y85925D02*
X116037D01*
X113734Y33969D02*
X115297Y37719D01*
X116859Y33969*
X114359Y35531D02*
X116234D01*
X114167Y61134D02*
X115730Y64884D01*
X117293Y61134*
X114793Y62697D02*
X116667D01*
X114876Y24993D02*
X116439Y28743D01*
X118001Y24993*
X115501Y26555D02*
X117376D01*
X115033Y150189D02*
X116596Y153939D01*
X118159Y150189*
X115659Y151752D02*
X117533D01*
X115112Y39166D02*
X116675Y42916D01*
X118237Y39166*
X115737Y40728D02*
X117612D01*
X115270Y53024D02*
X116832Y56774D01*
X118395Y53024*
X115895Y54587D02*
X117770D01*
X115270Y55150D02*
X116832Y58900D01*
X118395Y55150*
X115895Y56713D02*
X117770D01*
X115900Y33969D02*
X117462Y37719D01*
X119025Y33969*
X116525Y35531D02*
X118400D01*
X116215Y244205D02*
X117777Y247955D01*
X119340Y244205*
X116840Y245768D02*
X118715D01*
X116293Y82630D02*
X117856Y86380D01*
X119419Y82630*
X116919Y84193D02*
X118793D01*
X116451Y236641D02*
X116763Y236329D01*
X117388Y236016*
X118013Y236329*
X118326Y236641*
Y239766*
X118951*
X118326D02*
X117076D01*
X116608Y155150D02*
X118171Y158900D01*
X119733Y155150*
X117233Y156713D02*
X119108D01*
X116608Y203339D02*
X118171Y207089D01*
X119733Y203339*
X117233Y204902D02*
X119108D01*
X117041Y24993D02*
X118604Y28743D01*
X120167Y24993*
X117667Y26555D02*
X119541D01*
X117081Y170741D02*
X118643Y174491D01*
X120206Y170741*
X117706Y172303D02*
X119581D01*
X118734Y260741D02*
X120297Y264491D01*
X121859Y260741*
X119359Y262303D02*
X121234D01*
X119207Y24993D02*
X120769Y28743D01*
X122332Y24993*
X119832Y26555D02*
X121707D01*
X120346Y51341D02*
X121596D01*
X120971D02*
Y55091D01*
X120346D02*
X121596D01*
X120346Y54441D02*
X121596D01*
X120971D02*
Y58191D01*
X120346D02*
X121596D01*
X120346Y57541D02*
X121596D01*
X120971D02*
Y61291D01*
X120346D02*
X121596D01*
X119443Y82709D02*
X121006Y86459D01*
X122568Y82709*
X120068Y84272D02*
X121943D01*
X119837Y236882D02*
X121399Y240632D01*
X122962Y236882*
X120462Y238445D02*
X122337D01*
X120230Y212394D02*
X121793Y216144D01*
X123356Y212394*
X120856Y213957D02*
X122730D01*
X120388Y231134D02*
X121950Y234884D01*
X123513Y231134*
X121013Y232697D02*
X122888D01*
X120624Y278457D02*
X122187Y282207D01*
X123749Y278457*
X121249Y280020D02*
X123124D01*
X121372Y24993D02*
X122935Y28743D01*
X124497Y24993*
X121997Y26555D02*
X123872D01*
X121805Y209402D02*
X123368Y213152D01*
X124930Y209402*
X122430Y210965D02*
X124305D01*
X121963Y155150D02*
X123525Y158900D01*
X125088Y155150*
X122588Y156713D02*
X124463D01*
X121963Y236882D02*
X123525Y240632D01*
X125088Y236882*
X122588Y238445D02*
X124463D01*
X122041Y146331D02*
X123604Y150081D01*
X125167Y146331*
X122667Y147894D02*
X124541D01*
X123396Y51341D02*
X124646D01*
X124021D02*
Y55091D01*
X123396D02*
X124646D01*
X123396Y54441D02*
X124646D01*
X124021D02*
Y58191D01*
X123396D02*
X124646D01*
X123396Y57541D02*
X124646D01*
X124021D02*
Y61291D01*
X123396D02*
X124646D01*
X122632Y33181D02*
X124194Y36931D01*
X125757Y33181*
X123257Y34744D02*
X125132D01*
X123065Y144441D02*
X124628Y148191D01*
X126190Y144441*
X123690Y146004D02*
X125565D01*
X123537Y24993D02*
X125100Y28743D01*
X126663Y24993*
X124163Y26555D02*
X126037D01*
X123537Y81056D02*
X125100Y84806D01*
X126663Y81056*
X124163Y82618D02*
X126037D01*
X123616Y93418D02*
X125179Y97168D01*
X126741Y93418*
X124241Y94980D02*
X126116D01*
X123695Y261449D02*
X125257Y265199D01*
X126820Y261449*
X124320Y263012D02*
X126195D01*
X124167Y146174D02*
X125730Y149924D01*
X127293Y146174*
X124793Y147736D02*
X126667D01*
X124797Y33181D02*
X126360Y36931D01*
X127922Y33181*
X125422Y34744D02*
X127297D01*
X125348Y144363D02*
X126911Y148113D01*
X128474Y144363*
X125974Y145925D02*
X127848D01*
X125703Y24993D02*
X127265Y28743D01*
X128828Y24993*
X126328Y26555D02*
X128203D01*
X125742Y190859D02*
X127305Y194609D01*
X128867Y190859*
X126367Y192421D02*
X128242D01*
X126215Y210199D02*
X127777Y213949D01*
X129340Y210199*
X126840Y211761D02*
X128715D01*
X126372Y146252D02*
X127935Y150002D01*
X129497Y146252*
X126997Y147815D02*
X128872D01*
X126372Y252867D02*
X127935Y256617D01*
X129497Y252867*
X126997Y254429D02*
X128872D01*
X126963Y33181D02*
X128525Y36931D01*
X130088Y33181*
X127588Y34744D02*
X129463D01*
X127907Y24993D02*
X129470Y28743D01*
X131033Y24993*
X128533Y26555D02*
X130407D01*
X128341Y52079D02*
X129903Y55829D01*
X131466Y52079*
X128966Y53642D02*
X130841D01*
X128341Y54205D02*
X129903Y57955D01*
X131466Y54205*
X128966Y55768D02*
X130841D01*
X128341Y56252D02*
X129903Y60002D01*
X131466Y56252*
X128966Y57815D02*
X130841D01*
X128341Y278457D02*
X129903Y282207D01*
X131466Y278457*
X128966Y280020D02*
X130841D01*
X128498Y61685D02*
X130061Y65435D01*
X131623Y61685*
X129123Y63248D02*
X130998D01*
X128577Y112867D02*
X130139Y116617D01*
X131702Y112867*
X129202Y114429D02*
X131077D01*
X128970Y90662D02*
X130533Y94412D01*
X132096Y90662*
X129596Y92224D02*
X131470D01*
X129128Y33181D02*
X130691Y36931D01*
X132253Y33181*
X129753Y34744D02*
X131628D01*
X130073Y24993D02*
X131635Y28743D01*
X133198Y24993*
X130698Y26555D02*
X132573D01*
X130230Y53181D02*
X131793Y56931D01*
X133356Y53181*
X130856Y54744D02*
X132730D01*
X130230Y55307D02*
X131793Y59057D01*
X133356Y55307*
X130856Y56870D02*
X132730D01*
X131293Y33181D02*
X132856Y36931D01*
X134419Y33181*
X131919Y34744D02*
X133793D01*
X131333Y278457D02*
X132895Y282207D01*
X134458Y278457*
X131958Y280020D02*
X133833D01*
X131569Y174205D02*
X133131Y177955D01*
X134694Y174205*
X132194Y175768D02*
X134069D01*
X131569Y176410D02*
X133131Y180160D01*
X134694Y176410*
X132194Y177972D02*
X134069D01*
X131569Y178615D02*
X133131Y182365D01*
X134694Y178615*
X132194Y180177D02*
X134069D01*
X132120Y54284D02*
X133683Y58034D01*
X135245Y54284*
X132745Y55846D02*
X134620D01*
X132238Y24993D02*
X133801Y28743D01*
X135363Y24993*
X132863Y26555D02*
X134738D01*
X133459Y33181D02*
X135021Y36931D01*
X136584Y33181*
X134084Y34744D02*
X135959D01*
X133734Y176410D02*
X135297Y180160D01*
X136859Y176410*
X134359Y177972D02*
X136234D01*
X133774Y174205D02*
X135336Y177955D01*
X136899Y174205*
X134399Y175768D02*
X136274D01*
X133774Y178615D02*
X135336Y182365D01*
X136899Y178615*
X134399Y180177D02*
X136274D01*
X133774Y180819D02*
X135336Y184569D01*
X136899Y180819*
X134399Y182382D02*
X136274D01*
X134719Y114835D02*
X136281Y118585D01*
X137844Y114835*
X135344Y116398D02*
X137219D01*
X134719Y117040D02*
X136281Y120790D01*
X137844Y117040*
X135344Y118602D02*
X137219D01*
X134719Y119205D02*
X136281Y122955D01*
X137844Y119205*
X135344Y120768D02*
X137219D01*
X134719Y121370D02*
X136281Y125120D01*
X137844Y121370*
X135344Y122933D02*
X137219D01*
X134797Y268536D02*
X136360Y272286D01*
X137922Y268536*
X135422Y270098D02*
X137297D01*
X135270Y87119D02*
X136832Y90869D01*
X138395Y87119*
X135895Y88681D02*
X137770D01*
X135427Y134363D02*
X136990Y138113D01*
X138552Y134363*
X136052Y135925D02*
X137927D01*
X135427Y136489D02*
X136990Y140239D01*
X138552Y136489*
X136052Y138051D02*
X137927D01*
X135427Y138615D02*
X136990Y142365D01*
X138552Y138615*
X136052Y140177D02*
X137927D01*
X135427Y140741D02*
X136990Y144491D01*
X138552Y140741*
X136052Y142303D02*
X137927D01*
X135427Y260583D02*
X136990Y264333D01*
X138552Y260583*
X136052Y262146D02*
X137927D01*
X135624Y33181D02*
X137187Y36931D01*
X138749Y33181*
X136249Y34744D02*
X138124D01*
X135900Y176410D02*
X137462Y180160D01*
X139025Y176410*
X136525Y177972D02*
X138400D01*
X135978Y174205D02*
X137541Y177955D01*
X139104Y174205*
X136604Y175768D02*
X138478D01*
X135978Y178615D02*
X137541Y182365D01*
X139104Y178615*
X136604Y180177D02*
X138478D01*
X135978Y180819D02*
X137541Y184569D01*
X139104Y180819*
X136604Y182382D02*
X138478D01*
X139989Y25834D02*
X139677Y25522D01*
X139052Y25209*
X138114*
X137489Y25522*
X137177Y25834*
X136864Y26459*
Y27709*
X137177Y28334*
X137489Y28647*
X138114Y28959*
X139052*
X139677Y28647*
X139989Y28334*
X136923Y114835D02*
X138486Y118585D01*
X140048Y114835*
X137548Y116398D02*
X139423D01*
X136923Y117040D02*
X138486Y120790D01*
X140048Y117040*
X137548Y118602D02*
X139423D01*
X136923Y118930D02*
X138486Y122680D01*
X140048Y118930*
X137548Y120492D02*
X139423D01*
X137002Y123536D02*
X138565Y127286D01*
X140127Y123536*
X137627Y125098D02*
X139502D01*
X137159Y62473D02*
X138722Y66223D01*
X140285Y62473*
X137785Y64035D02*
X139659D01*
X137533Y136528D02*
X139096Y140278D01*
X140659Y136528*
X138159Y138091D02*
X140033D01*
X137553Y134441D02*
X139116Y138191D01*
X140678Y134441*
X138178Y136004D02*
X140053D01*
X137553Y138615D02*
X139116Y142365D01*
X140678Y138615*
X138178Y140177D02*
X140053D01*
X137553Y140741D02*
X139116Y144491D01*
X140678Y140741*
X138178Y142303D02*
X140053D01*
X137553Y146508D02*
X139116Y150258D01*
X140678Y146508*
X138178Y148071D02*
X140053D01*
X137632Y65465D02*
X139194Y69215D01*
X140757Y65465*
X138257Y67028D02*
X140132D01*
X137789Y33181D02*
X139352Y36931D01*
X140915Y33181*
X138415Y34744D02*
X140289D01*
X137789Y128930D02*
X139352Y132680D01*
X140915Y128930*
X138415Y130492D02*
X140289D01*
X137789Y131213D02*
X139352Y134963D01*
X140915Y131213*
X138415Y132776D02*
X140289D01*
X139049Y117040D02*
X140612Y120790D01*
X142174Y117040*
X139674Y118602D02*
X141549D01*
X139128Y112630D02*
X140691Y116380D01*
X142253Y112630*
X139753Y114193D02*
X141628D01*
X139128Y114835D02*
X140691Y118585D01*
X142253Y114835*
X139753Y116398D02*
X141628D01*
X139207Y186882D02*
X140769Y190632D01*
X142332Y186882*
X139832Y188445D02*
X141707D01*
X139207Y224678D02*
X140769Y228428D01*
X142332Y224678*
X139832Y226240D02*
X141707D01*
X139443Y258142D02*
X141006Y261892D01*
X142568Y258142*
X140068Y259705D02*
X141943D01*
X139600Y136489D02*
X141163Y140239D01*
X142726Y136489*
X140226Y138051D02*
X142100D01*
X139679Y138615D02*
X141242Y142365D01*
X142804Y138615*
X140304Y140177D02*
X142179D01*
X139955Y33181D02*
X141517Y36931D01*
X143080Y33181*
X140580Y34744D02*
X142455D01*
X139994Y128930D02*
X141557Y132680D01*
X143119Y128930*
X140619Y130492D02*
X142494D01*
X139994Y131213D02*
X141557Y134963D01*
X143119Y131213*
X140619Y132776D02*
X142494D01*
X140781Y24993D02*
X142344Y28743D01*
X143907Y24993*
X141407Y26555D02*
X143281D01*
X141096Y88851D02*
X142659Y92601D01*
X144222Y88851*
X141722Y90413D02*
X143596D01*
X141254Y112630D02*
X142817Y116380D01*
X144379Y112630*
X141879Y114193D02*
X143754D01*
X141254Y114835D02*
X142817Y118585D01*
X144379Y114835*
X141879Y116398D02*
X143754D01*
X141333Y83418D02*
X142895Y87168D01*
X144458Y83418*
X141958Y84980D02*
X143833D01*
X142120Y51922D02*
X143683Y55672D01*
X145245Y51922*
X142745Y53484D02*
X144620D01*
X142120Y54126D02*
X143683Y57876D01*
X145245Y54126*
X142745Y55689D02*
X144620D01*
X142159Y33181D02*
X143722Y36931D01*
X145285Y33181*
X142785Y34744D02*
X144659D01*
X142199Y128930D02*
X143761Y132680D01*
X145324Y128930*
X142824Y130492D02*
X144699D01*
X142199Y131213D02*
X143761Y134963D01*
X145324Y131213*
X142824Y132776D02*
X144699D01*
X142219Y278457D02*
X143781Y282207D01*
X145344Y278457*
X142844Y280020D02*
X144719D01*
X142278Y72630D02*
X143840Y76380D01*
X145403Y72630*
X142903Y74193D02*
X144778D01*
X142514Y234599D02*
X144076Y238349D01*
X145639Y234599*
X143139Y236161D02*
X145014D01*
X142671Y156144D02*
Y153332D01*
X142984Y152707*
X143609Y152394*
X144859*
X145484Y152707*
X145796Y153332*
Y156144*
X142829Y134363D02*
X144391Y138113D01*
X145954Y134363*
X143454Y135925D02*
X145329D01*
X142829Y189953D02*
X144391Y193703D01*
X145954Y189953*
X143454Y191516D02*
X145329D01*
X142907Y107355D02*
X144470Y111105D01*
X146033Y107355*
X143533Y108917D02*
X145407D01*
X142947Y24993D02*
X144509Y28743D01*
X146072Y24993*
X143572Y26555D02*
X145447D01*
X143222Y68693D02*
X144785Y72443D01*
X146348Y68693*
X143848Y70256D02*
X145722D01*
X143970Y48733D02*
X145533Y52483D01*
X147096Y48733*
X144596Y50295D02*
X146470D01*
X143970Y50898D02*
X145533Y54648D01*
X147096Y50898*
X144596Y52461D02*
X146470D01*
X143970Y53063D02*
X145533Y56813D01*
X147096Y53063*
X144596Y54626D02*
X146470D01*
X143970Y55229D02*
X145533Y58979D01*
X147096Y55229*
X144596Y56791D02*
X146470D01*
X143970Y63103D02*
X145533Y66853D01*
X147096Y63103*
X144596Y64665D02*
X146470D01*
X144167Y262552D02*
X145730Y266302D01*
X147293Y262552*
X144793Y264114D02*
X146667D01*
X144246Y237433D02*
X145809Y241183D01*
X147371Y237433*
X144871Y238996D02*
X146746D01*
X144325Y33181D02*
X145887Y36931D01*
X147450Y33181*
X144950Y34744D02*
X146825D01*
X144325Y232158D02*
X145887Y235908D01*
X147450Y232158*
X144950Y233720D02*
X146825D01*
X145112Y24993D02*
X146675Y28743D01*
X148237Y24993*
X145737Y26555D02*
X147612D01*
X145112Y103024D02*
X146675Y106774D01*
X148237Y103024*
X145737Y104587D02*
X147612D01*
X145506Y192473D02*
X147069Y196223D01*
X148631Y192473*
X146131Y194035D02*
X148006D01*
X145663Y37906D02*
X147226Y41656D01*
X148789Y37906*
X146289Y39469D02*
X148163D01*
X145663Y40032D02*
X147226Y43782D01*
X148789Y40032*
X146289Y41594D02*
X148163D01*
X145663Y42237D02*
X147226Y45987D01*
X148789Y42237*
X146289Y43799D02*
X148163D01*
X145703Y136430D02*
X147265Y140180D01*
X148828Y136430*
X146328Y137992D02*
X148203D01*
X145722Y146469D02*
X147285Y150219D01*
X148848Y146469*
X146348Y148031D02*
X148222D01*
X146136Y48733D02*
X147698Y52483D01*
X149261Y48733*
X146761Y50295D02*
X148636D01*
X146136Y50898D02*
X147698Y54648D01*
X149261Y50898*
X146761Y52461D02*
X148636D01*
X146136Y53063D02*
X147698Y56813D01*
X149261Y53063*
X146761Y54626D02*
X148636D01*
X146136Y55229D02*
X147698Y58979D01*
X149261Y55229*
X146761Y56791D02*
X148636D01*
X146136Y63103D02*
X147698Y66853D01*
X149261Y63103*
X146761Y64665D02*
X148636D01*
X146490Y33181D02*
X148053Y36931D01*
X149615Y33181*
X147115Y34744D02*
X148990D01*
X147159Y201370D02*
X148722Y205120D01*
X150285Y201370*
X147785Y202933D02*
X149659D01*
X147159Y262867D02*
X148722Y266617D01*
X150285Y262867*
X147785Y264429D02*
X149659D01*
X147278Y24993D02*
X148840Y28743D01*
X150403Y24993*
X147903Y26555D02*
X149778D01*
X147396Y217827D02*
X148958Y221577D01*
X150521Y217827*
X148021Y219390D02*
X149896D01*
X147396Y219953D02*
X148958Y223703D01*
X150521Y219953*
X148021Y221516D02*
X149896D01*
X147553Y43418D02*
X149116Y47168D01*
X150678Y43418*
X148178Y44980D02*
X150053D01*
X147868Y37906D02*
X149431Y41656D01*
X150993Y37906*
X148493Y39469D02*
X150368D01*
X147868Y40032D02*
X149431Y43782D01*
X150993Y40032*
X148493Y41594D02*
X150368D01*
X148262Y51528D02*
X149824Y55278D01*
X151387Y51528*
X148887Y53091D02*
X150762D01*
X148695Y33181D02*
X150257Y36931D01*
X151820Y33181*
X149320Y34744D02*
X151195D01*
X149049Y227906D02*
X150612Y231656D01*
X152174Y227906*
X149674Y229469D02*
X151549D01*
X149285Y218930D02*
X150848Y222680D01*
X152411Y218930*
X149911Y220492D02*
X151785D01*
X149364Y42237D02*
X150927Y45987D01*
X152489Y42237*
X149989Y43799D02*
X151864D01*
X149443Y24993D02*
X151006Y28743D01*
X152568Y24993*
X150068Y26555D02*
X151943D01*
X149994Y278457D02*
X151557Y282207D01*
X153119Y278457*
X150619Y280020D02*
X152494D01*
X150073Y37906D02*
X151635Y41656D01*
X153198Y37906*
X150698Y39469D02*
X152573D01*
X150073Y40032D02*
X151635Y43782D01*
X153198Y40032*
X150698Y41594D02*
X152573D01*
X150073Y44441D02*
X151635Y48191D01*
X153198Y44441*
X150698Y46004D02*
X152573D01*
X150073Y151764D02*
X151635Y155514D01*
X153198Y151764*
X150698Y153327D02*
X152573D01*
X150073Y153851D02*
X151635Y157601D01*
X153198Y153851*
X150698Y155413D02*
X152573D01*
X150073Y156016D02*
X151635Y159766D01*
X153198Y156016*
X150698Y157579D02*
X152573D01*
X150152Y202315D02*
X151714Y206065D01*
X153277Y202315*
X150777Y203878D02*
X152652D01*
X150703Y73339D02*
X152265Y77089D01*
X153828Y73339*
X151328Y74902D02*
X153203D01*
X151608Y24993D02*
X153171Y28743D01*
X154733Y24993*
X152233Y26555D02*
X154108D01*
X151726Y51528D02*
X153289Y55278D01*
X154852Y51528*
X152352Y53091D02*
X154226D01*
X152199Y40032D02*
X153761Y43782D01*
X155324Y40032*
X152824Y41594D02*
X154699D01*
X152199Y42237D02*
X153761Y45987D01*
X155324Y42237*
X152824Y43799D02*
X154699D01*
X152199Y44441D02*
X153761Y48191D01*
X155324Y44441*
X152824Y46004D02*
X154699D01*
X152278Y151764D02*
X153840Y155514D01*
X155403Y151764*
X152903Y153327D02*
X154778D01*
X152278Y153851D02*
X153840Y157601D01*
X155403Y153851*
X152903Y155413D02*
X154778D01*
X152278Y156016D02*
X153840Y159766D01*
X155403Y156016*
X152903Y157579D02*
X154778D01*
X152435Y219323D02*
X153998Y223073D01*
X155560Y219323*
X153060Y220886D02*
X154935D01*
X152829Y229008D02*
X154391Y232758D01*
X155954Y229008*
X153454Y230571D02*
X155329D01*
X152986Y71174D02*
X154549Y74924D01*
X156111Y71174*
X153611Y72736D02*
X155486D01*
X152986Y278457D02*
X154549Y282207D01*
X156111Y278457*
X153611Y280020D02*
X155486D01*
X153380Y237119D02*
X154943Y240869D01*
X156505Y237119*
X154005Y238681D02*
X155880D01*
X153537Y190426D02*
X155100Y194176D01*
X156663Y190426*
X154163Y191988D02*
X156037D01*
X153537Y192630D02*
X155100Y196380D01*
X156663Y192630*
X154163Y194193D02*
X156037D01*
X153537Y194835D02*
X155100Y198585D01*
X156663Y194835*
X154163Y196398D02*
X156037D01*
X153852Y97355D02*
X155415Y101105D01*
X156978Y97355*
X154478Y98917D02*
X156352D01*
X153931Y93103D02*
X155494Y96853D01*
X157056Y93103*
X154556Y94665D02*
X156431D01*
X153931Y95229D02*
X155494Y98979D01*
X157056Y95229*
X154556Y96791D02*
X156431D01*
X154404Y151685D02*
X155966Y155435D01*
X157529Y151685*
X155029Y153248D02*
X156904D01*
X154404Y153811D02*
X155966Y157561D01*
X157529Y153811*
X155029Y155374D02*
X156904D01*
X154404Y156016D02*
X155966Y159766D01*
X157529Y156016*
X155029Y157579D02*
X156904D01*
X154404Y158142D02*
X155966Y161892D01*
X157529Y158142*
X155029Y159705D02*
X156904D01*
X154404Y160268D02*
X155966Y164018D01*
X157529Y160268*
X155029Y161831D02*
X156904D01*
X154600Y36174D02*
X156163Y39924D01*
X157726Y36174*
X155226Y37736D02*
X157100D01*
X155112Y176961D02*
X156675Y180711D01*
X158237Y176961*
X155737Y178524D02*
X157612D01*
X155348Y85780D02*
X156911Y89530D01*
X158474Y85780*
X155974Y87343D02*
X157848D01*
X155663Y228063D02*
X157226Y231813D01*
X158789Y228063*
X156289Y229626D02*
X158163D01*
X155742Y190347D02*
X157305Y194097D01*
X158867Y190347*
X156367Y191909D02*
X158242D01*
X155742Y192552D02*
X157305Y196302D01*
X158867Y192552*
X156367Y194114D02*
X158242D01*
X155742Y194756D02*
X157305Y198506D01*
X158867Y194756*
X156367Y196319D02*
X158242D01*
X155821Y224756D02*
X157383Y228506D01*
X158946Y224756*
X156446Y226319D02*
X158321D01*
X155978Y97355D02*
X157541Y101105D01*
X159104Y97355*
X156604Y98917D02*
X158478D01*
X156057Y93103D02*
X157620Y96853D01*
X159182Y93103*
X156682Y94665D02*
X158557D01*
X156057Y95229D02*
X157620Y98979D01*
X159182Y95229*
X156682Y96791D02*
X158557D01*
X156136Y37748D02*
X157698Y41498D01*
X159261Y37748*
X156761Y39311D02*
X158636D01*
X156136Y175150D02*
X157698Y178900D01*
X159261Y175150*
X156761Y176713D02*
X158636D01*
X156215Y178693D02*
X157777Y182443D01*
X159340Y178693*
X156840Y180256D02*
X158715D01*
X157238Y176882D02*
X158801Y180632D01*
X160363Y176882*
X157863Y178445D02*
X159738D01*
X157632Y212867D02*
X159194Y216617D01*
X160757Y212867*
X158257Y214429D02*
X160132D01*
X157750Y255622D02*
X159313Y259372D01*
X160875Y255622*
X158375Y257185D02*
X160250D01*
X157789Y209717D02*
X159352Y213467D01*
X160915Y209717*
X158415Y211280D02*
X160289D01*
X157947Y190347D02*
X159509Y194097D01*
X161072Y190347*
X158572Y191909D02*
X160447D01*
X158026Y192552D02*
X159588Y196302D01*
X161151Y192552*
X158651Y194114D02*
X160526D01*
X158026Y194835D02*
X159588Y198585D01*
X161151Y194835*
X158651Y196398D02*
X160526D01*
X158026Y197040D02*
X159588Y200790D01*
X161151Y197040*
X158651Y198602D02*
X160526D01*
X158026Y199244D02*
X159588Y202994D01*
X161151Y199244*
X158651Y200807D02*
X160526D01*
X158183Y93024D02*
X159746Y96774D01*
X161308Y93024*
X158808Y94587D02*
X160683D01*
X158183Y95150D02*
X159746Y98900D01*
X161308Y95150*
X158808Y96713D02*
X160683D01*
X158183Y231056D02*
X159746Y234806D01*
X161308Y231056*
X158808Y232618D02*
X160683D01*
X158262Y144363D02*
X159824Y148113D01*
X161387Y144363*
X158887Y145925D02*
X160762D01*
X158262Y175071D02*
X159824Y178821D01*
X161387Y175071*
X158887Y176634D02*
X160762D01*
X158341Y178693D02*
X159903Y182443D01*
X161466Y178693*
X158966Y180256D02*
X160841D01*
X158656Y215859D02*
X160218Y219609D01*
X161781Y215859*
X159281Y217421D02*
X161156D01*
X159364Y176882D02*
X160927Y180632D01*
X162489Y176882*
X159989Y178445D02*
X161864D01*
X159443Y217591D02*
X161006Y221341D01*
X162568Y217591*
X160068Y219154D02*
X161943D01*
X159837Y182867D02*
X161399Y186617D01*
X162962Y182867*
X160462Y184429D02*
X162337D01*
X159994Y221922D02*
X161557Y225672D01*
X163119Y221922*
X160619Y223484D02*
X162494D01*
X160073Y209953D02*
X161635Y213703D01*
X163198Y209953*
X160698Y211516D02*
X162573D01*
X160152Y190347D02*
X161714Y194097D01*
X163277Y190347*
X160777Y191909D02*
X162652D01*
X160152Y253024D02*
X161714Y256774D01*
X163277Y253024*
X160777Y254587D02*
X162652D01*
X160230Y192552D02*
X161793Y196302D01*
X163356Y192552*
X160856Y194114D02*
X162730D01*
X160230Y194756D02*
X161793Y198506D01*
X163356Y194756*
X160856Y196319D02*
X162730D01*
X160230Y196961D02*
X161793Y200711D01*
X163356Y196961*
X160856Y198524D02*
X162730D01*
X160230Y199166D02*
X161793Y202916D01*
X163356Y199166*
X160856Y200728D02*
X162730D01*
X160309Y38063D02*
X161872Y41813D01*
X163434Y38063*
X160934Y39626D02*
X162809D01*
X160309Y40268D02*
X161872Y44018D01*
X163434Y40268*
X160934Y41831D02*
X162809D01*
X160309Y42433D02*
X161872Y46183D01*
X163434Y42433*
X160934Y43996D02*
X162809D01*
X160309Y44599D02*
X161872Y48349D01*
X163434Y44599*
X160934Y46161D02*
X162809D01*
X160309Y46764D02*
X161872Y50514D01*
X163434Y46764*
X160934Y48327D02*
X162809D01*
X160309Y48930D02*
X161872Y52680D01*
X163434Y48930*
X160934Y50492D02*
X162809D01*
X160309Y51134D02*
X161872Y54884D01*
X163434Y51134*
X160934Y52697D02*
X162809D01*
X160388Y175071D02*
X161950Y178821D01*
X163513Y175071*
X161013Y176634D02*
X162888D01*
X160467Y178693D02*
X162029Y182443D01*
X163592Y178693*
X161092Y180256D02*
X162967D01*
X160624Y224835D02*
X162187Y228585D01*
X163749Y224835*
X161249Y226398D02*
X163124D01*
X160781Y216331D02*
X162344Y220081D01*
X163907Y216331*
X161407Y217894D02*
X163281D01*
X161175Y205859D02*
X162738Y209609D01*
X164300Y205859*
X161800Y207421D02*
X163675D01*
X161490Y176882D02*
X163053Y180632D01*
X164615Y176882*
X162115Y178445D02*
X163990D01*
X162041Y250662D02*
X163604Y254412D01*
X165167Y250662*
X162667Y252224D02*
X164541D01*
X162199Y207748D02*
X163761Y211498D01*
X165324Y207748*
X162824Y209311D02*
X164699D01*
X162199Y209953D02*
X163761Y213703D01*
X165324Y209953*
X162824Y211516D02*
X164699D01*
X162356Y190347D02*
X163919Y194097D01*
X165481Y190347*
X162981Y191909D02*
X164856D01*
X162435Y175071D02*
X163998Y178821D01*
X165560Y175071*
X163060Y176634D02*
X164935D01*
X162435Y192552D02*
X163998Y196302D01*
X165560Y192552*
X163060Y194114D02*
X164935D01*
X162435Y194756D02*
X163998Y198506D01*
X165560Y194756*
X163060Y196319D02*
X164935D01*
X162435Y196961D02*
X163998Y200711D01*
X165560Y196961*
X163060Y198524D02*
X164935D01*
X162435Y199166D02*
X163998Y202916D01*
X165560Y199166*
X163060Y200728D02*
X164935D01*
X162474Y38063D02*
X164037Y41813D01*
X165600Y38063*
X163100Y39626D02*
X164974D01*
X162474Y40268D02*
X164037Y44018D01*
X165600Y40268*
X163100Y41831D02*
X164974D01*
X162474Y42433D02*
X164037Y46183D01*
X165600Y42433*
X163100Y43996D02*
X164974D01*
X162474Y44599D02*
X164037Y48349D01*
X165600Y44599*
X163100Y46161D02*
X164974D01*
X162474Y46764D02*
X164037Y50514D01*
X165600Y46764*
X163100Y48327D02*
X164974D01*
X162474Y48930D02*
X164037Y52680D01*
X165600Y48930*
X163100Y50492D02*
X164974D01*
X162474Y51134D02*
X164037Y54884D01*
X165600Y51134*
X163100Y52697D02*
X164974D01*
X162593Y178693D02*
X164155Y182443D01*
X165718Y178693*
X163218Y180256D02*
X165093D01*
X163380Y95465D02*
X164943Y99215D01*
X166505Y95465*
X164005Y97028D02*
X165880D01*
X163380Y148378D02*
X164943Y152128D01*
X166505Y148378*
X164005Y149941D02*
X165880D01*
X163616Y176804D02*
X165179Y180554D01*
X166741Y176804*
X164241Y178366D02*
X166116D01*
X163715Y202237D02*
X165277Y205987D01*
X166840Y202237*
X164340Y203799D02*
X166215D01*
X163951Y278457D02*
X165513Y282207D01*
X167076Y278457*
X164576Y280020D02*
X166451D01*
X164404Y207670D02*
X165966Y211420D01*
X167529Y207670*
X165029Y209232D02*
X166904D01*
X164404Y209874D02*
X165966Y213624D01*
X167529Y209874*
X165029Y211437D02*
X166904D01*
X164561Y174993D02*
X166124Y178743D01*
X167686Y174993*
X165186Y176555D02*
X167061D01*
X164640Y38063D02*
X166202Y41813D01*
X167765Y38063*
X165265Y39626D02*
X167140D01*
X164640Y40268D02*
X166202Y44018D01*
X167765Y40268*
X165265Y41831D02*
X167140D01*
X164640Y42433D02*
X166202Y46183D01*
X167765Y42433*
X165265Y43996D02*
X167140D01*
X164640Y44599D02*
X166202Y48349D01*
X167765Y44599*
X165265Y46161D02*
X167140D01*
X164640Y46764D02*
X166202Y50514D01*
X167765Y46764*
X165265Y48327D02*
X167140D01*
X164640Y48930D02*
X166202Y52680D01*
X167765Y48930*
X165265Y50492D02*
X167140D01*
X164719Y178615D02*
X166281Y182365D01*
X167844Y178615*
X165344Y180177D02*
X167219D01*
X164837Y88300D02*
X166399Y92050D01*
X167962Y88300*
X165462Y89862D02*
X167337D01*
X165033Y248693D02*
X166596Y252443D01*
X168159Y248693*
X165659Y250256D02*
X167533D01*
X165191Y122630D02*
X166754Y126380D01*
X168316Y122630*
X165816Y124193D02*
X167691D01*
X165742Y185386D02*
X167305Y189136D01*
X168867Y185386*
X166367Y186949D02*
X168242D01*
X165742Y232788D02*
X167305Y236538D01*
X168867Y232788*
X166367Y234350D02*
X168242D01*
X166530Y95544D02*
X168092Y99294D01*
X169655Y95544*
X167155Y97106D02*
X169030D01*
X166608Y207670D02*
X168171Y211420D01*
X169733Y207670*
X167233Y209232D02*
X169108D01*
X166608Y209874D02*
X168171Y213624D01*
X169733Y209874*
X167233Y211437D02*
X169108D01*
X166805Y38063D02*
X168368Y41813D01*
X169930Y38063*
X167430Y39626D02*
X169305D01*
X166805Y40268D02*
X168368Y44018D01*
X169930Y40268*
X167430Y41831D02*
X169305D01*
X166805Y42433D02*
X168368Y46183D01*
X169930Y42433*
X167430Y43996D02*
X169305D01*
X166805Y44599D02*
X168368Y48349D01*
X169930Y44599*
X167430Y46161D02*
X169305D01*
X166805Y46764D02*
X168368Y50514D01*
X169930Y46764*
X167430Y48327D02*
X169305D01*
X166805Y48930D02*
X168368Y52680D01*
X169930Y48930*
X167430Y50492D02*
X169305D01*
X166805Y85937D02*
X168368Y89687D01*
X169930Y85937*
X167430Y87500D02*
X169305D01*
X166923Y258457D02*
X168486Y262207D01*
X170048Y258457*
X167548Y260020D02*
X169423D01*
X167002Y104599D02*
X168565Y108349D01*
X170127Y104599*
X167627Y106161D02*
X169502D01*
X167947Y109638D02*
X169509Y113388D01*
X171072Y109638*
X168572Y111201D02*
X170447D01*
X168026Y248693D02*
X169588Y252443D01*
X171151Y248693*
X168651Y250256D02*
X170526D01*
X168498Y98063D02*
X170061Y101813D01*
X171623Y98063*
X169123Y99626D02*
X170998D01*
X168656Y215622D02*
X170218Y219372D01*
X171781Y215622*
X169281Y217185D02*
X171156D01*
X168970Y38063D02*
X170533Y41813D01*
X172096Y38063*
X169596Y39626D02*
X171470D01*
X168970Y40268D02*
X170533Y44018D01*
X172096Y40268*
X169596Y41831D02*
X171470D01*
X168970Y42433D02*
X170533Y46183D01*
X172096Y42433*
X169596Y43996D02*
X171470D01*
X168970Y44599D02*
X170533Y48349D01*
X172096Y44599*
X169596Y46161D02*
X171470D01*
X168970Y46764D02*
X170533Y50514D01*
X172096Y46764*
X169596Y48327D02*
X171470D01*
X169049Y256331D02*
X170612Y260081D01*
X172174Y256331*
X169674Y257894D02*
X171549D01*
X170152Y49914D02*
X171714Y53664D01*
X173277Y49914*
X170777Y51476D02*
X172652D01*
X171018Y110032D02*
X172580Y113782D01*
X174143Y110032*
X171643Y111594D02*
X173518D01*
X171136Y38063D02*
X172698Y41813D01*
X174261Y38063*
X171761Y39626D02*
X173636D01*
X171136Y40268D02*
X172698Y44018D01*
X174261Y40268*
X171761Y41831D02*
X173636D01*
X171136Y42433D02*
X172698Y46183D01*
X174261Y42433*
X171761Y43996D02*
X173636D01*
X171136Y44599D02*
X172698Y48349D01*
X174261Y44599*
X171761Y46161D02*
X173636D01*
X171136Y46764D02*
X172698Y50514D01*
X174261Y46764*
X171761Y48327D02*
X173636D01*
X171175Y233103D02*
X172738Y236853D01*
X174300Y233103*
X171800Y234665D02*
X173675D01*
X171175Y254205D02*
X172738Y257955D01*
X174300Y254205*
X171800Y255768D02*
X173675D01*
X171805Y90898D02*
X173368Y94648D01*
X174930Y90898*
X172430Y92461D02*
X174305D01*
X171884Y251292D02*
X173446Y255042D01*
X175009Y251292*
X172509Y252854D02*
X174384D01*
X172435Y114835D02*
X173998Y118585D01*
X175560Y114835*
X173060Y116398D02*
X174935D01*
X172986Y93969D02*
X174549Y97719D01*
X176111Y93969*
X173611Y95531D02*
X175486D01*
X173144Y146725D02*
X174706Y150475D01*
X176269Y146725*
X173769Y148287D02*
X175644D01*
X173144Y148851D02*
X174706Y152601D01*
X176269Y148851*
X173769Y150413D02*
X175644D01*
X173144Y150977D02*
X174706Y154727D01*
X176269Y150977*
X173769Y152539D02*
X175644D01*
X173301Y38063D02*
X174864Y41813D01*
X176426Y38063*
X173926Y39626D02*
X175801D01*
X173301Y40268D02*
X174864Y44018D01*
X176426Y40268*
X173926Y41831D02*
X175801D01*
X173301Y42433D02*
X174864Y46183D01*
X176426Y42433*
X173926Y43996D02*
X175801D01*
X173301Y44599D02*
X174864Y48349D01*
X176426Y44599*
X173926Y46161D02*
X175801D01*
X173301Y46764D02*
X174864Y50514D01*
X176426Y46764*
X173926Y48327D02*
X175801D01*
X173301Y48930D02*
X174864Y52680D01*
X176426Y48930*
X173926Y50492D02*
X175801D01*
X173459Y221685D02*
X175021Y225435D01*
X176584Y221685*
X174084Y223248D02*
X175959D01*
X173616Y214678D02*
X175179Y218428D01*
X176741Y214678*
X174241Y216240D02*
X176116D01*
X173695Y158378D02*
X175257Y162128D01*
X176820Y158378*
X174320Y159941D02*
X176195D01*
X173695Y164993D02*
X175257Y168743D01*
X176820Y164993*
X174320Y166555D02*
X176195D01*
X173695Y278221D02*
X175257Y281971D01*
X176820Y278221*
X174320Y279783D02*
X176195D01*
X174089Y70504D02*
X175651Y74254D01*
X177214Y70504*
X174714Y72067D02*
X176589D01*
X174089Y72788D02*
X175651Y76538D01*
X177214Y72788*
X174714Y74350D02*
X176589D01*
X174561Y239796D02*
X176124Y243546D01*
X177686Y239796*
X175186Y241358D02*
X177061D01*
X174640Y77591D02*
X176202Y81341D01*
X177765Y77591*
X175265Y79154D02*
X177140D01*
X174876Y118024D02*
X176439Y121774D01*
X178001Y118024*
X175501Y119587D02*
X177376D01*
X174955Y166725D02*
X176517Y170475D01*
X178080Y166725*
X175580Y168287D02*
X177455D01*
X174974Y155696D02*
X175287Y155384D01*
X175912Y155071*
X176537Y155384*
X176850Y155696*
Y158821*
X177474*
X176850D02*
X175600D01*
X174974Y162350D02*
X175287Y162037D01*
X175912Y161725*
X176537Y162037*
X176850Y162350*
Y165475*
X177474*
X176850D02*
X175600D01*
X175033Y145622D02*
X176596Y149372D01*
X178159Y145622*
X175659Y147185D02*
X177533D01*
X175033Y147748D02*
X176596Y151498D01*
X178159Y147748*
X175659Y149311D02*
X177533D01*
X175033Y149874D02*
X176596Y153624D01*
X178159Y149874*
X175659Y151437D02*
X177533D01*
X175467Y38063D02*
X177029Y41813D01*
X178592Y38063*
X176092Y39626D02*
X177967D01*
X175467Y40268D02*
X177029Y44018D01*
X178592Y40268*
X176092Y41831D02*
X177967D01*
X175467Y42433D02*
X177029Y46183D01*
X178592Y42433*
X176092Y43996D02*
X177967D01*
X175467Y44599D02*
X177029Y48349D01*
X178592Y44599*
X176092Y46161D02*
X177967D01*
X175467Y46764D02*
X177029Y50514D01*
X178592Y46764*
X176092Y48327D02*
X177967D01*
X175467Y48930D02*
X177029Y52680D01*
X178592Y48930*
X176092Y50492D02*
X177967D01*
X175978Y71685D02*
X177541Y75435D01*
X179104Y71685*
X176604Y73248D02*
X178478D01*
X176215Y50977D02*
X177777Y54727D01*
X179340Y50977*
X176840Y52539D02*
X178715D01*
X176215Y53181D02*
X177777Y56931D01*
X179340Y53181*
X176840Y54744D02*
X178715D01*
X176215Y158378D02*
X177777Y162128D01*
X179340Y158378*
X176840Y159941D02*
X178715D01*
X176215Y164993D02*
X177777Y168743D01*
X179340Y164993*
X176840Y166555D02*
X178715D01*
X176766Y77591D02*
X178328Y81341D01*
X179891Y77591*
X177391Y79154D02*
X179266D01*
X177081Y96961D02*
X178643Y100711D01*
X180206Y96961*
X177706Y98524D02*
X179581D01*
X177159Y143496D02*
X178722Y147246D01*
X180285Y143496*
X177785Y145059D02*
X179659D01*
X177159Y145622D02*
X178722Y149372D01*
X180285Y145622*
X177785Y147185D02*
X179659D01*
X177159Y147748D02*
X178722Y151498D01*
X180285Y147748*
X177785Y149311D02*
X179659D01*
X177474Y166725D02*
X179037Y170475D01*
X180600Y166725*
X178100Y168287D02*
X179974D01*
X177553Y212867D02*
X179116Y216617D01*
X180678Y212867*
X178178Y214429D02*
X180053D01*
X177632Y128536D02*
X179194Y132286D01*
X180757Y128536*
X178257Y130098D02*
X180132D01*
X177711Y201764D02*
X179273Y205514D01*
X180836Y201764*
X178336Y203327D02*
X180211D01*
X177947Y70662D02*
X179509Y74412D01*
X181072Y70662*
X178572Y72224D02*
X180447D01*
X177947Y72867D02*
X179509Y76617D01*
X181072Y72867*
X178572Y74429D02*
X180447D01*
X178183Y149559D02*
X179746Y153309D01*
X181308Y149559*
X178808Y151122D02*
X180683D01*
X178419Y237906D02*
X179982Y241656D01*
X181544Y237906*
X179044Y239469D02*
X180919D01*
X180061Y84441D02*
Y88191D01*
X178498D02*
X181623D01*
X178577Y164914D02*
X180139Y168664D01*
X181702Y164914*
X179202Y166476D02*
X181077D01*
X178813Y224205D02*
X180376Y227955D01*
X181938Y224205*
X179438Y225768D02*
X181313D01*
X178813Y226252D02*
X180376Y230002D01*
X181938Y226252*
X179438Y227815D02*
X181313D01*
X179285Y143496D02*
X180848Y147246D01*
X182411Y143496*
X179911Y145059D02*
X181785D01*
X179285Y145622D02*
X180848Y149372D01*
X182411Y145622*
X179911Y147185D02*
X181785D01*
X179285Y147748D02*
X180848Y151498D01*
X182411Y147748*
X179911Y149311D02*
X181785D01*
X179600Y59712D02*
X179913Y59400D01*
X180538Y59087*
X181163Y59400*
X181476Y59712*
Y62837*
X182100*
X181476D02*
X180226D01*
X179758Y166725D02*
X181320Y170475D01*
X182883Y166725*
X180383Y168287D02*
X182258D01*
X180309Y149559D02*
X181872Y153309D01*
X183434Y149559*
X180934Y151122D02*
X182809D01*
X180309Y207355D02*
X181872Y211105D01*
X183434Y207355*
X180934Y208917D02*
X182809D01*
X180388Y209559D02*
X181950Y213309D01*
X183513Y209559*
X181013Y211122D02*
X182888D01*
X180388Y211764D02*
X181950Y215514D01*
X183513Y211764*
X181013Y213327D02*
X182888D01*
X180467Y77591D02*
X182029Y81341D01*
X183592Y77591*
X181092Y79154D02*
X182967D01*
X180467Y213890D02*
X182029Y217640D01*
X183592Y213890*
X181092Y215453D02*
X182967D01*
X180545Y237906D02*
X182108Y241656D01*
X183670Y237906*
X181170Y239469D02*
X183045D01*
X180781Y223654D02*
X182344Y227404D01*
X183907Y223654*
X181407Y225217D02*
X183281D01*
X180781Y225859D02*
X182344Y229609D01*
X183907Y225859*
X181407Y227421D02*
X183281D01*
X180860Y98221D02*
X182423Y101971D01*
X183985Y98221*
X181485Y99783D02*
X183360D01*
X181411Y143496D02*
X182974Y147246D01*
X184537Y143496*
X182037Y145059D02*
X183911D01*
X181411Y145622D02*
X182974Y149372D01*
X184537Y145622*
X182037Y147185D02*
X183911D01*
X181411Y147748D02*
X182974Y151498D01*
X184537Y147748*
X182037Y149311D02*
X183911D01*
X181411Y232473D02*
X182974Y236223D01*
X184537Y232473*
X182037Y234035D02*
X183911D01*
X182435Y149559D02*
X183998Y153309D01*
X185560Y149559*
X183060Y151122D02*
X184935D01*
X182593Y201449D02*
X184155Y205199D01*
X185718Y201449*
X183218Y203012D02*
X185093D01*
X183222Y144520D02*
X184785Y148270D01*
X186348Y144520*
X183848Y146083D02*
X185722D01*
X183222Y146646D02*
X184785Y150396D01*
X186348Y146646*
X183848Y148209D02*
X185722D01*
X183380Y119087D02*
X184943Y122837D01*
X186505Y119087*
X184005Y120650D02*
X185880D01*
X185348Y73969D02*
X186911Y77719D01*
X188474Y73969*
X185974Y75531D02*
X187848D01*
X185663Y131134D02*
X187226Y134884D01*
X188789Y131134*
X186289Y132697D02*
X188163D01*
X187890Y281415D02*
X188515Y281102D01*
X188828Y280478*
X188515Y279852*
X187890Y279540*
X185703*
Y283290*
X187890*
X188515Y282978*
X188828Y282352*
X188515Y281728*
X187890Y281415*
X185703*
X185742Y116095D02*
X187305Y119845D01*
X188867Y116095*
X186367Y117657D02*
X188242D01*
X185978Y59712D02*
X186291Y59400D01*
X186916Y59087*
X187541Y59400*
X187854Y59712*
Y62837*
X188478*
X187854D02*
X186604D01*
X187278Y173536D02*
X188840Y177286D01*
X190403Y173536*
X187903Y175098D02*
X189778D01*
X187278Y178457D02*
X188840Y182207D01*
X190403Y178457*
X187903Y180020D02*
X189778D01*
X187632Y200898D02*
X189194Y204648D01*
X190757Y200898*
X188257Y202461D02*
X190132D01*
X188262Y124284D02*
X189824Y128034D01*
X191387Y124284*
X188887Y125846D02*
X190762D01*
X188734Y138063D02*
X190297Y141813D01*
X191859Y138063*
X189359Y139626D02*
X191234D01*
X188734Y140111D02*
X190297Y143861D01*
X191859Y140111*
X189359Y141673D02*
X191234D01*
X188734Y142237D02*
X190297Y145987D01*
X191859Y142237*
X189359Y143799D02*
X191234D01*
X188734Y144284D02*
X190297Y148034D01*
X191859Y144284*
X189359Y145846D02*
X191234D01*
X188734Y146489D02*
X190297Y150239D01*
X191859Y146489*
X189359Y148051D02*
X191234D01*
X188734Y148693D02*
X190297Y152443D01*
X191859Y148693*
X189359Y150256D02*
X191234D01*
X188813Y233339D02*
X190376Y237089D01*
X191938Y233339*
X189438Y234902D02*
X191313D01*
X188911Y45721D02*
X190474Y49471D01*
X192037Y45721*
X189537Y47283D02*
X191411D01*
X189108Y36331D02*
X190671Y40081D01*
X192233Y36331*
X189733Y37894D02*
X191608D01*
X189108Y38496D02*
X190671Y42246D01*
X192233Y38496*
X189733Y40059D02*
X191608D01*
X189108Y40662D02*
X190671Y44412D01*
X192233Y40662*
X189733Y42224D02*
X191608D01*
X189108Y42847D02*
X190671Y46597D01*
X192233Y42847*
X189733Y44409D02*
X191608D01*
X189443Y155130D02*
X191006Y158880D01*
X192568Y155130*
X190068Y156693D02*
X191943D01*
X190230Y243733D02*
X191793Y247483D01*
X193356Y243733*
X190856Y245295D02*
X192730D01*
X190703Y59244D02*
X192265Y62994D01*
X193828Y59244*
X191328Y60807D02*
X193203D01*
X190939Y138063D02*
X192502Y141813D01*
X194064Y138063*
X191564Y139626D02*
X193439D01*
X190939Y140111D02*
X192502Y143861D01*
X194064Y140111*
X191564Y141673D02*
X193439D01*
X190939Y142237D02*
X192502Y145987D01*
X194064Y142237*
X191564Y143799D02*
X193439D01*
X190939Y144284D02*
X192502Y148034D01*
X194064Y144284*
X191564Y145846D02*
X193439D01*
X190939Y146489D02*
X192502Y150239D01*
X194064Y146489*
X191564Y148051D02*
X193439D01*
X190939Y148693D02*
X192502Y152443D01*
X194064Y148693*
X191564Y150256D02*
X193439D01*
X191333Y239559D02*
X192895Y243309D01*
X194458Y239559*
X191958Y241122D02*
X193833D01*
X191569Y221843D02*
X193131Y225593D01*
X194694Y221843*
X192194Y223406D02*
X194069D01*
X191569Y223890D02*
X193131Y227640D01*
X194694Y223890*
X192194Y225453D02*
X194069D01*
X191569Y225937D02*
X193131Y229687D01*
X194694Y225937*
X192194Y227500D02*
X194069D01*
X191884Y129481D02*
X193446Y133231D01*
X195009Y129481*
X192509Y131043D02*
X194384D01*
X192041Y231922D02*
X193604Y235672D01*
X195167Y231922*
X192667Y233484D02*
X194541D01*
X192356Y237591D02*
X193919Y241341D01*
X195481Y237591*
X192981Y239154D02*
X194856D01*
X192514Y60426D02*
X194076Y64176D01*
X195639Y60426*
X193139Y61988D02*
X195014D01*
X192514Y99323D02*
X194076Y103073D01*
X195639Y99323*
X193139Y100886D02*
X195014D01*
X192593Y58221D02*
X194155Y61971D01*
X195718Y58221*
X193218Y59783D02*
X195093D01*
X193144Y138063D02*
X194706Y141813D01*
X196269Y138063*
X193769Y139626D02*
X195644D01*
X193144Y140111D02*
X194706Y143861D01*
X196269Y140111*
X193769Y141673D02*
X195644D01*
X193144Y142237D02*
X194706Y145987D01*
X196269Y142237*
X193769Y143799D02*
X195644D01*
X193144Y144284D02*
X194706Y148034D01*
X196269Y144284*
X193769Y145846D02*
X195644D01*
X193144Y146489D02*
X194706Y150239D01*
X196269Y146489*
X193769Y148051D02*
X195644D01*
X193144Y148693D02*
X194706Y152443D01*
X196269Y148693*
X193769Y150256D02*
X195644D01*
X193616Y239481D02*
X195179Y243231D01*
X196741Y239481*
X194241Y241043D02*
X196116D01*
X193616Y241607D02*
X195179Y245357D01*
X196741Y241607*
X194241Y243169D02*
X196116D01*
X194187Y269651D02*
X194500Y269026D01*
X195124Y268713*
X196374*
X197000Y269026*
X197312Y269651*
X197000Y270276*
X196374Y270588*
X195124*
X194500Y270901*
X194187Y271526*
X194500Y272151*
X195124Y272463*
X196374*
X197000Y272151*
X197312Y271526*
X195966Y69953D02*
Y73703D01*
X194404D02*
X197529D01*
X194581Y45800D02*
X196143Y49550D01*
X197706Y45800*
X195206Y47362D02*
X197081D01*
X194699Y36174D02*
X196261Y39924D01*
X197824Y36174*
X195324Y37736D02*
X197199D01*
X194699Y38339D02*
X196261Y42089D01*
X197824Y38339*
X195324Y39902D02*
X197199D01*
X194699Y40504D02*
X196261Y44254D01*
X197824Y40504*
X195324Y42067D02*
X197199D01*
X194699Y42689D02*
X196261Y46439D01*
X197824Y42689*
X195324Y44252D02*
X197199D01*
X195348Y138063D02*
X196911Y141813D01*
X198474Y138063*
X195974Y139626D02*
X197848D01*
X195348Y140111D02*
X196911Y143861D01*
X198474Y140111*
X195974Y141673D02*
X197848D01*
X195348Y142237D02*
X196911Y145987D01*
X198474Y142237*
X195974Y143799D02*
X197848D01*
X195348Y144284D02*
X196911Y148034D01*
X198474Y144284*
X195974Y145846D02*
X197848D01*
X195348Y148693D02*
X196911Y152443D01*
X198474Y148693*
X195974Y150256D02*
X197848D01*
X195427Y179441D02*
X196990Y183191D01*
X198552Y179441*
X196052Y181004D02*
X197927D01*
X195427Y181567D02*
X196990Y185317D01*
X198552Y181567*
X196052Y183130D02*
X197927D01*
X195427Y183693D02*
X196990Y187443D01*
X198552Y183693*
X196052Y185256D02*
X197927D01*
X195427Y185819D02*
X196990Y189569D01*
X198552Y185819*
X196052Y187382D02*
X197927D01*
X195427Y187945D02*
X196990Y191695D01*
X198552Y187945*
X196052Y189508D02*
X197927D01*
X195742Y237276D02*
X197305Y241026D01*
X198867Y237276*
X196367Y238839D02*
X198242D01*
X195742Y239402D02*
X197305Y243152D01*
X198867Y239402*
X196367Y240965D02*
X198242D01*
X195742Y241607D02*
X197305Y245357D01*
X198867Y241607*
X196367Y243169D02*
X198242D01*
X197396Y201056D02*
X198958Y204806D01*
X200521Y201056*
X198021Y202618D02*
X199896D01*
X197396Y203260D02*
X198958Y207010D01*
X200521Y203260*
X198021Y204823D02*
X199896D01*
X197396Y205465D02*
X198958Y209215D01*
X200521Y205465*
X198021Y207028D02*
X199896D01*
X197553Y109717D02*
X199116Y113467D01*
X200678Y109717*
X198178Y111280D02*
X200053D01*
X197553Y138063D02*
X199116Y141813D01*
X200678Y138063*
X198178Y139626D02*
X200053D01*
X197553Y140111D02*
X199116Y143861D01*
X200678Y140111*
X198178Y141673D02*
X200053D01*
X197553Y142079D02*
X199116Y145829D01*
X200678Y142079*
X198178Y143642D02*
X200053D01*
X197553Y179441D02*
X199116Y183191D01*
X200678Y179441*
X198178Y181004D02*
X200053D01*
X197553Y181567D02*
X199116Y185317D01*
X200678Y181567*
X198178Y183130D02*
X200053D01*
X197553Y183693D02*
X199116Y187443D01*
X200678Y183693*
X198178Y185256D02*
X200053D01*
X197553Y185819D02*
X199116Y189569D01*
X200678Y185819*
X198178Y187382D02*
X200053D01*
X197553Y187945D02*
X199116Y191695D01*
X200678Y187945*
X198178Y189508D02*
X200053D01*
X197947Y243181D02*
X199509Y246931D01*
X201072Y243181*
X198572Y244744D02*
X200447D01*
X198183Y91843D02*
X199746Y95593D01*
X201308Y91843*
X198808Y93406D02*
X200683D01*
X199108Y278949D02*
Y282699D01*
X201296*
X201921Y282387*
X202233Y281762*
X201921Y281137*
X201296Y280824*
X199108*
X201296D02*
X202233Y278949D01*
X201768Y56809D02*
X202393Y56496D01*
X202706Y55871*
X202393Y55246*
X201768Y54933*
X199581*
Y58683*
X201768*
X202393Y58371*
X202706Y57746*
X202393Y57121*
X201768Y56809*
X199581*
X199679Y179441D02*
X201242Y183191D01*
X202804Y179441*
X200304Y181004D02*
X202179D01*
X199679Y181567D02*
X201242Y185317D01*
X202804Y181567*
X200304Y183130D02*
X202179D01*
X199679Y183693D02*
X201242Y187443D01*
X202804Y183693*
X200304Y185256D02*
X202179D01*
X199679Y185819D02*
X201242Y189569D01*
X202804Y185819*
X200304Y187382D02*
X202179D01*
X199679Y187945D02*
X201242Y191695D01*
X202804Y187945*
X200304Y189508D02*
X202179D01*
X199994Y201056D02*
X201557Y204806D01*
X203119Y201056*
X200619Y202618D02*
X202494D01*
X200152Y117512D02*
X201714Y121262D01*
X203277Y117512*
X200777Y119075D02*
X202652D01*
X200152Y243181D02*
X201714Y246931D01*
X203277Y243181*
X200777Y244744D02*
X202652D01*
X200388Y249953D02*
X201950Y253703D01*
X203513Y249953*
X201013Y251516D02*
X202888D01*
X200781Y131056D02*
X202344Y134806D01*
X203907Y131056*
X201407Y132618D02*
X203281D01*
X201805Y179441D02*
X203368Y183191D01*
X204930Y179441*
X202430Y181004D02*
X204305D01*
X201805Y181567D02*
X203368Y185317D01*
X204930Y181567*
X202430Y183130D02*
X204305D01*
X201805Y183693D02*
X203368Y187443D01*
X204930Y183693*
X202430Y185256D02*
X204305D01*
X201805Y185819D02*
X203368Y189569D01*
X204930Y185819*
X202430Y187382D02*
X204305D01*
X201805Y187945D02*
X203368Y191695D01*
X204930Y187945*
X202430Y189508D02*
X204305D01*
X202199Y201056D02*
X203761Y204806D01*
X205324Y201056*
X202824Y202618D02*
X204699D01*
X202356Y141922D02*
X203919Y145672D01*
X205481Y141922*
X202981Y143484D02*
X204856D01*
X202671Y236725D02*
X204234Y240475D01*
X205796Y236725*
X203296Y238287D02*
X205171D01*
X203911Y179441D02*
X205474Y183191D01*
X207037Y179441*
X204537Y181004D02*
X206411D01*
X203911Y181567D02*
X205474Y185317D01*
X207037Y181567*
X204537Y183130D02*
X206411D01*
X203911Y183693D02*
X205474Y187443D01*
X207037Y183693*
X204537Y185256D02*
X206411D01*
X203911Y185819D02*
X205474Y189569D01*
X207037Y185819*
X204537Y187382D02*
X206411D01*
X203911Y187945D02*
X205474Y191695D01*
X207037Y187945*
X204537Y189508D02*
X206411D01*
X204404Y201056D02*
X205966Y204806D01*
X207529Y201056*
X205029Y202618D02*
X206904D01*
X204404Y203260D02*
X205966Y207010D01*
X207529Y203260*
X205029Y204823D02*
X206904D01*
X204404Y205465D02*
X205966Y209215D01*
X207529Y205465*
X205029Y207028D02*
X206904D01*
X204404Y207591D02*
X205966Y211341D01*
X207529Y207591*
X205029Y209154D02*
X206904D01*
X204719Y224048D02*
X206281Y227798D01*
X207844Y224048*
X205344Y225610D02*
X207219D01*
X205348Y136725D02*
X206911Y140475D01*
X208474Y136725*
X205974Y138287D02*
X207848D01*
X205348Y138851D02*
X206911Y142601D01*
X208474Y138851*
X205974Y140413D02*
X207848D01*
X206057Y179441D02*
X207620Y183191D01*
X209182Y179441*
X206682Y181004D02*
X208557D01*
X206057Y181567D02*
X207620Y185317D01*
X209182Y181567*
X206682Y183130D02*
X208557D01*
X206057Y183693D02*
X207620Y187443D01*
X209182Y183693*
X206682Y185256D02*
X208557D01*
X206057Y185819D02*
X207620Y189569D01*
X209182Y185819*
X206682Y187382D02*
X208557D01*
X206057Y187945D02*
X207620Y191695D01*
X209182Y187945*
X206682Y189508D02*
X208557D01*
X206372Y221056D02*
X207935Y224806D01*
X209497Y221056*
X206997Y222618D02*
X208872D01*
X206451Y235622D02*
X208013Y239372D01*
X209576Y235622*
X207076Y237185D02*
X208951D01*
X206530Y231764D02*
X208092Y235514D01*
X209655Y231764*
X207155Y233327D02*
X209030D01*
X206667Y45819D02*
X208230Y49569D01*
X209793Y45819*
X207293Y47382D02*
X209167D01*
X206687Y36213D02*
X208250Y39963D01*
X209812Y36213*
X207312Y37776D02*
X209187D01*
X206687Y38378D02*
X208250Y42128D01*
X209812Y38378*
X207312Y39941D02*
X209187D01*
X206687Y40544D02*
X208250Y44294D01*
X209812Y40544*
X207312Y42106D02*
X209187D01*
X206687Y42729D02*
X208250Y46479D01*
X209812Y42729*
X207312Y44291D02*
X209187D01*
X206963Y79638D02*
X208525Y83388D01*
X210088Y79638*
X207588Y81201D02*
X209463D01*
X208419Y96174D02*
X209982Y99924D01*
X211544Y96174*
X209044Y97736D02*
X210919D01*
X209049Y243339D02*
X210612Y247089D01*
X212174Y243339*
X209674Y244902D02*
X211549D01*
X210152Y150189D02*
X211714Y153939D01*
X213277Y150189*
X210777Y151752D02*
X212652D01*
X210388Y268063D02*
X211950Y271813D01*
X213513Y268063*
X211013Y269626D02*
X212888D01*
X210781Y114993D02*
X212344Y118743D01*
X213907Y114993*
X211407Y116555D02*
X213281D01*
X211175Y94599D02*
X212738Y98349D01*
X214300Y94599*
X211800Y96161D02*
X213675D01*
X212514Y225622D02*
X214076Y229372D01*
X215639Y225622*
X213139Y227185D02*
X215014D01*
X212671Y229402D02*
X214234Y233152D01*
X215796Y229402*
X213296Y230965D02*
X215171D01*
X212986Y234126D02*
X214549Y237876D01*
X216111Y234126*
X213611Y235689D02*
X215486D01*
X213065Y236331D02*
X214628Y240081D01*
X216190Y236331*
X213690Y237894D02*
X215565D01*
X213203Y105937D02*
X214765Y109687D01*
X216328Y105937*
X213828Y107500D02*
X215703D01*
X213301Y70189D02*
X214864Y73939D01*
X216426Y70189*
X213926Y71752D02*
X215801D01*
X213695Y219953D02*
X215257Y223703D01*
X216820Y219953*
X214320Y221516D02*
X216195D01*
X213931Y124048D02*
X215494Y127798D01*
X217056Y124048*
X214556Y125610D02*
X216431D01*
X214167Y94678D02*
X215730Y98428D01*
X217293Y94678*
X214793Y96240D02*
X216667D01*
X215033Y231843D02*
X216596Y235593D01*
X218159Y231843*
X215659Y233406D02*
X217533D01*
X215506Y105937D02*
X217069Y109687D01*
X218631Y105937*
X216131Y107500D02*
X218006D01*
X216215Y222473D02*
X217777Y226223D01*
X219340Y222473*
X216840Y224035D02*
X218715D01*
X216687Y266095D02*
X218250Y269845D01*
X219812Y266095*
X217312Y267657D02*
X219187D01*
X216825Y278949D02*
Y282699D01*
X219012*
X219637Y282387*
X219950Y281762*
X219637Y281137*
X219012Y280824*
X216825*
X219012D02*
X219950Y278949D01*
X217002Y100504D02*
X218565Y104254D01*
X220127Y100504*
X217627Y102067D02*
X219502D01*
X217002Y102630D02*
X218565Y106380D01*
X220127Y102630*
X217627Y104193D02*
X219502D01*
X217081Y98536D02*
X218643Y102286D01*
X220206Y98536*
X217706Y100098D02*
X219581D01*
X218104Y233024D02*
X219667Y236774D01*
X221230Y233024*
X218730Y234587D02*
X220604D01*
X218498Y65701D02*
X220061Y69451D01*
X221623Y65701*
X219123Y67264D02*
X220998D01*
X218970Y147827D02*
X220533Y151577D01*
X222096Y147827*
X219596Y149390D02*
X221470D01*
X219837Y154520D02*
X221399Y158270D01*
X222962Y154520*
X220462Y156083D02*
X222337D01*
X221746Y269651D02*
X222059Y269026D01*
X222683Y268713*
X223933*
X224559Y269026*
X224871Y269651*
X224559Y270276*
X223933Y270588*
X222683*
X222059Y270901*
X221746Y271526*
X222059Y272151*
X222683Y272463*
X223933*
X224559Y272151*
X224871Y271526*
X222986Y227276D02*
X224549Y231026D01*
X226111Y227276*
X223611Y228839D02*
X225486D01*
X223281Y38378D02*
X224844Y42128D01*
X226407Y38378*
X223907Y39941D02*
X225781D01*
X223281Y40544D02*
X224844Y44294D01*
X226407Y40544*
X223907Y42106D02*
X225781D01*
X223281Y42729D02*
X224844Y46479D01*
X226407Y42729*
X223907Y44291D02*
X225781D01*
X223301Y45800D02*
X224864Y49550D01*
X226426Y45800*
X223926Y47362D02*
X225801D01*
X223301Y154126D02*
X224864Y157876D01*
X226426Y154126*
X223926Y155689D02*
X225801D01*
X223380Y119638D02*
X224943Y123388D01*
X226505Y119638*
X224005Y121201D02*
X225880D01*
X223380Y249874D02*
X224943Y253624D01*
X226505Y249874*
X224005Y251437D02*
X225880D01*
X223459Y190662D02*
X225021Y194412D01*
X226584Y190662*
X224084Y192224D02*
X225959D01*
X223695Y246567D02*
X225257Y250317D01*
X226820Y246567*
X224320Y248130D02*
X226195D01*
X224010Y95071D02*
X225572Y98821D01*
X227135Y95071*
X224635Y96634D02*
X226510D01*
X224325Y75898D02*
X225887Y79648D01*
X227450Y75898*
X224950Y77461D02*
X226825D01*
X226372Y38378D02*
X227935Y42128D01*
X229497Y38378*
X226997Y39941D02*
X228872D01*
X226372Y40544D02*
X227935Y44294D01*
X229497Y40544*
X226997Y42106D02*
X228872D01*
X226372Y42709D02*
X227935Y46459D01*
X229497Y42709*
X226997Y44272D02*
X228872D01*
X226372Y44894D02*
X227935Y48644D01*
X229497Y44894*
X226997Y46457D02*
X228872D01*
X227081Y67433D02*
X228643Y71183D01*
X230206Y67433*
X227706Y68996D02*
X229581D01*
X227081Y140268D02*
X228643Y144018D01*
X230206Y140268*
X227706Y141831D02*
X229581D01*
X227081Y148772D02*
X228643Y152522D01*
X230206Y148772*
X227706Y150335D02*
X229581D01*
X228341Y159756D02*
X229903Y163506D01*
X231466Y159756*
X228966Y161319D02*
X230841D01*
X228734Y78457D02*
X230297Y82207D01*
X231859Y78457*
X229359Y80020D02*
X231234D01*
X228813Y124205D02*
X230376Y127955D01*
X231938Y124205*
X229438Y125768D02*
X231313D01*
X228970Y122158D02*
X230533Y125908D01*
X232096Y122158*
X229596Y123720D02*
X231470D01*
X229207Y140268D02*
X230769Y144018D01*
X232332Y140268*
X229832Y141831D02*
X231707D01*
X229207Y142394D02*
X230769Y146144D01*
X232332Y142394*
X229832Y143957D02*
X231707D01*
X229207Y144520D02*
X230769Y148270D01*
X232332Y144520*
X229832Y146083D02*
X231707D01*
X229207Y146646D02*
X230769Y150396D01*
X232332Y146646*
X229832Y148209D02*
X231707D01*
X229207Y148772D02*
X230769Y152522D01*
X232332Y148772*
X229832Y150335D02*
X231707D01*
X229443Y117670D02*
X231006Y121420D01*
X232568Y117670*
X230068Y119232D02*
X231943D01*
X230073Y67433D02*
X231635Y71183D01*
X233198Y67433*
X230698Y68996D02*
X232573D01*
X230152Y65229D02*
X231714Y68979D01*
X233277Y65229*
X230777Y66791D02*
X232652D01*
X230191Y56410D02*
X231754Y60160D01*
X233316Y56410*
X230816Y57972D02*
X232691D01*
X230742Y38300D02*
X232305Y42050D01*
X233867Y38300*
X231367Y39862D02*
X233242D01*
X230742Y40504D02*
X232305Y44254D01*
X233867Y40504*
X231367Y42067D02*
X233242D01*
X230742Y42670D02*
X232305Y46420D01*
X233867Y42670*
X231367Y44232D02*
X233242D01*
X230742Y44835D02*
X232305Y48585D01*
X233867Y44835*
X231367Y46398D02*
X233242D01*
X230742Y47000D02*
X232305Y50750D01*
X233867Y47000*
X231367Y48563D02*
X233242D01*
X230742Y49166D02*
X232305Y52916D01*
X233867Y49166*
X231367Y50728D02*
X233242D01*
X230742Y51370D02*
X232305Y55120D01*
X233867Y51370*
X231367Y52933D02*
X233242D01*
X231018Y110898D02*
X232580Y114648D01*
X234143Y110898*
X231643Y112461D02*
X233518D01*
X231963Y66489D02*
X233525Y70239D01*
X235088Y66489*
X232588Y68051D02*
X234463D01*
X232041Y64284D02*
X233604Y68034D01*
X235167Y64284*
X232667Y65846D02*
X234541D01*
X232907Y38300D02*
X234470Y42050D01*
X236033Y38300*
X233533Y39862D02*
X235407D01*
X232907Y40504D02*
X234470Y44254D01*
X236033Y40504*
X233533Y42067D02*
X235407D01*
X232907Y42670D02*
X234470Y46420D01*
X236033Y42670*
X233533Y44232D02*
X235407D01*
X232907Y44835D02*
X234470Y48585D01*
X236033Y44835*
X233533Y46398D02*
X235407D01*
X232907Y47000D02*
X234470Y50750D01*
X236033Y47000*
X233533Y48563D02*
X235407D01*
X232907Y49166D02*
X234470Y52916D01*
X236033Y49166*
X233533Y50728D02*
X235407D01*
X232907Y51370D02*
X234470Y55120D01*
X236033Y51370*
X233533Y52933D02*
X235407D01*
X232907Y53575D02*
X234470Y57325D01*
X236033Y53575*
X233533Y55138D02*
X235407D01*
X232907Y57945D02*
X234470Y61695D01*
X236033Y57945*
X233533Y59508D02*
X235407D01*
X232907Y60111D02*
X234470Y63861D01*
X236033Y60111*
X233533Y61673D02*
X235407D01*
X232907Y62315D02*
X234470Y66065D01*
X236033Y62315*
X233533Y63878D02*
X235407D01*
X233144Y94599D02*
X234706Y98349D01*
X236269Y94599*
X233769Y96161D02*
X235644D01*
X233144Y96725D02*
X234706Y100475D01*
X236269Y96725*
X233769Y98287D02*
X235644D01*
X233222Y90032D02*
X234785Y93782D01*
X236348Y90032*
X233848Y91594D02*
X235722D01*
X233380Y197276D02*
X234943Y201026D01*
X236505Y197276*
X234005Y198839D02*
X235880D01*
X234089Y68457D02*
X235651Y72207D01*
X237214Y68457*
X234714Y70020D02*
X236589D01*
X234167Y66252D02*
X235730Y70002D01*
X237293Y66252*
X234793Y67815D02*
X236667D01*
X234246Y64126D02*
X235809Y67876D01*
X237371Y64126*
X234871Y65689D02*
X236746D01*
X234325Y86528D02*
X235887Y90278D01*
X237450Y86528*
X234950Y88091D02*
X236825D01*
X234325Y202158D02*
X235887Y205908D01*
X237450Y202158*
X234950Y203720D02*
X236825D01*
X234522Y82591D02*
X236084Y86341D01*
X237647Y82591*
X235147Y84154D02*
X237022D01*
X235073Y38300D02*
X236635Y42050D01*
X238198Y38300*
X235698Y39862D02*
X237573D01*
X235073Y40504D02*
X236635Y44254D01*
X238198Y40504*
X235698Y42067D02*
X237573D01*
X235073Y42670D02*
X236635Y46420D01*
X238198Y42670*
X235698Y44232D02*
X237573D01*
X235073Y44835D02*
X236635Y48585D01*
X238198Y44835*
X235698Y46398D02*
X237573D01*
X235073Y47000D02*
X236635Y50750D01*
X238198Y47000*
X235698Y48563D02*
X237573D01*
X235073Y49166D02*
X236635Y52916D01*
X238198Y49166*
X235698Y50728D02*
X237573D01*
X235073Y51370D02*
X236635Y55120D01*
X238198Y51370*
X235698Y52933D02*
X237573D01*
X235073Y53575D02*
X236635Y57325D01*
X238198Y53575*
X235698Y55138D02*
X237573D01*
X235073Y55780D02*
X236635Y59530D01*
X238198Y55780*
X235698Y57343D02*
X237573D01*
X235073Y57985D02*
X236635Y61735D01*
X238198Y57985*
X235698Y59547D02*
X237573D01*
X236411Y198181D02*
X237974Y201931D01*
X239537Y198181*
X237037Y199744D02*
X238911D01*
X236411Y200386D02*
X237974Y204136D01*
X239537Y200386*
X237037Y201949D02*
X238911D01*
X236411Y204796D02*
X237974Y208546D01*
X239537Y204796*
X237037Y206358D02*
X238911D01*
X236451Y195977D02*
X238013Y199727D01*
X239576Y195977*
X237076Y197539D02*
X238951D01*
X236451Y202591D02*
X238013Y206341D01*
X239576Y202591*
X237076Y204154D02*
X238951D01*
X236530Y193890D02*
X238092Y197640D01*
X239655Y193890*
X237155Y195453D02*
X239030D01*
X237238Y38221D02*
X238801Y41971D01*
X240363Y38221*
X237863Y39783D02*
X239738D01*
X237238Y40426D02*
X238801Y44176D01*
X240363Y40426*
X237863Y41988D02*
X239738D01*
X237238Y42591D02*
X238801Y46341D01*
X240363Y42591*
X237863Y44154D02*
X239738D01*
X237238Y44756D02*
X238801Y48506D01*
X240363Y44756*
X237863Y46319D02*
X239738D01*
X237238Y46922D02*
X238801Y50672D01*
X240363Y46922*
X237863Y48484D02*
X239738D01*
X237238Y49087D02*
X238801Y52837D01*
X240363Y49087*
X237863Y50650D02*
X239738D01*
X237238Y51292D02*
X238801Y55042D01*
X240363Y51292*
X237863Y52854D02*
X239738D01*
X237238Y55780D02*
X238801Y59530D01*
X240363Y55780*
X237863Y57343D02*
X239738D01*
X237238Y57985D02*
X238801Y61735D01*
X240363Y57985*
X237863Y59547D02*
X239738D01*
X237278Y53575D02*
X238840Y57325D01*
X240403Y53575*
X237903Y55138D02*
X239778D01*
X238577Y198181D02*
X240139Y201931D01*
X241702Y198181*
X239202Y199744D02*
X241077D01*
X238577Y200386D02*
X240139Y204136D01*
X241702Y200386*
X239202Y201949D02*
X241077D01*
X238577Y204796D02*
X240139Y208546D01*
X241702Y204796*
X239202Y206358D02*
X241077D01*
X238577Y207000D02*
X240139Y210750D01*
X241702Y207000*
X239202Y208563D02*
X241077D01*
X238616Y195977D02*
X240179Y199727D01*
X241741Y195977*
X239241Y197539D02*
X241116D01*
X238616Y202591D02*
X240179Y206341D01*
X241741Y202591*
X239241Y204154D02*
X241116D01*
X238656Y193851D02*
X240218Y197601D01*
X241781Y193851*
X239281Y195413D02*
X241156D01*
X239404Y38221D02*
X240966Y41971D01*
X242529Y38221*
X240029Y39783D02*
X241904D01*
X239404Y40426D02*
X240966Y44176D01*
X242529Y40426*
X240029Y41988D02*
X241904D01*
X239404Y42591D02*
X240966Y46341D01*
X242529Y42591*
X240029Y44154D02*
X241904D01*
X239404Y44756D02*
X240966Y48506D01*
X242529Y44756*
X240029Y46319D02*
X241904D01*
X239404Y46922D02*
X240966Y50672D01*
X242529Y46922*
X240029Y48484D02*
X241904D01*
X239404Y49087D02*
X240966Y52837D01*
X242529Y49087*
X240029Y50650D02*
X241904D01*
X239404Y51292D02*
X240966Y55042D01*
X242529Y51292*
X240029Y52854D02*
X241904D01*
X239404Y55780D02*
X240966Y59530D01*
X242529Y55780*
X240029Y57343D02*
X241904D01*
X239404Y57985D02*
X240966Y61735D01*
X242529Y57985*
X240029Y59547D02*
X241904D01*
X239443Y53575D02*
X241006Y57325D01*
X242568Y53575*
X240068Y55138D02*
X241943D01*
D02*
D107*
X4404Y32008D03*
Y34213D03*
Y36378D03*
Y38543D03*
Y40709D03*
Y42874D03*
Y45079D03*
X8026Y34803D03*
X8065Y31811D03*
X11884Y153386D03*
Y155591D03*
Y157795D03*
Y160000D03*
X11963Y162205D03*
Y164409D03*
Y166614D03*
Y168819D03*
X12593Y94724D03*
Y96929D03*
Y99094D03*
Y101260D03*
Y103425D03*
Y105591D03*
Y107795D03*
Y112283D03*
X12632Y90315D03*
Y92520D03*
Y110079D03*
X12829Y210000D03*
X12868Y48661D03*
Y50866D03*
Y53071D03*
Y55276D03*
Y57441D03*
Y59606D03*
Y61772D03*
Y63937D03*
Y66142D03*
Y68346D03*
Y70551D03*
X12947Y88110D03*
X13813Y245118D03*
X14719Y90157D03*
X14955Y210000D03*
Y212126D03*
Y214252D03*
Y216378D03*
X15033Y50787D03*
Y52992D03*
Y55197D03*
Y57362D03*
Y59528D03*
Y61693D03*
Y63858D03*
Y66063D03*
X15073Y48583D03*
Y68346D03*
X15112Y85827D03*
X15152Y88110D03*
X15860Y180000D03*
Y189252D03*
Y201457D03*
X17199Y50787D03*
Y52992D03*
Y55197D03*
Y57362D03*
Y59528D03*
Y61693D03*
Y63858D03*
Y66063D03*
X17238Y48504D03*
Y87953D03*
X17278Y83622D03*
Y85827D03*
X18734Y145433D03*
Y147638D03*
X19049Y169921D03*
Y172126D03*
X19128Y174331D03*
Y182992D03*
Y185157D03*
Y187323D03*
Y189488D03*
Y191654D03*
Y193819D03*
Y196024D03*
Y198228D03*
Y202717D03*
X19167Y200512D03*
X19404Y48504D03*
Y52913D03*
Y55118D03*
Y57283D03*
Y59449D03*
Y61614D03*
Y63780D03*
Y81535D03*
Y83701D03*
Y85906D03*
Y155787D03*
Y160512D03*
X19443Y50709D03*
X20565Y95492D03*
Y125315D03*
Y135276D03*
X20585Y115413D03*
X20703Y105512D03*
X20900Y145433D03*
Y147638D03*
X21215Y172126D03*
X21293Y170000D03*
Y174331D03*
Y176535D03*
X21333Y183150D03*
Y185315D03*
Y187480D03*
Y189646D03*
X21569Y59370D03*
Y61535D03*
Y79291D03*
Y81457D03*
Y83622D03*
Y85827D03*
Y151260D03*
X23065Y145433D03*
Y147638D03*
X23301Y270472D03*
X23734Y59370D03*
Y77126D03*
Y79291D03*
Y81457D03*
Y83622D03*
X24955Y288898D03*
X25860Y74882D03*
Y77047D03*
Y79213D03*
Y81378D03*
X26293Y250866D03*
X27396Y73386D03*
X27553Y78110D03*
X27632Y75906D03*
X28262Y107323D03*
Y150787D03*
X28321Y37756D03*
X28419Y127795D03*
Y129961D03*
Y132126D03*
Y134291D03*
Y136457D03*
Y138661D03*
Y143150D03*
X28459Y140945D03*
X28892Y278268D03*
X29285Y109213D03*
X29600Y126142D03*
X30073Y37756D03*
X30230Y95039D03*
Y97323D03*
Y99488D03*
Y101654D03*
X30467Y91260D03*
Y105118D03*
Y107323D03*
X30545Y127953D03*
Y130118D03*
Y132283D03*
Y134449D03*
Y136614D03*
Y138819D03*
Y143307D03*
Y145512D03*
X30585Y141102D03*
X31411Y93150D03*
Y109173D03*
Y111417D03*
Y113701D03*
Y115866D03*
Y118031D03*
X32120Y217146D03*
X32199Y167402D03*
X32278Y212126D03*
X32356Y95079D03*
Y97323D03*
Y99606D03*
X32514Y88504D03*
Y90630D03*
X32907Y172126D03*
X33222Y155354D03*
Y157559D03*
X33380Y179803D03*
Y198898D03*
X33537Y92835D03*
X33970Y184724D03*
X34246Y194488D03*
X34364Y207165D03*
X34482Y253780D03*
Y255984D03*
X34561Y87874D03*
Y95157D03*
Y97402D03*
Y99685D03*
X34640Y90079D03*
X35191Y85827D03*
X35663Y169606D03*
X36215Y142677D03*
X36451Y96299D03*
Y98583D03*
X36687Y253780D03*
Y255984D03*
X36844Y162756D03*
X36923Y84646D03*
X37002Y92598D03*
X37317Y204803D03*
X37789Y169606D03*
X38026Y87874D03*
X38656Y134961D03*
Y137165D03*
Y139291D03*
X38813Y283150D03*
X39679Y83307D03*
Y133228D03*
X39758Y141024D03*
X39915Y196063D03*
X40624Y163228D03*
X40703Y135039D03*
X40860Y137165D03*
Y139291D03*
X40900Y214685D03*
Y216850D03*
Y219016D03*
Y221181D03*
X41333Y143858D03*
X41569Y261260D03*
Y263465D03*
Y265669D03*
X41805Y194961D03*
Y197165D03*
X42593Y267480D03*
X43065Y214685D03*
Y216850D03*
Y219016D03*
Y221181D03*
X43774Y256850D03*
Y259055D03*
Y261496D03*
Y263465D03*
Y265669D03*
X44010Y194961D03*
Y197165D03*
X44069Y37697D03*
X44089Y31850D03*
Y34823D03*
X44285Y90335D03*
X44797Y267480D03*
X45230Y214764D03*
Y216929D03*
Y219094D03*
Y221260D03*
X45978Y259370D03*
Y261575D03*
Y263780D03*
Y265827D03*
X46608Y186693D03*
X47396Y206142D03*
Y214764D03*
Y216929D03*
Y219094D03*
Y221260D03*
X48026Y260000D03*
X48341Y32402D03*
Y36890D03*
Y39094D03*
Y41299D03*
Y90335D03*
X48380Y34685D03*
X48577Y278268D03*
X48813Y199921D03*
X49128Y66299D03*
X49364Y204961D03*
Y207165D03*
X49522Y53622D03*
X49561Y214685D03*
Y216850D03*
Y219016D03*
Y221181D03*
X49837Y165276D03*
Y176299D03*
Y178583D03*
Y180787D03*
Y182992D03*
X50506Y32402D03*
Y36890D03*
Y39094D03*
Y41299D03*
X50545Y34685D03*
Y55472D03*
Y196457D03*
X51490Y204882D03*
Y207087D03*
X51648Y53661D03*
X51726Y214685D03*
Y216850D03*
Y219016D03*
Y221181D03*
X51805Y137874D03*
X52041Y167480D03*
Y178583D03*
Y180787D03*
Y182992D03*
X52396Y90335D03*
X52514Y288898D03*
X52671Y32402D03*
Y36890D03*
Y39094D03*
Y41299D03*
Y144094D03*
X52711Y34685D03*
Y55472D03*
X53656Y204843D03*
Y207008D03*
X53813Y53661D03*
X53892Y214764D03*
Y216929D03*
Y219094D03*
Y221260D03*
X54246Y169606D03*
Y180709D03*
Y182913D03*
X54325Y127874D03*
X54482Y160709D03*
Y162913D03*
X54837Y32402D03*
Y36890D03*
Y39094D03*
Y41299D03*
X54876Y34685D03*
Y55472D03*
X55033Y283150D03*
X55821Y171102D03*
Y204843D03*
Y207008D03*
X55900Y66063D03*
Y115433D03*
X55978Y53661D03*
X56057Y214764D03*
Y216929D03*
Y219094D03*
Y221260D03*
X56293Y164094D03*
X56372Y161969D03*
X56451Y182913D03*
X57041Y55512D03*
X57238Y271102D03*
X57317Y172677D03*
X57396Y90236D03*
X57986Y204921D03*
Y207087D03*
X58026Y87087D03*
X58144Y53661D03*
X58222Y214764D03*
Y216929D03*
Y219094D03*
Y221260D03*
X58498Y162047D03*
X58577Y158543D03*
X58656Y182913D03*
X59049Y169370D03*
X59207Y55472D03*
X59305Y37343D03*
Y39626D03*
X59325Y31929D03*
X59344Y34626D03*
X59443Y143543D03*
X60152Y204921D03*
Y207087D03*
X60230Y174567D03*
X60309Y53661D03*
X60388Y214764D03*
Y216929D03*
Y219094D03*
Y221260D03*
X60742Y101457D03*
X60860Y182835D03*
X61096Y87953D03*
X61372Y55472D03*
X62120Y167165D03*
Y169370D03*
X62317Y204921D03*
Y207087D03*
X62474Y53661D03*
X62514Y99528D03*
X62553Y214843D03*
Y217008D03*
Y219173D03*
Y221339D03*
X63055Y177490D03*
X63065Y174488D03*
Y182835D03*
X63537Y55472D03*
X64325Y164961D03*
Y167165D03*
Y169370D03*
X64482Y204921D03*
Y207087D03*
X64640Y53661D03*
Y64882D03*
X64719Y214843D03*
Y217008D03*
Y219173D03*
Y221339D03*
X64876Y115591D03*
X65270Y144016D03*
X65427Y157165D03*
Y159370D03*
Y163071D03*
X65663Y174567D03*
X65703Y55472D03*
X66215Y134488D03*
X66451Y61260D03*
X66530Y165039D03*
Y167244D03*
Y169449D03*
X66608Y161181D03*
X66648Y205000D03*
Y207165D03*
X66884Y214764D03*
Y216929D03*
Y219094D03*
Y221260D03*
X67632Y159291D03*
Y163071D03*
X67868Y174567D03*
X68577Y120236D03*
X68734Y165039D03*
Y167244D03*
Y169449D03*
X68813Y161181D03*
Y205000D03*
Y207165D03*
X69049Y214764D03*
Y216929D03*
Y219094D03*
Y221260D03*
X69522Y267874D03*
X69679Y180551D03*
Y182756D03*
Y184961D03*
X69837Y163071D03*
X69876Y194803D03*
X69915Y189685D03*
Y192283D03*
X70073Y144882D03*
Y174567D03*
Y187323D03*
X70309Y272520D03*
X70624Y123150D03*
X70781Y96299D03*
X70939Y165039D03*
Y167244D03*
Y169449D03*
Y204961D03*
X70978Y196535D03*
X71018Y207087D03*
X71215Y214843D03*
Y217008D03*
Y219173D03*
Y221339D03*
X71884Y180551D03*
Y182756D03*
Y184961D03*
X72041Y189685D03*
Y192283D03*
Y194803D03*
X72199Y187323D03*
X72278Y174488D03*
X72671Y135433D03*
X72750Y144803D03*
X73144Y165118D03*
Y167323D03*
Y169528D03*
Y196614D03*
X73222Y207087D03*
X73380Y214843D03*
Y217008D03*
Y219173D03*
Y221339D03*
X73852Y143071D03*
X74089Y180472D03*
Y182677D03*
Y184882D03*
X74207Y189764D03*
Y192362D03*
Y194882D03*
X74364Y187402D03*
X74482Y174488D03*
X74719Y84409D03*
X75309Y196614D03*
X75348Y167323D03*
Y169528D03*
X75545Y214843D03*
Y217008D03*
Y219173D03*
Y221339D03*
X75663Y32520D03*
X76057Y143071D03*
X76136Y38031D03*
X76293Y159921D03*
Y182677D03*
Y184882D03*
X76372Y189764D03*
Y192362D03*
Y194882D03*
X76530Y187402D03*
X76687Y174488D03*
X77474Y196614D03*
X77711Y214843D03*
Y217008D03*
Y219173D03*
Y221339D03*
X77868Y32520D03*
X77947Y68661D03*
Y272520D03*
X78262Y72441D03*
X78419Y58268D03*
X78498Y184882D03*
X78537Y189764D03*
Y192362D03*
Y194882D03*
X78695Y187402D03*
X78970Y70472D03*
X79600Y204961D03*
X79640Y196614D03*
X79876Y214921D03*
Y217087D03*
Y219252D03*
Y221417D03*
X80073Y32520D03*
Y68661D03*
X80703Y184803D03*
Y189764D03*
Y192362D03*
Y194882D03*
X80781Y203071D03*
X80860Y187402D03*
X81018Y119606D03*
X81096Y145512D03*
X81254Y52283D03*
Y87244D03*
X81766Y204961D03*
Y207165D03*
X81805Y159449D03*
X81884Y196614D03*
X82041Y214921D03*
Y217087D03*
Y219252D03*
Y221417D03*
X82199Y32520D03*
Y68661D03*
Y251575D03*
Y253858D03*
X82278Y48268D03*
X82947Y203071D03*
X83026Y189764D03*
Y192362D03*
Y194882D03*
X83380Y87244D03*
X83852Y31024D03*
X83931Y204961D03*
Y207165D03*
X84010Y159449D03*
X84049Y196614D03*
X84128Y47087D03*
Y49252D03*
X84561Y251654D03*
Y253858D03*
X85112Y203071D03*
X85191Y194882D03*
X85348Y192362D03*
X85663Y250079D03*
X85742Y68819D03*
X86018Y45984D03*
Y48150D03*
Y50315D03*
Y52480D03*
X86096Y205039D03*
Y207244D03*
X86215Y159449D03*
Y196693D03*
X86530Y184331D03*
X86766Y251654D03*
Y253858D03*
X87278Y203150D03*
X87317Y212480D03*
X87356Y194961D03*
X87632Y156693D03*
X87829Y23543D03*
X87868Y44882D03*
Y75748D03*
X87907Y49213D03*
Y51378D03*
X87947Y47008D03*
X88104Y250000D03*
X88262Y205039D03*
X88380Y196693D03*
X88498Y174488D03*
X88970Y251654D03*
Y253858D03*
X88990Y272520D03*
X89049Y53307D03*
Y216772D03*
Y221181D03*
X89128Y218976D03*
X89443Y203150D03*
X89522Y194961D03*
X89679Y179764D03*
Y184016D03*
X89837Y87244D03*
X89994Y23543D03*
X90073Y44961D03*
Y47126D03*
Y49291D03*
Y51457D03*
X90427Y205039D03*
X90545Y196693D03*
X90624Y174488D03*
X90781Y131732D03*
X91096Y251732D03*
X91175Y53386D03*
Y253858D03*
X91254Y216693D03*
Y221102D03*
X91333Y218898D03*
X91411Y142047D03*
X91884Y179764D03*
Y181890D03*
Y184016D03*
X92199Y47126D03*
Y49331D03*
Y51535D03*
X92238Y44921D03*
X93065Y157323D03*
X93301Y53386D03*
Y163858D03*
X93380Y189685D03*
Y216772D03*
Y221181D03*
X93459Y218976D03*
X93695Y144094D03*
X93852Y115827D03*
Y117953D03*
Y120128D03*
Y122283D03*
X94364Y47126D03*
Y49331D03*
Y51535D03*
X94404Y44921D03*
X95348Y145512D03*
X95467Y53465D03*
X95762Y19272D03*
X96057Y115827D03*
Y117953D03*
Y120128D03*
Y122283D03*
Y131890D03*
X96530Y47126D03*
Y49331D03*
Y51535D03*
X96569Y44921D03*
X96687Y272520D03*
X97002Y146929D03*
X97238Y28031D03*
Y142992D03*
X97632Y53465D03*
X98173Y115827D03*
Y117953D03*
Y120128D03*
Y122283D03*
X98498Y148504D03*
X98695Y47126D03*
Y49331D03*
Y51535D03*
X98734Y44921D03*
X98892Y83937D03*
X99404Y28031D03*
X99797Y53465D03*
X99994Y150157D03*
X100073Y272520D03*
X100309Y115827D03*
Y117953D03*
Y120079D03*
Y122205D03*
X100545Y19685D03*
X100939Y44882D03*
Y47047D03*
Y49252D03*
Y51457D03*
X101569Y28031D03*
X102435Y142598D03*
X102494Y125669D03*
X102711Y19055D03*
X103104Y47047D03*
Y49252D03*
Y51457D03*
X103144Y44882D03*
X103537Y78425D03*
X103734Y28031D03*
X104167Y55197D03*
X104876Y19055D03*
X105033Y144252D03*
X105112Y33228D03*
X105270Y47087D03*
Y49213D03*
X105900Y28031D03*
X106215Y238268D03*
X106293Y76693D03*
X106451Y230079D03*
X106608Y149213D03*
Y197402D03*
X107041Y19055D03*
X107081Y164803D03*
X108734Y254803D03*
X109207Y19055D03*
X109409Y45404D03*
Y48504D03*
Y51604D03*
X109443Y76772D03*
X109837Y230945D03*
X110230Y206457D03*
X110388Y225197D03*
X110624Y272520D03*
X111372Y19055D03*
X111805Y203465D03*
X111963Y149213D03*
Y230945D03*
X112041Y140394D03*
X112459Y45404D03*
Y48504D03*
Y51604D03*
X112632Y27244D03*
X113065Y138504D03*
X113537Y19055D03*
Y75118D03*
X113616Y87480D03*
X113695Y255512D03*
X114167Y140236D03*
X114797Y27244D03*
X115348Y138425D03*
X115703Y19055D03*
X115742Y184921D03*
X116215Y204261D03*
X116372Y140315D03*
Y246929D03*
X116963Y27244D03*
X117907Y19055D03*
X118341Y46142D03*
Y48268D03*
Y50315D03*
Y272520D03*
X118498Y55748D03*
X118577Y106929D03*
X118970Y84724D03*
X119128Y27244D03*
X120073Y19055D03*
X120230Y47244D03*
Y49370D03*
X121293Y27244D03*
X121333Y272520D03*
X121569Y168268D03*
Y170472D03*
Y172677D03*
X122120Y48346D03*
X122238Y19055D03*
X123459Y27244D03*
X123734Y170472D03*
X123774Y168268D03*
Y172677D03*
Y174882D03*
X124719Y108898D03*
Y111102D03*
Y113268D03*
Y115433D03*
X124797Y262598D03*
X125270Y81181D03*
X125427Y128425D03*
Y130551D03*
Y132677D03*
Y134803D03*
Y254646D03*
X125624Y27244D03*
X125900Y170472D03*
X125978Y168268D03*
Y172677D03*
Y174882D03*
X126864Y19272D03*
X126923Y108898D03*
Y111102D03*
Y112992D03*
X127002Y117598D03*
X127159Y56535D03*
X127533Y130591D03*
X127553Y128504D03*
Y132677D03*
Y134803D03*
Y140571D03*
X127632Y59528D03*
X127789Y27244D03*
Y122992D03*
Y125276D03*
X129049Y111102D03*
X129128Y106693D03*
Y108898D03*
X129207Y180945D03*
Y218740D03*
X129443Y252205D03*
X129600Y130551D03*
X129679Y132677D03*
X129955Y27244D03*
X129994Y122992D03*
Y125276D03*
X130781Y19055D03*
X131096Y82913D03*
X131254Y106693D03*
Y108898D03*
X131333Y77480D03*
X132120Y45984D03*
Y48189D03*
X132159Y27244D03*
X132199Y122992D03*
Y125276D03*
X132219Y272520D03*
X132278Y66693D03*
X132514Y228661D03*
X132671Y146457D03*
X132829Y128425D03*
Y184016D03*
X132907Y101417D03*
X132947Y19055D03*
X133222Y62756D03*
X133970Y42795D03*
Y44961D03*
Y47126D03*
Y49291D03*
Y57165D03*
X134167Y256614D03*
X134246Y231496D03*
X134325Y27244D03*
Y226220D03*
X135112Y19055D03*
Y97087D03*
X135506Y186535D03*
X135663Y31969D03*
Y34094D03*
Y36299D03*
X135703Y130492D03*
X135722Y140531D03*
X136136Y42795D03*
Y44961D03*
Y47126D03*
Y49291D03*
Y57165D03*
X136490Y27244D03*
X137159Y195433D03*
Y256929D03*
X137278Y19055D03*
X137396Y211890D03*
Y214016D03*
X137553Y37480D03*
X137868Y31969D03*
Y34094D03*
X138262Y45591D03*
X138695Y27244D03*
X139049Y221969D03*
X139285Y212992D03*
X139364Y36299D03*
X139443Y19055D03*
X139994Y272520D03*
X140073Y31969D03*
Y34094D03*
Y38504D03*
Y145827D03*
Y147913D03*
Y150079D03*
X140152Y196378D03*
X140703Y67402D03*
X141608Y19055D03*
X141726Y45591D03*
X142199Y34094D03*
Y36299D03*
Y38504D03*
X142278Y145827D03*
Y147913D03*
Y150079D03*
X142435Y213386D03*
X142829Y223071D03*
X142986Y65236D03*
Y272520D03*
X143380Y231181D03*
X143537Y184488D03*
Y186693D03*
Y188898D03*
X143852Y91417D03*
X143931Y87165D03*
Y89291D03*
X144404Y145748D03*
Y147874D03*
Y150079D03*
Y152205D03*
Y154331D03*
X144600Y30236D03*
X145112Y171024D03*
X145348Y79843D03*
X145663Y222126D03*
X145742Y184409D03*
Y186614D03*
Y188819D03*
X145821Y218819D03*
X145978Y91417D03*
X146057Y87165D03*
Y89291D03*
X146136Y31811D03*
Y169213D03*
X146215Y172756D03*
X147238Y170945D03*
X147632Y206929D03*
X147750Y249685D03*
X147789Y203780D03*
X147947Y184409D03*
X148026Y186614D03*
Y188898D03*
Y191102D03*
Y193307D03*
X148183Y87087D03*
Y89213D03*
Y225118D03*
X148262Y138425D03*
Y169134D03*
X148341Y172756D03*
X148656Y209921D03*
X149364Y170945D03*
X149443Y211654D03*
X149837Y176929D03*
X149994Y215984D03*
X150073Y204016D03*
X150152Y184409D03*
Y247087D03*
X150230Y186614D03*
Y188819D03*
Y191024D03*
Y193228D03*
X150309Y32126D03*
Y34331D03*
Y36496D03*
Y38661D03*
Y40827D03*
Y42992D03*
Y45197D03*
X150388Y169134D03*
X150467Y172756D03*
X150624Y218898D03*
X150781Y210394D03*
X151175Y199921D03*
X151490Y170945D03*
X152041Y244724D03*
X152199Y201811D03*
Y204016D03*
X152356Y184409D03*
X152435Y169134D03*
Y186614D03*
Y188819D03*
Y191024D03*
Y193228D03*
X152474Y32126D03*
Y34331D03*
Y36496D03*
Y38661D03*
Y40827D03*
Y42992D03*
Y45197D03*
X152593Y172756D03*
X153380Y89528D03*
Y142441D03*
X153616Y170866D03*
X153715Y196299D03*
X153951Y272520D03*
X154404Y201732D03*
Y203937D03*
X154561Y169055D03*
X154640Y32126D03*
Y34331D03*
Y36496D03*
Y38661D03*
Y40827D03*
Y42992D03*
X154719Y172677D03*
X154837Y82362D03*
X155033Y242756D03*
X155191Y116693D03*
X155742Y179449D03*
Y226850D03*
X156530Y89606D03*
X156608Y201732D03*
Y203937D03*
X156805Y32126D03*
Y34331D03*
Y36496D03*
Y38661D03*
Y40827D03*
Y42992D03*
Y80000D03*
X156923Y252520D03*
X157002Y98661D03*
X157947Y103701D03*
X158026Y242756D03*
X158498Y92126D03*
X158656Y209685D03*
X158970Y32126D03*
Y34331D03*
Y36496D03*
Y38661D03*
Y40827D03*
X159049Y250394D03*
X160152Y43976D03*
X161018Y104094D03*
X161136Y32126D03*
Y34331D03*
Y36496D03*
Y38661D03*
Y40827D03*
X161175Y227165D03*
Y248268D03*
X161805Y84961D03*
X161884Y245354D03*
X162435Y108898D03*
X162986Y88031D03*
X163144Y140787D03*
Y142913D03*
Y145039D03*
X163301Y32126D03*
Y34331D03*
Y36496D03*
Y38661D03*
Y40827D03*
Y42992D03*
X163459Y215748D03*
X163616Y208740D03*
X163695Y152441D03*
Y159055D03*
Y272283D03*
X164089Y64567D03*
Y66850D03*
X164561Y233858D03*
X164640Y71654D03*
X164876Y112087D03*
X164955Y160787D03*
X164974Y149134D03*
Y155787D03*
X165033Y139685D03*
Y141811D03*
Y143937D03*
X165467Y32126D03*
Y34331D03*
Y36496D03*
Y38661D03*
Y40827D03*
Y42992D03*
X165978Y65748D03*
X166215Y45039D03*
Y47244D03*
Y152441D03*
Y159055D03*
X166766Y71654D03*
X167081Y91024D03*
X167159Y137559D03*
Y139685D03*
Y141811D03*
X167474Y160787D03*
X167553Y206929D03*
X167632Y122598D03*
X167711Y195827D03*
X167947Y64724D03*
Y66929D03*
X168183Y143622D03*
X168419Y231969D03*
X168498Y78504D03*
X168577Y158976D03*
X168813Y218268D03*
Y220315D03*
X169285Y137559D03*
Y139685D03*
Y141811D03*
X169600Y53150D03*
X169758Y160787D03*
X170309Y143622D03*
Y201417D03*
X170388Y203622D03*
Y205827D03*
X170467Y71654D03*
Y207953D03*
X170545Y231969D03*
X170781Y217717D03*
Y219921D03*
X170860Y92283D03*
X171411Y137559D03*
Y139685D03*
Y141811D03*
Y226535D03*
X172435Y143622D03*
X172593Y195512D03*
X173222Y138583D03*
Y140709D03*
X173380Y113150D03*
X175348Y68031D03*
X175663Y125197D03*
X175703Y273602D03*
X175742Y110157D03*
X175978Y53150D03*
X177278Y167598D03*
Y172520D03*
X177632Y194961D03*
X178262Y118346D03*
X178734Y132126D03*
Y134173D03*
Y136299D03*
Y138346D03*
Y140551D03*
Y142756D03*
X178813Y227402D03*
X178911Y39783D03*
X179108Y30394D03*
Y32559D03*
Y34724D03*
Y36909D03*
X179443Y149193D03*
X180230Y237795D03*
X180703Y53307D03*
X180939Y132126D03*
Y134173D03*
Y136299D03*
Y138346D03*
Y140551D03*
Y142756D03*
X181333Y233622D03*
X181569Y215906D03*
Y217953D03*
Y220000D03*
X181884Y123543D03*
X182041Y225984D03*
X182356Y231654D03*
X182514Y54488D03*
Y93386D03*
X182593Y52283D03*
X183144Y132126D03*
Y134173D03*
Y136299D03*
Y138346D03*
Y140551D03*
Y142756D03*
X183616Y233543D03*
Y235669D03*
X184187Y262776D03*
X184404Y64016D03*
X184581Y39862D03*
X184699Y30236D03*
Y32402D03*
Y34567D03*
Y36752D03*
X185348Y132126D03*
Y134173D03*
Y136299D03*
Y138346D03*
Y142756D03*
X185427Y173504D03*
Y175630D03*
Y177756D03*
Y179882D03*
Y182008D03*
X185742Y231339D03*
Y233465D03*
Y235669D03*
X187396Y195118D03*
Y197323D03*
Y199528D03*
X187553Y103780D03*
Y132126D03*
Y134173D03*
Y136142D03*
Y173504D03*
Y175630D03*
Y177756D03*
Y179882D03*
Y182008D03*
X187947Y237244D03*
X188183Y85906D03*
X189108Y273012D03*
X189581Y48996D03*
X189679Y173504D03*
Y175630D03*
Y177756D03*
Y179882D03*
Y182008D03*
X189994Y195118D03*
X190152Y111575D03*
Y237244D03*
X190388Y244016D03*
X190781Y125118D03*
X191805Y173504D03*
Y175630D03*
Y177756D03*
Y179882D03*
Y182008D03*
X192199Y195118D03*
X192356Y135984D03*
X192671Y230787D03*
X193911Y173504D03*
Y175630D03*
Y177756D03*
Y179882D03*
Y182008D03*
X194404Y195118D03*
Y197323D03*
Y199528D03*
Y201654D03*
X194719Y218110D03*
X195348Y130787D03*
Y132913D03*
X196057Y173504D03*
Y175630D03*
Y177756D03*
Y179882D03*
Y182008D03*
X196372Y215118D03*
X196451Y229685D03*
X196530Y225827D03*
X196667Y39882D03*
X196687Y30276D03*
Y32441D03*
Y34606D03*
Y36791D03*
X196963Y73701D03*
X198419Y90236D03*
X199049Y237402D03*
X200152Y144252D03*
X200388Y262126D03*
X200781Y109055D03*
X201175Y88661D03*
X202514Y219685D03*
X202671Y223465D03*
X202986Y228189D03*
X203065Y230394D03*
X203203Y100000D03*
X203301Y64252D03*
X203695Y214016D03*
X203931Y118110D03*
X204167Y88740D03*
X205033Y225906D03*
X205506Y100000D03*
X206215Y216535D03*
X206687Y260157D03*
X206825Y273012D03*
X207002Y94567D03*
Y96693D03*
X207081Y92598D03*
X208104Y227087D03*
X208498Y59764D03*
X208970Y141890D03*
X209837Y148583D03*
X211746Y262776D03*
X212986Y221339D03*
X213281Y32441D03*
Y34606D03*
Y36791D03*
X213301Y39862D03*
Y148189D03*
X213380Y113701D03*
Y243937D03*
X213459Y184724D03*
X213695Y240630D03*
X214010Y89134D03*
X214325Y69961D03*
X216372Y32441D03*
Y34606D03*
Y36772D03*
Y38957D03*
X217081Y61496D03*
Y134331D03*
Y142835D03*
X218341Y153819D03*
X218734Y72520D03*
X218813Y118268D03*
X218970Y116220D03*
X219207Y134331D03*
Y136457D03*
Y138583D03*
Y140709D03*
Y142835D03*
X219443Y111732D03*
X220073Y61496D03*
X220152Y59291D03*
X220191Y50472D03*
X220742Y32362D03*
Y34567D03*
Y36732D03*
Y38898D03*
Y41063D03*
Y43228D03*
Y45433D03*
X221018Y104961D03*
X221963Y60551D03*
X222041Y58346D03*
X222907Y32362D03*
Y34567D03*
Y36732D03*
Y38898D03*
Y41063D03*
Y43228D03*
Y45433D03*
Y47638D03*
Y52008D03*
Y54173D03*
Y56378D03*
X223144Y88661D03*
Y90787D03*
X223222Y84094D03*
X223380Y191339D03*
X224089Y62520D03*
X224167Y60315D03*
X224246Y58189D03*
X224325Y80591D03*
Y196220D03*
X224522Y76654D03*
X225073Y32362D03*
Y34567D03*
Y36732D03*
Y38898D03*
Y41063D03*
Y43228D03*
Y45433D03*
Y47638D03*
Y49843D03*
Y52047D03*
X226411Y192244D03*
Y194449D03*
Y198858D03*
X226451Y190039D03*
Y196654D03*
X226530Y187953D03*
X227238Y32283D03*
Y34488D03*
Y36654D03*
Y38819D03*
Y40984D03*
Y43150D03*
Y45354D03*
Y49843D03*
Y52047D03*
X227278Y47638D03*
X228577Y192244D03*
Y194449D03*
Y198858D03*
Y201063D03*
X228616Y190039D03*
Y196654D03*
X228656Y187913D03*
X229404Y32283D03*
Y34488D03*
Y36654D03*
Y38819D03*
Y40984D03*
Y43150D03*
Y45354D03*
Y49843D03*
Y52047D03*
X229443Y47638D03*
X0Y0D02*
M02*
