G04 EasyPC Gerber Version 21.0.3 Build 4286 *
G04 #@! TF.Part,Single*
G04 #@! TF.FileFunction,Legend,Top *
G04 #@! TF.FilePolarity,Positive *
%FSLAX35Y35*%
%MOIN*%
%ADD11C,0.00157*%
%ADD14C,0.00300*%
%ADD10C,0.00500*%
%ADD16C,0.00600*%
%ADD15C,0.00787*%
%ADD13C,0.01000*%
%ADD12C,0.01200*%
X0Y0D02*
D02*
D10*
X16396Y228835D02*
Y216992D01*
X22333*
Y228835*
X16396*
X19073Y46047D02*
X41073D01*
Y58047*
X19073*
Y46047*
X22411Y204000D02*
Y215843D01*
X16474*
Y204000*
X22411*
X24467Y262228D02*
X36309D01*
Y268165*
X24467*
Y262228*
X31800Y289614D02*
X31488Y289301D01*
X30863Y288989*
X29925*
X29300Y289301*
X28988Y289614*
X28675Y290239*
Y291489*
X28988Y292114*
X29300Y292426*
X29925Y292739*
X30863*
X31488Y292426*
X31800Y292114*
X33675Y290239D02*
Y291489D01*
X33988Y292114*
X34300Y292426*
X34925Y292739*
X35550*
X36175Y292426*
X36488Y292114*
X36800Y291489*
Y290239*
X36488Y289614*
X36175Y289301*
X35550Y288989*
X34925*
X34300Y289301*
X33988Y289614*
X33675Y290239*
X38675Y288989D02*
Y292739D01*
X41800Y288989*
Y292739*
X43675Y288989D02*
Y292739D01*
X46800Y288989*
Y292739*
X50238Y288989D02*
Y292739D01*
X48675Y290239*
X51175*
X28797Y80055D02*
Y58055D01*
X40797*
Y80055*
X28797*
X30821Y251476D02*
X103656D01*
Y146339*
X22947*
Y243602*
X30821Y251476*
X30844Y100575D02*
X42687D01*
Y106512*
X30844*
Y100575*
X33010Y107071D02*
X55010D01*
Y119071*
X33010*
Y107071*
Y269551D02*
X44852D01*
Y275488*
X33010*
Y269551*
X37852Y123646D02*
X49695D01*
Y129583*
X37852*
Y123646*
X41002Y76638D02*
X52844D01*
Y82575*
X41002*
Y76638*
X43207Y100654D02*
X55049D01*
Y106591*
X43207*
Y100654*
X53238Y75961D02*
X41396D01*
Y70024*
X53238*
Y75961*
X55053Y83110D02*
Y98858D01*
X41667*
Y85079*
X43636Y83110*
X55053*
X55486Y84783D02*
Y66083D01*
X63557*
Y84783*
X55486*
X55490Y127299D02*
Y105299D01*
X67490*
Y127299*
X55490*
X58577Y54213D02*
Y53819D01*
X65663*
Y54213*
X58577*
Y58150D02*
X62120Y54213D01*
X65663Y58150*
X58577*
X59522Y76220D02*
Y69921D01*
X60057Y257504D02*
X71900D01*
Y263441*
X60057*
Y257504*
X61037Y273130D02*
X75801D01*
Y265610*
X61037*
Y268917*
X61549*
Y269744*
X61037*
Y273130*
X63065Y70906D02*
X59522Y74449D01*
X55978Y70906*
X63065*
Y74646D02*
X55978D01*
X65270Y55000D02*
Y54213D01*
X65663*
Y55000*
X65270*
X66719Y47126D02*
Y63268D01*
X57522*
Y47126*
X66719*
X71585Y141945D02*
X59742D01*
Y136008*
X71585*
Y141945*
X72104Y135929D02*
X83947D01*
Y141866*
X72104*
Y135929*
X72498Y128953D02*
Y106953D01*
X84498*
Y128953*
X72498*
X72533Y257067D02*
X91234D01*
Y265138*
X72533*
Y257067*
X72774Y64898D02*
Y53055D01*
X78711*
Y64898*
X72774*
X76073Y73331D02*
Y95331D01*
X64073*
Y73331*
X76073*
X79719Y68878D02*
X144679D01*
Y5886*
X79719*
Y68878*
X81096Y261102D02*
X87396D01*
X81427Y135409D02*
X69585D01*
Y129472*
X81427*
Y135409*
X81671Y81669D02*
Y69827D01*
X87608*
Y81669*
X81671*
X82396Y270551D02*
X92238D01*
Y274488*
X82396*
Y270551*
X82671Y264646D02*
Y257559D01*
X86411Y264646D02*
X82868Y261102D01*
X86411Y257559*
Y264646*
X89451Y137146D02*
X97404D01*
Y126122*
X90545*
X89451Y127217*
Y130154*
X91726*
Y133106*
X89451*
Y137146*
X94065Y69827D02*
Y81669D01*
X88128*
Y69827*
X94065*
X95388Y280748D02*
Y280945D01*
X100900*
Y280748*
X95388*
X95781Y284685D02*
X98144Y280748D01*
X100506Y284685*
X95781*
X98026Y128976D02*
Y136457D01*
X101963*
Y128976*
X98026*
X98632Y106315D02*
X76632D01*
Y94315*
X98632*
Y106315*
X100522Y69827D02*
Y81669D01*
X94585*
Y69827*
X100522*
X100608Y69945D02*
X112451D01*
Y75882*
X100608*
Y69945*
X101175Y131339D02*
X98813D01*
Y132126*
X101175Y134094D02*
X99994Y131732D01*
X98813Y134094*
X101175*
X101687Y274252D02*
Y289213D01*
X94600*
Y274252*
X101687*
X104049Y270551D02*
X113892D01*
Y274488*
X104049*
Y270551*
X104427Y191433D02*
Y179591D01*
X110364*
Y191433*
X104427*
X104813Y91079D02*
X92970D01*
Y85142*
X104813*
Y91079*
X105435Y165453D02*
Y150453D01*
X119435*
Y165453*
X105535*
X105467Y256063D02*
X109010Y259606D01*
X105467Y263150*
Y256063*
X106829Y215803D02*
Y193803D01*
X118829*
Y215803*
X106829*
X108396Y126992D02*
Y138835D01*
X102459*
Y126992*
X108396*
X109207Y256063D02*
Y263150D01*
X110781Y259606D02*
X104482D01*
X110994Y167307D02*
Y179150D01*
X105057*
Y167307*
X110994*
X114270Y81197D02*
Y69354D01*
X120207*
Y81197*
X114270*
X116884Y92254D02*
X99167D01*
Y122766*
X116884*
Y92254*
X117041Y280748D02*
Y280945D01*
X122553*
Y280748*
X117041*
X117175Y87457D02*
X105333D01*
Y81520*
X117175*
Y87457*
X117341Y106236D02*
Y94394D01*
X123278*
Y106236*
X117341*
Y121669D02*
Y109827D01*
X123278*
Y121669*
X117341*
X117435Y284685D02*
X119797Y280748D01*
X122159Y284685*
X117435*
X118120Y148087D02*
X106278D01*
Y142150*
X118120*
Y148087*
X119344Y263642D02*
X100644D01*
Y255571*
X119344*
Y263642*
X120537Y239429D02*
Y254429D01*
X106537*
Y239429*
X120437*
X120978Y156772D02*
X128065D01*
X120978Y160512D02*
X124522Y156969D01*
X128065Y160512*
X120978*
X123341Y274252D02*
Y289213D01*
X116254*
Y274252*
X123341*
X124522Y155197D02*
Y161496D01*
X125703Y270472D02*
X135545D01*
Y274409*
X125703*
Y270472*
X128557Y146634D02*
Y165335D01*
X120486*
Y146634*
X128557*
X129262Y69433D02*
Y81276D01*
X123325*
Y69433*
X129262*
X129443Y156772D02*
X136530D01*
X129443Y160512D02*
X132986Y156969D01*
X136530Y160512*
X129443*
X129537Y90764D02*
X117695D01*
Y84827*
X129537*
Y90764*
X129900Y69630D02*
X141742D01*
Y75567*
X129900*
Y69630*
X131270Y188087D02*
X119427D01*
Y182150*
X131270*
Y188087*
X132986Y155197D02*
Y161496D01*
X133325Y88047D02*
Y76205D01*
X139262*
Y88047*
X133325*
X133876Y244661D02*
Y232819D01*
X139813*
Y244661*
X133876*
X134467Y245299D02*
X146309D01*
Y251236*
X134467*
Y245299*
X137022Y146634D02*
Y165335D01*
X128951*
Y146634*
X137022*
X137104Y164760D02*
Y152917D01*
X143041*
Y164760*
X137104*
X138695Y280748D02*
Y280945D01*
X144207*
Y280748*
X138695*
X139089Y284685D02*
X141451Y280748D01*
X143813Y284685*
X139089*
X140372Y238843D02*
X152215D01*
Y244780*
X140372*
Y238843*
X141510Y91053D02*
X123793D01*
Y121565*
X141510*
Y91053*
X144077Y142902D02*
X198864D01*
Y168555*
X144077*
Y142902*
X144994Y274252D02*
Y289213D01*
X137907*
Y274252*
X144994*
X145077Y143902D02*
X197864D01*
Y167555*
X145077*
Y143902*
X147356Y270551D02*
X157199D01*
Y274488*
X147356*
Y270551*
X148159Y73449D02*
Y85291D01*
X142222*
Y73449*
X148159*
X148994Y238205D02*
Y226362D01*
X154931*
Y238205*
X148994*
X150719Y259661D02*
X138876D01*
Y253724*
X150719*
Y259661*
Y266118D02*
X138876D01*
Y260181*
X150719*
Y266118*
X152293Y101638D02*
Y120567D01*
X142026*
Y101638*
X152293*
X153766Y52732D02*
Y57232D01*
X148766*
Y52732*
X153766*
X155329Y100071D02*
Y92118D01*
X144305*
Y98976*
X145400Y100071*
X148337*
Y97795*
X151289*
Y100071*
X155329*
X155506Y122677D02*
Y107717D01*
X162593*
Y122677*
X155506*
X157695Y206039D02*
Y184039D01*
X169695*
Y206039*
X157695*
X160304Y123441D02*
X166406D01*
Y126196*
X160304*
Y123441*
X161411Y112244D02*
X159049Y116181D01*
X156687Y112244*
X161411*
X161805Y116181D02*
Y115984D01*
X156293*
Y116181*
X161805*
X163144Y240394D02*
Y225433D01*
X170230*
Y240394*
X163144*
X163242Y114260D02*
Y122213D01*
X174266*
Y115354*
X173171Y114260*
X170234*
Y116535*
X167281*
Y114260*
X163242*
X164766Y52732D02*
Y70732D01*
X148766*
Y52732*
X164766*
X167380Y45772D02*
X179222D01*
Y51709*
X167380*
Y45772*
X168346Y99079D02*
X162244D01*
Y96323*
X168346*
Y99079*
X168813Y248110D02*
X172356Y251654D01*
X168813Y255197*
Y248110*
X169049Y229961D02*
X166687Y233898D01*
X164325Y229961*
X169049*
X169262Y100299D02*
Y112142D01*
X163325*
Y100299*
X169262*
X169443Y233898D02*
Y233701D01*
X163931*
Y233898*
X169443*
X170250Y85945D02*
X163951D01*
Y95768*
X169404*
X170250Y94921*
Y92205*
X168675*
Y89567*
X170250*
Y85945*
X170734Y99472D02*
Y81472D01*
X186734*
Y99472*
X170734*
X172459Y247496D02*
Y235654D01*
X178396*
Y247496*
X172459*
X172553Y248110D02*
Y255197D01*
X174128Y251654D02*
X167829D01*
X174724Y126166D02*
X168622D01*
Y123410*
X174724*
Y126166*
X175915Y262299D02*
X164073D01*
Y256362*
X175915*
Y262299*
X181687Y60945D02*
X185230Y64488D01*
X181687Y68031*
Y60945*
X181734Y99472D02*
Y94972D01*
X186734*
Y99472*
X181734*
X182538Y115585D02*
Y121687D01*
X179782*
Y115585*
X182538*
X182691Y255689D02*
X163990D01*
Y247618*
X182691*
Y255689*
X183986Y190252D02*
X172144D01*
Y184315*
X183986*
Y190252*
X185427Y60945D02*
Y68031D01*
X187002Y64488D02*
X180703D01*
X188246Y250181D02*
X200089D01*
Y256118*
X188246*
Y250181*
X191207Y102937D02*
Y84937D01*
X207207*
Y102937*
X191207*
X191829Y249386D02*
Y237543D01*
X197766*
Y249386*
X191829*
X192057Y225260D02*
Y237102D01*
X186120*
Y225260*
X192057*
X192293Y110843D02*
X180451D01*
Y104906*
X192293*
Y110843*
X192892Y110102D02*
X204734D01*
Y116039*
X192892*
Y110102*
X193207Y231126D02*
X205049D01*
Y237063*
X193207*
Y231126*
X193593Y212181D02*
X171593D01*
Y200181*
X193593*
Y212181*
Y224583D02*
X171593D01*
Y212583*
X193593*
Y224583*
X194152Y206559D02*
X205994D01*
Y212496*
X194152*
Y206559*
X195073Y124114D02*
Y117815D01*
X185250*
Y123268*
X186096Y124114*
X188813*
Y122539*
X191451*
Y124114*
X195073*
X195565Y68524D02*
X176864D01*
Y60453*
X195565*
Y68524*
X196159Y59150D02*
Y47307D01*
X202096*
Y59150*
X196159*
X196222Y76161D02*
Y61161D01*
X210222*
Y76161*
X196322*
X196388Y190252D02*
X184545D01*
Y184315*
X196388*
Y190252*
X196986Y178874D02*
Y156874D01*
X208986*
Y178874*
X196986*
X200211Y156280D02*
Y137579D01*
X208281*
Y156280*
X200211*
X202207Y102937D02*
Y98437D01*
X207207*
Y102937*
X202207*
X204246Y147717D02*
Y141417D01*
X205333Y227228D02*
X217175D01*
Y233165*
X205333*
Y227228*
X205844Y58992D02*
Y47150D01*
X211781*
Y58992*
X205844*
X207789Y142402D02*
X204246Y145945D01*
X200703Y142402*
X207789*
Y146142D02*
X200703D01*
X208994Y170882D02*
Y159039D01*
X214931*
Y170882*
X208994*
X210167Y179315D02*
Y201315D01*
X198167*
Y179315*
X210167*
X211549Y224685D02*
X196549D01*
Y216417*
X209049*
X211549Y218917*
Y224685*
X213482Y58992D02*
Y47150D01*
X219419*
Y58992*
X213482*
X215683Y283642D02*
Y256870D01*
X180053*
Y283642*
X197519*
Y282461*
X198769*
Y283642*
X215683*
X217057Y240055D02*
X205215D01*
Y234118*
X217057*
Y240055*
D02*
D11*
X13953Y6846D02*
X14138Y6661D01*
X14322Y6292*
Y5738*
X14138Y5369*
X13953Y5185*
X13584Y5000*
X12846*
X12477Y5185*
X12292Y5369*
X12108Y5738*
Y6292*
X12292Y6661*
X12477Y6846*
X13400Y9429D02*
X13030Y9244D01*
X12846Y8876*
Y8506*
X13030Y8137*
X13400Y7953*
X13769*
X14138Y8137*
X14322Y8506*
Y8876*
X14138Y9244*
X13769Y9429*
X12846D02*
X14876D01*
X14507Y9798*
X14322Y10906D02*
X12108D01*
X13215Y11828*
X12108Y12751*
X14322*
X13030Y13858D02*
X12846Y14228D01*
Y14781*
X13030Y15150*
X13400Y15335*
X13953*
X14138Y15150*
X14322Y14781*
Y14412*
X14138Y14043*
X13953Y13858*
X13769*
X13584Y14043*
X13400Y14412*
Y14781*
X13584Y15150*
X13769Y15335*
X13953D02*
X14322D01*
X14138Y16811D02*
X14322Y17180D01*
Y17919*
X14138Y18287*
X13769*
X13584Y17919*
Y17180*
X13400Y16811*
X13030*
X12846Y17180*
Y17919*
X13030Y18287*
X12846Y20133D02*
Y20871D01*
X12477Y20502D02*
X14138D01*
X14322Y20687*
Y20871*
X14138Y21056*
Y24193D02*
X14322Y24008D01*
Y23639*
Y23270*
X14138Y22901*
X13769Y22717*
X13215*
X13030Y22901*
X12846Y23270*
Y23639*
X13030Y24008*
X13215Y24193*
X13400*
X13584Y24008*
X13769Y23639*
Y23270*
X13584Y22901*
X13400Y22717*
X14322Y25669D02*
X12846D01*
X13400D02*
X13030Y25854D01*
X12846Y26223*
Y26592*
X13030Y26961*
X20095Y208027D02*
X20280Y207842D01*
X20464Y207473*
Y206919*
X20280Y206550*
X20095Y206366*
X19726Y206181*
X18988*
X18619Y206366*
X18434Y206550*
X18250Y206919*
Y207473*
X18434Y207842*
X18619Y208027*
X20464Y209687D02*
X20280Y210057D01*
X19910Y210426*
X19357Y210610*
X18803*
X18434Y210426*
X18250Y210057*
Y209687*
X18434Y209319*
X18803Y209134*
X19172Y209319*
X19357Y209687*
Y210057*
X19172Y210426*
X18803Y210610*
X20464Y212640D02*
X20280Y213009D01*
X19910Y213378*
X19357Y213563*
X18803*
X18434Y213378*
X18250Y213009*
Y212640*
X18434Y212271*
X18803Y212087*
X19172Y212271*
X19357Y212640*
Y213009*
X19172Y213378*
X18803Y213563*
X20410Y221767D02*
X20594Y221582D01*
X20779Y221213*
Y220659*
X20594Y220291*
X20410Y220106*
X20041Y219921*
X19303*
X18933Y220106*
X18749Y220291*
X18565Y220659*
Y221213*
X18749Y221582*
X18933Y221767*
X20779Y223428D02*
X20594Y223797D01*
X20225Y224166*
X19672Y224350*
X19118*
X18749Y224166*
X18565Y223797*
Y223428*
X18749Y223059*
X19118Y222874*
X19487Y223059*
X19672Y223428*
Y223797*
X19487Y224166*
X19118Y224350*
X20779Y225827D02*
X18565Y227303D01*
Y225827*
X27238Y264018D02*
Y266233D01*
X28530*
X28899Y266048*
X29084Y265679*
X28899Y265310*
X28530Y265126*
X27238*
X28530D02*
X29084Y264018D01*
X30744D02*
X31114Y264203D01*
X31483Y264572*
X31667Y265126*
Y265679*
X31483Y266048*
X31114Y266233*
X30744*
X30376Y266048*
X30191Y265679*
X30376Y265310*
X30744Y265126*
X31114*
X31483Y265310*
X31667Y265679*
X33513Y264018D02*
X34251D01*
X33882D02*
Y266233D01*
X33513Y265864*
X27770Y1370D02*
Y1924D01*
X27954*
X28323Y1740*
X28508Y1555*
X28693Y1186*
Y817*
X28508Y448*
X28323Y263*
X27954Y79*
X27216*
X26847Y263*
X26662Y448*
X26478Y817*
Y1186*
X26662Y1555*
X26847Y1740*
X27216Y1924*
X28693Y3031D02*
X27216D01*
X27770D02*
X27400Y3216D01*
X27216Y3585*
Y3954*
X27400Y4323*
X27770Y4508*
X28693*
X27770Y7461D02*
X27400Y7276D01*
X27216Y6907*
Y6538*
X27400Y6169*
X27770Y5984*
X28139*
X28508Y6169*
X28693Y6538*
Y6907*
X28508Y7276*
X28139Y7461*
X28693D02*
X26478D01*
X28693Y8937D02*
X26478D01*
X27585Y9860*
X26478Y10783*
X28693*
X27400Y11890D02*
X27216Y12259D01*
Y12813*
X27400Y13181*
X27770Y13366*
X28323*
X28508Y13181*
X28693Y12813*
Y12443*
X28508Y12074*
X28323Y11890*
X28139*
X27954Y12074*
X27770Y12443*
Y12813*
X27954Y13181*
X28139Y13366*
X28323D02*
X28693D01*
X28508Y14843D02*
X28693Y15212D01*
Y15950*
X28508Y16319*
X28139*
X27954Y15950*
Y15212*
X27770Y14843*
X27400*
X27216Y15212*
Y15950*
X27400Y16319*
X27216Y18165D02*
Y18903D01*
X26847Y18533D02*
X28508D01*
X28693Y18718*
Y18903*
X28508Y19087*
Y22224D02*
X28693Y22040D01*
Y21671*
Y21302*
X28508Y20933*
X28139Y20748*
X27585*
X27400Y20933*
X27216Y21302*
Y21671*
X27400Y22040*
X27585Y22224*
X27770*
X27954Y22040*
X28139Y21671*
Y21302*
X27954Y20933*
X27770Y20748*
X28693Y23701D02*
X27216D01*
X27770D02*
X27400Y23885D01*
X27216Y24254*
Y24624*
X27400Y24993*
X31175Y70012D02*
Y67798D01*
X33021*
X35604D02*
X34128D01*
X35420Y69090*
X35604Y69459*
X35420Y69828*
X35051Y70012*
X34497*
X34128Y69828*
X37450Y67798D02*
X38188D01*
X37819D02*
Y70012D01*
X37450Y69643*
X32063Y51294D02*
X32248Y51110D01*
X32433Y50741*
Y50187*
X32248Y49818*
X32063Y49633*
X31694Y49449*
X30956*
X30587Y49633*
X30402Y49818*
X30218Y50187*
Y50741*
X30402Y51110*
X30587Y51294*
X32248Y52586D02*
X32433Y52955D01*
Y53324*
X32248Y53693*
X31879Y53878*
X30772*
X30402Y53693*
X30218Y53324*
Y52955*
X30402Y52586*
X30772Y52402*
X31879*
X32248Y52586*
X30402Y53693*
X32433Y55724D02*
Y56462D01*
Y56093D02*
X30218D01*
X30587Y55724*
X36210Y271572D02*
X36025Y271388D01*
X35656Y271203*
X35102*
X34733Y271388*
X34549Y271572*
X34364Y271941*
Y272680*
X34549Y273049*
X34733Y273233*
X35102Y273418*
X35656*
X36025Y273233*
X36210Y273049*
X37870Y271203D02*
X38240Y271388D01*
X38609Y271757*
X38793Y272311*
Y272864*
X38609Y273233*
X38240Y273418*
X37870*
X37502Y273233*
X37317Y272864*
X37502Y272495*
X37870Y272311*
X38240*
X38609Y272495*
X38793Y272864*
X40270Y271388D02*
X40639Y271203D01*
X41193*
X41561Y271388*
X41746Y271757*
Y271941*
X41561Y272311*
X41193Y272495*
X40270*
Y273418*
X41746*
X36372Y102522D02*
Y104737D01*
X37664*
X38033Y104552*
X38218Y104183*
X38033Y103814*
X37664Y103630*
X36372*
X37664D02*
X38218Y102522D01*
X39694D02*
X40432D01*
X40063D02*
Y104737D01*
X39694Y104368*
X42647Y102522D02*
X43385D01*
X43016D02*
Y104737D01*
X42647Y104368*
X37895Y2244D02*
X40110Y3167D01*
X37895Y4090*
X38818Y6673D02*
X38633Y6304D01*
Y5750*
X38818Y5381*
X39187Y5197*
X39556*
X39925Y5381*
X40110Y5750*
Y6304*
X39925Y6673*
X38818Y9626D02*
X38633Y9257D01*
Y8703*
X38818Y8334*
X39187Y8150*
X39556*
X39925Y8334*
X40110Y8703*
Y9257*
X39925Y9626*
X40110Y11102D02*
X37895D01*
X39002Y12025*
X37895Y12948*
X40110*
X38818Y14055D02*
X38633Y14424D01*
Y14978*
X38818Y15347*
X39187Y15531*
X39741*
X39925Y15347*
X40110Y14978*
Y14609*
X39925Y14240*
X39741Y14055*
X39556*
X39372Y14240*
X39187Y14609*
Y14978*
X39372Y15347*
X39556Y15531*
X39741D02*
X40110D01*
X39925Y17008D02*
X40110Y17377D01*
Y18115*
X39925Y18484*
X39556*
X39372Y18115*
Y17377*
X39187Y17008*
X38818*
X38633Y17377*
Y18115*
X38818Y18484*
X38633Y20330D02*
Y21068D01*
X38264Y20699D02*
X39925D01*
X40110Y20883*
Y21068*
X39925Y21252*
Y24390D02*
X40110Y24205D01*
Y23836*
Y23467*
X39925Y23098*
X39556Y22913*
X39002*
X38818Y23098*
X38633Y23467*
Y23836*
X38818Y24205*
X39002Y24390*
X39187*
X39372Y24205*
X39556Y23836*
Y23467*
X39372Y23098*
X39187Y22913*
X40110Y25866D02*
X38633D01*
X39187D02*
X38818Y26051D01*
X38633Y26420*
Y26789*
X38818Y27158*
X42548Y126435D02*
X42364Y126250D01*
X41994Y126065*
X41441*
X41072Y126250*
X40887Y126435*
X40703Y126804*
Y127542*
X40887Y127911*
X41072Y128096*
X41441Y128280*
X41994*
X42364Y128096*
X42548Y127911*
X44209Y127173D02*
X44578D01*
X44947Y127357*
X45132Y127726*
X44947Y128096*
X44578Y128280*
X44209*
X43840Y128096*
X43656Y127726*
X43840Y127357*
X44209Y127173*
X43840Y126988*
X43656Y126619*
X43840Y126250*
X44209Y126065*
X44578*
X44947Y126250*
X45132Y126619*
X44947Y126988*
X44578Y127173*
X47162Y126065D02*
X47531Y126250D01*
X47900Y126619*
X48085Y127173*
Y127726*
X47900Y128096*
X47531Y128280*
X47162*
X46793Y128096*
X46608Y127726*
X46793Y127357*
X47162Y127173*
X47531*
X47900Y127357*
X48085Y127726*
X43257Y112104D02*
X43072Y111919D01*
X42703Y111735*
X42150*
X41781Y111919*
X41596Y112104*
X41411Y112473*
Y113211*
X41596Y113580*
X41781Y113765*
X42150Y113949*
X42703*
X43072Y113765*
X43257Y113580*
X44733Y111735D02*
X45472D01*
X45102D02*
Y113949D01*
X44733Y113580*
X47317Y111919D02*
X47686Y111735D01*
X48240*
X48609Y111919*
X48793Y112289*
Y112473*
X48609Y112842*
X48240Y113027*
X47317*
Y113949*
X48793*
X42356Y72050D02*
Y74264D01*
X43648*
X44017Y74080*
X44202Y73711*
X44017Y73342*
X43648Y73157*
X42356*
X43648D02*
X44202Y72050D01*
X45678D02*
X46417D01*
X46047D02*
Y74264D01*
X45678Y73895*
X49738Y72050D02*
X48262D01*
X49554Y73342*
X49738Y73711*
X49554Y74080*
X49185Y74264*
X48631*
X48262Y74080*
X52691Y72050D02*
X51215D01*
X52506Y73342*
X52691Y73711*
X52506Y74080*
X52137Y74264*
X51584*
X51215Y74080*
X45422Y78954D02*
X45238Y78770D01*
X44869Y78585*
X44315*
X43946Y78770*
X43761Y78954*
X43577Y79323*
Y80061*
X43761Y80431*
X43946Y80615*
X44315Y80800*
X44869*
X45238Y80615*
X45422Y80431*
X46899Y78585D02*
X47637D01*
X47268D02*
Y80800D01*
X46899Y80431*
X49667Y78770D02*
X50036Y78585D01*
X50405*
X50774Y78770*
X50959Y79139*
Y80246*
X50774Y80615*
X50405Y80800*
X50036*
X49667Y80615*
X49482Y80246*
Y79139*
X49667Y78770*
X50774Y80615*
X46372Y102601D02*
Y104815D01*
X47664*
X48033Y104631*
X48218Y104262*
X48033Y103893*
X47664Y103708*
X46372*
X47664D02*
X48218Y102601D01*
X49694D02*
X50432D01*
X50063D02*
Y104815D01*
X49694Y104446*
X52462Y102785D02*
X52831Y102601D01*
X53200*
X53569Y102785*
X53754Y103155*
Y104262*
X53569Y104631*
X53200Y104815*
X52831*
X52462Y104631*
X52278Y104262*
Y103155*
X52462Y102785*
X53569Y104631*
X59714Y115805D02*
X59529Y115620D01*
X59160Y115435*
X58606*
X58237Y115620*
X58053Y115805*
X57868Y116174*
Y116912*
X58053Y117281*
X58237Y117466*
X58606Y117650*
X59160*
X59529Y117466*
X59714Y117281*
X61190Y115435D02*
X61928D01*
X61559D02*
Y117650D01*
X61190Y117281*
X63958Y115620D02*
X64327Y115435D01*
X64696*
X65065Y115620*
X65250Y115989*
X65065Y116358*
X64696Y116543*
X64327*
X64696D02*
X65065Y116728D01*
X65250Y117096*
X65065Y117466*
X64696Y117650*
X64327*
X63958Y117466*
X58496Y75984D02*
X56281D01*
Y77092*
X56465Y77461*
X56650Y77645*
X57019Y77830*
X57757*
X58126Y77645*
X58311Y77461*
X58496Y77092*
Y75984*
Y80413D02*
Y78937D01*
X57204Y80229*
X56835Y80413*
X56465Y80229*
X56281Y79860*
Y79306*
X56465Y78937*
X58496Y83366D02*
Y81890D01*
X57204Y83181*
X56835Y83366*
X56465Y83181*
X56281Y82813*
Y82259*
X56465Y81890*
X58013Y50157D02*
Y52003D01*
X60228Y50157*
Y52003*
Y53110D02*
X58013D01*
Y54218*
X58198Y54587*
X58382Y54771*
X58752Y54956*
X59490*
X59859Y54771*
X60043Y54587*
X60228Y54218*
Y53110*
Y56986D02*
X58013D01*
X59490Y56063*
Y57539*
X59674Y59016D02*
X59305Y59200D01*
X59120Y59569*
Y59939*
X59305Y60307*
X59674Y60492*
X60043Y60307*
X60228Y59939*
Y59569*
X60043Y59200*
X59674Y59016*
X59120*
X58567Y59200*
X58198Y59569*
X58013Y59939*
X61963Y137955D02*
Y140170D01*
X63254*
X63624Y139985*
X63808Y139616*
X63624Y139247*
X63254Y139063*
X61963*
X63254D02*
X63808Y137955D01*
X65469D02*
X65838Y138140D01*
X66207Y138509*
X66392Y139063*
Y139616*
X66207Y139985*
X65838Y140170*
X65469*
X65100Y139985*
X64915Y139616*
X65100Y139247*
X65469Y139063*
X65838*
X66207Y139247*
X66392Y139616*
X69344Y137955D02*
X67868D01*
X69160Y139247*
X69344Y139616*
X69160Y139985*
X68791Y140170*
X68237*
X67868Y139985*
X62870Y197876D02*
X63609D01*
X63240D02*
Y200091D01*
X62870D02*
X63609D01*
X67115Y198246D02*
X66931Y198061D01*
X66561Y197876*
X66008*
X65639Y198061*
X65454Y198246*
X65270Y198615*
Y199353*
X65454Y199722*
X65639Y199907*
X66008Y200091*
X66561*
X66931Y199907*
X67115Y199722*
X68776Y197876D02*
X69145Y198061D01*
X69514Y198430*
X69699Y198984*
Y199537*
X69514Y199907*
X69145Y200091*
X68776*
X68407Y199907*
X68222Y199537*
X68407Y199169*
X68776Y198984*
X69145*
X69514Y199169*
X69699Y199537*
X71360Y198061D02*
X71729Y197876D01*
X72098*
X72467Y198061*
X72652Y198430*
Y199537*
X72467Y199907*
X72098Y200091*
X71729*
X71360Y199907*
X71175Y199537*
Y198430*
X71360Y198061*
X72467Y199907*
X64478Y260017D02*
X64293Y259833D01*
X63924Y259648*
X63370*
X63001Y259833*
X62817Y260017*
X62632Y260386*
Y261124*
X62817Y261494*
X63001Y261678*
X63370Y261863*
X63924*
X64293Y261678*
X64478Y261494*
X66138Y259648D02*
X66507Y259833D01*
X66876Y260202*
X67061Y260756*
Y261309*
X66876Y261678*
X66507Y261863*
X66138*
X65769Y261678*
X65585Y261309*
X65769Y260940*
X66138Y260756*
X66507*
X66876Y260940*
X67061Y261309*
X68722Y259833D02*
X69091Y259648D01*
X69460*
X69829Y259833*
X70014Y260202*
X69829Y260571*
X69460Y260756*
X69091*
X69460D02*
X69829Y260940D01*
X70014Y261309*
X69829Y261678*
X69460Y261863*
X69091*
X68722Y261678*
X66215Y271508D02*
Y269294D01*
X68060*
X70644D02*
X69167D01*
X70459Y270586*
X70644Y270955*
X70459Y271324*
X70090Y271508*
X69537*
X69167Y271324*
X68139Y83994D02*
X67954Y83809D01*
X67585Y83624*
X67031*
X66663Y83809*
X66478Y83994*
X66293Y84363*
Y85101*
X66478Y85470*
X66663Y85655*
X67031Y85839*
X67585*
X67954Y85655*
X68139Y85470*
X69615Y83624D02*
X70354D01*
X69984D02*
Y85839D01*
X69615Y85470*
X72568Y83624D02*
X73306D01*
X72937D02*
Y85839D01*
X72568Y85470*
X66291Y5591D02*
X64076D01*
Y6698*
X64261Y7067*
X64445Y7252*
X64815Y7436*
X65553*
X65922Y7252*
X66106Y7067*
X66291Y6698*
Y5591*
Y9281D02*
X64815D01*
X64261D02*
X66291Y11496*
X64076D01*
X65183Y12419*
X64076Y13342*
X66291*
X64999Y14449D02*
X64815Y14818D01*
Y15372*
X64999Y15741*
X65368Y15925*
X65922*
X66106Y15741*
X66291Y15372*
Y15002*
X66106Y14633*
X65922Y14449*
X65737*
X65553Y14633*
X65368Y15002*
Y15372*
X65553Y15741*
X65737Y15925*
X65922D02*
X66291D01*
X66106Y17402D02*
X66291Y17771D01*
Y18509*
X66106Y18878*
X65737*
X65553Y18509*
Y17771*
X65368Y17402*
X64999*
X64815Y17771*
Y18509*
X64999Y18878*
X64815Y20724D02*
Y21462D01*
X64445Y21093D02*
X66106D01*
X66291Y21277*
Y21462*
X66106Y21646*
Y24783D02*
X66291Y24599D01*
Y24230*
Y23861*
X66106Y23492*
X65737Y23307*
X65183*
X64999Y23492*
X64815Y23861*
Y24230*
X64999Y24599*
X65183Y24783*
X65368*
X65553Y24599*
X65737Y24230*
Y23861*
X65553Y23492*
X65368Y23307*
X66291Y26260D02*
X64815D01*
X65368D02*
X64999Y26444D01*
X64815Y26813*
Y27183*
X64999Y27552*
X72312Y131631D02*
X72128Y131447D01*
X71758Y131262*
X71205*
X70836Y131447*
X70651Y131631*
X70467Y132000*
Y132739*
X70651Y133108*
X70836Y133293*
X71205Y133477*
X71758*
X72128Y133293*
X72312Y133108*
X73789Y131262D02*
X74527D01*
X74157D02*
Y133477D01*
X73789Y133108*
X76557Y131447D02*
X76926Y131262D01*
X77295*
X77664Y131447*
X77848Y131816*
Y132923*
X77664Y133293*
X77295Y133477*
X76926*
X76557Y133293*
X76372Y132923*
Y131816*
X76557Y131447*
X77664Y133293*
X79509Y131447D02*
X79878Y131262D01*
X80248*
X80617Y131447*
X80801Y131816*
Y132923*
X80617Y133293*
X80248Y133477*
X79878*
X79509Y133293*
X79325Y132923*
Y131816*
X79509Y131447*
X80617Y133293*
X74010Y138113D02*
Y140327D01*
X75302*
X75671Y140143*
X75856Y139774*
X75671Y139405*
X75302Y139220*
X74010*
X75302D02*
X75856Y138113D01*
X77516Y139220D02*
X77885D01*
X78254Y139405*
X78439Y139774*
X78254Y140143*
X77885Y140327*
X77516*
X77147Y140143*
X76963Y139774*
X77147Y139405*
X77516Y139220*
X77147Y139035*
X76963Y138667*
X77147Y138297*
X77516Y138113*
X77885*
X78254Y138297*
X78439Y138667*
X78254Y139035*
X77885Y139220*
X80100Y138297D02*
X80469Y138113D01*
X80838*
X81207Y138297*
X81392Y138667*
X81207Y139035*
X80838Y139220*
X80469*
X80838D02*
X81207Y139405D01*
X81392Y139774*
X81207Y140143*
X80838Y140327*
X80469*
X80100Y140143*
X74167Y258034D02*
Y260248D01*
X75275*
X75644Y260064*
X75828Y259880*
X76013Y259510*
Y258772*
X75828Y258403*
X75644Y258219*
X75275Y258034*
X74167*
X77674Y259141D02*
X78043D01*
X78412Y259326*
X78596Y259695*
X78412Y260064*
X78043Y260248*
X77674*
X77305Y260064*
X77120Y259695*
X77305Y259326*
X77674Y259141*
X77305Y258957*
X77120Y258588*
X77305Y258219*
X77674Y258034*
X78043*
X78412Y258219*
X78596Y258588*
X78412Y258957*
X78043Y259141*
X80626Y258034D02*
X80996Y258219D01*
X81365Y258588*
X81549Y259141*
Y259695*
X81365Y260064*
X80996Y260248*
X80626*
X80257Y260064*
X80073Y259695*
X80257Y259326*
X80626Y259141*
X80996*
X81365Y259326*
X81549Y259695*
X77194Y117222D02*
X77009Y117037D01*
X76640Y116853*
X76087*
X75718Y117037*
X75533Y117222*
X75348Y117591*
Y118329*
X75533Y118698*
X75718Y118883*
X76087Y119067*
X76640*
X77009Y118883*
X77194Y118698*
X78670Y116853D02*
X79409D01*
X79039D02*
Y119067D01*
X78670Y118698*
X82177Y116853D02*
Y119067D01*
X81254Y117591*
X82730*
X76685Y54173D02*
X74470D01*
Y55465*
X74654Y55834*
X75024Y56019*
X75393Y55834*
X75577Y55465*
Y54173*
Y55465D02*
X76685Y56019D01*
Y57680D02*
X76500Y58049D01*
X76131Y58418*
X75577Y58602*
X75024*
X74654Y58418*
X74470Y58049*
Y57680*
X74654Y57311*
X75024Y57126*
X75393Y57311*
X75577Y57680*
Y58049*
X75393Y58418*
X75024Y58602*
X76685Y60448D02*
Y61186D01*
Y60817D02*
X74470D01*
X74839Y60448*
X76685Y63401D02*
Y64139D01*
Y63770D02*
X74470D01*
X74839Y63401*
X83144Y269619D02*
Y267404D01*
X84989*
X86096D02*
Y269619D01*
X87942*
X87573Y268511D02*
X86096D01*
Y267404D02*
X87942D01*
X89049D02*
Y269619D01*
X90157*
X90526Y269434*
X90710Y269250*
X90895Y268880*
Y268142*
X90710Y267773*
X90526Y267589*
X90157Y267404*
X89049*
X92187Y267589D02*
X92556Y267404D01*
X92925*
X93294Y267589*
X93478Y267958*
X93294Y268327*
X92925Y268511*
X92556*
X92925D02*
X93294Y268696D01*
X93478Y269065*
X93294Y269434*
X92925Y269619*
X92556*
X92187Y269434*
X86193Y102091D02*
X86008Y102276D01*
X85823Y102645*
Y103199*
X86008Y103568*
X86193Y103752*
X86561Y103937*
X87300*
X87669Y103752*
X87854Y103568*
X88038Y103199*
Y102645*
X87854Y102276*
X87669Y102091*
X85823Y100615D02*
Y99877D01*
Y100246D02*
X88038D01*
X87669Y100615*
X85823Y96555D02*
Y98031D01*
X87115Y96740*
X87484Y96555*
X87854Y96740*
X88038Y97109*
Y97662*
X87854Y98031*
X85582Y70787D02*
X83368D01*
Y72079*
X83552Y72448*
X83921Y72633*
X84290Y72448*
X84475Y72079*
Y70787*
Y72079D02*
X85582Y72633D01*
Y74294D02*
X85398Y74663D01*
X85028Y75032*
X84475Y75217*
X83921*
X83552Y75032*
X83368Y74663*
Y74294*
X83552Y73925*
X83921Y73740*
X84290Y73925*
X84475Y74294*
Y74663*
X84290Y75032*
X83921Y75217*
X85398Y76878D02*
X85582Y77246D01*
Y77616*
X85398Y77985*
X85028Y78169*
X83921*
X83552Y77985*
X83368Y77616*
Y77246*
X83552Y76878*
X83921Y76693*
X85028*
X85398Y76878*
X83552Y77985*
X85582Y79646D02*
X83368Y81122D01*
Y79646*
X93279Y130239D02*
Y132453D01*
X92356D02*
X94202D01*
X95309Y130423D02*
X95678Y130239D01*
X96232*
X96601Y130423*
X96785Y130793*
Y130977*
X96601Y131346*
X96232Y131531*
X95309*
Y132453*
X96785*
X92590Y70551D02*
X90376D01*
Y71843*
X90560Y72212*
X90929Y72397*
X91298Y72212*
X91483Y71843*
Y70551*
Y71843D02*
X92590Y72397D01*
Y74057D02*
X92406Y74427D01*
X92036Y74796*
X91483Y74980*
X90929*
X90560Y74796*
X90376Y74427*
Y74057*
X90560Y73689*
X90929Y73504*
X91298Y73689*
X91483Y74057*
Y74427*
X91298Y74796*
X90929Y74980*
X92406Y76641D02*
X92590Y77010D01*
Y77380*
X92406Y77748*
X92036Y77933*
X90929*
X90560Y77748*
X90376Y77380*
Y77010*
X90560Y76641*
X90929Y76457*
X92036*
X92406Y76641*
X90560Y77748*
X92036Y79409D02*
X91667Y79594D01*
X91483Y79963*
Y80332*
X91667Y80701*
X92036Y80886*
X92406Y80701*
X92590Y80332*
Y79963*
X92406Y79594*
X92036Y79409*
X91483*
X90929Y79594*
X90560Y79963*
X90376Y80332*
X93183Y87109D02*
Y89323D01*
X94475*
X94844Y89139*
X95029Y88770*
X94844Y88401*
X94475Y88216*
X93183*
X94475D02*
X95029Y87109D01*
X96689D02*
X97059Y87293D01*
X97428Y87663*
X97612Y88216*
Y88770*
X97428Y89139*
X97059Y89323*
X96689*
X96320Y89139*
X96136Y88770*
X96320Y88401*
X96689Y88216*
X97059*
X97428Y88401*
X97612Y88770*
X99273Y87293D02*
X99642Y87109D01*
X100011*
X100380Y87293*
X100565Y87663*
Y88770*
X100380Y89139*
X100011Y89323*
X99642*
X99273Y89139*
X99089Y88770*
Y87663*
X99273Y87293*
X100380Y89139*
X103518Y87109D02*
X102041D01*
X103333Y88401*
X103518Y88770*
X103333Y89139*
X102964Y89323*
X102411*
X102041Y89139*
X96096Y278191D02*
Y280406D01*
X97204*
X97573Y280222*
X97757Y280037*
X97942Y279668*
Y278930*
X97757Y278561*
X97573Y278376*
X97204Y278191*
X96096*
X99603Y279299D02*
X99972D01*
X100341Y279483*
X100526Y279852*
X100341Y280222*
X99972Y280406*
X99603*
X99234Y280222*
X99049Y279852*
X99234Y279483*
X99603Y279299*
X99234Y279114*
X99049Y278745*
X99234Y278376*
X99603Y278191*
X99972*
X100341Y278376*
X100526Y278745*
X100341Y279114*
X99972Y279299*
X98417Y70787D02*
X96202D01*
Y72079*
X96387Y72448*
X96756Y72633*
X97125Y72448*
X97309Y72079*
Y70787*
Y72079D02*
X98417Y72633D01*
Y74294D02*
X98232Y74663D01*
X97863Y75032*
X97309Y75217*
X96756*
X96387Y75032*
X96202Y74663*
Y74294*
X96387Y73925*
X96756Y73740*
X97125Y73925*
X97309Y74294*
Y74663*
X97125Y75032*
X96756Y75217*
X98417Y77062D02*
Y77800D01*
Y77431D02*
X96202D01*
X96571Y77062*
X98417Y81122D02*
Y79646D01*
X97125Y80937*
X96756Y81122*
X96387Y80937*
X96202Y80569*
Y80015*
X96387Y79646*
X103257Y72458D02*
X103072Y72274D01*
X102703Y72089*
X102150*
X101781Y72274*
X101596Y72458*
X101411Y72827*
Y73565*
X101596Y73935*
X101781Y74119*
X102150Y74304*
X102703*
X103072Y74119*
X103257Y73935*
X104918Y72089D02*
X105287Y72274D01*
X105656Y72643*
X105841Y73196*
Y73750*
X105656Y74119*
X105287Y74304*
X104918*
X104549Y74119*
X104364Y73750*
X104549Y73381*
X104918Y73196*
X105287*
X105656Y73381*
X105841Y73750*
X107502Y72274D02*
X107870Y72089D01*
X108240*
X108609Y72274*
X108793Y72643*
Y73750*
X108609Y74119*
X108240Y74304*
X107870*
X107502Y74119*
X107317Y73750*
Y72643*
X107502Y72274*
X108609Y74119*
X110454Y72274D02*
X110823Y72089D01*
X111193*
X111561Y72274*
X111746Y72643*
Y73750*
X111561Y74119*
X111193Y74304*
X110823*
X110454Y74119*
X110270Y73750*
Y72643*
X110454Y72274*
X111561Y74119*
X98643Y136693D02*
Y138539D01*
X100858Y136693*
Y138539*
Y139646D02*
X98643D01*
Y140753*
X98828Y141122*
X99012Y141307*
X99381Y141491*
X100120*
X100489Y141307*
X100673Y141122*
X100858Y140753*
Y139646*
Y143521D02*
X98643D01*
X100120Y142598*
Y144075*
X100858Y145551D02*
X98643Y147028D01*
Y145551*
X104010Y270012D02*
Y267798D01*
X105856*
X106963D02*
Y270012D01*
X108808*
X108439Y268905D02*
X106963D01*
Y267798D02*
X108808D01*
X109915D02*
Y270012D01*
X111023*
X111392Y269828*
X111576Y269643*
X111761Y269274*
Y268536*
X111576Y268167*
X111392Y267982*
X111023Y267798*
X109915*
X114344D02*
X112868D01*
X114160Y269090*
X114344Y269459*
X114160Y269828*
X113791Y270012*
X113237*
X112868Y269828*
X106215Y83546D02*
Y85760D01*
X107506*
X107876Y85576*
X108060Y85207*
X107876Y84838*
X107506Y84653*
X106215*
X107506D02*
X108060Y83546D01*
X109721D02*
X110090Y83730D01*
X110459Y84100*
X110644Y84653*
Y85207*
X110459Y85576*
X110090Y85760*
X109721*
X109352Y85576*
X109167Y85207*
X109352Y84838*
X109721Y84653*
X110090*
X110459Y84838*
X110644Y85207*
X112305Y83730D02*
X112674Y83546D01*
X113043*
X113412Y83730*
X113596Y84100*
Y85207*
X113412Y85576*
X113043Y85760*
X112674*
X112305Y85576*
X112120Y85207*
Y84100*
X112305Y83730*
X113412Y85576*
X115073Y83730D02*
X115442Y83546D01*
X115996*
X116365Y83730*
X116549Y84100*
Y84284*
X116365Y84653*
X115996Y84838*
X115073*
Y85760*
X116549*
X106527Y128268D02*
X104313D01*
Y129559*
X104497Y129929*
X104866Y130113*
X105235Y129929*
X105420Y129559*
Y128268*
Y129559D02*
X106527Y130113D01*
Y131590D02*
Y132328D01*
Y131959D02*
X104313D01*
X104681Y131590*
X106527Y134543D02*
Y135281D01*
Y134911D02*
X104313D01*
X104681Y134543*
X106527Y137495D02*
Y138233D01*
Y137864D02*
X104313D01*
X104681Y137495*
X107081Y144254D02*
Y146469D01*
X108372*
X108742Y146285*
X108926Y145915*
X108742Y145546*
X108372Y145362*
X107081*
X108372D02*
X108926Y144254D01*
X110403D02*
X111141D01*
X110772D02*
Y146469D01*
X110403Y146100*
X113171Y144439D02*
X113540Y144254D01*
X113909*
X114278Y144439*
X114463Y144808*
Y145915*
X114278Y146285*
X113909Y146469*
X113540*
X113171Y146285*
X112986Y145915*
Y144808*
X113171Y144439*
X114278Y146285*
X115939Y144439D02*
X116308Y144254D01*
X116862*
X117231Y144439*
X117415Y144808*
Y144993*
X117231Y145362*
X116862Y145546*
X115939*
Y146469*
X117415*
X110422Y41710D02*
X110238Y41526D01*
X109869Y41341*
X109315*
X108946Y41526*
X108761Y41710*
X108577Y42079*
Y42817*
X108761Y43187*
X108946Y43371*
X109315Y43556*
X109869*
X110238Y43371*
X110422Y43187*
X111530Y42079D02*
Y42817D01*
X111714Y43187*
X111899Y43371*
X112268Y43556*
X112637*
X113006Y43371*
X113191Y43187*
X113375Y42817*
Y42079*
X113191Y41710*
X113006Y41526*
X112637Y41341*
X112268*
X111899Y41526*
X111714Y41710*
X111530Y42079*
X114482Y41341D02*
Y43556D01*
X116328Y41341*
Y43556*
X117435Y41341D02*
Y43556D01*
X119281Y41341*
Y43556*
X120572Y41526D02*
X120941Y41341D01*
X121311*
X121680Y41526*
X121864Y41895*
X121680Y42264*
X121311Y42448*
X120941*
X121311D02*
X121680Y42633D01*
X121864Y43002*
X121680Y43371*
X121311Y43556*
X120941*
X120572Y43371*
X109500Y156853D02*
Y159067D01*
X108577D02*
X110422D01*
X111899Y156853D02*
X112637D01*
X112268D02*
Y159067D01*
X111899Y158698*
X114482Y157407D02*
X114667Y157776D01*
X115036Y157960*
X115405*
X115774Y157776*
X115959Y157407*
X115774Y157037*
X115405Y156853*
X115036*
X114667Y157037*
X114482Y157407*
Y157960*
X114667Y158514*
X115036Y158883*
X115405Y159067*
X108417Y180551D02*
X106202D01*
Y181843*
X106387Y182212*
X106756Y182397*
X107125Y182212*
X107309Y181843*
Y180551*
Y181843D02*
X108417Y182397D01*
Y184057D02*
X108232Y184427D01*
X107863Y184796*
X107309Y184980*
X106756*
X106387Y184796*
X106202Y184427*
Y184057*
X106387Y183689*
X106756Y183504*
X107125Y183689*
X107309Y184057*
Y184427*
X107125Y184796*
X106756Y184980*
X108417Y187933D02*
Y186457D01*
X107125Y187748*
X106756Y187933*
X106387Y187748*
X106202Y187380*
Y186826*
X106387Y186457*
X108232Y189594D02*
X108417Y189963D01*
Y190332*
X108232Y190701*
X107863Y190886*
X107494Y190701*
X107309Y190332*
Y189963*
Y190332D02*
X107125Y190701D01*
X106756Y190886*
X106387Y190701*
X106202Y190332*
Y189963*
X106387Y189594*
X108363Y96806D02*
X108547Y96622D01*
X108732Y96252*
Y95699*
X108547Y95330*
X108363Y95145*
X107994Y94961*
X107256*
X106886Y95145*
X106702Y95330*
X106517Y95699*
Y96252*
X106702Y96622*
X106886Y96806*
X108178Y97913D02*
X108547Y98098D01*
X108732Y98467*
Y98836*
X108547Y99205*
X108178Y99390*
X107809*
X107440Y99205*
X107256Y98836*
Y98467*
X107440Y98098*
X107809Y97913*
X108178*
X108732Y100866D02*
X107256D01*
X107809D02*
X107440Y101051D01*
X107256Y101420*
Y101789*
X107440Y102158*
X107809Y102343*
X108732*
Y103819D02*
X107256D01*
X107809D02*
X107440Y104004D01*
X107256Y104372*
Y104742*
X107440Y105111*
X107809Y105295*
X108732*
Y106772D02*
X106517Y107694D01*
X108732Y108617*
X107809Y107141D02*
Y108248D01*
X108732Y109724D02*
X106517D01*
X107994D02*
Y110278D01*
X107256Y111201*
X107994Y110278D02*
X108732Y111201D01*
Y112677D02*
X106517D01*
X107994D02*
Y113231D01*
X107256Y114154*
X107994Y113231D02*
X108732Y114154D01*
X107256Y115630D02*
X108178D01*
X108547Y115815*
X108732Y116183*
Y116553*
X108547Y116922*
X108178Y117106*
X107256D02*
X108732D01*
Y120059D02*
Y118583D01*
X107440Y119874*
X107071Y120059*
X106702Y119874*
X106517Y119506*
Y118952*
X106702Y118583*
X111525Y204387D02*
X111340Y204203D01*
X110971Y204018*
X110417*
X110048Y204203*
X109864Y204387*
X109679Y204756*
Y205494*
X109864Y205864*
X110048Y206048*
X110417Y206233*
X110971*
X111340Y206048*
X111525Y205864*
X113185Y204018D02*
X113555Y204203D01*
X113924Y204572*
X114108Y205126*
Y205679*
X113924Y206048*
X113555Y206233*
X113185*
X112817Y206048*
X112632Y205679*
X112817Y205310*
X113185Y205126*
X113555*
X113924Y205310*
X114108Y205679*
X116138Y205126D02*
X116507D01*
X116876Y205310*
X117061Y205679*
X116876Y206048*
X116507Y206233*
X116138*
X115769Y206048*
X115585Y205679*
X115769Y205310*
X116138Y205126*
X115769Y204941*
X115585Y204572*
X115769Y204203*
X116138Y204018*
X116507*
X116876Y204203*
X117061Y204572*
X116876Y204941*
X116507Y205126*
X109204Y167874D02*
X106990D01*
Y169166*
X107174Y169535*
X107543Y169720*
X107912Y169535*
X108097Y169166*
Y167874*
Y169166D02*
X109204Y169720D01*
Y171380D02*
X109020Y171750D01*
X108650Y172119*
X108097Y172303*
X107543*
X107174Y172119*
X106990Y171750*
Y171380*
X107174Y171011*
X107543Y170827*
X107912Y171011*
X108097Y171380*
Y171750*
X107912Y172119*
X107543Y172303*
X109204Y175256D02*
Y173780D01*
X107912Y175071*
X107543Y175256*
X107174Y175071*
X106990Y174702*
Y174149*
X107174Y173780*
X109204Y178209D02*
Y176732D01*
X107912Y178024*
X107543Y178209*
X107174Y178024*
X106990Y177655*
Y177102*
X107174Y176732*
X110152Y246459D02*
Y248674D01*
X111259*
X111628Y248489*
X111813Y248305*
X111997Y247935*
Y247197*
X111813Y246828*
X111628Y246644*
X111259Y246459*
X110152*
X113658D02*
X114027Y246644D01*
X114396Y247013*
X114581Y247567*
Y248120*
X114396Y248489*
X114027Y248674*
X113658*
X113289Y248489*
X113104Y248120*
X113289Y247751*
X113658Y247567*
X114027*
X114396Y247751*
X114581Y248120*
X117533Y246459D02*
X116057D01*
X117349Y247751*
X117533Y248120*
X117349Y248489*
X116980Y248674*
X116426*
X116057Y248489*
X110467Y256617D02*
Y258831D01*
X111574*
X111943Y258647*
X112128Y258462*
X112312Y258093*
Y257355*
X112128Y256986*
X111943Y256801*
X111574Y256617*
X110467*
X113973D02*
X114342Y256801D01*
X114711Y257170*
X114896Y257724*
Y258278*
X114711Y258647*
X114342Y258831*
X113973*
X113604Y258647*
X113419Y258278*
X113604Y257909*
X113973Y257724*
X114342*
X114711Y257909*
X114896Y258278*
X116557Y256801D02*
X116926Y256617D01*
X117295*
X117664Y256801*
X117848Y257170*
Y258278*
X117664Y258647*
X117295Y258831*
X116926*
X116557Y258647*
X116372Y258278*
Y257170*
X116557Y256801*
X117664Y258647*
X117278Y278191D02*
Y280406D01*
X118385*
X118754Y280222*
X118939Y280037*
X119123Y279668*
Y278930*
X118939Y278561*
X118754Y278376*
X118385Y278191*
X117278*
X120230Y278376D02*
X120600Y278191D01*
X121153*
X121522Y278376*
X121707Y278745*
Y278930*
X121522Y279299*
X121153Y279483*
X120230*
Y280406*
X121707*
X118419Y86459D02*
Y88674D01*
X119711*
X120080Y88489*
X120265Y88120*
X120080Y87751*
X119711Y87567*
X118419*
X119711D02*
X120265Y86459D01*
X121926D02*
X122295Y86644D01*
X122664Y87013*
X122848Y87567*
Y88120*
X122664Y88489*
X122295Y88674*
X121926*
X121557Y88489*
X121372Y88120*
X121557Y87751*
X121926Y87567*
X122295*
X122664Y87751*
X122848Y88120*
X124509Y86644D02*
X124878Y86459D01*
X125248*
X125617Y86644*
X125801Y87013*
Y88120*
X125617Y88489*
X125248Y88674*
X124878*
X124509Y88489*
X124325Y88120*
Y87013*
X124509Y86644*
X125617Y88489*
X127831Y86459D02*
X128200Y86644D01*
X128569Y87013*
X128754Y87567*
Y88120*
X128569Y88489*
X128200Y88674*
X127831*
X127462Y88489*
X127278Y88120*
X127462Y87751*
X127831Y87567*
X128200*
X128569Y87751*
X128754Y88120*
X118259Y70236D02*
X116045D01*
Y71528*
X116229Y71897*
X116598Y72082*
X116967Y71897*
X117152Y71528*
Y70236*
Y71528D02*
X118259Y72082D01*
Y73743D02*
X118075Y74112D01*
X117706Y74481*
X117152Y74665*
X116598*
X116229Y74481*
X116045Y74112*
Y73743*
X116229Y73374*
X116598Y73189*
X116967Y73374*
X117152Y73743*
Y74112*
X116967Y74481*
X116598Y74665*
X118259Y76511D02*
Y77249D01*
Y76880D02*
X116045D01*
X116414Y76511*
X118075Y79279D02*
X118259Y79648D01*
Y80017*
X118075Y80386*
X117706Y80571*
X116598*
X116229Y80386*
X116045Y80017*
Y79648*
X116229Y79279*
X116598Y79094*
X117706*
X118075Y79279*
X116229Y80386*
X121094Y96772D02*
X118880D01*
Y98063*
X119064Y98433*
X119433Y98617*
X119802Y98433*
X119987Y98063*
Y96772*
Y98063D02*
X121094Y98617D01*
X119987Y100278D02*
Y100647D01*
X119802Y101016*
X119433Y101201*
X119064Y101016*
X118880Y100647*
Y100278*
X119064Y99909*
X119433Y99724*
X119802Y99909*
X119987Y100278*
X120171Y99909*
X120540Y99724*
X120909Y99909*
X121094Y100278*
Y100647*
X120909Y101016*
X120540Y101201*
X120171Y101016*
X119987Y100647*
X120540Y102677D02*
X120171Y102862D01*
X119987Y103231*
Y103600*
X120171Y103969*
X120540Y104154*
X120909Y103969*
X121094Y103600*
Y103231*
X120909Y102862*
X120540Y102677*
X119987*
X119433Y102862*
X119064Y103231*
X118880Y103600*
X121963Y184018D02*
Y186233D01*
X123254*
X123624Y186048*
X123808Y185679*
X123624Y185310*
X123254Y185126*
X121963*
X123254D02*
X123808Y184018D01*
X125469D02*
X125838Y184203D01*
X126207Y184572*
X126392Y185126*
Y185679*
X126207Y186048*
X125838Y186233*
X125469*
X125100Y186048*
X124915Y185679*
X125100Y185310*
X125469Y185126*
X125838*
X126207Y185310*
X126392Y185679*
X128053Y184203D02*
X128422Y184018D01*
X128791*
X129160Y184203*
X129344Y184572*
Y185679*
X129160Y186048*
X128791Y186233*
X128422*
X128053Y186048*
X127868Y185679*
Y184572*
X128053Y184203*
X129160Y186048*
X121567Y112205D02*
X119352D01*
Y113496*
X119536Y113866*
X119906Y114050*
X120274Y113866*
X120459Y113496*
Y112205*
Y113496D02*
X121567Y114050D01*
X120459Y115711D02*
Y116080D01*
X120274Y116449*
X119906Y116634*
X119536Y116449*
X119352Y116080*
Y115711*
X119536Y115342*
X119906Y115157*
X120274Y115342*
X120459Y115711*
X120644Y115342*
X121013Y115157*
X121382Y115342*
X121567Y115711*
Y116080*
X121382Y116449*
X121013Y116634*
X120644Y116449*
X120459Y116080*
X121567Y118664D02*
X121382Y119033D01*
X121013Y119402*
X120459Y119587*
X119906*
X119536Y119402*
X119352Y119033*
Y118664*
X119536Y118295*
X119906Y118110*
X120274Y118295*
X120459Y118664*
Y119033*
X120274Y119402*
X119906Y119587*
X125267Y148031D02*
X123053D01*
Y149139*
X123237Y149508*
X123422Y149693*
X123791Y149877*
X124529*
X124898Y149693*
X125083Y149508*
X125267Y149139*
Y148031*
X124160Y151538D02*
Y151907D01*
X123975Y152276*
X123606Y152461*
X123237Y152276*
X123053Y151907*
Y151538*
X123237Y151169*
X123606Y150984*
X123975Y151169*
X124160Y151538*
X124344Y151169*
X124713Y150984*
X125083Y151169*
X125267Y151538*
Y151907*
X125083Y152276*
X124713Y152461*
X124344Y152276*
X124160Y151907*
X125267Y154306D02*
Y155044D01*
Y154675D02*
X123053D01*
X123422Y154306*
X125978Y269855D02*
Y267640D01*
X127824*
X128931D02*
Y269855D01*
X130777*
X130407Y268748D02*
X128931D01*
Y267640D02*
X130777D01*
X131884D02*
Y269855D01*
X132991*
X133360Y269670*
X133545Y269486*
X133730Y269117*
Y268378*
X133545Y268009*
X133360Y267825*
X132991Y267640*
X131884*
X135206D02*
X135944D01*
X135575D02*
Y269855D01*
X135206Y269486*
X128102Y70394D02*
X125887D01*
Y71685*
X126072Y72055*
X126441Y72239*
X126810Y72055*
X126994Y71685*
Y70394*
Y71685D02*
X128102Y72239D01*
Y73900D02*
X127917Y74269D01*
X127548Y74638*
X126994Y74823*
X126441*
X126072Y74638*
X125887Y74269*
Y73900*
X126072Y73531*
X126441Y73346*
X126810Y73531*
X126994Y73900*
Y74269*
X126810Y74638*
X126441Y74823*
X127917Y76484D02*
X128102Y76853D01*
Y77222*
X127917Y77591*
X127548Y77776*
X126441*
X126072Y77591*
X125887Y77222*
Y76853*
X126072Y76484*
X126441Y76299*
X127548*
X127917Y76484*
X126072Y77591*
X128102Y80175D02*
X125887D01*
X127364Y79252*
Y80728*
X130506Y71380D02*
Y73595D01*
X131798*
X132167Y73411*
X132352Y73041*
X132167Y72672*
X131798Y72488*
X130506*
X131798D02*
X132352Y71380D01*
X134012D02*
X134381Y71565D01*
X134750Y71934*
X134935Y72488*
Y73041*
X134750Y73411*
X134381Y73595*
X134012*
X133643Y73411*
X133459Y73041*
X133643Y72672*
X134012Y72488*
X134381*
X134750Y72672*
X134935Y73041*
X136596Y71565D02*
X136965Y71380D01*
X137334*
X137703Y71565*
X137888Y71934*
Y73041*
X137703Y73411*
X137334Y73595*
X136965*
X136596Y73411*
X136411Y73041*
Y71934*
X136596Y71565*
X137703Y73411*
X139549Y71565D02*
X139918Y71380D01*
X140287*
X140656Y71565*
X140841Y71934*
X140656Y72303*
X140287Y72488*
X139918*
X140287D02*
X140656Y72672D01*
X140841Y73041*
X140656Y73411*
X140287Y73595*
X139918*
X139549Y73411*
X132930Y95861D02*
X133114Y95677D01*
X133299Y95307*
Y94754*
X133114Y94385*
X132930Y94200*
X132561Y94016*
X131822*
X131453Y94200*
X131269Y94385*
X131084Y94754*
Y95307*
X131269Y95677*
X131453Y95861*
X132745Y96969D02*
X133114Y97153D01*
X133299Y97522*
Y97891*
X133114Y98260*
X132745Y98445*
X132376*
X132007Y98260*
X131822Y97891*
Y97522*
X132007Y97153*
X132376Y96969*
X132745*
X133299Y99921D02*
X131822D01*
X132376D02*
X132007Y100106D01*
X131822Y100475*
Y100844*
X132007Y101213*
X132376Y101398*
X133299*
Y102874D02*
X131822D01*
X132376D02*
X132007Y103059D01*
X131822Y103428*
Y103797*
X132007Y104166*
X132376Y104350*
X133299*
Y105827D02*
X131084Y106750D01*
X133299Y107672*
X132376Y106196D02*
Y107303D01*
X133299Y108780D02*
X131084D01*
X132561D02*
Y109333D01*
X131822Y110256*
X132561Y109333D02*
X133299Y110256D01*
Y111732D02*
X131084D01*
X132561D02*
Y112286D01*
X131822Y113209*
X132561Y112286D02*
X133299Y113209D01*
X131822Y114685D02*
X132745D01*
X133114Y114870*
X133299Y115239*
Y115608*
X133114Y115977*
X132745Y116161*
X131822D02*
X133299D01*
Y118007D02*
Y118745D01*
Y118376D02*
X131084D01*
X131453Y118007*
X133850Y148110D02*
X131635D01*
Y149218*
X131820Y149587*
X132004Y149771*
X132374Y149956*
X133112*
X133481Y149771*
X133665Y149587*
X133850Y149218*
Y148110*
X132743Y151617D02*
Y151986D01*
X132558Y152355*
X132189Y152539*
X131820Y152355*
X131635Y151986*
Y151617*
X131820Y151248*
X132189Y151063*
X132558Y151248*
X132743Y151617*
X132927Y151248*
X133296Y151063*
X133665Y151248*
X133850Y151617*
Y151986*
X133665Y152355*
X133296Y152539*
X132927Y152355*
X132743Y151986*
X133850Y155492D02*
Y154016D01*
X132558Y155307*
X132189Y155492*
X131820Y155307*
X131635Y154939*
Y154385*
X131820Y154016*
X135270Y247050D02*
Y249264D01*
X136561*
X136931Y249080*
X137115Y248711*
X136931Y248342*
X136561Y248157*
X135270*
X136561D02*
X137115Y247050D01*
X138776D02*
X139145Y247234D01*
X139514Y247604*
X139699Y248157*
Y248711*
X139514Y249080*
X139145Y249264*
X138776*
X138407Y249080*
X138222Y248711*
X138407Y248342*
X138776Y248157*
X139145*
X139514Y248342*
X139699Y248711*
X142098Y247050D02*
Y249264D01*
X141175Y247788*
X142652*
X144681Y248157D02*
X145051D01*
X145420Y248342*
X145604Y248711*
X145420Y249080*
X145051Y249264*
X144681*
X144313Y249080*
X144128Y248711*
X144313Y248342*
X144681Y248157*
X144313Y247972*
X144128Y247604*
X144313Y247234*
X144681Y247050*
X145051*
X145420Y247234*
X145604Y247604*
X145420Y247972*
X145051Y248157*
X137157Y77008D02*
X134943D01*
Y78300*
X135127Y78669*
X135496Y78854*
X135865Y78669*
X136050Y78300*
Y77008*
Y78300D02*
X137157Y78854D01*
Y80514D02*
X136972Y80883D01*
X136603Y81252*
X136050Y81437*
X135496*
X135127Y81252*
X134943Y80883*
Y80514*
X135127Y80145*
X135496Y79961*
X135865Y80145*
X136050Y80514*
Y80883*
X135865Y81252*
X135496Y81437*
X136972Y83098D02*
X137157Y83467D01*
Y83836*
X136972Y84205*
X136603Y84390*
X135496*
X135127Y84205*
X134943Y83836*
Y83467*
X135127Y83098*
X135496Y82913*
X136603*
X136972Y83098*
X135127Y84205*
X136050Y86420D02*
Y86789D01*
X135865Y87158*
X135496Y87343*
X135127Y87158*
X134943Y86789*
Y86420*
X135127Y86051*
X135496Y85866*
X135865Y86051*
X136050Y86420*
X136234Y86051*
X136603Y85866*
X136972Y86051*
X137157Y86420*
Y86789*
X136972Y87158*
X136603Y87343*
X136234Y87158*
X136050Y86789*
X138259Y236220D02*
X136045D01*
Y237512*
X136229Y237881*
X136598Y238066*
X136967Y237881*
X137152Y237512*
Y236220*
Y237512D02*
X138259Y238066D01*
Y239173D02*
X136045Y240650D01*
Y239173*
X138259Y243602D02*
Y242126D01*
X136967Y243418*
X136598Y243602*
X136229Y243418*
X136045Y243049*
Y242495*
X136229Y242126*
X139246Y278191D02*
Y280406D01*
X140354*
X140722Y280222*
X140907Y280037*
X141092Y279668*
Y278930*
X140907Y278561*
X140722Y278376*
X140354Y278191*
X139246*
X143122D02*
Y280406D01*
X142199Y278930*
X143675*
X142706Y256041D02*
X142521Y255856D01*
X142152Y255672*
X141598*
X141230Y255856*
X141045Y256041*
X140860Y256410*
Y257148*
X141045Y257517*
X141230Y257702*
X141598Y257886*
X142152*
X142521Y257702*
X142706Y257517*
X145289Y255672D02*
X143813D01*
X145105Y256964*
X145289Y257333*
X145105Y257702*
X144736Y257886*
X144182*
X143813Y257702*
X146950Y255856D02*
X147319Y255672D01*
X147689*
X148057Y255856*
X148242Y256226*
X148057Y256594*
X147689Y256779*
X147319*
X147689D02*
X148057Y256964D01*
X148242Y257333*
X148057Y257702*
X147689Y257886*
X147319*
X146950Y257702*
X143100Y262498D02*
X142915Y262313D01*
X142546Y262128*
X141992*
X141623Y262313*
X141439Y262498*
X141254Y262867*
Y263605*
X141439Y263974*
X141623Y264159*
X141992Y264343*
X142546*
X142915Y264159*
X143100Y263974*
X145683Y262128D02*
X144207D01*
X145498Y263420*
X145683Y263789*
X145498Y264159*
X145130Y264343*
X144576*
X144207Y264159*
X147529Y262128D02*
X148267D01*
X147898D02*
Y264343D01*
X147529Y263974*
X141569Y240790D02*
Y243004D01*
X142861*
X143230Y242820*
X143415Y242451*
X143230Y242082*
X142861Y241897*
X141569*
X142861D02*
X143415Y240790D01*
X145075D02*
X145444Y240974D01*
X145813Y241344*
X145998Y241897*
Y242451*
X145813Y242820*
X145444Y243004*
X145075*
X144706Y242820*
X144522Y242451*
X144706Y242082*
X145075Y241897*
X145444*
X145813Y242082*
X145998Y242451*
X148397Y240790D02*
Y243004D01*
X147474Y241528*
X148951*
X150427Y240790D02*
X151904Y243004D01*
X150427*
X141119Y157633D02*
X141303Y157448D01*
X141488Y157079*
Y156526*
X141303Y156157*
X141119Y155972*
X140750Y155787*
X140011*
X139642Y155972*
X139457Y156157*
X139273Y156526*
Y157079*
X139457Y157448*
X139642Y157633*
X140934Y158740D02*
X140565Y158925D01*
X140380Y159294*
Y159663*
X140565Y160032*
X140934Y160217*
X141303Y160032*
X141488Y159663*
Y159294*
X141303Y158925*
X140934Y158740*
X140380*
X139827Y158925*
X139457Y159294*
X139273Y159663*
X141488Y162062D02*
Y162800D01*
Y162431D02*
X139273D01*
X139642Y162062*
X146606Y74252D02*
X144391D01*
Y75544*
X144576Y75913*
X144945Y76098*
X145314Y75913*
X145498Y75544*
Y74252*
Y75544D02*
X146606Y76098D01*
Y77574D02*
Y78312D01*
Y77943D02*
X144391D01*
X144760Y77574*
X146606Y80527D02*
Y81265D01*
Y80896D02*
X144391D01*
X144760Y80527*
X146606Y83110D02*
X144391Y84587D01*
Y83110*
X147159Y270091D02*
Y267876D01*
X149005*
X150112D02*
Y270091D01*
X151958*
X151589Y268984D02*
X150112D01*
Y267876D02*
X151958D01*
X153065D02*
Y270091D01*
X154172*
X154541Y269907*
X154726Y269722*
X154911Y269353*
Y268615*
X154726Y268246*
X154541Y268061*
X154172Y267876*
X153065*
X156202Y268061D02*
X156571Y267876D01*
X156941*
X157309Y268061*
X157494Y268430*
Y269537*
X157309Y269907*
X156941Y270091*
X156571*
X156202Y269907*
X156018Y269537*
Y268430*
X156202Y268061*
X157309Y269907*
X148555Y94176D02*
Y96390D01*
X147632D02*
X149478D01*
X150585Y94176D02*
X152061Y96390D01*
X150585*
X148574Y106614D02*
X146360D01*
Y107906*
X146544Y108275*
X146913Y108460*
X147282Y108275*
X147467Y107906*
Y106614*
Y107906D02*
X148574Y108460D01*
Y109936D02*
Y110674D01*
Y110305D02*
X146360D01*
X146729Y109936*
X148390Y112520D02*
X148574Y112889D01*
Y113443*
X148390Y113811*
X148020Y113996*
X147836*
X147467Y113811*
X147282Y113443*
Y112520*
X146360*
Y113996*
X148574Y115472D02*
X146360Y116949D01*
Y115472*
X152590Y226575D02*
X150376D01*
Y227867*
X150560Y228236*
X150929Y228420*
X151298Y228236*
X151483Y227867*
Y226575*
Y227867D02*
X152590Y228420D01*
Y231004D02*
Y229528D01*
X151298Y230819*
X150929Y231004*
X150560Y230819*
X150376Y230450*
Y229897*
X150560Y229528*
X151667Y233957D02*
X151298Y233772D01*
X151114Y233403*
Y233034*
X151298Y232665*
X151667Y232480*
X151852*
X152221Y232665*
X152406Y233034*
Y233403*
X152221Y233772*
X151852Y233957*
X151114D02*
X152590D01*
X152959Y233772*
X153144Y233403*
Y232850*
X152959Y232480*
X152590Y235433D02*
X151114D01*
X151667D02*
X151298Y235618D01*
X151114Y235987*
Y236356*
X151298Y236725*
X151667Y236909*
X152590*
X156844Y108979D02*
Y111193D01*
X157952*
X158321Y111009*
X158506Y110824*
X158690Y110455*
Y109717*
X158506Y109348*
X158321Y109163*
X157952Y108979*
X156844*
X159797Y109533D02*
X159982Y109902D01*
X160351Y110086*
X160720*
X161089Y109902*
X161274Y109533*
X161089Y109163*
X160720Y108979*
X160351*
X159982Y109163*
X159797Y109533*
Y110086*
X159982Y110640*
X160351Y111009*
X160720Y111193*
X161840Y195175D02*
X161655Y194990D01*
X161286Y194806*
X160732*
X160363Y194990*
X160179Y195175*
X159994Y195544*
Y196282*
X160179Y196651*
X160363Y196836*
X160732Y197020*
X161286*
X161655Y196836*
X161840Y196651*
X163500Y195913D02*
X163870D01*
X164239Y196098*
X164423Y196467*
X164239Y196836*
X163870Y197020*
X163500*
X163131Y196836*
X162947Y196467*
X163131Y196098*
X163500Y195913*
X163131Y195728*
X162947Y195359*
X163131Y194990*
X163500Y194806*
X163870*
X164239Y194990*
X164423Y195359*
X164239Y195728*
X163870Y195913*
X166084Y194990D02*
X166453Y194806D01*
X166822*
X167191Y194990*
X167376Y195359*
Y196467*
X167191Y196836*
X166822Y197020*
X166453*
X166084Y196836*
X165900Y196467*
Y195359*
X166084Y194990*
X167191Y196836*
X160821Y124434D02*
Y125320D01*
X161338*
X161485Y125246*
X161559Y125098*
X161485Y124951*
X161338Y124877*
X160821*
X161338D02*
X161559Y124434D01*
X162150D02*
X162445D01*
X162297D02*
Y125320D01*
X162150Y125172*
X163183Y124508D02*
X163331Y124434D01*
X163552*
X163700Y124508*
X163774Y124656*
Y124730*
X163700Y124877*
X163552Y124951*
X163183*
Y125320*
X163774*
X164364Y124508D02*
X164512Y124434D01*
X164733*
X164881Y124508*
X164955Y124656*
Y124730*
X164881Y124877*
X164733Y124951*
X164364*
Y125320*
X164955*
X164325Y234333D02*
Y236548D01*
X165432*
X165801Y236363*
X165986Y236179*
X166170Y235809*
Y235071*
X165986Y234702*
X165801Y234518*
X165432Y234333*
X164325*
X167462Y234518D02*
X167831Y234333D01*
X168200*
X168569Y234518*
X168754Y234887*
X168569Y235256*
X168200Y235441*
X167831*
X168200D02*
X168569Y235625D01*
X168754Y235994*
X168569Y236363*
X168200Y236548*
X167831*
X167462Y236363*
X166254Y258506D02*
Y260721D01*
X167546*
X167915Y260537*
X168100Y260167*
X167915Y259798*
X167546Y259614*
X166254*
X167546D02*
X168100Y258506D01*
X169207D02*
X170683Y260721D01*
X169207*
X172344Y258691D02*
X172713Y258506D01*
X173082*
X173451Y258691*
X173636Y259060*
X173451Y259429*
X173082Y259614*
X172713*
X173082D02*
X173451Y259798D01*
X173636Y260167*
X173451Y260537*
X173082Y260721*
X172713*
X172344Y260537*
X167472Y117601D02*
Y119815D01*
X166549D02*
X168395D01*
X170056Y117601D02*
X170425Y117785D01*
X170794Y118155*
X170978Y118708*
Y119262*
X170794Y119631*
X170425Y119815*
X170056*
X169687Y119631*
X169502Y119262*
X169687Y118893*
X170056Y118708*
X170425*
X170794Y118893*
X170978Y119262*
X167551Y103780D02*
X165336D01*
Y105071*
X165520Y105441*
X165890Y105625*
X166259Y105441*
X166443Y105071*
Y103780*
Y105071D02*
X167551Y105625D01*
X166443Y107286D02*
Y107655D01*
X166259Y108024*
X165890Y108209*
X165520Y108024*
X165336Y107655*
Y107286*
X165520Y106917*
X165890Y106732*
X166259Y106917*
X166443Y107286*
X166628Y106917*
X166997Y106732*
X167366Y106917*
X167551Y107286*
Y107655*
X167366Y108024*
X166997Y108209*
X166628Y108024*
X166443Y107655*
X167551Y110608D02*
X165336D01*
X166813Y109685*
Y111161*
X167708Y88403D02*
X165494D01*
Y87480D02*
Y89326D01*
X167524Y90433D02*
X167708Y90802D01*
Y91356*
X167524Y91725*
X167154Y91909*
X166970*
X166601Y91725*
X166416Y91356*
Y90433*
X165494*
Y91909*
X167524Y93570D02*
X167708Y93939D01*
Y94309*
X167524Y94678*
X167154Y94862*
X166047*
X165678Y94678*
X165494Y94309*
Y93939*
X165678Y93570*
X166047Y93386*
X167154*
X167524Y93570*
X165678Y94678*
X169679Y124552D02*
Y125438D01*
X170196*
X170344Y125364*
X170417Y125217*
X170344Y125069*
X170196Y124995*
X169679*
X170196D02*
X170417Y124552D01*
X171008D02*
X171303D01*
X171156D02*
Y125438D01*
X171008Y125291*
X172115Y124626D02*
X172263Y124552D01*
X172411*
X172558Y124626*
X172632Y124774*
Y125217*
X172558Y125364*
X172411Y125438*
X172263*
X172115Y125364*
X172041Y125217*
Y124774*
X172115Y124626*
X172558Y125364*
X173296Y124626D02*
X173444Y124552D01*
X173592*
X173739Y124626*
X173813Y124774*
X173739Y124921*
X173592Y124995*
X173444*
X173592D02*
X173739Y125069D01*
X173813Y125217*
X173739Y125364*
X173592Y125438*
X173444*
X173296Y125364*
X171958Y48147D02*
X171773Y47963D01*
X171404Y47778*
X170850*
X170481Y47963*
X170297Y48147*
X170112Y48516*
Y49254*
X170297Y49624*
X170481Y49808*
X170850Y49993*
X171404*
X171773Y49808*
X171958Y49624*
X173065Y47963D02*
X173434Y47778D01*
X173988*
X174357Y47963*
X174541Y48332*
Y48516*
X174357Y48885*
X173988Y49070*
X173065*
Y49993*
X174541*
X176571Y48885D02*
X176941D01*
X177309Y49070*
X177494Y49439*
X177309Y49808*
X176941Y49993*
X176571*
X176202Y49808*
X176018Y49439*
X176202Y49070*
X176571Y48885*
X176202Y48701*
X176018Y48332*
X176202Y47963*
X176571Y47778*
X176941*
X177309Y47963*
X177494Y48332*
X177309Y48701*
X176941Y48885*
X171470Y155996D02*
Y153782D01*
X173316*
X174423Y154336D02*
X174608Y154705D01*
X174977Y154889*
X175346*
X175715Y154705*
X175900Y154336*
X175715Y153967*
X175346Y153782*
X174977*
X174608Y153967*
X174423Y154336*
Y154889*
X174608Y155443*
X174977Y155812*
X175346Y155996*
X177561Y153967D02*
X177930Y153782D01*
X178299*
X178668Y153967*
X178852Y154336*
Y155443*
X178668Y155812*
X178299Y155996*
X177930*
X177561Y155812*
X177376Y155443*
Y154336*
X177561Y153967*
X178668Y155812*
X174719Y186065D02*
Y188280D01*
X176010*
X176380Y188096*
X176564Y187726*
X176380Y187357*
X176010Y187173*
X174719*
X176010D02*
X176564Y186065D01*
X177671Y186619D02*
X177856Y186988D01*
X178225Y187173*
X178594*
X178963Y186988*
X179148Y186619*
X178963Y186250*
X178594Y186065*
X178225*
X177856Y186250*
X177671Y186619*
Y187173*
X177856Y187726*
X178225Y188096*
X178594Y188280*
X180993Y186065D02*
X181731D01*
X181362D02*
Y188280D01*
X180993Y187911*
X174797Y250475D02*
Y252689D01*
X175905*
X176274Y252505*
X176458Y252320*
X176643Y251951*
Y251213*
X176458Y250844*
X176274Y250659*
X175905Y250475*
X174797*
X177750D02*
X179226Y252689D01*
X177750*
X180887Y250659D02*
X181256Y250475D01*
X181626*
X181994Y250659*
X182179Y251029*
Y252136*
X181994Y252505*
X181626Y252689*
X181256*
X180887Y252505*
X180703Y252136*
Y251029*
X180887Y250659*
X181994Y252505*
X174817Y3733D02*
Y4287D01*
X175002*
X175370Y4102*
X175555Y3917*
X175740Y3548*
Y3179*
X175555Y2810*
X175370Y2626*
X175002Y2441*
X174263*
X173894Y2626*
X173709Y2810*
X173525Y3179*
Y3548*
X173709Y3917*
X173894Y4102*
X174263Y4287*
X175740Y5394D02*
X174263D01*
X174817D02*
X174448Y5578D01*
X174263Y5947*
Y6317*
X174448Y6685*
X174817Y6870*
X175740*
X174817Y9823D02*
X174448Y9638D01*
X174263Y9269*
Y8900*
X174448Y8531*
X174817Y8346*
X175186*
X175555Y8531*
X175740Y8900*
Y9269*
X175555Y9638*
X175186Y9823*
X175740D02*
X173525D01*
X175740Y11299D02*
X173525D01*
Y12407*
X173709Y12776*
X173894Y12960*
X174263Y13145*
X175002*
X175370Y12960*
X175555Y12776*
X175740Y12407*
Y11299*
X175555Y15728D02*
X175740Y15544D01*
Y15175*
Y14806*
X175555Y14437*
X175186Y14252*
X174632*
X174448Y14437*
X174263Y14806*
Y15175*
X174448Y15544*
X174632Y15728*
X174817*
X175002Y15544*
X175186Y15175*
Y14806*
X175002Y14437*
X174817Y14252*
X174263Y17205D02*
X175740Y17943D01*
X174263Y18681*
X175740Y20896D02*
X174263D01*
X173709D02*
X174448Y24587*
X174263Y24218D01*
Y23664*
X174448Y23295*
X174817Y23110*
X175186*
X175555Y23295*
X175740Y23664*
Y24218*
X175555Y24587*
Y27539D02*
X175740Y27355D01*
Y26986*
Y26617*
X175555Y26248*
X175186Y26063*
X174632*
X174448Y26248*
X174263Y26617*
Y26986*
X174448Y27355*
X174632Y27539*
X174817*
X175002Y27355*
X175186Y26986*
Y26617*
X175002Y26248*
X174817Y26063*
X176448Y237441D02*
X174234D01*
Y238733*
X174418Y239102*
X174787Y239287*
X175156Y239102*
X175341Y238733*
Y237441*
Y238733D02*
X176448Y239287D01*
Y240394D02*
X174234Y241870D01*
Y240394*
X176264Y243531D02*
X176448Y243900D01*
Y244269*
X176264Y244638*
X175894Y244823*
X174787*
X174418Y244638*
X174234Y244269*
Y243900*
X174418Y243531*
X174787Y243346*
X175894*
X176264Y243531*
X174418Y244638*
X180659Y216750D02*
X180474Y216565D01*
X180105Y216380*
X179551*
X179182Y216565*
X178998Y216750*
X178813Y217119*
Y217857*
X178998Y218226*
X179182Y218411*
X179551Y218595*
X180105*
X180474Y218411*
X180659Y218226*
X181766Y216380D02*
X183242Y218595D01*
X181766*
X184903Y216565D02*
X185272Y216380D01*
X185641*
X186010Y216565*
X186195Y216934*
X186010Y217303*
X185641Y217488*
X185272*
X185641D02*
X186010Y217672D01*
X186195Y218041*
X186010Y218411*
X185641Y218595*
X185272*
X184903Y218411*
X180895Y205883D02*
X180710Y205699D01*
X180341Y205514*
X179787*
X179419Y205699*
X179234Y205883*
X179049Y206252*
Y206991*
X179234Y207360*
X179419Y207544*
X179787Y207729*
X180341*
X180710Y207544*
X180895Y207360*
X182002Y205514D02*
X183478Y207729D01*
X182002*
X184955Y206068D02*
X185139Y206437D01*
X185508Y206622*
X185878*
X186246Y206437*
X186431Y206068*
X186246Y205699*
X185878Y205514*
X185508*
X185139Y205699*
X184955Y206068*
Y206622*
X185139Y207175*
X185508Y207544*
X185878Y207729*
X181648Y107089D02*
Y109304D01*
X182939*
X183309Y109119*
X183493Y108750*
X183309Y108381*
X182939Y108196*
X181648*
X182939D02*
X183493Y107089D01*
X184970D02*
X185708D01*
X185339D02*
Y109304D01*
X184970Y108935*
X187922Y107089D02*
X188661D01*
X188291D02*
Y109304D01*
X187922Y108935*
X191059Y107089D02*
X191429Y107274D01*
X191798Y107643*
X191982Y108196*
Y108750*
X191798Y109119*
X191429Y109304*
X191059*
X190691Y109119*
X190506Y108750*
X190691Y108381*
X191059Y108196*
X191429*
X191798Y108381*
X191982Y108750*
X181544Y116102D02*
X180658D01*
Y116619*
X180732Y116767*
X180880Y116841*
X181028Y116767*
X181101Y116619*
Y116102*
Y116619D02*
X181544Y116841D01*
Y117431D02*
Y117726D01*
Y117579D02*
X180658D01*
X180806Y117431*
X181544Y119055D02*
Y118465D01*
X181028Y118981*
X180880Y119055*
X180732Y118981*
X180658Y118834*
Y118612*
X180732Y118465*
X181544Y120015D02*
X180658D01*
X181249Y119646*
Y120236*
X186333Y186164D02*
Y188378D01*
X187624*
X187994Y188194*
X188178Y187825*
X187994Y187456*
X187624Y187271*
X186333*
X187624D02*
X188178Y186164D01*
X189285Y186718D02*
X189470Y187087D01*
X189839Y187271*
X190208*
X190577Y187087*
X190762Y186718*
X190577Y186348*
X190208Y186164*
X189839*
X189470Y186348*
X189285Y186718*
Y187271*
X189470Y187825*
X189839Y188194*
X190208Y188378*
X192423Y186348D02*
X192792Y186164D01*
X193161*
X193530Y186348*
X193715Y186718*
Y187825*
X193530Y188194*
X193161Y188378*
X192792*
X192423Y188194*
X192238Y187825*
Y186718*
X192423Y186348*
X193530Y188194*
X186844Y61577D02*
Y63792D01*
X187952*
X188321Y63607*
X188506Y63423*
X188690Y63054*
Y62315*
X188506Y61946*
X188321Y61762*
X187952Y61577*
X186844*
X189797Y61762D02*
X190167Y61577D01*
X190720*
X191089Y61762*
X191274Y62131*
Y62315*
X191089Y62685*
X190720Y62869*
X189797*
Y63792*
X191274*
X192935Y61762D02*
X193304Y61577D01*
X193673*
X194042Y61762*
X194226Y62131*
X194042Y62500*
X193673Y62685*
X193304*
X193673D02*
X194042Y62869D01*
X194226Y63238*
X194042Y63607*
X193673Y63792*
X193304*
X192935Y63607*
X187846Y118979D02*
Y121193D01*
X186923D02*
X188769D01*
X189876Y119163D02*
X190245Y118979D01*
X190799*
X191168Y119163*
X191352Y119533*
Y119717*
X191168Y120086*
X190799Y120271*
X189876*
Y121193*
X191352*
X193198Y118979D02*
X193936D01*
X193567D02*
Y121193D01*
X193198Y120824*
X186517Y669D02*
X188732Y1592D01*
X186517Y2515*
X187440Y5098D02*
X187256Y4730D01*
Y4176*
X187440Y3807*
X187809Y3622*
X188178*
X188547Y3807*
X188732Y4176*
Y4730*
X188547Y5098*
X187440Y8051D02*
X187256Y7682D01*
Y7128*
X187440Y6759*
X187809Y6575*
X188178*
X188547Y6759*
X188732Y7128*
Y7682*
X188547Y8051*
X188732Y9528D02*
X186517D01*
Y10635*
X186702Y11004*
X186886Y11189*
X187256Y11373*
X187994*
X188363Y11189*
X188547Y11004*
X188732Y10635*
Y9528*
X188547Y13957D02*
X188732Y13772D01*
Y13403*
Y13034*
X188547Y12665*
X188178Y12480*
X187624*
X187440Y12665*
X187256Y13034*
Y13403*
X187440Y13772*
X187624Y13957*
X187809*
X187994Y13772*
X188178Y13403*
Y13034*
X187994Y12665*
X187809Y12480*
X187256Y15433D02*
X188732Y16171D01*
X187256Y16909*
X188732Y19124D02*
X187256D01*
X186702D02*
X187440Y22815*
X187256Y22446D01*
Y21892*
X187440Y21523*
X187809Y21339*
X188178*
X188547Y21523*
X188732Y21892*
Y22446*
X188547Y22815*
Y25768D02*
X188732Y25583D01*
Y25214*
Y24845*
X188547Y24476*
X188178Y24291*
X187624*
X187440Y24476*
X187256Y24845*
Y25214*
X187440Y25583*
X187624Y25768*
X187809*
X187994Y25583*
X188178Y25214*
Y24845*
X187994Y24476*
X187809Y24291*
X190095Y229326D02*
X190280Y229141D01*
X190464Y228772*
Y228219*
X190280Y227850*
X190095Y227665*
X189726Y227480*
X188988*
X188619Y227665*
X188434Y227850*
X188250Y228219*
Y228772*
X188434Y229141*
X188619Y229326*
X189357Y230987D02*
Y231356D01*
X189172Y231725*
X188803Y231909*
X188434Y231725*
X188250Y231356*
Y230987*
X188434Y230618*
X188803Y230433*
X189172Y230618*
X189357Y230987*
X189541Y230618*
X189910Y230433*
X190280Y230618*
X190464Y230987*
Y231356*
X190280Y231725*
X189910Y231909*
X189541Y231725*
X189357Y231356*
X190464Y234309D02*
X188250D01*
X189726Y233386*
Y234862*
X193060Y252104D02*
X192876Y251919D01*
X192506Y251735*
X191953*
X191584Y251919*
X191399Y252104*
X191215Y252473*
Y253211*
X191399Y253580*
X191584Y253765*
X191953Y253949*
X192506*
X192876Y253765*
X193060Y253580*
X194167Y251735D02*
X195644Y253949D01*
X194167*
X197489Y251735D02*
X198228D01*
X197858D02*
Y253949D01*
X197489Y253580*
X191648Y269493D02*
X191832Y269124D01*
X192201Y268939*
X192939*
X193309Y269124*
X193493Y269493*
X193309Y269862*
X192939Y270047*
X192201*
X191832Y270231*
X191648Y270600*
X191832Y270970*
X192201Y271154*
X192939*
X193309Y270970*
X193493Y270600*
X194600Y271154D02*
X194785Y268939D01*
X195523Y270047*
X196261Y268939*
X196446Y271154*
X199030Y268939D02*
X197553D01*
X198845Y270231*
X199030Y270600*
X198845Y270970*
X198476Y271154*
X197922*
X197553Y270970*
X193695Y112128D02*
Y114343D01*
X194987*
X195356Y114159*
X195541Y113789*
X195356Y113420*
X194987Y113236*
X193695*
X194987D02*
X195541Y112128D01*
X197017D02*
X197755D01*
X197386D02*
Y114343D01*
X197017Y113974*
X199970Y112128D02*
X200708D01*
X200339D02*
Y114343D01*
X199970Y113974*
X202553Y112313D02*
X202922Y112128D01*
X203476*
X203845Y112313*
X204030Y112682*
Y112867*
X203845Y113236*
X203476Y113420*
X202553*
Y114343*
X204030*
X197430Y233502D02*
X197246Y233317D01*
X196876Y233132*
X196323*
X195954Y233317*
X195769Y233502*
X195585Y233870*
Y234609*
X195769Y234978*
X195954Y235163*
X196323Y235347*
X196876*
X197246Y235163*
X197430Y234978*
X198537Y233132D02*
X200014Y235347D01*
X198537*
X202413Y233132D02*
Y235347D01*
X201490Y233870*
X202967*
X198808Y209033D02*
X198624Y208848D01*
X198254Y208664*
X197701*
X197332Y208848*
X197147Y209033*
X196963Y209402*
Y210140*
X197147Y210509*
X197332Y210694*
X197701Y210878*
X198254*
X198624Y210694*
X198808Y210509*
X200838Y208664D02*
Y210878D01*
X199915Y209402*
X201392*
X202868Y209218D02*
X203053Y209587D01*
X203422Y209771*
X203791*
X204160Y209587*
X204344Y209218*
X204160Y208848*
X203791Y208664*
X203422*
X203053Y208848*
X202868Y209218*
Y209771*
X203053Y210325*
X203422Y210694*
X203791Y210878*
X196040Y241373D02*
X196224Y241189D01*
X196409Y240819*
Y240266*
X196224Y239897*
X196040Y239712*
X195671Y239528*
X194933*
X194563Y239712*
X194379Y239897*
X194194Y240266*
Y240819*
X194379Y241189*
X194563Y241373*
X196409Y242480D02*
X194194Y243957D01*
Y242480*
X196409Y246909D02*
Y245433D01*
X195117Y246725*
X194748Y246909*
X194379Y246725*
X194194Y246356*
Y245802*
X194379Y245433*
X201210Y168797D02*
X201025Y168612D01*
X200656Y168428*
X200102*
X199733Y168612*
X199549Y168797*
X199364Y169166*
Y169904*
X199549Y170273*
X199733Y170458*
X200102Y170642*
X200656*
X201025Y170458*
X201210Y170273*
X202317Y168981D02*
X202502Y169350D01*
X202870Y169535*
X203240*
X203609Y169350*
X203793Y168981*
X203609Y168612*
X203240Y168428*
X202870*
X202502Y168612*
X202317Y168981*
Y169535*
X202502Y170089*
X202870Y170458*
X203240Y170642*
X205823Y168428D02*
X206193Y168612D01*
X206561Y168981*
X206746Y169535*
Y170089*
X206561Y170458*
X206193Y170642*
X205823*
X205454Y170458*
X205270Y170089*
X205454Y169720*
X205823Y169535*
X206193*
X206561Y169720*
X206746Y170089*
X199876Y67640D02*
Y69855D01*
X200983*
X201352Y69670*
X201537Y69486*
X201722Y69117*
Y68378*
X201537Y68009*
X201352Y67825*
X200983Y67640*
X199876*
X202829Y67825D02*
X203198Y67640D01*
X203752*
X204120Y67825*
X204305Y68194*
Y68378*
X204120Y68748*
X203752Y68932*
X202829*
Y69855*
X204305*
X206151Y67640D02*
X206889D01*
X206520D02*
Y69855D01*
X206151Y69486*
X199386Y5468D02*
X199571Y5283D01*
X199756Y4914*
Y4360*
X199571Y3991*
X199386Y3807*
X199017Y3622*
X198279*
X197910Y3807*
X197725Y3991*
X197541Y4360*
Y4914*
X197725Y5283*
X197910Y5468*
X198833Y8051D02*
X198463Y7867D01*
X198279Y7498*
Y7128*
X198463Y6759*
X198833Y6575*
X199202*
X199571Y6759*
X199756Y7128*
Y7498*
X199571Y7867*
X199202Y8051*
X198279D02*
X200309D01*
X199940Y8420*
X199756Y9528D02*
X197541D01*
Y10635*
X197725Y11004*
X197910Y11189*
X198279Y11373*
X199017*
X199386Y11189*
X199571Y11004*
X199756Y10635*
Y9528*
X199571Y13957D02*
X199756Y13772D01*
Y13403*
Y13034*
X199571Y12665*
X199202Y12480*
X198648*
X198463Y12665*
X198279Y13034*
Y13403*
X198463Y13772*
X198648Y13957*
X198833*
X199017Y13772*
X199202Y13403*
Y13034*
X199017Y12665*
X198833Y12480*
X198279Y15433D02*
X199756Y16171D01*
X198279Y16909*
X199756Y19124D02*
X198279D01*
X197725D02*
X198463Y22815*
X198279Y22446D01*
Y21892*
X198463Y21523*
X198833Y21339*
X199202*
X199571Y21523*
X199756Y21892*
Y22446*
X199571Y22815*
Y25768D02*
X199756Y25583D01*
Y25214*
Y24845*
X199571Y24476*
X199202Y24291*
X198648*
X198463Y24476*
X198279Y24845*
Y25214*
X198463Y25583*
X198648Y25768*
X198833*
X199017Y25583*
X199202Y25214*
Y24845*
X199017Y24476*
X198833Y24291*
X199583Y52121D02*
X199768Y51937D01*
X199952Y51567*
Y51014*
X199768Y50645*
X199583Y50460*
X199214Y50276*
X198476*
X198107Y50460*
X197922Y50645*
X197738Y51014*
Y51567*
X197922Y51937*
X198107Y52121*
X199768Y53228D02*
X199952Y53598D01*
Y54151*
X199768Y54520*
X199398Y54705*
X199214*
X198845Y54520*
X198660Y54151*
Y53228*
X197738*
Y54705*
X199398Y56181D02*
X199030Y56366D01*
X198845Y56735*
Y57104*
X199030Y57473*
X199398Y57657*
X199768Y57473*
X199952Y57104*
Y56735*
X199768Y56366*
X199398Y56181*
X198845*
X198291Y56366*
X197922Y56735*
X197738Y57104*
X202548Y188797D02*
X202364Y188612D01*
X201994Y188428*
X201441*
X201072Y188612*
X200887Y188797*
X200703Y189166*
Y189904*
X200887Y190273*
X201072Y190458*
X201441Y190642*
X201994*
X202364Y190458*
X202548Y190273*
X203656Y188981D02*
X203840Y189350D01*
X204209Y189535*
X204578*
X204947Y189350*
X205132Y188981*
X204947Y188612*
X204578Y188428*
X204209*
X203840Y188612*
X203656Y188981*
Y189535*
X203840Y190089*
X204209Y190458*
X204578Y190642*
X207162Y189535D02*
X207531D01*
X207900Y189720*
X208085Y190089*
X207900Y190458*
X207531Y190642*
X207162*
X206793Y190458*
X206608Y190089*
X206793Y189720*
X207162Y189535*
X206793Y189350*
X206608Y188981*
X206793Y188612*
X207162Y188428*
X207531*
X207900Y188612*
X208085Y188981*
X207900Y189350*
X207531Y189535*
X203693Y147638D02*
X201478D01*
Y148745*
X201662Y149114*
X201847Y149299*
X202216Y149483*
X202954*
X203323Y149299*
X203508Y149114*
X203693Y148745*
Y147638*
X203139Y150591D02*
X202770Y150775D01*
X202585Y151144*
Y151513*
X202770Y151882*
X203139Y152067*
X203508Y151882*
X203693Y151513*
Y151144*
X203508Y150775*
X203139Y150591*
X202585*
X202031Y150775*
X201662Y151144*
X201478Y151513*
X203508Y153728D02*
X203693Y154097D01*
Y154466*
X203508Y154835*
X203139Y155020*
X202031*
X201662Y154835*
X201478Y154466*
Y154097*
X201662Y153728*
X202031Y153543*
X203139*
X203508Y153728*
X201662Y154835*
X209438Y236435D02*
X209254Y236250D01*
X208884Y236065*
X208331*
X207962Y236250*
X207777Y236435*
X207593Y236804*
Y237542*
X207777Y237911*
X207962Y238096*
X208331Y238280*
X208884*
X209254Y238096*
X209438Y237911*
X210545Y236065D02*
X212022Y238280D01*
X210545*
X213683Y236250D02*
X214052Y236065D01*
X214421*
X214790Y236250*
X214974Y236619*
Y237726*
X214790Y238096*
X214421Y238280*
X214052*
X213683Y238096*
X213498Y237726*
Y236619*
X213683Y236250*
X214790Y238096*
X209089Y229372D02*
Y231587D01*
X210380*
X210750Y231403*
X210934Y231033*
X210750Y230665*
X210380Y230480*
X209089*
X210380D02*
X210934Y229372D01*
X212041D02*
X213518Y231587D01*
X212041*
X215363Y229372D02*
X216102D01*
X215732D02*
Y231587D01*
X215363Y231218*
X209859Y51767D02*
X210043Y51582D01*
X210228Y51213*
Y50659*
X210043Y50291*
X209859Y50106*
X209490Y49921*
X208752*
X208382Y50106*
X208198Y50291*
X208013Y50659*
Y51213*
X208198Y51582*
X208382Y51767*
X210043Y52874D02*
X210228Y53243D01*
Y53797*
X210043Y54166*
X209674Y54350*
X209490*
X209120Y54166*
X208936Y53797*
Y52874*
X208013*
Y54350*
X210228Y55827D02*
X208013Y57303D01*
Y55827*
X210897Y4331D02*
X208683D01*
Y5438*
X208867Y5807*
X209052Y5992*
X209421Y6176*
X210159*
X210528Y5992*
X210713Y5807*
X210897Y5438*
Y4331*
Y8022D02*
X209421D01*
X208867D02*
X210897Y10236*
X208683D01*
Y11344*
X208867Y11713*
X209052Y11897*
X209421Y12082*
X210159*
X210528Y11897*
X210713Y11713*
X210897Y11344*
Y10236*
X210713Y14665D02*
X210897Y14481D01*
Y14112*
Y13743*
X210713Y13374*
X210343Y13189*
X209790*
X209605Y13374*
X209421Y13743*
Y14112*
X209605Y14481*
X209790Y14665*
X209974*
X210159Y14481*
X210343Y14112*
Y13743*
X210159Y13374*
X209974Y13189*
X209421Y16142D02*
X210897Y16880D01*
X209421Y17618*
X210897Y19833D02*
X209421D01*
X208867D02*
X209605Y23524*
X209421Y23155D01*
Y22601*
X209605Y22232*
X209974Y22047*
X210343*
X210713Y22232*
X210897Y22601*
Y23155*
X210713Y23524*
Y26476D02*
X210897Y26292D01*
Y25923*
Y25554*
X210713Y25185*
X210343Y25000*
X209790*
X209605Y25185*
X209421Y25554*
Y25923*
X209605Y26292*
X209790Y26476*
X209974*
X210159Y26292*
X210343Y25923*
Y25554*
X210159Y25185*
X209974Y25000*
X212930Y163263D02*
X213114Y163078D01*
X213299Y162709*
Y162156*
X213114Y161787*
X212930Y161602*
X212561Y161417*
X211822*
X211453Y161602*
X211269Y161787*
X211084Y162156*
Y162709*
X211269Y163078*
X211453Y163263*
X212745Y164370D02*
X212376Y164555D01*
X212191Y164924*
Y165293*
X212376Y165662*
X212745Y165846*
X213114Y165662*
X213299Y165293*
Y164924*
X213114Y164555*
X212745Y164370*
X212191*
X211638Y164555*
X211269Y164924*
X211084Y165293*
X213114Y167507D02*
X213299Y167876D01*
Y168246*
X213114Y168615*
X212745Y168799*
X212376Y168615*
X212191Y168246*
Y167876*
Y168246D02*
X212007Y168615D01*
X211638Y168799*
X211269Y168615*
X211084Y168246*
Y167876*
X211269Y167507*
X217669Y49134D02*
X215454D01*
Y50426*
X215639Y50795*
X216008Y50980*
X216377Y50795*
X216561Y50426*
Y49134*
Y50426D02*
X217669Y50980D01*
X217484Y52087D02*
X217669Y52456D01*
Y53009*
X217484Y53378*
X217115Y53563*
X216931*
X216561Y53378*
X216377Y53009*
Y52087*
X215454*
Y53563*
X217115Y55039D02*
X216746Y55224D01*
X216561Y55593*
Y55962*
X216746Y56331*
X217115Y56516*
X217484Y56331*
X217669Y55962*
Y55593*
X217484Y55224*
X217115Y55039*
X216561*
X216008Y55224*
X215639Y55593*
X215454Y55962*
D02*
D12*
X144679Y128228D02*
X197179D01*
Y183228*
X144679*
Y128228*
D02*
D13*
X17455Y93917D02*
X27455D01*
Y103917*
X17455*
Y93917*
Y103839D02*
X27455D01*
Y113839*
X17455*
Y103839*
Y113799D02*
X27455D01*
Y123799*
X17455*
Y113799*
Y123740D02*
X27455D01*
Y133740*
X17455*
Y123740*
Y133681D02*
X27455D01*
Y143681*
X17455*
Y133681*
X21844Y29134D02*
Y39134D01*
X6844*
Y29134*
X21844*
X23183Y26654D02*
X33183D01*
Y41654*
X23183*
Y26654*
X46982Y29134D02*
Y39134D01*
X31982*
Y29134*
X46982*
X58222Y40197D02*
Y30197D01*
X73222*
Y40197*
X58222*
X122533Y125591D02*
X132533D01*
Y135591*
X122533*
Y125591*
X122553Y145571D02*
Y135571D01*
X132553*
Y145571*
X122553*
X130703Y135492D02*
Y125492D01*
X140703*
Y135492*
X130703*
X130722Y145531D02*
Y135531D01*
X140722*
Y145531*
X130722*
X166766Y40118D02*
Y30118D01*
X181766*
Y40118*
X166766*
X183439Y27539D02*
X193439D01*
Y42539*
X183439*
Y27539*
X193183D02*
X203183D01*
Y42539*
X193183*
Y27539*
X203341Y40039D02*
Y30039D01*
X218341*
Y40039*
X203341*
D02*
D14*
X41025Y82906D02*
Y84156D01*
Y83531D02*
X37275D01*
Y82906D02*
Y84156D01*
X40400Y90094D02*
X40713Y89781D01*
X41025Y89156*
Y88219*
X40713Y87594*
X40400Y87281*
X39775Y86969*
X38525*
X37900Y87281*
X37587Y87594*
X37275Y88219*
Y89156*
X37587Y89781*
X37900Y90094*
X41025Y92594D02*
Y93844D01*
Y93219D02*
X37275D01*
X37900Y92594*
X40713Y97281D02*
X41025Y97906D01*
Y98531*
X40713Y99156*
X40087Y99469*
X38213*
X37587Y99156*
X37275Y98531*
Y97906*
X37587Y97281*
X38213Y96969*
X40087*
X40713Y97281*
X37587Y99156*
X45006Y134481D02*
X46256D01*
X45631D02*
Y138231D01*
X45006D02*
X46256D01*
X52194Y135106D02*
X51881Y134793D01*
X51256Y134481*
X50319*
X49694Y134793*
X49381Y135106*
X49069Y135731*
Y136981*
X49381Y137606*
X49694Y137919*
X50319Y138231*
X51256*
X51881Y137919*
X52194Y137606*
X54381Y134793D02*
X55006Y134481D01*
X55631*
X56256Y134793*
X56569Y135419*
X56256Y136043*
X55631Y136356*
X55006*
X55631D02*
X56256Y136669D01*
X56569Y137293*
X56256Y137919*
X55631Y138231*
X55006*
X54381Y137919*
X45006Y138196D02*
X46256D01*
X45631D02*
Y134446D01*
X45006D02*
X46256D01*
X52194Y137571D02*
X51881Y137884D01*
X51256Y138196*
X50319*
X49694Y137884*
X49381Y137571*
X49069Y136946*
Y135696*
X49381Y135071*
X49694Y134759*
X50319Y134446*
X51256*
X51881Y134759*
X52194Y135071*
X54381Y137884D02*
X55006Y138196D01*
X55631*
X56256Y137884*
X56569Y137259*
X56256Y136634*
X55631Y136321*
X55006*
X55631D02*
X56256Y136009D01*
X56569Y135384*
X56256Y134759*
X55631Y134446*
X55006*
X54381Y134759*
X158328Y52992D02*
X154578D01*
Y55180*
X154891Y55805*
X155516Y56117*
X156141Y55805*
X156453Y55180*
Y52992*
Y55180D02*
X158328Y56117D01*
X154578Y57992D02*
X158328D01*
Y61117*
Y62992D02*
X154578Y64555D01*
X158328Y66117*
X156766Y63617D02*
Y65492D01*
X158328Y70492D02*
Y67992D01*
X156141Y70180*
X155516Y70492*
X154891Y70180*
X154578Y69555*
Y68617*
X154891Y67992*
X180395Y81496D02*
X176645D01*
Y83683*
X176957Y84309*
X177583Y84621*
X178207Y84309*
X178520Y83683*
Y81496*
Y83683D02*
X180395Y84621D01*
X176645Y86496D02*
X180395D01*
Y89621*
Y91496D02*
X176645Y93059D01*
X180395Y94621*
X178833Y92121D02*
Y93996D01*
X180083Y96809D02*
X180395Y97433D01*
Y98059*
X180083Y98683*
X179457Y98996*
X178833Y98683*
X178520Y98059*
Y97433*
Y98059D02*
X178207Y98683D01*
X177583Y98996*
X176957Y98683*
X176645Y98059*
Y97433*
X176957Y96809*
X200238Y85669D02*
X196488D01*
Y87857*
X196800Y88482*
X197425Y88794*
X198050Y88482*
X198363Y87857*
Y85669*
Y87857D02*
X200238Y88794D01*
X196488Y90669D02*
X200238D01*
Y93794*
Y95669D02*
X196488Y97232D01*
X200238Y98794*
X198675Y96294D02*
Y98169D01*
X200238Y101294D02*
Y102544D01*
Y101919D02*
X196488D01*
X197113Y101294*
X211010Y247000D02*
X212260D01*
X211635D02*
Y250750D01*
X211010D02*
X212260D01*
X218198Y247626D02*
X217885Y247313D01*
X217260Y247000*
X216323*
X215698Y247313*
X215385Y247626*
X215073Y248250*
Y249500*
X215385Y250126*
X215698Y250438*
X216323Y250750*
X217260*
X217885Y250438*
X218198Y250126*
X220073Y247000D02*
X222573Y250750D01*
X220073*
X225385Y247313D02*
X226010Y247000D01*
X226635*
X227260Y247313*
X227573Y247938*
Y249813*
X227260Y250438*
X226635Y250750*
X226010*
X225385Y250438*
X225073Y249813*
Y247938*
X225385Y247313*
X227260Y250438*
X212506Y218733D02*
X213756D01*
X213131D02*
Y222483D01*
X212506D02*
X213756D01*
X219694Y219358D02*
X219381Y219045D01*
X218756Y218733*
X217819*
X217194Y219045*
X216881Y219358*
X216569Y219983*
Y221233*
X216881Y221858*
X217194Y222170*
X217819Y222483*
X218756*
X219381Y222170*
X219694Y221858*
X223131Y218733D02*
Y222483D01*
X221569Y219983*
X224069*
X226881Y219045D02*
X227506Y218733D01*
X228131*
X228756Y219045*
X229069Y219670*
Y221545*
X228756Y222170*
X228131Y222483*
X227506*
X226881Y222170*
X226569Y221545*
Y219670*
X226881Y219045*
X228756Y222170*
D02*
D15*
X53498Y298543D02*
X23970D01*
D02*
D16*
X59069Y140984D02*
Y133484D01*
X56569Y130984*
X44069*
Y140984*
X59069*
X210171Y242165D02*
X200722D01*
Y247283*
X202691*
Y249646*
X200722*
Y254764*
X210171*
Y242165*
X0Y0D02*
M02*
