G04 EasyPC Gerber Version 21.0.3 Build 4286 *
G04 #@! TF.Part,Single*
G04 #@! TF.FileFunction,Copper,L3,Inr *
G04 #@! TF.FilePolarity,Positive *
%FSLAX35Y35*%
%MOIN*%
G04 #@! TA.AperFunction,ComponentPad*
%ADD17R,0.05118X0.11811*%
%ADD70R,0.05906X0.09843*%
%ADD16R,0.06000X0.09055*%
%ADD19R,0.09843X0.11811*%
%ADD22R,0.01969X0.01969*%
%ADD25R,0.07480X0.07480*%
G04 #@! TD.AperFunction*
%ADD11C,0.00394*%
%ADD13C,0.00500*%
%ADD12C,0.00787*%
%ADD29C,0.01000*%
%ADD118C,0.01500*%
%ADD74C,0.01575*%
G04 #@! TA.AperFunction,ComponentPad*
%ADD23C,0.01969*%
%ADD28C,0.02000*%
G04 #@! TA.AperFunction,WasherPad*
%ADD14C,0.02165*%
G04 #@! TD.AperFunction*
%ADD10C,0.02500*%
G04 #@! TA.AperFunction,ViaPad*
%ADD122C,0.02756*%
%ADD119C,0.03150*%
G04 #@! TD.AperFunction*
%ADD120C,0.03543*%
G04 #@! TA.AperFunction,ViaPad*
%ADD121C,0.03937*%
G04 #@! TD.AperFunction*
%ADD73C,0.04331*%
G04 #@! TA.AperFunction,ViaPad*
%ADD112C,0.04800*%
G04 #@! TD.AperFunction*
%ADD72C,0.05000*%
G04 #@! TA.AperFunction,ComponentPad*
%ADD24C,0.05709*%
%ADD26C,0.06299*%
%ADD27C,0.07087*%
G04 #@! TD.AperFunction*
%ADD116C,0.07874*%
G04 #@! TA.AperFunction,ViaPad*
%ADD113C,0.11811*%
G04 #@! TA.AperFunction,WasherPad*
%ADD15C,0.12992*%
G04 #@! TA.AperFunction,ComponentPad*
%ADD71R,0.11811X0.09843*%
%ADD21R,0.15748X0.09843*%
%ADD20R,0.11811X0.11811*%
%ADD18R,0.15748X0.11811*%
X0Y0D02*
D02*
D10*
X19679Y254094D02*
Y267008D01*
X27238*
Y269213*
X54561*
Y257008*
X39837*
Y259685*
X28498*
Y254094*
X19679*
G36*
Y267008*
X27238*
Y269213*
X54561*
Y257008*
X39837*
Y259685*
X28498*
Y254094*
X19679*
G37*
X167435Y64843D02*
X167829D01*
X167947Y64724*
X190467Y182992D02*
X184482D01*
Y172598*
X190703*
X190467Y182992*
G36*
X184482*
Y172598*
X190703*
X190467Y182992*
G37*
X198341Y149134D02*
X188419Y139213D01*
Y131339*
X178813*
X178341Y131811*
Y143307*
X182986Y147953*
Y150630*
X181569Y152047*
Y152520*
X181648Y182992*
X198341*
Y149134*
G36*
X188419Y139213*
Y131339*
X178813*
X178341Y131811*
Y143307*
X182986Y147953*
Y150630*
X181569Y152047*
Y152520*
X181648Y182992*
X198341*
Y149134*
G37*
D02*
D11*
X22750Y260157D02*
Y253071D01*
X22041Y252362*
X10860*
X6766Y248268*
Y241969*
X10624Y238110*
X12120*
Y214252*
X8734Y210866*
X1805*
Y260157*
X22750*
G36*
Y253071*
X22041Y252362*
X10860*
X6766Y248268*
Y241969*
X10624Y238110*
X12120*
Y214252*
X8734Y210866*
X1805*
Y260157*
X22750*
G37*
X124965Y117953D02*
X123146D01*
Y106388*
X133180Y96354*
G75*
G02X133045Y97087I1932J733*
G01*
G75*
G02X137179I2067*
G01*
G75*
G02X134380Y95154I-2067*
G01*
X143311Y86222*
X148882*
X150736Y88077*
G75*
G02X151565Y88539I1226J-1226*
G01*
G75*
G02X151896Y90966I1815J989*
G01*
Y95842*
X131033Y116705*
X128866*
G75*
G02X124965Y117953I-1864J893*
G01*
X130841Y101417D02*
G75*
G02X134974I2067D01*
G01*
G75*
G02X130841I-2067*
G01*
X146320D02*
G36*
X134974D01*
G75*
G02X130841I-2067*
G01*
X128116*
X133180Y96354*
G75*
G02X133045Y97087I1933J733*
G01*
G75*
G02X137179I2067*
G01*
Y97086*
G75*
G02X134380Y95154I-2067*
G01*
X143114Y86419*
X149079*
X150736Y88077*
G75*
G02X151565Y88539I1228J-1230*
G01*
G75*
G02X151313Y89528I1815J989*
G01*
G75*
G02X151699Y90730I2067*
G01*
Y96039*
X146320Y101417*
G37*
G36*
X131033Y116705*
X128866*
G75*
G02X124935Y117598I-1864J893*
G01*
G75*
G02X124941Y117756I2068J2*
G01*
X123343*
Y106191*
X128116Y101417*
X130841*
G75*
G02X134974I2067*
G01*
X146320*
G37*
X145348Y173622D02*
X155663D01*
Y167480*
X145348*
Y173622*
G36*
X155663*
Y167480*
X145348*
Y173622*
G37*
D02*
D12*
X140703Y67402D02*
X141096Y67795D01*
X147632*
X153144Y73307*
X156687*
X173813Y90433*
Y106102*
X161805Y84961D02*
X163459D01*
X165663Y87165*
Y88898*
X161648Y92913*
Y98898*
X159285Y101260*
X156372*
X154797Y102835*
Y104882*
X158419Y108504*
Y161890*
X161963Y165433*
Y199134*
X166293Y203465*
X167081Y91024D02*
Y90787D01*
X167553Y90315*
Y86614*
X163065Y82126*
X159600*
X157081Y84646*
X152829*
X150703Y82520*
X141726*
X120388Y103858*
X168970Y67244D02*
Y63780D01*
X168026Y62835*
X164561*
X163380Y64016*
Y67244*
X164167Y68031*
X168183*
X168970Y67244*
G36*
Y63780*
X168026Y62835*
X164561*
X163380Y64016*
Y67244*
X164167Y68031*
X168183*
X168970Y67244*
G37*
D02*
D13*
X25451Y93352D02*
X20115D01*
X20735Y92732*
X21333*
G75*
G02X22599Y92207J-1787*
G01*
X25451Y89355*
Y93352*
G36*
X20115*
X20735Y92732*
X21333*
G75*
G02X22599Y92207J-1787*
G01*
X25451Y89355*
Y93352*
G37*
X33017Y229213D02*
X13354D01*
Y214252*
G75*
G02X12993Y213379I-1234*
G01*
X10638Y211024*
Y208341*
X12514*
G75*
G02X16051Y204803J-3537*
G01*
G75*
G02X15996Y204180I-3539J-1*
G01*
X16838Y203338*
G75*
G02X17980Y201457I-978J-1881*
G01*
G75*
G02X13979Y200479I-2120*
G01*
X13137Y201321*
G75*
G02X12514Y201266I-622J3483*
G01*
X10638*
Y88517*
X28844Y70311*
G75*
G02X28837Y70472I1780J163*
G01*
Y80913*
X20592Y89157*
X19997*
G75*
G02X18730Y89681I-3J1787*
G01*
X16368Y92043*
G75*
G02X15844Y93307I1264J1264*
G01*
G75*
G02Y93308I635J0*
G01*
G75*
G02Y93310I641J1*
G01*
Y123898*
G75*
G02X16370Y125164I1787*
G01*
X17783Y126577*
G75*
G02X18417Y126987I1266J-1262*
G01*
Y144246*
X23969*
Y144252*
G75*
G02X24420Y145341I1538*
G01*
X40226Y161146*
G75*
G02X38505Y163174I398J2082*
G01*
X37861Y163817*
X35670*
X35412Y163559*
G75*
G02X34321Y163108I-1087J1087*
G01*
X28498*
G75*
G02X27409Y163560J1538*
G01*
X25759Y165211*
G75*
G02X25307Y166299I1086J1089*
G01*
Y220866*
G75*
G02X25759Y221955I1538*
G01*
X33017Y229213*
X13740Y180000D02*
G75*
G02X17980I2120D01*
G01*
G75*
G02X13740I-2120*
G01*
Y189252D02*
G75*
G02X17980I2120D01*
G01*
G75*
G02X13740I-2120*
G01*
X28594Y70561D02*
G36*
X28837D01*
Y80913*
X20592Y89157*
X19997*
G75*
G02X18730Y89681I-4J1786*
G01*
X16368Y92043*
G75*
G02X15844Y93307I1265J1265*
G01*
Y93308*
Y93310*
Y123898*
G75*
G02X16370Y125164I1788*
G01*
X17783Y126577*
G75*
G02X18417Y126987I1267J-1264*
G01*
Y144246*
X23969*
Y144252*
Y144252*
G75*
G02X24420Y145341I1537*
G01*
X39976Y160896*
Y161210*
G75*
G02X38505Y163174I648J2019*
G01*
X37861Y163817*
X35670*
X35412Y163559*
G75*
G02X34321Y163108I-1088J1089*
G01*
X28498*
G75*
G02X27409Y163560I0J1537*
G01*
X25759Y165211*
G75*
G02X25307Y166299I1085J1088*
G01*
Y166299*
Y180000*
X17980*
G75*
G02X13740I-2120*
G01*
X10888*
Y88267*
X28594Y70561*
G37*
X25307Y189252D02*
G36*
X17980D01*
G75*
G02X13740I-2120*
G01*
X10888*
Y180000*
X13740*
G75*
G02X17980I2120*
G01*
X25307*
Y189252*
G37*
X32767Y228963D02*
G36*
X13354D01*
Y214252*
G75*
G02X12993Y213379I-1236J1*
G01*
X10888Y211274*
Y208341*
X12514*
G75*
G02X16051Y204803J-3537*
G01*
G75*
G02Y204802I-3222J0*
G01*
G75*
G02X15996Y204180I-3541*
G01*
X16838Y203338*
G75*
G02X17980Y201457I-978J-1881*
G01*
G75*
G02X13979Y200479I-2120*
G01*
X13137Y201321*
G75*
G02X12514Y201266I-622J3485*
G01*
X10888*
Y189252*
X13740*
G75*
G02X17980I2120*
G01*
X25307*
Y220866*
Y220867*
G75*
G02X25759Y221955I1537*
G01*
X32767Y228963*
G37*
X42933Y206670D02*
G75*
G02X42445Y206341I-1089J1086D01*
G01*
X44325*
G75*
G02X45413Y205889J-1538*
G01*
X47245Y204057*
X52593*
G75*
G02X53681Y203606J-1538*
G01*
X54962Y202325*
X110017*
G75*
G02X109886Y204365I1788J1140*
G01*
G75*
G02X109005Y208187I344J2092*
G01*
X44450*
X42933Y206670*
G36*
G75*
G02X42445Y206341I-1089J1086*
G01*
X44325*
G75*
G02X45413Y205889J-1538*
G01*
X47245Y204057*
X52593*
G75*
G02X53681Y203606J-1538*
G01*
X54962Y202325*
X110017*
G75*
G02X109886Y204365I1788J1140*
G01*
G75*
G02X109005Y208187I344J2092*
G01*
X44450*
X42933Y206670*
G37*
X50823Y149600D02*
Y145133D01*
G75*
G02X54687Y144750I1848J-1038*
G01*
X57335Y142102*
X64357*
G75*
G02X63732Y145476I913J1913*
G01*
Y149606*
G75*
G02X64184Y150695I1538*
G01*
X65180Y151691*
X52915*
X50823Y149600*
G36*
Y145133*
G75*
G02X54687Y144750I1848J-1038*
G01*
X57335Y142102*
X64357*
G75*
G02X63732Y145476I913J1913*
G01*
Y149606*
G75*
G02X64184Y150695I1538*
G01*
X65180Y151691*
X52915*
X50823Y149600*
G37*
X56811Y30984D02*
Y42140D01*
X73103*
X72343Y42900*
X44246*
G75*
G02X40725Y44360J4974*
G01*
X2149Y82936*
G75*
G02X2029Y83060I3516J3514*
G01*
X2081Y30984*
X5433*
Y40093*
X23256*
Y30984*
X32539*
Y40093*
X46425*
Y30984*
X56811*
G36*
Y42140*
X73103*
X72343Y42900*
X44246*
G75*
G02X40725Y44360J4974*
G01*
X2149Y82936*
G75*
G02X2029Y83060I3516J3514*
G01*
X2081Y30984*
X5433*
Y40093*
X23256*
Y30984*
X32539*
Y40093*
X46425*
Y30984*
X56811*
G37*
X66177Y83694D02*
Y66342D01*
G75*
G02X66463Y63800I-1537J-1460*
G01*
X68885Y66222*
G75*
G02X70152Y66748I1266J-1262*
G01*
X85288*
G75*
G02X83974Y69988I455J2071*
G01*
X77727Y76234*
G75*
G02X77276Y77323I1086J1089*
G01*
Y82112*
G75*
G02X71281Y84409I-2557J2297*
G01*
G75*
G02X77276Y86707I3437*
G01*
Y88182*
X74420Y91037*
G75*
G02X74067Y91584I1086J1088*
G01*
X66177Y83694*
G36*
Y66342*
G75*
G02X66463Y63800I-1537J-1460*
G01*
X68885Y66222*
G75*
G02X70152Y66748I1266J-1262*
G01*
X85288*
G75*
G02X83974Y69988I455J2071*
G01*
X77727Y76234*
G75*
G02X77276Y77323I1086J1089*
G01*
Y82112*
G75*
G02X71281Y84409I-2557J2297*
G01*
G75*
G02X77276Y86707I3437*
G01*
Y88182*
X74420Y91037*
G75*
G02X74067Y91584I1086J1088*
G01*
X66177Y83694*
G37*
X89260Y134438D02*
Y133209D01*
G75*
G02X91606Y133685I1522J-1476*
G01*
Y134882*
G75*
G02X91753Y135537I1537J0*
G01*
X90359*
X89260Y134438*
G36*
Y133209*
G75*
G02X91606Y133685I1522J-1476*
G01*
Y134882*
G75*
G02X91753Y135537I1537J0*
G01*
X90359*
X89260Y134438*
G37*
X91741Y129842D02*
G75*
G02X91160Y129646I-961J1889D01*
G01*
X91737Y129069*
G75*
G02X92331Y127638I-1428J-1431*
G01*
Y123760*
G75*
G02X94955Y124094I1522J-1476*
G01*
G75*
G02X97115Y124121I1102J-1811*
G01*
G75*
G02X99308Y124074I1057J-1837*
G01*
G75*
G02X100938Y124230I1001J-1869*
G01*
G75*
G02X101611Y127596I1556J1440*
G01*
X94482*
G75*
G02X93394Y128048J1538*
G01*
X92058Y129384*
G75*
G02X91741Y129842I1087J1089*
G01*
G36*
G75*
G02X91160Y129646I-961J1889*
G01*
X91737Y129069*
G75*
G02X92331Y127638I-1428J-1431*
G01*
Y123760*
G75*
G02X94955Y124094I1522J-1476*
G01*
G75*
G02X97115Y124121I1102J-1811*
G01*
G75*
G02X99308Y124074I1057J-1837*
G01*
G75*
G02X100938Y124230I1001J-1869*
G01*
G75*
G02X101611Y127596I1556J1440*
G01*
X94482*
G75*
G02X93394Y128048J1538*
G01*
X92058Y129384*
G75*
G02X91741Y129842I1087J1089*
G01*
G37*
X93278Y106157D02*
Y104034D01*
X110642Y86669*
X111656*
G75*
G02X111537Y87898I1960J811*
G01*
X93278Y106157*
G36*
Y104034*
X110642Y86669*
X111656*
G75*
G02X111537Y87898I1960J811*
G01*
X93278Y106157*
G37*
X94840Y188148D02*
G75*
G02X94463Y187863I-1460J1538D01*
G01*
X96434Y185892*
G75*
G02X96886Y184803I-1086J-1089*
G01*
Y175197*
G75*
G02X96434Y174108I-1538*
G01*
X91768Y169442*
Y165322*
G75*
G02X95421Y163858I1533J-1464*
G01*
G75*
G02X91768Y162394I-2120*
G01*
Y159000*
G75*
G02X95185Y157323I1297J-1677*
G01*
G75*
G02X91768Y155646I-2120*
G01*
G75*
G02X91316Y154581I-1537J23*
G01*
X86988Y150253*
G75*
G02X85900Y149801I-1089J1086*
G01*
X67639*
X66807Y148970*
Y145476*
G75*
G02X66183Y142102I-1537J-1460*
G01*
X77708*
G75*
G02X79086Y141533I2J-1945*
G01*
X82852Y137766*
Y139023*
X79833Y142043*
G75*
G02X79309Y143307I1264J1264*
G01*
G75*
G02Y143308I635J0*
G01*
G75*
G02Y143310I641J1*
G01*
Y144372*
G75*
G02X78976Y145512I1787J1140*
G01*
G75*
G02X83217I2120*
G01*
G75*
G02X82884Y144372I-2120*
G01*
Y144048*
X85904Y141028*
G75*
G02X86427Y139764I-1264J-1264*
G01*
G75*
G02Y139763I-635J0*
G01*
G75*
G02Y139761I-641J-1*
G01*
Y137324*
X88090Y138987*
G75*
G02X89522Y139581I1431J-1428*
G01*
X90968*
X95357Y143970*
G75*
G02X98142Y144910I1881J-978*
G01*
Y146142*
G75*
G02X98593Y147230I1538*
G01*
X101055Y149692*
Y160315*
G75*
G02X101507Y161404I1538*
G01*
X104961Y164858*
G75*
G02X108142Y166639I2119J-55*
G01*
Y170072*
X107491Y170722*
G75*
G02X107039Y171811I1086J1089*
G01*
Y182198*
X101090Y188148*
X94840*
G36*
G75*
G02X94463Y187863I-1460J1538*
G01*
X96434Y185892*
G75*
G02X96886Y184803I-1086J-1089*
G01*
Y175197*
G75*
G02X96434Y174108I-1538*
G01*
X91768Y169442*
Y165322*
G75*
G02X95421Y163858I1533J-1464*
G01*
G75*
G02X91768Y162394I-2120*
G01*
Y159000*
G75*
G02X95185Y157323I1297J-1677*
G01*
G75*
G02X91768Y155646I-2120*
G01*
G75*
G02X91316Y154581I-1537J23*
G01*
X86988Y150253*
G75*
G02X85900Y149801I-1089J1086*
G01*
X67639*
X66807Y148970*
Y145476*
G75*
G02X66183Y142102I-1537J-1460*
G01*
X77708*
G75*
G02X79086Y141533I2J-1945*
G01*
X82852Y137766*
Y139023*
X79833Y142043*
G75*
G02X79309Y143307I1264J1264*
G01*
G75*
G02Y143308I635J0*
G01*
G75*
G02Y143310I641J1*
G01*
Y144372*
G75*
G02X78976Y145512I1787J1140*
G01*
G75*
G02X83217I2120*
G01*
G75*
G02X82884Y144372I-2120*
G01*
Y144048*
X85904Y141028*
G75*
G02X86427Y139764I-1264J-1264*
G01*
G75*
G02Y139763I-635J0*
G01*
G75*
G02Y139761I-641J-1*
G01*
Y137324*
X88090Y138987*
G75*
G02X89522Y139581I1431J-1428*
G01*
X90968*
X95357Y143970*
G75*
G02X98142Y144910I1881J-978*
G01*
Y146142*
G75*
G02X98593Y147230I1538*
G01*
X101055Y149692*
Y160315*
G75*
G02X101507Y161404I1538*
G01*
X104961Y164858*
G75*
G02X108142Y166639I2119J-55*
G01*
Y170072*
X107491Y170722*
G75*
G02X107039Y171811I1086J1089*
G01*
Y182198*
X101090Y188148*
X94840*
G37*
X101217Y145505D02*
Y144333D01*
G75*
G02X104555Y142598I1219J-1735*
G01*
G75*
G02X101135Y140924I-2120*
G01*
G75*
G02X100765Y140329I-1456J493*
G01*
X94681Y134245*
Y133503*
G75*
G02X97331Y133585I1376J-1613*
G01*
X104481*
G75*
G02X105674Y133095I2J-1695*
G01*
X112209Y126639*
G75*
G02X112713Y125433I-1191J-1206*
G01*
Y108733*
X114205Y107241*
Y130072*
X107491Y136785*
G75*
G02X107039Y137874I1086J1089*
G01*
Y146378*
G75*
G02X107278Y147201I1537*
G01*
G75*
G02X104488Y149213I-670J2011*
G01*
G75*
G02X108142Y150676I2120*
G01*
Y162968*
G75*
G02X107135Y162684I-1061J1836*
G01*
X104130Y159678*
Y149055*
G75*
G02X103678Y147967I-1538*
G01*
X101217Y145505*
G36*
Y144333*
G75*
G02X104555Y142598I1219J-1735*
G01*
G75*
G02X101135Y140924I-2120*
G01*
G75*
G02X100765Y140329I-1456J493*
G01*
X94681Y134245*
Y133503*
G75*
G02X97331Y133585I1376J-1613*
G01*
X104481*
G75*
G02X105674Y133095I2J-1695*
G01*
X112209Y126639*
G75*
G02X112713Y125433I-1191J-1206*
G01*
Y108733*
X114205Y107241*
Y130072*
X107491Y136785*
G75*
G02X107039Y137874I1086J1089*
G01*
Y146378*
G75*
G02X107278Y147201I1537*
G01*
G75*
G02X104488Y149213I-670J2011*
G01*
G75*
G02X108142Y150676I2120*
G01*
Y162968*
G75*
G02X107135Y162684I-1061J1836*
G01*
X104130Y159678*
Y149055*
G75*
G02X103678Y147967I-1538*
G01*
X101217Y145505*
G37*
X103216Y191455D02*
X94547D01*
G75*
G02X94840Y191222I-1167J-1770*
G01*
X101726*
G75*
G02X102815Y190771J-1538*
G01*
X109663Y183923*
G75*
G02X110114Y182835I-1086J-1089*
G01*
Y172448*
X110425Y172137*
Y184245*
X103216Y191455*
G36*
X94547*
G75*
G02X94840Y191222I-1167J-1770*
G01*
X101726*
G75*
G02X102815Y190771J-1538*
G01*
X109663Y183923*
G75*
G02X110114Y182835I-1086J-1089*
G01*
Y172448*
X110425Y172137*
Y184245*
X103216Y191455*
G37*
X103656Y257480D02*
Y234812D01*
X105232Y236389*
G75*
G02X104094Y238268I982J1879*
G01*
G75*
G02X107674Y239805I2120*
G01*
X112350*
X120087Y247543*
G75*
G02X121175Y247994I1089J-1086*
G01*
X146471*
G75*
G02X145630Y249685I1279J1691*
G01*
G75*
G02X149870I2120*
G01*
G75*
G02X149809Y249179I-2120J0*
G01*
G75*
G02X150172Y249207I344J-2094*
G01*
G75*
G02X150939Y249411I767J-1332*
G01*
X153065*
G75*
G02X154154Y248960J-1538*
G01*
X155356Y247758*
X157868*
G75*
G02X158957Y247306J-1538*
G01*
X159979Y246284*
G75*
G02X160073Y246457I1905J-928*
G01*
G75*
G02X159055Y248268I1102J1811*
G01*
G75*
G02Y248274I2128J3*
G01*
G75*
G02X156929Y250394I-6J2120*
G01*
G75*
G02Y250400I2128J3*
G01*
G75*
G02X154803Y252520I-6J2120*
G01*
G75*
G02X159043I2120*
G01*
G75*
G02Y252514I-2128J-3*
G01*
G75*
G02X161169Y250394I6J-2120*
G01*
G75*
G02Y250388I-2128J-3*
G01*
G75*
G02X162986Y247165I6J-2120*
G01*
G75*
G02X163051Y243585I-1102J-1811*
G01*
X188498*
G75*
G02X189587Y243133J-1538*
G01*
X189607Y243112*
X204089*
G75*
G02X205177Y242661J-1538*
G01*
X211552Y236285*
G75*
G02X212004Y235197I-1086J-1089*
G01*
Y224173*
G75*
G02X211552Y223085I-1538*
G01*
X206980Y218513*
G75*
G02X205767Y214463I-765J-1977*
G01*
G75*
G02X205815Y214016I-2072J-447*
G01*
G75*
G02X201575I-2120*
G01*
G75*
G02X202528Y215785I2120*
G01*
X201891*
X200138Y214032*
G75*
G02X199049Y213581I-1089J1086*
G01*
X197832*
G75*
G02X194252Y215118I-1460J1537*
G01*
G75*
G02X197832Y216656I2120*
G01*
X198413*
X200165Y218409*
G75*
G02X200623Y218725I1088J-1087*
G01*
G75*
G02X200526Y218948I1893J961*
G01*
X198042Y221431*
G75*
G02X197591Y222520I1086J1089*
G01*
Y227897*
G75*
G02X194331Y229685I-1140J1788*
G01*
G75*
G02X197591Y231473I2120*
G01*
Y232198*
X191798Y237990*
X187793*
G75*
G02X186702Y238441I-4J1537*
G01*
X186444Y238699*
X182148*
G75*
G02X178770Y236258I-1918J-904*
G01*
X152750*
G75*
G02X151661Y236709J1538*
G01*
X148019Y240352*
X125828*
X120059Y234583*
G75*
G02X118970Y234132I-1089J1086*
G01*
X107324*
X104051Y230859*
Y229764*
G75*
G02X103600Y228675I-1538*
G01*
X102500Y227576*
G75*
G02X101411Y227124I-1089J1086*
G01*
X97564*
X100395Y224293*
X108470*
G75*
G02X108268Y225197I1918J904*
G01*
G75*
G02X112508I2120*
G01*
G75*
G02X112306Y224293I-2120J0*
G01*
X132278*
G75*
G02X133366Y223842J-1538*
G01*
X139371Y217837*
X146057*
G75*
G02X146989Y217522J-1537*
G01*
X148534*
G75*
G02X152114Y215984I1460J-1537*
G01*
G75*
G02X148534Y214447I-2120*
G01*
X146372*
G75*
G02X145440Y214762J1537*
G01*
X144048*
G75*
G02X144555Y213386I-1613J-1376*
G01*
G75*
G02X140315I-2120*
G01*
G75*
G02X140822Y214762I2120*
G01*
X138734*
G75*
G02X137646Y215213J1538*
G01*
X131641Y221219*
X99758*
G75*
G02X98669Y221670J1538*
G01*
X94948Y225392*
X36458*
X30508Y219442*
Y218522*
G75*
G02X34240Y217146I1612J-1377*
G01*
G75*
G02X30508Y215769I-2120*
G01*
Y213294*
G75*
G02X34194Y213033I1770J-1168*
G01*
X38845*
X39380Y213567*
G75*
G02X40470Y214018I1087J-1087*
G01*
X85857*
G75*
G02X89052Y211262I1460J-1537*
G01*
X118104*
G75*
G02X119193Y210810J-1538*
G01*
X121320Y208683*
X146441*
G75*
G02X149752Y206929I1191J-1754*
G01*
G75*
G02X145974Y205608I-2120*
G01*
X120683*
G75*
G02X119594Y206060J1538*
G01*
X117468Y208187*
X111456*
G75*
G02X112150Y205556I-1226J-1730*
G01*
G75*
G02X113593Y202325I-344J-2092*
G01*
X115352*
G75*
G02X114094Y204261I863J1937*
G01*
G75*
G02X118335I2120*
G01*
G75*
G02X117077Y202325I-2120*
G01*
X136530*
G75*
G02X137618Y201873J-1538*
G01*
X141237Y198254*
G75*
G02X141352Y198126I-1087J-1089*
G01*
G75*
G02X139085Y194545I-1200J-1748*
G01*
G75*
G02X135039Y195433I-1925J888*
G01*
G75*
G02X137646Y197496I2120*
G01*
X135893Y199250*
X107646*
G75*
G02X108728Y197402I-1038J-1848*
G01*
G75*
G02X104488I-2120*
G01*
G75*
G02X105570Y199250I2120*
G01*
X54325*
G75*
G02X53236Y199702J1538*
G01*
X51956Y200982*
X50648*
G75*
G02X50933Y199921I-1835J-1061*
G01*
G75*
G02X46693I-2120*
G01*
G75*
G02X46978Y200982I2120*
G01*
X46608*
G75*
G02X45520Y201434J1538*
G01*
X43688Y203266*
X38777*
G75*
G02X35241Y205235I-1460J1537*
G01*
G75*
G02X32244Y207165I-877J1931*
G01*
G75*
G02X34078Y209267I2120*
G01*
G75*
G02X34364Y209293I285J-1510*
G01*
X41208*
X42724Y210810*
G75*
G02X42876Y210943I1089J-1088*
G01*
X41104*
X40569Y210409*
G75*
G02X39479Y209959I-1087J1087*
G01*
X32907*
G75*
G02X32491Y210016I0J1538*
G01*
G75*
G02X30508Y210958I-213J2110*
G01*
Y168939*
X30739*
G75*
G02X34173Y166628I1460J-1537*
G01*
G75*
G02X35037Y166892I861J-1274*
G01*
X38498*
G75*
G02X39587Y166440J-1538*
G01*
X40679Y165348*
G75*
G02X42706Y163627I-55J-2119*
G01*
X57656Y178576*
G75*
G02X58744Y179028I1089J-1086*
G01*
X61595*
G75*
G02X65175Y177490I1460J-1537*
G01*
G75*
G02X61595Y175953I-2120*
G01*
X59381*
X27043Y143615*
Y139429*
G75*
G02X26592Y138341I-1538*
G01*
X26492Y138241*
Y123175*
X19437*
X19419Y123157*
Y114404*
X26492*
Y107552*
X27226Y106817*
X28753Y105330*
G75*
G02X29341Y103937I-1357J-1393*
G01*
Y89309*
X34361Y84289*
G75*
G02X34931Y82913I-1375J-1375*
G01*
Y72380*
X44422Y62890*
X58933*
G75*
G02X59996Y63205I1061J-1630*
G01*
X63343*
G75*
G02X63102Y66342I1297J1677*
G01*
Y84331*
G75*
G02X63554Y85419I1538*
G01*
X71921Y93787*
Y94511*
G75*
G02X68661Y96299I-1140J1788*
G01*
G75*
G02X71921Y98087I2120*
G01*
Y121473*
G75*
G02X70542Y121031I-1297J1677*
G01*
G75*
G02X70697Y120236I-1965J-795*
G01*
G75*
G02X66457I-2120*
G01*
G75*
G02X68659Y122355I2120*
G01*
G75*
G02X71134Y125207I1965J795*
G01*
Y133973*
G75*
G02X70836Y136494I1537J1460*
G01*
X66901*
G75*
G02X68335Y134488I-686J-2006*
G01*
G75*
G02X64094I-2120*
G01*
G75*
G02X65528Y136494I2120*
G01*
X55270*
G75*
G02X54181Y136946J1538*
G01*
X53842Y137285*
G75*
G02X49685Y137874I-2037J589*
G01*
G75*
G02X51216Y139911I2120*
G01*
X48200Y142927*
G75*
G02X47748Y144016I1086J1089*
G01*
Y150236*
G75*
G02X48200Y151325I1538*
G01*
X51189Y154314*
G75*
G02X52278Y154766I1089J-1086*
G01*
X75814*
X77748Y156700*
Y174646*
G75*
G02X78200Y175734I1538*
G01*
X84992Y182527*
Y182871*
G75*
G02X84409Y184331I1537J1460*
G01*
G75*
G02X88650I2120*
G01*
G75*
G02X88067Y182871I-2120*
G01*
Y181890*
G75*
G02X87615Y180801I-1538*
G01*
X80823Y174009*
Y156063*
G75*
G02X80371Y154974I-1538*
G01*
X78273Y152876*
X85263*
X87043Y154656*
G75*
G02X85512Y156693I589J2037*
G01*
G75*
G02X88693Y158528I2120*
G01*
Y170079*
G75*
G02X89144Y171167I1538*
G01*
X93811Y175834*
Y184167*
X92428Y185549*
X92041*
G75*
G02X90953Y186001J1538*
G01*
X89853Y187100*
G75*
G02X89402Y188189I1086J1089*
G01*
Y191969*
G75*
G02X89853Y193057I1538*
G01*
X90874Y194078*
G75*
G02X91963Y194530I1089J-1086*
G01*
X103852*
G75*
G02X104941Y194078J-1538*
G01*
X113048Y185970*
G75*
G02X113500Y184882I-1086J-1089*
G01*
Y150672*
G75*
G02X111197Y147235I-1537J-1460*
G01*
G75*
G02X110765Y146392I-1518J244*
G01*
X110114Y145741*
Y138511*
X116789Y131836*
Y132677*
G75*
G02X117315Y133943I1787*
G01*
X122507Y139136*
G75*
G02X123774Y139661I1266J-1262*
G01*
X125531*
Y142593*
X129575*
Y139452*
G75*
G02X129998Y139138I-841J-1577*
G01*
X134093Y135043*
G75*
G02X134616Y133780I-1264J-1264*
G01*
G75*
G02Y133779I-635J0*
G01*
G75*
G02Y133776I-641J-1*
G01*
Y132514*
X136973*
X131869Y137619*
G75*
G02X131370Y138819I1196J1200*
G01*
Y141887*
G75*
G02Y141889I635J1*
G01*
G75*
G02Y141890I635J0*
G01*
G75*
G02X131867Y143088I1695*
G01*
X132257Y143480*
G75*
G02X129665Y146457I414J2977*
G01*
G75*
G02X134677Y148695I3006*
G01*
Y172595*
G75*
G02Y172598I635J1*
G01*
G75*
G02X135174Y173797I1695J1*
G01*
X141945Y180569*
G75*
G02X143147Y181065I1198J-1198*
G01*
X154370*
G75*
G02X156409Y181461I1372J-1616*
G01*
Y199055*
G75*
G02X156861Y200144I1538*
G01*
X159480Y202763*
Y206142*
G75*
G02X159932Y207230I1538*
G01*
X161497Y208795*
G75*
G02X165736Y208740I2119J-55*
G01*
G75*
G02X163671Y206621I-2120*
G01*
X162555Y205505*
Y202126*
G75*
G02X162491Y201686I-1538J0*
G01*
X164884Y204079*
G75*
G02X165206Y204552I1409J-615*
G01*
X166016Y205361*
Y205469*
G75*
G02X165433Y206929I1537J1460*
G01*
G75*
G02X169673I2120*
G01*
G75*
G02X169091Y205469I-2120*
G01*
Y204724*
G75*
G02X168639Y203636I-1538*
G01*
X167380Y202378*
G75*
G02X166908Y202056I-1087J1087*
G01*
X163394Y198541*
Y196091*
X165607*
G75*
G02X168735Y197683I2104J-264*
G01*
G75*
G02X169144Y198411I1495J-360*
G01*
X171449Y200716*
Y210466*
X169357Y212557*
X168026*
G75*
G02X166937Y213009J1538*
G01*
X165735Y214211*
X164919*
G75*
G02X161339Y215748I-1460J1537*
G01*
G75*
G02X164919Y217285I2120*
G01*
X166372*
G75*
G02X167461Y216834J-1538*
G01*
X168663Y215632*
X169994*
G75*
G02X171083Y215180J-1538*
G01*
X174072Y212191*
G75*
G02X174524Y211102I-1086J-1089*
G01*
Y200079*
G75*
G02X174072Y198990I-1538*
G01*
X172710Y197629*
G75*
G02X174710Y195610I-118J-2117*
G01*
X175515Y194837*
G75*
G02X175512Y194961I2117J122*
G01*
G75*
G02X179752I2120*
G01*
G75*
G02X176098Y193497I-2120*
G01*
Y169360*
G75*
G02X179398Y167598I1179J-1762*
G01*
G75*
G02X176098Y165837I-2120*
G01*
Y162133*
X176828Y161404*
G75*
G02X177280Y160315I-1086J-1089*
G01*
Y152089*
X179443Y154252*
Y185748*
X190388*
X217317Y212677*
Y241654*
X215457Y243513*
G75*
G02X211260Y243937I-2077J424*
G01*
G75*
G02X211445Y244803I2120*
G01*
X168419*
X155742Y257480*
X139207*
G75*
G02X139280Y256929I-2047J-551*
G01*
G75*
G02X135039I-2120*
G01*
G75*
G02X135112Y257480I2120J0*
G01*
X114482*
G75*
G02X115815Y255512I-787J-1969*
G01*
G75*
G02X111575I-2120*
G01*
G75*
G02X112907Y257480I2120*
G01*
X103656*
X127983Y253742D02*
G75*
G02X131563Y252205I1460J-1537D01*
G01*
G75*
G02X127983Y250667I-2120*
G01*
X122285*
X118491Y246874*
G75*
G02X114252Y246929I-2119J55*
G01*
G75*
G02X116317Y249048I2120*
G01*
X120559Y253291*
G75*
G02X121648Y253742I1089J-1086*
G01*
X127983*
X106614Y254803D02*
G75*
G02X110854I2120D01*
G01*
G75*
G02X106614I-2120*
G01*
X210866Y221339D02*
G75*
G02X215106I2120D01*
G01*
G75*
G02X210866I-2120*
G01*
X153622Y226850D02*
G75*
G02X157862I2120D01*
G01*
G75*
G02X153622I-2120*
G01*
X159055Y227165D02*
G75*
G02X163295I2120D01*
G01*
G75*
G02X159055I-2120*
G01*
X169291Y226535D02*
G75*
G02X173531I2120D01*
G01*
G75*
G02X169291I-2120*
G01*
X180901Y227771D02*
G75*
G02X184161Y225984I1141J-1787D01*
G01*
G75*
G02X179954Y225615I-2120*
G01*
G75*
G02X176693Y227402I-1141J1787*
G01*
G75*
G02X180901Y227771I2120*
G01*
X134606Y228322D02*
G75*
G02X136445Y226220I-281J-2101D01*
G01*
G75*
G02X132205I-2120*
G01*
G75*
G02X132232Y226560I2121J-1*
G01*
G75*
G02X132256Y230766I281J2101*
G01*
G75*
G02X132126Y231496I1990J731*
G01*
G75*
G02X136366I2120*
G01*
G75*
G02X134504Y229392I-2120*
G01*
G75*
G02X134634Y228661I-1990J-731*
G01*
G75*
G02X134606Y228322I-2121J1*
G01*
X136929Y221969D02*
G75*
G02X141169I2120D01*
G01*
G75*
G02X136929I-2120*
G01*
X141260Y231181D02*
G75*
G02X145500I2120D01*
G01*
G75*
G02X141260I-2120*
G01*
X146063Y225118D02*
G75*
G02X150303I2120D01*
G01*
G75*
G02X147549Y223095I-2120*
G01*
G75*
G02X147783Y222126I-1885J-969*
G01*
G75*
G02X143543I-2120*
G01*
G75*
G02X146297Y224149I2120*
G01*
G75*
G02X146063Y225118I1885J969*
G01*
X151594Y196299D02*
G75*
G02X155835I2120D01*
G01*
G75*
G02X151594I-2120*
G01*
X127087Y218740D02*
G75*
G02X131327I2120D01*
G01*
G75*
G02X127087I-2120*
G01*
X124876Y176693D02*
G75*
G02X127789Y173780I1102J-1811D01*
G01*
G75*
G02X127748Y171510I-1811J-1102*
G01*
G75*
G02Y169435I-1849J-1038*
G01*
G75*
G02X124876Y166457I-1770J-1167*
G01*
G75*
G02X122671I-1102J1811*
G01*
G75*
G02X119758Y169370I-1102J1811*
G01*
G75*
G02Y171575I1811J1102*
G01*
G75*
G02X121655Y174796I1811J1102*
G01*
G75*
G02X121654Y174882I2115J82*
G01*
G75*
G02X124876Y176693I2120*
G01*
X127087Y180945D02*
G75*
G02X131327I2120D01*
G01*
G75*
G02X127087I-2120*
G01*
X133386Y186535D02*
G75*
G02X137626I2120D01*
G01*
G75*
G02X134891Y184506I-2120*
G01*
G75*
G02X134949Y184016I-2062J-490*
G01*
G75*
G02X130709I-2120*
G01*
G75*
G02X133443Y186045I2120*
G01*
G75*
G02X133386Y186535I2062J490*
G01*
X44488Y186693D02*
G75*
G02X48728I2120D01*
G01*
G75*
G02X44488I-2120*
G01*
X30787Y172126D02*
G75*
G02X35028I2120D01*
G01*
G75*
G02X30787I-2120*
G01*
X31260Y179803D02*
G75*
G02X35500I2120D01*
G01*
G75*
G02X31260I-2120*
G01*
Y198898D02*
G75*
G02X35500I2120D01*
G01*
G75*
G02X31260I-2120*
G01*
X31850Y184724D02*
G75*
G02X36091I2120D01*
G01*
G75*
G02X31850I-2120*
G01*
X32126Y194488D02*
G75*
G02X36366I2120D01*
G01*
G75*
G02X32126I-2120*
G01*
X34094Y142677D02*
G75*
G02X38335I2120D01*
G01*
G75*
G02X34094I-2120*
G01*
X37559Y83307D02*
G75*
G02X41799I2120D01*
G01*
G75*
G02X37559I-2120*
G01*
X39213Y143858D02*
G75*
G02X43453I2120D01*
G01*
G75*
G02X39213I-2120*
G01*
X46122Y66299D02*
G75*
G02X52134I3006D01*
G01*
G75*
G02X46122I-3006*
G01*
X56929Y169370D02*
G75*
G02X61169I2120D01*
G01*
G75*
G02X56929I-2120*
G01*
X58976Y87953D02*
G75*
G02X63217I2120D01*
G01*
G75*
G02X58976I-2120*
G01*
X62756Y115591D02*
G75*
G02X66996I2120D01*
G01*
G75*
G02X62756I-2120*
G01*
X52205Y127874D02*
G75*
G02X56445I2120D01*
G01*
G75*
G02X52205I-2120*
G01*
X52894Y66063D02*
G75*
G02X58906I3006D01*
G01*
G75*
G02X52894I-3006*
G01*
X53780Y115433D02*
G75*
G02X58020I2120D01*
G01*
G75*
G02X53780I-2120*
G01*
X52903Y66299D02*
G36*
X52134D01*
G75*
G02X46122I-3006*
G01*
X41012*
X44172Y63140*
X55200*
G75*
G02X52894Y66063I700J2923*
G01*
G75*
G02X52903Y66299I3006J-2*
G01*
G37*
X63063D02*
G36*
X58896D01*
G75*
G02X58906Y66063I-2997J-238*
G01*
G75*
G02X56600Y63140I-3006*
G01*
X59495*
G75*
G02X59996Y63205I498J-1876*
G01*
X63343*
G75*
G02X62520Y64882I1297J1677*
G01*
G75*
G02X63063Y66299I2120*
G01*
G37*
X63102Y83307D02*
G36*
X41799D01*
G75*
G02X37559I-2120*
G01*
X34891*
G75*
G02X34931Y82913I-1905J-393*
G01*
Y72380*
X41012Y66299*
X46122*
G75*
G02X52134I3006*
G01*
X52903*
G75*
G02X58896I2996J-236*
G01*
X63063*
G75*
G02X63102Y66342I1577J-1421*
G01*
Y83307*
G37*
X66087Y87953D02*
G36*
X63217D01*
G75*
G02X58976I-2120*
G01*
X30697*
X34361Y84289*
G75*
G02X34891Y83307I-1376J-1376*
G01*
X37559*
G75*
G02X41799I2120*
G01*
X63102*
Y84331*
Y84331*
G75*
G02X63554Y85419I1537*
G01*
X66087Y87953*
G37*
X71921Y115591D02*
G36*
X66996D01*
G75*
G02X62756I-2120*
G01*
X58014*
G75*
G02X58020Y115433I-2115J-158*
G01*
G75*
G02X53780I-2120*
G01*
G75*
G02X53785Y115591I2120J-1*
G01*
X19669*
Y114404*
X26492*
Y107552*
X27226Y106817*
X28753Y105330*
G75*
G02X29341Y103937I-1359J-1394*
G01*
Y89309*
X30697Y87953*
X58976*
G75*
G02X63217I2120*
G01*
X66087*
X71921Y93787*
Y94511*
G75*
G02X68661Y96299I-1140J1788*
G01*
G75*
G02X71921Y98087I2120*
G01*
Y115591*
G37*
X71134Y127874D02*
G36*
X56445D01*
G75*
G02X52205I-2120*
G01*
X26492*
Y123175*
X19669*
Y115591*
X53785*
G75*
G02X58014I2114J-157*
G01*
X62756*
G75*
G02X66996I2120*
G01*
X71921*
Y121473*
G75*
G02X70542Y121031I-1298J1680*
G01*
G75*
G02X70697Y120237I-1963J-794*
G01*
Y120236*
G75*
G02X66457I-2120*
G01*
Y120237*
G75*
G02X68659Y122355I2120*
G01*
G75*
G02X68504Y123150I1966J795*
G01*
G75*
G02X71134Y125207I2120*
G01*
Y127874*
G37*
G36*
Y133973*
G75*
G02X70551Y135433I1537J1460*
G01*
G75*
G02X70836Y136494I2119*
G01*
X66901*
G75*
G02X68335Y134488I-687J-2006*
G01*
G75*
G02X64094I-2120*
G01*
G75*
G02X65528Y136494I2120J0*
G01*
X55270*
G75*
G02X54181Y136946I0J1537*
G01*
X53842Y137285*
G75*
G02X49685Y137874I-2037J589*
G01*
G75*
G02X51216Y139911I2120J0*
G01*
X48450Y142677*
X43093*
G75*
G02X39572I-1761J1181*
G01*
X38335*
G75*
G02X34094I-2120*
G01*
X27043*
Y139429*
Y139429*
G75*
G02X26592Y138341I-1537*
G01*
X26492Y138241*
Y127874*
X52205*
G75*
G02X56445I2120*
G01*
X71134*
G37*
X131564Y142677D02*
G36*
X110114D01*
Y138511*
X116789Y131836*
Y132677*
G75*
G02X117315Y133943I1788*
G01*
X122507Y139136*
G75*
G02X123774Y139661I1266J-1262*
G01*
X125531*
Y142593*
X129575*
Y139452*
G75*
G02X129998Y139138I-847J-1585*
G01*
X134093Y135043*
G75*
G02X134616Y133780I-1265J-1265*
G01*
Y133779*
Y133776*
Y132514*
X136973*
X131869Y137619*
G75*
G02X131370Y138819I1195J1200*
G01*
Y138819*
Y141887*
Y141889*
Y141890*
G75*
G02X131564Y142677I1697J-1*
G01*
G37*
X48450D02*
G36*
X48200Y142927D01*
G75*
G02X47748Y144015I1085J1088*
G01*
Y144016*
Y150236*
Y150237*
G75*
G02X48200Y151325I1537*
G01*
X51189Y154314*
G75*
G02X52278Y154766I1088J-1085*
G01*
X75814*
X77748Y156700*
Y169370*
X61169*
G75*
G02X56929I-2120*
G01*
X52798*
X27043Y143615*
Y142677*
X34094*
G75*
G02X38335I2120*
G01*
X39572*
G75*
G02X39213Y143858I1761J1181*
G01*
G75*
G02X43453I2120*
G01*
G75*
G02X43093Y142677I-2120*
G01*
X48450*
G37*
X31411Y169370D02*
G36*
X30508D01*
Y168939*
X30739*
G75*
G02X31411Y169370I1460J-1537*
G01*
G37*
X48450D02*
G36*
X32986D01*
G75*
G02X34319Y167402I-787J-1969*
G01*
G75*
G02X34173Y166628I-2120*
G01*
G75*
G02X35037Y166892I861J-1276*
G01*
X38498*
G75*
G02X39587Y166440I0J-1537*
G01*
X40679Y165348*
G75*
G02X42706Y163627I-55J-2119*
G01*
X48450Y169370*
G37*
X88693D02*
G36*
X80823D01*
Y156063*
Y156063*
G75*
G02X80371Y154974I-1537*
G01*
X78273Y152876*
X85263*
X87043Y154656*
G75*
G02X85512Y156693I589J2037*
G01*
G75*
G02X88693Y158528I2120J0*
G01*
Y169370*
G37*
X131564Y142677D02*
G36*
G75*
G02X131867Y143088I1503J-789D01*
G01*
X132257Y143480*
G75*
G02X129665Y146457I414J2978*
G01*
G75*
G02X134677Y148695I3006*
G01*
Y169370*
X127789*
G75*
G02X128098Y168268I-1811J-1102*
G01*
G75*
G02X124876Y166457I-2120*
G01*
G75*
G02X122671I-1102J1811*
G01*
G75*
G02X119449Y168268I-1102J1811*
G01*
G75*
G02X119758Y169370I2120*
G01*
X113500*
Y150672*
G75*
G02X114083Y149213I-1537J-1460*
G01*
G75*
G02X111197Y147235I-2120*
G01*
G75*
G02X110765Y146392I-1517J244*
G01*
X110114Y145741*
Y142677*
X131564*
G37*
X176113Y169370D02*
G36*
X176098D01*
Y169360*
G75*
G02X176113Y169370I1180J-1777*
G01*
G37*
X179443D02*
G36*
X178442D01*
G75*
G02X179398Y167598I-1165J-1772*
G01*
G75*
G02X176098Y165837I-2120*
G01*
Y162133*
X176828Y161404*
G75*
G02X177280Y160315I-1085J-1088*
G01*
Y160315*
Y152089*
X179443Y154252*
Y169370*
G37*
X50654Y171575D02*
G36*
X34955D01*
G75*
G02X30860I-2047J551*
G01*
X30508*
Y169370*
X31411*
G75*
G02X32986I787J-1969*
G01*
X48450*
X50654Y171575*
G37*
X89552D02*
G36*
X80823D01*
Y169370*
X88693*
Y170079*
Y170079*
G75*
G02X89144Y171167I1537*
G01*
X89552Y171575*
G37*
X77748D02*
G36*
X55003D01*
X52798Y169370*
X56929*
G75*
G02X61169I2120*
G01*
X77748*
Y171575*
G37*
X119758Y169370D02*
G36*
G75*
G02X119449Y170472I1811J1102D01*
G01*
G75*
G02X119758Y171575I2120*
G01*
X113500*
Y169370*
X119758*
G37*
X134677Y171575D02*
G36*
X127789D01*
G75*
G02X127748Y171510I-1812J1104*
G01*
G75*
G02X128020Y170472I-1850J-1038*
G01*
G75*
G02X127748Y169435I-2121*
G01*
G75*
G02X127789Y169370I-1770J-1168*
G01*
X134677*
Y171575*
G37*
X179443D02*
G36*
X176098D01*
Y169370*
X176113*
G75*
G02X178442I1165J-1772*
G01*
X179443*
Y171575*
G37*
X83410Y180945D02*
G36*
X35166D01*
G75*
G02X35500Y179803I-1786J-1142*
G01*
G75*
G02X31260I-2120*
G01*
G75*
G02X31594Y180945I2120J0*
G01*
X30508*
Y171575*
X30860*
G75*
G02X30787Y172126I2047J551*
G01*
G75*
G02X35028I2120*
G01*
G75*
G02X34955Y171575I-2120J0*
G01*
X50654*
X57656Y178576*
G75*
G02X58744Y179028I1088J-1085*
G01*
X61595*
G75*
G02X65175Y177490I1460J-1537*
G01*
G75*
G02X61595Y175953I-2120*
G01*
X59381*
X55003Y171575*
X77748*
Y174646*
Y174646*
G75*
G02X78200Y175734I1537*
G01*
X83410Y180945*
G37*
X93811D02*
G36*
X87743D01*
G75*
G02X87615Y180801I-1213J945*
G01*
X80823Y174009*
Y171575*
X89552*
X93811Y175834*
Y180945*
G37*
X142517D02*
G36*
X131327D01*
G75*
G02X127087I-2120*
G01*
X113500*
Y171575*
X119758*
G75*
G02X119449Y172677I1811J1102*
G01*
G75*
G02X121655Y174796I2120*
G01*
G75*
G02X121654Y174881I2339J86*
G01*
Y174882*
Y174882*
G75*
G02X124876Y176693I2120*
G01*
G75*
G02X128098Y174882I1102J-1811*
G01*
G75*
G02X127789Y173780I-2120*
G01*
G75*
G02X128098Y172677I-1812J-1102*
G01*
G75*
G02X127789Y171575I-2121*
G01*
X134677*
Y172595*
Y172598*
Y172598*
G75*
G02X135174Y173797I1697J-1*
G01*
X141945Y180569*
G75*
G02X142517Y180945I1198J-1197*
G01*
G37*
X179443D02*
G36*
X176098D01*
Y171575*
X179443*
Y180945*
G37*
X84631Y185276D02*
G36*
X48185D01*
G75*
G02X45031I-1577J1417*
G01*
X36018*
G75*
G02X36091Y184724I-2047J-551*
G01*
G75*
G02X31850I-2120*
G01*
G75*
G02X31923Y185276I2120J0*
G01*
X30508*
Y180945*
X31594*
G75*
G02X35166I1786J-1142*
G01*
X83410*
X84992Y182527*
Y182871*
G75*
G02X84409Y184331I1539J1461*
G01*
G75*
G02X84631Y185276I2120J0*
G01*
G37*
X93811Y180945D02*
G36*
Y184167D01*
X92702Y185276*
X88428*
G75*
G02X88650Y184331I-1898J-944*
G01*
G75*
G02X88067Y182871I-2122J1*
G01*
Y181890*
Y181889*
G75*
G02X87743Y180945I-1537*
G01*
X93811*
G37*
X156409Y185276D02*
G36*
X137211D01*
G75*
G02X134891Y184506I-1705J1260*
G01*
G75*
G02X134949Y184016I-2088J-493*
G01*
G75*
G02X130709I-2120*
G01*
Y184016*
G75*
G02X131123Y185276I2120J0*
G01*
X113449*
G75*
G02X113500Y184882I-1486J-393*
G01*
Y184882*
Y180945*
X127087*
G75*
G02X131327I2120*
G01*
X142517*
G75*
G02X143147Y181065I626J-1573*
G01*
X154370*
G75*
G02X156409Y181461I1372J-1616*
G01*
Y185276*
G37*
X179443D02*
G36*
X176098D01*
Y180945*
X179443*
Y185276*
G37*
X156409D02*
G36*
Y196299D01*
X155835*
G75*
G02X151594I-2120*
G01*
X142271*
G75*
G02X139085Y194545I-2119J79*
G01*
G75*
G02X135039Y195433I-1925J888*
G01*
G75*
G02X135224Y196299I2120*
G01*
X108419*
G75*
G02X104797I-1811J1102*
G01*
X35348*
G75*
G02X36366Y194488I-1102J-1811*
G01*
G75*
G02X32126I-2120*
G01*
G75*
G02X33144Y196299I2120*
G01*
X30508*
Y185276*
X31923*
G75*
G02X36018I2047J-551*
G01*
X45031*
G75*
G02X44488Y186693I1577J1417*
G01*
G75*
G02X48728I2120*
G01*
G75*
G02X48185Y185276I-2120*
G01*
X84631*
G75*
G02X88428I1898J-945*
G01*
X92702*
X92428Y185549*
X92041*
G75*
G02X90953Y186001I0J1537*
G01*
X89853Y187100*
G75*
G02X89402Y188189I1085J1088*
G01*
Y188189*
Y191969*
Y191969*
G75*
G02X89853Y193057I1537*
G01*
X90874Y194078*
G75*
G02X91963Y194530I1088J-1085*
G01*
X103852*
G75*
G02X104941Y194078I0J-1537*
G01*
X113048Y185970*
G75*
G02X113449Y185276I-1085J-1088*
G01*
X131123*
G75*
G02X133443Y186045I1705J-1260*
G01*
G75*
G02X133386Y186535I2088J493*
G01*
G75*
G02X137626I2120*
G01*
Y186535*
G75*
G02X137211Y185276I-2120J0*
G01*
X156409*
G37*
X165644Y196299D02*
G36*
X163394D01*
Y196091*
X165607*
G75*
G02X165644Y196299I2104J-267*
G01*
G37*
X175988D02*
G36*
X174561D01*
G75*
G02X174710Y195610I-1969J-788*
G01*
X175515Y194837*
G75*
G02X175512Y194954I1938J117*
G01*
G75*
G02Y194961I1994J3*
G01*
G75*
G02X175988Y196299I2120*
G01*
G37*
X200939D02*
G36*
X179276D01*
G75*
G02X179752Y194961I-1644J-1339*
G01*
G75*
G02X176098Y193497I-2120J0*
G01*
Y185276*
X179443*
Y185748*
X190388*
X200939Y196299*
G37*
X104797D02*
G36*
G75*
G02X104488Y197402I1811J1102D01*
G01*
G75*
G02X105106Y198898I2121J-1*
G01*
X50670*
G75*
G02X46956I-1857J1024*
G01*
X35500*
G75*
G02X31260I-2120*
G01*
X30508*
Y196299*
X33144*
G75*
G02X35348I1102J-1811*
G01*
X104797*
G37*
X135224D02*
G36*
G75*
G02X137646Y197496I1935J-867D01*
G01*
X136245Y198898*
X108110*
G75*
G02X108728Y197402I-1503J-1497*
G01*
G75*
G02X108419Y196299I-2120*
G01*
X135224*
G37*
X156409Y198898D02*
G36*
X140594D01*
X141237Y198254*
G75*
G02X141352Y198126I-1040J-1046*
G01*
G75*
G02X142272Y196378I-1200J-1748*
G01*
G75*
G02X142271Y196299I-2126J3*
G01*
X151594*
G75*
G02X155835I2120*
G01*
X156409*
Y198898*
G37*
X165644Y196299D02*
G36*
G75*
G02X168735Y197683I2067J-473D01*
G01*
G75*
G02X169144Y198411I1494J-359*
G01*
X169631Y198898*
X163750*
X163394Y198541*
Y196299*
X165644*
G37*
X203537Y198898D02*
G36*
X173980D01*
X172710Y197629*
G75*
G02X174561Y196299I-119J-2117*
G01*
X175988*
G75*
G02X179276I1644J-1339*
G01*
X200939*
X203537Y198898*
G37*
X46956D02*
G36*
G75*
G02X46693Y199921I1857J1024D01*
G01*
G75*
G02X46978Y200982I2122J0*
G01*
X46608*
G75*
G02X45520Y201434I0J1537*
G01*
X43688Y203266*
X38777*
G75*
G02X35197Y204803I-1460J1537*
G01*
G75*
G02X35241Y205235I2121J0*
G01*
G75*
G02X32244Y207165I-877J1931*
G01*
G75*
G02X34078Y209267I2121J0*
G01*
G75*
G02X34364Y209293I286J-1514*
G01*
X41208*
X42724Y210810*
G75*
G02X42876Y210943I1033J-1024*
G01*
X41104*
X40569Y210409*
G75*
G02X39479Y209959I-1088J1089*
G01*
X32907*
G75*
G02X32491Y210016I2J1552*
G01*
G75*
G02X30508Y210958I-213J2110*
G01*
Y198898*
X31260*
G75*
G02X35500I2120*
G01*
X46956*
G37*
X30723Y218740D02*
G36*
X30508D01*
Y218522*
G75*
G02X30723Y218740I1612J-1377*
G01*
G37*
X217067Y212427D02*
G36*
Y218740D01*
X207207*
X206980Y218513*
G75*
G02X208335Y216535I-765J-1977*
G01*
G75*
G02X205767Y214463I-2120*
G01*
G75*
G02X205815Y214018I-2054J-445*
G01*
G75*
G02Y214016I-2183J-1*
G01*
G75*
G02X201575I-2120*
G01*
Y214016*
G75*
G02X202528Y215785I2119*
G01*
X201891*
X200138Y214032*
G75*
G02X199049Y213581I-1088J1085*
G01*
X197832*
G75*
G02X194252Y215118I-1460J1537*
G01*
G75*
G02X197832Y216656I2120*
G01*
X198413*
X200165Y218409*
G75*
G02X200623Y218725I1084J-1080*
G01*
G75*
G02X200615Y218740I1930J999*
G01*
X138468*
X139371Y217837*
X146057*
G75*
G02X146989Y217522I1J-1534*
G01*
X148534*
G75*
G02X152114Y215984I1460J-1537*
G01*
G75*
G02X148534Y214447I-2120*
G01*
X146372*
G75*
G02X145440Y214762I-1J1534*
G01*
X144048*
G75*
G02X144555Y213386I-1613J-1376*
G01*
Y213386*
G75*
G02X140315I-2120*
G01*
Y213386*
G75*
G02X140822Y214762I2120*
G01*
X138734*
G75*
G02X137646Y215213I0J1537*
G01*
X134119Y218740*
X131327*
G75*
G02X127087I-2120*
G01*
X33517*
G75*
G02X34240Y217146I-1397J-1594*
G01*
G75*
G02X30508Y215769I-2120*
G01*
Y213294*
G75*
G02X34194Y213033I1770J-1168*
G01*
X38845*
X39380Y213567*
G75*
G02X40470Y214018I1088J-1089*
G01*
X85857*
G75*
G02X89437Y212480I1460J-1537*
G01*
G75*
G02X89052Y211262I-2120*
G01*
X118104*
G75*
G02X119193Y210810I0J-1537*
G01*
X121320Y208683*
X146441*
G75*
G02X149752Y206930I1191J-1754*
G01*
Y206929*
G75*
G02X145974Y205608I-2120*
G01*
X120683*
G75*
G02X119594Y206060I0J1537*
G01*
X117468Y208187*
X111456*
G75*
G02X112350Y206457I-1225J-1730*
G01*
G75*
G02X112150Y205556I-2120*
G01*
G75*
G02X113925Y203465I-344J-2092*
G01*
G75*
G02X113593Y202325I-2120J0*
G01*
X115352*
G75*
G02X114094Y204261I864J1937*
G01*
G75*
G02X118335I2120*
G01*
G75*
G02X117077Y202325I-2121J1*
G01*
X136530*
G75*
G02X137618Y201873I0J-1537*
G01*
X140594Y198898*
X156409*
Y199055*
Y199056*
G75*
G02X156861Y200144I1537*
G01*
X159480Y202763*
Y206142*
Y206142*
G75*
G02X159932Y207230I1537*
G01*
X161497Y208795*
G75*
G02X165736Y208740I2119J-55*
G01*
G75*
G02X163671Y206621I-2120*
G01*
X162555Y205505*
Y202126*
G75*
G02X162491Y201686I-1543*
G01*
X164884Y204079*
G75*
G02X165206Y204552I1417J-620*
G01*
X166016Y205361*
Y205469*
G75*
G02X165433Y206929I1539J1461*
G01*
G75*
G02X169673I2120*
G01*
G75*
G02X169091Y205469I-2122J1*
G01*
Y204724*
Y204724*
G75*
G02X168639Y203636I-1537*
G01*
X167380Y202378*
G75*
G02X166908Y202056I-1093J1095*
G01*
X163750Y198898*
X169631*
X171449Y200716*
Y210466*
X169357Y212557*
X168026*
G75*
G02X166937Y213009I0J1537*
G01*
X165735Y214211*
X164919*
G75*
G02X161339Y215748I-1460J1537*
G01*
G75*
G02X164919Y217285I2120*
G01*
X166372*
G75*
G02X167461Y216834I0J-1537*
G01*
X168663Y215632*
X169994*
G75*
G02X171083Y215180I0J-1537*
G01*
X174072Y212191*
G75*
G02X174524Y211103I-1085J-1088*
G01*
Y211102*
Y200079*
Y200078*
G75*
G02X174072Y198990I-1537*
G01*
X173980Y198898*
X203537*
X217067Y212427*
G37*
X105106Y198898D02*
G36*
G75*
G02X105570Y199250I1503J-1497D01*
G01*
X54325*
G75*
G02X53236Y199702I0J1537*
G01*
X51956Y200982*
X50648*
G75*
G02X50933Y199921I-1837J-1061*
G01*
G75*
G02X50670Y198898I-2120*
G01*
X105106*
G37*
X136245D02*
G36*
X135893Y199250D01*
X107646*
G75*
G02X108110Y198898I-1039J-1849*
G01*
X136245*
G37*
X134119Y218740D02*
G36*
X131641Y221219D01*
X99758*
G75*
G02X99162Y221339I0J1537*
G01*
X32404*
X30508Y219442*
Y218740*
X30723*
G75*
G02X33517I1397J-1594*
G01*
X127087*
G75*
G02X131327I2120*
G01*
X134119*
G37*
X198135Y221339D02*
G36*
X147632D01*
G75*
G02X143695I-1969J787*
G01*
X141074*
G75*
G02X137025I-2024J630*
G01*
X135869*
X138468Y218740*
X200615*
G75*
G02X200526Y218948I1935J959*
G01*
X198135Y221339*
G37*
X209806D02*
G36*
X207207Y218740D01*
X217067*
Y221339*
X215106*
G75*
G02X210866I-2120*
G01*
X209806*
G37*
X99162D02*
G36*
G75*
G02X98669Y221670I596J1417D01*
G01*
X94948Y225392*
X36458*
X32404Y221339*
X99162*
G37*
X109061Y226850D02*
G36*
X97838D01*
X100395Y224293*
X108470*
G75*
G02X108268Y225196I1915J903*
G01*
Y225197*
G75*
G02X109061Y226850I2120*
G01*
G37*
X146961D02*
G36*
X136349D01*
G75*
G02X136445Y226221I-2024J-630*
G01*
Y226220*
G75*
G02X132205I-2120*
G01*
G75*
G02X132232Y226560I2165J-5*
G01*
G75*
G02X131412Y226850I281J2101*
G01*
X111715*
G75*
G02X112508Y225197I-1327J-1654*
G01*
Y225196*
G75*
G02X112306Y224293I-2117*
G01*
X132278*
G75*
G02X133366Y223842I0J-1537*
G01*
X135869Y221339*
X137025*
G75*
G02X136929Y221969I2024J630*
G01*
G75*
G02X141169I2120*
G01*
G75*
G02X141074Y221339I-2120J0*
G01*
X143695*
G75*
G02X143543Y222126I1969J787*
G01*
G75*
G02X146297Y224149I2120*
G01*
G75*
G02X146063Y225118I1888J969*
G01*
G75*
G02X146961Y226850I2120*
G01*
G37*
X197591D02*
G36*
X183976D01*
G75*
G02X184161Y225984I-1935J-866*
G01*
G75*
G02X179954Y225615I-2120*
G01*
G75*
G02X176766Y226850I-1141J1787*
G01*
X173508*
G75*
G02X173531Y226535I-2096J-316*
G01*
G75*
G02X169291I-2120*
G01*
G75*
G02X169315Y226850I2120J-1*
G01*
X163272*
G75*
G02X159079I-2096J315*
G01*
X157862*
G75*
G02X153622I-2120*
G01*
X149406*
G75*
G02X150303Y225118I-1222J-1732*
G01*
G75*
G02X147549Y223095I-2120*
G01*
G75*
G02X147783Y222126I-1888J-969*
G01*
G75*
G02X147632Y221339I-2120*
G01*
X198135*
X198042Y221431*
G75*
G02X197591Y222519I1085J1088*
G01*
Y222520*
Y226850*
G37*
X212004D02*
G36*
Y224173D01*
Y224173*
G75*
G02X211552Y223085I-1537*
G01*
X209806Y221339*
X210866*
G75*
G02X215106I2120*
G01*
X217067*
Y226850*
X212004*
G37*
X131412D02*
G36*
G75*
G02X130394Y228661I1102J1811D01*
G01*
G75*
G02X132256Y230766I2120*
G01*
G75*
G02X132150Y231181I1985J729*
G01*
X104373*
X104051Y230859*
Y229764*
Y229763*
G75*
G02X103600Y228675I-1537*
G01*
X102500Y227576*
G75*
G02X101411Y227124I-1088J1085*
G01*
X97564*
X97838Y226850*
X109061*
G75*
G02X111715I1327J-1654*
G01*
X131412*
G37*
X194948Y231181D02*
G36*
X145500D01*
G75*
G02X141260I-2120*
G01*
X136343*
G75*
G02X134504Y229392I-2096J315*
G01*
G75*
G02X134634Y228662I-1985J-730*
G01*
Y228661*
G75*
G02X134606Y228322I-2165J5*
G01*
G75*
G02X136349Y226850I-281J-2101*
G01*
X146961*
G75*
G02X149406I1222J-1733*
G01*
X153622*
G75*
G02X157862I2120*
G01*
X159079*
G75*
G02X159055Y227165I2096J316*
G01*
G75*
G02X163295I2120*
G01*
G75*
G02X163272Y226850I-2120J1*
G01*
X169315*
G75*
G02X173508I2096J-315*
G01*
X176766*
G75*
G02X176693Y227402I2048J551*
G01*
G75*
G02X180901Y227771I2120*
G01*
G75*
G02X183976Y226850I1141J-1787*
G01*
X197591*
Y227897*
G75*
G02X194331Y229685I-1140J1788*
G01*
G75*
G02X194948Y231181I2120*
G01*
G37*
X212004D02*
G36*
Y226850D01*
X217067*
Y231181*
X212004*
G37*
X145633Y249567D02*
G36*
X121184D01*
X118491Y246874*
G75*
G02X114252Y246929I-2119J55*
G01*
G75*
G02X116317Y249048I2120*
G01*
X116836Y249567*
X103656*
Y234812*
X105232Y236389*
G75*
G02X104094Y238268I983J1879*
G01*
G75*
G02X107674Y239805I2120*
G01*
X112350*
X120087Y247543*
G75*
G02X121175Y247994I1088J-1085*
G01*
X146471*
G75*
G02X145633Y249567I1279J1691*
G01*
G37*
X194948Y231181D02*
G36*
G75*
G02X197591Y231473I1502J-1496D01*
G01*
Y232198*
X191798Y237990*
X187793*
G75*
G02X186702Y238441I-3J1539*
G01*
X186444Y238699*
X182148*
G75*
G02X182350Y237795I-1918J-903*
G01*
G75*
G02X178770Y236258I-2120*
G01*
X152750*
G75*
G02X151661Y236709I0J1537*
G01*
X148019Y240352*
X125828*
X120059Y234583*
G75*
G02X118970Y234132I-1088J1085*
G01*
X107324*
X104373Y231181*
X132150*
G75*
G02X132126Y231496I2092J315*
G01*
Y231496*
G75*
G02X136366I2120*
G01*
Y231496*
G75*
G02X136343Y231181I-2120J1*
G01*
X141260*
G75*
G02X145500I2120*
G01*
X194948*
G37*
X157097Y249567D02*
G36*
X149867D01*
G75*
G02X149809Y249179I-2105J117*
G01*
G75*
G02X150172Y249207I347J-2133*
G01*
G75*
G02X150939Y249411I766J-1329*
G01*
X153065*
G75*
G02X154154Y248960I0J-1537*
G01*
X155356Y247758*
X157868*
G75*
G02X158957Y247306I0J-1537*
G01*
X159979Y246284*
G75*
G02X160073Y246457I1763J-850*
G01*
G75*
G02X159055Y248267I1102J1811*
G01*
Y248268*
Y248274*
G75*
G02X157097Y249567I-6J2120*
G01*
G37*
X212004Y231181D02*
G36*
X217067D01*
Y241904*
X215457Y243513*
G75*
G02X211260Y243937I-2077J424*
G01*
G75*
G02X211445Y244803I2122J0*
G01*
X168419*
X163656Y249567*
X162851*
G75*
G02X163295Y248268I-1676J-1299*
G01*
G75*
G02X162986Y247165I-2120*
G01*
G75*
G02X164004Y245354I-1102J-1811*
G01*
G75*
G02X163051Y243585I-2120*
G01*
X188498*
G75*
G02X189587Y243133I0J-1537*
G01*
X189607Y243112*
X204089*
G75*
G02X205177Y242661I0J-1537*
G01*
X211552Y236285*
G75*
G02X212004Y235197I-1085J-1088*
G01*
Y235197*
Y231181*
G37*
X158419Y254803D02*
G36*
X115693D01*
G75*
G02X111697I-1998J709*
G01*
X110854*
G75*
G02X106614I-2120*
G01*
X103656*
Y249567*
X116836*
X120559Y253291*
G75*
G02X121648Y253742I1088J-1085*
G01*
X127983*
G75*
G02X131563Y252205I1460J-1537*
G01*
G75*
G02X127983Y250667I-2120*
G01*
X122285*
X121184Y249567*
X145633*
G75*
G02X145630Y249685I2117J116*
G01*
G75*
G02X149870I2120*
G01*
G75*
G02Y249684I-2183J0*
G01*
G75*
G02X149867Y249567I-2108J-2*
G01*
X157097*
G75*
G02X156929Y250394I1952J828*
G01*
Y250400*
G75*
G02X154803Y252520I-6J2120*
G01*
G75*
G02X159043I2120*
G01*
Y252514*
G75*
G02X161169Y250394I6J-2120*
G01*
Y250388*
G75*
G02X162851Y249567I6J-2120*
G01*
X163656*
X158419Y254803*
G37*
X111697D02*
G36*
G75*
G02X111575Y255512I1998J709D01*
G01*
G75*
G02X112453Y257230I2120*
G01*
X103656*
Y254803*
X106614*
G75*
G02X110854I2120*
G01*
X111697*
G37*
X155992Y257230D02*
G36*
X139258D01*
G75*
G02X139280Y256932I-2080J-298*
G01*
G75*
G02Y256929I-2256J-1*
G01*
G75*
G02X135039I-2120*
G01*
G75*
G02Y256932I2256J2*
G01*
G75*
G02X135061Y257230I2101J0*
G01*
X114937*
G75*
G02X115815Y255512I-1242J-1719*
G01*
G75*
G02X115693Y254803I-2120J0*
G01*
X158419*
X155992Y257230*
G37*
X104747Y103175D02*
X101315D01*
X114878Y89613*
G75*
G02X115375Y88666I-1262J-1266*
G01*
G75*
G02X115576Y86669I-1759J-1185*
G01*
X118126*
G75*
G02X121091Y84724I844J-1945*
G01*
G75*
G02X118126Y82780I-2120*
G01*
X109839*
G75*
G02X108461Y83349I-2J1945*
G01*
X89970Y101840*
Y98457*
X100154Y88274*
G75*
G02X100679Y87008I-1262J-1266*
G01*
Y85077*
G75*
G02X101012Y83937I-1787J-1140*
G01*
G75*
G02X96772I-2120*
G01*
G75*
G02X97104Y85077I2120*
G01*
Y86267*
X86921Y96450*
G75*
G02X86396Y97717I1262J1266*
G01*
Y106189*
X79756Y112828*
G75*
G02X79230Y114094I1262J1266*
G01*
Y118466*
G75*
G02X82144Y121403I1787J1140*
G01*
Y125809*
X80902Y127050*
G75*
G02X80333Y128425I1375J1375*
G01*
Y134785*
X76905Y138213*
X76397*
X76592Y138018*
G75*
G02X77043Y136929I-1086J-1089*
G01*
Y92763*
X79899Y89907*
G75*
G02X80350Y88819I-1086J-1089*
G01*
Y77960*
X86828Y71482*
G75*
G02X87280Y70394I-1086J-1089*
G01*
Y70279*
G75*
G02X86196Y66748I-1537J-1460*
G01*
X99175*
X107207Y74780*
G75*
G02X104173Y76693I-913J1913*
G01*
G75*
G02X107833Y78151I2120*
G01*
G75*
G02X111230Y75631I1610J-1379*
G01*
Y74488*
G75*
G02X110705Y73222I-1787*
G01*
X101181Y63699*
G75*
G02X99915Y63173I-1266J1262*
G01*
X70892*
X68521Y60802*
G75*
G02X68337Y60291I-2071J458*
G01*
X68939*
X71248Y62600*
G75*
G02X72514Y63126I1266J-1262*
G01*
X107868*
G75*
G02X109134Y62600J-1787*
G01*
X116424Y55311*
G75*
G02X116961Y57208I2074J437*
G01*
Y60551*
G75*
G02X117412Y61640I1538*
G01*
X128669Y72897*
G75*
G02X129758Y73348I1089J-1086*
G01*
X131090*
X132157Y74417*
Y81078*
G75*
G02X130458Y80892I-1061J1835*
G01*
X127868*
G75*
G02X126437Y81486J2022*
G01*
X104747Y103175*
X87717Y87244D02*
G75*
G02X91957I2120D01*
G01*
G75*
G02X87717I-2120*
G01*
X111417Y75118D02*
G75*
G02X115657I2120D01*
G01*
G75*
G02X111417I-2120*
G01*
X131907Y74167D02*
G36*
Y75118D01*
X115657*
G75*
G02X111417I-2120*
G01*
X111230*
Y74488*
G75*
G02X110705Y73222I-1788*
G01*
X101181Y63699*
G75*
G02X99915Y63173I-1266J1262*
G01*
X70892*
X68587Y60868*
Y60291*
X68939*
X71248Y62600*
G75*
G02X72514Y63126I1266J-1262*
G01*
X107868*
G75*
G02X109134Y62600J-1788*
G01*
X116174Y55561*
X116386*
G75*
G02X116378Y55748I2113J187*
G01*
G75*
G02X116961Y57208I2120*
G01*
Y60551*
Y60552*
G75*
G02X117412Y61640I1537*
G01*
X128669Y72897*
G75*
G02X129758Y73348I1088J-1085*
G01*
X131090*
X131907Y74167*
G37*
X104874Y75118D02*
G36*
X83192D01*
X86828Y71482*
G75*
G02X87280Y70394I-1085J-1088*
G01*
Y70394*
Y70279*
G75*
G02X87862Y68819I-1538J-1460*
G01*
G75*
G02X86196Y66748I-2120*
G01*
X99175*
X107207Y74780*
G75*
G02X104874Y75118I-913J1913*
G01*
G37*
X115724Y87244D02*
G36*
G75*
G02X115576Y86669I-2108J237D01*
G01*
X118126*
G75*
G02X121091Y84724I844J-1945*
G01*
G75*
G02X118126Y82780I-2120J0*
G01*
X109839*
G75*
G02X108461Y83349I-2J1944*
G01*
X104567Y87244*
X100663*
G75*
G02X100679Y87008I-1772J-237*
G01*
Y85077*
G75*
G02X101012Y83937I-1793J-1142*
G01*
G75*
G02X96772I-2120*
G01*
G75*
G02X97104Y85077I2125J-2*
G01*
Y86267*
X96128Y87244*
X91957*
G75*
G02X87717I-2120*
G01*
X80350*
Y77960*
X83192Y75118*
X104874*
G75*
G02X104173Y76693I1420J1575*
G01*
G75*
G02X107833Y78151I2120*
G01*
G75*
G02X111563Y76772I1610J-1379*
G01*
G75*
G02X111230Y75631I-2120*
G01*
Y75118*
X111417*
G75*
G02X115657I2120*
G01*
X131907*
Y80955*
G75*
G02X130458Y80892I-811J1959*
G01*
X127868*
G75*
G02X126437Y81486J2021*
G01*
X120678Y87244*
X115724*
G37*
X77155Y137963D02*
G36*
X76644D01*
G75*
G02X77043Y136930I-1138J-1033*
G01*
Y136929*
Y92763*
X79899Y89907*
G75*
G02X80350Y88819I-1085J-1088*
G01*
Y88819*
Y87244*
X87717*
G75*
G02X91957I2120*
G01*
X96128*
X86921Y96450*
G75*
G02X86396Y97717I1262J1266*
G01*
Y106189*
X79756Y112828*
G75*
G02X79230Y114094I1262J1266*
G01*
Y118466*
G75*
G02X78898Y119606I1787J1140*
G01*
G75*
G02X82144Y121403I2120*
G01*
Y125809*
X80902Y127050*
G75*
G02X80333Y128425I1376J1376*
G01*
Y134785*
X77155Y137963*
G37*
X104567Y87244D02*
G36*
X89970Y101840D01*
Y98457*
X100154Y88274*
G75*
G02X100663Y87244I-1262J-1266*
G01*
X104567*
G37*
X120678D02*
G36*
X104747Y103175D01*
X101315*
X114878Y89613*
G75*
G02X115375Y88666I-1263J-1266*
G01*
G75*
G02X115737Y87480I-1759J-1185*
G01*
G75*
G02X115724Y87244I-2123J-2*
G01*
X120678*
G37*
X105465Y125190D02*
X104574Y126081D01*
G75*
G02X101865Y123644I-2080J-411*
G01*
G75*
G02X102143Y121142I-1556J-1440*
G01*
G75*
G02Y119016I-1834J-1063*
G01*
G75*
G02Y116890I-1834J-1063*
G01*
G75*
G02X99241Y113995I-1834J-1063*
G01*
G75*
G02X97115Y113989I-1068J1831*
G01*
G75*
G02X94955Y114016I-1058J1837*
G01*
G75*
G02X94657Y113865I-1102J1811*
G01*
X101304Y107219*
X105585*
G75*
G02X107016Y106624J-2022*
G01*
X128706Y84935*
X130458*
G75*
G02X130834Y85017I639J-2022*
G01*
X130224Y85628*
X128970*
G75*
G02X127882Y86080J1538*
G01*
X105916Y108045*
G75*
G02X105465Y109134I1086J1089*
G01*
Y125190*
G36*
X104574Y126081*
G75*
G02X101865Y123644I-2080J-411*
G01*
G75*
G02X102143Y121142I-1556J-1440*
G01*
G75*
G02Y119016I-1834J-1063*
G01*
G75*
G02Y116890I-1834J-1063*
G01*
G75*
G02X99241Y113995I-1834J-1063*
G01*
G75*
G02X97115Y113989I-1068J1831*
G01*
G75*
G02X94955Y114016I-1058J1837*
G01*
G75*
G02X94657Y113865I-1102J1811*
G01*
X101304Y107219*
X105585*
G75*
G02X107016Y106624J-2022*
G01*
X128706Y84935*
X130458*
G75*
G02X130834Y85017I639J-2022*
G01*
X130224Y85628*
X128970*
G75*
G02X127882Y86080J1538*
G01*
X105916Y108045*
G75*
G02X105465Y109134I1086J1089*
G01*
Y125190*
G37*
X108539Y125499D02*
Y109771D01*
X109323Y108987*
Y124725*
X108539Y125499*
G36*
Y109771*
X109323Y108987*
Y124725*
X108539Y125499*
G37*
X108616Y273201D02*
X103656D01*
Y271890*
X108600*
G75*
G02X108616Y273201I2024J630*
G01*
G36*
X103656*
Y271890*
X108600*
G75*
G02X108616Y273201I2024J630*
G01*
G37*
X116335Y273206D02*
G75*
G02X116215Y273201I-119J1281D01*
G01*
X112632*
G75*
G02X112648Y271890I-2008J-681*
G01*
X116316*
G75*
G02X116335Y273206I2024J630*
G01*
G36*
G75*
G02X116215Y273201I-119J1281*
G01*
X112632*
G75*
G02X112648Y271890I-2008J-681*
G01*
X116316*
G75*
G02X116335Y273206I2024J630*
G01*
G37*
X119901Y102321D02*
X119125D01*
X122822Y98624*
X123598*
X119901Y102321*
G36*
X119125*
X122822Y98624*
X123598*
X119901Y102321*
G37*
X120035Y59915D02*
Y57208D01*
G75*
G02X120574Y56178I-1538J-1460*
G01*
X121199Y56804*
Y57559*
G75*
G02X121724Y58825I1787*
G01*
X123689Y60789*
G75*
G02X124955Y61315I1266J-1262*
G01*
X126492*
G75*
G02X128861Y57800I1140J-1787*
G01*
G75*
G02X129280Y56535I-1702J-1265*
G01*
G75*
G02X125039I-2120*
G01*
G75*
G02X125142Y57187I2120J0*
G01*
X124774Y56819*
Y56063*
G75*
G02X124248Y54797I-1787*
G01*
X121181Y51730*
G75*
G02X119915Y51205I-1266J1262*
G01*
X116215*
G75*
G02X114948Y51730J1787*
G01*
X107128Y59551*
X80107*
G75*
G02X80539Y58268I-1687J-1283*
G01*
G75*
G02X76299I-2120*
G01*
G75*
G02X76732Y59551I2120*
G01*
X73254*
X70945Y57242*
G75*
G02X69679Y56717I-1266J1262*
G01*
X42593*
G75*
G02X42431Y56724I2J1788*
G01*
X46307Y52848*
X74404*
G75*
G02X77924Y51388J-4974*
G01*
X85204Y44108*
X108695*
G75*
G02X112216Y42648J-4974*
G01*
X113590Y41274*
X139364*
G75*
G02X141867Y40598J-4974*
G01*
G75*
G02X143563Y40127I331J-2094*
G01*
Y44531*
G75*
G02X139606Y45591I-1837J1059*
G01*
G75*
G02X140189Y47050I2120*
G01*
Y55984*
G75*
G02X140641Y57073I1538*
G01*
X155444Y71876*
X153737*
X148645Y66785*
G75*
G02X147632Y66364I-1014J1010*
G01*
X144781*
G75*
G02X145106Y65236I-1795J-1128*
G01*
G75*
G02X140866I-2120*
G01*
G75*
G02X140867Y65287I2119J-7*
G01*
G75*
G02X138690Y68069I-164J2114*
G01*
X138413*
X137594Y67251*
Y65436*
G75*
G02Y65434I-635J-1*
G01*
G75*
G02Y65433I-635J0*
G01*
G75*
G02X137098Y64235I-1695*
G01*
X135322Y62458*
G75*
G02X131102Y62756I-2099J298*
G01*
G75*
G02X132138Y64578I2120*
G01*
G75*
G02X130157Y66693I140J2115*
G01*
G75*
G02X134205Y67576I2120*
G01*
Y67950*
G75*
G02Y67952I635J1*
G01*
G75*
G02Y67953I635J0*
G01*
G75*
G02X134701Y69151I1695*
G01*
X136512Y70962*
G75*
G02X137714Y71459I1198J-1198*
G01*
X145830*
X149405Y75021*
G75*
G02X149128Y74998I-277J1671*
G01*
X141730*
G75*
G02X140528Y75494I-3J1695*
G01*
X136355Y79668*
G75*
G02X135858Y80866I1198J1198*
G01*
G75*
G02Y80867I635J0*
G01*
G75*
G02Y80869I635J1*
G01*
Y83156*
X135232Y83782*
Y73780*
G75*
G02X134781Y72691I-1538*
G01*
X132815Y70725*
G75*
G02X131726Y70274I-1089J1086*
G01*
X130395*
X120035Y59915*
X102047Y55197D02*
G75*
G02X106287I2120D01*
G01*
G75*
G02X102047I-2120*
G01*
X140189D02*
G36*
X128804D01*
G75*
G02X125515I-1644J1339*
G01*
X124550*
G75*
G02X124248Y54797I-1564J867*
G01*
X121181Y51730*
G75*
G02X119915Y51205I-1266J1262*
G01*
X116215*
G75*
G02X114948Y51730J1788*
G01*
X111482Y55197*
X106287*
G75*
G02X102047I-2120*
G01*
X43958*
X46307Y52848*
X74404*
G75*
G02X77924Y51388J-4974*
G01*
X85204Y44108*
X108695*
G75*
G02X112216Y42648J-4974*
G01*
X113590Y41274*
X139364*
G75*
G02X141867Y40598I2J-4969*
G01*
G75*
G02X143193Y40377I332J-2092*
G01*
X143563*
Y44531*
G75*
G02X139606Y45591I-1837J1059*
G01*
G75*
G02X140189Y47050I2122J-1*
G01*
Y55197*
G37*
X111482D02*
G36*
X107128Y59551D01*
X80107*
G75*
G02X80539Y58268I-1686J-1283*
G01*
Y58268*
G75*
G02X76299I-2120*
G01*
Y58268*
G75*
G02X76732Y59551I2119*
G01*
X73254*
X70945Y57242*
G75*
G02X69679Y56717I-1266J1262*
G01*
X42681*
Y56474*
X43958Y55197*
X102047*
G75*
G02X106287I2120*
G01*
X111482*
G37*
X155194Y71876D02*
G36*
X153737D01*
X148645Y66785*
G75*
G02X147632Y66364I-1013J1009*
G01*
X144781*
G75*
G02X145106Y65237I-1792J-1127*
G01*
G75*
G02Y65236I-2183J0*
G01*
G75*
G02X140866I-2120*
G01*
X140867Y65287*
G75*
G02X138582Y67401I-165J2114*
G01*
G75*
G02X138690Y68069I2120*
G01*
X138413*
X137594Y67251*
Y65436*
Y65434*
Y65433*
G75*
G02X137098Y64235I-1697J1*
G01*
X135322Y62458*
G75*
G02X131102Y62756I-2099J298*
G01*
Y62756*
G75*
G02X132138Y64578I2119*
G01*
G75*
G02X130157Y66693I140J2116*
G01*
G75*
G02X134205Y67576I2120*
G01*
Y67950*
Y67952*
Y67953*
G75*
G02X134701Y69151I1697J-1*
G01*
X136512Y70962*
G75*
G02X137714Y71459I1198J-1197*
G01*
X145830*
X149405Y75021*
G75*
G02X149128Y74998I-282J1730*
G01*
X141730*
G75*
G02X140528Y75494I-4J1693*
G01*
X136355Y79668*
G75*
G02X135858Y80866I1200J1199*
G01*
Y80867*
Y80869*
Y83156*
X135482Y83532*
X135232*
Y73780*
Y73779*
G75*
G02X134781Y72691I-1537*
G01*
X132815Y70725*
G75*
G02X131726Y70274I-1088J1085*
G01*
X130395*
X120035Y59915*
Y57208*
G75*
G02X120574Y56178I-1535J-1458*
G01*
X121199Y56804*
Y57559*
G75*
G02X121724Y58825I1788*
G01*
X123689Y60789*
G75*
G02X124955Y61315I1266J-1262*
G01*
X126492*
G75*
G02X129752Y59528I1140J-1787*
G01*
G75*
G02X128861Y57800I-2120*
G01*
G75*
G02X129280Y56535I-1703J-1265*
G01*
G75*
G02X128804Y55197I-2120*
G01*
X140189*
Y55984*
Y55985*
G75*
G02X140641Y57073I1537*
G01*
X155194Y71626*
Y71876*
G37*
X125515Y55197D02*
G36*
G75*
G02X125039Y56535I1644J1339D01*
G01*
G75*
G02X125142Y57187I2127J-2*
G01*
X124774Y56819*
Y56063*
G75*
G02X124550Y55197I-1788J0*
G01*
X125515*
G37*
X120364Y131937D02*
Y122307D01*
X124551Y126494*
G75*
G02X123593Y129488I876J1931*
G01*
G75*
G02Y131614I1834J1063*
G01*
G75*
G02Y133740I1834J1063*
G01*
G75*
G02X123307Y134803I1834J1063*
G01*
G75*
G02X123309Y134881I2119J-4*
G01*
X120364Y131937*
G36*
Y122307*
X124551Y126494*
G75*
G02X123593Y129488I876J1931*
G01*
G75*
G02Y131614I1834J1063*
G01*
G75*
G02Y133740I1834J1063*
G01*
G75*
G02X123307Y134803I1834J1063*
G01*
G75*
G02X123309Y134881I2119J-4*
G01*
X120364Y131937*
G37*
X121812Y244919D02*
X114100Y237207D01*
X118334*
X124102Y242976*
G75*
G02X125191Y243427I1089J-1086*
G01*
X147700*
X146208Y244919*
X121812*
G36*
X114100Y237207*
X118334*
X124102Y242976*
G75*
G02X125191Y243427I1089J-1086*
G01*
X147700*
X146208Y244919*
X121812*
G37*
X123855Y95234D02*
X123076D01*
X129607Y88703*
X130330*
X123855Y95234*
G36*
X123076*
X129607Y88703*
X130330*
X123855Y95234*
G37*
X129672Y128432D02*
G75*
G02X129278Y127271I-2119J72D01*
G01*
G75*
G02X131096Y127087I717J-1995*
G01*
G75*
G02X131157Y127122I1095J-1813*
G01*
G75*
G02X130735Y128761I1673J1304*
G01*
G75*
G02X129672Y128432I-1135J1791*
G01*
G36*
G75*
G02X129278Y127271I-2119J72*
G01*
G75*
G02X131096Y127087I717J-1995*
G01*
G75*
G02X131157Y127122I1095J-1813*
G01*
G75*
G02X130735Y128761I1673J1304*
G01*
G75*
G02X129672Y128432I-1135J1791*
G01*
G37*
X130211Y273201D02*
X123459D01*
G75*
G02X123339Y273206I-1J1286*
G01*
G75*
G02X123357Y271890I-2006J-687*
G01*
X130194*
G75*
G02X130211Y273201I2024J630*
G01*
G36*
X123459*
G75*
G02X123339Y273206I-1J1286*
G01*
G75*
G02X123357Y271890I-2006J-687*
G01*
X130194*
G75*
G02X130211Y273201I2024J630*
G01*
G37*
X137570Y143998D02*
X136125Y142553D01*
X137744*
Y142069*
X142409*
X144005Y143666*
G75*
G02X143273Y143955I398J2081*
G01*
G75*
G02X141175Y144016I-995J1872*
G01*
G75*
G02X138066Y145143I-1102J1811*
G01*
G75*
G02X137570Y143998I-1694J54*
G01*
G36*
X136125Y142553*
X137744*
Y142069*
X142409*
X144005Y143666*
G75*
G02X143273Y143955I398J2081*
G01*
G75*
G02X141175Y144016I-995J1872*
G01*
G75*
G02X138066Y145143I-1102J1811*
G01*
G75*
G02X137570Y143998I-1694J54*
G01*
G37*
X137744Y138510D02*
X135771D01*
X155489Y118792*
G75*
G02X156988Y117817I-298J-2099*
G01*
Y161890*
G75*
G02X157409Y162903I1431J0*
G01*
X159368Y164862*
G75*
G02X158991Y165773I911J911*
G01*
G75*
G02Y165781I1453J4*
G01*
X158991Y165878*
X149012Y155899*
Y144961*
G75*
G02X148560Y143872I-1538*
G01*
X144134Y139446*
G75*
G02X143045Y138994I-1089J1086*
G01*
X137744*
Y138510*
X151260Y142441D02*
G75*
G02X155500I2120D01*
G01*
G75*
G02X151260I-2120*
G01*
X146142Y138425D02*
G75*
G02X150382I2120D01*
G01*
G75*
G02X146142I-2120*
G01*
X156988D02*
G36*
X150382D01*
G75*
G02X146142I-2120*
G01*
X136021*
Y138260*
X155489Y118792*
G75*
G02X156805Y118067I-298J-2099*
G01*
X156988*
Y138425*
G37*
Y142441D02*
G36*
X155500D01*
G75*
G02X151260I-2120*
G01*
X147129*
X144134Y139446*
G75*
G02X143045Y138994I-1088J1085*
G01*
X137744*
Y138510*
X136021*
Y138425*
X146142*
G75*
G02X150382I2120*
G01*
X156988*
Y142441*
G37*
X158999Y165628D02*
G36*
X158741D01*
X149012Y155899*
Y144961*
Y144960*
G75*
G02X148560Y143872I-1537*
G01*
X147129Y142441*
X151260*
G75*
G02X155500I2120*
G01*
X156988*
Y161890*
G75*
G02X157409Y162903I1430*
G01*
X159118Y164612*
Y165215*
G75*
G02X158999Y165628I1161J558*
G01*
G37*
X137992Y273217D02*
G75*
G02X137789Y273201I-203J1270D01*
G01*
X134226*
G75*
G02X134243Y271890I-2008J-681*
G01*
X137970*
G75*
G02X137992Y273217I2025J630*
G01*
G36*
G75*
G02X137789Y273201I-203J1270*
G01*
X134226*
G75*
G02X134243Y271890I-2008J-681*
G01*
X137970*
G75*
G02X137992Y273217I2025J630*
G01*
G37*
X138067Y147227D02*
Y146513D01*
G75*
G02X138227Y146870I2007J-686*
G01*
G75*
G02X138067Y147227I1846J1043*
G01*
G36*
Y146513*
G75*
G02X138227Y146870I2007J-686*
G01*
G75*
G02X138067Y147227I1846J1043*
G01*
G37*
Y149393D02*
Y148600D01*
G75*
G02X138250Y148996I2007J-686*
G01*
G75*
G02X138067Y149393I1824J1083*
G01*
G36*
Y148600*
G75*
G02X138250Y148996I2007J-686*
G01*
G75*
G02X138067Y149393I1824J1083*
G01*
G37*
Y171896D02*
Y150765D01*
G75*
G02X141175Y151890I2006J-686*
G01*
G75*
G02X142283Y152199I1102J-1811*
G01*
G75*
G02Y152205I2128J3*
G01*
G75*
G02X142569Y153268I2120*
G01*
G75*
G02X145937Y155794I1834J1063*
G01*
Y156535*
G75*
G02X146389Y157624I1538*
G01*
X154277Y165512*
X143065*
Y175748*
X148076*
G75*
G02X147852Y177675I1761J1181*
G01*
X143846*
X138067Y171896*
G36*
Y150765*
G75*
G02X141175Y151890I2006J-686*
G01*
G75*
G02X142283Y152199I1102J-1811*
G01*
G75*
G02Y152205I2128J3*
G01*
G75*
G02X142569Y153268I2120*
G01*
G75*
G02X145937Y155794I1834J1063*
G01*
Y156535*
G75*
G02X146389Y157624I1538*
G01*
X154277Y165512*
X143065*
Y175748*
X148076*
G75*
G02X147852Y177675I1761J1181*
G01*
X143846*
X138067Y171896*
G37*
X139248Y82974D02*
Y81568D01*
X142428Y78388*
X143806*
G75*
G02X143633Y81089I1542J1455*
G01*
X141726*
G75*
G02X140713Y81509I0J1431*
G01*
X139248Y82974*
G36*
Y81568*
X142428Y78388*
X143806*
G75*
G02X143633Y81089I1542J1455*
G01*
X141726*
G75*
G02X140713Y81509I0J1431*
G01*
X139248Y82974*
G37*
X143264Y55348D02*
Y47050D01*
G75*
G02X143563Y46650I-1537J-1460*
G01*
Y55276*
G75*
G02X143590Y55674I2968J0*
G01*
X143264Y55348*
G36*
Y47050*
G75*
G02X143563Y46650I-1537J-1460*
G01*
Y55276*
G75*
G02X143590Y55674I2968J0*
G01*
X143264Y55348*
G37*
X147064Y81089D02*
G75*
G02X146891Y78388I-1715J-1246D01*
G01*
X148430*
X151265Y81204*
G75*
G02X150703Y81089I-562J1316*
G01*
X147064*
G36*
G75*
G02X146891Y78388I-1715J-1246*
G01*
X148430*
X151265Y81204*
G75*
G02X150703Y81089I-562J1316*
G01*
X147064*
G37*
X148093Y247593D02*
G75*
G02X147904Y247570I-344J2091D01*
G01*
G75*
G02X147933Y247543I-1056J-1114*
G01*
X148057Y247418*
G75*
G02X148093Y247593I2096J-333*
G01*
G36*
G75*
G02X147904Y247570I-344J2091*
G01*
G75*
G02X147933Y247543I-1056J-1114*
G01*
X148057Y247418*
G75*
G02X148093Y247593I2096J-333*
G01*
G37*
X151821Y177675D02*
G75*
G02X151597Y175748I-1985J-746D01*
G01*
X156409*
Y177437*
G75*
G02X154581Y177675I-667J2012*
G01*
X151821*
G36*
G75*
G02X151597Y175748I-1985J-746*
G01*
X156409*
Y177437*
G75*
G02X154581Y177675I-667J2012*
G01*
X151821*
G37*
X151943Y273201D02*
X145191D01*
G75*
G02X144989Y273217I1J1287*
G01*
G75*
G02X145011Y271890I-2002J-697*
G01*
X151926*
G75*
G02X151943Y273201I2024J630*
G01*
G36*
X145191*
G75*
G02X144989Y273217I1J1287*
G01*
G75*
G02X145011Y271890I-2002J-697*
G01*
X151926*
G75*
G02X151943Y273201I2024J630*
G01*
G37*
X152914Y242792D02*
G75*
G02X152749Y242726I-873J1935D01*
G01*
X152923Y242552*
G75*
G02X152913Y242756I2109J204*
G01*
G75*
G02X152914Y242792I2122J-5*
G01*
G36*
G75*
G02X152749Y242726I-873J1935*
G01*
X152923Y242552*
G75*
G02X152913Y242756I2109J204*
G01*
G75*
G02X152914Y242792I2122J-5*
G01*
G37*
X154294Y244743D02*
G75*
G02X154161Y244788I422J1477D01*
G01*
G75*
G02X154161Y244724I-2116J-58*
G01*
G75*
G02X154161Y244688I-2122J5*
G01*
G75*
G02X154294Y244743I874J-1935*
G01*
G36*
G75*
G02X154161Y244788I422J1477*
G01*
G75*
G02X154161Y244724I-2116J-58*
G01*
G75*
G02X154161Y244688I-2122J5*
G01*
G75*
G02X154294Y244743I874J-1935*
G01*
G37*
X157142Y244683D02*
X155917D01*
G75*
G02X156530Y244258I-883J-1928*
G01*
G75*
G02X157142Y244683I1496J-1503*
G01*
G36*
X155917*
G75*
G02X156530Y244258I-883J-1928*
G01*
G75*
G02X157142Y244683I1496J-1503*
G01*
G37*
X157868Y81834D02*
X156913Y82789D01*
G75*
G02X156957Y82362I-2078J-426*
G01*
G75*
G02X156942Y82116I-2119J2*
G01*
G75*
G02X157868Y81834I-137J-2116*
G01*
G36*
X156913Y82789*
G75*
G02X156957Y82362I-2078J-426*
G01*
G75*
G02X156942Y82116I-2119J2*
G01*
G75*
G02X157868Y81834I-137J-2116*
G01*
G37*
X158378Y106439D02*
X157751Y105812D01*
G75*
G02X158378Y105776I195J-2111*
G01*
G75*
G02Y105787I1726J6*
G01*
G75*
G02Y105788I635J0*
G01*
G75*
G02Y105791I635J1*
G01*
Y106439*
G36*
X157751Y105812*
G75*
G02X158378Y105776I195J-2111*
G01*
G75*
G02Y105787I1726J6*
G01*
G75*
G02Y105788I635J0*
G01*
G75*
G02Y105791I635J1*
G01*
Y106439*
G37*
X159484Y198419D02*
Y195636D01*
G75*
G02X160467Y196091I982J-833*
G01*
X160531*
Y199134*
G75*
G02X160584Y199518I1431J1*
G01*
X159484Y198419*
G36*
Y195636*
G75*
G02X160467Y196091I982J-833*
G01*
X160531*
Y199134*
G75*
G02X160584Y199518I1431J1*
G01*
X159484Y198419*
G37*
X159600Y80695D02*
G75*
G02X158636Y81068I0J1431D01*
G01*
G75*
G02X157099Y77900I-1831J-1068*
G01*
X153925Y74738*
X156094*
X162051Y80695*
X159600*
G36*
G75*
G02X158636Y81068I0J1431*
G01*
G75*
G02X157099Y77900I-1831J-1068*
G01*
X153925Y74738*
X156094*
X162051Y80695*
X159600*
G37*
X159685Y85589D02*
G75*
G02X158670Y85081I-1266J1262D01*
G01*
X160193Y83557*
X160216*
G75*
G02X159831Y85735I1589J1404*
G01*
X159685Y85589*
G36*
G75*
G02X158670Y85081I-1266J1262*
G01*
X160193Y83557*
X160216*
G75*
G02X159831Y85735I1589J1404*
G01*
X159685Y85589*
G37*
X159980Y241934D02*
G75*
G02X159904Y241774I-1953J821D01*
G01*
X160141*
X159980Y241934*
G36*
G75*
G02X159904Y241774I-1953J821*
G01*
X160141*
X159980Y241934*
G37*
X160217Y98305D02*
X158884Y99637D01*
G75*
G02X159122Y98661I-1882J-976*
G01*
G75*
G02X154882I-2120*
G01*
G75*
G02X155482Y100139I2120*
G01*
G75*
G02X155360Y100248I891J1120*
G01*
X153785Y101823*
G75*
G02X153366Y102835I1012J1012*
G01*
G75*
G02Y102838I660J2*
G01*
Y104882*
G75*
G02X153787Y105895I1431J0*
G01*
X156988Y109097*
Y115569*
G75*
G02X153092Y116395I-1797J1124*
G01*
X137724Y131763*
Y128470*
X134948*
G75*
G02X134949Y128425I-2121J-41*
G01*
G75*
G02X133871Y126579I-2120*
G01*
G75*
G02X133985Y124134I-1672J-1304*
G01*
G75*
G02X131096Y121181I-1786J-1142*
G01*
G75*
G02X128892I-1102J1811*
G01*
G75*
G02X125707Y122594I-1102J1811*
G01*
X123199Y120086*
Y119187*
X124961*
G75*
G02X125480Y119075I5J-1234*
G01*
G75*
G02X126716Y119700I1522J-1476*
G01*
G75*
G02X127002Y119726I285J-1510*
G01*
X131648*
G75*
G02X132736Y119275J-1538*
G01*
X154466Y97545*
G75*
G02X154917Y96457I-1086J-1089*
G01*
Y90987*
G75*
G02X155304Y88638I-1537J-1460*
G01*
X157419*
Y90301*
G75*
G02X156378Y92126I1079J1825*
G01*
G75*
G02X160217Y93368I2120*
G01*
Y98305*
G36*
X158884Y99637*
G75*
G02X159122Y98661I-1882J-976*
G01*
G75*
G02X154882I-2120*
G01*
G75*
G02X155482Y100139I2120*
G01*
G75*
G02X155360Y100248I891J1120*
G01*
X153785Y101823*
G75*
G02X153366Y102835I1012J1012*
G01*
G75*
G02Y102838I660J2*
G01*
Y104882*
G75*
G02X153787Y105895I1431J0*
G01*
X156988Y109097*
Y115569*
G75*
G02X153092Y116395I-1797J1124*
G01*
X137724Y131763*
Y128470*
X134948*
G75*
G02X134949Y128425I-2121J-41*
G01*
G75*
G02X133871Y126579I-2120*
G01*
G75*
G02X133985Y124134I-1672J-1304*
G01*
G75*
G02X131096Y121181I-1786J-1142*
G01*
G75*
G02X128892I-1102J1811*
G01*
G75*
G02X125707Y122594I-1102J1811*
G01*
X123199Y120086*
Y119187*
X124961*
G75*
G02X125480Y119075I5J-1234*
G01*
G75*
G02X126716Y119700I1522J-1476*
G01*
G75*
G02X127002Y119726I285J-1510*
G01*
X131648*
G75*
G02X132736Y119275J-1538*
G01*
X154466Y97545*
G75*
G02X154917Y96457I-1086J-1089*
G01*
Y90987*
G75*
G02X155304Y88638I-1537J-1460*
G01*
X157419*
Y90301*
G75*
G02X156378Y92126I1079J1825*
G01*
G75*
G02X160217Y93368I2120*
G01*
Y98305*
G37*
X160531Y194803D02*
X160467D01*
X160278Y165773*
X160531Y166026*
Y194803*
G36*
X160467*
X160278Y165773*
X160531Y166026*
Y194803*
G37*
X160973Y87366D02*
G75*
G02X160800Y86827I-1767J272D01*
G01*
G75*
G02X161148Y86976I1005J-1868*
G01*
G75*
G02X160973Y87366I1840J1057*
G01*
G36*
G75*
G02X160800Y86827I-1767J272*
G01*
G75*
G02X161148Y86976I1005J-1868*
G01*
G75*
G02X160973Y87366I1840J1057*
G01*
G37*
X161768Y106885D02*
Y106489D01*
X162216Y106041*
G75*
G02X162556Y105554I-1198J-1199*
G01*
G75*
G02X160541Y102028I-1539J-1459*
G01*
X162658Y99911*
G75*
G02X163079Y98898I-1010J-1014*
G01*
Y93506*
X165029Y91556*
G75*
G02X169201Y91024I2052J-533*
G01*
G75*
G02X168984Y90090I-2120*
G01*
Y87628*
X172382Y91026*
Y105359*
X168042Y109699*
G75*
G02X167591Y110787I1086J1089*
G01*
Y117452*
X161768*
Y110910*
G75*
G02X163115Y110906I667J-2012*
G01*
G75*
G02X162756Y112087I1761J1181*
G01*
G75*
G02X166996I2120*
G01*
G75*
G02X164196Y110079I-2120*
G01*
G75*
G02X161768Y106885I-1761J-1181*
G01*
G36*
Y106489*
X162216Y106041*
G75*
G02X162556Y105554I-1198J-1199*
G01*
G75*
G02X160541Y102028I-1539J-1459*
G01*
X162658Y99911*
G75*
G02X163079Y98898I-1010J-1014*
G01*
Y93506*
X165029Y91556*
G75*
G02X169201Y91024I2052J-533*
G01*
G75*
G02X168984Y90090I-2120*
G01*
Y87628*
X172382Y91026*
Y105359*
X168042Y109699*
G75*
G02X167591Y110787I1086J1089*
G01*
Y117452*
X161768*
Y110910*
G75*
G02X163115Y110906I667J-2012*
G01*
G75*
G02X162756Y112087I1761J1181*
G01*
G75*
G02X166996I2120*
G01*
G75*
G02X164196Y110079I-2120*
G01*
G75*
G02X161768Y106885I-1761J-1181*
G01*
G37*
X161783Y273201D02*
X155959D01*
G75*
G02X155975Y271890I-2008J-681*
G01*
X161612*
G75*
G02X161783Y273201I2083J394*
G01*
G36*
X155959*
G75*
G02X155975Y271890I-2008J-681*
G01*
X161612*
G75*
G02X161783Y273201I2083J394*
G01*
G37*
X162454Y90083D02*
X160918Y91619D01*
G75*
G02X160994Y91102I-1711J-517*
G01*
G75*
G02Y91099I-641J-2*
G01*
Y88757*
G75*
G02X162454Y90083I1992J-725*
G01*
G36*
X160918Y91619*
G75*
G02X160994Y91102I-1711J-517*
G01*
G75*
G02Y91099I-641J-2*
G01*
Y88757*
G75*
G02X162454Y90083I1992J-725*
G01*
G37*
X165606Y273201D02*
G75*
G02X164538Y270338I-1911J-917D01*
G01*
X175821Y259055*
X204876*
G75*
G02X204567Y260157I1811J1102*
G01*
G75*
G02X208807I2120*
G01*
G75*
G02X208498Y259055I-2120*
G01*
X220703*
X231490Y248268*
Y205827*
X201018Y175354*
Y148268*
X191096Y138346*
Y137689*
G75*
G02X194476Y135984I1260J-1705*
G01*
G75*
G02X191096Y134279I-2120*
G01*
Y129477*
X198183*
G75*
G02X199471Y128189J-1288*
G01*
Y121262*
G75*
G02Y121260I-385J-1*
G01*
Y121260*
G75*
G02X199094Y120349I-1288*
G01*
X196653Y117908*
G75*
G02X195746Y117531I-911J911*
G01*
X186261Y117494*
G75*
G02X186256I-2J1315*
G01*
Y105456*
G75*
G02X189673Y103780I1297J-1677*
G01*
G75*
G02X186256Y102103I-2120*
G01*
Y100319*
G75*
G02X186650Y99291I-1144J-1028*
G01*
G75*
G02Y99288I-868J-2*
G01*
Y87369*
G75*
G02X189941Y87091I1533J-1464*
G01*
Y91339*
G75*
G02X190881Y93606I3203*
G01*
X199538Y102262*
G75*
G02X201805Y103203I2267J-2262*
G01*
X203203*
G75*
G02X204437Y102956J-3203*
G01*
X204547Y103352*
Y114646*
G75*
G02X205082Y115936I1825J0*
G01*
X207146Y118000*
Y140811*
G75*
G02X206850Y141890I1824J1079*
G01*
G75*
G02X211091I2120*
G01*
G75*
G02X210795Y140811I-2120*
G01*
Y117244*
G75*
G02X210261Y115954I-1825J0*
G01*
X208197Y113890*
Y103102*
G75*
G02X208130Y102611I-1826J0*
G01*
X207838Y101566*
G75*
G02X205506Y97191I-2332J-1566*
G01*
X204741*
G75*
G02X203203Y96797I-1539J2809*
G01*
X203132*
X198675Y92341*
G75*
G02X200539Y90236I-256J-2105*
G01*
G75*
G02X196346Y89791I-2120*
G01*
Y81102*
G75*
G02X195406Y78835I-3203*
G01*
X194457Y77886*
Y70866*
G75*
G02X192152Y67792I-3203*
G01*
X186795Y62435*
X188293*
X200088Y74231*
G75*
G02X202593Y75270I2504J-2498*
G01*
X207426*
X215197Y83040*
Y87377*
G75*
G02X211890Y89134I-1187J1757*
G01*
G75*
G02X215197Y90891I2120*
G01*
Y95591*
G75*
G02X216236Y98095I3537*
G01*
X220315Y102174*
Y102960*
G75*
G02X220295Y106954I703J2000*
G01*
G75*
G02X220157Y107953I3557J1000*
G01*
Y109736*
G75*
G02X217323Y111732I-715J1996*
G01*
G75*
G02X220157Y113728I2120*
G01*
Y146816*
X215767Y151206*
G75*
G02X220993Y156431I2613J2613*
G01*
X226465Y150959*
G75*
G02X227547Y148346I-2613J-2613*
G01*
Y107953*
G75*
G02X227390Y106885I-3695*
G01*
Y100709*
G75*
G02X226351Y98204I-3537*
G01*
X222272Y94125*
Y92720*
G75*
G02X224978Y89724I872J-1932*
G01*
G75*
G02X222272Y86729I-1834J-1063*
G01*
Y85989*
G75*
G02X224784Y82660I951J-1895*
G01*
G75*
G02X225203Y78661I-459J-2070*
G01*
G75*
G02X226642Y76654I-681J-2007*
G01*
G75*
G02X222402I-2120*
G01*
G75*
G02X223643Y78583I2120*
G01*
G75*
G02X222763Y82025I681J2007*
G01*
G75*
G02X222272Y82200I459J2070*
G01*
Y81575*
G75*
G02X221233Y79070I-3537*
G01*
X214241Y72079*
G75*
G02X216445Y69961I83J-2119*
G01*
G75*
G02X212205I-2120*
G01*
G75*
G02X212206Y70044I2116J2*
G01*
X211396Y69234*
G75*
G02X208892Y68195I-2504J2498*
G01*
X204058*
X192262Y56399*
G75*
G02X189758Y55360I-2504J2498*
G01*
X178611*
G75*
G02X179416Y53150I-2632J-2211*
G01*
G75*
G02X172541I-3437*
G01*
G75*
G02X173350Y55365I3438*
G01*
G75*
G02X171036Y56396I187J3533*
G01*
X166029Y61404*
X164561*
G75*
G02X163548Y61824I0J1431*
G01*
X162370Y63002*
G75*
G02X161949Y64016I1010J1014*
G01*
Y66500*
X149496Y54047*
Y32126*
G75*
G02X148627Y30028I-2967*
G01*
X146737Y28139*
G75*
G02X141673Y30236I-2098J2098*
G01*
G75*
G02X141694Y30592I2967J1*
G01*
X141572Y30470*
G75*
G02X140073Y29848I-1500J1499*
G01*
X135663*
G75*
G02X133643Y31325J2120*
G01*
X111530*
G75*
G02X108009Y32785J4974*
G01*
X107201Y33593*
G75*
G02X107232Y33228I-2089J-364*
G01*
G75*
G02X102992I-2120*
G01*
G75*
G02X103207Y34159I2120*
G01*
X83144*
G75*
G02X79623Y35620J4974*
G01*
X74634Y40609*
Y30984*
X80624*
Y15433*
X149325*
Y30984*
X182480*
Y39574*
G75*
G02Y40150I2100J288*
G01*
Y41982*
X194398*
Y30984*
X194587*
Y32153*
G75*
G02Y32729I2100J288*
G01*
Y34318*
G75*
G02Y34894I2100J288*
G01*
Y36503*
G75*
G02Y37080I2100J288*
G01*
Y39475*
G75*
G02Y40289I2081J407*
G01*
Y41982*
X196379*
G75*
G02X196956I288J-2100*
G01*
X201780*
Y30984*
X201929*
Y41982*
X219752*
Y30984*
X231797*
Y260209*
X220191*
G75*
G02X218904Y261496J1287*
G01*
Y283701*
X167344*
Y274488*
G75*
G02X167238Y273976I-1287*
G01*
Y273898*
X167201*
G75*
G02X166057Y273201I-1144J591*
G01*
X165606*
X198268Y262126D02*
G75*
G02X202508I2120D01*
G01*
G75*
G02X198268I-2120*
G01*
X202638Y273012D02*
G75*
G02X211012I4187D01*
G01*
G75*
G02X202638I-4187*
G01*
X221260Y191339D02*
G75*
G02X225500I2120D01*
G01*
G75*
G02X224917Y189879I-2120*
G01*
Y184882*
G75*
G02X224466Y183793I-1538*
G01*
X204681Y164009*
Y131582*
X205017Y131246*
G75*
G02X205469Y130157I-1086J-1089*
G01*
Y119570*
G75*
G02X206051Y118110I-1537J-1460*
G01*
G75*
G02X201811I-2120*
G01*
G75*
G02X202394Y119570I2120*
G01*
Y129521*
X202058Y129856*
G75*
G02X201606Y130945I1086J1089*
G01*
Y164646*
G75*
G02X202058Y165734I1538*
G01*
X221843Y185519*
Y189879*
G75*
G02X221260Y191339I1537J1460*
G01*
X211181Y148189D02*
G75*
G02X215421I2120D01*
G01*
G75*
G02X211181I-2120*
G01*
X211260Y113701D02*
G75*
G02X215500I2120D01*
G01*
G75*
G02X211260I-2120*
G01*
X188031Y111575D02*
G75*
G02X192272I2120D01*
G01*
G75*
G02X188031I-2120*
G01*
X202047Y88740D02*
G75*
G02X206287I2120D01*
G01*
G75*
G02X202047I-2120*
G01*
X216614Y72520D02*
G75*
G02X220854I2120D01*
G01*
G75*
G02X216614I-2120*
G01*
X214961Y61496D02*
G75*
G02X219201I2120D01*
G01*
G75*
G02X214961I-2120*
G01*
X218071Y50472D02*
G75*
G02X222311I2120D01*
G01*
G75*
G02X218071I-2120*
G01*
X201181Y64252D02*
G75*
G02X205421I2120D01*
G01*
G75*
G02X201181I-2120*
G01*
X158031Y43976D02*
G75*
G02X162272I2120D01*
G01*
G75*
G02X158031I-2120*
G01*
X124055Y19272D02*
G75*
G02X129673I2809D01*
G01*
G75*
G02X124055I-2809*
G01*
X92953D02*
G75*
G02X98571I2809D01*
G01*
G75*
G02X92953I-2809*
G01*
X149325D02*
G36*
X129673D01*
G75*
G02X124055I-2809*
G01*
X98571*
G75*
G02X92953I-2809*
G01*
X80624*
Y15683*
X149325*
Y19272*
G37*
X231547Y30984D02*
G36*
Y43976D01*
X162272*
G75*
G02X158031I-2120*
G01*
X149496*
Y32126*
G75*
G02X148627Y30028I-2969J1*
G01*
X146737Y28139*
G75*
G02X141673Y30236I-2098J2098*
G01*
G75*
G02Y30243I2905J4*
G01*
G75*
G02X141694Y30592I2878*
G01*
X141572Y30470*
G75*
G02X140073Y29848I-1499J1498*
G01*
X135663*
G75*
G02X133643Y31325I-1J2119*
G01*
X111530*
G75*
G02X108009Y32785J4974*
G01*
X107201Y33593*
G75*
G02X107232Y33228I-2098J-365*
G01*
G75*
G02X102992I-2120*
G01*
G75*
G02Y33230I2089J1*
G01*
G75*
G02X103207Y34159I2112*
G01*
X83144*
G75*
G02X79623Y35620J4974*
G01*
X74884Y40359*
Y30984*
X80624*
Y19272*
X92953*
G75*
G02X98571I2809*
G01*
X124055*
G75*
G02X129673I2809*
G01*
X149325*
Y30984*
X182480*
Y39574*
G75*
G02X182461Y39862I2100J288*
G01*
G75*
G02X182480Y40150I2119*
G01*
Y41982*
X194398*
Y30984*
X194587*
Y32153*
G75*
G02X194567Y32441I2100J288*
G01*
G75*
G02X194587Y32729I2119*
G01*
Y34318*
G75*
G02X194567Y34606I2100J288*
G01*
G75*
G02X194587Y34894I2119*
G01*
Y36503*
G75*
G02X194567Y36791I2100J288*
G01*
G75*
G02X194587Y37080I2119*
G01*
Y39475*
G75*
G02X194547Y39882I2081J407*
G01*
G75*
G02X194587Y40289I2120*
G01*
Y41982*
X196379*
G75*
G02X196956I288J-2100*
G01*
X201780*
Y30984*
X201929*
Y41982*
X219752*
Y30984*
X231547*
G37*
X178134Y50472D02*
G36*
G75*
G02X173822I-2156J2677D01*
G01*
X149496*
Y43976*
X158031*
G75*
G02X162272I2120*
G01*
X231547*
Y50472*
X222311*
G75*
G02X218071I-2120*
G01*
X178134*
G37*
X164055Y61496D02*
G36*
X156945D01*
X149496Y54047*
Y50472*
X173822*
G75*
G02X172541Y53150I2156J2677*
G01*
Y53150*
G75*
G02X173350Y55365I3437*
G01*
G75*
G02X171036Y56396I186J3530*
G01*
X166029Y61404*
X164561*
G75*
G02X164055Y61496J1431*
G01*
G37*
X197359D02*
G36*
X192262Y56399D01*
G75*
G02X189758Y55360I-2505J2500*
G01*
X178611*
G75*
G02X179416Y53150I-2631J-2210*
G01*
Y53150*
G75*
G02X178134Y50472I-3437*
G01*
X218071*
G75*
G02X222311I2120*
G01*
X231547*
Y61496*
X219201*
G75*
G02X214961I-2120*
G01*
X197359*
G37*
X164055D02*
G36*
G75*
G02X163548Y61824I506J1337D01*
G01*
X162370Y63002*
G75*
G02X161949Y64016I1009J1013*
G01*
Y64252*
X159701*
X156945Y61496*
X164055*
G37*
X190109Y64252D02*
G36*
X188612D01*
X186795Y62435*
X188293*
X190109Y64252*
G37*
X200115D02*
G36*
X197359Y61496D01*
X214961*
G75*
G02X219201I2120*
G01*
X231547*
Y64252*
X205421*
G75*
G02X201181I-2120*
G01*
X200115*
G37*
X198377Y72520D02*
G36*
X194457D01*
Y70866*
G75*
G02X192152Y67792I-3203J0*
G01*
X188612Y64252*
X190109*
X198377Y72520*
G37*
X161949Y64252D02*
G36*
Y66500D01*
X159701Y64252*
X161949*
G37*
X214682Y72520D02*
G36*
X214241Y72079D01*
G75*
G02X216445Y69961I83J-2119*
G01*
G75*
G02X212205I-2120*
G01*
G75*
G02X212206Y70044I2213*
G01*
X211396Y69234*
G75*
G02X208892Y68195I-2505J2500*
G01*
X204058*
X200115Y64252*
X201181*
G75*
G02X205421I2120*
G01*
X231547*
Y72520*
X220854*
G75*
G02X216614I-2120*
G01*
X214682*
G37*
X189941Y88740D02*
G36*
X186650D01*
Y87369*
G75*
G02X189941Y87091I1533J-1465*
G01*
Y88740*
G37*
X211927D02*
G36*
X206287D01*
G75*
G02X202047I-2120*
G01*
X199922*
G75*
G02X196917I-1502J1496*
G01*
X196346*
Y81102*
G75*
G02X195406Y78835I-3204J0*
G01*
X194457Y77886*
Y72520*
X198377*
X200088Y74231*
G75*
G02X202593Y75270I2505J-2500*
G01*
X207426*
X215197Y83040*
Y87377*
G75*
G02X211927Y88740I-1187J1757*
G01*
G37*
X225262D02*
G36*
G75*
G02X225264Y88661I-2123J-82D01*
G01*
G75*
G02X222272Y86729I-2120*
G01*
Y85989*
G75*
G02X225343Y84094I951J-1895*
G01*
G75*
G02X224784Y82660I-2120J0*
G01*
G75*
G02X226444Y80591I-459J-2070*
G01*
G75*
G02X225203Y78661I-2120*
G01*
G75*
G02X226642Y76654I-681J-2007*
G01*
G75*
G02X222402I-2120*
G01*
G75*
G02X223643Y78583I2121J0*
G01*
G75*
G02X222205Y80591I681J2007*
G01*
G75*
G02X222763Y82025I2120*
G01*
G75*
G02X222272Y82200I453J2054*
G01*
Y81575*
G75*
G02X221233Y79070I-3539J0*
G01*
X214682Y72520*
X216614*
G75*
G02X220854I2120*
G01*
X231547*
Y88740*
X225262*
G37*
X204547Y111575D02*
G36*
X192272D01*
G75*
G02X188031I-2120*
G01*
X186256*
Y105456*
G75*
G02X189673Y103780I1297J-1677*
G01*
G75*
G02X186256Y102103I-2120J0*
G01*
Y100319*
G75*
G02X186650Y99291I-1145J-1028*
G01*
Y99291*
Y99288*
Y88740*
X189941*
Y91339*
G75*
G02X190881Y93606I3204J0*
G01*
X199538Y102262*
G75*
G02X201805Y103203I2267J-2262*
G01*
X203203*
G75*
G02X204437Y102956I-2J-3212*
G01*
X204547Y103352*
Y111575*
G37*
X196917Y88740D02*
G36*
G75*
G02X196346Y89791I1502J1496D01*
G01*
Y88740*
X196917*
G37*
X217329Y111575D02*
G36*
X208197D01*
Y103102*
G75*
G02X208130Y102611I-1828J0*
G01*
X207838Y101566*
G75*
G02X208315Y100000I-2332J-1567*
G01*
G75*
G02X205506Y97191I-2809*
G01*
X204741*
G75*
G02X203203Y96797I-1539J2810*
G01*
X203132*
X198675Y92341*
G75*
G02X200539Y90236I-256J-2105*
G01*
G75*
G02X199922Y88740I-2120J0*
G01*
X202047*
G75*
G02X206287I2120*
G01*
X211927*
G75*
G02X211890Y89134I2084J394*
G01*
G75*
G02X215197Y90891I2120*
G01*
Y95591*
G75*
G02X216236Y98095I3539J0*
G01*
X220315Y102174*
Y102960*
G75*
G02X218898Y104961I703J2000*
G01*
G75*
G02X220295Y106954I2120*
G01*
G75*
G02X220157Y107953I3558J1000*
G01*
Y109736*
G75*
G02X217329Y111575I-715J1996*
G01*
G37*
X227547D02*
G36*
Y107953D01*
G75*
G02X227390Y106885I-3713J3*
G01*
Y100709*
G75*
G02X226351Y98204I-3539J0*
G01*
X222272Y94125*
Y92720*
G75*
G02X225264Y90787I872J-1932*
G01*
G75*
G02X224978Y89724I-2120J0*
G01*
G75*
G02X225262Y88740I-1834J-1063*
G01*
X231547*
Y111575*
X227547*
G37*
X204547Y113701D02*
G36*
X186256D01*
Y111575*
X188031*
G75*
G02X192272I2120*
G01*
X204547*
Y113701*
G37*
X218656D02*
G36*
X215500D01*
G75*
G02X211260I-2120*
G01*
X208197*
Y111575*
X217329*
G75*
G02X217323Y111732I2115J158*
G01*
G75*
G02X218656Y113701I2120J0*
G01*
G37*
X227547D02*
G36*
Y111575D01*
X231547*
Y113701*
X227547*
G37*
X218785Y148189D02*
G36*
X215421D01*
G75*
G02X211181I-2120*
G01*
X204681*
Y131582*
X205017Y131246*
G75*
G02X205469Y130158I-1085J-1088*
G01*
Y130157*
Y119570*
G75*
G02X206051Y118110I-1539J-1461*
G01*
G75*
G02X201811I-2120*
G01*
G75*
G02X202394Y119570I2122J-1*
G01*
Y129521*
X202058Y129856*
G75*
G02X201606Y130944I1085J1088*
G01*
Y130945*
Y148189*
X200939*
X191096Y138346*
Y137689*
G75*
G02X194476Y135984I1260J-1705*
G01*
G75*
G02X191096Y134279I-2120*
G01*
Y129477*
X198183*
G75*
G02X199471Y128189J-1288*
G01*
Y121262*
Y121260*
Y121260*
G75*
G02X199094Y120349I-1288*
G01*
X196653Y117908*
G75*
G02X195746Y117531I-910J910*
G01*
X186261Y117494*
X186256*
Y113701*
X204547*
Y114646*
G75*
G02X205082Y115936I1824*
G01*
X207146Y118000*
Y140811*
G75*
G02X206850Y141890I1825J1080*
G01*
G75*
G02X211091I2120*
G01*
G75*
G02X210795Y140811I-2120J0*
G01*
Y117244*
G75*
G02X210261Y115954I-1824*
G01*
X208197Y113890*
Y113701*
X211260*
G75*
G02X215500I2120*
G01*
X218656*
G75*
G02X220157Y113728I787J-1969*
G01*
Y146816*
X218785Y148189*
G37*
X227547D02*
G36*
Y113701D01*
X231547*
Y148189*
X227547*
G37*
X201606Y154724D02*
G36*
X201018D01*
Y148268*
X200939Y148189*
X201606*
Y154724*
G37*
X218785Y148189D02*
G36*
X215767Y151206D01*
G75*
G02X214685Y153819I2613J2613*
G01*
G75*
G02X214798Y154724I3695J0*
G01*
X204681*
Y148189*
X211181*
G75*
G02X215421I2120*
G01*
X218785*
G37*
X227547D02*
G36*
X231547D01*
Y154724*
X222700*
X226465Y150959*
G75*
G02X227547Y148346I-2615J-2614*
G01*
Y148189*
G37*
X205900Y262126D02*
G36*
X202508D01*
G75*
G02X198268I-2120*
G01*
X172750*
X175821Y259055*
X204876*
G75*
G02X204567Y260157I1812J1102*
G01*
G75*
G02X205900Y262126I2120*
G01*
G37*
X222700Y154724D02*
G36*
X231547D01*
Y260209*
X220191*
G75*
G02X218904Y261496J1287*
G01*
Y262126*
X207474*
G75*
G02X208807Y260157I-787J-1969*
G01*
G75*
G02X208498Y259055I-2121*
G01*
X220703*
X231490Y248268*
Y205827*
X201018Y175354*
Y154724*
X201606*
Y164646*
Y164646*
G75*
G02X202058Y165734I1537*
G01*
X221843Y185519*
Y189879*
G75*
G02X221260Y191339I1539J1461*
G01*
G75*
G02X225500I2120*
G01*
G75*
G02X224917Y189879I-2122J1*
G01*
Y184882*
Y184881*
G75*
G02X224466Y183793I-1537*
G01*
X204681Y164009*
Y154724*
X214798*
G75*
G02X220993Y156431I3582J-906*
G01*
X222700Y154724*
G37*
X218904Y273012D02*
G36*
X211012D01*
G75*
G02X202638I-4187*
G01*
X165686*
G75*
G02X165815Y272283I-1991J-729*
G01*
G75*
G02X164538Y270338I-2120*
G01*
X172750Y262126*
X198268*
G75*
G02X202508I2120*
G01*
X205900*
G75*
G02X207474I787J-1969*
G01*
X218904*
Y273012*
G37*
Y283451D02*
G36*
X167344D01*
Y274488*
Y274488*
G75*
G02X167238Y273976I-1285*
G01*
Y273898*
X167201*
G75*
G02X166057Y273201I-1144J591*
G01*
X165606*
G75*
G02X165686Y273012I-1912J-916*
G01*
X202638*
G75*
G02X211012I4187*
G01*
X218904*
Y283451*
G37*
X165854Y194803D02*
X163394D01*
Y165433*
G75*
G02X163370Y165176I-1432J-1*
G01*
X166016Y167794*
Y194553*
G75*
G02X165854Y194803I1695J1274*
G01*
G36*
X163394*
Y165433*
G75*
G02X163370Y165176I-1432J-1*
G01*
X166016Y167794*
Y194553*
G75*
G02X165854Y194803I1695J1274*
G01*
G37*
X170665Y117452D02*
Y111424D01*
X174900Y107189*
G75*
G02X175244Y105541I-1087J-1087*
G01*
Y91676*
X175362Y91794*
G75*
G02X176451Y92246I1089J-1086*
G01*
X179200*
X180394Y93441*
G75*
G02X183575Y95221I2119J-55*
G01*
Y98657*
G75*
G02X183181Y99685I1144J1028*
G01*
G75*
G02Y99686I740J0*
G01*
G75*
G02Y99689I868J2*
G01*
Y117482*
X180350Y117471*
G75*
G02X180196Y117479I-8J1286*
G01*
G75*
G02X176334Y117464I-1935J867*
G01*
G75*
G02X176184Y117455I-156J1280*
G01*
X175590Y117452*
G75*
G02X175582I-4J1801*
G01*
X170665*
X171260Y113150D02*
G75*
G02X175500I2120D01*
G01*
G75*
G02X171260I-2120*
G01*
X183181D02*
G36*
X175500D01*
G75*
G02X171260I-2120*
G01*
X170915*
Y111174*
X174900Y107189*
G75*
G02X175350Y106102I-1089J-1087*
G01*
G75*
G02X175244Y105541I-1539J0*
G01*
Y91926*
X175512*
G75*
G02X176451Y92246I938J-1217*
G01*
X179200*
X180394Y93441*
G75*
G02X183325Y95344I2119J-55*
G01*
Y99036*
G75*
G02X183181Y99685I1395J649*
G01*
Y99686*
Y99689*
Y113150*
G37*
Y117232D02*
G36*
X180065D01*
G75*
G02X176459I-1803J1115*
G01*
X170915*
Y113150*
X171260*
G75*
G02X175500I2120*
G01*
X183181*
Y117232*
G37*
X174205Y146220D02*
Y159678D01*
X173475Y160407*
G75*
G02X173024Y161496I1086J1089*
G01*
Y192967*
X172581Y193392*
G75*
G02X170594Y194803I11J2120*
G01*
X169567*
G75*
G02X169406Y194553I-1857J1024*
G01*
Y167087*
G75*
G02X168903Y165882I-1695*
G01*
X161768Y158820*
Y146652*
G75*
G02X164904Y146220I1376J-1613*
G01*
X174205*
G36*
Y159678*
X173475Y160407*
G75*
G02X173024Y161496I1086J1089*
G01*
Y192967*
X172581Y193392*
G75*
G02X170594Y194803I11J2120*
G01*
X169567*
G75*
G02X169406Y194553I-1857J1024*
G01*
Y167087*
G75*
G02X168903Y165882I-1695*
G01*
X161768Y158820*
Y146652*
G75*
G02X164904Y146220I1376J-1613*
G01*
X174205*
G37*
X177088Y89171D02*
X168987Y81070D01*
G75*
G02X171110Y78504I-489J-2566*
G01*
G75*
G02X165932Y78016I-2612*
G01*
X162509Y74593*
G75*
G02X162909Y74620I398J-2941*
G01*
X164640*
G75*
G02X165593Y74463J-2966*
G01*
X165850*
G75*
G02X169189Y73345I916J-2809*
G01*
G75*
G02X172587Y71654I1278J-1691*
G01*
G75*
G02X169189Y69962I-2120*
G01*
G75*
G02X168656Y69382I-2424J1693*
G01*
G75*
G02X169196Y69042I-473J-1351*
G01*
X169981Y68257*
G75*
G02X170402Y67244I-1010J-1014*
G01*
Y67036*
X175003Y62435*
X182081*
G75*
G02X182417Y66002I2322J1581*
G01*
X188051Y71636*
Y79213*
G75*
G02X188992Y81480I3203*
G01*
X189941Y82429*
Y84720*
G75*
G02X186650Y84442I-1758J1185*
G01*
Y81732*
G75*
G02X186198Y80644I-1538*
G01*
X176886Y71332*
Y69491*
G75*
G02X177469Y68031I-1537J-1460*
G01*
G75*
G02X173228I-2120*
G01*
G75*
G02X173811Y69491I2120*
G01*
Y71969*
G75*
G02X174263Y73057I1538*
G01*
X183575Y82369*
Y91550*
G75*
G02X182569Y91267I-1061J1836*
G01*
X180925Y89623*
G75*
G02X179837Y89171I-1089J1086*
G01*
X177088*
G36*
X168987Y81070*
G75*
G02X171110Y78504I-489J-2566*
G01*
G75*
G02X165932Y78016I-2612*
G01*
X162509Y74593*
G75*
G02X162909Y74620I398J-2941*
G01*
X164640*
G75*
G02X165593Y74463J-2966*
G01*
X165850*
G75*
G02X169189Y73345I916J-2809*
G01*
G75*
G02X172587Y71654I1278J-1691*
G01*
G75*
G02X169189Y69962I-2120*
G01*
G75*
G02X168656Y69382I-2424J1693*
G01*
G75*
G02X169196Y69042I-473J-1351*
G01*
X169981Y68257*
G75*
G02X170402Y67244I-1010J-1014*
G01*
Y67036*
X175003Y62435*
X182081*
G75*
G02X182417Y66002I2322J1581*
G01*
X188051Y71636*
Y79213*
G75*
G02X188992Y81480I3203*
G01*
X189941Y82429*
Y84720*
G75*
G02X186650Y84442I-1758J1185*
G01*
Y81732*
G75*
G02X186198Y80644I-1538*
G01*
X176886Y71332*
Y69491*
G75*
G02X177469Y68031I-1537J-1460*
G01*
G75*
G02X173228I-2120*
G01*
G75*
G02X173811Y69491I2120*
G01*
Y71969*
G75*
G02X174263Y73057I1538*
G01*
X183575Y82369*
Y91550*
G75*
G02X182569Y91267I-1061J1836*
G01*
X180925Y89623*
G75*
G02X179837Y89171I-1089J1086*
G01*
X177088*
G37*
X183181Y118770D02*
Y121867D01*
G75*
G02X179966Y124447I-1297J1676*
G01*
X179679*
G75*
G02X178591Y124898J1538*
G01*
X177699Y125791*
G75*
G02X177783Y125197I-2035J-593*
G01*
G75*
G02X173543I-2120*
G01*
G75*
G02X176257Y127232I2120*
G01*
X174656Y128833*
G75*
G02X174205Y129921I1086J1089*
G01*
Y144933*
X164907*
G75*
G02X163835Y145503I-2J1287*
G01*
G75*
G03X162605Y145674I-691J-464*
G01*
G75*
G02X161768Y145365I-837J979*
G01*
Y118740*
X167591*
Y120466*
X167577Y120479*
G75*
G02X165512Y122598I55J2119*
G01*
G75*
G02X169751Y122653I2120*
G01*
X170214Y122191*
G75*
G02X170665Y121102I-1086J-1089*
G01*
Y118740*
X175585*
X176179Y118743*
G75*
G02X180341Y118759I2083J-396*
G01*
X183181Y118770*
G36*
Y121867*
G75*
G02X179966Y124447I-1297J1676*
G01*
X179679*
G75*
G02X178591Y124898J1538*
G01*
X177699Y125791*
G75*
G02X177783Y125197I-2035J-593*
G01*
G75*
G02X173543I-2120*
G01*
G75*
G02X176257Y127232I2120*
G01*
X174656Y128833*
G75*
G02X174205Y129921I1086J1089*
G01*
Y144933*
X164907*
G75*
G02X163835Y145503I-2J1287*
G01*
G75*
G03X162605Y145674I-691J-464*
G01*
G75*
G02X161768Y145365I-837J979*
G01*
Y118740*
X167591*
Y120466*
X167577Y120479*
G75*
G02X165512Y122598I55J2119*
G01*
G75*
G02X169751Y122653I2120*
G01*
X170214Y122191*
G75*
G02X170665Y121102I-1086J-1089*
G01*
Y118740*
X175585*
X176179Y118743*
G75*
G02X180341Y118759I2083J-396*
G01*
X183181Y118770*
G37*
X186256Y118782D02*
X195742Y118819D01*
X198183Y121260*
Y128189*
X179649*
X180316Y127522*
X183222*
G75*
G02X184311Y127070J-1538*
G01*
X185804Y125577*
G75*
G02X186256Y124488I-1086J-1089*
G01*
Y118782*
X190781Y127238D02*
G75*
G02X192902Y125118J-2120D01*
G01*
G75*
G02X190781Y122998I-2120*
G01*
G75*
G02X188661Y125118J2120*
G01*
G75*
G02X190781Y127238I2120*
G01*
X197933Y121010D02*
G36*
Y125118D01*
X192902*
Y125118*
G75*
G02X190781Y122998I-2120*
G01*
G75*
G02X188661Y125118J2120*
G01*
Y125118*
X186121*
G75*
G02X186256Y124489I-1402J-629*
G01*
Y124488*
Y119032*
X195955*
X197933Y121010*
G37*
X186121Y125118D02*
G36*
X188661D01*
Y125119*
G75*
G02X190781Y127238I2120*
G01*
G75*
G02X192902Y125119J-2120*
G01*
Y125118*
X197933*
Y127939*
X179899*
X180316Y127522*
X183222*
G75*
G02X184311Y127070I0J-1537*
G01*
X185804Y125577*
G75*
G02X186121Y125118I-1085J-1089*
G01*
G37*
X189949Y125119D02*
Y125118D01*
G75*
G03X190781Y124286I832*
G01*
X190782*
G75*
G03X191614Y125118J832*
G01*
Y125118*
G75*
G03X190782Y125950I-832*
G01*
X190781*
G75*
G03X189949Y125119J-832*
G01*
G36*
Y125118*
G75*
G03X190781Y124286I832*
G01*
X190782*
G75*
G03X191614Y125118J832*
G01*
Y125118*
G75*
G03X190782Y125950I-832*
G01*
X190781*
G75*
G03X189949Y125119J-832*
G01*
G37*
X203452Y240037D02*
X194100D01*
X200214Y233923*
G75*
G02X200665Y232835I-1086J-1089*
G01*
Y224151*
G75*
G02X204791Y223465I2006J-686*
G01*
G75*
G02X203550Y221535I-2120*
G01*
G75*
G02X204513Y220393I-1036J-1850*
G01*
X208929Y224810*
Y225133*
G75*
G02X205984Y227087I-825J1953*
G01*
G75*
G02X208929Y229040I2120*
G01*
Y234560*
X203452Y240037*
G36*
X194100*
X200214Y233923*
G75*
G02X200665Y232835I-1086J-1089*
G01*
Y224151*
G75*
G02X204791Y223465I2006J-686*
G01*
G75*
G02X203550Y221535I-2120*
G01*
G75*
G02X204513Y220393I-1036J-1850*
G01*
X208929Y224810*
Y225133*
G75*
G02X205984Y227087I-825J1953*
G01*
G75*
G02X208929Y229040I2120*
G01*
Y234560*
X203452Y240037*
G37*
D02*
D14*
X4404Y32008D03*
Y34213D03*
Y36378D03*
Y38543D03*
Y40709D03*
Y42874D03*
Y45079D03*
X8026Y34803D03*
X8065Y31811D03*
X11884Y153386D03*
Y155591D03*
Y157795D03*
Y160000D03*
X11963Y162205D03*
Y164409D03*
Y166614D03*
Y168819D03*
X12593Y94724D03*
Y96929D03*
Y99094D03*
Y101260D03*
Y103425D03*
Y105591D03*
Y107795D03*
Y112283D03*
X12632Y90315D03*
Y92520D03*
Y110079D03*
X12829Y210000D03*
X12868Y48661D03*
Y50866D03*
Y53071D03*
Y55276D03*
Y57441D03*
Y59606D03*
Y61772D03*
Y63937D03*
Y66142D03*
Y68346D03*
Y70551D03*
X12947Y88110D03*
X14719Y90157D03*
X14955Y210000D03*
Y212126D03*
Y214252D03*
Y216378D03*
X15033Y50787D03*
Y52992D03*
Y55197D03*
Y57362D03*
Y59528D03*
Y61693D03*
Y63858D03*
Y66063D03*
X15073Y48583D03*
Y68346D03*
X15112Y85827D03*
X15152Y88110D03*
X15860Y180000D03*
Y189252D03*
Y201457D03*
X17199Y50787D03*
Y52992D03*
Y55197D03*
Y57362D03*
Y59528D03*
Y61693D03*
Y63858D03*
Y66063D03*
X17238Y48504D03*
Y87953D03*
X17278Y83622D03*
Y85827D03*
X18734Y145433D03*
Y147638D03*
X19049Y169921D03*
Y172126D03*
X19128Y174331D03*
Y182992D03*
Y185157D03*
Y187323D03*
Y189488D03*
Y191654D03*
Y193819D03*
Y196024D03*
Y198228D03*
Y202717D03*
X19167Y200512D03*
X19404Y48504D03*
Y52913D03*
Y55118D03*
Y57283D03*
Y59449D03*
Y61614D03*
Y63780D03*
Y81535D03*
Y83701D03*
Y85906D03*
X19443Y50709D03*
X20565Y95492D03*
Y125315D03*
Y135276D03*
X20585Y115413D03*
X20703Y105512D03*
X20900Y145433D03*
Y147638D03*
X21215Y172126D03*
X21293Y170000D03*
Y174331D03*
Y176535D03*
X21333Y183150D03*
Y185315D03*
Y187480D03*
Y189646D03*
X21569Y59370D03*
Y61535D03*
Y79291D03*
Y81457D03*
Y83622D03*
Y85827D03*
X23065Y145433D03*
Y147638D03*
X23301Y270472D03*
X23734Y59370D03*
Y77126D03*
Y79291D03*
Y81457D03*
Y83622D03*
X25860Y74882D03*
Y77047D03*
Y79213D03*
Y81378D03*
X26293Y250866D03*
X27396Y73386D03*
X27553Y78110D03*
X27632Y75906D03*
X28262Y107323D03*
Y150787D03*
X28321Y37756D03*
X28419Y127795D03*
Y129961D03*
Y132126D03*
Y134291D03*
Y136457D03*
Y138661D03*
Y143150D03*
X28459Y140945D03*
X29285Y109213D03*
X29600Y126142D03*
X30073Y37756D03*
X30230Y95039D03*
Y97323D03*
Y99488D03*
Y101654D03*
X30467Y91260D03*
Y105118D03*
Y107323D03*
X30545Y127953D03*
Y130118D03*
Y132283D03*
Y134449D03*
Y136614D03*
Y138819D03*
Y143307D03*
Y145512D03*
X30585Y141102D03*
X31411Y93150D03*
Y109173D03*
Y111417D03*
Y113701D03*
Y115866D03*
Y118031D03*
X32120Y217146D03*
X32199Y167402D03*
X32278Y212126D03*
X32356Y95079D03*
Y97323D03*
Y99606D03*
X32514Y88504D03*
Y90630D03*
X32907Y172126D03*
X33222Y155354D03*
Y157559D03*
X33380Y179803D03*
Y198898D03*
X33537Y92835D03*
X33970Y184724D03*
X34246Y194488D03*
X34364Y207165D03*
X34482Y253780D03*
Y255984D03*
X34561Y87874D03*
Y95157D03*
Y97402D03*
Y99685D03*
X34640Y90079D03*
X35191Y85827D03*
X35663Y169606D03*
X36215Y142677D03*
X36451Y96299D03*
Y98583D03*
X36687Y253780D03*
Y255984D03*
X36844Y162756D03*
X36923Y84646D03*
X37317Y204803D03*
X37789Y169606D03*
X38656Y134961D03*
Y137165D03*
Y139291D03*
X38813Y283150D03*
X39679Y83307D03*
Y133228D03*
X39758Y141024D03*
X39915Y196063D03*
X40624Y163228D03*
X40703Y135039D03*
X40860Y137165D03*
Y139291D03*
X40900Y214685D03*
Y216850D03*
Y219016D03*
Y221181D03*
X41333Y143858D03*
X41569Y261260D03*
Y263465D03*
Y265669D03*
X41805Y194961D03*
Y197165D03*
X42593Y267480D03*
X43065Y214685D03*
Y216850D03*
Y219016D03*
Y221181D03*
X43774Y256850D03*
Y259055D03*
Y261496D03*
Y263465D03*
Y265669D03*
X44010Y194961D03*
Y197165D03*
X44069Y37697D03*
X44089Y31850D03*
Y34823D03*
X44797Y267480D03*
X45230Y214764D03*
Y216929D03*
Y219094D03*
Y221260D03*
X45978Y259370D03*
Y261575D03*
Y263780D03*
Y265827D03*
X46608Y186693D03*
X47396Y206142D03*
Y214764D03*
Y216929D03*
Y219094D03*
Y221260D03*
X48026Y260000D03*
X48341Y32402D03*
Y36890D03*
Y39094D03*
Y41299D03*
X48380Y34685D03*
X48813Y199921D03*
X49364Y204961D03*
Y207165D03*
X49522Y53622D03*
X49561Y214685D03*
Y216850D03*
Y219016D03*
Y221181D03*
X49837Y165276D03*
Y176299D03*
Y178583D03*
Y180787D03*
Y182992D03*
X50506Y32402D03*
Y36890D03*
Y39094D03*
Y41299D03*
X50545Y34685D03*
Y55472D03*
Y196457D03*
X51490Y204882D03*
Y207087D03*
X51648Y53661D03*
X51726Y214685D03*
Y216850D03*
Y219016D03*
Y221181D03*
X51805Y137874D03*
X52041Y167480D03*
Y178583D03*
Y180787D03*
Y182992D03*
X52671Y32402D03*
Y36890D03*
Y39094D03*
Y41299D03*
Y144094D03*
X52711Y34685D03*
Y55472D03*
X53656Y204843D03*
Y207008D03*
X53813Y53661D03*
X53892Y214764D03*
Y216929D03*
Y219094D03*
Y221260D03*
X54246Y169606D03*
Y180709D03*
Y182913D03*
X54325Y127874D03*
X54482Y160709D03*
Y162913D03*
X54837Y32402D03*
Y36890D03*
Y39094D03*
Y41299D03*
X54876Y34685D03*
Y55472D03*
X55033Y283150D03*
X55821Y171102D03*
Y204843D03*
Y207008D03*
X55900Y115433D03*
X55978Y53661D03*
X56057Y214764D03*
Y216929D03*
Y219094D03*
Y221260D03*
X56293Y164094D03*
X56372Y161969D03*
X56451Y182913D03*
X57041Y55512D03*
X57238Y271102D03*
X57317Y172677D03*
X57986Y204921D03*
Y207087D03*
X58026Y87087D03*
X58144Y53661D03*
X58222Y214764D03*
Y216929D03*
Y219094D03*
Y221260D03*
X58498Y162047D03*
X58656Y182913D03*
X59049Y169370D03*
X59207Y55472D03*
X59305Y37343D03*
Y39626D03*
X59325Y31929D03*
X59344Y34626D03*
X59443Y143543D03*
X60152Y204921D03*
Y207087D03*
X60230Y174567D03*
X60309Y53661D03*
X60388Y214764D03*
Y216929D03*
Y219094D03*
Y221260D03*
X60742Y101457D03*
X60860Y182835D03*
X61096Y87953D03*
X61372Y55472D03*
X62120Y167165D03*
Y169370D03*
X62317Y204921D03*
Y207087D03*
X62474Y53661D03*
X62514Y99528D03*
X62553Y214843D03*
Y217008D03*
Y219173D03*
Y221339D03*
X63055Y177490D03*
X63065Y174488D03*
Y182835D03*
X63537Y55472D03*
X64325Y164961D03*
Y167165D03*
Y169370D03*
X64482Y204921D03*
Y207087D03*
X64640Y53661D03*
Y64882D03*
X64719Y214843D03*
Y217008D03*
Y219173D03*
Y221339D03*
X64876Y115591D03*
X65270Y144016D03*
X65427Y157165D03*
Y159370D03*
Y163071D03*
X65663Y174567D03*
X65703Y55472D03*
X66215Y134488D03*
X66451Y61260D03*
X66530Y165039D03*
Y167244D03*
Y169449D03*
X66608Y161181D03*
X66648Y205000D03*
Y207165D03*
X66884Y214764D03*
Y216929D03*
Y219094D03*
Y221260D03*
X67632Y159291D03*
Y163071D03*
X67868Y174567D03*
X68577Y120236D03*
X68734Y165039D03*
Y167244D03*
Y169449D03*
X68813Y161181D03*
Y205000D03*
Y207165D03*
X69049Y214764D03*
Y216929D03*
Y219094D03*
Y221260D03*
X69522Y267874D03*
X69679Y180551D03*
Y182756D03*
Y184961D03*
X69837Y163071D03*
X69876Y194803D03*
X69915Y189685D03*
Y192283D03*
X70073Y144882D03*
Y174567D03*
Y187323D03*
X70309Y272520D03*
X70624Y123150D03*
X70781Y96299D03*
X70939Y165039D03*
Y167244D03*
Y169449D03*
Y204961D03*
X70978Y196535D03*
X71018Y207087D03*
X71215Y214843D03*
Y217008D03*
Y219173D03*
Y221339D03*
X71884Y180551D03*
Y182756D03*
Y184961D03*
X72041Y189685D03*
Y192283D03*
Y194803D03*
X72199Y187323D03*
X72278Y174488D03*
X72671Y135433D03*
X72750Y144803D03*
X73144Y165118D03*
Y167323D03*
Y169528D03*
Y196614D03*
X73222Y207087D03*
X73380Y214843D03*
Y217008D03*
Y219173D03*
Y221339D03*
X73852Y143071D03*
X74089Y180472D03*
Y182677D03*
Y184882D03*
X74207Y189764D03*
Y192362D03*
Y194882D03*
X74364Y187402D03*
X74482Y174488D03*
X75309Y196614D03*
X75348Y167323D03*
Y169528D03*
X75545Y214843D03*
Y217008D03*
Y219173D03*
Y221339D03*
X75663Y32520D03*
X76057Y143071D03*
X76136Y38031D03*
X76293Y159921D03*
Y182677D03*
Y184882D03*
X76372Y189764D03*
Y192362D03*
Y194882D03*
X76530Y187402D03*
X76687Y174488D03*
X77474Y196614D03*
X77711Y214843D03*
Y217008D03*
Y219173D03*
Y221339D03*
X77868Y32520D03*
X77947Y68661D03*
Y272520D03*
X78262Y72441D03*
X78419Y58268D03*
X78498Y184882D03*
X78537Y189764D03*
Y192362D03*
Y194882D03*
X78695Y187402D03*
X78970Y70472D03*
X79600Y204961D03*
X79640Y196614D03*
X79876Y214921D03*
Y217087D03*
Y219252D03*
Y221417D03*
X80073Y32520D03*
Y68661D03*
X80703Y184803D03*
Y189764D03*
Y192362D03*
Y194882D03*
X80781Y203071D03*
X80860Y187402D03*
X81018Y119606D03*
X81096Y145512D03*
X81254Y87244D03*
X81766Y204961D03*
Y207165D03*
X81805Y159449D03*
X81884Y196614D03*
X82041Y214921D03*
Y217087D03*
Y219252D03*
Y221417D03*
X82199Y32520D03*
Y68661D03*
Y251575D03*
Y253858D03*
X82278Y48268D03*
X82947Y203071D03*
X83026Y189764D03*
Y192362D03*
Y194882D03*
X83380Y87244D03*
X83852Y31024D03*
X83931Y204961D03*
Y207165D03*
X84010Y159449D03*
X84049Y196614D03*
X84128Y47087D03*
Y49252D03*
X84561Y251654D03*
Y253858D03*
X85112Y203071D03*
X85191Y194882D03*
X85348Y192362D03*
X85663Y250079D03*
X85742Y68819D03*
X86018Y45984D03*
Y48150D03*
Y50315D03*
Y52480D03*
X86096Y205039D03*
Y207244D03*
X86215Y159449D03*
Y196693D03*
X86530Y184331D03*
X86766Y251654D03*
Y253858D03*
X87278Y203150D03*
X87317Y212480D03*
X87356Y194961D03*
X87632Y156693D03*
X87829Y23543D03*
X87868Y44882D03*
Y75748D03*
X87907Y49213D03*
Y51378D03*
X87947Y47008D03*
X88104Y250000D03*
X88262Y205039D03*
X88380Y196693D03*
X88498Y174488D03*
X88970Y251654D03*
Y253858D03*
X88990Y272520D03*
X89049Y53307D03*
Y216772D03*
Y221181D03*
X89128Y218976D03*
X89443Y203150D03*
X89522Y194961D03*
X89679Y179764D03*
Y184016D03*
X89837Y87244D03*
X89994Y23543D03*
X90073Y44961D03*
Y47126D03*
Y49291D03*
Y51457D03*
X90427Y205039D03*
X90545Y196693D03*
X90624Y174488D03*
X90781Y131732D03*
X91096Y251732D03*
X91175Y53386D03*
Y253858D03*
X91254Y216693D03*
Y221102D03*
X91333Y218898D03*
X91411Y142047D03*
X91884Y179764D03*
Y181890D03*
Y184016D03*
X92199Y47126D03*
Y49331D03*
Y51535D03*
X92238Y44921D03*
X93065Y157323D03*
X93301Y53386D03*
Y163858D03*
X93380Y189685D03*
Y216772D03*
Y221181D03*
X93459Y218976D03*
X93695Y144094D03*
X93852Y115827D03*
Y117953D03*
Y120128D03*
Y122283D03*
X94364Y47126D03*
Y49331D03*
Y51535D03*
X94404Y44921D03*
X95348Y145512D03*
X95467Y53465D03*
X96057Y115827D03*
Y117953D03*
Y120128D03*
Y122283D03*
Y131890D03*
X96530Y47126D03*
Y49331D03*
Y51535D03*
X96569Y44921D03*
X96687Y272520D03*
X97002Y146929D03*
X97238Y28031D03*
Y142992D03*
X97632Y53465D03*
X98173Y115827D03*
Y117953D03*
Y120128D03*
Y122283D03*
X98498Y148504D03*
X98695Y47126D03*
Y49331D03*
Y51535D03*
X98734Y44921D03*
X98892Y83937D03*
X99404Y28031D03*
X99797Y53465D03*
X99994Y150157D03*
X100073Y272520D03*
X100309Y115827D03*
Y117953D03*
Y120079D03*
Y122205D03*
X100545Y19685D03*
X100939Y44882D03*
Y47047D03*
Y49252D03*
Y51457D03*
X101569Y28031D03*
X102435Y142598D03*
X102494Y125669D03*
X102711Y19055D03*
X103104Y47047D03*
Y49252D03*
Y51457D03*
X103144Y44882D03*
X103537Y78425D03*
X103734Y28031D03*
X104167Y55197D03*
X104876Y19055D03*
X105033Y144252D03*
X105112Y33228D03*
X105270Y47087D03*
Y49213D03*
X105900Y28031D03*
X106215Y238268D03*
X106293Y76693D03*
X106608Y149213D03*
Y197402D03*
X107041Y19055D03*
X107081Y164803D03*
X108734Y254803D03*
X109207Y19055D03*
X109443Y76772D03*
X109837Y230945D03*
X110230Y206457D03*
X110388Y225197D03*
X110624Y272520D03*
X111372Y19055D03*
X111805Y203465D03*
X111963Y149213D03*
Y230945D03*
X112041Y140394D03*
X112632Y27244D03*
X113065Y138504D03*
X113537Y19055D03*
Y75118D03*
X113616Y87480D03*
X113695Y255512D03*
X114167Y140236D03*
X114797Y27244D03*
X115348Y138425D03*
X115703Y19055D03*
X115742Y184921D03*
X116215Y204261D03*
X116372Y140315D03*
Y246929D03*
X116963Y27244D03*
X117907Y19055D03*
X118341Y46142D03*
Y48268D03*
Y50315D03*
Y272520D03*
X118498Y55748D03*
X118577Y106929D03*
X118970Y84724D03*
X119128Y27244D03*
X120073Y19055D03*
X120230Y47244D03*
Y49370D03*
X121293Y27244D03*
X121333Y272520D03*
X121569Y168268D03*
Y170472D03*
Y172677D03*
X122120Y48346D03*
X122238Y19055D03*
X123459Y27244D03*
X123734Y170472D03*
X123774Y168268D03*
Y172677D03*
Y174882D03*
X124719Y108898D03*
Y111102D03*
Y113268D03*
Y115433D02*
Y108898D01*
Y115433D03*
X124797Y262598D03*
X125270Y81181D03*
X125427Y128425D03*
Y130551D03*
Y132677D03*
Y134803D03*
Y254646D03*
X125624Y27244D03*
X125900Y170472D03*
X125978Y168268D03*
Y172677D03*
Y174882D03*
X126923Y108898D03*
Y111102D03*
Y112992D03*
X127002Y117598D03*
X127159Y56535D03*
X127553Y128504D03*
Y132677D03*
Y134803D03*
X127632Y59528D03*
X127789Y27244D03*
Y122992D03*
Y125276D03*
X129049Y111102D03*
X129128Y106693D03*
Y108898D03*
X129207Y180945D03*
Y218740D03*
X129443Y252205D03*
X129600Y130551D03*
X129679Y132677D03*
X129955Y27244D03*
X129994Y122992D03*
Y125276D03*
X130781Y19055D03*
X131096Y82913D03*
X131254Y106693D03*
Y108898D03*
X131333Y77480D03*
X132120Y45984D03*
Y48189D03*
X132159Y27244D03*
X132199Y122992D03*
Y125276D03*
X132219Y272520D03*
X132278Y66693D03*
X132514Y228661D03*
X132829Y128425D03*
Y184016D03*
X132907Y101417D03*
X132947Y19055D03*
X133222Y62756D03*
X133970Y42795D03*
Y44961D03*
Y47126D03*
Y49291D03*
Y57165D03*
X134167Y256614D03*
X134246Y231496D03*
X134325Y27244D03*
Y226220D03*
X135112Y19055D03*
Y97087D03*
X135506Y186535D03*
X135663Y31969D02*
X140073D01*
X135663D03*
Y34094D03*
Y36299D03*
X136136Y42795D03*
Y44961D03*
Y47126D03*
Y49291D03*
Y57165D03*
X136490Y27244D03*
X137159Y195433D03*
Y256929D03*
X137278Y19055D03*
X137396Y211890D03*
Y214016D03*
X137553Y37480D03*
X137868Y31969D03*
Y34094D03*
X138262Y45591D03*
X138695Y27244D03*
X139049Y221969D03*
X139285Y212992D03*
X139364Y36299D03*
X139443Y19055D03*
X139994Y272520D03*
X140073Y31969D03*
Y34094D03*
Y38504D03*
Y145827D03*
Y147913D03*
Y150079D03*
X140152Y196378D03*
X140703Y67402D03*
X141608Y19055D03*
X141726Y45591D03*
X142199Y34094D02*
X140073Y31969D01*
X142199Y34094D03*
Y36299D03*
Y38504D03*
X142278Y145827D03*
Y147913D03*
Y150079D03*
X142435Y213386D03*
X142829Y223071D03*
X142986Y65236D03*
Y272520D03*
X143380Y231181D03*
X143537Y184488D03*
Y186693D03*
Y188898D03*
X143852Y91417D03*
X143931Y87165D03*
Y89291D03*
X144404Y145748D03*
Y147874D03*
Y150079D03*
Y152205D03*
Y154331D03*
X144600Y30236D03*
X145112Y171024D03*
X145348Y79843D03*
X145663Y222126D03*
X145742Y184409D03*
Y186614D03*
Y188819D03*
X145821Y218819D03*
X145978Y91417D03*
X146057Y87165D03*
Y89291D03*
X146136Y31811D03*
Y169213D03*
X146215Y172756D03*
X147238Y170945D03*
X147632Y206929D03*
X147750Y249685D03*
X147789Y203780D03*
X147947Y184409D03*
X148026Y186614D03*
Y188898D03*
Y191102D03*
Y193307D03*
X148183Y87087D03*
Y89213D03*
Y225118D03*
X148262Y138425D03*
Y169134D03*
X148341Y172756D03*
X148656Y209921D03*
X149364Y170945D03*
X149443Y211654D03*
X149837Y176929D03*
X149994Y215984D03*
X150073Y204016D03*
X150152Y184409D03*
Y247087D03*
X150230Y186614D03*
Y188819D03*
Y191024D03*
Y193228D03*
X150309Y32126D03*
Y34331D03*
Y36496D03*
Y38661D03*
Y40827D03*
Y42992D03*
Y45197D03*
X150388Y169134D03*
X150467Y172756D03*
X150624Y218898D03*
X150781Y210394D03*
X151175Y199921D03*
X151490Y170945D03*
X152041Y244724D03*
X152199Y201811D03*
Y204016D03*
X152356Y184409D03*
X152435Y169134D03*
Y186614D03*
Y188819D03*
Y191024D03*
Y193228D03*
X152474Y32126D03*
Y34331D03*
Y36496D03*
Y38661D03*
Y40827D03*
Y42992D03*
Y45197D03*
X152593Y172756D03*
X153380Y89528D03*
Y142441D03*
X153616Y170866D03*
X153715Y196299D03*
X153951Y272520D03*
X154404Y201732D03*
Y203937D03*
X154561Y169055D03*
X154640Y32126D03*
Y34331D03*
Y36496D03*
Y38661D03*
Y40827D03*
Y42992D03*
X154719Y172677D03*
X154837Y82362D03*
X155033Y242756D03*
X155191Y116693D03*
X155742Y179449D03*
Y226850D03*
X156530Y89606D03*
X156608Y201732D03*
Y203937D03*
X156805Y32126D03*
Y34331D03*
Y36496D03*
Y38661D03*
Y40827D03*
Y42992D03*
Y80000D03*
X156923Y252520D03*
X157002Y98661D03*
X157947Y103701D03*
X158026Y242756D03*
X158498Y92126D03*
X158656Y209685D03*
X158970Y32126D03*
Y34331D03*
Y36496D03*
Y38661D03*
Y40827D03*
X159049Y250394D03*
X160152Y43976D03*
X161018Y104094D03*
X161136Y32126D03*
Y34331D03*
Y36496D03*
Y38661D03*
Y40827D03*
X161175Y227165D03*
Y248268D03*
X161805Y84961D03*
X161884Y245354D03*
X162435Y108898D03*
X162986Y88031D03*
X163144Y140787D03*
Y142913D03*
Y145039D03*
X163301Y32126D03*
Y34331D03*
Y36496D03*
Y38661D03*
Y40827D03*
Y42992D03*
X163459Y215748D03*
X163616Y208740D03*
X163695Y152441D03*
Y159055D03*
Y272283D03*
X164089Y64567D03*
Y66850D03*
X164561Y233858D03*
X164640Y71654D03*
X164876Y112087D03*
X164955Y160787D03*
X165033Y139685D03*
Y141811D03*
Y143937D03*
X165467Y32126D03*
Y34331D03*
Y36496D03*
Y38661D03*
Y40827D03*
Y42992D03*
X165978Y65748D03*
X166215Y45039D03*
Y47244D03*
Y152441D03*
Y159055D03*
X166766Y71654D03*
X167081Y91024D03*
X167159Y137559D03*
Y139685D03*
Y141811D03*
X167474Y160787D03*
X167553Y206929D03*
X167632Y122598D03*
X167711Y195827D03*
X167947Y64724D03*
Y66929D03*
X168183Y143622D03*
X168419Y231969D03*
X168577Y158976D03*
X168813Y218268D03*
Y220315D03*
X169285Y137559D03*
Y139685D03*
Y141811D03*
X169758Y160787D03*
X170309Y143622D03*
Y201417D03*
X170388Y203622D03*
Y205827D03*
X170467Y71654D03*
Y207953D03*
X170545Y231969D03*
X170781Y217717D03*
Y219921D03*
X170860Y92283D03*
X171411Y137559D03*
Y139685D03*
Y141811D03*
Y226535D03*
X172435Y143622D03*
X172593Y195512D03*
X173222Y138583D03*
Y140709D03*
X173380Y113150D03*
X175348Y68031D03*
X175663Y125197D03*
X175742Y110157D03*
X177278Y167598D03*
Y172520D03*
X177632Y194961D03*
X178262Y118346D03*
X178734Y132126D03*
Y134173D03*
Y136299D03*
Y138346D03*
Y140551D03*
Y142756D03*
X178813Y227402D03*
X178911Y39783D03*
X179108Y30394D03*
Y32559D03*
Y34724D03*
Y36909D03*
X179443Y149193D03*
X180230Y237795D03*
X180703Y53307D03*
X180939Y132126D03*
Y134173D03*
Y136299D03*
Y138346D03*
Y140551D03*
Y142756D03*
X181333Y233622D03*
X181569Y215906D03*
Y217953D03*
Y220000D03*
X181884Y123543D03*
X182041Y225984D03*
X182356Y231654D03*
X182514Y54488D03*
Y93386D03*
X182593Y52283D03*
X183144Y132126D03*
Y134173D03*
Y136299D03*
Y138346D03*
Y140551D03*
Y142756D03*
X183616Y233543D03*
Y235669D03*
X184581Y39862D03*
X184699Y30236D03*
Y32402D03*
Y34567D03*
Y36752D03*
X185348Y132126D03*
Y134173D03*
Y136299D03*
Y138346D03*
Y142756D03*
X185427Y173504D03*
Y175630D03*
Y177756D03*
Y179882D03*
Y182008D03*
X185742Y231339D03*
Y233465D03*
Y235669D03*
X187396Y195118D03*
Y197323D03*
Y199528D03*
X187553Y103780D03*
Y132126D03*
Y134173D03*
Y136142D03*
Y173504D03*
Y175630D03*
Y177756D03*
Y179882D03*
Y182008D03*
X187947Y237244D03*
X188183Y85906D03*
X189679Y173504D03*
Y175630D03*
Y177756D03*
Y179882D03*
Y182008D03*
X189994Y195118D03*
X190152Y111575D03*
Y237244D03*
X190388Y244016D03*
X190781Y125118D03*
X191805Y173504D03*
Y175630D03*
Y177756D03*
Y179882D03*
Y182008D03*
X192199Y195118D03*
X192356Y135984D03*
X192671Y230787D03*
X193911Y173504D03*
Y175630D03*
Y177756D03*
Y179882D03*
Y182008D03*
X194404Y195118D03*
Y197323D03*
Y199528D03*
Y201654D03*
X194719Y218110D03*
X195348Y130787D03*
Y132913D03*
X196057Y173504D03*
Y175630D03*
Y177756D03*
Y179882D03*
Y182008D03*
X196372Y215118D03*
X196451Y229685D03*
X196530Y225827D03*
X196667Y39882D03*
X196687Y30276D03*
Y32441D03*
Y34606D03*
Y36791D03*
X196963Y73701D03*
X198419Y90236D03*
X199049Y237402D03*
X200152Y144252D03*
X200388Y262126D03*
X200781Y109055D03*
X201175Y88661D03*
X202514Y219685D03*
X202671Y223465D03*
X202986Y228189D03*
X203065Y230394D03*
X203203Y100000D03*
X203301Y64252D03*
X203695Y214016D03*
X203931Y118110D03*
X204167Y88740D03*
X205033Y225906D03*
X205506Y100000D03*
X206215Y216535D03*
X206687Y260157D03*
X207002Y94567D03*
Y96693D03*
X207081Y92598D03*
X208104Y227087D03*
X208498Y59764D03*
X208970Y141890D03*
X209837Y148583D03*
X212986Y221339D03*
X213281Y32441D03*
Y34606D03*
Y36791D03*
X213301Y39862D03*
Y148189D03*
X213380Y113701D03*
Y243937D03*
X213459Y184724D03*
X213695Y240630D03*
X214010Y89134D03*
X214325Y69961D03*
X216372Y32441D03*
Y34606D03*
Y36772D03*
Y38957D03*
X217081Y61496D03*
Y134331D03*
Y142835D03*
X218341Y153819D03*
X218734Y72520D03*
X218813Y118268D03*
X218970Y116220D03*
X219207Y134331D03*
Y136457D03*
Y138583D03*
Y140709D03*
Y142835D03*
X219443Y111732D03*
X220073Y61496D03*
X220152Y59291D03*
X220191Y50472D03*
X220742Y32362D03*
Y34567D03*
Y36732D03*
Y38898D03*
Y41063D03*
Y43228D03*
Y45433D03*
X221018Y104961D03*
X221963Y60551D03*
X222041Y58346D03*
X222907Y32362D03*
Y34567D03*
Y36732D03*
Y38898D03*
Y41063D03*
Y43228D03*
Y45433D03*
Y47638D03*
Y52008D03*
Y54173D03*
Y56378D03*
X223144Y88661D03*
Y90787D03*
X223222Y84094D03*
X223380Y191339D03*
X224089Y62520D03*
X224167Y60315D03*
X224246Y58189D03*
X224325Y80591D03*
Y196220D03*
X224522Y76654D03*
X225073Y32362D03*
Y34567D03*
Y36732D03*
Y38898D03*
Y41063D03*
Y43228D03*
Y45433D03*
Y47638D03*
Y49843D03*
Y52047D03*
X226411Y192244D03*
Y194449D03*
Y198858D03*
X226451Y190039D03*
Y196654D03*
X226530Y187953D03*
X227238Y32283D03*
Y34488D03*
Y36654D03*
Y38819D03*
Y40984D03*
Y43150D03*
Y45354D03*
Y49843D03*
Y52047D03*
X227278Y47638D03*
X228577Y192244D03*
Y194449D03*
Y198858D03*
Y201063D03*
X228616Y190039D03*
Y196654D03*
X228656Y187913D03*
X229404Y32283D03*
Y34488D03*
Y36654D03*
Y38819D03*
Y40984D03*
Y43150D03*
Y45354D03*
Y49843D03*
Y52047D03*
X229443Y47638D03*
D02*
D15*
X175703Y273602D03*
X189581Y48996D03*
D02*
D16*
X22455Y98917D03*
Y108839D03*
Y118799D03*
Y128740D03*
Y138681D03*
D02*
D17*
X198183Y35039D03*
D02*
D18*
X65722Y35197D03*
X210841Y35039D03*
D02*
D19*
X188439D03*
D02*
D70*
X28183Y34154D03*
D02*
D71*
X39482Y34134D03*
D02*
D20*
X174266Y35118D03*
D02*
D21*
X14344Y34134D03*
D02*
D22*
X127533Y130591D03*
X127553Y140571D03*
X135703Y130492D03*
X135722Y140531D03*
D02*
D23*
X12514Y204803D02*
X15860Y201457D01*
X44285Y90335D03*
X48341D03*
X52396D03*
X131096Y82913D02*
X127868D01*
X105585Y105197*
X100467*
X90309Y115354*
Y127638*
X87238Y130709*
Y135276*
X89522Y137559*
X91805*
X97238Y142992*
D02*
D24*
X28892Y278268D03*
X48577D03*
D02*
D25*
X24955Y288898D03*
X52514D03*
D02*
D26*
X189108Y273012D03*
X206825D03*
D02*
D27*
X184187Y262776D03*
X211746D03*
D02*
D28*
X109409Y45404D03*
Y48504D03*
Y51604D03*
X112459Y45404D03*
Y48504D03*
Y51604D03*
D02*
D29*
X12868Y48661D02*
Y70551D01*
X30545Y138819D02*
X38183D01*
X38656Y139291*
X30545Y145512D02*
Y145984D01*
X49837Y165276*
X31411Y118031D02*
Y124331D01*
X29600Y126142*
X32199Y167402D02*
X29679D01*
X28970Y168110*
Y220079*
X35821Y226929*
X95585*
X99758Y222756*
X132278*
X138734Y216299*
X146057*
X146372Y215984*
X149994*
X32278Y212126D02*
X32907Y211496D01*
X39482*
X40467Y212480*
X87317*
X34364Y207165D02*
Y207756D01*
X41844*
X43813Y209724*
X118104*
X120683Y207146*
X147415*
X147632Y206929*
X37789Y169606D02*
Y169528D01*
X40939Y172677*
X46215*
X49837Y176299*
X41805Y194961D02*
X44010D01*
X41805Y197165D02*
X44010D01*
X49837Y176299D02*
Y182992D01*
X52041Y178583D02*
X49837D01*
X54246Y180709D02*
X53632D01*
X53537Y180804*
X49853*
X49837Y180787*
X56372Y161969D02*
Y160748D01*
X58577Y158543*
X58498Y162047D02*
X56451D01*
X56372Y161969*
X60742Y101457D02*
X39128D01*
X31411Y109173*
X63055Y177490D02*
X58744D01*
X25506Y144252*
Y139429*
X21352Y135276*
X20565*
X65270Y144016D02*
Y149606D01*
X67002Y151339*
X85900*
X90230Y155669*
Y170079*
X95348Y175197*
Y184803*
X93065Y187087*
X92041*
X90939Y188189*
Y191969*
X91963Y192992*
X103852*
X111963Y184882*
Y149213*
X69994Y159921D02*
X70388D01*
X59955*
X58577Y158543*
X70939Y204961D02*
X68852D01*
X68813Y205000*
X72671Y135433D02*
Y125039D01*
X73459Y124252*
Y93150*
X64640Y84331*
Y64882*
X72750Y144803D02*
X70152D01*
X70073Y144882*
X73852Y143071D02*
X76057D01*
X76293Y159921D02*
X70388D01*
X81254Y87244D02*
X83380D01*
X81766Y207165D02*
X73301D01*
X73222Y207087*
X85112Y203071D02*
X87199D01*
X87278Y203150*
X86530Y184331D02*
Y181890D01*
X79285Y174646*
Y156063*
X76451Y153228*
X52278*
X49285Y150236*
Y144016*
X55270Y138031*
X74404*
X75506Y136929*
Y92126*
X78813Y88819*
Y77323*
X85742Y70394*
Y68819*
X87868Y75748D02*
X86608D01*
X83459Y78898*
Y87165*
X83380Y87244*
X89679Y184016D02*
Y185354D01*
X87081Y187953*
X84837*
X83026Y189764*
X91411Y142047D02*
Y142126D01*
X84797Y148740*
X76687*
X72750Y144803*
X93695Y144094D02*
X93459D01*
X91411Y142047*
X99797Y53465D02*
X92081D01*
X90073Y51457*
X103537Y78425D02*
X94561D01*
Y75748*
X87868*
X115348Y138425D02*
Y139055D01*
X114167Y140236*
X118498Y55748D02*
Y60551D01*
X129758Y71811*
X131726*
X133695Y73780*
Y84331*
X130860Y87165*
X128970*
X107002Y109134*
Y125827*
X103695Y129134*
X94482*
X93144Y130472*
Y134882*
X99679Y141417*
Y146142*
X102593Y149055*
Y160315*
X107081Y164803*
X120388Y103858D02*
X117947D01*
X115742Y106063*
Y130709*
X108577Y137874*
Y146378*
X109679Y147480*
Y170709*
X108577Y171811*
Y182835*
X101726Y189685*
X93380*
X125270Y81181D02*
X124325Y80236D01*
X105348*
X103537Y78425*
X129443Y252205D02*
X121648D01*
X116372Y246929*
X134167Y256614D02*
X132671D01*
X130624Y254567*
X124797*
X125427Y254646*
X140152Y196378D02*
Y197165D01*
X136530Y200787*
X54325*
X52593Y202520*
X46608*
X44325Y204803*
X37317*
X141726Y45591D02*
Y55984D01*
X176451Y90709*
X179837*
X182514Y93386*
X148183Y87087D02*
X146136D01*
X143931Y89291*
X148183Y224882D02*
Y225118D01*
X150309Y45197D02*
Y42992D01*
X153380Y89528D02*
Y96457D01*
X131648Y118189*
X127002*
Y117598*
X154837Y82362D02*
X154797D01*
X149128Y76693*
X141726*
X137553Y80866*
Y83858*
X133537Y87874*
Y87953*
X124561Y96929*
X122120*
X111018Y108031*
Y125433*
X110939*
X104482Y131890*
X96057*
X155191Y116693D02*
X133065Y138819D01*
Y141890*
X136372Y145197*
Y172598*
X143144Y179370*
X155663*
X155742Y179449*
X156805Y80000D02*
X156766D01*
X146530Y69764*
X137711*
X135900Y67953*
Y65433*
X133222Y62756*
X161018Y104094D02*
Y104843D01*
X160073Y105787*
Y111890*
X160152Y111969*
Y159528*
X167711Y167087*
Y195827*
X163459Y215748D02*
X166372D01*
X168026Y214094*
X169994*
X172986Y211102*
Y200079*
X170230Y197323*
Y161496*
X169758Y161024*
Y160787*
X163616Y208740D02*
X161018Y206142D01*
Y202126*
X157947Y199055*
Y167008*
X147474Y156535*
Y144961*
X143045Y140531*
X135722*
X166293Y203465D02*
X167553Y204724D01*
Y206929*
X167081Y91024D02*
Y91009D01*
X173813Y106102D02*
X169128Y110787D01*
Y121102*
X167632Y122598*
X175348Y68031D02*
Y71969D01*
X185112Y81732*
Y99291*
X184719Y99685*
Y124488*
X183222Y125984*
X179679*
X175742Y129921*
Y160315*
X174561Y161496*
Y193622*
X172593Y195512*
X180230Y237795D02*
X152750D01*
X148656Y241890*
X125191*
X118970Y235669*
X106687*
X102514Y231496*
Y229764*
X101411Y228661*
X34640*
X26844Y220866*
Y166299*
X28498Y164646*
X34325*
X35033Y165354*
X38498*
X40624Y163228*
X181569Y220000D02*
X184089D01*
X187868Y223780*
Y227953*
X185112Y230709*
X185742Y231339*
X190388Y244016D02*
Y244094D01*
X168734*
X155821Y257008*
X141569*
X138734Y254173*
X136608*
X134167Y256614*
X196372Y215118D02*
X199049D01*
X201254Y217323*
X203616*
X210467Y224173*
Y235197*
X204089Y241575*
X188970*
X188498Y242047*
X162041*
X157868Y246220*
X154719*
X153065Y247874*
X150939*
X150152Y247087*
X199049Y237402D02*
X199679D01*
X203222Y233858*
Y230551*
X203065Y230394*
X201175Y88661D02*
Y89606D01*
X210152Y98583*
Y114331*
X214089Y118268*
X218813*
X202514Y219685D02*
X201963D01*
X199128Y222520*
Y232835*
X192435Y239528*
X187789*
X187081Y240236*
X153065*
X146844Y246457*
X121175*
X112986Y238268*
X106215*
X203065Y230394D02*
Y228268D01*
X202986Y228189*
X218970Y116220D02*
Y118110D01*
X218813Y118268*
X221018Y104961D02*
X223852Y107953D01*
X222907Y56378D02*
Y52008D01*
X223380Y191339D02*
Y184882D01*
X203144Y164646*
Y130945*
X203931Y130157*
Y118110*
X226451Y190039D02*
Y198819D01*
X226411Y198858*
X227278Y47638D02*
X222907D01*
X228577Y201063D02*
Y187992D01*
X228656Y187913*
D02*
D72*
X5663Y204803D02*
X12514D01*
X97474Y264724D02*
X94955D01*
Y262441*
X84876Y252362*
X34797*
Y253780*
X34482*
X106451Y230079D02*
X124876D01*
X131096Y236299*
X148419*
X151411Y233307*
X183301*
X191411Y225197*
Y207480*
X143931Y89291D02*
X144404D01*
Y98740*
X129955Y113189*
X126923*
Y112992*
X166766Y65669D02*
X173537Y58898D01*
X189758*
X202593Y71732*
X208892*
X218734Y81575*
Y95591*
X223852Y100709*
Y107953*
X191411Y180020D02*
X193911Y178465D01*
X223852Y107953D02*
Y148346D01*
X218380Y153819*
X218341*
D02*
D73*
X203203Y100000D02*
X201805D01*
X193144Y91339*
Y81102*
X191254Y79213*
Y70866*
D02*
D74*
X208970Y141890D02*
Y117244D01*
X206372Y114646*
Y103102*
X205506Y100000*
D02*
D112*
X19404Y155787D03*
Y160512D03*
X21569Y151260D03*
X37002Y92598D03*
X38026Y87874D03*
X57396Y90236D03*
X58577Y158543D03*
X74719Y84409D03*
X81254Y52283D03*
X106451Y230079D03*
X164974Y149134D03*
Y155787D03*
X169600Y53150D03*
X175978D03*
D02*
D113*
X13813Y245118D03*
X97474Y264724D02*
X86766Y254016D01*
Y253858*
X191411Y207480D02*
Y180020D01*
X193911Y178465D02*
X224719Y209272D01*
Y244882*
X217632Y251969*
X171411*
X158656Y264724*
X97474*
D02*
D116*
X5663Y204803D02*
Y217165D01*
X6451Y217953*
X5663Y204803D02*
Y86457D01*
X44246Y47874*
X74404*
X83144Y39134*
X108695*
X111530Y36299*
X139364*
D02*
D118*
X20565Y125315D02*
X19049D01*
X17632Y123898*
Y93307*
X19994Y90945*
X21333*
X30624Y81654*
Y70472*
X42593Y58504*
X69679*
X72514Y61339*
X107868*
X116215Y52992*
X119915*
X122986Y56063*
Y57559*
X124955Y59528*
X127632*
X22455Y108839D02*
X25860Y105433D01*
X25900*
X27396Y103937*
Y88504*
X32986Y82913*
Y71575*
X43616Y60945*
X59679*
X59994Y61260*
X66451*
X81096Y145512D02*
Y143307D01*
X84640Y139764*
Y129685*
X86687Y127638*
Y115276*
X113616Y88346*
Y87480*
X98892Y83937D02*
Y87008D01*
X88183Y97717*
Y106929*
X81018Y114094*
Y119606*
X109443Y76772D02*
Y74488D01*
X99915Y64961*
X70152*
X66451Y61260*
X118970Y84724D02*
X109837D01*
X91333Y103228*
Y107244*
X84089Y114488*
Y126614*
X82278Y128425*
Y135591*
X77711Y140157*
X56530*
X52671Y144016*
Y144094*
X132829Y128425D02*
Y133780D01*
X128734Y137874*
X123774*
X118577Y132677*
Y106929*
X158498Y92126D02*
Y91811D01*
X159207Y91102*
Y87638*
X158419Y86850*
X151963*
X149600Y84488*
X142593*
X121411Y105669*
Y120827*
X125860Y125276*
X127789*
D02*
D119*
X168498Y78504D03*
D02*
D120*
X164640Y71654D02*
X162907D01*
X146530Y55276*
Y32126*
X144640Y30236*
X144600*
X166766Y71654D02*
X164640D01*
X167947Y64724D02*
X166451D01*
Y65669*
X166766*
X191254Y70866D02*
X184404Y64016D01*
X203203Y100000D02*
X205506D01*
D02*
D121*
X49128Y66299D03*
X55900Y66063D03*
X126923Y108898D02*
Y112992D01*
X132671Y146457D03*
D02*
D122*
X184404Y64016D03*
X0Y0D02*
M02*
