G04 EasyPC Gerber Version 21.0.3 Build 4286 *
G04 #@! TF.Part,Single*
G04 #@! TF.FileFunction,Paste,Top *
G04 #@! TF.FilePolarity,Positive *
%FSLAX35Y35*%
%MOMM*%
G04 #@! TA.AperFunction,SMDPad*
%ADD88R,0.72000X0.82000*%
%ADD87R,0.72000X1.22000*%
%ADD93R,0.79260X1.12280*%
%ADD91R,1.04000X1.54000*%
%ADD92R,1.04000X1.94000*%
%ADD90R,1.04000X2.24000*%
%ADD89R,0.82000X0.72000*%
%ADD85R,1.12280X0.79260*%
%ADD86R,1.92000X1.12000*%
X0Y0D02*
D02*
D85*
X2024350Y904140D03*
Y1094140D03*
X2227390Y999140D03*
D02*
D86*
X1428370Y526640D03*
X3318370Y1021640D03*
X3320870Y801640D03*
X4153370Y569140D03*
X4943370Y866640D03*
D02*
D87*
X1683370Y526640D03*
X3063370Y1021640D03*
X3065870Y801640D03*
X3898370Y569140D03*
X5198370Y866640D03*
D02*
D88*
X545870Y914140D03*
X555870Y684140D03*
X670870Y1309140D03*
X705870Y914140D03*
X715870Y684140D03*
X830870Y1309140D03*
X4083370D03*
X4243370D03*
X4778370Y526640D03*
X4913370Y1271640D03*
X4938370Y526640D03*
X5073370Y1271640D03*
D02*
D89*
X1618370Y1036640D03*
Y1196640D03*
X4063370Y874140D03*
Y1034140D03*
D02*
D90*
X445870Y1501640D03*
X1665870D03*
X4790870D03*
X4988370D03*
X5175870D03*
D02*
D91*
X4363370Y1536640D03*
D02*
D92*
X670870Y1516640D03*
X883370D03*
D02*
D93*
X2423370Y800120D03*
X2518370Y1003160D03*
X2613370Y800120D03*
X0Y0D02*
M02*
