G04 EasyPC Gerber Version 21.0.3 Build 4286 *
G04 #@! TF.Part,Single*
G04 #@! TF.FileFunction,Copper,L1,Top *
G04 #@! TF.FilePolarity,Positive *
%FSLAX35Y35*%
%MOMM*%
G04 #@! TA.AperFunction,SMDPad*
%ADD13R,0.90000X1.00000*%
%ADD12R,0.90000X1.40000*%
%ADD70R,0.99060X1.32080*%
%ADD18R,1.30000X1.80000*%
%ADD19R,1.30000X2.20000*%
%ADD17R,1.30000X2.50000*%
%ADD14R,1.00000X0.90000*%
%ADD10R,1.32080X0.99060*%
%ADD11R,2.20000X1.40000*%
G04 #@! TD.AperFunction*
%ADD27C,0.25400*%
%ADD24C,0.38100*%
%ADD21C,0.50000*%
G04 #@! TA.AperFunction,ViaPad*
%ADD71C,0.55000*%
G04 #@! TD.AperFunction*
%ADD23C,0.63500*%
%ADD22C,0.90000*%
%ADD26C,1.20000*%
G04 #@! TA.AperFunction,ViaPad*
%ADD20C,1.21920*%
G04 #@! TD.AperFunction*
%ADD25C,1.27000*%
G04 #@! TA.AperFunction,ComponentPad*
%ADD15C,1.60000*%
%ADD16C,1.90000*%
X0Y0D02*
D02*
D10*
X2024350Y904140D03*
Y1094140D03*
X2227390Y999140D03*
D02*
D11*
X1428370Y526640D03*
X3318370Y1021640D03*
X3320870Y801640D03*
X4153370Y569140D03*
X4943370Y866640D03*
D02*
D12*
X1683370Y526640D03*
X3063370Y1021640D03*
X3065870Y801640D03*
X3898370Y569140D03*
X5198370Y866640D03*
D02*
D13*
X545870Y914140D03*
X555870Y684140D03*
X670870Y1309140D03*
X705870Y914140D03*
X715870Y684140D03*
X830870Y1309140D03*
X4083370D03*
X4243370D03*
X4778370Y526640D03*
X4913370Y1271640D03*
X4938370Y526640D03*
X5073370Y1271640D03*
D02*
D14*
X1618370Y1036640D03*
Y1196640D03*
X4063370Y874140D03*
Y1034140D03*
D02*
D15*
X500420Y1097930D03*
X1101460Y496890D03*
X1479760Y1476230D03*
X4166980D03*
X4545280Y496890D03*
X5146320Y1097930D03*
D02*
D16*
X875900Y1119140D03*
X1123380Y871650D03*
Y1119140D03*
Y1366630D03*
X1370870Y1119140D03*
X4275870D03*
X4523360Y871650D03*
Y1119140D03*
Y1366630D03*
X4770840Y1119140D03*
D02*
D17*
X445870Y1501640D03*
X1665870D03*
X4790870D03*
X4988370D03*
X5175870D03*
D02*
D18*
X4363370Y1536640D03*
D02*
D19*
X670870Y1516640D03*
X883370D03*
D02*
D70*
X2423370Y800120D03*
X2518370Y1003160D03*
X2613370Y800120D03*
D02*
D71*
X555870Y561640D03*
X670870Y1206640D03*
X4278370Y1394140D03*
D02*
D20*
X448370Y1559140D03*
X670870Y1556140D03*
X885870Y1556640D03*
X1665870D03*
X2780870Y801640D03*
X3648370D03*
X4363370Y1569140D03*
X4370870Y639140D03*
X4790870Y1554140D03*
X4988370D03*
X5088370Y526640D03*
X5175870Y1554140D03*
D02*
D21*
X445870Y1501640D02*
Y1589140D01*
X448370*
Y1559140*
X670870Y1309140D02*
Y1206640D01*
X830870Y1309140D02*
Y1376640D01*
X883370Y1429140*
Y1516640*
X1123380Y1366630D02*
Y1371640D01*
X1060880Y1309140*
X830870*
X4083370D02*
Y1136640D01*
X3915870*
Y1116640*
X4083370Y1309140D02*
X4033370D01*
Y1624140*
X4363370*
Y1536640*
X4243370Y1309140D02*
Y1299140D01*
X4523360*
Y1366630*
D02*
D22*
X555870Y561640D02*
Y684140D01*
X670870Y1516640D02*
Y1309140D01*
X883370Y1516640D02*
X885870D01*
Y1556640*
X1123380Y871650D02*
X1618370D01*
Y911640*
Y904140*
X2024350*
X1618370Y1036640D02*
Y911640D01*
X1665870Y1556640D02*
X1660870D01*
Y1501640*
X1665870*
X2024350Y904140D02*
Y800120D01*
X2423370*
X2024350Y904140D02*
X1683370D01*
Y526640*
X3898370Y569140D02*
Y639140D01*
X4003370Y744140*
X4063370*
Y874140*
X3915870D02*
X4063370D01*
X3915870Y1116640D02*
Y874140D01*
X4063370D02*
X4523360D01*
Y871650*
X4778370Y526640D02*
Y601640D01*
X4523360Y856650*
Y871650*
X5175870Y1554140D02*
Y1501640D01*
D02*
D23*
X1370870Y1119140D02*
Y1174140D01*
X1393370Y1196640*
X1620870*
X1428370Y526640D02*
Y614140D01*
X1370870Y671640*
X875900*
Y1119140*
X1620870Y1196640D02*
Y1289140D01*
X1665870Y1334140*
Y1501640*
X1620870Y1196640D02*
X1618370D01*
X2613370Y800120D02*
Y801640D01*
X2780870*
X4153370Y569140D02*
X4370870D01*
Y639140*
X4275870Y1119140D02*
Y1114140D01*
X4195870Y1034140*
X4063370*
X4770840Y1119140D02*
X4770870D01*
Y774140*
X4938370Y606640*
Y526640*
X4913370Y1271640D02*
Y1231640D01*
X4943370Y1039140*
Y866640*
X4913370Y1271640D02*
X4555870D01*
X4523370Y1304140*
X4523360*
Y1366630*
X4938370Y526640D02*
X5088370D01*
X4988370Y1501640D02*
Y1414140D01*
X5073370Y1329140*
Y1271640*
X5088370Y526640D02*
X5090870D01*
X5198370Y634140*
Y866640*
D02*
D24*
X445870Y1501640D02*
Y1319140D01*
X615870Y1149140*
Y1041640*
X545870Y971640*
Y914140*
X705870D02*
X703370D01*
Y984140*
X743370Y1024140*
Y1174140*
X783370Y1214140*
Y1309140*
X830870*
X715870Y684140D02*
Y781640D01*
X683370Y814140*
X578370*
X545870Y846640*
Y914140*
X715870Y684140D02*
X875900D01*
Y1119140*
X2024350Y1094140D02*
X1823370D01*
X1720870Y1196640*
X1618370*
X4243370Y1309140D02*
Y1334140D01*
X4278370Y1369140*
Y1394140*
X5198370Y866640D02*
Y954140D01*
X5265870Y1021640*
Y1221640*
X5215870Y1271640*
X5073370*
D02*
D25*
X3065870Y801640D02*
X2780870D01*
X3320870D02*
X3648370D01*
D02*
D26*
X2780870D02*
Y1021640D01*
X3063370*
X3648370Y801640D02*
Y1021640D01*
X3318370*
D02*
D27*
X4790870Y1554140D02*
Y1501640D01*
X4988370D02*
Y1554140D01*
X0Y0D02*
M02*
