G04 EasyPC Gerber Version 21.0.3 Build 4286 *
G04 #@! TF.Part,Single*
G04 #@! TF.FileFunction,Copper,L4,Bot *
G04 #@! TF.FilePolarity,Positive *
%FSLAX35Y35*%
%MOMM*%
%ADD29C,0.20000*%
%ADD27C,0.25400*%
%ADD72C,0.40000*%
G04 #@! TA.AperFunction,ViaPad*
%ADD71C,0.55000*%
G04 #@! TD.AperFunction*
%ADD23C,0.63500*%
%ADD22C,0.90000*%
G04 #@! TA.AperFunction,ViaPad*
%ADD20C,1.21920*%
G04 #@! TD.AperFunction*
%ADD25C,1.27000*%
G04 #@! TA.AperFunction,ComponentPad*
%ADD15C,1.60000*%
%ADD16C,1.90000*%
X0Y0D02*
D02*
D15*
X500420Y1097930D03*
X1101460Y496890D03*
X1479760Y1476230D03*
X4166980D03*
X4545280Y496890D03*
X5146320Y1097930D03*
D02*
D16*
X875900Y1119140D03*
X1123380Y871650D03*
Y1119140D03*
Y1366630D03*
X1370870Y1119140D03*
X4275870D03*
X4523360Y871650D03*
Y1119140D03*
Y1366630D03*
X4770840Y1119140D03*
D02*
D71*
X555870Y561640D03*
X670870Y1206640D03*
X4278370Y1394140D03*
D02*
D20*
X448370Y1559140D03*
X670870Y1556140D03*
X885870Y1556640D03*
X1665870D03*
X2780870Y801640D03*
X3648370D03*
X4363370Y1569140D03*
X4370870Y639140D03*
X4790870Y1554140D03*
X4988370D03*
X5088370Y526640D03*
X5175870Y1554140D03*
D02*
D22*
X670870Y871650D02*
Y561640D01*
X555870*
X670870Y1206640D02*
Y871650D01*
X1123380D02*
X670870D01*
X4170870Y1299140D02*
X4388370D01*
X4455860Y1366630*
X4523360*
X4508370Y1554140D02*
X4790870D01*
D02*
D23*
X4370870Y639140D02*
X4978370D01*
X5088370Y529140*
Y526640*
D02*
D25*
X1123380Y871650D02*
Y869130D01*
X1485870Y506640*
X3945870*
X4265870Y826640*
X4478370*
X4523360Y871630*
Y871650*
X2780870Y801640D02*
X1968370D01*
X1458370Y1311640*
X1123380*
Y1366630*
X3648370Y801640D02*
X3723370D01*
X4080870Y1159140*
Y1209140*
X4170870Y1299140*
D02*
D27*
X4275870Y1119140D02*
X4333370D01*
Y1126640*
X4450870Y1244140*
X4523360Y1119140D02*
Y1119130D01*
X4370870Y966640*
X4065870*
X3758370Y659140*
X1913370*
X1615870Y956640*
X1285870*
X1123380Y1119130*
Y1119140*
X4663370Y1244140D02*
X4763370Y1344140D01*
X5175870*
Y1554140*
D02*
D29*
X4450870Y1244140D02*
X4663370D01*
D02*
D72*
X4278370Y1394140D02*
X4348370D01*
X4508370Y1554140*
X0Y0D02*
M02*
